<?xml version="1.0" encoding="utf-8" standalone="no"?>
<!DOCTYPE svg PUBLIC "-//W3C//DTD SVG 1.1//EN"
  "http://www.w3.org/Graphics/SVG/1.1/DTD/svg11.dtd">
<svg xmlns:xlink="http://www.w3.org/1999/xlink" width="512.04196pt" height="424.8pt" viewBox="0 0 512.04196 424.8" xmlns="http://www.w3.org/2000/svg" version="1.1">
 <metadata>
  <rdf:RDF xmlns:dc="http://purl.org/dc/elements/1.1/" xmlns:cc="http://creativecommons.org/ns#" xmlns:rdf="http://www.w3.org/1999/02/22-rdf-syntax-ns#">
   <cc:Work>
    <dc:type rdf:resource="http://purl.org/dc/dcmitype/StillImage"/>
    <dc:date>2025-10-11T17:46:55.723884</dc:date>
    <dc:format>image/svg+xml</dc:format>
    <dc:creator>
     <cc:Agent>
      <dc:title>Matplotlib v3.10.6, https://matplotlib.org/</dc:title>
     </cc:Agent>
    </dc:creator>
   </cc:Work>
  </rdf:RDF>
 </metadata>
 <defs>
  <style type="text/css">*{stroke-linejoin: round; stroke-linecap: butt}</style>
 </defs>
 <g id="figure_1">
  <g id="patch_1">
   <path d="M 0 424.8 
L 512.04196 424.8 
L 512.04196 0 
L 0 0 
z
" style="fill: #ffffff"/>
  </g>
  <g id="axes_1">
   <g id="line2d_1">
    <path d="M 400.287962 212.4 
L 217.597146 212.4 
L 478.18257 212.420637 
L 478.18257 212.420637 
" clip-path="url(#p6fda5d1be3)" style="fill: none; stroke: #000000; stroke-width: 0.9; stroke-linecap: square"/>
   </g>
   <g id="line2d_2">
    <path d="M 394.045087 164.980654 
L 217.597146 212.4 
L 478.18257 212.420637 
L 478.18257 212.420637 
" clip-path="url(#p6fda5d1be3)" style="fill: none; stroke: #000000; stroke-width: 0.9; stroke-linecap: square"/>
   </g>
   <g id="line2d_3">
    <path d="M 375.741902 120.792857 
L 217.597146 212.4 
L 478.18257 212.420637 
L 478.18257 212.420637 
" clip-path="url(#p6fda5d1be3)" style="fill: none; stroke: #000000; stroke-width: 0.9; stroke-linecap: square"/>
   </g>
   <g id="line2d_4">
    <path d="M 346.62574 82.847936 
L 217.597146 212.4 
L 478.18257 212.420637 
L 478.18257 212.420637 
" clip-path="url(#p6fda5d1be3)" style="fill: none; stroke: #000000; stroke-width: 0.9; stroke-linecap: square"/>
   </g>
   <g id="line2d_5">
    <path d="M 308.680819 53.731774 
L 217.597146 212.4 
L 478.18257 212.420637 
L 478.18257 212.420637 
" clip-path="url(#p6fda5d1be3)" style="fill: none; stroke: #000000; stroke-width: 0.9; stroke-linecap: square"/>
   </g>
   <g id="line2d_6">
    <path d="M 264.493023 35.42859 
L 217.597146 212.4 
L 478.18257 212.420637 
L 478.18257 212.420637 
" clip-path="url(#p6fda5d1be3)" style="fill: none; stroke: #000000; stroke-width: 0.9; stroke-linecap: square"/>
   </g>
   <g id="line2d_7">
    <path d="M 217.073676 29.185714 
L 217.597146 212.4 
L 478.18257 212.420637 
L 478.18257 212.420637 
" clip-path="url(#p6fda5d1be3)" style="fill: none; stroke: #000000; stroke-width: 0.9; stroke-linecap: square"/>
   </g>
   <g id="line2d_8">
    <path d="M 169.65433 35.42859 
L 217.597146 212.4 
L 478.18257 212.420637 
L 478.18257 212.420637 
" clip-path="url(#p6fda5d1be3)" style="fill: none; stroke: #000000; stroke-width: 0.9; stroke-linecap: square"/>
   </g>
   <g id="line2d_9">
    <path d="M 125.466534 53.731774 
L 217.597146 212.4 
L 478.18257 212.420637 
L 478.18257 212.420637 
" clip-path="url(#p6fda5d1be3)" style="fill: none; stroke: #000000; stroke-width: 0.9; stroke-linecap: square"/>
   </g>
   <g id="line2d_10">
    <path d="M 87.521613 82.847936 
L 217.597146 212.4 
L 478.18257 212.420637 
L 478.18257 212.420637 
" clip-path="url(#p6fda5d1be3)" style="fill: none; stroke: #000000; stroke-width: 0.9; stroke-linecap: square"/>
   </g>
   <g id="line2d_11">
    <path d="M 58.405451 120.792857 
L 217.597146 212.4 
L 478.18257 212.420637 
L 478.18257 212.420637 
" clip-path="url(#p6fda5d1be3)" style="fill: none; stroke: #000000; stroke-width: 0.9; stroke-linecap: square"/>
   </g>
   <g id="line2d_12">
    <path d="M 40.102266 164.980654 
L 217.597146 212.4 
L 478.18257 212.420637 
L 478.18257 212.420637 
" clip-path="url(#p6fda5d1be3)" style="fill: none; stroke: #000000; stroke-width: 0.9; stroke-linecap: square"/>
   </g>
   <g id="line2d_13">
    <path d="M 33.859391 212.4 
L 478.18257 212.420637 
L 478.18257 212.420637 
" clip-path="url(#p6fda5d1be3)" style="fill: none; stroke: #000000; stroke-width: 0.9; stroke-linecap: square"/>
   </g>
   <g id="line2d_14">
    <path d="M 40.102266 259.819346 
L 217.597146 212.4 
L 478.18257 212.420637 
L 478.18257 212.420637 
" clip-path="url(#p6fda5d1be3)" style="fill: none; stroke: #000000; stroke-width: 0.9; stroke-linecap: square"/>
   </g>
   <g id="line2d_15">
    <path d="M 58.405451 304.007143 
L 217.597146 212.4 
L 478.18257 212.420637 
L 478.18257 212.420637 
" clip-path="url(#p6fda5d1be3)" style="fill: none; stroke: #000000; stroke-width: 0.9; stroke-linecap: square"/>
   </g>
   <g id="line2d_16">
    <path d="M 87.521613 341.952064 
L 217.597146 212.4 
L 478.18257 212.420637 
L 478.18257 212.420637 
" clip-path="url(#p6fda5d1be3)" style="fill: none; stroke: #000000; stroke-width: 0.9; stroke-linecap: square"/>
   </g>
   <g id="line2d_17">
    <path d="M 125.466534 371.068226 
L 217.597146 212.4 
L 478.18257 212.420637 
L 478.18257 212.420637 
" clip-path="url(#p6fda5d1be3)" style="fill: none; stroke: #000000; stroke-width: 0.9; stroke-linecap: square"/>
   </g>
   <g id="line2d_18">
    <path d="M 169.65433 389.37141 
L 217.597146 212.4 
L 478.18257 212.420637 
L 478.18257 212.420637 
" clip-path="url(#p6fda5d1be3)" style="fill: none; stroke: #000000; stroke-width: 0.9; stroke-linecap: square"/>
   </g>
   <g id="line2d_19">
    <path d="M 217.073676 395.614286 
L 217.597146 212.4 
L 478.18257 212.420637 
L 478.18257 212.420637 
" clip-path="url(#p6fda5d1be3)" style="fill: none; stroke: #000000; stroke-width: 0.9; stroke-linecap: square"/>
   </g>
   <g id="line2d_20">
    <path d="M 264.493023 389.37141 
L 217.597146 212.4 
L 478.18257 212.420637 
L 478.18257 212.420637 
" clip-path="url(#p6fda5d1be3)" style="fill: none; stroke: #000000; stroke-width: 0.9; stroke-linecap: square"/>
   </g>
   <g id="line2d_21">
    <path d="M 308.680819 371.068226 
L 217.597146 212.4 
L 478.18257 212.420637 
L 478.18257 212.420637 
" clip-path="url(#p6fda5d1be3)" style="fill: none; stroke: #000000; stroke-width: 0.9; stroke-linecap: square"/>
   </g>
   <g id="line2d_22">
    <path d="M 346.62574 341.952064 
L 217.597146 212.4 
L 478.18257 212.420637 
L 478.18257 212.420637 
" clip-path="url(#p6fda5d1be3)" style="fill: none; stroke: #000000; stroke-width: 0.9; stroke-linecap: square"/>
   </g>
   <g id="line2d_23">
    <path d="M 375.741902 304.007143 
L 217.597146 212.4 
L 478.18257 212.420637 
L 478.18257 212.420637 
" clip-path="url(#p6fda5d1be3)" style="fill: none; stroke: #000000; stroke-width: 0.9; stroke-linecap: square"/>
   </g>
   <g id="line2d_24">
    <path d="M 394.045087 259.819346 
L 217.597146 212.4 
L 478.18257 212.420637 
L 478.18257 212.420637 
" clip-path="url(#p6fda5d1be3)" style="fill: none; stroke: #000000; stroke-width: 0.9; stroke-linecap: square"/>
   </g>
   <g id="line2d_25">
    <path d="M 217.073676 212.4 
L 478.182423 212.420666 
L 478.182423 212.420666 
" clip-path="url(#p6fda5d1be3)" style="fill: none; stroke: #000000; stroke-width: 0.9; stroke-linecap: square"/>
   </g>
   <g id="line2d_26">
    <path d="M 217.073676 212.4 
L 478.182423 212.420666 
L 478.182423 212.420666 
" clip-path="url(#p6fda5d1be3)" style="fill: none; stroke: #000000; stroke-width: 0.9; stroke-linecap: square"/>
   </g>
   <g id="line2d_27">
    <path d="M 217.073676 212.4 
L 478.182423 212.420666 
L 478.182423 212.420666 
" clip-path="url(#p6fda5d1be3)" style="fill: none; stroke: #000000; stroke-width: 0.9; stroke-linecap: square"/>
   </g>
   <g id="line2d_28">
    <path d="M 217.073676 212.4 
L 478.182423 212.420666 
L 478.182423 212.420666 
" clip-path="url(#p6fda5d1be3)" style="fill: none; stroke: #000000; stroke-width: 0.9; stroke-linecap: square"/>
   </g>
   <g id="line2d_29">
    <path d="M 217.073676 212.4 
L 478.182423 212.420666 
L 478.182423 212.420666 
" clip-path="url(#p6fda5d1be3)" style="fill: none; stroke: #000000; stroke-width: 0.9; stroke-linecap: square"/>
   </g>
  </g>
 </g>
 <defs>
  <clipPath id="p6fda5d1be3">
   <rect x="7.2" y="7.2" width="497.64196" height="410.4"/>
  </clipPath>
 </defs>
</svg>
