<svg xmlns="http://www.w3.org/2000/svg" width="210.0mm" height="297.0mm" viewBox="0 0 210.0 297.0" shape-rendering="crispEdges">
  <rect x="0" y="0" width="210.0" height="297.0" fill="white"/>
  <polyline fill="none" stroke="black" stroke-width="0.180" points="8.000,8.000 8.000,289.000"/>
  <polyline fill="none" stroke="black" stroke-width="0.180" points="8.500,8.000 8.500,289.000"/>
  <polyline fill="none" stroke="black" stroke-width="0.180" points="9.000,8.000 9.000,289.000"/>
  <polyline fill="none" stroke="black" stroke-width="0.180" points="9.500,8.000 9.500,289.000"/>
  <polyline fill="none" stroke="black" stroke-width="0.180" points="10.000,8.000 10.000,289.000"/>
  <polyline fill="none" stroke="black" stroke-width="0.180" points="10.500,8.000 10.500,289.000"/>
  <polyline fill="none" stroke="black" stroke-width="0.180" points="11.000,8.000 11.000,289.000"/>
  <polyline fill="none" stroke="black" stroke-width="0.180" points="11.500,8.000 11.500,289.000"/>
  <polyline fill="none" stroke="black" stroke-width="0.180" points="12.000,8.000 12.000,289.000"/>
  <polyline fill="none" stroke="black" stroke-width="0.180" points="12.500,8.000 12.500,289.000"/>
  <polyline fill="none" stroke="black" stroke-width="0.180" points="13.000,8.000 13.000,289.000"/>
  <polyline fill="none" stroke="black" stroke-width="0.180" points="13.500,8.000 13.500,289.000"/>
  <polyline fill="none" stroke="black" stroke-width="0.180" points="14.000,8.000 14.000,289.000"/>
  <polyline fill="none" stroke="black" stroke-width="0.180" points="14.500,8.000 14.500,289.000"/>
  <polyline fill="none" stroke="black" stroke-width="0.180" points="15.000,8.000 15.000,289.000"/>
  <polyline fill="none" stroke="black" stroke-width="0.180" points="15.500,8.000 15.500,289.000"/>
  <polyline fill="none" stroke="black" stroke-width="0.180" points="16.000,8.000 16.000,289.000"/>
  <polyline fill="none" stroke="black" stroke-width="0.180" points="16.500,8.000 16.500,289.000"/>
  <polyline fill="none" stroke="black" stroke-width="0.180" points="17.000,8.000 17.000,289.000"/>
  <polyline fill="none" stroke="black" stroke-width="0.180" points="17.500,8.000 17.500,289.000"/>
  <polyline fill="none" stroke="black" stroke-width="0.180" points="18.000,8.000 18.000,289.000"/>
  <polyline fill="none" stroke="black" stroke-width="0.180" points="18.500,8.000 18.500,289.000"/>
  <polyline fill="none" stroke="black" stroke-width="0.180" points="19.000,8.000 19.000,289.000"/>
  <polyline fill="none" stroke="black" stroke-width="0.180" points="19.500,8.000 19.500,289.000"/>
  <polyline fill="none" stroke="black" stroke-width="0.180" points="20.000,8.000 20.000,289.000"/>
  <polyline fill="none" stroke="black" stroke-width="0.180" points="20.500,8.000 20.500,289.000"/>
  <polyline fill="none" stroke="black" stroke-width="0.180" points="21.000,8.000 21.000,289.000"/>
  <polyline fill="none" stroke="black" stroke-width="0.180" points="21.500,8.000 21.500,289.000"/>
  <polyline fill="none" stroke="black" stroke-width="0.180" points="22.000,8.000 22.000,289.000"/>
  <polyline fill="none" stroke="black" stroke-width="0.180" points="22.500,8.000 22.500,289.000"/>
  <polyline fill="none" stroke="black" stroke-width="0.180" points="23.000,8.000 23.000,289.000"/>
  <polyline fill="none" stroke="black" stroke-width="0.180" points="23.500,8.000 23.500,289.000"/>
  <polyline fill="none" stroke="black" stroke-width="0.180" points="24.000,8.000 24.000,289.000"/>
  <polyline fill="none" stroke="black" stroke-width="0.180" points="24.500,8.000 24.500,289.000"/>
  <polyline fill="none" stroke="black" stroke-width="0.180" points="25.000,8.000 25.000,289.000"/>
  <polyline fill="none" stroke="black" stroke-width="0.180" points="25.500,8.000 25.500,289.000"/>
  <polyline fill="none" stroke="black" stroke-width="0.180" points="26.000,8.000 26.000,289.000"/>
  <polyline fill="none" stroke="black" stroke-width="0.180" points="26.500,8.000 26.500,289.000"/>
  <polyline fill="none" stroke="black" stroke-width="0.180" points="27.000,8.000 27.000,289.000"/>
  <polyline fill="none" stroke="black" stroke-width="0.180" points="27.500,8.000 27.500,289.000"/>
  <polyline fill="none" stroke="black" stroke-width="0.180" points="28.000,8.000 28.000,289.000"/>
  <polyline fill="none" stroke="black" stroke-width="0.180" points="28.500,8.000 28.500,289.000"/>
  <polyline fill="none" stroke="black" stroke-width="0.180" points="29.000,8.000 29.000,289.000"/>
  <polyline fill="none" stroke="black" stroke-width="0.180" points="29.500,8.000 29.500,289.000"/>
  <polyline fill="none" stroke="black" stroke-width="0.180" points="30.000,8.000 30.000,289.000"/>
  <polyline fill="none" stroke="black" stroke-width="0.180" points="30.500,8.000 30.500,289.000"/>
  <polyline fill="none" stroke="black" stroke-width="0.180" points="31.000,8.000 31.000,289.000"/>
  <polyline fill="none" stroke="black" stroke-width="0.180" points="31.500,8.000 31.500,289.000"/>
  <polyline fill="none" stroke="black" stroke-width="0.180" points="32.000,8.000 32.000,289.000"/>
  <polyline fill="none" stroke="black" stroke-width="0.180" points="32.500,8.000 32.500,289.000"/>
  <polyline fill="none" stroke="black" stroke-width="0.180" points="33.000,8.000 33.000,289.000"/>
  <polyline fill="none" stroke="black" stroke-width="0.180" points="33.500,8.000 33.500,289.000"/>
  <polyline fill="none" stroke="black" stroke-width="0.180" points="34.000,8.000 34.000,289.000"/>
  <polyline fill="none" stroke="black" stroke-width="0.180" points="34.500,8.000 34.500,289.000"/>
  <polyline fill="none" stroke="black" stroke-width="0.180" points="35.000,8.000 35.000,289.000"/>
  <polyline fill="none" stroke="black" stroke-width="0.180" points="35.500,8.000 35.500,289.000"/>
  <polyline fill="none" stroke="black" stroke-width="0.180" points="36.000,8.000 36.000,289.000"/>
  <polyline fill="none" stroke="black" stroke-width="0.180" points="36.500,8.000 36.500,289.000"/>
  <polyline fill="none" stroke="black" stroke-width="0.180" points="37.000,8.000 37.000,289.000"/>
  <polyline fill="none" stroke="black" stroke-width="0.180" points="37.500,8.000 37.500,289.000"/>
  <polyline fill="none" stroke="black" stroke-width="0.180" points="38.000,8.000 38.000,289.000"/>
  <polyline fill="none" stroke="black" stroke-width="0.180" points="38.500,8.000 38.500,289.000"/>
  <polyline fill="none" stroke="black" stroke-width="0.180" points="39.000,8.000 39.000,289.000"/>
  <polyline fill="none" stroke="black" stroke-width="0.180" points="39.500,8.000 39.500,289.000"/>
  <polyline fill="none" stroke="black" stroke-width="0.180" points="40.000,8.000 40.000,289.000"/>
  <polyline fill="none" stroke="black" stroke-width="0.180" points="40.500,8.000 40.500,289.000"/>
  <polyline fill="none" stroke="black" stroke-width="0.180" points="41.000,8.000 41.000,289.000"/>
  <polyline fill="none" stroke="black" stroke-width="0.180" points="41.500,8.000 41.500,289.000"/>
  <polyline fill="none" stroke="black" stroke-width="0.180" points="42.000,8.000 42.000,289.000"/>
  <polyline fill="none" stroke="black" stroke-width="0.180" points="42.500,8.000 42.500,289.000"/>
  <polyline fill="none" stroke="black" stroke-width="0.180" points="43.000,8.000 43.000,289.000"/>
  <polyline fill="none" stroke="black" stroke-width="0.180" points="43.500,8.000 43.500,289.000"/>
  <polyline fill="none" stroke="black" stroke-width="0.180" points="44.000,8.000 44.000,289.000"/>
  <polyline fill="none" stroke="black" stroke-width="0.180" points="44.500,8.000 44.500,289.000"/>
  <polyline fill="none" stroke="black" stroke-width="0.180" points="45.000,8.000 45.000,289.000"/>
  <polyline fill="none" stroke="black" stroke-width="0.180" points="45.500,8.000 45.500,289.000"/>
  <polyline fill="none" stroke="black" stroke-width="0.180" points="46.000,8.000 46.000,289.000"/>
  <polyline fill="none" stroke="black" stroke-width="0.180" points="46.500,8.000 46.500,289.000"/>
  <polyline fill="none" stroke="black" stroke-width="0.180" points="47.000,8.000 47.000,289.000"/>
  <polyline fill="none" stroke="black" stroke-width="0.180" points="47.500,8.000 47.500,289.000"/>
  <polyline fill="none" stroke="black" stroke-width="0.180" points="48.000,8.000 48.000,289.000"/>
  <polyline fill="none" stroke="black" stroke-width="0.180" points="48.500,8.000 48.500,289.000"/>
  <polyline fill="none" stroke="black" stroke-width="0.180" points="49.000,8.000 49.000,289.000"/>
  <polyline fill="none" stroke="black" stroke-width="0.180" points="49.500,8.000 49.500,289.000"/>
  <polyline fill="none" stroke="black" stroke-width="0.180" points="50.000,8.000 50.000,289.000"/>
  <polyline fill="none" stroke="black" stroke-width="0.180" points="50.500,8.000 50.500,289.000"/>
  <polyline fill="none" stroke="black" stroke-width="0.180" points="51.000,8.000 51.000,289.000"/>
  <polyline fill="none" stroke="black" stroke-width="0.180" points="51.500,8.000 51.500,289.000"/>
  <polyline fill="none" stroke="black" stroke-width="0.180" points="52.000,8.000 52.000,289.000"/>
  <polyline fill="none" stroke="black" stroke-width="0.180" points="52.500,8.000 52.500,289.000"/>
  <polyline fill="none" stroke="black" stroke-width="0.180" points="53.000,8.000 53.000,289.000"/>
  <polyline fill="none" stroke="black" stroke-width="0.180" points="53.500,8.000 53.500,289.000"/>
  <polyline fill="none" stroke="black" stroke-width="0.180" points="54.000,8.000 54.000,289.000"/>
  <polyline fill="none" stroke="black" stroke-width="0.180" points="54.500,8.000 54.500,289.000"/>
  <polyline fill="none" stroke="black" stroke-width="0.180" points="55.000,8.000 55.000,289.000"/>
  <polyline fill="none" stroke="black" stroke-width="0.180" points="55.500,8.000 55.500,289.000"/>
  <polyline fill="none" stroke="black" stroke-width="0.180" points="56.000,8.000 56.000,289.000"/>
  <polyline fill="none" stroke="black" stroke-width="0.180" points="56.500,8.000 56.500,289.000"/>
  <polyline fill="none" stroke="black" stroke-width="0.180" points="57.000,8.000 57.000,289.000"/>
  <polyline fill="none" stroke="black" stroke-width="0.180" points="57.500,8.000 57.500,289.000"/>
  <polyline fill="none" stroke="black" stroke-width="0.180" points="58.000,8.000 58.000,289.000"/>
  <polyline fill="none" stroke="black" stroke-width="0.180" points="58.500,8.000 58.500,289.000"/>
  <polyline fill="none" stroke="black" stroke-width="0.180" points="59.000,8.000 59.000,289.000"/>
  <polyline fill="none" stroke="black" stroke-width="0.180" points="59.500,8.000 59.500,289.000"/>
  <polyline fill="none" stroke="black" stroke-width="0.180" points="60.000,8.000 60.000,289.000"/>
  <polyline fill="none" stroke="black" stroke-width="0.180" points="60.500,8.000 60.500,289.000"/>
  <polyline fill="none" stroke="black" stroke-width="0.180" points="61.000,8.000 61.000,289.000"/>
  <polyline fill="none" stroke="black" stroke-width="0.180" points="61.500,8.000 61.500,289.000"/>
  <polyline fill="none" stroke="black" stroke-width="0.180" points="62.000,8.000 62.000,289.000"/>
  <polyline fill="none" stroke="black" stroke-width="0.180" points="62.500,8.000 62.500,289.000"/>
  <polyline fill="none" stroke="black" stroke-width="0.180" points="63.000,8.000 63.000,289.000"/>
  <polyline fill="none" stroke="black" stroke-width="0.180" points="63.500,8.000 63.500,289.000"/>
  <polyline fill="none" stroke="black" stroke-width="0.180" points="64.000,8.000 64.000,289.000"/>
  <polyline fill="none" stroke="black" stroke-width="0.180" points="64.500,8.000 64.500,289.000"/>
  <polyline fill="none" stroke="black" stroke-width="0.180" points="65.000,8.000 65.000,289.000"/>
  <polyline fill="none" stroke="black" stroke-width="0.180" points="65.500,8.000 65.500,289.000"/>
  <polyline fill="none" stroke="black" stroke-width="0.180" points="66.000,8.000 66.000,289.000"/>
  <polyline fill="none" stroke="black" stroke-width="0.180" points="66.500,8.000 66.500,289.000"/>
  <polyline fill="none" stroke="black" stroke-width="0.180" points="67.000,8.000 67.000,289.000"/>
  <polyline fill="none" stroke="black" stroke-width="0.180" points="67.500,8.000 67.500,289.000"/>
  <polyline fill="none" stroke="black" stroke-width="0.180" points="68.000,8.000 68.000,289.000"/>
  <polyline fill="none" stroke="black" stroke-width="0.180" points="68.500,8.000 68.500,289.000"/>
  <polyline fill="none" stroke="black" stroke-width="0.180" points="69.000,8.000 69.000,289.000"/>
  <polyline fill="none" stroke="black" stroke-width="0.180" points="69.500,8.000 69.500,289.000"/>
  <polyline fill="none" stroke="black" stroke-width="0.180" points="70.000,8.000 70.000,289.000"/>
  <polyline fill="none" stroke="black" stroke-width="0.180" points="70.500,8.000 70.500,289.000"/>
  <polyline fill="none" stroke="black" stroke-width="0.180" points="71.000,8.000 71.000,289.000"/>
  <polyline fill="none" stroke="black" stroke-width="0.180" points="71.500,8.000 71.500,289.000"/>
  <polyline fill="none" stroke="black" stroke-width="0.180" points="72.000,8.000 72.000,289.000"/>
  <polyline fill="none" stroke="black" stroke-width="0.180" points="72.500,8.000 72.500,289.000"/>
  <polyline fill="none" stroke="black" stroke-width="0.180" points="73.000,8.000 73.000,289.000"/>
  <polyline fill="none" stroke="black" stroke-width="0.180" points="73.500,8.000 73.500,289.000"/>
  <polyline fill="none" stroke="black" stroke-width="0.180" points="74.000,8.000 74.000,289.000"/>
  <polyline fill="none" stroke="black" stroke-width="0.180" points="74.500,8.000 74.500,289.000"/>
  <polyline fill="none" stroke="black" stroke-width="0.180" points="75.000,8.000 75.000,289.000"/>
  <polyline fill="none" stroke="black" stroke-width="0.180" points="75.500,8.000 75.500,289.000"/>
  <polyline fill="none" stroke="black" stroke-width="0.180" points="76.000,8.000 76.000,289.000"/>
  <polyline fill="none" stroke="black" stroke-width="0.180" points="76.500,8.000 76.500,289.000"/>
  <polyline fill="none" stroke="black" stroke-width="0.180" points="77.000,8.000 77.000,289.000"/>
  <polyline fill="none" stroke="black" stroke-width="0.180" points="77.500,8.000 77.500,289.000"/>
  <polyline fill="none" stroke="black" stroke-width="0.180" points="78.000,8.000 78.000,289.000"/>
  <polyline fill="none" stroke="black" stroke-width="0.180" points="78.500,8.000 78.500,289.000"/>
  <polyline fill="none" stroke="black" stroke-width="0.180" points="79.000,8.000 79.000,289.000"/>
  <polyline fill="none" stroke="black" stroke-width="0.180" points="79.500,8.000 79.500,289.000"/>
  <polyline fill="none" stroke="black" stroke-width="0.180" points="80.000,8.000 80.000,289.000"/>
  <polyline fill="none" stroke="black" stroke-width="0.180" points="80.500,8.000 80.500,289.000"/>
  <polyline fill="none" stroke="black" stroke-width="0.180" points="81.000,8.000 81.000,289.000"/>
  <polyline fill="none" stroke="black" stroke-width="0.180" points="81.500,8.000 81.500,289.000"/>
  <polyline fill="none" stroke="black" stroke-width="0.180" points="82.000,8.000 82.000,289.000"/>
  <polyline fill="none" stroke="black" stroke-width="0.180" points="82.500,8.000 82.500,289.000"/>
  <polyline fill="none" stroke="black" stroke-width="0.180" points="83.000,8.000 83.000,289.000"/>
  <polyline fill="none" stroke="black" stroke-width="0.180" points="83.500,8.000 83.500,289.000"/>
  <polyline fill="none" stroke="black" stroke-width="0.180" points="84.000,8.000 84.000,289.000"/>
  <polyline fill="none" stroke="black" stroke-width="0.180" points="84.500,8.000 84.500,289.000"/>
  <polyline fill="none" stroke="black" stroke-width="0.180" points="85.000,8.000 85.000,289.000"/>
  <polyline fill="none" stroke="black" stroke-width="0.180" points="85.500,8.000 85.500,289.000"/>
  <polyline fill="none" stroke="black" stroke-width="0.180" points="86.000,8.000 86.000,289.000"/>
  <polyline fill="none" stroke="black" stroke-width="0.180" points="86.500,8.000 86.500,289.000"/>
  <polyline fill="none" stroke="black" stroke-width="0.180" points="87.000,8.000 87.000,289.000"/>
  <polyline fill="none" stroke="black" stroke-width="0.180" points="87.500,8.000 87.500,289.000"/>
  <polyline fill="none" stroke="black" stroke-width="0.180" points="88.000,8.000 88.000,289.000"/>
  <polyline fill="none" stroke="black" stroke-width="0.180" points="88.500,8.000 88.500,289.000"/>
  <polyline fill="none" stroke="black" stroke-width="0.180" points="89.000,8.000 89.000,289.000"/>
  <polyline fill="none" stroke="black" stroke-width="0.180" points="89.500,8.000 89.500,289.000"/>
  <polyline fill="none" stroke="black" stroke-width="0.180" points="90.000,8.000 90.000,289.000"/>
  <polyline fill="none" stroke="black" stroke-width="0.180" points="90.500,8.000 90.500,289.000"/>
  <polyline fill="none" stroke="black" stroke-width="0.180" points="91.000,8.000 91.000,289.000"/>
  <polyline fill="none" stroke="black" stroke-width="0.180" points="91.500,8.000 91.500,289.000"/>
  <polyline fill="none" stroke="black" stroke-width="0.180" points="92.000,8.000 92.000,289.000"/>
  <polyline fill="none" stroke="black" stroke-width="0.180" points="92.500,8.000 92.500,289.000"/>
  <polyline fill="none" stroke="black" stroke-width="0.180" points="93.000,8.000 93.000,289.000"/>
  <polyline fill="none" stroke="black" stroke-width="0.180" points="93.500,8.000 93.500,289.000"/>
  <polyline fill="none" stroke="black" stroke-width="0.180" points="94.000,8.000 94.000,289.000"/>
  <polyline fill="none" stroke="black" stroke-width="0.180" points="94.500,8.000 94.500,289.000"/>
  <polyline fill="none" stroke="black" stroke-width="0.180" points="95.000,8.000 95.000,289.000"/>
  <polyline fill="none" stroke="black" stroke-width="0.180" points="95.500,8.000 95.500,289.000"/>
  <polyline fill="none" stroke="black" stroke-width="0.180" points="96.000,8.000 96.000,289.000"/>
  <polyline fill="none" stroke="black" stroke-width="0.180" points="96.500,8.000 96.500,289.000"/>
  <polyline fill="none" stroke="black" stroke-width="0.180" points="97.000,8.000 97.000,289.000"/>
  <polyline fill="none" stroke="black" stroke-width="0.180" points="97.500,8.000 97.500,289.000"/>
  <polyline fill="none" stroke="black" stroke-width="0.180" points="98.000,8.000 98.000,289.000"/>
  <polyline fill="none" stroke="black" stroke-width="0.180" points="98.500,8.000 98.500,289.000"/>
  <polyline fill="none" stroke="black" stroke-width="0.180" points="99.000,8.000 99.000,289.000"/>
  <polyline fill="none" stroke="black" stroke-width="0.180" points="99.500,8.000 99.500,289.000"/>
  <polyline fill="none" stroke="black" stroke-width="0.180" points="100.000,8.000 100.000,289.000"/>
  <polyline fill="none" stroke="black" stroke-width="0.180" points="100.500,8.000 100.500,289.000"/>
  <polyline fill="none" stroke="black" stroke-width="0.180" points="101.000,8.000 101.000,289.000"/>
  <polyline fill="none" stroke="black" stroke-width="0.180" points="101.500,8.000 101.500,289.000"/>
  <polyline fill="none" stroke="black" stroke-width="0.180" points="102.000,8.000 102.000,289.000"/>
  <polyline fill="none" stroke="black" stroke-width="0.180" points="102.500,8.000 102.500,289.000"/>
  <polyline fill="none" stroke="black" stroke-width="0.180" points="103.000,8.000 103.000,289.000"/>
  <polyline fill="none" stroke="black" stroke-width="0.180" points="103.500,8.000 103.500,289.000"/>
  <polyline fill="none" stroke="black" stroke-width="0.180" points="104.000,8.000 104.000,289.000"/>
  <polyline fill="none" stroke="black" stroke-width="0.180" points="104.500,8.000 104.500,289.000"/>
  <polyline fill="none" stroke="black" stroke-width="0.180" points="105.000,8.000 105.000,289.000"/>
  <polyline fill="none" stroke="black" stroke-width="0.180" points="105.500,8.000 105.500,289.000"/>
  <polyline fill="none" stroke="black" stroke-width="0.180" points="106.000,8.000 106.000,289.000"/>
  <polyline fill="none" stroke="black" stroke-width="0.180" points="106.500,8.000 106.500,289.000"/>
  <polyline fill="none" stroke="black" stroke-width="0.180" points="107.000,8.000 107.000,289.000"/>
  <polyline fill="none" stroke="black" stroke-width="0.180" points="107.500,8.000 107.500,289.000"/>
  <polyline fill="none" stroke="black" stroke-width="0.180" points="108.000,8.000 108.000,289.000"/>
  <polyline fill="none" stroke="black" stroke-width="0.180" points="108.500,8.000 108.500,289.000"/>
  <polyline fill="none" stroke="black" stroke-width="0.180" points="109.000,8.000 109.000,289.000"/>
  <polyline fill="none" stroke="black" stroke-width="0.180" points="109.500,8.000 109.500,289.000"/>
  <polyline fill="none" stroke="black" stroke-width="0.180" points="110.000,8.000 110.000,289.000"/>
  <polyline fill="none" stroke="black" stroke-width="0.180" points="110.500,8.000 110.500,289.000"/>
  <polyline fill="none" stroke="black" stroke-width="0.180" points="111.000,8.000 111.000,289.000"/>
  <polyline fill="none" stroke="black" stroke-width="0.180" points="111.500,8.000 111.500,289.000"/>
  <polyline fill="none" stroke="black" stroke-width="0.180" points="112.000,8.000 112.000,289.000"/>
  <polyline fill="none" stroke="black" stroke-width="0.180" points="112.500,8.000 112.500,289.000"/>
  <polyline fill="none" stroke="black" stroke-width="0.180" points="113.000,8.000 113.000,289.000"/>
  <polyline fill="none" stroke="black" stroke-width="0.180" points="113.500,8.000 113.500,289.000"/>
  <polyline fill="none" stroke="black" stroke-width="0.180" points="114.000,8.000 114.000,289.000"/>
  <polyline fill="none" stroke="black" stroke-width="0.180" points="114.500,8.000 114.500,289.000"/>
  <polyline fill="none" stroke="black" stroke-width="0.180" points="115.000,8.000 115.000,289.000"/>
  <polyline fill="none" stroke="black" stroke-width="0.180" points="115.500,8.000 115.500,289.000"/>
  <polyline fill="none" stroke="black" stroke-width="0.180" points="116.000,8.000 116.000,289.000"/>
  <polyline fill="none" stroke="black" stroke-width="0.180" points="116.500,8.000 116.500,289.000"/>
  <polyline fill="none" stroke="black" stroke-width="0.180" points="117.000,8.000 117.000,289.000"/>
  <polyline fill="none" stroke="black" stroke-width="0.180" points="117.500,8.000 117.500,289.000"/>
  <polyline fill="none" stroke="black" stroke-width="0.180" points="118.000,8.000 118.000,289.000"/>
  <polyline fill="none" stroke="black" stroke-width="0.180" points="118.500,8.000 118.500,289.000"/>
  <polyline fill="none" stroke="black" stroke-width="0.180" points="119.000,8.000 119.000,289.000"/>
  <polyline fill="none" stroke="black" stroke-width="0.180" points="119.500,8.000 119.500,289.000"/>
  <polyline fill="none" stroke="black" stroke-width="0.180" points="120.000,8.000 120.000,289.000"/>
  <polyline fill="none" stroke="black" stroke-width="0.180" points="120.500,8.000 120.500,289.000"/>
  <polyline fill="none" stroke="black" stroke-width="0.180" points="121.000,8.000 121.000,289.000"/>
  <polyline fill="none" stroke="black" stroke-width="0.180" points="121.500,8.000 121.500,289.000"/>
  <polyline fill="none" stroke="black" stroke-width="0.180" points="122.000,8.000 122.000,289.000"/>
  <polyline fill="none" stroke="black" stroke-width="0.180" points="122.500,8.000 122.500,289.000"/>
  <polyline fill="none" stroke="black" stroke-width="0.180" points="123.000,8.000 123.000,289.000"/>
  <polyline fill="none" stroke="black" stroke-width="0.180" points="123.500,8.000 123.500,289.000"/>
  <polyline fill="none" stroke="black" stroke-width="0.180" points="124.000,8.000 124.000,289.000"/>
  <polyline fill="none" stroke="black" stroke-width="0.180" points="124.500,8.000 124.500,289.000"/>
  <polyline fill="none" stroke="black" stroke-width="0.180" points="125.000,8.000 125.000,289.000"/>
  <polyline fill="none" stroke="black" stroke-width="0.180" points="125.500,8.000 125.500,289.000"/>
  <polyline fill="none" stroke="black" stroke-width="0.180" points="126.000,8.000 126.000,289.000"/>
  <polyline fill="none" stroke="black" stroke-width="0.180" points="126.500,8.000 126.500,289.000"/>
  <polyline fill="none" stroke="black" stroke-width="0.180" points="127.000,8.000 127.000,289.000"/>
  <polyline fill="none" stroke="black" stroke-width="0.180" points="127.500,8.000 127.500,289.000"/>
  <polyline fill="none" stroke="black" stroke-width="0.180" points="128.000,8.000 128.000,289.000"/>
  <polyline fill="none" stroke="black" stroke-width="0.180" points="128.500,8.000 128.500,289.000"/>
  <polyline fill="none" stroke="black" stroke-width="0.180" points="129.000,8.000 129.000,289.000"/>
  <polyline fill="none" stroke="black" stroke-width="0.180" points="129.500,8.000 129.500,289.000"/>
  <polyline fill="none" stroke="black" stroke-width="0.180" points="130.000,8.000 130.000,289.000"/>
  <polyline fill="none" stroke="black" stroke-width="0.180" points="130.500,8.000 130.500,289.000"/>
  <polyline fill="none" stroke="black" stroke-width="0.180" points="131.000,8.000 131.000,289.000"/>
  <polyline fill="none" stroke="black" stroke-width="0.180" points="131.500,8.000 131.500,289.000"/>
  <polyline fill="none" stroke="black" stroke-width="0.180" points="132.000,8.000 132.000,289.000"/>
  <polyline fill="none" stroke="black" stroke-width="0.180" points="132.500,8.000 132.500,289.000"/>
  <polyline fill="none" stroke="black" stroke-width="0.180" points="133.000,8.000 133.000,289.000"/>
  <polyline fill="none" stroke="black" stroke-width="0.180" points="133.500,8.000 133.500,289.000"/>
  <polyline fill="none" stroke="black" stroke-width="0.180" points="134.000,8.000 134.000,289.000"/>
  <polyline fill="none" stroke="black" stroke-width="0.180" points="134.500,8.000 134.500,289.000"/>
  <polyline fill="none" stroke="black" stroke-width="0.180" points="135.000,8.000 135.000,289.000"/>
  <polyline fill="none" stroke="black" stroke-width="0.180" points="135.500,8.000 135.500,289.000"/>
  <polyline fill="none" stroke="black" stroke-width="0.180" points="136.000,8.000 136.000,289.000"/>
  <polyline fill="none" stroke="black" stroke-width="0.180" points="136.500,8.000 136.500,289.000"/>
  <polyline fill="none" stroke="black" stroke-width="0.180" points="137.000,8.000 137.000,289.000"/>
  <polyline fill="none" stroke="black" stroke-width="0.180" points="137.500,8.000 137.500,289.000"/>
  <polyline fill="none" stroke="black" stroke-width="0.180" points="138.000,8.000 138.000,289.000"/>
  <polyline fill="none" stroke="black" stroke-width="0.180" points="138.500,8.000 138.500,289.000"/>
  <polyline fill="none" stroke="black" stroke-width="0.180" points="139.000,8.000 139.000,289.000"/>
  <polyline fill="none" stroke="black" stroke-width="0.180" points="139.500,8.000 139.500,289.000"/>
  <polyline fill="none" stroke="black" stroke-width="0.180" points="140.000,8.000 140.000,289.000"/>
  <polyline fill="none" stroke="black" stroke-width="0.180" points="140.500,8.000 140.500,289.000"/>
  <polyline fill="none" stroke="black" stroke-width="0.180" points="141.000,8.000 141.000,289.000"/>
  <polyline fill="none" stroke="black" stroke-width="0.180" points="141.500,8.000 141.500,289.000"/>
  <polyline fill="none" stroke="black" stroke-width="0.180" points="142.000,8.000 142.000,289.000"/>
  <polyline fill="none" stroke="black" stroke-width="0.180" points="142.500,8.000 142.500,289.000"/>
  <polyline fill="none" stroke="black" stroke-width="0.180" points="143.000,8.000 143.000,289.000"/>
  <polyline fill="none" stroke="black" stroke-width="0.180" points="143.500,8.000 143.500,289.000"/>
  <polyline fill="none" stroke="black" stroke-width="0.180" points="144.000,8.000 144.000,289.000"/>
  <polyline fill="none" stroke="black" stroke-width="0.180" points="144.500,8.000 144.500,289.000"/>
  <polyline fill="none" stroke="black" stroke-width="0.180" points="145.000,8.000 145.000,289.000"/>
  <polyline fill="none" stroke="black" stroke-width="0.180" points="145.500,8.000 145.500,289.000"/>
  <polyline fill="none" stroke="black" stroke-width="0.180" points="146.000,8.000 146.000,289.000"/>
  <polyline fill="none" stroke="black" stroke-width="0.180" points="146.500,8.000 146.500,289.000"/>
  <polyline fill="none" stroke="black" stroke-width="0.180" points="147.000,8.000 147.000,289.000"/>
  <polyline fill="none" stroke="black" stroke-width="0.180" points="147.500,8.000 147.500,289.000"/>
  <polyline fill="none" stroke="black" stroke-width="0.180" points="148.000,8.000 148.000,289.000"/>
  <polyline fill="none" stroke="black" stroke-width="0.180" points="148.500,8.000 148.500,289.000"/>
  <polyline fill="none" stroke="black" stroke-width="0.180" points="149.000,8.000 149.000,289.000"/>
  <polyline fill="none" stroke="black" stroke-width="0.180" points="149.500,8.000 149.500,289.000"/>
  <polyline fill="none" stroke="black" stroke-width="0.180" points="150.000,8.000 150.000,289.000"/>
  <polyline fill="none" stroke="black" stroke-width="0.180" points="150.500,8.000 150.500,289.000"/>
  <polyline fill="none" stroke="black" stroke-width="0.180" points="151.000,8.000 151.000,289.000"/>
  <polyline fill="none" stroke="black" stroke-width="0.180" points="151.500,8.000 151.500,289.000"/>
  <polyline fill="none" stroke="black" stroke-width="0.180" points="152.000,8.000 152.000,289.000"/>
  <polyline fill="none" stroke="black" stroke-width="0.180" points="152.500,8.000 152.500,289.000"/>
  <polyline fill="none" stroke="black" stroke-width="0.180" points="153.000,8.000 153.000,289.000"/>
  <polyline fill="none" stroke="black" stroke-width="0.180" points="153.500,8.000 153.500,289.000"/>
  <polyline fill="none" stroke="black" stroke-width="0.180" points="154.000,8.000 154.000,289.000"/>
  <polyline fill="none" stroke="black" stroke-width="0.180" points="154.500,8.000 154.500,289.000"/>
  <polyline fill="none" stroke="black" stroke-width="0.180" points="155.000,8.000 155.000,289.000"/>
  <polyline fill="none" stroke="black" stroke-width="0.180" points="155.500,8.000 155.500,289.000"/>
  <polyline fill="none" stroke="black" stroke-width="0.180" points="156.000,8.000 156.000,289.000"/>
  <polyline fill="none" stroke="black" stroke-width="0.180" points="156.500,8.000 156.500,289.000"/>
  <polyline fill="none" stroke="black" stroke-width="0.180" points="157.000,8.000 157.000,289.000"/>
  <polyline fill="none" stroke="black" stroke-width="0.180" points="157.500,8.000 157.500,289.000"/>
  <polyline fill="none" stroke="black" stroke-width="0.180" points="158.000,8.000 158.000,289.000"/>
  <polyline fill="none" stroke="black" stroke-width="0.180" points="158.500,8.000 158.500,289.000"/>
  <polyline fill="none" stroke="black" stroke-width="0.180" points="159.000,8.000 159.000,289.000"/>
  <polyline fill="none" stroke="black" stroke-width="0.180" points="159.500,8.000 159.500,289.000"/>
  <polyline fill="none" stroke="black" stroke-width="0.180" points="160.000,8.000 160.000,289.000"/>
  <polyline fill="none" stroke="black" stroke-width="0.180" points="160.500,8.000 160.500,289.000"/>
  <polyline fill="none" stroke="black" stroke-width="0.180" points="161.000,8.000 161.000,289.000"/>
  <polyline fill="none" stroke="black" stroke-width="0.180" points="161.500,8.000 161.500,289.000"/>
  <polyline fill="none" stroke="black" stroke-width="0.180" points="162.000,8.000 162.000,289.000"/>
  <polyline fill="none" stroke="black" stroke-width="0.180" points="162.500,8.000 162.500,289.000"/>
  <polyline fill="none" stroke="black" stroke-width="0.180" points="163.000,8.000 163.000,289.000"/>
  <polyline fill="none" stroke="black" stroke-width="0.180" points="163.500,8.000 163.500,289.000"/>
  <polyline fill="none" stroke="black" stroke-width="0.180" points="164.000,8.000 164.000,289.000"/>
  <polyline fill="none" stroke="black" stroke-width="0.180" points="164.500,8.000 164.500,289.000"/>
  <polyline fill="none" stroke="black" stroke-width="0.180" points="165.000,8.000 165.000,289.000"/>
  <polyline fill="none" stroke="black" stroke-width="0.180" points="165.500,8.000 165.500,289.000"/>
  <polyline fill="none" stroke="black" stroke-width="0.180" points="166.000,8.000 166.000,289.000"/>
  <polyline fill="none" stroke="black" stroke-width="0.180" points="166.500,8.000 166.500,289.000"/>
  <polyline fill="none" stroke="black" stroke-width="0.180" points="167.000,8.000 167.000,289.000"/>
  <polyline fill="none" stroke="black" stroke-width="0.180" points="167.500,8.000 167.500,289.000"/>
  <polyline fill="none" stroke="black" stroke-width="0.180" points="168.000,8.000 168.000,289.000"/>
  <polyline fill="none" stroke="black" stroke-width="0.180" points="168.500,8.000 168.500,289.000"/>
  <polyline fill="none" stroke="black" stroke-width="0.180" points="169.000,8.000 169.000,289.000"/>
  <polyline fill="none" stroke="black" stroke-width="0.180" points="169.500,8.000 169.500,289.000"/>
  <polyline fill="none" stroke="black" stroke-width="0.180" points="170.000,8.000 170.000,289.000"/>
  <polyline fill="none" stroke="black" stroke-width="0.180" points="170.500,8.000 170.500,289.000"/>
  <polyline fill="none" stroke="black" stroke-width="0.180" points="171.000,8.000 171.000,289.000"/>
  <polyline fill="none" stroke="black" stroke-width="0.180" points="171.500,8.000 171.500,289.000"/>
  <polyline fill="none" stroke="black" stroke-width="0.180" points="172.000,8.000 172.000,289.000"/>
  <polyline fill="none" stroke="black" stroke-width="0.180" points="172.500,8.000 172.500,289.000"/>
  <polyline fill="none" stroke="black" stroke-width="0.180" points="173.000,8.000 173.000,289.000"/>
  <polyline fill="none" stroke="black" stroke-width="0.180" points="173.500,8.000 173.500,289.000"/>
  <polyline fill="none" stroke="black" stroke-width="0.180" points="174.000,8.000 174.000,289.000"/>
  <polyline fill="none" stroke="black" stroke-width="0.180" points="174.500,8.000 174.500,289.000"/>
  <polyline fill="none" stroke="black" stroke-width="0.180" points="175.000,8.000 175.000,289.000"/>
  <polyline fill="none" stroke="black" stroke-width="0.180" points="175.500,8.000 175.500,289.000"/>
  <polyline fill="none" stroke="black" stroke-width="0.180" points="176.000,8.000 176.000,289.000"/>
  <polyline fill="none" stroke="black" stroke-width="0.180" points="176.500,8.000 176.500,289.000"/>
  <polyline fill="none" stroke="black" stroke-width="0.180" points="177.000,8.000 177.000,289.000"/>
  <polyline fill="none" stroke="black" stroke-width="0.180" points="177.500,8.000 177.500,289.000"/>
  <polyline fill="none" stroke="black" stroke-width="0.180" points="178.000,8.000 178.000,289.000"/>
  <polyline fill="none" stroke="black" stroke-width="0.180" points="178.500,8.000 178.500,289.000"/>
  <polyline fill="none" stroke="black" stroke-width="0.180" points="179.000,8.000 179.000,289.000"/>
  <polyline fill="none" stroke="black" stroke-width="0.180" points="179.500,8.000 179.500,289.000"/>
  <polyline fill="none" stroke="black" stroke-width="0.180" points="180.000,8.000 180.000,289.000"/>
  <polyline fill="none" stroke="black" stroke-width="0.180" points="180.500,8.000 180.500,289.000"/>
  <polyline fill="none" stroke="black" stroke-width="0.180" points="181.000,8.000 181.000,289.000"/>
  <polyline fill="none" stroke="black" stroke-width="0.180" points="181.500,8.000 181.500,289.000"/>
  <polyline fill="none" stroke="black" stroke-width="0.180" points="182.000,8.000 182.000,289.000"/>
  <polyline fill="none" stroke="black" stroke-width="0.180" points="182.500,8.000 182.500,289.000"/>
  <polyline fill="none" stroke="black" stroke-width="0.180" points="183.000,8.000 183.000,289.000"/>
  <polyline fill="none" stroke="black" stroke-width="0.180" points="183.500,8.000 183.500,289.000"/>
  <polyline fill="none" stroke="black" stroke-width="0.180" points="184.000,8.000 184.000,289.000"/>
  <polyline fill="none" stroke="black" stroke-width="0.180" points="184.500,8.000 184.500,289.000"/>
  <polyline fill="none" stroke="black" stroke-width="0.180" points="185.000,8.000 185.000,289.000"/>
  <polyline fill="none" stroke="black" stroke-width="0.180" points="185.500,8.000 185.500,289.000"/>
  <polyline fill="none" stroke="black" stroke-width="0.180" points="186.000,8.000 186.000,289.000"/>
  <polyline fill="none" stroke="black" stroke-width="0.180" points="186.500,8.000 186.500,289.000"/>
  <polyline fill="none" stroke="black" stroke-width="0.180" points="187.000,8.000 187.000,289.000"/>
  <polyline fill="none" stroke="black" stroke-width="0.180" points="187.500,8.000 187.500,289.000"/>
  <polyline fill="none" stroke="black" stroke-width="0.180" points="188.000,8.000 188.000,289.000"/>
  <polyline fill="none" stroke="black" stroke-width="0.180" points="188.500,8.000 188.500,289.000"/>
  <polyline fill="none" stroke="black" stroke-width="0.180" points="189.000,8.000 189.000,289.000"/>
  <polyline fill="none" stroke="black" stroke-width="0.180" points="189.500,8.000 189.500,289.000"/>
  <polyline fill="none" stroke="black" stroke-width="0.180" points="190.000,8.000 190.000,289.000"/>
  <polyline fill="none" stroke="black" stroke-width="0.180" points="190.500,8.000 190.500,289.000"/>
  <polyline fill="none" stroke="black" stroke-width="0.180" points="191.000,8.000 191.000,289.000"/>
  <polyline fill="none" stroke="black" stroke-width="0.180" points="191.500,8.000 191.500,289.000"/>
  <polyline fill="none" stroke="black" stroke-width="0.180" points="192.000,8.000 192.000,289.000"/>
  <polyline fill="none" stroke="black" stroke-width="0.180" points="192.500,8.000 192.500,289.000"/>
  <polyline fill="none" stroke="black" stroke-width="0.180" points="193.000,8.000 193.000,289.000"/>
  <polyline fill="none" stroke="black" stroke-width="0.180" points="193.500,8.000 193.500,289.000"/>
  <polyline fill="none" stroke="black" stroke-width="0.180" points="194.000,8.000 194.000,289.000"/>
  <polyline fill="none" stroke="black" stroke-width="0.180" points="194.500,8.000 194.500,289.000"/>
  <polyline fill="none" stroke="black" stroke-width="0.180" points="195.000,8.000 195.000,289.000"/>
  <polyline fill="none" stroke="black" stroke-width="0.180" points="195.500,8.000 195.500,289.000"/>
  <polyline fill="none" stroke="black" stroke-width="0.180" points="196.000,8.000 196.000,289.000"/>
  <polyline fill="none" stroke="black" stroke-width="0.180" points="196.500,8.000 196.500,289.000"/>
  <polyline fill="none" stroke="black" stroke-width="0.180" points="197.000,8.000 197.000,289.000"/>
  <polyline fill="none" stroke="black" stroke-width="0.180" points="197.500,8.000 197.500,289.000"/>
  <polyline fill="none" stroke="black" stroke-width="0.180" points="198.000,8.000 198.000,289.000"/>
  <polyline fill="none" stroke="black" stroke-width="0.180" points="198.500,8.000 198.500,289.000"/>
  <polyline fill="none" stroke="black" stroke-width="0.180" points="199.000,8.000 199.000,289.000"/>
  <polyline fill="none" stroke="black" stroke-width="0.180" points="199.500,8.000 199.500,289.000"/>
  <polyline fill="none" stroke="black" stroke-width="0.180" points="200.000,8.000 200.000,289.000"/>
  <polyline fill="none" stroke="black" stroke-width="0.180" points="200.500,8.000 200.500,289.000"/>
  <polyline fill="none" stroke="black" stroke-width="0.180" points="201.000,8.000 201.000,289.000"/>
  <polyline fill="none" stroke="black" stroke-width="0.180" points="201.500,8.000 201.500,289.000"/>
  <polyline fill="none" stroke="black" stroke-width="0.180" points="202.000,8.000 202.000,289.000"/>
</svg>
