<svg xmlns="http://www.w3.org/2000/svg" width="210.0mm" height="297.0mm" viewBox="0 0 210.0 297.0" shape-rendering="crispEdges">
  <rect x="0" y="0" width="210.0" height="297.0" fill="white"/>
  <line x1="53.0000" y1="141.2716" x2="53.0000" y2="155.7284" stroke="black" stroke-width="0.2000"/>
  <line x1="53.5000" y1="138.3020" x2="53.5000" y2="158.6980" stroke="black" stroke-width="0.2000"/>
  <line x1="54.0000" y1="136.0401" x2="54.0000" y2="160.9599" stroke="black" stroke-width="0.2000"/>
  <line x1="54.5000" y1="134.1473" x2="54.5000" y2="162.8527" stroke="black" stroke-width="0.2000"/>
  <line x1="55.0000" y1="132.4922" x2="55.0000" y2="164.5078" stroke="black" stroke-width="0.2000"/>
  <line x1="55.5000" y1="131.0071" x2="55.5000" y2="165.9929" stroke="black" stroke-width="0.2000"/>
  <line x1="56.0000" y1="129.6519" x2="56.0000" y2="167.3481" stroke="black" stroke-width="0.2000"/>
  <line x1="56.5000" y1="128.4002" x2="56.5000" y2="168.5998" stroke="black" stroke-width="0.2000"/>
  <line x1="57.0000" y1="127.2338" x2="57.0000" y2="169.7662" stroke="black" stroke-width="0.2000"/>
  <line x1="57.5000" y1="126.1393" x2="57.5000" y2="170.8607" stroke="black" stroke-width="0.2000"/>
  <line x1="58.0000" y1="125.1066" x2="58.0000" y2="171.8934" stroke="black" stroke-width="0.2000"/>
  <line x1="58.5000" y1="124.1279" x2="58.5000" y2="172.8721" stroke="black" stroke-width="0.2000"/>
  <line x1="59.0000" y1="123.1968" x2="59.0000" y2="173.8032" stroke="black" stroke-width="0.2000"/>
  <line x1="59.5000" y1="122.3084" x2="59.5000" y2="174.6916" stroke="black" stroke-width="0.2000"/>
  <line x1="60.0000" y1="121.4584" x2="60.0000" y2="175.5416" stroke="black" stroke-width="0.2000"/>
  <line x1="60.5000" y1="120.6432" x2="60.5000" y2="176.3568" stroke="black" stroke-width="0.2000"/>
  <line x1="61.0000" y1="119.8600" x2="61.0000" y2="177.1400" stroke="black" stroke-width="0.2000"/>
  <line x1="61.5000" y1="119.1061" x2="61.5000" y2="177.8939" stroke="black" stroke-width="0.2000"/>
  <line x1="62.0000" y1="118.3794" x2="62.0000" y2="178.6206" stroke="black" stroke-width="0.2000"/>
  <line x1="62.5000" y1="117.6779" x2="62.5000" y2="179.3221" stroke="black" stroke-width="0.2000"/>
  <line x1="63.0000" y1="117.0000" x2="63.0000" y2="180.0000" stroke="black" stroke-width="0.2000"/>
  <line x1="63.5000" y1="116.3441" x2="63.5000" y2="180.6559" stroke="black" stroke-width="0.2000"/>
  <line x1="64.0000" y1="115.7090" x2="64.0000" y2="181.2910" stroke="black" stroke-width="0.2000"/>
  <line x1="64.5000" y1="115.0934" x2="64.5000" y2="181.9066" stroke="black" stroke-width="0.2000"/>
  <line x1="65.0000" y1="114.4963" x2="65.0000" y2="182.5037" stroke="black" stroke-width="0.2000"/>
  <line x1="65.5000" y1="113.9168" x2="65.5000" y2="183.0832" stroke="black" stroke-width="0.2000"/>
  <line x1="66.0000" y1="113.3539" x2="66.0000" y2="183.6461" stroke="black" stroke-width="0.2000"/>
  <line x1="66.5000" y1="112.8069" x2="66.5000" y2="184.1931" stroke="black" stroke-width="0.2000"/>
  <line x1="67.0000" y1="112.2750" x2="67.0000" y2="184.7250" stroke="black" stroke-width="0.2000"/>
  <line x1="67.5000" y1="111.7577" x2="67.5000" y2="185.2423" stroke="black" stroke-width="0.2000"/>
  <line x1="68.0000" y1="111.2542" x2="68.0000" y2="185.7458" stroke="black" stroke-width="0.2000"/>
  <line x1="68.5000" y1="110.7641" x2="68.5000" y2="186.2359" stroke="black" stroke-width="0.2000"/>
  <line x1="69.0000" y1="110.2868" x2="69.0000" y2="186.7132" stroke="black" stroke-width="0.2000"/>
  <line x1="69.5000" y1="109.8218" x2="69.5000" y2="187.1782" stroke="black" stroke-width="0.2000"/>
  <line x1="70.0000" y1="109.3688" x2="70.0000" y2="187.6312" stroke="black" stroke-width="0.2000"/>
  <line x1="70.5000" y1="108.9273" x2="70.5000" y2="188.0727" stroke="black" stroke-width="0.2000"/>
  <line x1="71.0000" y1="108.4969" x2="71.0000" y2="188.5031" stroke="black" stroke-width="0.2000"/>
  <line x1="71.5000" y1="108.0772" x2="71.5000" y2="188.9228" stroke="black" stroke-width="0.2000"/>
  <line x1="72.0000" y1="107.6680" x2="72.0000" y2="189.3320" stroke="black" stroke-width="0.2000"/>
  <line x1="72.5000" y1="107.2689" x2="72.5000" y2="189.7311" stroke="black" stroke-width="0.2000"/>
  <line x1="73.0000" y1="106.8797" x2="73.0000" y2="190.1203" stroke="black" stroke-width="0.2000"/>
  <line x1="73.5000" y1="106.5000" x2="73.5000" y2="190.5000" stroke="black" stroke-width="0.2000"/>
  <line x1="74.0000" y1="106.1296" x2="74.0000" y2="190.8704" stroke="black" stroke-width="0.2000"/>
  <line x1="74.5000" y1="105.7683" x2="74.5000" y2="191.2317" stroke="black" stroke-width="0.2000"/>
  <line x1="75.0000" y1="105.4158" x2="75.0000" y2="191.5842" stroke="black" stroke-width="0.2000"/>
  <line x1="75.5000" y1="105.0719" x2="75.5000" y2="191.9281" stroke="black" stroke-width="0.2000"/>
  <line x1="76.0000" y1="104.7364" x2="76.0000" y2="192.2636" stroke="black" stroke-width="0.2000"/>
  <line x1="76.5000" y1="104.4092" x2="76.5000" y2="192.5908" stroke="black" stroke-width="0.2000"/>
  <line x1="77.0000" y1="104.0900" x2="77.0000" y2="192.9100" stroke="black" stroke-width="0.2000"/>
  <line x1="77.5000" y1="103.7786" x2="77.5000" y2="193.2214" stroke="black" stroke-width="0.2000"/>
  <line x1="78.0000" y1="103.4750" x2="78.0000" y2="193.5250" stroke="black" stroke-width="0.2000"/>
  <line x1="78.5000" y1="103.1789" x2="78.5000" y2="193.8211" stroke="black" stroke-width="0.2000"/>
  <line x1="79.0000" y1="102.8902" x2="79.0000" y2="194.1098" stroke="black" stroke-width="0.2000"/>
  <line x1="79.5000" y1="102.6088" x2="79.5000" y2="194.3912" stroke="black" stroke-width="0.2000"/>
  <line x1="80.0000" y1="102.3345" x2="80.0000" y2="194.6655" stroke="black" stroke-width="0.2000"/>
  <line x1="80.5000" y1="102.0673" x2="80.5000" y2="194.9327" stroke="black" stroke-width="0.2000"/>
  <line x1="81.0000" y1="101.8069" x2="81.0000" y2="195.1931" stroke="black" stroke-width="0.2000"/>
  <line x1="81.5000" y1="101.5532" x2="81.5000" y2="195.4468" stroke="black" stroke-width="0.2000"/>
  <line x1="82.0000" y1="101.3063" x2="82.0000" y2="195.6937" stroke="black" stroke-width="0.2000"/>
  <line x1="82.5000" y1="101.0658" x2="82.5000" y2="195.9342" stroke="black" stroke-width="0.2000"/>
  <line x1="83.0000" y1="100.8319" x2="83.0000" y2="196.1681" stroke="black" stroke-width="0.2000"/>
  <line x1="83.5000" y1="100.6043" x2="83.5000" y2="196.3957" stroke="black" stroke-width="0.2000"/>
  <line x1="84.0000" y1="100.3830" x2="84.0000" y2="196.6170" stroke="black" stroke-width="0.2000"/>
  <line x1="84.5000" y1="100.1678" x2="84.5000" y2="196.8322" stroke="black" stroke-width="0.2000"/>
  <line x1="85.0000" y1="99.9588" x2="85.0000" y2="197.0412" stroke="black" stroke-width="0.2000"/>
  <line x1="85.5000" y1="99.7558" x2="85.5000" y2="197.2442" stroke="black" stroke-width="0.2000"/>
  <line x1="86.0000" y1="99.5587" x2="86.0000" y2="197.4413" stroke="black" stroke-width="0.2000"/>
  <line x1="86.5000" y1="99.3675" x2="86.5000" y2="197.6325" stroke="black" stroke-width="0.2000"/>
  <line x1="87.0000" y1="99.1822" x2="87.0000" y2="197.8178" stroke="black" stroke-width="0.2000"/>
  <line x1="87.5000" y1="99.0025" x2="87.5000" y2="197.9975" stroke="black" stroke-width="0.2000"/>
  <line x1="88.0000" y1="98.8286" x2="88.0000" y2="198.1714" stroke="black" stroke-width="0.2000"/>
  <line x1="88.5000" y1="98.6603" x2="88.5000" y2="198.3397" stroke="black" stroke-width="0.2000"/>
  <line x1="89.0000" y1="98.4975" x2="89.0000" y2="198.5025" stroke="black" stroke-width="0.2000"/>
  <line x1="89.5000" y1="98.3403" x2="89.5000" y2="198.6597" stroke="black" stroke-width="0.2000"/>
  <line x1="90.0000" y1="98.1885" x2="90.0000" y2="198.8115" stroke="black" stroke-width="0.2000"/>
  <line x1="90.5000" y1="98.0421" x2="90.5000" y2="198.9579" stroke="black" stroke-width="0.2000"/>
  <line x1="91.0000" y1="97.9011" x2="91.0000" y2="199.0989" stroke="black" stroke-width="0.2000"/>
  <line x1="91.5000" y1="97.7654" x2="91.5000" y2="199.2346" stroke="black" stroke-width="0.2000"/>
  <line x1="92.0000" y1="97.6350" x2="92.0000" y2="199.3650" stroke="black" stroke-width="0.2000"/>
  <line x1="92.5000" y1="97.5098" x2="92.5000" y2="199.4902" stroke="black" stroke-width="0.2000"/>
  <line x1="93.0000" y1="97.3898" x2="93.0000" y2="199.6102" stroke="black" stroke-width="0.2000"/>
  <line x1="93.5000" y1="97.2750" x2="93.5000" y2="199.7250" stroke="black" stroke-width="0.2000"/>
  <line x1="94.0000" y1="97.1653" x2="94.0000" y2="199.8347" stroke="black" stroke-width="0.2000"/>
  <line x1="94.5000" y1="97.0607" x2="94.5000" y2="199.9393" stroke="black" stroke-width="0.2000"/>
  <line x1="95.0000" y1="96.9612" x2="95.0000" y2="200.0388" stroke="black" stroke-width="0.2000"/>
  <line x1="95.5000" y1="96.8667" x2="95.5000" y2="200.1333" stroke="black" stroke-width="0.2000"/>
  <line x1="96.0000" y1="96.7772" x2="96.0000" y2="200.2228" stroke="black" stroke-width="0.2000"/>
  <line x1="96.5000" y1="96.6927" x2="96.5000" y2="200.3073" stroke="black" stroke-width="0.2000"/>
  <line x1="97.0000" y1="96.6131" x2="97.0000" y2="200.3869" stroke="black" stroke-width="0.2000"/>
  <line x1="97.5000" y1="96.5385" x2="97.5000" y2="200.4615" stroke="black" stroke-width="0.2000"/>
  <line x1="98.0000" y1="96.4688" x2="98.0000" y2="200.5312" stroke="black" stroke-width="0.2000"/>
  <line x1="98.5000" y1="96.4039" x2="98.5000" y2="200.5961" stroke="black" stroke-width="0.2000"/>
  <line x1="99.0000" y1="96.3440" x2="99.0000" y2="200.6560" stroke="black" stroke-width="0.2000"/>
  <line x1="99.5000" y1="96.2889" x2="99.5000" y2="200.7111" stroke="black" stroke-width="0.2000"/>
  <line x1="100.0000" y1="96.2386" x2="100.0000" y2="200.7614" stroke="black" stroke-width="0.2000"/>
  <line x1="100.5000" y1="96.1932" x2="100.5000" y2="200.8068" stroke="black" stroke-width="0.2000"/>
  <line x1="101.0000" y1="96.1526" x2="101.0000" y2="200.8474" stroke="black" stroke-width="0.2000"/>
  <line x1="101.5000" y1="96.1168" x2="101.5000" y2="200.8832" stroke="black" stroke-width="0.2000"/>
  <line x1="102.0000" y1="96.0858" x2="102.0000" y2="200.9142" stroke="black" stroke-width="0.2000"/>
  <line x1="102.5000" y1="96.0596" x2="102.5000" y2="200.9404" stroke="black" stroke-width="0.2000"/>
  <line x1="103.0000" y1="96.0381" x2="103.0000" y2="200.9619" stroke="black" stroke-width="0.2000"/>
  <line x1="103.5000" y1="96.0214" x2="103.5000" y2="200.9786" stroke="black" stroke-width="0.2000"/>
  <line x1="104.0000" y1="96.0095" x2="104.0000" y2="200.9905" stroke="black" stroke-width="0.2000"/>
  <line x1="104.5000" y1="96.0024" x2="104.5000" y2="200.9976" stroke="black" stroke-width="0.2000"/>
  <line x1="105.0000" y1="96.0000" x2="105.0000" y2="201.0000" stroke="black" stroke-width="0.2000"/>
  <line x1="105.5000" y1="96.0024" x2="105.5000" y2="200.9976" stroke="black" stroke-width="0.2000"/>
  <line x1="106.0000" y1="96.0095" x2="106.0000" y2="200.9905" stroke="black" stroke-width="0.2000"/>
  <line x1="106.5000" y1="96.0214" x2="106.5000" y2="200.9786" stroke="black" stroke-width="0.2000"/>
  <line x1="107.0000" y1="96.0381" x2="107.0000" y2="200.9619" stroke="black" stroke-width="0.2000"/>
  <line x1="107.5000" y1="96.0596" x2="107.5000" y2="200.9404" stroke="black" stroke-width="0.2000"/>
  <line x1="108.0000" y1="96.0858" x2="108.0000" y2="200.9142" stroke="black" stroke-width="0.2000"/>
  <line x1="108.5000" y1="96.1168" x2="108.5000" y2="200.8832" stroke="black" stroke-width="0.2000"/>
  <line x1="109.0000" y1="96.1526" x2="109.0000" y2="200.8474" stroke="black" stroke-width="0.2000"/>
  <line x1="109.5000" y1="96.1932" x2="109.5000" y2="200.8068" stroke="black" stroke-width="0.2000"/>
  <line x1="110.0000" y1="96.2386" x2="110.0000" y2="200.7614" stroke="black" stroke-width="0.2000"/>
  <line x1="110.5000" y1="96.2889" x2="110.5000" y2="200.7111" stroke="black" stroke-width="0.2000"/>
  <line x1="111.0000" y1="96.3440" x2="111.0000" y2="200.6560" stroke="black" stroke-width="0.2000"/>
  <line x1="111.5000" y1="96.4039" x2="111.5000" y2="200.5961" stroke="black" stroke-width="0.2000"/>
  <line x1="112.0000" y1="96.4688" x2="112.0000" y2="200.5312" stroke="black" stroke-width="0.2000"/>
  <line x1="112.5000" y1="96.5385" x2="112.5000" y2="200.4615" stroke="black" stroke-width="0.2000"/>
  <line x1="113.0000" y1="96.6131" x2="113.0000" y2="200.3869" stroke="black" stroke-width="0.2000"/>
  <line x1="113.5000" y1="96.6927" x2="113.5000" y2="200.3073" stroke="black" stroke-width="0.2000"/>
  <line x1="114.0000" y1="96.7772" x2="114.0000" y2="200.2228" stroke="black" stroke-width="0.2000"/>
  <line x1="114.5000" y1="96.8667" x2="114.5000" y2="200.1333" stroke="black" stroke-width="0.2000"/>
  <line x1="115.0000" y1="96.9612" x2="115.0000" y2="200.0388" stroke="black" stroke-width="0.2000"/>
  <line x1="115.5000" y1="97.0607" x2="115.5000" y2="199.9393" stroke="black" stroke-width="0.2000"/>
  <line x1="116.0000" y1="97.1653" x2="116.0000" y2="199.8347" stroke="black" stroke-width="0.2000"/>
  <line x1="116.5000" y1="97.2750" x2="116.5000" y2="199.7250" stroke="black" stroke-width="0.2000"/>
  <line x1="117.0000" y1="97.3898" x2="117.0000" y2="199.6102" stroke="black" stroke-width="0.2000"/>
  <line x1="117.5000" y1="97.5098" x2="117.5000" y2="199.4902" stroke="black" stroke-width="0.2000"/>
  <line x1="118.0000" y1="97.6350" x2="118.0000" y2="199.3650" stroke="black" stroke-width="0.2000"/>
  <line x1="118.5000" y1="97.7654" x2="118.5000" y2="199.2346" stroke="black" stroke-width="0.2000"/>
  <line x1="119.0000" y1="97.9011" x2="119.0000" y2="199.0989" stroke="black" stroke-width="0.2000"/>
  <line x1="119.5000" y1="98.0421" x2="119.5000" y2="198.9579" stroke="black" stroke-width="0.2000"/>
  <line x1="120.0000" y1="98.1885" x2="120.0000" y2="198.8115" stroke="black" stroke-width="0.2000"/>
  <line x1="120.5000" y1="98.3403" x2="120.5000" y2="198.6597" stroke="black" stroke-width="0.2000"/>
  <line x1="121.0000" y1="98.4975" x2="121.0000" y2="198.5025" stroke="black" stroke-width="0.2000"/>
  <line x1="121.5000" y1="98.6603" x2="121.5000" y2="198.3397" stroke="black" stroke-width="0.2000"/>
  <line x1="122.0000" y1="98.8286" x2="122.0000" y2="198.1714" stroke="black" stroke-width="0.2000"/>
  <line x1="122.5000" y1="99.0025" x2="122.5000" y2="197.9975" stroke="black" stroke-width="0.2000"/>
  <line x1="123.0000" y1="99.1822" x2="123.0000" y2="197.8178" stroke="black" stroke-width="0.2000"/>
  <line x1="123.5000" y1="99.3675" x2="123.5000" y2="197.6325" stroke="black" stroke-width="0.2000"/>
  <line x1="124.0000" y1="99.5587" x2="124.0000" y2="197.4413" stroke="black" stroke-width="0.2000"/>
  <line x1="124.5000" y1="99.7558" x2="124.5000" y2="197.2442" stroke="black" stroke-width="0.2000"/>
  <line x1="125.0000" y1="99.9588" x2="125.0000" y2="197.0412" stroke="black" stroke-width="0.2000"/>
  <line x1="125.5000" y1="100.1678" x2="125.5000" y2="196.8322" stroke="black" stroke-width="0.2000"/>
  <line x1="126.0000" y1="100.3830" x2="126.0000" y2="196.6170" stroke="black" stroke-width="0.2000"/>
  <line x1="126.5000" y1="100.6043" x2="126.5000" y2="196.3957" stroke="black" stroke-width="0.2000"/>
  <line x1="127.0000" y1="100.8319" x2="127.0000" y2="196.1681" stroke="black" stroke-width="0.2000"/>
  <line x1="127.5000" y1="101.0658" x2="127.5000" y2="195.9342" stroke="black" stroke-width="0.2000"/>
  <line x1="128.0000" y1="101.3063" x2="128.0000" y2="195.6937" stroke="black" stroke-width="0.2000"/>
  <line x1="128.5000" y1="101.5532" x2="128.5000" y2="195.4468" stroke="black" stroke-width="0.2000"/>
  <line x1="129.0000" y1="101.8069" x2="129.0000" y2="195.1931" stroke="black" stroke-width="0.2000"/>
  <line x1="129.5000" y1="102.0673" x2="129.5000" y2="194.9327" stroke="black" stroke-width="0.2000"/>
  <line x1="130.0000" y1="102.3345" x2="130.0000" y2="194.6655" stroke="black" stroke-width="0.2000"/>
  <line x1="130.5000" y1="102.6088" x2="130.5000" y2="194.3912" stroke="black" stroke-width="0.2000"/>
  <line x1="131.0000" y1="102.8902" x2="131.0000" y2="194.1098" stroke="black" stroke-width="0.2000"/>
  <line x1="131.5000" y1="103.1789" x2="131.5000" y2="193.8211" stroke="black" stroke-width="0.2000"/>
  <line x1="132.0000" y1="103.4750" x2="132.0000" y2="193.5250" stroke="black" stroke-width="0.2000"/>
  <line x1="132.5000" y1="103.7786" x2="132.5000" y2="193.2214" stroke="black" stroke-width="0.2000"/>
  <line x1="133.0000" y1="104.0900" x2="133.0000" y2="192.9100" stroke="black" stroke-width="0.2000"/>
  <line x1="133.5000" y1="104.4092" x2="133.5000" y2="192.5908" stroke="black" stroke-width="0.2000"/>
  <line x1="134.0000" y1="104.7364" x2="134.0000" y2="192.2636" stroke="black" stroke-width="0.2000"/>
  <line x1="134.5000" y1="105.0719" x2="134.5000" y2="191.9281" stroke="black" stroke-width="0.2000"/>
  <line x1="135.0000" y1="105.4158" x2="135.0000" y2="191.5842" stroke="black" stroke-width="0.2000"/>
  <line x1="135.5000" y1="105.7683" x2="135.5000" y2="191.2317" stroke="black" stroke-width="0.2000"/>
  <line x1="136.0000" y1="106.1296" x2="136.0000" y2="190.8704" stroke="black" stroke-width="0.2000"/>
  <line x1="136.5000" y1="106.5000" x2="136.5000" y2="190.5000" stroke="black" stroke-width="0.2000"/>
  <line x1="137.0000" y1="106.8797" x2="137.0000" y2="190.1203" stroke="black" stroke-width="0.2000"/>
  <line x1="137.5000" y1="107.2689" x2="137.5000" y2="189.7311" stroke="black" stroke-width="0.2000"/>
  <line x1="138.0000" y1="107.6680" x2="138.0000" y2="189.3320" stroke="black" stroke-width="0.2000"/>
  <line x1="138.5000" y1="108.0772" x2="138.5000" y2="188.9228" stroke="black" stroke-width="0.2000"/>
  <line x1="139.0000" y1="108.4969" x2="139.0000" y2="188.5031" stroke="black" stroke-width="0.2000"/>
  <line x1="139.5000" y1="108.9273" x2="139.5000" y2="188.0727" stroke="black" stroke-width="0.2000"/>
  <line x1="140.0000" y1="109.3688" x2="140.0000" y2="187.6312" stroke="black" stroke-width="0.2000"/>
  <line x1="140.5000" y1="109.8218" x2="140.5000" y2="187.1782" stroke="black" stroke-width="0.2000"/>
  <line x1="141.0000" y1="110.2868" x2="141.0000" y2="186.7132" stroke="black" stroke-width="0.2000"/>
  <line x1="141.5000" y1="110.7641" x2="141.5000" y2="186.2359" stroke="black" stroke-width="0.2000"/>
  <line x1="142.0000" y1="111.2542" x2="142.0000" y2="185.7458" stroke="black" stroke-width="0.2000"/>
  <line x1="142.5000" y1="111.7577" x2="142.5000" y2="185.2423" stroke="black" stroke-width="0.2000"/>
  <line x1="143.0000" y1="112.2750" x2="143.0000" y2="184.7250" stroke="black" stroke-width="0.2000"/>
  <line x1="143.5000" y1="112.8069" x2="143.5000" y2="184.1931" stroke="black" stroke-width="0.2000"/>
  <line x1="144.0000" y1="113.3539" x2="144.0000" y2="183.6461" stroke="black" stroke-width="0.2000"/>
  <line x1="144.5000" y1="113.9168" x2="144.5000" y2="183.0832" stroke="black" stroke-width="0.2000"/>
  <line x1="145.0000" y1="114.4963" x2="145.0000" y2="182.5037" stroke="black" stroke-width="0.2000"/>
  <line x1="145.5000" y1="115.0934" x2="145.5000" y2="181.9066" stroke="black" stroke-width="0.2000"/>
  <line x1="146.0000" y1="115.7090" x2="146.0000" y2="181.2910" stroke="black" stroke-width="0.2000"/>
  <line x1="146.5000" y1="116.3441" x2="146.5000" y2="180.6559" stroke="black" stroke-width="0.2000"/>
  <line x1="147.0000" y1="117.0000" x2="147.0000" y2="180.0000" stroke="black" stroke-width="0.2000"/>
  <line x1="147.5000" y1="117.6779" x2="147.5000" y2="179.3221" stroke="black" stroke-width="0.2000"/>
  <line x1="148.0000" y1="118.3794" x2="148.0000" y2="178.6206" stroke="black" stroke-width="0.2000"/>
  <line x1="148.5000" y1="119.1061" x2="148.5000" y2="177.8939" stroke="black" stroke-width="0.2000"/>
  <line x1="149.0000" y1="119.8600" x2="149.0000" y2="177.1400" stroke="black" stroke-width="0.2000"/>
  <line x1="149.5000" y1="120.6432" x2="149.5000" y2="176.3568" stroke="black" stroke-width="0.2000"/>
  <line x1="150.0000" y1="121.4584" x2="150.0000" y2="175.5416" stroke="black" stroke-width="0.2000"/>
  <line x1="150.5000" y1="122.3084" x2="150.5000" y2="174.6916" stroke="black" stroke-width="0.2000"/>
  <line x1="151.0000" y1="123.1968" x2="151.0000" y2="173.8032" stroke="black" stroke-width="0.2000"/>
  <line x1="151.5000" y1="124.1279" x2="151.5000" y2="172.8721" stroke="black" stroke-width="0.2000"/>
  <line x1="152.0000" y1="125.1066" x2="152.0000" y2="171.8934" stroke="black" stroke-width="0.2000"/>
  <line x1="152.5000" y1="126.1393" x2="152.5000" y2="170.8607" stroke="black" stroke-width="0.2000"/>
  <line x1="153.0000" y1="127.2338" x2="153.0000" y2="169.7662" stroke="black" stroke-width="0.2000"/>
  <line x1="153.5000" y1="128.4002" x2="153.5000" y2="168.5998" stroke="black" stroke-width="0.2000"/>
  <line x1="154.0000" y1="129.6519" x2="154.0000" y2="167.3481" stroke="black" stroke-width="0.2000"/>
  <line x1="154.5000" y1="131.0071" x2="154.5000" y2="165.9929" stroke="black" stroke-width="0.2000"/>
  <line x1="155.0000" y1="132.4922" x2="155.0000" y2="164.5078" stroke="black" stroke-width="0.2000"/>
  <line x1="155.5000" y1="134.1473" x2="155.5000" y2="162.8527" stroke="black" stroke-width="0.2000"/>
  <line x1="156.0000" y1="136.0401" x2="156.0000" y2="160.9599" stroke="black" stroke-width="0.2000"/>
  <line x1="156.5000" y1="138.3020" x2="156.5000" y2="158.6980" stroke="black" stroke-width="0.2000"/>
  <line x1="157.0000" y1="141.2716" x2="157.0000" y2="155.7284" stroke="black" stroke-width="0.2000"/>
</svg>
