<svg xmlns="http://www.w3.org/2000/svg" width="210.0mm" height="297.0mm" viewBox="0 0 210.0 297.0" shape-rendering="crispEdges">
  <rect x="0" y="0" width="210.0" height="297.0" fill="white"/>
  <line x1="8.0000" y1="8.0000" x2="8.0000" y2="289.0000" stroke="black" stroke-width="0.2000"/>
  <line x1="8.5100" y1="8.0000" x2="8.5100" y2="289.0000" stroke="black" stroke-width="0.2000"/>
  <line x1="9.0200" y1="8.0000" x2="9.0200" y2="289.0000" stroke="black" stroke-width="0.2000"/>
  <line x1="9.5300" y1="8.0000" x2="9.5300" y2="289.0000" stroke="black" stroke-width="0.2000"/>
  <line x1="10.0400" y1="8.0000" x2="10.0400" y2="289.0000" stroke="black" stroke-width="0.2000"/>
  <line x1="10.5500" y1="8.0000" x2="10.5500" y2="289.0000" stroke="black" stroke-width="0.2000"/>
  <line x1="11.0600" y1="8.0000" x2="11.0600" y2="289.0000" stroke="black" stroke-width="0.2000"/>
  <line x1="11.5700" y1="8.0000" x2="11.5700" y2="289.0000" stroke="black" stroke-width="0.2000"/>
  <line x1="12.0800" y1="8.0000" x2="12.0800" y2="289.0000" stroke="black" stroke-width="0.2000"/>
  <line x1="12.5900" y1="8.0000" x2="12.5900" y2="289.0000" stroke="black" stroke-width="0.2000"/>
  <line x1="13.1000" y1="8.0000" x2="13.1000" y2="289.0000" stroke="black" stroke-width="0.2000"/>
  <line x1="13.6100" y1="8.0000" x2="13.6100" y2="289.0000" stroke="black" stroke-width="0.2000"/>
  <line x1="14.1200" y1="8.0000" x2="14.1200" y2="289.0000" stroke="black" stroke-width="0.2000"/>
  <line x1="14.6300" y1="8.0000" x2="14.6300" y2="289.0000" stroke="black" stroke-width="0.2000"/>
  <line x1="15.1400" y1="8.0000" x2="15.1400" y2="289.0000" stroke="black" stroke-width="0.2000"/>
  <line x1="15.6500" y1="8.0000" x2="15.6500" y2="289.0000" stroke="black" stroke-width="0.2000"/>
  <line x1="16.1600" y1="8.0000" x2="16.1600" y2="289.0000" stroke="black" stroke-width="0.2000"/>
  <line x1="16.6700" y1="8.0000" x2="16.6700" y2="289.0000" stroke="black" stroke-width="0.2000"/>
  <line x1="17.1800" y1="8.0000" x2="17.1800" y2="289.0000" stroke="black" stroke-width="0.2000"/>
  <line x1="17.6900" y1="8.0000" x2="17.6900" y2="289.0000" stroke="black" stroke-width="0.2000"/>
  <line x1="18.2000" y1="8.0000" x2="18.2000" y2="289.0000" stroke="black" stroke-width="0.2000"/>
  <line x1="18.7100" y1="8.0000" x2="18.7100" y2="289.0000" stroke="black" stroke-width="0.2000"/>
  <line x1="19.2200" y1="8.0000" x2="19.2200" y2="289.0000" stroke="black" stroke-width="0.2000"/>
  <line x1="19.7300" y1="8.0000" x2="19.7300" y2="289.0000" stroke="black" stroke-width="0.2000"/>
  <line x1="20.2400" y1="8.0000" x2="20.2400" y2="289.0000" stroke="black" stroke-width="0.2000"/>
  <line x1="20.7500" y1="8.0000" x2="20.7500" y2="289.0000" stroke="black" stroke-width="0.2000"/>
  <line x1="21.2600" y1="8.0000" x2="21.2600" y2="289.0000" stroke="black" stroke-width="0.2000"/>
  <line x1="21.7700" y1="8.0000" x2="21.7700" y2="289.0000" stroke="black" stroke-width="0.2000"/>
  <line x1="22.2800" y1="8.0000" x2="22.2800" y2="289.0000" stroke="black" stroke-width="0.2000"/>
  <line x1="22.7900" y1="8.0000" x2="22.7900" y2="289.0000" stroke="black" stroke-width="0.2000"/>
  <line x1="23.3000" y1="8.0000" x2="23.3000" y2="289.0000" stroke="black" stroke-width="0.2000"/>
  <line x1="23.8100" y1="8.0000" x2="23.8100" y2="289.0000" stroke="black" stroke-width="0.2000"/>
  <line x1="24.3200" y1="8.0000" x2="24.3200" y2="289.0000" stroke="black" stroke-width="0.2000"/>
  <line x1="24.8300" y1="8.0000" x2="24.8300" y2="289.0000" stroke="black" stroke-width="0.2000"/>
  <line x1="25.3400" y1="8.0000" x2="25.3400" y2="289.0000" stroke="black" stroke-width="0.2000"/>
  <line x1="25.8500" y1="8.0000" x2="25.8500" y2="289.0000" stroke="black" stroke-width="0.2000"/>
  <line x1="26.3600" y1="8.0000" x2="26.3600" y2="289.0000" stroke="black" stroke-width="0.2000"/>
  <line x1="26.8700" y1="8.0000" x2="26.8700" y2="289.0000" stroke="black" stroke-width="0.2000"/>
  <line x1="27.3800" y1="8.0000" x2="27.3800" y2="289.0000" stroke="black" stroke-width="0.2000"/>
  <line x1="27.8900" y1="8.0000" x2="27.8900" y2="289.0000" stroke="black" stroke-width="0.2000"/>
  <line x1="28.4000" y1="8.0000" x2="28.4000" y2="289.0000" stroke="black" stroke-width="0.2000"/>
  <line x1="28.9100" y1="8.0000" x2="28.9100" y2="289.0000" stroke="black" stroke-width="0.2000"/>
  <line x1="29.4200" y1="8.0000" x2="29.4200" y2="289.0000" stroke="black" stroke-width="0.2000"/>
  <line x1="29.9300" y1="8.0000" x2="29.9300" y2="289.0000" stroke="black" stroke-width="0.2000"/>
  <line x1="30.4400" y1="8.0000" x2="30.4400" y2="289.0000" stroke="black" stroke-width="0.2000"/>
  <line x1="30.9500" y1="8.0000" x2="30.9500" y2="289.0000" stroke="black" stroke-width="0.2000"/>
  <line x1="31.4600" y1="8.0000" x2="31.4600" y2="289.0000" stroke="black" stroke-width="0.2000"/>
  <line x1="31.9700" y1="8.0000" x2="31.9700" y2="289.0000" stroke="black" stroke-width="0.2000"/>
  <line x1="32.4800" y1="8.0000" x2="32.4800" y2="289.0000" stroke="black" stroke-width="0.2000"/>
  <line x1="32.9900" y1="8.0000" x2="32.9900" y2="289.0000" stroke="black" stroke-width="0.2000"/>
  <line x1="33.5000" y1="8.0000" x2="33.5000" y2="289.0000" stroke="black" stroke-width="0.2000"/>
  <line x1="34.0100" y1="8.0000" x2="34.0100" y2="289.0000" stroke="black" stroke-width="0.2000"/>
  <line x1="34.5200" y1="8.0000" x2="34.5200" y2="289.0000" stroke="black" stroke-width="0.2000"/>
  <line x1="35.0300" y1="8.0000" x2="35.0300" y2="289.0000" stroke="black" stroke-width="0.2000"/>
  <line x1="35.5400" y1="8.0000" x2="35.5400" y2="289.0000" stroke="black" stroke-width="0.2000"/>
  <line x1="36.0500" y1="8.0000" x2="36.0500" y2="289.0000" stroke="black" stroke-width="0.2000"/>
  <line x1="36.5600" y1="8.0000" x2="36.5600" y2="289.0000" stroke="black" stroke-width="0.2000"/>
  <line x1="37.0700" y1="8.0000" x2="37.0700" y2="289.0000" stroke="black" stroke-width="0.2000"/>
  <line x1="37.5800" y1="8.0000" x2="37.5800" y2="289.0000" stroke="black" stroke-width="0.2000"/>
  <line x1="38.0900" y1="8.0000" x2="38.0900" y2="289.0000" stroke="black" stroke-width="0.2000"/>
  <line x1="38.6000" y1="8.0000" x2="38.6000" y2="289.0000" stroke="black" stroke-width="0.2000"/>
  <line x1="39.1100" y1="8.0000" x2="39.1100" y2="289.0000" stroke="black" stroke-width="0.2000"/>
  <line x1="39.6200" y1="8.0000" x2="39.6200" y2="289.0000" stroke="black" stroke-width="0.2000"/>
  <line x1="40.1300" y1="8.0000" x2="40.1300" y2="289.0000" stroke="black" stroke-width="0.2000"/>
  <line x1="40.6400" y1="8.0000" x2="40.6400" y2="289.0000" stroke="black" stroke-width="0.2000"/>
  <line x1="41.1500" y1="8.0000" x2="41.1500" y2="289.0000" stroke="black" stroke-width="0.2000"/>
  <line x1="41.6600" y1="8.0000" x2="41.6600" y2="289.0000" stroke="black" stroke-width="0.2000"/>
  <line x1="42.1700" y1="8.0000" x2="42.1700" y2="289.0000" stroke="black" stroke-width="0.2000"/>
  <line x1="42.6800" y1="8.0000" x2="42.6800" y2="289.0000" stroke="black" stroke-width="0.2000"/>
  <line x1="43.1900" y1="8.0000" x2="43.1900" y2="289.0000" stroke="black" stroke-width="0.2000"/>
  <line x1="43.7000" y1="8.0000" x2="43.7000" y2="289.0000" stroke="black" stroke-width="0.2000"/>
  <line x1="44.2100" y1="8.0000" x2="44.2100" y2="289.0000" stroke="black" stroke-width="0.2000"/>
  <line x1="44.7200" y1="8.0000" x2="44.7200" y2="289.0000" stroke="black" stroke-width="0.2000"/>
  <line x1="45.2300" y1="8.0000" x2="45.2300" y2="289.0000" stroke="black" stroke-width="0.2000"/>
  <line x1="45.7400" y1="8.0000" x2="45.7400" y2="289.0000" stroke="black" stroke-width="0.2000"/>
  <line x1="46.2500" y1="8.0000" x2="46.2500" y2="289.0000" stroke="black" stroke-width="0.2000"/>
  <line x1="46.7600" y1="8.0000" x2="46.7600" y2="289.0000" stroke="black" stroke-width="0.2000"/>
  <line x1="47.2700" y1="8.0000" x2="47.2700" y2="289.0000" stroke="black" stroke-width="0.2000"/>
  <line x1="47.7800" y1="8.0000" x2="47.7800" y2="289.0000" stroke="black" stroke-width="0.2000"/>
  <line x1="48.2900" y1="8.0000" x2="48.2900" y2="289.0000" stroke="black" stroke-width="0.2000"/>
  <line x1="48.8000" y1="8.0000" x2="48.8000" y2="289.0000" stroke="black" stroke-width="0.2000"/>
  <line x1="49.3100" y1="8.0000" x2="49.3100" y2="289.0000" stroke="black" stroke-width="0.2000"/>
  <line x1="49.8200" y1="8.0000" x2="49.8200" y2="289.0000" stroke="black" stroke-width="0.2000"/>
  <line x1="50.3300" y1="8.0000" x2="50.3300" y2="289.0000" stroke="black" stroke-width="0.2000"/>
  <line x1="50.8400" y1="8.0000" x2="50.8400" y2="289.0000" stroke="black" stroke-width="0.2000"/>
  <line x1="51.3500" y1="8.0000" x2="51.3500" y2="289.0000" stroke="black" stroke-width="0.2000"/>
  <line x1="51.8600" y1="8.0000" x2="51.8600" y2="289.0000" stroke="black" stroke-width="0.2000"/>
  <line x1="52.3700" y1="8.0000" x2="52.3700" y2="289.0000" stroke="black" stroke-width="0.2000"/>
  <line x1="52.8800" y1="8.0000" x2="52.8800" y2="289.0000" stroke="black" stroke-width="0.2000"/>
  <line x1="53.3900" y1="8.0000" x2="53.3900" y2="289.0000" stroke="black" stroke-width="0.2000"/>
  <line x1="53.9000" y1="8.0000" x2="53.9000" y2="289.0000" stroke="black" stroke-width="0.2000"/>
  <line x1="54.4100" y1="8.0000" x2="54.4100" y2="289.0000" stroke="black" stroke-width="0.2000"/>
  <line x1="54.9200" y1="8.0000" x2="54.9200" y2="289.0000" stroke="black" stroke-width="0.2000"/>
  <line x1="55.4300" y1="8.0000" x2="55.4300" y2="289.0000" stroke="black" stroke-width="0.2000"/>
  <line x1="55.9400" y1="8.0000" x2="55.9400" y2="289.0000" stroke="black" stroke-width="0.2000"/>
  <line x1="56.4500" y1="8.0000" x2="56.4500" y2="289.0000" stroke="black" stroke-width="0.2000"/>
  <line x1="56.9600" y1="8.0000" x2="56.9600" y2="289.0000" stroke="black" stroke-width="0.2000"/>
  <line x1="57.4700" y1="8.0000" x2="57.4700" y2="289.0000" stroke="black" stroke-width="0.2000"/>
  <line x1="57.9800" y1="8.0000" x2="57.9800" y2="289.0000" stroke="black" stroke-width="0.2000"/>
  <line x1="58.4900" y1="8.0000" x2="58.4900" y2="289.0000" stroke="black" stroke-width="0.2000"/>
  <line x1="59.0000" y1="8.0000" x2="59.0000" y2="289.0000" stroke="black" stroke-width="0.2000"/>
  <line x1="59.5100" y1="8.0000" x2="59.5100" y2="289.0000" stroke="black" stroke-width="0.2000"/>
  <line x1="60.0200" y1="8.0000" x2="60.0200" y2="289.0000" stroke="black" stroke-width="0.2000"/>
  <line x1="60.5300" y1="8.0000" x2="60.5300" y2="289.0000" stroke="black" stroke-width="0.2000"/>
  <line x1="61.0400" y1="8.0000" x2="61.0400" y2="289.0000" stroke="black" stroke-width="0.2000"/>
  <line x1="61.5500" y1="8.0000" x2="61.5500" y2="289.0000" stroke="black" stroke-width="0.2000"/>
  <line x1="62.0600" y1="8.0000" x2="62.0600" y2="289.0000" stroke="black" stroke-width="0.2000"/>
  <line x1="62.5700" y1="8.0000" x2="62.5700" y2="289.0000" stroke="black" stroke-width="0.2000"/>
  <line x1="63.0800" y1="8.0000" x2="63.0800" y2="289.0000" stroke="black" stroke-width="0.2000"/>
  <line x1="63.5900" y1="8.0000" x2="63.5900" y2="289.0000" stroke="black" stroke-width="0.2000"/>
  <line x1="64.1000" y1="8.0000" x2="64.1000" y2="289.0000" stroke="black" stroke-width="0.2000"/>
  <line x1="64.6100" y1="8.0000" x2="64.6100" y2="289.0000" stroke="black" stroke-width="0.2000"/>
  <line x1="65.1200" y1="8.0000" x2="65.1200" y2="289.0000" stroke="black" stroke-width="0.2000"/>
  <line x1="65.6300" y1="8.0000" x2="65.6300" y2="289.0000" stroke="black" stroke-width="0.2000"/>
  <line x1="66.1400" y1="8.0000" x2="66.1400" y2="289.0000" stroke="black" stroke-width="0.2000"/>
  <line x1="66.6500" y1="8.0000" x2="66.6500" y2="289.0000" stroke="black" stroke-width="0.2000"/>
  <line x1="67.1600" y1="8.0000" x2="67.1600" y2="289.0000" stroke="black" stroke-width="0.2000"/>
  <line x1="67.6700" y1="8.0000" x2="67.6700" y2="289.0000" stroke="black" stroke-width="0.2000"/>
  <line x1="68.1800" y1="8.0000" x2="68.1800" y2="289.0000" stroke="black" stroke-width="0.2000"/>
  <line x1="68.6900" y1="8.0000" x2="68.6900" y2="289.0000" stroke="black" stroke-width="0.2000"/>
  <line x1="69.2000" y1="8.0000" x2="69.2000" y2="289.0000" stroke="black" stroke-width="0.2000"/>
  <line x1="69.7100" y1="8.0000" x2="69.7100" y2="289.0000" stroke="black" stroke-width="0.2000"/>
  <line x1="70.2200" y1="8.0000" x2="70.2200" y2="289.0000" stroke="black" stroke-width="0.2000"/>
  <line x1="70.7300" y1="8.0000" x2="70.7300" y2="289.0000" stroke="black" stroke-width="0.2000"/>
  <line x1="71.2400" y1="8.0000" x2="71.2400" y2="289.0000" stroke="black" stroke-width="0.2000"/>
  <line x1="71.7500" y1="8.0000" x2="71.7500" y2="289.0000" stroke="black" stroke-width="0.2000"/>
  <line x1="72.2600" y1="8.0000" x2="72.2600" y2="289.0000" stroke="black" stroke-width="0.2000"/>
  <line x1="72.7700" y1="8.0000" x2="72.7700" y2="289.0000" stroke="black" stroke-width="0.2000"/>
  <line x1="73.2800" y1="8.0000" x2="73.2800" y2="289.0000" stroke="black" stroke-width="0.2000"/>
  <line x1="73.7900" y1="8.0000" x2="73.7900" y2="289.0000" stroke="black" stroke-width="0.2000"/>
  <line x1="74.3000" y1="8.0000" x2="74.3000" y2="289.0000" stroke="black" stroke-width="0.2000"/>
  <line x1="74.8100" y1="8.0000" x2="74.8100" y2="289.0000" stroke="black" stroke-width="0.2000"/>
  <line x1="75.3200" y1="8.0000" x2="75.3200" y2="289.0000" stroke="black" stroke-width="0.2000"/>
  <line x1="75.8300" y1="8.0000" x2="75.8300" y2="289.0000" stroke="black" stroke-width="0.2000"/>
  <line x1="76.3400" y1="8.0000" x2="76.3400" y2="289.0000" stroke="black" stroke-width="0.2000"/>
  <line x1="76.8500" y1="8.0000" x2="76.8500" y2="289.0000" stroke="black" stroke-width="0.2000"/>
  <line x1="77.3600" y1="8.0000" x2="77.3600" y2="289.0000" stroke="black" stroke-width="0.2000"/>
  <line x1="77.8700" y1="8.0000" x2="77.8700" y2="289.0000" stroke="black" stroke-width="0.2000"/>
  <line x1="78.3800" y1="8.0000" x2="78.3800" y2="289.0000" stroke="black" stroke-width="0.2000"/>
  <line x1="78.8900" y1="8.0000" x2="78.8900" y2="289.0000" stroke="black" stroke-width="0.2000"/>
  <line x1="79.4000" y1="8.0000" x2="79.4000" y2="289.0000" stroke="black" stroke-width="0.2000"/>
  <line x1="79.9100" y1="8.0000" x2="79.9100" y2="289.0000" stroke="black" stroke-width="0.2000"/>
  <line x1="80.4200" y1="8.0000" x2="80.4200" y2="289.0000" stroke="black" stroke-width="0.2000"/>
  <line x1="80.9300" y1="8.0000" x2="80.9300" y2="289.0000" stroke="black" stroke-width="0.2000"/>
  <line x1="81.4400" y1="8.0000" x2="81.4400" y2="289.0000" stroke="black" stroke-width="0.2000"/>
  <line x1="81.9500" y1="8.0000" x2="81.9500" y2="289.0000" stroke="black" stroke-width="0.2000"/>
  <line x1="82.4600" y1="8.0000" x2="82.4600" y2="289.0000" stroke="black" stroke-width="0.2000"/>
  <line x1="82.9700" y1="8.0000" x2="82.9700" y2="289.0000" stroke="black" stroke-width="0.2000"/>
  <line x1="83.4800" y1="8.0000" x2="83.4800" y2="289.0000" stroke="black" stroke-width="0.2000"/>
  <line x1="83.9900" y1="8.0000" x2="83.9900" y2="289.0000" stroke="black" stroke-width="0.2000"/>
  <line x1="84.5000" y1="8.0000" x2="84.5000" y2="289.0000" stroke="black" stroke-width="0.2000"/>
  <line x1="85.0100" y1="8.0000" x2="85.0100" y2="289.0000" stroke="black" stroke-width="0.2000"/>
  <line x1="85.5200" y1="8.0000" x2="85.5200" y2="289.0000" stroke="black" stroke-width="0.2000"/>
  <line x1="86.0300" y1="8.0000" x2="86.0300" y2="289.0000" stroke="black" stroke-width="0.2000"/>
  <line x1="86.5400" y1="8.0000" x2="86.5400" y2="289.0000" stroke="black" stroke-width="0.2000"/>
  <line x1="87.0500" y1="8.0000" x2="87.0500" y2="289.0000" stroke="black" stroke-width="0.2000"/>
  <line x1="87.5600" y1="8.0000" x2="87.5600" y2="289.0000" stroke="black" stroke-width="0.2000"/>
  <line x1="88.0700" y1="8.0000" x2="88.0700" y2="289.0000" stroke="black" stroke-width="0.2000"/>
  <line x1="88.5800" y1="8.0000" x2="88.5800" y2="289.0000" stroke="black" stroke-width="0.2000"/>
  <line x1="89.0900" y1="8.0000" x2="89.0900" y2="289.0000" stroke="black" stroke-width="0.2000"/>
  <line x1="89.6000" y1="8.0000" x2="89.6000" y2="289.0000" stroke="black" stroke-width="0.2000"/>
  <line x1="90.1100" y1="8.0000" x2="90.1100" y2="289.0000" stroke="black" stroke-width="0.2000"/>
  <line x1="90.6200" y1="8.0000" x2="90.6200" y2="289.0000" stroke="black" stroke-width="0.2000"/>
  <line x1="91.1300" y1="8.0000" x2="91.1300" y2="289.0000" stroke="black" stroke-width="0.2000"/>
  <line x1="91.6400" y1="8.0000" x2="91.6400" y2="289.0000" stroke="black" stroke-width="0.2000"/>
  <line x1="92.1500" y1="8.0000" x2="92.1500" y2="289.0000" stroke="black" stroke-width="0.2000"/>
  <line x1="92.6600" y1="8.0000" x2="92.6600" y2="289.0000" stroke="black" stroke-width="0.2000"/>
  <line x1="93.1700" y1="8.0000" x2="93.1700" y2="289.0000" stroke="black" stroke-width="0.2000"/>
  <line x1="93.6800" y1="8.0000" x2="93.6800" y2="289.0000" stroke="black" stroke-width="0.2000"/>
  <line x1="94.1900" y1="8.0000" x2="94.1900" y2="289.0000" stroke="black" stroke-width="0.2000"/>
  <line x1="94.7000" y1="8.0000" x2="94.7000" y2="289.0000" stroke="black" stroke-width="0.2000"/>
  <line x1="95.2100" y1="8.0000" x2="95.2100" y2="289.0000" stroke="black" stroke-width="0.2000"/>
  <line x1="95.7200" y1="8.0000" x2="95.7200" y2="289.0000" stroke="black" stroke-width="0.2000"/>
  <line x1="96.2300" y1="8.0000" x2="96.2300" y2="289.0000" stroke="black" stroke-width="0.2000"/>
  <line x1="96.7400" y1="8.0000" x2="96.7400" y2="289.0000" stroke="black" stroke-width="0.2000"/>
  <line x1="97.2500" y1="8.0000" x2="97.2500" y2="289.0000" stroke="black" stroke-width="0.2000"/>
  <line x1="97.7600" y1="8.0000" x2="97.7600" y2="289.0000" stroke="black" stroke-width="0.2000"/>
  <line x1="98.2700" y1="8.0000" x2="98.2700" y2="289.0000" stroke="black" stroke-width="0.2000"/>
  <line x1="98.7800" y1="8.0000" x2="98.7800" y2="289.0000" stroke="black" stroke-width="0.2000"/>
  <line x1="99.2900" y1="8.0000" x2="99.2900" y2="289.0000" stroke="black" stroke-width="0.2000"/>
  <line x1="99.8000" y1="8.0000" x2="99.8000" y2="289.0000" stroke="black" stroke-width="0.2000"/>
  <line x1="100.3100" y1="8.0000" x2="100.3100" y2="289.0000" stroke="black" stroke-width="0.2000"/>
  <line x1="100.8200" y1="8.0000" x2="100.8200" y2="289.0000" stroke="black" stroke-width="0.2000"/>
  <line x1="101.3300" y1="8.0000" x2="101.3300" y2="289.0000" stroke="black" stroke-width="0.2000"/>
  <line x1="101.8400" y1="8.0000" x2="101.8400" y2="289.0000" stroke="black" stroke-width="0.2000"/>
  <line x1="102.3500" y1="8.0000" x2="102.3500" y2="289.0000" stroke="black" stroke-width="0.2000"/>
  <line x1="102.8600" y1="8.0000" x2="102.8600" y2="289.0000" stroke="black" stroke-width="0.2000"/>
  <line x1="103.3700" y1="8.0000" x2="103.3700" y2="289.0000" stroke="black" stroke-width="0.2000"/>
  <line x1="103.8800" y1="8.0000" x2="103.8800" y2="289.0000" stroke="black" stroke-width="0.2000"/>
  <line x1="104.3900" y1="8.0000" x2="104.3900" y2="289.0000" stroke="black" stroke-width="0.2000"/>
  <line x1="104.9000" y1="8.0000" x2="104.9000" y2="289.0000" stroke="black" stroke-width="0.2000"/>
  <line x1="105.4100" y1="8.0000" x2="105.4100" y2="289.0000" stroke="black" stroke-width="0.2000"/>
  <line x1="105.9200" y1="8.0000" x2="105.9200" y2="289.0000" stroke="black" stroke-width="0.2000"/>
  <line x1="106.4300" y1="8.0000" x2="106.4300" y2="289.0000" stroke="black" stroke-width="0.2000"/>
  <line x1="106.9400" y1="8.0000" x2="106.9400" y2="289.0000" stroke="black" stroke-width="0.2000"/>
  <line x1="107.4500" y1="8.0000" x2="107.4500" y2="289.0000" stroke="black" stroke-width="0.2000"/>
  <line x1="107.9600" y1="8.0000" x2="107.9600" y2="289.0000" stroke="black" stroke-width="0.2000"/>
  <line x1="108.4700" y1="8.0000" x2="108.4700" y2="289.0000" stroke="black" stroke-width="0.2000"/>
  <line x1="108.9800" y1="8.0000" x2="108.9800" y2="289.0000" stroke="black" stroke-width="0.2000"/>
  <line x1="109.4900" y1="8.0000" x2="109.4900" y2="289.0000" stroke="black" stroke-width="0.2000"/>
  <line x1="110.0000" y1="8.0000" x2="110.0000" y2="289.0000" stroke="black" stroke-width="0.2000"/>
  <line x1="110.5100" y1="8.0000" x2="110.5100" y2="289.0000" stroke="black" stroke-width="0.2000"/>
  <line x1="111.0200" y1="8.0000" x2="111.0200" y2="289.0000" stroke="black" stroke-width="0.2000"/>
  <line x1="111.5300" y1="8.0000" x2="111.5300" y2="289.0000" stroke="black" stroke-width="0.2000"/>
  <line x1="112.0400" y1="8.0000" x2="112.0400" y2="289.0000" stroke="black" stroke-width="0.2000"/>
  <line x1="112.5500" y1="8.0000" x2="112.5500" y2="289.0000" stroke="black" stroke-width="0.2000"/>
  <line x1="113.0600" y1="8.0000" x2="113.0600" y2="289.0000" stroke="black" stroke-width="0.2000"/>
  <line x1="113.5700" y1="8.0000" x2="113.5700" y2="289.0000" stroke="black" stroke-width="0.2000"/>
  <line x1="114.0800" y1="8.0000" x2="114.0800" y2="289.0000" stroke="black" stroke-width="0.2000"/>
  <line x1="114.5900" y1="8.0000" x2="114.5900" y2="289.0000" stroke="black" stroke-width="0.2000"/>
  <line x1="115.1000" y1="8.0000" x2="115.1000" y2="289.0000" stroke="black" stroke-width="0.2000"/>
  <line x1="115.6100" y1="8.0000" x2="115.6100" y2="289.0000" stroke="black" stroke-width="0.2000"/>
  <line x1="116.1200" y1="8.0000" x2="116.1200" y2="289.0000" stroke="black" stroke-width="0.2000"/>
  <line x1="116.6300" y1="8.0000" x2="116.6300" y2="289.0000" stroke="black" stroke-width="0.2000"/>
  <line x1="117.1400" y1="8.0000" x2="117.1400" y2="289.0000" stroke="black" stroke-width="0.2000"/>
  <line x1="117.6500" y1="8.0000" x2="117.6500" y2="289.0000" stroke="black" stroke-width="0.2000"/>
  <line x1="118.1600" y1="8.0000" x2="118.1600" y2="289.0000" stroke="black" stroke-width="0.2000"/>
  <line x1="118.6700" y1="8.0000" x2="118.6700" y2="289.0000" stroke="black" stroke-width="0.2000"/>
  <line x1="119.1800" y1="8.0000" x2="119.1800" y2="289.0000" stroke="black" stroke-width="0.2000"/>
  <line x1="119.6900" y1="8.0000" x2="119.6900" y2="289.0000" stroke="black" stroke-width="0.2000"/>
  <line x1="120.2000" y1="8.0000" x2="120.2000" y2="289.0000" stroke="black" stroke-width="0.2000"/>
  <line x1="120.7100" y1="8.0000" x2="120.7100" y2="289.0000" stroke="black" stroke-width="0.2000"/>
  <line x1="121.2200" y1="8.0000" x2="121.2200" y2="289.0000" stroke="black" stroke-width="0.2000"/>
  <line x1="121.7300" y1="8.0000" x2="121.7300" y2="289.0000" stroke="black" stroke-width="0.2000"/>
  <line x1="122.2400" y1="8.0000" x2="122.2400" y2="289.0000" stroke="black" stroke-width="0.2000"/>
  <line x1="122.7500" y1="8.0000" x2="122.7500" y2="289.0000" stroke="black" stroke-width="0.2000"/>
  <line x1="123.2600" y1="8.0000" x2="123.2600" y2="289.0000" stroke="black" stroke-width="0.2000"/>
  <line x1="123.7700" y1="8.0000" x2="123.7700" y2="289.0000" stroke="black" stroke-width="0.2000"/>
  <line x1="124.2800" y1="8.0000" x2="124.2800" y2="289.0000" stroke="black" stroke-width="0.2000"/>
  <line x1="124.7900" y1="8.0000" x2="124.7900" y2="289.0000" stroke="black" stroke-width="0.2000"/>
  <line x1="125.3000" y1="8.0000" x2="125.3000" y2="289.0000" stroke="black" stroke-width="0.2000"/>
  <line x1="125.8100" y1="8.0000" x2="125.8100" y2="289.0000" stroke="black" stroke-width="0.2000"/>
  <line x1="126.3200" y1="8.0000" x2="126.3200" y2="289.0000" stroke="black" stroke-width="0.2000"/>
  <line x1="126.8300" y1="8.0000" x2="126.8300" y2="289.0000" stroke="black" stroke-width="0.2000"/>
  <line x1="127.3400" y1="8.0000" x2="127.3400" y2="289.0000" stroke="black" stroke-width="0.2000"/>
  <line x1="127.8500" y1="8.0000" x2="127.8500" y2="289.0000" stroke="black" stroke-width="0.2000"/>
  <line x1="128.3600" y1="8.0000" x2="128.3600" y2="289.0000" stroke="black" stroke-width="0.2000"/>
  <line x1="128.8700" y1="8.0000" x2="128.8700" y2="289.0000" stroke="black" stroke-width="0.2000"/>
  <line x1="129.3800" y1="8.0000" x2="129.3800" y2="289.0000" stroke="black" stroke-width="0.2000"/>
  <line x1="129.8900" y1="8.0000" x2="129.8900" y2="289.0000" stroke="black" stroke-width="0.2000"/>
  <line x1="130.4000" y1="8.0000" x2="130.4000" y2="289.0000" stroke="black" stroke-width="0.2000"/>
  <line x1="130.9100" y1="8.0000" x2="130.9100" y2="289.0000" stroke="black" stroke-width="0.2000"/>
  <line x1="131.4200" y1="8.0000" x2="131.4200" y2="289.0000" stroke="black" stroke-width="0.2000"/>
  <line x1="131.9300" y1="8.0000" x2="131.9300" y2="289.0000" stroke="black" stroke-width="0.2000"/>
  <line x1="132.4400" y1="8.0000" x2="132.4400" y2="289.0000" stroke="black" stroke-width="0.2000"/>
  <line x1="132.9500" y1="8.0000" x2="132.9500" y2="289.0000" stroke="black" stroke-width="0.2000"/>
  <line x1="133.4600" y1="8.0000" x2="133.4600" y2="289.0000" stroke="black" stroke-width="0.2000"/>
  <line x1="133.9700" y1="8.0000" x2="133.9700" y2="289.0000" stroke="black" stroke-width="0.2000"/>
  <line x1="134.4800" y1="8.0000" x2="134.4800" y2="289.0000" stroke="black" stroke-width="0.2000"/>
  <line x1="134.9900" y1="8.0000" x2="134.9900" y2="289.0000" stroke="black" stroke-width="0.2000"/>
  <line x1="135.5000" y1="8.0000" x2="135.5000" y2="289.0000" stroke="black" stroke-width="0.2000"/>
  <line x1="136.0100" y1="8.0000" x2="136.0100" y2="289.0000" stroke="black" stroke-width="0.2000"/>
  <line x1="136.5200" y1="8.0000" x2="136.5200" y2="289.0000" stroke="black" stroke-width="0.2000"/>
  <line x1="137.0300" y1="8.0000" x2="137.0300" y2="289.0000" stroke="black" stroke-width="0.2000"/>
  <line x1="137.5400" y1="8.0000" x2="137.5400" y2="289.0000" stroke="black" stroke-width="0.2000"/>
  <line x1="138.0500" y1="8.0000" x2="138.0500" y2="289.0000" stroke="black" stroke-width="0.2000"/>
  <line x1="138.5600" y1="8.0000" x2="138.5600" y2="289.0000" stroke="black" stroke-width="0.2000"/>
  <line x1="139.0700" y1="8.0000" x2="139.0700" y2="289.0000" stroke="black" stroke-width="0.2000"/>
  <line x1="139.5800" y1="8.0000" x2="139.5800" y2="289.0000" stroke="black" stroke-width="0.2000"/>
  <line x1="140.0900" y1="8.0000" x2="140.0900" y2="289.0000" stroke="black" stroke-width="0.2000"/>
  <line x1="140.6000" y1="8.0000" x2="140.6000" y2="289.0000" stroke="black" stroke-width="0.2000"/>
  <line x1="141.1100" y1="8.0000" x2="141.1100" y2="289.0000" stroke="black" stroke-width="0.2000"/>
  <line x1="141.6200" y1="8.0000" x2="141.6200" y2="289.0000" stroke="black" stroke-width="0.2000"/>
  <line x1="142.1300" y1="8.0000" x2="142.1300" y2="289.0000" stroke="black" stroke-width="0.2000"/>
  <line x1="142.6400" y1="8.0000" x2="142.6400" y2="289.0000" stroke="black" stroke-width="0.2000"/>
  <line x1="143.1500" y1="8.0000" x2="143.1500" y2="289.0000" stroke="black" stroke-width="0.2000"/>
  <line x1="143.6600" y1="8.0000" x2="143.6600" y2="289.0000" stroke="black" stroke-width="0.2000"/>
  <line x1="144.1700" y1="8.0000" x2="144.1700" y2="289.0000" stroke="black" stroke-width="0.2000"/>
  <line x1="144.6800" y1="8.0000" x2="144.6800" y2="289.0000" stroke="black" stroke-width="0.2000"/>
  <line x1="145.1900" y1="8.0000" x2="145.1900" y2="289.0000" stroke="black" stroke-width="0.2000"/>
  <line x1="145.7000" y1="8.0000" x2="145.7000" y2="289.0000" stroke="black" stroke-width="0.2000"/>
  <line x1="146.2100" y1="8.0000" x2="146.2100" y2="289.0000" stroke="black" stroke-width="0.2000"/>
  <line x1="146.7200" y1="8.0000" x2="146.7200" y2="289.0000" stroke="black" stroke-width="0.2000"/>
  <line x1="147.2300" y1="8.0000" x2="147.2300" y2="289.0000" stroke="black" stroke-width="0.2000"/>
  <line x1="147.7400" y1="8.0000" x2="147.7400" y2="289.0000" stroke="black" stroke-width="0.2000"/>
  <line x1="148.2500" y1="8.0000" x2="148.2500" y2="289.0000" stroke="black" stroke-width="0.2000"/>
  <line x1="148.7600" y1="8.0000" x2="148.7600" y2="289.0000" stroke="black" stroke-width="0.2000"/>
  <line x1="149.2700" y1="8.0000" x2="149.2700" y2="289.0000" stroke="black" stroke-width="0.2000"/>
  <line x1="149.7800" y1="8.0000" x2="149.7800" y2="289.0000" stroke="black" stroke-width="0.2000"/>
  <line x1="150.2900" y1="8.0000" x2="150.2900" y2="289.0000" stroke="black" stroke-width="0.2000"/>
  <line x1="150.8000" y1="8.0000" x2="150.8000" y2="289.0000" stroke="black" stroke-width="0.2000"/>
  <line x1="151.3100" y1="8.0000" x2="151.3100" y2="289.0000" stroke="black" stroke-width="0.2000"/>
  <line x1="151.8200" y1="8.0000" x2="151.8200" y2="289.0000" stroke="black" stroke-width="0.2000"/>
  <line x1="152.3300" y1="8.0000" x2="152.3300" y2="289.0000" stroke="black" stroke-width="0.2000"/>
  <line x1="152.8400" y1="8.0000" x2="152.8400" y2="289.0000" stroke="black" stroke-width="0.2000"/>
  <line x1="153.3500" y1="8.0000" x2="153.3500" y2="289.0000" stroke="black" stroke-width="0.2000"/>
  <line x1="153.8600" y1="8.0000" x2="153.8600" y2="289.0000" stroke="black" stroke-width="0.2000"/>
  <line x1="154.3700" y1="8.0000" x2="154.3700" y2="289.0000" stroke="black" stroke-width="0.2000"/>
  <line x1="154.8800" y1="8.0000" x2="154.8800" y2="289.0000" stroke="black" stroke-width="0.2000"/>
  <line x1="155.3900" y1="8.0000" x2="155.3900" y2="289.0000" stroke="black" stroke-width="0.2000"/>
  <line x1="155.9000" y1="8.0000" x2="155.9000" y2="289.0000" stroke="black" stroke-width="0.2000"/>
  <line x1="156.4100" y1="8.0000" x2="156.4100" y2="289.0000" stroke="black" stroke-width="0.2000"/>
  <line x1="156.9200" y1="8.0000" x2="156.9200" y2="289.0000" stroke="black" stroke-width="0.2000"/>
  <line x1="157.4300" y1="8.0000" x2="157.4300" y2="289.0000" stroke="black" stroke-width="0.2000"/>
  <line x1="157.9400" y1="8.0000" x2="157.9400" y2="289.0000" stroke="black" stroke-width="0.2000"/>
  <line x1="158.4500" y1="8.0000" x2="158.4500" y2="289.0000" stroke="black" stroke-width="0.2000"/>
  <line x1="158.9600" y1="8.0000" x2="158.9600" y2="289.0000" stroke="black" stroke-width="0.2000"/>
  <line x1="159.4700" y1="8.0000" x2="159.4700" y2="289.0000" stroke="black" stroke-width="0.2000"/>
  <line x1="159.9800" y1="8.0000" x2="159.9800" y2="289.0000" stroke="black" stroke-width="0.2000"/>
  <line x1="160.4900" y1="8.0000" x2="160.4900" y2="289.0000" stroke="black" stroke-width="0.2000"/>
  <line x1="161.0000" y1="8.0000" x2="161.0000" y2="289.0000" stroke="black" stroke-width="0.2000"/>
  <line x1="161.5100" y1="8.0000" x2="161.5100" y2="289.0000" stroke="black" stroke-width="0.2000"/>
  <line x1="162.0200" y1="8.0000" x2="162.0200" y2="289.0000" stroke="black" stroke-width="0.2000"/>
  <line x1="162.5300" y1="8.0000" x2="162.5300" y2="289.0000" stroke="black" stroke-width="0.2000"/>
  <line x1="163.0400" y1="8.0000" x2="163.0400" y2="289.0000" stroke="black" stroke-width="0.2000"/>
  <line x1="163.5500" y1="8.0000" x2="163.5500" y2="289.0000" stroke="black" stroke-width="0.2000"/>
  <line x1="164.0600" y1="8.0000" x2="164.0600" y2="289.0000" stroke="black" stroke-width="0.2000"/>
  <line x1="164.5700" y1="8.0000" x2="164.5700" y2="289.0000" stroke="black" stroke-width="0.2000"/>
  <line x1="165.0800" y1="8.0000" x2="165.0800" y2="289.0000" stroke="black" stroke-width="0.2000"/>
  <line x1="165.5900" y1="8.0000" x2="165.5900" y2="289.0000" stroke="black" stroke-width="0.2000"/>
  <line x1="166.1000" y1="8.0000" x2="166.1000" y2="289.0000" stroke="black" stroke-width="0.2000"/>
  <line x1="166.6100" y1="8.0000" x2="166.6100" y2="289.0000" stroke="black" stroke-width="0.2000"/>
  <line x1="167.1200" y1="8.0000" x2="167.1200" y2="289.0000" stroke="black" stroke-width="0.2000"/>
  <line x1="167.6300" y1="8.0000" x2="167.6300" y2="289.0000" stroke="black" stroke-width="0.2000"/>
  <line x1="168.1400" y1="8.0000" x2="168.1400" y2="289.0000" stroke="black" stroke-width="0.2000"/>
  <line x1="168.6500" y1="8.0000" x2="168.6500" y2="289.0000" stroke="black" stroke-width="0.2000"/>
  <line x1="169.1600" y1="8.0000" x2="169.1600" y2="289.0000" stroke="black" stroke-width="0.2000"/>
  <line x1="169.6700" y1="8.0000" x2="169.6700" y2="289.0000" stroke="black" stroke-width="0.2000"/>
  <line x1="170.1800" y1="8.0000" x2="170.1800" y2="289.0000" stroke="black" stroke-width="0.2000"/>
  <line x1="170.6900" y1="8.0000" x2="170.6900" y2="289.0000" stroke="black" stroke-width="0.2000"/>
  <line x1="171.2000" y1="8.0000" x2="171.2000" y2="289.0000" stroke="black" stroke-width="0.2000"/>
  <line x1="171.7100" y1="8.0000" x2="171.7100" y2="289.0000" stroke="black" stroke-width="0.2000"/>
  <line x1="172.2200" y1="8.0000" x2="172.2200" y2="289.0000" stroke="black" stroke-width="0.2000"/>
  <line x1="172.7300" y1="8.0000" x2="172.7300" y2="289.0000" stroke="black" stroke-width="0.2000"/>
  <line x1="173.2400" y1="8.0000" x2="173.2400" y2="289.0000" stroke="black" stroke-width="0.2000"/>
  <line x1="173.7500" y1="8.0000" x2="173.7500" y2="289.0000" stroke="black" stroke-width="0.2000"/>
  <line x1="174.2600" y1="8.0000" x2="174.2600" y2="289.0000" stroke="black" stroke-width="0.2000"/>
  <line x1="174.7700" y1="8.0000" x2="174.7700" y2="289.0000" stroke="black" stroke-width="0.2000"/>
  <line x1="175.2800" y1="8.0000" x2="175.2800" y2="289.0000" stroke="black" stroke-width="0.2000"/>
  <line x1="175.7900" y1="8.0000" x2="175.7900" y2="289.0000" stroke="black" stroke-width="0.2000"/>
  <line x1="176.3000" y1="8.0000" x2="176.3000" y2="289.0000" stroke="black" stroke-width="0.2000"/>
  <line x1="176.8100" y1="8.0000" x2="176.8100" y2="289.0000" stroke="black" stroke-width="0.2000"/>
  <line x1="177.3200" y1="8.0000" x2="177.3200" y2="289.0000" stroke="black" stroke-width="0.2000"/>
  <line x1="177.8300" y1="8.0000" x2="177.8300" y2="289.0000" stroke="black" stroke-width="0.2000"/>
  <line x1="178.3400" y1="8.0000" x2="178.3400" y2="289.0000" stroke="black" stroke-width="0.2000"/>
  <line x1="178.8500" y1="8.0000" x2="178.8500" y2="289.0000" stroke="black" stroke-width="0.2000"/>
  <line x1="179.3600" y1="8.0000" x2="179.3600" y2="289.0000" stroke="black" stroke-width="0.2000"/>
  <line x1="179.8700" y1="8.0000" x2="179.8700" y2="289.0000" stroke="black" stroke-width="0.2000"/>
  <line x1="180.3800" y1="8.0000" x2="180.3800" y2="289.0000" stroke="black" stroke-width="0.2000"/>
  <line x1="180.8900" y1="8.0000" x2="180.8900" y2="289.0000" stroke="black" stroke-width="0.2000"/>
  <line x1="181.4000" y1="8.0000" x2="181.4000" y2="289.0000" stroke="black" stroke-width="0.2000"/>
  <line x1="181.9100" y1="8.0000" x2="181.9100" y2="289.0000" stroke="black" stroke-width="0.2000"/>
  <line x1="182.4200" y1="8.0000" x2="182.4200" y2="289.0000" stroke="black" stroke-width="0.2000"/>
  <line x1="182.9300" y1="8.0000" x2="182.9300" y2="289.0000" stroke="black" stroke-width="0.2000"/>
  <line x1="183.4400" y1="8.0000" x2="183.4400" y2="289.0000" stroke="black" stroke-width="0.2000"/>
  <line x1="183.9500" y1="8.0000" x2="183.9500" y2="289.0000" stroke="black" stroke-width="0.2000"/>
  <line x1="184.4600" y1="8.0000" x2="184.4600" y2="289.0000" stroke="black" stroke-width="0.2000"/>
  <line x1="184.9700" y1="8.0000" x2="184.9700" y2="289.0000" stroke="black" stroke-width="0.2000"/>
  <line x1="185.4800" y1="8.0000" x2="185.4800" y2="289.0000" stroke="black" stroke-width="0.2000"/>
  <line x1="185.9900" y1="8.0000" x2="185.9900" y2="289.0000" stroke="black" stroke-width="0.2000"/>
  <line x1="186.5000" y1="8.0000" x2="186.5000" y2="289.0000" stroke="black" stroke-width="0.2000"/>
  <line x1="187.0100" y1="8.0000" x2="187.0100" y2="289.0000" stroke="black" stroke-width="0.2000"/>
  <line x1="187.5200" y1="8.0000" x2="187.5200" y2="289.0000" stroke="black" stroke-width="0.2000"/>
  <line x1="188.0300" y1="8.0000" x2="188.0300" y2="289.0000" stroke="black" stroke-width="0.2000"/>
  <line x1="188.5400" y1="8.0000" x2="188.5400" y2="289.0000" stroke="black" stroke-width="0.2000"/>
  <line x1="189.0500" y1="8.0000" x2="189.0500" y2="289.0000" stroke="black" stroke-width="0.2000"/>
  <line x1="189.5600" y1="8.0000" x2="189.5600" y2="289.0000" stroke="black" stroke-width="0.2000"/>
  <line x1="190.0700" y1="8.0000" x2="190.0700" y2="289.0000" stroke="black" stroke-width="0.2000"/>
  <line x1="190.5800" y1="8.0000" x2="190.5800" y2="289.0000" stroke="black" stroke-width="0.2000"/>
  <line x1="191.0900" y1="8.0000" x2="191.0900" y2="289.0000" stroke="black" stroke-width="0.2000"/>
  <line x1="191.6000" y1="8.0000" x2="191.6000" y2="289.0000" stroke="black" stroke-width="0.2000"/>
  <line x1="192.1100" y1="8.0000" x2="192.1100" y2="289.0000" stroke="black" stroke-width="0.2000"/>
  <line x1="192.6200" y1="8.0000" x2="192.6200" y2="289.0000" stroke="black" stroke-width="0.2000"/>
  <line x1="193.1300" y1="8.0000" x2="193.1300" y2="289.0000" stroke="black" stroke-width="0.2000"/>
  <line x1="193.6400" y1="8.0000" x2="193.6400" y2="289.0000" stroke="black" stroke-width="0.2000"/>
  <line x1="194.1500" y1="8.0000" x2="194.1500" y2="289.0000" stroke="black" stroke-width="0.2000"/>
  <line x1="194.6600" y1="8.0000" x2="194.6600" y2="289.0000" stroke="black" stroke-width="0.2000"/>
  <line x1="195.1700" y1="8.0000" x2="195.1700" y2="289.0000" stroke="black" stroke-width="0.2000"/>
  <line x1="195.6800" y1="8.0000" x2="195.6800" y2="289.0000" stroke="black" stroke-width="0.2000"/>
  <line x1="196.1900" y1="8.0000" x2="196.1900" y2="289.0000" stroke="black" stroke-width="0.2000"/>
  <line x1="196.7000" y1="8.0000" x2="196.7000" y2="289.0000" stroke="black" stroke-width="0.2000"/>
  <line x1="197.2100" y1="8.0000" x2="197.2100" y2="289.0000" stroke="black" stroke-width="0.2000"/>
  <line x1="197.7200" y1="8.0000" x2="197.7200" y2="289.0000" stroke="black" stroke-width="0.2000"/>
  <line x1="198.2300" y1="8.0000" x2="198.2300" y2="289.0000" stroke="black" stroke-width="0.2000"/>
  <line x1="198.7400" y1="8.0000" x2="198.7400" y2="289.0000" stroke="black" stroke-width="0.2000"/>
  <line x1="199.2500" y1="8.0000" x2="199.2500" y2="289.0000" stroke="black" stroke-width="0.2000"/>
  <line x1="199.7600" y1="8.0000" x2="199.7600" y2="289.0000" stroke="black" stroke-width="0.2000"/>
  <line x1="200.2700" y1="8.0000" x2="200.2700" y2="289.0000" stroke="black" stroke-width="0.2000"/>
  <line x1="200.7800" y1="8.0000" x2="200.7800" y2="289.0000" stroke="black" stroke-width="0.2000"/>
  <line x1="201.2900" y1="8.0000" x2="201.2900" y2="289.0000" stroke="black" stroke-width="0.2000"/>
  <line x1="201.8000" y1="8.0000" x2="201.8000" y2="289.0000" stroke="black" stroke-width="0.2000"/>
</svg>
