<?xml version="1.0" encoding="UTF-8"?>
<svg id="Layer_1" xmlns="http://www.w3.org/2000/svg" version="1.1" viewBox="0 0 595.28 841.89">
  <!-- Generator: Adobe Illustrator 29.5.1, SVG Export Plug-In . SVG Version: 2.1.0 Build 141)  -->
  <defs>
    <style>
      .st0 {
        fill: none;
        stroke: #1f77b4;
      }
    </style>
  </defs>
  <g id="figure_1">
    <g id="axes_1">
      <g id="LineCollection_1">
        <path class="st0" d="M297.64,420.94h2.83"/>
        <path class="st0" d="M300.47,420.94v2.83"/>
        <path class="st0" d="M300.47,423.78h-7.09"/>
        <path class="st0" d="M293.39,423.78v-7.09"/>
        <path class="st0" d="M293.39,416.69h11.34"/>
        <path class="st0" d="M304.72,416.69v11.34"/>
        <path class="st0" d="M304.72,428.03h-15.59"/>
        <path class="st0" d="M289.13,428.03v-15.59"/>
        <path class="st0" d="M289.13,412.44h19.84"/>
        <path class="st0" d="M308.98,412.44v19.84"/>
        <path class="st0" d="M308.98,432.28h-24.09"/>
        <path class="st0" d="M284.88,432.28v-24.09"/>
        <path class="st0" d="M284.88,408.19h28.35"/>
        <path class="st0" d="M313.23,408.19v28.35"/>
        <path class="st0" d="M313.23,436.54h-32.6"/>
        <path class="st0" d="M280.63,436.54v-32.6"/>
        <path class="st0" d="M280.63,403.94h36.85"/>
        <path class="st0" d="M317.48,403.94v36.85"/>
        <path class="st0" d="M317.48,440.79h-41.1"/>
        <path class="st0" d="M276.38,440.79v-41.1"/>
        <path class="st0" d="M276.38,399.69h45.35"/>
        <path class="st0" d="M321.73,399.69v45.35"/>
        <path class="st0" d="M321.73,445.04h-49.61"/>
        <path class="st0" d="M272.13,445.04v-49.61"/>
        <path class="st0" d="M272.13,395.43h53.86"/>
        <path class="st0" d="M325.98,395.43v53.86"/>
        <path class="st0" d="M325.98,449.29h-58.11"/>
        <path class="st0" d="M267.87,449.29v-58.11"/>
        <path class="st0" d="M267.87,391.18h62.36"/>
        <path class="st0" d="M330.24,391.18v62.36"/>
        <path class="st0" d="M330.24,453.54h-66.61"/>
        <path class="st0" d="M263.62,453.54v-66.61"/>
        <path class="st0" d="M263.62,386.93h70.87"/>
        <path class="st0" d="M334.49,386.93v70.87"/>
        <path class="st0" d="M334.49,457.8h-75.12"/>
        <path class="st0" d="M259.37,457.8v-75.12"/>
        <path class="st0" d="M259.37,382.68h79.37"/>
        <path class="st0" d="M338.74,382.68v79.37"/>
        <path class="st0" d="M338.74,462.05h-83.62"/>
        <path class="st0" d="M255.12,462.05v-83.62"/>
        <path class="st0" d="M255.12,378.43h87.87"/>
        <path class="st0" d="M342.99,378.43v87.87"/>
        <path class="st0" d="M342.99,466.3h-92.13"/>
        <path class="st0" d="M250.87,466.3v-92.13"/>
        <path class="st0" d="M250.87,374.17h96.38"/>
        <path class="st0" d="M347.24,374.17v96.38"/>
        <path class="st0" d="M347.24,470.55h-100.63"/>
        <path class="st0" d="M246.61,470.55v-100.63"/>
        <path class="st0" d="M246.61,369.92h104.88"/>
        <path class="st0" d="M351.5,369.92v104.88"/>
        <path class="st0" d="M351.5,474.8h-109.13"/>
        <path class="st0" d="M242.36,474.8v-109.13"/>
        <path class="st0" d="M242.36,365.67h113.39"/>
        <path class="st0" d="M355.75,365.67v113.39"/>
        <path class="st0" d="M355.75,479.06h-117.64"/>
        <path class="st0" d="M238.11,479.06v-117.64"/>
        <path class="st0" d="M238.11,361.42h121.89"/>
        <path class="st0" d="M360,361.42v121.89"/>
        <path class="st0" d="M360,483.31h-126.14"/>
        <path class="st0" d="M233.86,483.31v-126.14"/>
        <path class="st0" d="M233.86,357.17h130.39"/>
        <path class="st0" d="M364.25,357.17v130.39"/>
        <path class="st0" d="M364.25,487.56h-134.65"/>
        <path class="st0" d="M229.61,487.56v-134.65"/>
        <path class="st0" d="M229.61,352.91h138.9"/>
        <path class="st0" d="M368.5,352.91v138.9"/>
        <path class="st0" d="M368.5,491.81h-143.15"/>
        <path class="st0" d="M225.35,491.81v-143.15"/>
        <path class="st0" d="M225.35,348.66h147.4"/>
        <path class="st0" d="M372.76,348.66v147.4"/>
        <path class="st0" d="M372.76,496.06h-151.65"/>
        <path class="st0" d="M221.1,496.06v-151.65"/>
        <path class="st0" d="M221.1,344.41h155.91"/>
        <path class="st0" d="M377.01,344.41v155.91"/>
        <path class="st0" d="M377.01,500.31h-160.16"/>
        <path class="st0" d="M216.85,500.31v-160.16"/>
        <path class="st0" d="M216.85,340.16h164.41"/>
        <path class="st0" d="M381.26,340.16v164.41"/>
        <path class="st0" d="M381.26,504.57h-168.66"/>
        <path class="st0" d="M212.6,504.57v-168.66"/>
        <path class="st0" d="M212.6,335.91h172.91"/>
        <path class="st0" d="M385.51,335.91v172.91"/>
        <path class="st0" d="M385.51,508.82h-177.17"/>
        <path class="st0" d="M208.35,508.82v-177.17"/>
        <path class="st0" d="M208.35,331.65h181.42"/>
        <path class="st0" d="M389.76,331.65v181.42"/>
        <path class="st0" d="M389.76,513.07h-185.67"/>
        <path class="st0" d="M204.09,513.07v-185.67"/>
        <path class="st0" d="M204.09,327.4h189.92"/>
        <path class="st0" d="M394.02,327.4v189.92"/>
        <path class="st0" d="M394.02,517.32h-194.17"/>
        <path class="st0" d="M199.84,517.32v-194.17"/>
        <path class="st0" d="M199.84,323.15h198.43"/>
        <path class="st0" d="M398.27,323.15v198.43"/>
        <path class="st0" d="M398.27,521.57h-202.68"/>
        <path class="st0" d="M195.59,521.57v-202.68"/>
        <path class="st0" d="M195.59,318.9h206.93"/>
        <path class="st0" d="M402.52,318.9v206.93"/>
        <path class="st0" d="M402.52,525.83h-211.18"/>
        <path class="st0" d="M191.34,525.83v-211.18"/>
        <path class="st0" d="M191.34,314.65h215.43"/>
        <path class="st0" d="M406.77,314.65v215.43"/>
        <path class="st0" d="M406.77,530.08h-219.69"/>
        <path class="st0" d="M187.09,530.08v-219.69"/>
        <path class="st0" d="M187.09,310.39h223.94"/>
        <path class="st0" d="M411.02,310.39v223.94"/>
        <path class="st0" d="M411.02,534.33h-228.19"/>
        <path class="st0" d="M182.83,534.33v-228.19"/>
        <path class="st0" d="M182.83,306.14h232.44"/>
        <path class="st0" d="M415.28,306.14v232.44"/>
        <path class="st0" d="M415.28,538.58h-236.69"/>
        <path class="st0" d="M178.58,538.58v-236.69"/>
        <path class="st0" d="M178.58,301.89h240.94"/>
        <path class="st0" d="M419.53,301.89v240.94"/>
        <path class="st0" d="M419.53,542.83h-245.2"/>
        <path class="st0" d="M174.33,542.83v-245.2"/>
        <path class="st0" d="M174.33,297.64h249.45"/>
        <path class="st0" d="M423.78,297.64v249.45"/>
        <path class="st0" d="M423.78,547.09h-253.7"/>
        <path class="st0" d="M170.08,547.09v-253.7"/>
        <path class="st0" d="M170.08,293.39h257.95"/>
        <path class="st0" d="M428.03,293.39v257.95"/>
        <path class="st0" d="M428.03,551.34H165.83"/>
        <path class="st0" d="M165.83,551.34v-262.2"/>
        <path class="st0" d="M165.83,289.13h266.46"/>
        <path class="st0" d="M432.28,289.13v266.46"/>
        <path class="st0" d="M432.28,555.59H161.57"/>
        <path class="st0" d="M161.57,555.59v-270.71"/>
        <path class="st0" d="M161.57,284.88h274.96"/>
        <path class="st0" d="M436.54,284.88v274.96"/>
        <path class="st0" d="M436.54,559.84H157.32"/>
        <path class="st0" d="M157.32,559.84v-279.21"/>
        <path class="st0" d="M157.32,280.63h283.46"/>
        <path class="st0" d="M440.79,280.63v283.46"/>
        <path class="st0" d="M440.79,564.09H153.07"/>
        <path class="st0" d="M153.07,564.09v-287.72"/>
        <path class="st0" d="M153.07,276.38h291.97"/>
        <path class="st0" d="M445.04,276.38v291.97"/>
        <path class="st0" d="M445.04,568.35H148.82"/>
        <path class="st0" d="M148.82,568.35v-296.22"/>
        <path class="st0" d="M148.82,272.13h300.47"/>
        <path class="st0" d="M449.29,272.13v300.47"/>
        <path class="st0" d="M449.29,572.6H144.57"/>
        <path class="st0" d="M144.57,572.6v-304.72"/>
        <path class="st0" d="M144.57,267.87h308.98"/>
        <path class="st0" d="M453.54,267.87v308.98"/>
        <path class="st0" d="M453.54,576.85H140.31"/>
        <path class="st0" d="M140.31,576.85v-313.23"/>
        <path class="st0" d="M140.31,263.62h317.48"/>
        <path class="st0" d="M457.8,263.62v317.48"/>
        <path class="st0" d="M457.8,581.1H136.06"/>
        <path class="st0" d="M136.06,581.1v-321.73"/>
        <path class="st0" d="M136.06,259.37h325.98"/>
        <path class="st0" d="M462.05,259.37v325.98"/>
        <path class="st0" d="M462.05,585.35H131.81"/>
      </g>
      <g id="LineCollection_2">
        <path class="st0" d="M297.64,420.94l2.81.35"/>
        <path class="st0" d="M300.45,421.29l-.35,2.81"/>
        <path class="st0" d="M300.11,424.1l-7.03-.86"/>
        <path class="st0" d="M293.07,423.24l.86-7.03"/>
        <path class="st0" d="M293.94,416.21l11.25,1.38"/>
        <path class="st0" d="M305.19,417.59l-1.38,11.25"/>
        <path class="st0" d="M303.81,428.84l-15.47-1.9"/>
        <path class="st0" d="M288.33,426.94l1.9-15.47"/>
        <path class="st0" d="M290.23,411.47l19.69,2.42"/>
        <path class="st0" d="M309.93,413.89l-2.42,19.69"/>
        <path class="st0" d="M307.51,433.58l-23.91-2.94"/>
        <path class="st0" d="M283.6,430.64l2.94-23.91"/>
        <path class="st0" d="M286.53,406.73l28.14,3.45"/>
        <path class="st0" d="M314.67,410.18l-3.45,28.14"/>
        <path class="st0" d="M311.21,438.32l-32.36-3.97"/>
        <path class="st0" d="M278.86,434.35l3.97-32.36"/>
        <path class="st0" d="M282.83,401.99l36.58,4.49"/>
        <path class="st0" d="M319.41,406.48l-4.49,36.58"/>
        <path class="st0" d="M314.91,443.06l-40.8-5.01"/>
        <path class="st0" d="M274.12,438.05l5.01-40.8"/>
        <path class="st0" d="M279.13,397.25l45.02,5.53"/>
        <path class="st0" d="M324.14,402.78l-5.53,45.02"/>
        <path class="st0" d="M318.62,447.8l-49.24-6.05"/>
        <path class="st0" d="M269.38,441.75l6.05-49.24"/>
        <path class="st0" d="M275.43,392.51l53.46,6.56"/>
        <path class="st0" d="M328.88,399.08l-6.56,53.46"/>
        <path class="st0" d="M322.32,452.53l-57.68-7.08"/>
        <path class="st0" d="M264.64,445.45l7.08-57.68"/>
        <path class="st0" d="M271.72,387.78l61.9,7.6"/>
        <path class="st0" d="M333.62,395.38l-7.6,61.9"/>
        <path class="st0" d="M326.02,457.27l-66.12-8.12"/>
        <path class="st0" d="M259.9,449.15l8.12-66.12"/>
        <path class="st0" d="M268.02,383.04l70.34,8.64"/>
        <path class="st0" d="M338.36,391.67l-8.64,70.34"/>
        <path class="st0" d="M329.72,462.01l-74.56-9.15"/>
        <path class="st0" d="M255.16,452.86l9.15-74.56"/>
        <path class="st0" d="M264.32,378.3l78.78,9.67"/>
        <path class="st0" d="M343.1,387.97l-9.67,78.78"/>
        <path class="st0" d="M333.42,466.75l-83-10.19"/>
        <path class="st0" d="M250.43,456.56l10.19-83"/>
        <path class="st0" d="M260.62,373.56l87.22,10.71"/>
        <path class="st0" d="M347.84,384.27l-10.71,87.22"/>
        <path class="st0" d="M337.13,471.49l-91.44-11.23"/>
        <path class="st0" d="M245.69,460.26l11.23-91.44"/>
        <path class="st0" d="M256.91,368.82l95.66,11.75"/>
        <path class="st0" d="M352.57,380.57l-11.75,95.66"/>
        <path class="st0" d="M340.83,476.23l-99.88-12.26"/>
        <path class="st0" d="M240.95,463.96l12.26-99.88"/>
        <path class="st0" d="M253.21,364.08l104.1,12.78"/>
        <path class="st0" d="M357.31,376.87l-12.78,104.1"/>
        <path class="st0" d="M344.53,480.97l-108.32-13.3"/>
        <path class="st0" d="M236.21,467.67l13.3-108.32"/>
        <path class="st0" d="M249.51,359.34l112.54,13.82"/>
        <path class="st0" d="M362.05,373.16l-13.82,112.54"/>
        <path class="st0" d="M348.23,485.7l-116.76-14.34"/>
        <path class="st0" d="M231.47,471.37l14.34-116.76"/>
        <path class="st0" d="M245.81,354.61l120.98,14.85"/>
        <path class="st0" d="M366.79,369.46l-14.85,120.98"/>
        <path class="st0" d="M351.94,490.44l-125.2-15.37"/>
        <path class="st0" d="M226.73,475.07l15.37-125.2"/>
        <path class="st0" d="M242.11,349.87l129.42,15.89"/>
        <path class="st0" d="M371.53,365.76l-15.89,129.42"/>
        <path class="st0" d="M355.64,495.18l-133.64-16.41"/>
        <path class="st0" d="M222,478.77l16.41-133.64"/>
        <path class="st0" d="M238.4,345.13l137.86,16.93"/>
        <path class="st0" d="M376.27,362.06l-16.93,137.86"/>
        <path class="st0" d="M359.34,499.92l-142.08-17.45"/>
        <path class="st0" d="M217.26,482.47l17.45-142.08"/>
        <path class="st0" d="M234.7,340.39l146.3,17.96"/>
        <path class="st0" d="M381.01,358.35l-17.96,146.3"/>
        <path class="st0" d="M363.04,504.66l-150.52-18.48"/>
        <path class="st0" d="M212.52,486.18l18.48-150.52"/>
        <path class="st0" d="M231,335.65l154.74,19"/>
        <path class="st0" d="M385.74,354.65l-19,154.74"/>
        <path class="st0" d="M366.74,509.4l-158.96-19.52"/>
        <path class="st0" d="M207.78,489.88l19.52-158.96"/>
        <path class="st0" d="M227.3,330.91l163.18,20.04"/>
        <path class="st0" d="M390.48,350.95l-20.04,163.18"/>
        <path class="st0" d="M370.45,514.13l-167.4-20.55"/>
        <path class="st0" d="M203.04,493.58l20.55-167.4"/>
        <path class="st0" d="M223.6,326.18l171.62,21.07"/>
        <path class="st0" d="M395.22,347.25l-21.07,171.62"/>
        <path class="st0" d="M374.15,518.87l-175.84-21.59"/>
        <path class="st0" d="M198.3,497.28l21.59-175.84"/>
        <path class="st0" d="M219.89,321.44l180.07,22.11"/>
        <path class="st0" d="M399.96,343.55l-22.11,180.07"/>
        <path class="st0" d="M377.85,523.61l-184.29-22.63"/>
        <path class="st0" d="M193.56,500.98l22.63-184.29"/>
        <path class="st0" d="M216.19,316.7l188.51,23.15"/>
        <path class="st0" d="M404.7,339.84l-23.15,188.51"/>
        <path class="st0" d="M381.55,528.35l-192.73-23.66"/>
        <path class="st0" d="M188.83,504.69l23.66-192.73"/>
        <path class="st0" d="M212.49,311.96l196.95,24.18"/>
        <path class="st0" d="M409.44,336.14l-24.18,196.95"/>
        <path class="st0" d="M385.25,533.09l-201.17-24.7"/>
        <path class="st0" d="M184.09,508.39l24.7-201.17"/>
        <path class="st0" d="M208.79,307.22l205.39,25.22"/>
        <path class="st0" d="M414.17,332.44l-25.22,205.39"/>
        <path class="st0" d="M388.96,537.83l-209.61-25.74"/>
        <path class="st0" d="M179.35,512.09l25.74-209.61"/>
        <path class="st0" d="M205.09,302.48l213.83,26.25"/>
        <path class="st0" d="M418.91,328.74l-26.25,213.83"/>
        <path class="st0" d="M392.66,542.57l-218.05-26.77"/>
        <path class="st0" d="M174.61,515.79l26.77-218.05"/>
        <path class="st0" d="M201.38,297.74l222.27,27.29"/>
        <path class="st0" d="M423.65,325.04l-27.29,222.27"/>
        <path class="st0" d="M396.36,547.3l-226.49-27.81"/>
        <path class="st0" d="M169.87,519.49l27.81-226.49"/>
        <path class="st0" d="M197.68,293.01l230.71,28.33"/>
        <path class="st0" d="M428.39,321.33l-28.33,230.71"/>
        <path class="st0" d="M400.06,552.04l-234.93-28.85"/>
        <path class="st0" d="M165.13,523.2l28.85-234.93"/>
        <path class="st0" d="M193.98,288.27l239.15,29.36"/>
        <path class="st0" d="M433.13,317.63l-29.36,239.15"/>
        <path class="st0" d="M403.76,556.78l-243.37-29.88"/>
        <path class="st0" d="M160.4,526.9l29.88-243.37"/>
        <path class="st0" d="M190.28,283.53l247.59,30.4"/>
        <path class="st0" d="M437.87,313.93l-30.4,247.59"/>
        <path class="st0" d="M407.47,561.52l-251.81-30.92"/>
        <path class="st0" d="M155.66,530.6l30.92-251.81"/>
        <path class="st0" d="M186.58,278.79l256.03,31.44"/>
        <path class="st0" d="M442.61,310.23l-31.44,256.03"/>
        <path class="st0" d="M411.17,566.26l-260.25-31.95"/>
        <path class="st0" d="M150.92,534.3l31.95-260.25"/>
        <path class="st0" d="M182.87,274.05l264.47,32.47"/>
        <path class="st0" d="M447.34,306.53l-32.47,264.47"/>
        <path class="st0" d="M414.87,571l-268.69-32.99"/>
        <path class="st0" d="M146.18,538.01l32.99-268.69"/>
        <path class="st0" d="M179.17,269.31l272.91,33.51"/>
        <path class="st0" d="M452.08,302.82l-33.51,272.91"/>
        <path class="st0" d="M418.57,575.73l-277.13-34.03"/>
        <path class="st0" d="M141.44,541.71l34.03-277.13"/>
        <path class="st0" d="M175.47,264.58l281.35,34.55"/>
        <path class="st0" d="M456.82,299.12l-34.55,281.35"/>
        <path class="st0" d="M422.27,580.47l-285.57-35.06"/>
        <path class="st0" d="M136.7,545.41l35.06-285.57"/>
        <path class="st0" d="M171.77,259.84l289.79,35.58"/>
        <path class="st0" d="M461.56,295.42l-35.58,289.79"/>
        <path class="st0" d="M425.98,585.21l-294.01-36.1"/>
        <path class="st0" d="M131.96,549.11l36.1-294.01"/>
        <path class="st0" d="M168.06,255.1l298.23,36.62"/>
        <path class="st0" d="M466.3,291.72l-36.62,298.23"/>
        <path class="st0" d="M429.68,589.95l-302.45-37.14"/>
        <path class="st0" d="M127.23,552.81l37.14-302.45"/>
        <path class="st0" d="M164.36,250.36l306.67,37.65"/>
        <path class="st0" d="M471.04,288.02l-37.65,306.67"/>
        <path class="st0" d="M433.38,594.69l-310.89-38.17"/>
        <path class="st0" d="M122.49,556.52l38.17-310.89"/>
        <path class="st0" d="M160.66,245.62l315.11,38.69"/>
        <path class="st0" d="M475.77,284.31l-38.69,315.11"/>
        <path class="st0" d="M437.08,599.43l-319.33-39.21"/>
        <path class="st0" d="M117.75,560.22l39.21-319.33"/>
        <path class="st0" d="M156.96,240.88l323.55,39.73"/>
        <path class="st0" d="M480.51,280.61l-39.73,323.55"/>
        <path class="st0" d="M440.79,604.17l-327.77-40.25"/>
      </g>
    </g>
  </g>
  <line class="st0" x1="113.01" y1="563.92" x2="122.6" y2="520.74"/>
  <line class="st0" x1="131.81" y1="585.35" x2="136.06" y2="538.44"/>
</svg>