<?xml version="1.0" encoding="utf-8" standalone="no"?>
<!DOCTYPE svg PUBLIC "-//W3C//DTD SVG 1.1//EN"
  "http://www.w3.org/Graphics/SVG/1.1/DTD/svg11.dtd">
<svg xmlns:xlink="http://www.w3.org/1999/xlink" width="457.92pt" height="457.92pt" viewBox="0 0 457.92 457.92" xmlns="http://www.w3.org/2000/svg" version="1.1">
 <metadata>
  <rdf:RDF xmlns:dc="http://purl.org/dc/elements/1.1/" xmlns:cc="http://creativecommons.org/ns#" xmlns:rdf="http://www.w3.org/1999/02/22-rdf-syntax-ns#">
   <cc:Work>
    <dc:type rdf:resource="http://purl.org/dc/dcmitype/StillImage"/>
    <dc:date>2025-10-10T10:25:54.597251</dc:date>
    <dc:format>image/svg+xml</dc:format>
    <dc:creator>
     <cc:Agent>
      <dc:title>Matplotlib v3.10.6, https://matplotlib.org/</dc:title>
     </cc:Agent>
    </dc:creator>
   </cc:Work>
  </rdf:RDF>
 </metadata>
 <defs>
  <style type="text/css">*{stroke-linejoin: round; stroke-linecap: butt}</style>
 </defs>
 <g id="figure_1">
  <g id="patch_1">
   <path d="M 0 457.92 
L 457.92 457.92 
L 457.92 0 
L 0 0 
z
" style="fill: #ffffff"/>
  </g>
  <g id="axes_1">
   <g id="matplotlib.axis_1"/>
   <g id="matplotlib.axis_2"/>
   <g id="line2d_1">
    <path d="M 7.2 450.72 
L 155.04 450.72 
L 155.04 302.88 
L 7.2 302.88 
L 7.2 155.04 
L 7.2 7.2 
L 155.04 7.2 
L 155.04 155.04 
L 302.88 155.04 
L 302.88 7.2 
L 450.72 7.2 
L 450.72 155.04 
L 450.72 302.88 
L 302.88 302.88 
L 302.88 450.72 
L 450.72 450.72 
" clip-path="url(#p6573729286)" style="fill: none; stroke: #1f77b4; stroke-width: 3; stroke-linecap: round"/>
   </g>
   <g id="line2d_2">
    <path d="M 7.2 450.72 
L 7.2 387.36 
L 70.56 387.36 
L 70.56 450.72 
L 133.92 450.72 
L 197.28 450.72 
L 197.28 387.36 
L 133.92 387.36 
L 133.92 324 
L 197.28 324 
L 197.28 260.64 
L 133.92 260.64 
L 70.56 260.64 
L 70.56 324 
L 7.2 324 
L 7.2 260.64 
L 7.2 197.28 
L 70.56 197.28 
L 70.56 133.92 
L 7.2 133.92 
L 7.2 70.56 
L 7.2 7.2 
L 70.56 7.2 
L 70.56 70.56 
L 133.92 70.56 
L 133.92 7.2 
L 197.28 7.2 
L 197.28 70.56 
L 197.28 133.92 
L 133.92 133.92 
L 133.92 197.28 
L 197.28 197.28 
L 260.64 197.28 
L 324 197.28 
L 324 133.92 
L 260.64 133.92 
L 260.64 70.56 
L 260.64 7.2 
L 324 7.2 
L 324 70.56 
L 387.36 70.56 
L 387.36 7.2 
L 450.72 7.2 
L 450.72 70.56 
L 450.72 133.92 
L 387.36 133.92 
L 387.36 197.28 
L 450.72 197.28 
L 450.72 260.64 
L 450.72 324 
L 387.36 324 
L 387.36 260.64 
L 324 260.64 
L 260.64 260.64 
L 260.64 324 
L 324 324 
L 324 387.36 
L 260.64 387.36 
L 260.64 450.72 
L 324 450.72 
L 387.36 450.72 
L 387.36 387.36 
L 450.72 387.36 
L 450.72 450.72 
" clip-path="url(#p6573729286)" style="fill: none; stroke: #ff7f0e; stroke-width: 2.2; stroke-linecap: round"/>
   </g>
   <g id="line2d_3">
    <path d="M 7.2 450.72 
L 36.768 450.72 
L 36.768 421.152 
L 7.2 421.152 
L 7.2 362.016 
L 36.768 362.016 
L 36.768 391.584 
L 66.336 391.584 
L 66.336 362.016 
L 95.904 362.016 
L 95.904 421.152 
L 66.336 421.152 
L 66.336 450.72 
L 125.472 450.72 
L 125.472 421.152 
L 155.04 421.152 
L 155.04 450.72 
L 214.176 450.72 
L 214.176 421.152 
L 184.608 421.152 
L 184.608 391.584 
L 214.176 391.584 
L 214.176 362.016 
L 155.04 362.016 
L 155.04 391.584 
L 125.472 391.584 
L 125.472 302.88 
L 155.04 302.88 
L 155.04 332.448 
L 214.176 332.448 
L 214.176 302.88 
L 184.608 302.88 
L 184.608 273.312 
L 214.176 273.312 
L 214.176 243.744 
L 155.04 243.744 
L 155.04 273.312 
L 125.472 273.312 
L 125.472 243.744 
L 66.336 243.744 
L 66.336 273.312 
L 95.904 273.312 
L 95.904 332.448 
L 66.336 332.448 
L 66.336 302.88 
L 36.768 302.88 
L 36.768 332.448 
L 7.2 332.448 
L 7.2 273.312 
L 36.768 273.312 
L 36.768 243.744 
L 7.2 243.744 
L 7.2 184.608 
L 36.768 184.608 
L 36.768 214.176 
L 95.904 214.176 
L 95.904 184.608 
L 66.336 184.608 
L 66.336 155.04 
L 95.904 155.04 
L 95.904 125.472 
L 36.768 125.472 
L 36.768 155.04 
L 7.2 155.04 
L 7.2 95.904 
L 36.768 95.904 
L 36.768 66.336 
L 7.2 66.336 
L 7.2 7.2 
L 36.768 7.2 
L 36.768 36.768 
L 66.336 36.768 
L 66.336 7.2 
L 95.904 7.2 
L 95.904 66.336 
L 66.336 66.336 
L 66.336 95.904 
L 155.04 95.904 
L 155.04 66.336 
L 125.472 66.336 
L 125.472 7.2 
L 155.04 7.2 
L 155.04 36.768 
L 184.608 36.768 
L 184.608 7.2 
L 214.176 7.2 
L 214.176 66.336 
L 184.608 66.336 
L 184.608 95.904 
L 214.176 95.904 
L 214.176 155.04 
L 184.608 155.04 
L 184.608 125.472 
L 125.472 125.472 
L 125.472 155.04 
L 155.04 155.04 
L 155.04 184.608 
L 125.472 184.608 
L 125.472 214.176 
L 184.608 214.176 
L 184.608 184.608 
L 214.176 184.608 
L 214.176 214.176 
L 243.744 214.176 
L 243.744 184.608 
L 273.312 184.608 
L 273.312 214.176 
L 332.448 214.176 
L 332.448 184.608 
L 302.88 184.608 
L 302.88 155.04 
L 332.448 155.04 
L 332.448 125.472 
L 273.312 125.472 
L 273.312 155.04 
L 243.744 155.04 
L 243.744 95.904 
L 273.312 95.904 
L 273.312 66.336 
L 243.744 66.336 
L 243.744 7.2 
L 273.312 7.2 
L 273.312 36.768 
L 302.88 36.768 
L 302.88 7.2 
L 332.448 7.2 
L 332.448 66.336 
L 302.88 66.336 
L 302.88 95.904 
L 391.584 95.904 
L 391.584 66.336 
L 362.016 66.336 
L 362.016 7.2 
L 391.584 7.2 
L 391.584 36.768 
L 421.152 36.768 
L 421.152 7.2 
L 450.72 7.2 
L 450.72 66.336 
L 421.152 66.336 
L 421.152 95.904 
L 450.72 95.904 
L 450.72 155.04 
L 421.152 155.04 
L 421.152 125.472 
L 362.016 125.472 
L 362.016 155.04 
L 391.584 155.04 
L 391.584 184.608 
L 362.016 184.608 
L 362.016 214.176 
L 421.152 214.176 
L 421.152 184.608 
L 450.72 184.608 
L 450.72 243.744 
L 421.152 243.744 
L 421.152 273.312 
L 450.72 273.312 
L 450.72 332.448 
L 421.152 332.448 
L 421.152 302.88 
L 391.584 302.88 
L 391.584 332.448 
L 362.016 332.448 
L 362.016 273.312 
L 391.584 273.312 
L 391.584 243.744 
L 332.448 243.744 
L 332.448 273.312 
L 302.88 273.312 
L 302.88 243.744 
L 243.744 243.744 
L 243.744 273.312 
L 273.312 273.312 
L 273.312 302.88 
L 243.744 302.88 
L 243.744 332.448 
L 302.88 332.448 
L 302.88 302.88 
L 332.448 302.88 
L 332.448 391.584 
L 302.88 391.584 
L 302.88 362.016 
L 243.744 362.016 
L 243.744 391.584 
L 273.312 391.584 
L 273.312 421.152 
L 243.744 421.152 
L 243.744 450.72 
L 302.88 450.72 
L 302.88 421.152 
L 332.448 421.152 
L 332.448 450.72 
L 391.584 450.72 
L 391.584 421.152 
L 362.016 421.152 
L 362.016 362.016 
L 391.584 362.016 
L 391.584 391.584 
L 421.152 391.584 
L 421.152 362.016 
L 450.72 362.016 
L 450.72 421.152 
L 421.152 421.152 
L 421.152 450.72 
L 450.72 450.72 
L 450.72 450.72 
" clip-path="url(#p6573729286)" style="fill: none; stroke: #2ca02c; stroke-width: 1.6; stroke-linecap: round"/>
   </g>
   <g id="line2d_4">
    <path d="M 7.2 450.72 
L 7.2 436.412903 
L 21.507097 436.412903 
L 21.507097 450.72 
L 50.12129 450.72 
L 50.12129 436.412903 
L 35.814194 436.412903 
L 35.814194 422.105806 
L 50.12129 422.105806 
L 50.12129 407.79871 
L 21.507097 407.79871 
L 21.507097 422.105806 
L 7.2 422.105806 
L 7.2 393.491613 
L 21.507097 393.491613 
L 21.507097 379.184516 
L 7.2 379.184516 
L 7.2 350.570323 
L 21.507097 350.570323 
L 21.507097 364.877419 
L 35.814194 364.877419 
L 35.814194 350.570323 
L 50.12129 350.570323 
L 50.12129 379.184516 
L 35.814194 379.184516 
L 35.814194 393.491613 
L 78.735484 393.491613 
L 78.735484 379.184516 
L 64.428387 379.184516 
L 64.428387 350.570323 
L 78.735484 350.570323 
L 78.735484 364.877419 
L 93.042581 364.877419 
L 93.042581 350.570323 
L 107.349677 350.570323 
L 107.349677 379.184516 
L 93.042581 379.184516 
L 93.042581 393.491613 
L 107.349677 393.491613 
L 107.349677 422.105806 
L 93.042581 422.105806 
L 93.042581 407.79871 
L 64.428387 407.79871 
L 64.428387 422.105806 
L 78.735484 422.105806 
L 78.735484 436.412903 
L 64.428387 436.412903 
L 64.428387 450.72 
L 93.042581 450.72 
L 93.042581 436.412903 
L 107.349677 436.412903 
L 107.349677 450.72 
L 135.963871 450.72 
L 135.963871 436.412903 
L 121.656774 436.412903 
L 121.656774 407.79871 
L 135.963871 407.79871 
L 135.963871 422.105806 
L 150.270968 422.105806 
L 150.270968 407.79871 
L 164.578065 407.79871 
L 164.578065 436.412903 
L 150.270968 436.412903 
L 150.270968 450.72 
L 178.885161 450.72 
L 178.885161 436.412903 
L 193.192258 436.412903 
L 193.192258 450.72 
L 221.806452 450.72 
L 221.806452 436.412903 
L 207.499355 436.412903 
L 207.499355 422.105806 
L 221.806452 422.105806 
L 221.806452 407.79871 
L 193.192258 407.79871 
L 193.192258 422.105806 
L 178.885161 422.105806 
L 178.885161 379.184516 
L 193.192258 379.184516 
L 193.192258 393.491613 
L 221.806452 393.491613 
L 221.806452 379.184516 
L 207.499355 379.184516 
L 207.499355 364.877419 
L 221.806452 364.877419 
L 221.806452 350.570323 
L 193.192258 350.570323 
L 193.192258 364.877419 
L 178.885161 364.877419 
L 178.885161 350.570323 
L 150.270968 350.570323 
L 150.270968 364.877419 
L 164.578065 364.877419 
L 164.578065 393.491613 
L 150.270968 393.491613 
L 150.270968 379.184516 
L 135.963871 379.184516 
L 135.963871 393.491613 
L 121.656774 393.491613 
L 121.656774 364.877419 
L 135.963871 364.877419 
L 135.963871 350.570323 
L 121.656774 350.570323 
L 121.656774 336.263226 
L 135.963871 336.263226 
L 135.963871 321.956129 
L 121.656774 321.956129 
L 121.656774 293.341935 
L 135.963871 293.341935 
L 135.963871 307.649032 
L 150.270968 307.649032 
L 150.270968 293.341935 
L 164.578065 293.341935 
L 164.578065 321.956129 
L 150.270968 321.956129 
L 150.270968 336.263226 
L 178.885161 336.263226 
L 178.885161 321.956129 
L 193.192258 321.956129 
L 193.192258 336.263226 
L 221.806452 336.263226 
L 221.806452 321.956129 
L 207.499355 321.956129 
L 207.499355 307.649032 
L 221.806452 307.649032 
L 221.806452 293.341935 
L 193.192258 293.341935 
L 193.192258 307.649032 
L 178.885161 307.649032 
L 178.885161 264.727742 
L 193.192258 264.727742 
L 193.192258 279.034839 
L 221.806452 279.034839 
L 221.806452 264.727742 
L 207.499355 264.727742 
L 207.499355 250.420645 
L 221.806452 250.420645 
L 221.806452 236.113548 
L 193.192258 236.113548 
L 193.192258 250.420645 
L 178.885161 250.420645 
L 178.885161 236.113548 
L 150.270968 236.113548 
L 150.270968 250.420645 
L 164.578065 250.420645 
L 164.578065 279.034839 
L 150.270968 279.034839 
L 150.270968 264.727742 
L 135.963871 264.727742 
L 135.963871 279.034839 
L 121.656774 279.034839 
L 121.656774 250.420645 
L 135.963871 250.420645 
L 135.963871 236.113548 
L 107.349677 236.113548 
L 107.349677 250.420645 
L 93.042581 250.420645 
L 93.042581 236.113548 
L 64.428387 236.113548 
L 64.428387 250.420645 
L 78.735484 250.420645 
L 78.735484 264.727742 
L 64.428387 264.727742 
L 64.428387 279.034839 
L 93.042581 279.034839 
L 93.042581 264.727742 
L 107.349677 264.727742 
L 107.349677 293.341935 
L 93.042581 293.341935 
L 93.042581 307.649032 
L 107.349677 307.649032 
L 107.349677 336.263226 
L 93.042581 336.263226 
L 93.042581 321.956129 
L 78.735484 321.956129 
L 78.735484 336.263226 
L 64.428387 336.263226 
L 64.428387 307.649032 
L 78.735484 307.649032 
L 78.735484 293.341935 
L 35.814194 293.341935 
L 35.814194 307.649032 
L 50.12129 307.649032 
L 50.12129 336.263226 
L 35.814194 336.263226 
L 35.814194 321.956129 
L 21.507097 321.956129 
L 21.507097 336.263226 
L 7.2 336.263226 
L 7.2 307.649032 
L 21.507097 307.649032 
L 21.507097 293.341935 
L 7.2 293.341935 
L 7.2 264.727742 
L 21.507097 264.727742 
L 21.507097 279.034839 
L 50.12129 279.034839 
L 50.12129 264.727742 
L 35.814194 264.727742 
L 35.814194 250.420645 
L 50.12129 250.420645 
L 50.12129 236.113548 
L 21.507097 236.113548 
L 21.507097 250.420645 
L 7.2 250.420645 
L 7.2 221.806452 
L 21.507097 221.806452 
L 21.507097 207.499355 
L 7.2 207.499355 
L 7.2 178.885161 
L 21.507097 178.885161 
L 21.507097 193.192258 
L 35.814194 193.192258 
L 35.814194 178.885161 
L 50.12129 178.885161 
L 50.12129 207.499355 
L 35.814194 207.499355 
L 35.814194 221.806452 
L 64.428387 221.806452 
L 64.428387 207.499355 
L 78.735484 207.499355 
L 78.735484 221.806452 
L 107.349677 221.806452 
L 107.349677 207.499355 
L 93.042581 207.499355 
L 93.042581 193.192258 
L 107.349677 193.192258 
L 107.349677 178.885161 
L 78.735484 178.885161 
L 78.735484 193.192258 
L 64.428387 193.192258 
L 64.428387 150.270968 
L 78.735484 150.270968 
L 78.735484 164.578065 
L 107.349677 164.578065 
L 107.349677 150.270968 
L 93.042581 150.270968 
L 93.042581 135.963871 
L 107.349677 135.963871 
L 107.349677 121.656774 
L 78.735484 121.656774 
L 78.735484 135.963871 
L 64.428387 135.963871 
L 64.428387 121.656774 
L 35.814194 121.656774 
L 35.814194 135.963871 
L 50.12129 135.963871 
L 50.12129 164.578065 
L 35.814194 164.578065 
L 35.814194 150.270968 
L 21.507097 150.270968 
L 21.507097 164.578065 
L 7.2 164.578065 
L 7.2 135.963871 
L 21.507097 135.963871 
L 21.507097 121.656774 
L 7.2 121.656774 
L 7.2 93.042581 
L 21.507097 93.042581 
L 21.507097 107.349677 
L 50.12129 107.349677 
L 50.12129 93.042581 
L 35.814194 93.042581 
L 35.814194 78.735484 
L 50.12129 78.735484 
L 50.12129 64.428387 
L 21.507097 64.428387 
L 21.507097 78.735484 
L 7.2 78.735484 
L 7.2 50.12129 
L 21.507097 50.12129 
L 21.507097 35.814194 
L 7.2 35.814194 
L 7.2 7.2 
L 21.507097 7.2 
L 21.507097 21.507097 
L 35.814194 21.507097 
L 35.814194 7.2 
L 50.12129 7.2 
L 50.12129 35.814194 
L 35.814194 35.814194 
L 35.814194 50.12129 
L 78.735484 50.12129 
L 78.735484 35.814194 
L 64.428387 35.814194 
L 64.428387 7.2 
L 78.735484 7.2 
L 78.735484 21.507097 
L 93.042581 21.507097 
L 93.042581 7.2 
L 107.349677 7.2 
L 107.349677 35.814194 
L 93.042581 35.814194 
L 93.042581 50.12129 
L 107.349677 50.12129 
L 107.349677 78.735484 
L 93.042581 78.735484 
L 93.042581 64.428387 
L 64.428387 64.428387 
L 64.428387 78.735484 
L 78.735484 78.735484 
L 78.735484 93.042581 
L 64.428387 93.042581 
L 64.428387 107.349677 
L 93.042581 107.349677 
L 93.042581 93.042581 
L 107.349677 93.042581 
L 107.349677 107.349677 
L 121.656774 107.349677 
L 121.656774 93.042581 
L 135.963871 93.042581 
L 135.963871 107.349677 
L 164.578065 107.349677 
L 164.578065 93.042581 
L 150.270968 93.042581 
L 150.270968 78.735484 
L 164.578065 78.735484 
L 164.578065 64.428387 
L 135.963871 64.428387 
L 135.963871 78.735484 
L 121.656774 78.735484 
L 121.656774 50.12129 
L 135.963871 50.12129 
L 135.963871 35.814194 
L 121.656774 35.814194 
L 121.656774 7.2 
L 135.963871 7.2 
L 135.963871 21.507097 
L 150.270968 21.507097 
L 150.270968 7.2 
L 164.578065 7.2 
L 164.578065 35.814194 
L 150.270968 35.814194 
L 150.270968 50.12129 
L 193.192258 50.12129 
L 193.192258 35.814194 
L 178.885161 35.814194 
L 178.885161 7.2 
L 193.192258 7.2 
L 193.192258 21.507097 
L 207.499355 21.507097 
L 207.499355 7.2 
L 221.806452 7.2 
L 221.806452 35.814194 
L 207.499355 35.814194 
L 207.499355 50.12129 
L 221.806452 50.12129 
L 221.806452 78.735484 
L 207.499355 78.735484 
L 207.499355 64.428387 
L 178.885161 64.428387 
L 178.885161 78.735484 
L 193.192258 78.735484 
L 193.192258 93.042581 
L 178.885161 93.042581 
L 178.885161 107.349677 
L 207.499355 107.349677 
L 207.499355 93.042581 
L 221.806452 93.042581 
L 221.806452 121.656774 
L 207.499355 121.656774 
L 207.499355 135.963871 
L 221.806452 135.963871 
L 221.806452 164.578065 
L 207.499355 164.578065 
L 207.499355 150.270968 
L 193.192258 150.270968 
L 193.192258 164.578065 
L 178.885161 164.578065 
L 178.885161 135.963871 
L 193.192258 135.963871 
L 193.192258 121.656774 
L 164.578065 121.656774 
L 164.578065 135.963871 
L 150.270968 135.963871 
L 150.270968 121.656774 
L 121.656774 121.656774 
L 121.656774 135.963871 
L 135.963871 135.963871 
L 135.963871 150.270968 
L 121.656774 150.270968 
L 121.656774 164.578065 
L 150.270968 164.578065 
L 150.270968 150.270968 
L 164.578065 150.270968 
L 164.578065 193.192258 
L 150.270968 193.192258 
L 150.270968 178.885161 
L 121.656774 178.885161 
L 121.656774 193.192258 
L 135.963871 193.192258 
L 135.963871 207.499355 
L 121.656774 207.499355 
L 121.656774 221.806452 
L 150.270968 221.806452 
L 150.270968 207.499355 
L 164.578065 207.499355 
L 164.578065 221.806452 
L 193.192258 221.806452 
L 193.192258 207.499355 
L 178.885161 207.499355 
L 178.885161 178.885161 
L 193.192258 178.885161 
L 193.192258 193.192258 
L 207.499355 193.192258 
L 207.499355 178.885161 
L 221.806452 178.885161 
L 221.806452 207.499355 
L 207.499355 207.499355 
L 207.499355 221.806452 
L 250.420645 221.806452 
L 250.420645 207.499355 
L 236.113548 207.499355 
L 236.113548 178.885161 
L 250.420645 178.885161 
L 250.420645 193.192258 
L 264.727742 193.192258 
L 264.727742 178.885161 
L 279.034839 178.885161 
L 279.034839 207.499355 
L 264.727742 207.499355 
L 264.727742 221.806452 
L 293.341935 221.806452 
L 293.341935 207.499355 
L 307.649032 207.499355 
L 307.649032 221.806452 
L 336.263226 221.806452 
L 336.263226 207.499355 
L 321.956129 207.499355 
L 321.956129 193.192258 
L 336.263226 193.192258 
L 336.263226 178.885161 
L 307.649032 178.885161 
L 307.649032 193.192258 
L 293.341935 193.192258 
L 293.341935 150.270968 
L 307.649032 150.270968 
L 307.649032 164.578065 
L 336.263226 164.578065 
L 336.263226 150.270968 
L 321.956129 150.270968 
L 321.956129 135.963871 
L 336.263226 135.963871 
L 336.263226 121.656774 
L 307.649032 121.656774 
L 307.649032 135.963871 
L 293.341935 135.963871 
L 293.341935 121.656774 
L 264.727742 121.656774 
L 264.727742 135.963871 
L 279.034839 135.963871 
L 279.034839 164.578065 
L 264.727742 164.578065 
L 264.727742 150.270968 
L 250.420645 150.270968 
L 250.420645 164.578065 
L 236.113548 164.578065 
L 236.113548 135.963871 
L 250.420645 135.963871 
L 250.420645 121.656774 
L 236.113548 121.656774 
L 236.113548 93.042581 
L 250.420645 93.042581 
L 250.420645 107.349677 
L 279.034839 107.349677 
L 279.034839 93.042581 
L 264.727742 93.042581 
L 264.727742 78.735484 
L 279.034839 78.735484 
L 279.034839 64.428387 
L 250.420645 64.428387 
L 250.420645 78.735484 
L 236.113548 78.735484 
L 236.113548 50.12129 
L 250.420645 50.12129 
L 250.420645 35.814194 
L 236.113548 35.814194 
L 236.113548 7.2 
L 250.420645 7.2 
L 250.420645 21.507097 
L 264.727742 21.507097 
L 264.727742 7.2 
L 279.034839 7.2 
L 279.034839 35.814194 
L 264.727742 35.814194 
L 264.727742 50.12129 
L 307.649032 50.12129 
L 307.649032 35.814194 
L 293.341935 35.814194 
L 293.341935 7.2 
L 307.649032 7.2 
L 307.649032 21.507097 
L 321.956129 21.507097 
L 321.956129 7.2 
L 336.263226 7.2 
L 336.263226 35.814194 
L 321.956129 35.814194 
L 321.956129 50.12129 
L 336.263226 50.12129 
L 336.263226 78.735484 
L 321.956129 78.735484 
L 321.956129 64.428387 
L 293.341935 64.428387 
L 293.341935 78.735484 
L 307.649032 78.735484 
L 307.649032 93.042581 
L 293.341935 93.042581 
L 293.341935 107.349677 
L 321.956129 107.349677 
L 321.956129 93.042581 
L 336.263226 93.042581 
L 336.263226 107.349677 
L 350.570323 107.349677 
L 350.570323 93.042581 
L 364.877419 93.042581 
L 364.877419 107.349677 
L 393.491613 107.349677 
L 393.491613 93.042581 
L 379.184516 93.042581 
L 379.184516 78.735484 
L 393.491613 78.735484 
L 393.491613 64.428387 
L 364.877419 64.428387 
L 364.877419 78.735484 
L 350.570323 78.735484 
L 350.570323 50.12129 
L 364.877419 50.12129 
L 364.877419 35.814194 
L 350.570323 35.814194 
L 350.570323 7.2 
L 364.877419 7.2 
L 364.877419 21.507097 
L 379.184516 21.507097 
L 379.184516 7.2 
L 393.491613 7.2 
L 393.491613 35.814194 
L 379.184516 35.814194 
L 379.184516 50.12129 
L 422.105806 50.12129 
L 422.105806 35.814194 
L 407.79871 35.814194 
L 407.79871 7.2 
L 422.105806 7.2 
L 422.105806 21.507097 
L 436.412903 21.507097 
L 436.412903 7.2 
L 450.72 7.2 
L 450.72 35.814194 
L 436.412903 35.814194 
L 436.412903 50.12129 
L 450.72 50.12129 
L 450.72 78.735484 
L 436.412903 78.735484 
L 436.412903 64.428387 
L 407.79871 64.428387 
L 407.79871 78.735484 
L 422.105806 78.735484 
L 422.105806 93.042581 
L 407.79871 93.042581 
L 407.79871 107.349677 
L 436.412903 107.349677 
L 436.412903 93.042581 
L 450.72 93.042581 
L 450.72 121.656774 
L 436.412903 121.656774 
L 436.412903 135.963871 
L 450.72 135.963871 
L 450.72 164.578065 
L 436.412903 164.578065 
L 436.412903 150.270968 
L 422.105806 150.270968 
L 422.105806 164.578065 
L 407.79871 164.578065 
L 407.79871 135.963871 
L 422.105806 135.963871 
L 422.105806 121.656774 
L 393.491613 121.656774 
L 393.491613 135.963871 
L 379.184516 135.963871 
L 379.184516 121.656774 
L 350.570323 121.656774 
L 350.570323 135.963871 
L 364.877419 135.963871 
L 364.877419 150.270968 
L 350.570323 150.270968 
L 350.570323 164.578065 
L 379.184516 164.578065 
L 379.184516 150.270968 
L 393.491613 150.270968 
L 393.491613 193.192258 
L 379.184516 193.192258 
L 379.184516 178.885161 
L 350.570323 178.885161 
L 350.570323 193.192258 
L 364.877419 193.192258 
L 364.877419 207.499355 
L 350.570323 207.499355 
L 350.570323 221.806452 
L 379.184516 221.806452 
L 379.184516 207.499355 
L 393.491613 207.499355 
L 393.491613 221.806452 
L 422.105806 221.806452 
L 422.105806 207.499355 
L 407.79871 207.499355 
L 407.79871 178.885161 
L 422.105806 178.885161 
L 422.105806 193.192258 
L 436.412903 193.192258 
L 436.412903 178.885161 
L 450.72 178.885161 
L 450.72 207.499355 
L 436.412903 207.499355 
L 436.412903 221.806452 
L 450.72 221.806452 
L 450.72 250.420645 
L 436.412903 250.420645 
L 436.412903 236.113548 
L 407.79871 236.113548 
L 407.79871 250.420645 
L 422.105806 250.420645 
L 422.105806 264.727742 
L 407.79871 264.727742 
L 407.79871 279.034839 
L 436.412903 279.034839 
L 436.412903 264.727742 
L 450.72 264.727742 
L 450.72 293.341935 
L 436.412903 293.341935 
L 436.412903 307.649032 
L 450.72 307.649032 
L 450.72 336.263226 
L 436.412903 336.263226 
L 436.412903 321.956129 
L 422.105806 321.956129 
L 422.105806 336.263226 
L 407.79871 336.263226 
L 407.79871 307.649032 
L 422.105806 307.649032 
L 422.105806 293.341935 
L 379.184516 293.341935 
L 379.184516 307.649032 
L 393.491613 307.649032 
L 393.491613 336.263226 
L 379.184516 336.263226 
L 379.184516 321.956129 
L 364.877419 321.956129 
L 364.877419 336.263226 
L 350.570323 336.263226 
L 350.570323 307.649032 
L 364.877419 307.649032 
L 364.877419 293.341935 
L 350.570323 293.341935 
L 350.570323 264.727742 
L 364.877419 264.727742 
L 364.877419 279.034839 
L 393.491613 279.034839 
L 393.491613 264.727742 
L 379.184516 264.727742 
L 379.184516 250.420645 
L 393.491613 250.420645 
L 393.491613 236.113548 
L 364.877419 236.113548 
L 364.877419 250.420645 
L 350.570323 250.420645 
L 350.570323 236.113548 
L 321.956129 236.113548 
L 321.956129 250.420645 
L 336.263226 250.420645 
L 336.263226 279.034839 
L 321.956129 279.034839 
L 321.956129 264.727742 
L 307.649032 264.727742 
L 307.649032 279.034839 
L 293.341935 279.034839 
L 293.341935 250.420645 
L 307.649032 250.420645 
L 307.649032 236.113548 
L 279.034839 236.113548 
L 279.034839 250.420645 
L 264.727742 250.420645 
L 264.727742 236.113548 
L 236.113548 236.113548 
L 236.113548 250.420645 
L 250.420645 250.420645 
L 250.420645 264.727742 
L 236.113548 264.727742 
L 236.113548 279.034839 
L 264.727742 279.034839 
L 264.727742 264.727742 
L 279.034839 264.727742 
L 279.034839 307.649032 
L 264.727742 307.649032 
L 264.727742 293.341935 
L 236.113548 293.341935 
L 236.113548 307.649032 
L 250.420645 307.649032 
L 250.420645 321.956129 
L 236.113548 321.956129 
L 236.113548 336.263226 
L 264.727742 336.263226 
L 264.727742 321.956129 
L 279.034839 321.956129 
L 279.034839 336.263226 
L 307.649032 336.263226 
L 307.649032 321.956129 
L 293.341935 321.956129 
L 293.341935 293.341935 
L 307.649032 293.341935 
L 307.649032 307.649032 
L 321.956129 307.649032 
L 321.956129 293.341935 
L 336.263226 293.341935 
L 336.263226 321.956129 
L 321.956129 321.956129 
L 321.956129 336.263226 
L 336.263226 336.263226 
L 336.263226 350.570323 
L 321.956129 350.570323 
L 321.956129 364.877419 
L 336.263226 364.877419 
L 336.263226 393.491613 
L 321.956129 393.491613 
L 321.956129 379.184516 
L 307.649032 379.184516 
L 307.649032 393.491613 
L 293.341935 393.491613 
L 293.341935 364.877419 
L 307.649032 364.877419 
L 307.649032 350.570323 
L 279.034839 350.570323 
L 279.034839 364.877419 
L 264.727742 364.877419 
L 264.727742 350.570323 
L 236.113548 350.570323 
L 236.113548 364.877419 
L 250.420645 364.877419 
L 250.420645 379.184516 
L 236.113548 379.184516 
L 236.113548 393.491613 
L 264.727742 393.491613 
L 264.727742 379.184516 
L 279.034839 379.184516 
L 279.034839 422.105806 
L 264.727742 422.105806 
L 264.727742 407.79871 
L 236.113548 407.79871 
L 236.113548 422.105806 
L 250.420645 422.105806 
L 250.420645 436.412903 
L 236.113548 436.412903 
L 236.113548 450.72 
L 264.727742 450.72 
L 264.727742 436.412903 
L 279.034839 436.412903 
L 279.034839 450.72 
L 307.649032 450.72 
L 307.649032 436.412903 
L 293.341935 436.412903 
L 293.341935 407.79871 
L 307.649032 407.79871 
L 307.649032 422.105806 
L 321.956129 422.105806 
L 321.956129 407.79871 
L 336.263226 407.79871 
L 336.263226 436.412903 
L 321.956129 436.412903 
L 321.956129 450.72 
L 350.570323 450.72 
L 350.570323 436.412903 
L 364.877419 436.412903 
L 364.877419 450.72 
L 393.491613 450.72 
L 393.491613 436.412903 
L 379.184516 436.412903 
L 379.184516 422.105806 
L 393.491613 422.105806 
L 393.491613 407.79871 
L 364.877419 407.79871 
L 364.877419 422.105806 
L 350.570323 422.105806 
L 350.570323 393.491613 
L 364.877419 393.491613 
L 364.877419 379.184516 
L 350.570323 379.184516 
L 350.570323 350.570323 
L 364.877419 350.570323 
L 364.877419 364.877419 
L 379.184516 364.877419 
L 379.184516 350.570323 
L 393.491613 350.570323 
L 393.491613 379.184516 
L 379.184516 379.184516 
L 379.184516 393.491613 
L 422.105806 393.491613 
L 422.105806 379.184516 
L 407.79871 379.184516 
L 407.79871 350.570323 
L 422.105806 350.570323 
L 422.105806 364.877419 
L 436.412903 364.877419 
L 436.412903 350.570323 
L 450.72 350.570323 
L 450.72 379.184516 
L 436.412903 379.184516 
L 436.412903 393.491613 
L 450.72 393.491613 
L 450.72 422.105806 
L 436.412903 422.105806 
L 436.412903 407.79871 
L 407.79871 407.79871 
L 407.79871 422.105806 
L 422.105806 422.105806 
L 422.105806 436.412903 
L 407.79871 436.412903 
L 407.79871 450.72 
L 436.412903 450.72 
L 436.412903 436.412903 
L 450.72 436.412903 
L 450.72 450.72 
L 450.72 450.72 
" clip-path="url(#p6573729286)" style="fill: none; stroke: #d62728; stroke-width: 1.2; stroke-linecap: round"/>
   </g>
  </g>
 </g>
 <defs>
  <clipPath id="p6573729286">
   <rect x="7.2" y="7.2" width="443.52" height="443.52"/>
  </clipPath>
 </defs>
</svg>
