<?xml version="1.0" encoding="utf-8" standalone="no"?>
<!DOCTYPE svg PUBLIC "-//W3C//DTD SVG 1.1//EN"
  "http://www.w3.org/Graphics/SVG/1.1/DTD/svg11.dtd">
<svg xmlns:xlink="http://www.w3.org/1999/xlink" width="457.92pt" height="457.92pt" viewBox="0 0 457.92 457.92" xmlns="http://www.w3.org/2000/svg" version="1.1">
 <metadata>
  <rdf:RDF xmlns:dc="http://purl.org/dc/elements/1.1/" xmlns:cc="http://creativecommons.org/ns#" xmlns:rdf="http://www.w3.org/1999/02/22-rdf-syntax-ns#">
   <cc:Work>
    <dc:type rdf:resource="http://purl.org/dc/dcmitype/StillImage"/>
    <dc:date>2025-10-11T17:45:16.248794</dc:date>
    <dc:format>image/svg+xml</dc:format>
    <dc:creator>
     <cc:Agent>
      <dc:title>Matplotlib v3.10.6, https://matplotlib.org/</dc:title>
     </cc:Agent>
    </dc:creator>
   </cc:Work>
  </rdf:RDF>
 </metadata>
 <defs>
  <style type="text/css">*{stroke-linejoin: round; stroke-linecap: butt}</style>
 </defs>
 <g id="figure_1">
  <g id="patch_1">
   <path d="M 0 457.92 
L 457.92 457.92 
L 457.92 0 
L 0 0 
z
" style="fill: #ffffff"/>
  </g>
  <g id="axes_1">
   <g id="matplotlib.axis_1"/>
   <g id="matplotlib.axis_2"/>
   <g id="line2d_1">
    <path d="M 7.2 450.72 
L 155.04 450.72 
L 155.04 302.88 
L 7.2 302.88 
L 7.2 155.04 
L 7.2 7.2 
L 155.04 7.2 
L 155.04 155.04 
L 302.88 155.04 
L 302.88 7.2 
L 450.72 7.2 
L 450.72 155.04 
L 450.72 302.88 
L 302.88 302.88 
L 302.88 450.72 
L 450.72 450.72 
" clip-path="url(#pdc40e3de2a)" style="fill: none; stroke: #1f77b4; stroke-width: 3; stroke-linecap: round"/>
   </g>
   <g id="line2d_2">
    <path d="M 7.2 450.72 
L 7.2 387.36 
L 70.56 387.36 
L 70.56 450.72 
L 133.92 450.72 
L 197.28 450.72 
L 197.28 387.36 
L 133.92 387.36 
L 133.92 324 
L 197.28 324 
L 197.28 260.64 
L 133.92 260.64 
L 70.56 260.64 
L 70.56 324 
L 7.2 324 
L 7.2 260.64 
L 7.2 197.28 
L 70.56 197.28 
L 70.56 133.92 
L 7.2 133.92 
L 7.2 70.56 
L 7.2 7.2 
L 70.56 7.2 
L 70.56 70.56 
L 133.92 70.56 
L 133.92 7.2 
L 197.28 7.2 
L 197.28 70.56 
L 197.28 133.92 
L 133.92 133.92 
L 133.92 197.28 
L 197.28 197.28 
L 260.64 197.28 
L 324 197.28 
L 324 133.92 
L 260.64 133.92 
L 260.64 70.56 
L 260.64 7.2 
L 324 7.2 
L 324 70.56 
L 387.36 70.56 
L 387.36 7.2 
L 450.72 7.2 
L 450.72 70.56 
L 450.72 133.92 
L 387.36 133.92 
L 387.36 197.28 
L 450.72 197.28 
L 450.72 260.64 
L 450.72 324 
L 387.36 324 
L 387.36 260.64 
L 324 260.64 
L 260.64 260.64 
L 260.64 324 
L 324 324 
L 324 387.36 
L 260.64 387.36 
L 260.64 450.72 
L 324 450.72 
L 387.36 450.72 
L 387.36 387.36 
L 450.72 387.36 
L 450.72 450.72 
" clip-path="url(#pdc40e3de2a)" style="fill: none; stroke: #ff7f0e; stroke-width: 2.2; stroke-linecap: round"/>
   </g>
   <g id="line2d_3">
    <path d="M 7.2 450.72 
L 36.768 450.72 
L 36.768 421.152 
L 7.2 421.152 
L 7.2 362.016 
L 36.768 362.016 
L 36.768 391.584 
L 66.336 391.584 
L 66.336 362.016 
L 95.904 362.016 
L 95.904 421.152 
L 66.336 421.152 
L 66.336 450.72 
L 125.472 450.72 
L 125.472 421.152 
L 155.04 421.152 
L 155.04 450.72 
L 214.176 450.72 
L 214.176 421.152 
L 184.608 421.152 
L 184.608 391.584 
L 214.176 391.584 
L 214.176 362.016 
L 155.04 362.016 
L 155.04 391.584 
L 125.472 391.584 
L 125.472 302.88 
L 155.04 302.88 
L 155.04 332.448 
L 214.176 332.448 
L 214.176 302.88 
L 184.608 302.88 
L 184.608 273.312 
L 214.176 273.312 
L 214.176 243.744 
L 155.04 243.744 
L 155.04 273.312 
L 125.472 273.312 
L 125.472 243.744 
L 66.336 243.744 
L 66.336 273.312 
L 95.904 273.312 
L 95.904 332.448 
L 66.336 332.448 
L 66.336 302.88 
L 36.768 302.88 
L 36.768 332.448 
L 7.2 332.448 
L 7.2 273.312 
L 36.768 273.312 
L 36.768 243.744 
L 7.2 243.744 
L 7.2 184.608 
L 36.768 184.608 
L 36.768 214.176 
L 95.904 214.176 
L 95.904 184.608 
L 66.336 184.608 
L 66.336 155.04 
L 95.904 155.04 
L 95.904 125.472 
L 36.768 125.472 
L 36.768 155.04 
L 7.2 155.04 
L 7.2 95.904 
L 36.768 95.904 
L 36.768 66.336 
L 7.2 66.336 
L 7.2 7.2 
L 36.768 7.2 
L 36.768 36.768 
L 66.336 36.768 
L 66.336 7.2 
L 95.904 7.2 
L 95.904 66.336 
L 66.336 66.336 
L 66.336 95.904 
L 155.04 95.904 
L 155.04 66.336 
L 125.472 66.336 
L 125.472 7.2 
L 155.04 7.2 
L 155.04 36.768 
L 184.608 36.768 
L 184.608 7.2 
L 214.176 7.2 
L 214.176 66.336 
L 184.608 66.336 
L 184.608 95.904 
L 214.176 95.904 
L 214.176 155.04 
L 184.608 155.04 
L 184.608 125.472 
L 125.472 125.472 
L 125.472 155.04 
L 155.04 155.04 
L 155.04 184.608 
L 125.472 184.608 
L 125.472 214.176 
L 184.608 214.176 
L 184.608 184.608 
L 214.176 184.608 
L 214.176 214.176 
L 243.744 214.176 
L 243.744 184.608 
L 273.312 184.608 
L 273.312 214.176 
L 332.448 214.176 
L 332.448 184.608 
L 302.88 184.608 
L 302.88 155.04 
L 332.448 155.04 
L 332.448 125.472 
L 273.312 125.472 
L 273.312 155.04 
L 243.744 155.04 
L 243.744 95.904 
L 273.312 95.904 
L 273.312 66.336 
L 243.744 66.336 
L 243.744 7.2 
L 273.312 7.2 
L 273.312 36.768 
L 302.88 36.768 
L 302.88 7.2 
L 332.448 7.2 
L 332.448 66.336 
L 302.88 66.336 
L 302.88 95.904 
L 391.584 95.904 
L 391.584 66.336 
L 362.016 66.336 
L 362.016 7.2 
L 391.584 7.2 
L 391.584 36.768 
L 421.152 36.768 
L 421.152 7.2 
L 450.72 7.2 
L 450.72 66.336 
L 421.152 66.336 
L 421.152 95.904 
L 450.72 95.904 
L 450.72 155.04 
L 421.152 155.04 
L 421.152 125.472 
L 362.016 125.472 
L 362.016 155.04 
L 391.584 155.04 
L 391.584 184.608 
L 362.016 184.608 
L 362.016 214.176 
L 421.152 214.176 
L 421.152 184.608 
L 450.72 184.608 
L 450.72 243.744 
L 421.152 243.744 
L 421.152 273.312 
L 450.72 273.312 
L 450.72 332.448 
L 421.152 332.448 
L 421.152 302.88 
L 391.584 302.88 
L 391.584 332.448 
L 362.016 332.448 
L 362.016 273.312 
L 391.584 273.312 
L 391.584 243.744 
L 332.448 243.744 
L 332.448 273.312 
L 302.88 273.312 
L 302.88 243.744 
L 243.744 243.744 
L 243.744 273.312 
L 273.312 273.312 
L 273.312 302.88 
L 243.744 302.88 
L 243.744 332.448 
L 302.88 332.448 
L 302.88 302.88 
L 332.448 302.88 
L 332.448 391.584 
L 302.88 391.584 
L 302.88 362.016 
L 243.744 362.016 
L 243.744 391.584 
L 273.312 391.584 
L 273.312 421.152 
L 243.744 421.152 
L 243.744 450.72 
L 302.88 450.72 
L 302.88 421.152 
L 332.448 421.152 
L 332.448 450.72 
L 391.584 450.72 
L 391.584 421.152 
L 362.016 421.152 
L 362.016 362.016 
L 391.584 362.016 
L 391.584 391.584 
L 421.152 391.584 
L 421.152 362.016 
L 450.72 362.016 
L 450.72 421.152 
L 421.152 421.152 
L 421.152 450.72 
L 450.72 450.72 
L 450.72 450.72 
" clip-path="url(#pdc40e3de2a)" style="fill: none; stroke: #2ca02c; stroke-width: 1.6; stroke-linecap: round"/>
   </g>
   <g id="line2d_4">
    <path d="M 7.2 450.72 
L 7.2 436.412903 
L 21.507097 436.412903 
L 21.507097 450.72 
L 50.12129 450.72 
L 50.12129 436.412903 
L 35.814194 436.412903 
L 35.814194 422.105806 
L 50.12129 422.105806 
L 50.12129 407.79871 
L 21.507097 407.79871 
L 21.507097 422.105806 
L 7.2 422.105806 
L 7.2 393.491613 
L 21.507097 393.491613 
L 21.507097 379.184516 
L 7.2 379.184516 
L 7.2 350.570323 
L 21.507097 350.570323 
L 21.507097 364.877419 
L 35.814194 364.877419 
L 35.814194 350.570323 
L 50.12129 350.570323 
L 50.12129 379.184516 
L 35.814194 379.184516 
L 35.814194 393.491613 
L 78.735484 393.491613 
L 78.735484 379.184516 
L 64.428387 379.184516 
L 64.428387 350.570323 
L 78.735484 350.570323 
L 78.735484 364.877419 
L 93.042581 364.877419 
L 93.042581 350.570323 
L 107.349677 350.570323 
L 107.349677 379.184516 
L 93.042581 379.184516 
L 93.042581 393.491613 
L 107.349677 393.491613 
L 107.349677 422.105806 
L 93.042581 422.105806 
L 93.042581 407.79871 
L 64.428387 407.79871 
L 64.428387 422.105806 
L 78.735484 422.105806 
L 78.735484 436.412903 
L 64.428387 436.412903 
L 64.428387 450.72 
L 93.042581 450.72 
L 93.042581 436.412903 
L 107.349677 436.412903 
L 107.349677 450.72 
L 135.963871 450.72 
L 135.963871 436.412903 
L 121.656774 436.412903 
L 121.656774 407.79871 
L 135.963871 407.79871 
L 135.963871 422.105806 
L 150.270968 422.105806 
L 150.270968 407.79871 
L 164.578065 407.79871 
L 164.578065 436.412903 
L 150.270968 436.412903 
L 150.270968 450.72 
L 178.885161 450.72 
L 178.885161 436.412903 
L 193.192258 436.412903 
L 193.192258 450.72 
L 221.806452 450.72 
L 221.806452 436.412903 
L 207.499355 436.412903 
L 207.499355 422.105806 
L 221.806452 422.105806 
L 221.806452 407.79871 
L 193.192258 407.79871 
L 193.192258 422.105806 
L 178.885161 422.105806 
L 178.885161 379.184516 
L 193.192258 379.184516 
L 193.192258 393.491613 
L 221.806452 393.491613 
L 221.806452 379.184516 
L 207.499355 379.184516 
L 207.499355 364.877419 
L 221.806452 364.877419 
L 221.806452 350.570323 
L 193.192258 350.570323 
L 193.192258 364.877419 
L 178.885161 364.877419 
L 178.885161 350.570323 
L 150.270968 350.570323 
L 150.270968 364.877419 
L 164.578065 364.877419 
L 164.578065 393.491613 
L 150.270968 393.491613 
L 150.270968 379.184516 
L 135.963871 379.184516 
L 135.963871 393.491613 
L 121.656774 393.491613 
L 121.656774 364.877419 
L 135.963871 364.877419 
L 135.963871 350.570323 
L 121.656774 350.570323 
L 121.656774 336.263226 
L 135.963871 336.263226 
L 135.963871 321.956129 
L 121.656774 321.956129 
L 121.656774 293.341935 
L 135.963871 293.341935 
L 135.963871 307.649032 
L 150.270968 307.649032 
L 150.270968 293.341935 
L 164.578065 293.341935 
L 164.578065 321.956129 
L 150.270968 321.956129 
L 150.270968 336.263226 
L 178.885161 336.263226 
L 178.885161 321.956129 
L 193.192258 321.956129 
L 193.192258 336.263226 
L 221.806452 336.263226 
L 221.806452 321.956129 
L 207.499355 321.956129 
L 207.499355 307.649032 
L 221.806452 307.649032 
L 221.806452 293.341935 
L 193.192258 293.341935 
L 193.192258 307.649032 
L 178.885161 307.649032 
L 178.885161 264.727742 
L 193.192258 264.727742 
L 193.192258 279.034839 
L 221.806452 279.034839 
L 221.806452 264.727742 
L 207.499355 264.727742 
L 207.499355 250.420645 
L 221.806452 250.420645 
L 221.806452 236.113548 
L 193.192258 236.113548 
L 193.192258 250.420645 
L 178.885161 250.420645 
L 178.885161 236.113548 
L 150.270968 236.113548 
L 150.270968 250.420645 
L 164.578065 250.420645 
L 164.578065 279.034839 
L 150.270968 279.034839 
L 150.270968 264.727742 
L 135.963871 264.727742 
L 135.963871 279.034839 
L 121.656774 279.034839 
L 121.656774 250.420645 
L 135.963871 250.420645 
L 135.963871 236.113548 
L 107.349677 236.113548 
L 107.349677 250.420645 
L 93.042581 250.420645 
L 93.042581 236.113548 
L 64.428387 236.113548 
L 64.428387 250.420645 
L 78.735484 250.420645 
L 78.735484 264.727742 
L 64.428387 264.727742 
L 64.428387 279.034839 
L 93.042581 279.034839 
L 93.042581 264.727742 
L 107.349677 264.727742 
L 107.349677 293.341935 
L 93.042581 293.341935 
L 93.042581 307.649032 
L 107.349677 307.649032 
L 107.349677 336.263226 
L 93.042581 336.263226 
L 93.042581 321.956129 
L 78.735484 321.956129 
L 78.735484 336.263226 
L 64.428387 336.263226 
L 64.428387 307.649032 
L 78.735484 307.649032 
L 78.735484 293.341935 
L 35.814194 293.341935 
L 35.814194 307.649032 
L 50.12129 307.649032 
L 50.12129 336.263226 
L 35.814194 336.263226 
L 35.814194 321.956129 
L 21.507097 321.956129 
L 21.507097 336.263226 
L 7.2 336.263226 
L 7.2 307.649032 
L 21.507097 307.649032 
L 21.507097 293.341935 
L 7.2 293.341935 
L 7.2 264.727742 
L 21.507097 264.727742 
L 21.507097 279.034839 
L 50.12129 279.034839 
L 50.12129 264.727742 
L 35.814194 264.727742 
L 35.814194 250.420645 
L 50.12129 250.420645 
L 50.12129 236.113548 
L 21.507097 236.113548 
L 21.507097 250.420645 
L 7.2 250.420645 
L 7.2 221.806452 
L 21.507097 221.806452 
L 21.507097 207.499355 
L 7.2 207.499355 
L 7.2 178.885161 
L 21.507097 178.885161 
L 21.507097 193.192258 
L 35.814194 193.192258 
L 35.814194 178.885161 
L 50.12129 178.885161 
L 50.12129 207.499355 
L 35.814194 207.499355 
L 35.814194 221.806452 
L 64.428387 221.806452 
L 64.428387 207.499355 
L 78.735484 207.499355 
L 78.735484 221.806452 
L 107.349677 221.806452 
L 107.349677 207.499355 
L 93.042581 207.499355 
L 93.042581 193.192258 
L 107.349677 193.192258 
L 107.349677 178.885161 
L 78.735484 178.885161 
L 78.735484 193.192258 
L 64.428387 193.192258 
L 64.428387 150.270968 
L 78.735484 150.270968 
L 78.735484 164.578065 
L 107.349677 164.578065 
L 107.349677 150.270968 
L 93.042581 150.270968 
L 93.042581 135.963871 
L 107.349677 135.963871 
L 107.349677 121.656774 
L 78.735484 121.656774 
L 78.735484 135.963871 
L 64.428387 135.963871 
L 64.428387 121.656774 
L 35.814194 121.656774 
L 35.814194 135.963871 
L 50.12129 135.963871 
L 50.12129 164.578065 
L 35.814194 164.578065 
L 35.814194 150.270968 
L 21.507097 150.270968 
L 21.507097 164.578065 
L 7.2 164.578065 
L 7.2 135.963871 
L 21.507097 135.963871 
L 21.507097 121.656774 
L 7.2 121.656774 
L 7.2 93.042581 
L 21.507097 93.042581 
L 21.507097 107.349677 
L 50.12129 107.349677 
L 50.12129 93.042581 
L 35.814194 93.042581 
L 35.814194 78.735484 
L 50.12129 78.735484 
L 50.12129 64.428387 
L 21.507097 64.428387 
L 21.507097 78.735484 
L 7.2 78.735484 
L 7.2 50.12129 
L 21.507097 50.12129 
L 21.507097 35.814194 
L 7.2 35.814194 
L 7.2 7.2 
L 21.507097 7.2 
L 21.507097 21.507097 
L 35.814194 21.507097 
L 35.814194 7.2 
L 50.12129 7.2 
L 50.12129 35.814194 
L 35.814194 35.814194 
L 35.814194 50.12129 
L 78.735484 50.12129 
L 78.735484 35.814194 
L 64.428387 35.814194 
L 64.428387 7.2 
L 78.735484 7.2 
L 78.735484 21.507097 
L 93.042581 21.507097 
L 93.042581 7.2 
L 107.349677 7.2 
L 107.349677 35.814194 
L 93.042581 35.814194 
L 93.042581 50.12129 
L 107.349677 50.12129 
L 107.349677 78.735484 
L 93.042581 78.735484 
L 93.042581 64.428387 
L 64.428387 64.428387 
L 64.428387 78.735484 
L 78.735484 78.735484 
L 78.735484 93.042581 
L 64.428387 93.042581 
L 64.428387 107.349677 
L 93.042581 107.349677 
L 93.042581 93.042581 
L 107.349677 93.042581 
L 107.349677 107.349677 
L 121.656774 107.349677 
L 121.656774 93.042581 
L 135.963871 93.042581 
L 135.963871 107.349677 
L 164.578065 107.349677 
L 164.578065 93.042581 
L 150.270968 93.042581 
L 150.270968 78.735484 
L 164.578065 78.735484 
L 164.578065 64.428387 
L 135.963871 64.428387 
L 135.963871 78.735484 
L 121.656774 78.735484 
L 121.656774 50.12129 
L 135.963871 50.12129 
L 135.963871 35.814194 
L 121.656774 35.814194 
L 121.656774 7.2 
L 135.963871 7.2 
L 135.963871 21.507097 
L 150.270968 21.507097 
L 150.270968 7.2 
L 164.578065 7.2 
L 164.578065 35.814194 
L 150.270968 35.814194 
L 150.270968 50.12129 
L 193.192258 50.12129 
L 193.192258 35.814194 
L 178.885161 35.814194 
L 178.885161 7.2 
L 193.192258 7.2 
L 193.192258 21.507097 
L 207.499355 21.507097 
L 207.499355 7.2 
L 221.806452 7.2 
L 221.806452 35.814194 
L 207.499355 35.814194 
L 207.499355 50.12129 
L 221.806452 50.12129 
L 221.806452 78.735484 
L 207.499355 78.735484 
L 207.499355 64.428387 
L 178.885161 64.428387 
L 178.885161 78.735484 
L 193.192258 78.735484 
L 193.192258 93.042581 
L 178.885161 93.042581 
L 178.885161 107.349677 
L 207.499355 107.349677 
L 207.499355 93.042581 
L 221.806452 93.042581 
L 221.806452 121.656774 
L 207.499355 121.656774 
L 207.499355 135.963871 
L 221.806452 135.963871 
L 221.806452 164.578065 
L 207.499355 164.578065 
L 207.499355 150.270968 
L 193.192258 150.270968 
L 193.192258 164.578065 
L 178.885161 164.578065 
L 178.885161 135.963871 
L 193.192258 135.963871 
L 193.192258 121.656774 
L 164.578065 121.656774 
L 164.578065 135.963871 
L 150.270968 135.963871 
L 150.270968 121.656774 
L 121.656774 121.656774 
L 121.656774 135.963871 
L 135.963871 135.963871 
L 135.963871 150.270968 
L 121.656774 150.270968 
L 121.656774 164.578065 
L 150.270968 164.578065 
L 150.270968 150.270968 
L 164.578065 150.270968 
L 164.578065 193.192258 
L 150.270968 193.192258 
L 150.270968 178.885161 
L 121.656774 178.885161 
L 121.656774 193.192258 
L 135.963871 193.192258 
L 135.963871 207.499355 
L 121.656774 207.499355 
L 121.656774 221.806452 
L 150.270968 221.806452 
L 150.270968 207.499355 
L 164.578065 207.499355 
L 164.578065 221.806452 
L 193.192258 221.806452 
L 193.192258 207.499355 
L 178.885161 207.499355 
L 178.885161 178.885161 
L 193.192258 178.885161 
L 193.192258 193.192258 
L 207.499355 193.192258 
L 207.499355 178.885161 
L 221.806452 178.885161 
L 221.806452 207.499355 
L 207.499355 207.499355 
L 207.499355 221.806452 
L 250.420645 221.806452 
L 250.420645 207.499355 
L 236.113548 207.499355 
L 236.113548 178.885161 
L 250.420645 178.885161 
L 250.420645 193.192258 
L 264.727742 193.192258 
L 264.727742 178.885161 
L 279.034839 178.885161 
L 279.034839 207.499355 
L 264.727742 207.499355 
L 264.727742 221.806452 
L 293.341935 221.806452 
L 293.341935 207.499355 
L 307.649032 207.499355 
L 307.649032 221.806452 
L 336.263226 221.806452 
L 336.263226 207.499355 
L 321.956129 207.499355 
L 321.956129 193.192258 
L 336.263226 193.192258 
L 336.263226 178.885161 
L 307.649032 178.885161 
L 307.649032 193.192258 
L 293.341935 193.192258 
L 293.341935 150.270968 
L 307.649032 150.270968 
L 307.649032 164.578065 
L 336.263226 164.578065 
L 336.263226 150.270968 
L 321.956129 150.270968 
L 321.956129 135.963871 
L 336.263226 135.963871 
L 336.263226 121.656774 
L 307.649032 121.656774 
L 307.649032 135.963871 
L 293.341935 135.963871 
L 293.341935 121.656774 
L 264.727742 121.656774 
L 264.727742 135.963871 
L 279.034839 135.963871 
L 279.034839 164.578065 
L 264.727742 164.578065 
L 264.727742 150.270968 
L 250.420645 150.270968 
L 250.420645 164.578065 
L 236.113548 164.578065 
L 236.113548 135.963871 
L 250.420645 135.963871 
L 250.420645 121.656774 
L 236.113548 121.656774 
L 236.113548 93.042581 
L 250.420645 93.042581 
L 250.420645 107.349677 
L 279.034839 107.349677 
L 279.034839 93.042581 
L 264.727742 93.042581 
L 264.727742 78.735484 
L 279.034839 78.735484 
L 279.034839 64.428387 
L 250.420645 64.428387 
L 250.420645 78.735484 
L 236.113548 78.735484 
L 236.113548 50.12129 
L 250.420645 50.12129 
L 250.420645 35.814194 
L 236.113548 35.814194 
L 236.113548 7.2 
L 250.420645 7.2 
L 250.420645 21.507097 
L 264.727742 21.507097 
L 264.727742 7.2 
L 279.034839 7.2 
L 279.034839 35.814194 
L 264.727742 35.814194 
L 264.727742 50.12129 
L 307.649032 50.12129 
L 307.649032 35.814194 
L 293.341935 35.814194 
L 293.341935 7.2 
L 307.649032 7.2 
L 307.649032 21.507097 
L 321.956129 21.507097 
L 321.956129 7.2 
L 336.263226 7.2 
L 336.263226 35.814194 
L 321.956129 35.814194 
L 321.956129 50.12129 
L 336.263226 50.12129 
L 336.263226 78.735484 
L 321.956129 78.735484 
L 321.956129 64.428387 
L 293.341935 64.428387 
L 293.341935 78.735484 
L 307.649032 78.735484 
L 307.649032 93.042581 
L 293.341935 93.042581 
L 293.341935 107.349677 
L 321.956129 107.349677 
L 321.956129 93.042581 
L 336.263226 93.042581 
L 336.263226 107.349677 
L 350.570323 107.349677 
L 350.570323 93.042581 
L 364.877419 93.042581 
L 364.877419 107.349677 
L 393.491613 107.349677 
L 393.491613 93.042581 
L 379.184516 93.042581 
L 379.184516 78.735484 
L 393.491613 78.735484 
L 393.491613 64.428387 
L 364.877419 64.428387 
L 364.877419 78.735484 
L 350.570323 78.735484 
L 350.570323 50.12129 
L 364.877419 50.12129 
L 364.877419 35.814194 
L 350.570323 35.814194 
L 350.570323 7.2 
L 364.877419 7.2 
L 364.877419 21.507097 
L 379.184516 21.507097 
L 379.184516 7.2 
L 393.491613 7.2 
L 393.491613 35.814194 
L 379.184516 35.814194 
L 379.184516 50.12129 
L 422.105806 50.12129 
L 422.105806 35.814194 
L 407.79871 35.814194 
L 407.79871 7.2 
L 422.105806 7.2 
L 422.105806 21.507097 
L 436.412903 21.507097 
L 436.412903 7.2 
L 450.72 7.2 
L 450.72 35.814194 
L 436.412903 35.814194 
L 436.412903 50.12129 
L 450.72 50.12129 
L 450.72 78.735484 
L 436.412903 78.735484 
L 436.412903 64.428387 
L 407.79871 64.428387 
L 407.79871 78.735484 
L 422.105806 78.735484 
L 422.105806 93.042581 
L 407.79871 93.042581 
L 407.79871 107.349677 
L 436.412903 107.349677 
L 436.412903 93.042581 
L 450.72 93.042581 
L 450.72 121.656774 
L 436.412903 121.656774 
L 436.412903 135.963871 
L 450.72 135.963871 
L 450.72 164.578065 
L 436.412903 164.578065 
L 436.412903 150.270968 
L 422.105806 150.270968 
L 422.105806 164.578065 
L 407.79871 164.578065 
L 407.79871 135.963871 
L 422.105806 135.963871 
L 422.105806 121.656774 
L 393.491613 121.656774 
L 393.491613 135.963871 
L 379.184516 135.963871 
L 379.184516 121.656774 
L 350.570323 121.656774 
L 350.570323 135.963871 
L 364.877419 135.963871 
L 364.877419 150.270968 
L 350.570323 150.270968 
L 350.570323 164.578065 
L 379.184516 164.578065 
L 379.184516 150.270968 
L 393.491613 150.270968 
L 393.491613 193.192258 
L 379.184516 193.192258 
L 379.184516 178.885161 
L 350.570323 178.885161 
L 350.570323 193.192258 
L 364.877419 193.192258 
L 364.877419 207.499355 
L 350.570323 207.499355 
L 350.570323 221.806452 
L 379.184516 221.806452 
L 379.184516 207.499355 
L 393.491613 207.499355 
L 393.491613 221.806452 
L 422.105806 221.806452 
L 422.105806 207.499355 
L 407.79871 207.499355 
L 407.79871 178.885161 
L 422.105806 178.885161 
L 422.105806 193.192258 
L 436.412903 193.192258 
L 436.412903 178.885161 
L 450.72 178.885161 
L 450.72 207.499355 
L 436.412903 207.499355 
L 436.412903 221.806452 
L 450.72 221.806452 
L 450.72 250.420645 
L 436.412903 250.420645 
L 436.412903 236.113548 
L 407.79871 236.113548 
L 407.79871 250.420645 
L 422.105806 250.420645 
L 422.105806 264.727742 
L 407.79871 264.727742 
L 407.79871 279.034839 
L 436.412903 279.034839 
L 436.412903 264.727742 
L 450.72 264.727742 
L 450.72 293.341935 
L 436.412903 293.341935 
L 436.412903 307.649032 
L 450.72 307.649032 
L 450.72 336.263226 
L 436.412903 336.263226 
L 436.412903 321.956129 
L 422.105806 321.956129 
L 422.105806 336.263226 
L 407.79871 336.263226 
L 407.79871 307.649032 
L 422.105806 307.649032 
L 422.105806 293.341935 
L 379.184516 293.341935 
L 379.184516 307.649032 
L 393.491613 307.649032 
L 393.491613 336.263226 
L 379.184516 336.263226 
L 379.184516 321.956129 
L 364.877419 321.956129 
L 364.877419 336.263226 
L 350.570323 336.263226 
L 350.570323 307.649032 
L 364.877419 307.649032 
L 364.877419 293.341935 
L 350.570323 293.341935 
L 350.570323 264.727742 
L 364.877419 264.727742 
L 364.877419 279.034839 
L 393.491613 279.034839 
L 393.491613 264.727742 
L 379.184516 264.727742 
L 379.184516 250.420645 
L 393.491613 250.420645 
L 393.491613 236.113548 
L 364.877419 236.113548 
L 364.877419 250.420645 
L 350.570323 250.420645 
L 350.570323 236.113548 
L 321.956129 236.113548 
L 321.956129 250.420645 
L 336.263226 250.420645 
L 336.263226 279.034839 
L 321.956129 279.034839 
L 321.956129 264.727742 
L 307.649032 264.727742 
L 307.649032 279.034839 
L 293.341935 279.034839 
L 293.341935 250.420645 
L 307.649032 250.420645 
L 307.649032 236.113548 
L 279.034839 236.113548 
L 279.034839 250.420645 
L 264.727742 250.420645 
L 264.727742 236.113548 
L 236.113548 236.113548 
L 236.113548 250.420645 
L 250.420645 250.420645 
L 250.420645 264.727742 
L 236.113548 264.727742 
L 236.113548 279.034839 
L 264.727742 279.034839 
L 264.727742 264.727742 
L 279.034839 264.727742 
L 279.034839 307.649032 
L 264.727742 307.649032 
L 264.727742 293.341935 
L 236.113548 293.341935 
L 236.113548 307.649032 
L 250.420645 307.649032 
L 250.420645 321.956129 
L 236.113548 321.956129 
L 236.113548 336.263226 
L 264.727742 336.263226 
L 264.727742 321.956129 
L 279.034839 321.956129 
L 279.034839 336.263226 
L 307.649032 336.263226 
L 307.649032 321.956129 
L 293.341935 321.956129 
L 293.341935 293.341935 
L 307.649032 293.341935 
L 307.649032 307.649032 
L 321.956129 307.649032 
L 321.956129 293.341935 
L 336.263226 293.341935 
L 336.263226 321.956129 
L 321.956129 321.956129 
L 321.956129 336.263226 
L 336.263226 336.263226 
L 336.263226 350.570323 
L 321.956129 350.570323 
L 321.956129 364.877419 
L 336.263226 364.877419 
L 336.263226 393.491613 
L 321.956129 393.491613 
L 321.956129 379.184516 
L 307.649032 379.184516 
L 307.649032 393.491613 
L 293.341935 393.491613 
L 293.341935 364.877419 
L 307.649032 364.877419 
L 307.649032 350.570323 
L 279.034839 350.570323 
L 279.034839 364.877419 
L 264.727742 364.877419 
L 264.727742 350.570323 
L 236.113548 350.570323 
L 236.113548 364.877419 
L 250.420645 364.877419 
L 250.420645 379.184516 
L 236.113548 379.184516 
L 236.113548 393.491613 
L 264.727742 393.491613 
L 264.727742 379.184516 
L 279.034839 379.184516 
L 279.034839 422.105806 
L 264.727742 422.105806 
L 264.727742 407.79871 
L 236.113548 407.79871 
L 236.113548 422.105806 
L 250.420645 422.105806 
L 250.420645 436.412903 
L 236.113548 436.412903 
L 236.113548 450.72 
L 264.727742 450.72 
L 264.727742 436.412903 
L 279.034839 436.412903 
L 279.034839 450.72 
L 307.649032 450.72 
L 307.649032 436.412903 
L 293.341935 436.412903 
L 293.341935 407.79871 
L 307.649032 407.79871 
L 307.649032 422.105806 
L 321.956129 422.105806 
L 321.956129 407.79871 
L 336.263226 407.79871 
L 336.263226 436.412903 
L 321.956129 436.412903 
L 321.956129 450.72 
L 350.570323 450.72 
L 350.570323 436.412903 
L 364.877419 436.412903 
L 364.877419 450.72 
L 393.491613 450.72 
L 393.491613 436.412903 
L 379.184516 436.412903 
L 379.184516 422.105806 
L 393.491613 422.105806 
L 393.491613 407.79871 
L 364.877419 407.79871 
L 364.877419 422.105806 
L 350.570323 422.105806 
L 350.570323 393.491613 
L 364.877419 393.491613 
L 364.877419 379.184516 
L 350.570323 379.184516 
L 350.570323 350.570323 
L 364.877419 350.570323 
L 364.877419 364.877419 
L 379.184516 364.877419 
L 379.184516 350.570323 
L 393.491613 350.570323 
L 393.491613 379.184516 
L 379.184516 379.184516 
L 379.184516 393.491613 
L 422.105806 393.491613 
L 422.105806 379.184516 
L 407.79871 379.184516 
L 407.79871 350.570323 
L 422.105806 350.570323 
L 422.105806 364.877419 
L 436.412903 364.877419 
L 436.412903 350.570323 
L 450.72 350.570323 
L 450.72 379.184516 
L 436.412903 379.184516 
L 436.412903 393.491613 
L 450.72 393.491613 
L 450.72 422.105806 
L 436.412903 422.105806 
L 436.412903 407.79871 
L 407.79871 407.79871 
L 407.79871 422.105806 
L 422.105806 422.105806 
L 422.105806 436.412903 
L 407.79871 436.412903 
L 407.79871 450.72 
L 436.412903 450.72 
L 436.412903 436.412903 
L 450.72 436.412903 
L 450.72 450.72 
L 450.72 450.72 
" clip-path="url(#pdc40e3de2a)" style="fill: none; stroke: #d62728; stroke-width: 1.2; stroke-linecap: round"/>
   </g>
   <g id="line2d_5">
    <path d="M 7.2 450.72 
L 14.24 450.72 
L 14.24 443.68 
L 7.2 443.68 
L 7.2 429.6 
L 14.24 429.6 
L 14.24 436.64 
L 21.28 436.64 
L 21.28 429.6 
L 28.32 429.6 
L 28.32 443.68 
L 21.28 443.68 
L 21.28 450.72 
L 35.36 450.72 
L 35.36 443.68 
L 42.4 443.68 
L 42.4 450.72 
L 56.48 450.72 
L 56.48 443.68 
L 49.44 443.68 
L 49.44 436.64 
L 56.48 436.64 
L 56.48 429.6 
L 42.4 429.6 
L 42.4 436.64 
L 35.36 436.64 
L 35.36 415.52 
L 42.4 415.52 
L 42.4 422.56 
L 56.48 422.56 
L 56.48 415.52 
L 49.44 415.52 
L 49.44 408.48 
L 56.48 408.48 
L 56.48 401.44 
L 42.4 401.44 
L 42.4 408.48 
L 35.36 408.48 
L 35.36 401.44 
L 21.28 401.44 
L 21.28 408.48 
L 28.32 408.48 
L 28.32 422.56 
L 21.28 422.56 
L 21.28 415.52 
L 14.24 415.52 
L 14.24 422.56 
L 7.2 422.56 
L 7.2 408.48 
L 14.24 408.48 
L 14.24 401.44 
L 7.2 401.44 
L 7.2 387.36 
L 14.24 387.36 
L 14.24 394.4 
L 28.32 394.4 
L 28.32 387.36 
L 21.28 387.36 
L 21.28 380.32 
L 28.32 380.32 
L 28.32 373.28 
L 14.24 373.28 
L 14.24 380.32 
L 7.2 380.32 
L 7.2 366.24 
L 14.24 366.24 
L 14.24 359.2 
L 7.2 359.2 
L 7.2 345.12 
L 14.24 345.12 
L 14.24 352.16 
L 21.28 352.16 
L 21.28 345.12 
L 28.32 345.12 
L 28.32 359.2 
L 21.28 359.2 
L 21.28 366.24 
L 42.4 366.24 
L 42.4 359.2 
L 35.36 359.2 
L 35.36 345.12 
L 42.4 345.12 
L 42.4 352.16 
L 49.44 352.16 
L 49.44 345.12 
L 56.48 345.12 
L 56.48 359.2 
L 49.44 359.2 
L 49.44 366.24 
L 56.48 366.24 
L 56.48 380.32 
L 49.44 380.32 
L 49.44 373.28 
L 35.36 373.28 
L 35.36 380.32 
L 42.4 380.32 
L 42.4 387.36 
L 35.36 387.36 
L 35.36 394.4 
L 49.44 394.4 
L 49.44 387.36 
L 56.48 387.36 
L 56.48 394.4 
L 63.52 394.4 
L 63.52 387.36 
L 70.56 387.36 
L 70.56 394.4 
L 84.64 394.4 
L 84.64 387.36 
L 77.6 387.36 
L 77.6 380.32 
L 84.64 380.32 
L 84.64 373.28 
L 70.56 373.28 
L 70.56 380.32 
L 63.52 380.32 
L 63.52 366.24 
L 70.56 366.24 
L 70.56 359.2 
L 63.52 359.2 
L 63.52 345.12 
L 70.56 345.12 
L 70.56 352.16 
L 77.6 352.16 
L 77.6 345.12 
L 84.64 345.12 
L 84.64 359.2 
L 77.6 359.2 
L 77.6 366.24 
L 98.72 366.24 
L 98.72 359.2 
L 91.68 359.2 
L 91.68 345.12 
L 98.72 345.12 
L 98.72 352.16 
L 105.76 352.16 
L 105.76 345.12 
L 112.8 345.12 
L 112.8 359.2 
L 105.76 359.2 
L 105.76 366.24 
L 112.8 366.24 
L 112.8 380.32 
L 105.76 380.32 
L 105.76 373.28 
L 91.68 373.28 
L 91.68 380.32 
L 98.72 380.32 
L 98.72 387.36 
L 91.68 387.36 
L 91.68 394.4 
L 105.76 394.4 
L 105.76 387.36 
L 112.8 387.36 
L 112.8 401.44 
L 105.76 401.44 
L 105.76 408.48 
L 112.8 408.48 
L 112.8 422.56 
L 105.76 422.56 
L 105.76 415.52 
L 98.72 415.52 
L 98.72 422.56 
L 91.68 422.56 
L 91.68 408.48 
L 98.72 408.48 
L 98.72 401.44 
L 84.64 401.44 
L 84.64 408.48 
L 77.6 408.48 
L 77.6 401.44 
L 63.52 401.44 
L 63.52 408.48 
L 70.56 408.48 
L 70.56 415.52 
L 63.52 415.52 
L 63.52 422.56 
L 77.6 422.56 
L 77.6 415.52 
L 84.64 415.52 
L 84.64 436.64 
L 77.6 436.64 
L 77.6 429.6 
L 63.52 429.6 
L 63.52 436.64 
L 70.56 436.64 
L 70.56 443.68 
L 63.52 443.68 
L 63.52 450.72 
L 77.6 450.72 
L 77.6 443.68 
L 84.64 443.68 
L 84.64 450.72 
L 98.72 450.72 
L 98.72 443.68 
L 91.68 443.68 
L 91.68 429.6 
L 98.72 429.6 
L 98.72 436.64 
L 105.76 436.64 
L 105.76 429.6 
L 112.8 429.6 
L 112.8 443.68 
L 105.76 443.68 
L 105.76 450.72 
L 119.84 450.72 
L 119.84 443.68 
L 126.88 443.68 
L 126.88 450.72 
L 140.96 450.72 
L 140.96 443.68 
L 133.92 443.68 
L 133.92 436.64 
L 140.96 436.64 
L 140.96 429.6 
L 126.88 429.6 
L 126.88 436.64 
L 119.84 436.64 
L 119.84 422.56 
L 126.88 422.56 
L 126.88 415.52 
L 119.84 415.52 
L 119.84 401.44 
L 126.88 401.44 
L 126.88 408.48 
L 133.92 408.48 
L 133.92 401.44 
L 140.96 401.44 
L 140.96 415.52 
L 133.92 415.52 
L 133.92 422.56 
L 155.04 422.56 
L 155.04 415.52 
L 148 415.52 
L 148 401.44 
L 155.04 401.44 
L 155.04 408.48 
L 162.08 408.48 
L 162.08 401.44 
L 169.12 401.44 
L 169.12 415.52 
L 162.08 415.52 
L 162.08 422.56 
L 169.12 422.56 
L 169.12 436.64 
L 162.08 436.64 
L 162.08 429.6 
L 148 429.6 
L 148 436.64 
L 155.04 436.64 
L 155.04 443.68 
L 148 443.68 
L 148 450.72 
L 162.08 450.72 
L 162.08 443.68 
L 169.12 443.68 
L 169.12 450.72 
L 183.2 450.72 
L 183.2 443.68 
L 176.16 443.68 
L 176.16 429.6 
L 183.2 429.6 
L 183.2 436.64 
L 190.24 436.64 
L 190.24 429.6 
L 197.28 429.6 
L 197.28 443.68 
L 190.24 443.68 
L 190.24 450.72 
L 204.32 450.72 
L 204.32 443.68 
L 211.36 443.68 
L 211.36 450.72 
L 225.44 450.72 
L 225.44 443.68 
L 218.4 443.68 
L 218.4 436.64 
L 225.44 436.64 
L 225.44 429.6 
L 211.36 429.6 
L 211.36 436.64 
L 204.32 436.64 
L 204.32 415.52 
L 211.36 415.52 
L 211.36 422.56 
L 225.44 422.56 
L 225.44 415.52 
L 218.4 415.52 
L 218.4 408.48 
L 225.44 408.48 
L 225.44 401.44 
L 211.36 401.44 
L 211.36 408.48 
L 204.32 408.48 
L 204.32 401.44 
L 190.24 401.44 
L 190.24 408.48 
L 197.28 408.48 
L 197.28 422.56 
L 190.24 422.56 
L 190.24 415.52 
L 183.2 415.52 
L 183.2 422.56 
L 176.16 422.56 
L 176.16 408.48 
L 183.2 408.48 
L 183.2 401.44 
L 176.16 401.44 
L 176.16 394.4 
L 183.2 394.4 
L 183.2 387.36 
L 176.16 387.36 
L 176.16 373.28 
L 183.2 373.28 
L 183.2 380.32 
L 190.24 380.32 
L 190.24 373.28 
L 197.28 373.28 
L 197.28 387.36 
L 190.24 387.36 
L 190.24 394.4 
L 204.32 394.4 
L 204.32 387.36 
L 211.36 387.36 
L 211.36 394.4 
L 225.44 394.4 
L 225.44 387.36 
L 218.4 387.36 
L 218.4 380.32 
L 225.44 380.32 
L 225.44 373.28 
L 211.36 373.28 
L 211.36 380.32 
L 204.32 380.32 
L 204.32 359.2 
L 211.36 359.2 
L 211.36 366.24 
L 225.44 366.24 
L 225.44 359.2 
L 218.4 359.2 
L 218.4 352.16 
L 225.44 352.16 
L 225.44 345.12 
L 211.36 345.12 
L 211.36 352.16 
L 204.32 352.16 
L 204.32 345.12 
L 190.24 345.12 
L 190.24 352.16 
L 197.28 352.16 
L 197.28 366.24 
L 190.24 366.24 
L 190.24 359.2 
L 183.2 359.2 
L 183.2 366.24 
L 176.16 366.24 
L 176.16 352.16 
L 183.2 352.16 
L 183.2 345.12 
L 169.12 345.12 
L 169.12 352.16 
L 162.08 352.16 
L 162.08 345.12 
L 148 345.12 
L 148 352.16 
L 155.04 352.16 
L 155.04 359.2 
L 148 359.2 
L 148 366.24 
L 162.08 366.24 
L 162.08 359.2 
L 169.12 359.2 
L 169.12 373.28 
L 162.08 373.28 
L 162.08 380.32 
L 169.12 380.32 
L 169.12 394.4 
L 162.08 394.4 
L 162.08 387.36 
L 155.04 387.36 
L 155.04 394.4 
L 148 394.4 
L 148 380.32 
L 155.04 380.32 
L 155.04 373.28 
L 133.92 373.28 
L 133.92 380.32 
L 140.96 380.32 
L 140.96 394.4 
L 133.92 394.4 
L 133.92 387.36 
L 126.88 387.36 
L 126.88 394.4 
L 119.84 394.4 
L 119.84 380.32 
L 126.88 380.32 
L 126.88 373.28 
L 119.84 373.28 
L 119.84 359.2 
L 126.88 359.2 
L 126.88 366.24 
L 140.96 366.24 
L 140.96 359.2 
L 133.92 359.2 
L 133.92 352.16 
L 140.96 352.16 
L 140.96 345.12 
L 126.88 345.12 
L 126.88 352.16 
L 119.84 352.16 
L 119.84 331.04 
L 126.88 331.04 
L 126.88 338.08 
L 140.96 338.08 
L 140.96 331.04 
L 133.92 331.04 
L 133.92 324 
L 140.96 324 
L 140.96 316.96 
L 126.88 316.96 
L 126.88 324 
L 119.84 324 
L 119.84 309.92 
L 126.88 309.92 
L 126.88 302.88 
L 119.84 302.88 
L 119.84 288.8 
L 126.88 288.8 
L 126.88 295.84 
L 133.92 295.84 
L 133.92 288.8 
L 140.96 288.8 
L 140.96 302.88 
L 133.92 302.88 
L 133.92 309.92 
L 155.04 309.92 
L 155.04 302.88 
L 148 302.88 
L 148 288.8 
L 155.04 288.8 
L 155.04 295.84 
L 162.08 295.84 
L 162.08 288.8 
L 169.12 288.8 
L 169.12 302.88 
L 162.08 302.88 
L 162.08 309.92 
L 169.12 309.92 
L 169.12 324 
L 162.08 324 
L 162.08 316.96 
L 148 316.96 
L 148 324 
L 155.04 324 
L 155.04 331.04 
L 148 331.04 
L 148 338.08 
L 162.08 338.08 
L 162.08 331.04 
L 169.12 331.04 
L 169.12 338.08 
L 183.2 338.08 
L 183.2 331.04 
L 176.16 331.04 
L 176.16 316.96 
L 183.2 316.96 
L 183.2 324 
L 190.24 324 
L 190.24 316.96 
L 197.28 316.96 
L 197.28 331.04 
L 190.24 331.04 
L 190.24 338.08 
L 204.32 338.08 
L 204.32 331.04 
L 211.36 331.04 
L 211.36 338.08 
L 225.44 338.08 
L 225.44 331.04 
L 218.4 331.04 
L 218.4 324 
L 225.44 324 
L 225.44 316.96 
L 211.36 316.96 
L 211.36 324 
L 204.32 324 
L 204.32 302.88 
L 211.36 302.88 
L 211.36 309.92 
L 225.44 309.92 
L 225.44 302.88 
L 218.4 302.88 
L 218.4 295.84 
L 225.44 295.84 
L 225.44 288.8 
L 211.36 288.8 
L 211.36 295.84 
L 204.32 295.84 
L 204.32 288.8 
L 190.24 288.8 
L 190.24 295.84 
L 197.28 295.84 
L 197.28 309.92 
L 190.24 309.92 
L 190.24 302.88 
L 183.2 302.88 
L 183.2 309.92 
L 176.16 309.92 
L 176.16 295.84 
L 183.2 295.84 
L 183.2 288.8 
L 176.16 288.8 
L 176.16 281.76 
L 183.2 281.76 
L 183.2 274.72 
L 176.16 274.72 
L 176.16 260.64 
L 183.2 260.64 
L 183.2 267.68 
L 190.24 267.68 
L 190.24 260.64 
L 197.28 260.64 
L 197.28 274.72 
L 190.24 274.72 
L 190.24 281.76 
L 204.32 281.76 
L 204.32 274.72 
L 211.36 274.72 
L 211.36 281.76 
L 225.44 281.76 
L 225.44 274.72 
L 218.4 274.72 
L 218.4 267.68 
L 225.44 267.68 
L 225.44 260.64 
L 211.36 260.64 
L 211.36 267.68 
L 204.32 267.68 
L 204.32 246.56 
L 211.36 246.56 
L 211.36 253.6 
L 225.44 253.6 
L 225.44 246.56 
L 218.4 246.56 
L 218.4 239.52 
L 225.44 239.52 
L 225.44 232.48 
L 211.36 232.48 
L 211.36 239.52 
L 204.32 239.52 
L 204.32 232.48 
L 190.24 232.48 
L 190.24 239.52 
L 197.28 239.52 
L 197.28 253.6 
L 190.24 253.6 
L 190.24 246.56 
L 183.2 246.56 
L 183.2 253.6 
L 176.16 253.6 
L 176.16 239.52 
L 183.2 239.52 
L 183.2 232.48 
L 169.12 232.48 
L 169.12 239.52 
L 162.08 239.52 
L 162.08 232.48 
L 148 232.48 
L 148 239.52 
L 155.04 239.52 
L 155.04 246.56 
L 148 246.56 
L 148 253.6 
L 162.08 253.6 
L 162.08 246.56 
L 169.12 246.56 
L 169.12 260.64 
L 162.08 260.64 
L 162.08 267.68 
L 169.12 267.68 
L 169.12 281.76 
L 162.08 281.76 
L 162.08 274.72 
L 155.04 274.72 
L 155.04 281.76 
L 148 281.76 
L 148 267.68 
L 155.04 267.68 
L 155.04 260.64 
L 133.92 260.64 
L 133.92 267.68 
L 140.96 267.68 
L 140.96 281.76 
L 133.92 281.76 
L 133.92 274.72 
L 126.88 274.72 
L 126.88 281.76 
L 119.84 281.76 
L 119.84 267.68 
L 126.88 267.68 
L 126.88 260.64 
L 119.84 260.64 
L 119.84 246.56 
L 126.88 246.56 
L 126.88 253.6 
L 140.96 253.6 
L 140.96 246.56 
L 133.92 246.56 
L 133.92 239.52 
L 140.96 239.52 
L 140.96 232.48 
L 126.88 232.48 
L 126.88 239.52 
L 119.84 239.52 
L 119.84 232.48 
L 105.76 232.48 
L 105.76 239.52 
L 112.8 239.52 
L 112.8 253.6 
L 105.76 253.6 
L 105.76 246.56 
L 98.72 246.56 
L 98.72 253.6 
L 91.68 253.6 
L 91.68 239.52 
L 98.72 239.52 
L 98.72 232.48 
L 84.64 232.48 
L 84.64 239.52 
L 77.6 239.52 
L 77.6 232.48 
L 63.52 232.48 
L 63.52 239.52 
L 70.56 239.52 
L 70.56 246.56 
L 63.52 246.56 
L 63.52 253.6 
L 77.6 253.6 
L 77.6 246.56 
L 84.64 246.56 
L 84.64 267.68 
L 77.6 267.68 
L 77.6 260.64 
L 63.52 260.64 
L 63.52 267.68 
L 70.56 267.68 
L 70.56 274.72 
L 63.52 274.72 
L 63.52 281.76 
L 77.6 281.76 
L 77.6 274.72 
L 84.64 274.72 
L 84.64 281.76 
L 98.72 281.76 
L 98.72 274.72 
L 91.68 274.72 
L 91.68 260.64 
L 98.72 260.64 
L 98.72 267.68 
L 105.76 267.68 
L 105.76 260.64 
L 112.8 260.64 
L 112.8 274.72 
L 105.76 274.72 
L 105.76 281.76 
L 112.8 281.76 
L 112.8 295.84 
L 105.76 295.84 
L 105.76 288.8 
L 91.68 288.8 
L 91.68 295.84 
L 98.72 295.84 
L 98.72 302.88 
L 91.68 302.88 
L 91.68 309.92 
L 105.76 309.92 
L 105.76 302.88 
L 112.8 302.88 
L 112.8 316.96 
L 105.76 316.96 
L 105.76 324 
L 112.8 324 
L 112.8 338.08 
L 105.76 338.08 
L 105.76 331.04 
L 98.72 331.04 
L 98.72 338.08 
L 91.68 338.08 
L 91.68 324 
L 98.72 324 
L 98.72 316.96 
L 77.6 316.96 
L 77.6 324 
L 84.64 324 
L 84.64 338.08 
L 77.6 338.08 
L 77.6 331.04 
L 70.56 331.04 
L 70.56 338.08 
L 63.52 338.08 
L 63.52 324 
L 70.56 324 
L 70.56 316.96 
L 63.52 316.96 
L 63.52 302.88 
L 70.56 302.88 
L 70.56 309.92 
L 84.64 309.92 
L 84.64 302.88 
L 77.6 302.88 
L 77.6 295.84 
L 84.64 295.84 
L 84.64 288.8 
L 70.56 288.8 
L 70.56 295.84 
L 63.52 295.84 
L 63.52 288.8 
L 56.48 288.8 
L 56.48 295.84 
L 49.44 295.84 
L 49.44 288.8 
L 35.36 288.8 
L 35.36 295.84 
L 42.4 295.84 
L 42.4 302.88 
L 35.36 302.88 
L 35.36 309.92 
L 49.44 309.92 
L 49.44 302.88 
L 56.48 302.88 
L 56.48 316.96 
L 49.44 316.96 
L 49.44 324 
L 56.48 324 
L 56.48 338.08 
L 49.44 338.08 
L 49.44 331.04 
L 42.4 331.04 
L 42.4 338.08 
L 35.36 338.08 
L 35.36 324 
L 42.4 324 
L 42.4 316.96 
L 21.28 316.96 
L 21.28 324 
L 28.32 324 
L 28.32 338.08 
L 21.28 338.08 
L 21.28 331.04 
L 14.24 331.04 
L 14.24 338.08 
L 7.2 338.08 
L 7.2 324 
L 14.24 324 
L 14.24 316.96 
L 7.2 316.96 
L 7.2 302.88 
L 14.24 302.88 
L 14.24 309.92 
L 28.32 309.92 
L 28.32 302.88 
L 21.28 302.88 
L 21.28 295.84 
L 28.32 295.84 
L 28.32 288.8 
L 14.24 288.8 
L 14.24 295.84 
L 7.2 295.84 
L 7.2 281.76 
L 14.24 281.76 
L 14.24 274.72 
L 7.2 274.72 
L 7.2 260.64 
L 14.24 260.64 
L 14.24 267.68 
L 21.28 267.68 
L 21.28 260.64 
L 28.32 260.64 
L 28.32 274.72 
L 21.28 274.72 
L 21.28 281.76 
L 35.36 281.76 
L 35.36 274.72 
L 42.4 274.72 
L 42.4 281.76 
L 56.48 281.76 
L 56.48 274.72 
L 49.44 274.72 
L 49.44 267.68 
L 56.48 267.68 
L 56.48 260.64 
L 42.4 260.64 
L 42.4 267.68 
L 35.36 267.68 
L 35.36 246.56 
L 42.4 246.56 
L 42.4 253.6 
L 56.48 253.6 
L 56.48 246.56 
L 49.44 246.56 
L 49.44 239.52 
L 56.48 239.52 
L 56.48 232.48 
L 42.4 232.48 
L 42.4 239.52 
L 35.36 239.52 
L 35.36 232.48 
L 21.28 232.48 
L 21.28 239.52 
L 28.32 239.52 
L 28.32 253.6 
L 21.28 253.6 
L 21.28 246.56 
L 14.24 246.56 
L 14.24 253.6 
L 7.2 253.6 
L 7.2 239.52 
L 14.24 239.52 
L 14.24 232.48 
L 7.2 232.48 
L 7.2 218.4 
L 14.24 218.4 
L 14.24 225.44 
L 28.32 225.44 
L 28.32 218.4 
L 21.28 218.4 
L 21.28 211.36 
L 28.32 211.36 
L 28.32 204.32 
L 14.24 204.32 
L 14.24 211.36 
L 7.2 211.36 
L 7.2 197.28 
L 14.24 197.28 
L 14.24 190.24 
L 7.2 190.24 
L 7.2 176.16 
L 14.24 176.16 
L 14.24 183.2 
L 21.28 183.2 
L 21.28 176.16 
L 28.32 176.16 
L 28.32 190.24 
L 21.28 190.24 
L 21.28 197.28 
L 42.4 197.28 
L 42.4 190.24 
L 35.36 190.24 
L 35.36 176.16 
L 42.4 176.16 
L 42.4 183.2 
L 49.44 183.2 
L 49.44 176.16 
L 56.48 176.16 
L 56.48 190.24 
L 49.44 190.24 
L 49.44 197.28 
L 56.48 197.28 
L 56.48 211.36 
L 49.44 211.36 
L 49.44 204.32 
L 35.36 204.32 
L 35.36 211.36 
L 42.4 211.36 
L 42.4 218.4 
L 35.36 218.4 
L 35.36 225.44 
L 49.44 225.44 
L 49.44 218.4 
L 56.48 218.4 
L 56.48 225.44 
L 70.56 225.44 
L 70.56 218.4 
L 63.52 218.4 
L 63.52 204.32 
L 70.56 204.32 
L 70.56 211.36 
L 77.6 211.36 
L 77.6 204.32 
L 84.64 204.32 
L 84.64 218.4 
L 77.6 218.4 
L 77.6 225.44 
L 91.68 225.44 
L 91.68 218.4 
L 98.72 218.4 
L 98.72 225.44 
L 112.8 225.44 
L 112.8 218.4 
L 105.76 218.4 
L 105.76 211.36 
L 112.8 211.36 
L 112.8 204.32 
L 98.72 204.32 
L 98.72 211.36 
L 91.68 211.36 
L 91.68 190.24 
L 98.72 190.24 
L 98.72 197.28 
L 112.8 197.28 
L 112.8 190.24 
L 105.76 190.24 
L 105.76 183.2 
L 112.8 183.2 
L 112.8 176.16 
L 98.72 176.16 
L 98.72 183.2 
L 91.68 183.2 
L 91.68 176.16 
L 77.6 176.16 
L 77.6 183.2 
L 84.64 183.2 
L 84.64 197.28 
L 77.6 197.28 
L 77.6 190.24 
L 70.56 190.24 
L 70.56 197.28 
L 63.52 197.28 
L 63.52 183.2 
L 70.56 183.2 
L 70.56 176.16 
L 63.52 176.16 
L 63.52 169.12 
L 70.56 169.12 
L 70.56 162.08 
L 63.52 162.08 
L 63.52 148 
L 70.56 148 
L 70.56 155.04 
L 77.6 155.04 
L 77.6 148 
L 84.64 148 
L 84.64 162.08 
L 77.6 162.08 
L 77.6 169.12 
L 91.68 169.12 
L 91.68 162.08 
L 98.72 162.08 
L 98.72 169.12 
L 112.8 169.12 
L 112.8 162.08 
L 105.76 162.08 
L 105.76 155.04 
L 112.8 155.04 
L 112.8 148 
L 98.72 148 
L 98.72 155.04 
L 91.68 155.04 
L 91.68 133.92 
L 98.72 133.92 
L 98.72 140.96 
L 112.8 140.96 
L 112.8 133.92 
L 105.76 133.92 
L 105.76 126.88 
L 112.8 126.88 
L 112.8 119.84 
L 98.72 119.84 
L 98.72 126.88 
L 91.68 126.88 
L 91.68 119.84 
L 77.6 119.84 
L 77.6 126.88 
L 84.64 126.88 
L 84.64 140.96 
L 77.6 140.96 
L 77.6 133.92 
L 70.56 133.92 
L 70.56 140.96 
L 63.52 140.96 
L 63.52 126.88 
L 70.56 126.88 
L 70.56 119.84 
L 56.48 119.84 
L 56.48 126.88 
L 49.44 126.88 
L 49.44 119.84 
L 35.36 119.84 
L 35.36 126.88 
L 42.4 126.88 
L 42.4 133.92 
L 35.36 133.92 
L 35.36 140.96 
L 49.44 140.96 
L 49.44 133.92 
L 56.48 133.92 
L 56.48 148 
L 49.44 148 
L 49.44 155.04 
L 56.48 155.04 
L 56.48 169.12 
L 49.44 169.12 
L 49.44 162.08 
L 42.4 162.08 
L 42.4 169.12 
L 35.36 169.12 
L 35.36 155.04 
L 42.4 155.04 
L 42.4 148 
L 21.28 148 
L 21.28 155.04 
L 28.32 155.04 
L 28.32 169.12 
L 21.28 169.12 
L 21.28 162.08 
L 14.24 162.08 
L 14.24 169.12 
L 7.2 169.12 
L 7.2 155.04 
L 14.24 155.04 
L 14.24 148 
L 7.2 148 
L 7.2 133.92 
L 14.24 133.92 
L 14.24 140.96 
L 28.32 140.96 
L 28.32 133.92 
L 21.28 133.92 
L 21.28 126.88 
L 28.32 126.88 
L 28.32 119.84 
L 14.24 119.84 
L 14.24 126.88 
L 7.2 126.88 
L 7.2 112.8 
L 14.24 112.8 
L 14.24 105.76 
L 7.2 105.76 
L 7.2 91.68 
L 14.24 91.68 
L 14.24 98.72 
L 21.28 98.72 
L 21.28 91.68 
L 28.32 91.68 
L 28.32 105.76 
L 21.28 105.76 
L 21.28 112.8 
L 35.36 112.8 
L 35.36 105.76 
L 42.4 105.76 
L 42.4 112.8 
L 56.48 112.8 
L 56.48 105.76 
L 49.44 105.76 
L 49.44 98.72 
L 56.48 98.72 
L 56.48 91.68 
L 42.4 91.68 
L 42.4 98.72 
L 35.36 98.72 
L 35.36 77.6 
L 42.4 77.6 
L 42.4 84.64 
L 56.48 84.64 
L 56.48 77.6 
L 49.44 77.6 
L 49.44 70.56 
L 56.48 70.56 
L 56.48 63.52 
L 42.4 63.52 
L 42.4 70.56 
L 35.36 70.56 
L 35.36 63.52 
L 21.28 63.52 
L 21.28 70.56 
L 28.32 70.56 
L 28.32 84.64 
L 21.28 84.64 
L 21.28 77.6 
L 14.24 77.6 
L 14.24 84.64 
L 7.2 84.64 
L 7.2 70.56 
L 14.24 70.56 
L 14.24 63.52 
L 7.2 63.52 
L 7.2 49.44 
L 14.24 49.44 
L 14.24 56.48 
L 28.32 56.48 
L 28.32 49.44 
L 21.28 49.44 
L 21.28 42.4 
L 28.32 42.4 
L 28.32 35.36 
L 14.24 35.36 
L 14.24 42.4 
L 7.2 42.4 
L 7.2 28.32 
L 14.24 28.32 
L 14.24 21.28 
L 7.2 21.28 
L 7.2 7.2 
L 14.24 7.2 
L 14.24 14.24 
L 21.28 14.24 
L 21.28 7.2 
L 28.32 7.2 
L 28.32 21.28 
L 21.28 21.28 
L 21.28 28.32 
L 42.4 28.32 
L 42.4 21.28 
L 35.36 21.28 
L 35.36 7.2 
L 42.4 7.2 
L 42.4 14.24 
L 49.44 14.24 
L 49.44 7.2 
L 56.48 7.2 
L 56.48 21.28 
L 49.44 21.28 
L 49.44 28.32 
L 56.48 28.32 
L 56.48 42.4 
L 49.44 42.4 
L 49.44 35.36 
L 35.36 35.36 
L 35.36 42.4 
L 42.4 42.4 
L 42.4 49.44 
L 35.36 49.44 
L 35.36 56.48 
L 49.44 56.48 
L 49.44 49.44 
L 56.48 49.44 
L 56.48 56.48 
L 63.52 56.48 
L 63.52 49.44 
L 70.56 49.44 
L 70.56 56.48 
L 84.64 56.48 
L 84.64 49.44 
L 77.6 49.44 
L 77.6 42.4 
L 84.64 42.4 
L 84.64 35.36 
L 70.56 35.36 
L 70.56 42.4 
L 63.52 42.4 
L 63.52 28.32 
L 70.56 28.32 
L 70.56 21.28 
L 63.52 21.28 
L 63.52 7.2 
L 70.56 7.2 
L 70.56 14.24 
L 77.6 14.24 
L 77.6 7.2 
L 84.64 7.2 
L 84.64 21.28 
L 77.6 21.28 
L 77.6 28.32 
L 98.72 28.32 
L 98.72 21.28 
L 91.68 21.28 
L 91.68 7.2 
L 98.72 7.2 
L 98.72 14.24 
L 105.76 14.24 
L 105.76 7.2 
L 112.8 7.2 
L 112.8 21.28 
L 105.76 21.28 
L 105.76 28.32 
L 112.8 28.32 
L 112.8 42.4 
L 105.76 42.4 
L 105.76 35.36 
L 91.68 35.36 
L 91.68 42.4 
L 98.72 42.4 
L 98.72 49.44 
L 91.68 49.44 
L 91.68 56.48 
L 105.76 56.48 
L 105.76 49.44 
L 112.8 49.44 
L 112.8 63.52 
L 105.76 63.52 
L 105.76 70.56 
L 112.8 70.56 
L 112.8 84.64 
L 105.76 84.64 
L 105.76 77.6 
L 98.72 77.6 
L 98.72 84.64 
L 91.68 84.64 
L 91.68 70.56 
L 98.72 70.56 
L 98.72 63.52 
L 84.64 63.52 
L 84.64 70.56 
L 77.6 70.56 
L 77.6 63.52 
L 63.52 63.52 
L 63.52 70.56 
L 70.56 70.56 
L 70.56 77.6 
L 63.52 77.6 
L 63.52 84.64 
L 77.6 84.64 
L 77.6 77.6 
L 84.64 77.6 
L 84.64 98.72 
L 77.6 98.72 
L 77.6 91.68 
L 63.52 91.68 
L 63.52 98.72 
L 70.56 98.72 
L 70.56 105.76 
L 63.52 105.76 
L 63.52 112.8 
L 77.6 112.8 
L 77.6 105.76 
L 84.64 105.76 
L 84.64 112.8 
L 98.72 112.8 
L 98.72 105.76 
L 91.68 105.76 
L 91.68 91.68 
L 98.72 91.68 
L 98.72 98.72 
L 105.76 98.72 
L 105.76 91.68 
L 112.8 91.68 
L 112.8 105.76 
L 105.76 105.76 
L 105.76 112.8 
L 126.88 112.8 
L 126.88 105.76 
L 119.84 105.76 
L 119.84 91.68 
L 126.88 91.68 
L 126.88 98.72 
L 133.92 98.72 
L 133.92 91.68 
L 140.96 91.68 
L 140.96 105.76 
L 133.92 105.76 
L 133.92 112.8 
L 148 112.8 
L 148 105.76 
L 155.04 105.76 
L 155.04 112.8 
L 169.12 112.8 
L 169.12 105.76 
L 162.08 105.76 
L 162.08 98.72 
L 169.12 98.72 
L 169.12 91.68 
L 155.04 91.68 
L 155.04 98.72 
L 148 98.72 
L 148 77.6 
L 155.04 77.6 
L 155.04 84.64 
L 169.12 84.64 
L 169.12 77.6 
L 162.08 77.6 
L 162.08 70.56 
L 169.12 70.56 
L 169.12 63.52 
L 155.04 63.52 
L 155.04 70.56 
L 148 70.56 
L 148 63.52 
L 133.92 63.52 
L 133.92 70.56 
L 140.96 70.56 
L 140.96 84.64 
L 133.92 84.64 
L 133.92 77.6 
L 126.88 77.6 
L 126.88 84.64 
L 119.84 84.64 
L 119.84 70.56 
L 126.88 70.56 
L 126.88 63.52 
L 119.84 63.52 
L 119.84 49.44 
L 126.88 49.44 
L 126.88 56.48 
L 140.96 56.48 
L 140.96 49.44 
L 133.92 49.44 
L 133.92 42.4 
L 140.96 42.4 
L 140.96 35.36 
L 126.88 35.36 
L 126.88 42.4 
L 119.84 42.4 
L 119.84 28.32 
L 126.88 28.32 
L 126.88 21.28 
L 119.84 21.28 
L 119.84 7.2 
L 126.88 7.2 
L 126.88 14.24 
L 133.92 14.24 
L 133.92 7.2 
L 140.96 7.2 
L 140.96 21.28 
L 133.92 21.28 
L 133.92 28.32 
L 155.04 28.32 
L 155.04 21.28 
L 148 21.28 
L 148 7.2 
L 155.04 7.2 
L 155.04 14.24 
L 162.08 14.24 
L 162.08 7.2 
L 169.12 7.2 
L 169.12 21.28 
L 162.08 21.28 
L 162.08 28.32 
L 169.12 28.32 
L 169.12 42.4 
L 162.08 42.4 
L 162.08 35.36 
L 148 35.36 
L 148 42.4 
L 155.04 42.4 
L 155.04 49.44 
L 148 49.44 
L 148 56.48 
L 162.08 56.48 
L 162.08 49.44 
L 169.12 49.44 
L 169.12 56.48 
L 176.16 56.48 
L 176.16 49.44 
L 183.2 49.44 
L 183.2 56.48 
L 197.28 56.48 
L 197.28 49.44 
L 190.24 49.44 
L 190.24 42.4 
L 197.28 42.4 
L 197.28 35.36 
L 183.2 35.36 
L 183.2 42.4 
L 176.16 42.4 
L 176.16 28.32 
L 183.2 28.32 
L 183.2 21.28 
L 176.16 21.28 
L 176.16 7.2 
L 183.2 7.2 
L 183.2 14.24 
L 190.24 14.24 
L 190.24 7.2 
L 197.28 7.2 
L 197.28 21.28 
L 190.24 21.28 
L 190.24 28.32 
L 211.36 28.32 
L 211.36 21.28 
L 204.32 21.28 
L 204.32 7.2 
L 211.36 7.2 
L 211.36 14.24 
L 218.4 14.24 
L 218.4 7.2 
L 225.44 7.2 
L 225.44 21.28 
L 218.4 21.28 
L 218.4 28.32 
L 225.44 28.32 
L 225.44 42.4 
L 218.4 42.4 
L 218.4 35.36 
L 204.32 35.36 
L 204.32 42.4 
L 211.36 42.4 
L 211.36 49.44 
L 204.32 49.44 
L 204.32 56.48 
L 218.4 56.48 
L 218.4 49.44 
L 225.44 49.44 
L 225.44 63.52 
L 218.4 63.52 
L 218.4 70.56 
L 225.44 70.56 
L 225.44 84.64 
L 218.4 84.64 
L 218.4 77.6 
L 211.36 77.6 
L 211.36 84.64 
L 204.32 84.64 
L 204.32 70.56 
L 211.36 70.56 
L 211.36 63.52 
L 197.28 63.52 
L 197.28 70.56 
L 190.24 70.56 
L 190.24 63.52 
L 176.16 63.52 
L 176.16 70.56 
L 183.2 70.56 
L 183.2 77.6 
L 176.16 77.6 
L 176.16 84.64 
L 190.24 84.64 
L 190.24 77.6 
L 197.28 77.6 
L 197.28 98.72 
L 190.24 98.72 
L 190.24 91.68 
L 176.16 91.68 
L 176.16 98.72 
L 183.2 98.72 
L 183.2 105.76 
L 176.16 105.76 
L 176.16 112.8 
L 190.24 112.8 
L 190.24 105.76 
L 197.28 105.76 
L 197.28 112.8 
L 211.36 112.8 
L 211.36 105.76 
L 204.32 105.76 
L 204.32 91.68 
L 211.36 91.68 
L 211.36 98.72 
L 218.4 98.72 
L 218.4 91.68 
L 225.44 91.68 
L 225.44 105.76 
L 218.4 105.76 
L 218.4 112.8 
L 225.44 112.8 
L 225.44 126.88 
L 218.4 126.88 
L 218.4 119.84 
L 204.32 119.84 
L 204.32 126.88 
L 211.36 126.88 
L 211.36 133.92 
L 204.32 133.92 
L 204.32 140.96 
L 218.4 140.96 
L 218.4 133.92 
L 225.44 133.92 
L 225.44 148 
L 218.4 148 
L 218.4 155.04 
L 225.44 155.04 
L 225.44 169.12 
L 218.4 169.12 
L 218.4 162.08 
L 211.36 162.08 
L 211.36 169.12 
L 204.32 169.12 
L 204.32 155.04 
L 211.36 155.04 
L 211.36 148 
L 190.24 148 
L 190.24 155.04 
L 197.28 155.04 
L 197.28 169.12 
L 190.24 169.12 
L 190.24 162.08 
L 183.2 162.08 
L 183.2 169.12 
L 176.16 169.12 
L 176.16 155.04 
L 183.2 155.04 
L 183.2 148 
L 176.16 148 
L 176.16 133.92 
L 183.2 133.92 
L 183.2 140.96 
L 197.28 140.96 
L 197.28 133.92 
L 190.24 133.92 
L 190.24 126.88 
L 197.28 126.88 
L 197.28 119.84 
L 183.2 119.84 
L 183.2 126.88 
L 176.16 126.88 
L 176.16 119.84 
L 162.08 119.84 
L 162.08 126.88 
L 169.12 126.88 
L 169.12 140.96 
L 162.08 140.96 
L 162.08 133.92 
L 155.04 133.92 
L 155.04 140.96 
L 148 140.96 
L 148 126.88 
L 155.04 126.88 
L 155.04 119.84 
L 140.96 119.84 
L 140.96 126.88 
L 133.92 126.88 
L 133.92 119.84 
L 119.84 119.84 
L 119.84 126.88 
L 126.88 126.88 
L 126.88 133.92 
L 119.84 133.92 
L 119.84 140.96 
L 133.92 140.96 
L 133.92 133.92 
L 140.96 133.92 
L 140.96 155.04 
L 133.92 155.04 
L 133.92 148 
L 119.84 148 
L 119.84 155.04 
L 126.88 155.04 
L 126.88 162.08 
L 119.84 162.08 
L 119.84 169.12 
L 133.92 169.12 
L 133.92 162.08 
L 140.96 162.08 
L 140.96 169.12 
L 155.04 169.12 
L 155.04 162.08 
L 148 162.08 
L 148 148 
L 155.04 148 
L 155.04 155.04 
L 162.08 155.04 
L 162.08 148 
L 169.12 148 
L 169.12 162.08 
L 162.08 162.08 
L 162.08 169.12 
L 169.12 169.12 
L 169.12 176.16 
L 162.08 176.16 
L 162.08 183.2 
L 169.12 183.2 
L 169.12 197.28 
L 162.08 197.28 
L 162.08 190.24 
L 155.04 190.24 
L 155.04 197.28 
L 148 197.28 
L 148 183.2 
L 155.04 183.2 
L 155.04 176.16 
L 140.96 176.16 
L 140.96 183.2 
L 133.92 183.2 
L 133.92 176.16 
L 119.84 176.16 
L 119.84 183.2 
L 126.88 183.2 
L 126.88 190.24 
L 119.84 190.24 
L 119.84 197.28 
L 133.92 197.28 
L 133.92 190.24 
L 140.96 190.24 
L 140.96 211.36 
L 133.92 211.36 
L 133.92 204.32 
L 119.84 204.32 
L 119.84 211.36 
L 126.88 211.36 
L 126.88 218.4 
L 119.84 218.4 
L 119.84 225.44 
L 133.92 225.44 
L 133.92 218.4 
L 140.96 218.4 
L 140.96 225.44 
L 155.04 225.44 
L 155.04 218.4 
L 148 218.4 
L 148 204.32 
L 155.04 204.32 
L 155.04 211.36 
L 162.08 211.36 
L 162.08 204.32 
L 169.12 204.32 
L 169.12 218.4 
L 162.08 218.4 
L 162.08 225.44 
L 176.16 225.44 
L 176.16 218.4 
L 183.2 218.4 
L 183.2 225.44 
L 197.28 225.44 
L 197.28 218.4 
L 190.24 218.4 
L 190.24 211.36 
L 197.28 211.36 
L 197.28 204.32 
L 183.2 204.32 
L 183.2 211.36 
L 176.16 211.36 
L 176.16 197.28 
L 183.2 197.28 
L 183.2 190.24 
L 176.16 190.24 
L 176.16 176.16 
L 183.2 176.16 
L 183.2 183.2 
L 190.24 183.2 
L 190.24 176.16 
L 197.28 176.16 
L 197.28 190.24 
L 190.24 190.24 
L 190.24 197.28 
L 211.36 197.28 
L 211.36 190.24 
L 204.32 190.24 
L 204.32 176.16 
L 211.36 176.16 
L 211.36 183.2 
L 218.4 183.2 
L 218.4 176.16 
L 225.44 176.16 
L 225.44 190.24 
L 218.4 190.24 
L 218.4 197.28 
L 225.44 197.28 
L 225.44 211.36 
L 218.4 211.36 
L 218.4 204.32 
L 204.32 204.32 
L 204.32 211.36 
L 211.36 211.36 
L 211.36 218.4 
L 204.32 218.4 
L 204.32 225.44 
L 218.4 225.44 
L 218.4 218.4 
L 225.44 218.4 
L 225.44 225.44 
L 232.48 225.44 
L 232.48 218.4 
L 239.52 218.4 
L 239.52 225.44 
L 253.6 225.44 
L 253.6 218.4 
L 246.56 218.4 
L 246.56 211.36 
L 253.6 211.36 
L 253.6 204.32 
L 239.52 204.32 
L 239.52 211.36 
L 232.48 211.36 
L 232.48 197.28 
L 239.52 197.28 
L 239.52 190.24 
L 232.48 190.24 
L 232.48 176.16 
L 239.52 176.16 
L 239.52 183.2 
L 246.56 183.2 
L 246.56 176.16 
L 253.6 176.16 
L 253.6 190.24 
L 246.56 190.24 
L 246.56 197.28 
L 267.68 197.28 
L 267.68 190.24 
L 260.64 190.24 
L 260.64 176.16 
L 267.68 176.16 
L 267.68 183.2 
L 274.72 183.2 
L 274.72 176.16 
L 281.76 176.16 
L 281.76 190.24 
L 274.72 190.24 
L 274.72 197.28 
L 281.76 197.28 
L 281.76 211.36 
L 274.72 211.36 
L 274.72 204.32 
L 260.64 204.32 
L 260.64 211.36 
L 267.68 211.36 
L 267.68 218.4 
L 260.64 218.4 
L 260.64 225.44 
L 274.72 225.44 
L 274.72 218.4 
L 281.76 218.4 
L 281.76 225.44 
L 295.84 225.44 
L 295.84 218.4 
L 288.8 218.4 
L 288.8 204.32 
L 295.84 204.32 
L 295.84 211.36 
L 302.88 211.36 
L 302.88 204.32 
L 309.92 204.32 
L 309.92 218.4 
L 302.88 218.4 
L 302.88 225.44 
L 316.96 225.44 
L 316.96 218.4 
L 324 218.4 
L 324 225.44 
L 338.08 225.44 
L 338.08 218.4 
L 331.04 218.4 
L 331.04 211.36 
L 338.08 211.36 
L 338.08 204.32 
L 324 204.32 
L 324 211.36 
L 316.96 211.36 
L 316.96 190.24 
L 324 190.24 
L 324 197.28 
L 338.08 197.28 
L 338.08 190.24 
L 331.04 190.24 
L 331.04 183.2 
L 338.08 183.2 
L 338.08 176.16 
L 324 176.16 
L 324 183.2 
L 316.96 183.2 
L 316.96 176.16 
L 302.88 176.16 
L 302.88 183.2 
L 309.92 183.2 
L 309.92 197.28 
L 302.88 197.28 
L 302.88 190.24 
L 295.84 190.24 
L 295.84 197.28 
L 288.8 197.28 
L 288.8 183.2 
L 295.84 183.2 
L 295.84 176.16 
L 288.8 176.16 
L 288.8 169.12 
L 295.84 169.12 
L 295.84 162.08 
L 288.8 162.08 
L 288.8 148 
L 295.84 148 
L 295.84 155.04 
L 302.88 155.04 
L 302.88 148 
L 309.92 148 
L 309.92 162.08 
L 302.88 162.08 
L 302.88 169.12 
L 316.96 169.12 
L 316.96 162.08 
L 324 162.08 
L 324 169.12 
L 338.08 169.12 
L 338.08 162.08 
L 331.04 162.08 
L 331.04 155.04 
L 338.08 155.04 
L 338.08 148 
L 324 148 
L 324 155.04 
L 316.96 155.04 
L 316.96 133.92 
L 324 133.92 
L 324 140.96 
L 338.08 140.96 
L 338.08 133.92 
L 331.04 133.92 
L 331.04 126.88 
L 338.08 126.88 
L 338.08 119.84 
L 324 119.84 
L 324 126.88 
L 316.96 126.88 
L 316.96 119.84 
L 302.88 119.84 
L 302.88 126.88 
L 309.92 126.88 
L 309.92 140.96 
L 302.88 140.96 
L 302.88 133.92 
L 295.84 133.92 
L 295.84 140.96 
L 288.8 140.96 
L 288.8 126.88 
L 295.84 126.88 
L 295.84 119.84 
L 281.76 119.84 
L 281.76 126.88 
L 274.72 126.88 
L 274.72 119.84 
L 260.64 119.84 
L 260.64 126.88 
L 267.68 126.88 
L 267.68 133.92 
L 260.64 133.92 
L 260.64 140.96 
L 274.72 140.96 
L 274.72 133.92 
L 281.76 133.92 
L 281.76 148 
L 274.72 148 
L 274.72 155.04 
L 281.76 155.04 
L 281.76 169.12 
L 274.72 169.12 
L 274.72 162.08 
L 267.68 162.08 
L 267.68 169.12 
L 260.64 169.12 
L 260.64 155.04 
L 267.68 155.04 
L 267.68 148 
L 246.56 148 
L 246.56 155.04 
L 253.6 155.04 
L 253.6 169.12 
L 246.56 169.12 
L 246.56 162.08 
L 239.52 162.08 
L 239.52 169.12 
L 232.48 169.12 
L 232.48 155.04 
L 239.52 155.04 
L 239.52 148 
L 232.48 148 
L 232.48 133.92 
L 239.52 133.92 
L 239.52 140.96 
L 253.6 140.96 
L 253.6 133.92 
L 246.56 133.92 
L 246.56 126.88 
L 253.6 126.88 
L 253.6 119.84 
L 239.52 119.84 
L 239.52 126.88 
L 232.48 126.88 
L 232.48 112.8 
L 239.52 112.8 
L 239.52 105.76 
L 232.48 105.76 
L 232.48 91.68 
L 239.52 91.68 
L 239.52 98.72 
L 246.56 98.72 
L 246.56 91.68 
L 253.6 91.68 
L 253.6 105.76 
L 246.56 105.76 
L 246.56 112.8 
L 260.64 112.8 
L 260.64 105.76 
L 267.68 105.76 
L 267.68 112.8 
L 281.76 112.8 
L 281.76 105.76 
L 274.72 105.76 
L 274.72 98.72 
L 281.76 98.72 
L 281.76 91.68 
L 267.68 91.68 
L 267.68 98.72 
L 260.64 98.72 
L 260.64 77.6 
L 267.68 77.6 
L 267.68 84.64 
L 281.76 84.64 
L 281.76 77.6 
L 274.72 77.6 
L 274.72 70.56 
L 281.76 70.56 
L 281.76 63.52 
L 267.68 63.52 
L 267.68 70.56 
L 260.64 70.56 
L 260.64 63.52 
L 246.56 63.52 
L 246.56 70.56 
L 253.6 70.56 
L 253.6 84.64 
L 246.56 84.64 
L 246.56 77.6 
L 239.52 77.6 
L 239.52 84.64 
L 232.48 84.64 
L 232.48 70.56 
L 239.52 70.56 
L 239.52 63.52 
L 232.48 63.52 
L 232.48 49.44 
L 239.52 49.44 
L 239.52 56.48 
L 253.6 56.48 
L 253.6 49.44 
L 246.56 49.44 
L 246.56 42.4 
L 253.6 42.4 
L 253.6 35.36 
L 239.52 35.36 
L 239.52 42.4 
L 232.48 42.4 
L 232.48 28.32 
L 239.52 28.32 
L 239.52 21.28 
L 232.48 21.28 
L 232.48 7.2 
L 239.52 7.2 
L 239.52 14.24 
L 246.56 14.24 
L 246.56 7.2 
L 253.6 7.2 
L 253.6 21.28 
L 246.56 21.28 
L 246.56 28.32 
L 267.68 28.32 
L 267.68 21.28 
L 260.64 21.28 
L 260.64 7.2 
L 267.68 7.2 
L 267.68 14.24 
L 274.72 14.24 
L 274.72 7.2 
L 281.76 7.2 
L 281.76 21.28 
L 274.72 21.28 
L 274.72 28.32 
L 281.76 28.32 
L 281.76 42.4 
L 274.72 42.4 
L 274.72 35.36 
L 260.64 35.36 
L 260.64 42.4 
L 267.68 42.4 
L 267.68 49.44 
L 260.64 49.44 
L 260.64 56.48 
L 274.72 56.48 
L 274.72 49.44 
L 281.76 49.44 
L 281.76 56.48 
L 288.8 56.48 
L 288.8 49.44 
L 295.84 49.44 
L 295.84 56.48 
L 309.92 56.48 
L 309.92 49.44 
L 302.88 49.44 
L 302.88 42.4 
L 309.92 42.4 
L 309.92 35.36 
L 295.84 35.36 
L 295.84 42.4 
L 288.8 42.4 
L 288.8 28.32 
L 295.84 28.32 
L 295.84 21.28 
L 288.8 21.28 
L 288.8 7.2 
L 295.84 7.2 
L 295.84 14.24 
L 302.88 14.24 
L 302.88 7.2 
L 309.92 7.2 
L 309.92 21.28 
L 302.88 21.28 
L 302.88 28.32 
L 324 28.32 
L 324 21.28 
L 316.96 21.28 
L 316.96 7.2 
L 324 7.2 
L 324 14.24 
L 331.04 14.24 
L 331.04 7.2 
L 338.08 7.2 
L 338.08 21.28 
L 331.04 21.28 
L 331.04 28.32 
L 338.08 28.32 
L 338.08 42.4 
L 331.04 42.4 
L 331.04 35.36 
L 316.96 35.36 
L 316.96 42.4 
L 324 42.4 
L 324 49.44 
L 316.96 49.44 
L 316.96 56.48 
L 331.04 56.48 
L 331.04 49.44 
L 338.08 49.44 
L 338.08 63.52 
L 331.04 63.52 
L 331.04 70.56 
L 338.08 70.56 
L 338.08 84.64 
L 331.04 84.64 
L 331.04 77.6 
L 324 77.6 
L 324 84.64 
L 316.96 84.64 
L 316.96 70.56 
L 324 70.56 
L 324 63.52 
L 309.92 63.52 
L 309.92 70.56 
L 302.88 70.56 
L 302.88 63.52 
L 288.8 63.52 
L 288.8 70.56 
L 295.84 70.56 
L 295.84 77.6 
L 288.8 77.6 
L 288.8 84.64 
L 302.88 84.64 
L 302.88 77.6 
L 309.92 77.6 
L 309.92 98.72 
L 302.88 98.72 
L 302.88 91.68 
L 288.8 91.68 
L 288.8 98.72 
L 295.84 98.72 
L 295.84 105.76 
L 288.8 105.76 
L 288.8 112.8 
L 302.88 112.8 
L 302.88 105.76 
L 309.92 105.76 
L 309.92 112.8 
L 324 112.8 
L 324 105.76 
L 316.96 105.76 
L 316.96 91.68 
L 324 91.68 
L 324 98.72 
L 331.04 98.72 
L 331.04 91.68 
L 338.08 91.68 
L 338.08 105.76 
L 331.04 105.76 
L 331.04 112.8 
L 352.16 112.8 
L 352.16 105.76 
L 345.12 105.76 
L 345.12 91.68 
L 352.16 91.68 
L 352.16 98.72 
L 359.2 98.72 
L 359.2 91.68 
L 366.24 91.68 
L 366.24 105.76 
L 359.2 105.76 
L 359.2 112.8 
L 373.28 112.8 
L 373.28 105.76 
L 380.32 105.76 
L 380.32 112.8 
L 394.4 112.8 
L 394.4 105.76 
L 387.36 105.76 
L 387.36 98.72 
L 394.4 98.72 
L 394.4 91.68 
L 380.32 91.68 
L 380.32 98.72 
L 373.28 98.72 
L 373.28 77.6 
L 380.32 77.6 
L 380.32 84.64 
L 394.4 84.64 
L 394.4 77.6 
L 387.36 77.6 
L 387.36 70.56 
L 394.4 70.56 
L 394.4 63.52 
L 380.32 63.52 
L 380.32 70.56 
L 373.28 70.56 
L 373.28 63.52 
L 359.2 63.52 
L 359.2 70.56 
L 366.24 70.56 
L 366.24 84.64 
L 359.2 84.64 
L 359.2 77.6 
L 352.16 77.6 
L 352.16 84.64 
L 345.12 84.64 
L 345.12 70.56 
L 352.16 70.56 
L 352.16 63.52 
L 345.12 63.52 
L 345.12 49.44 
L 352.16 49.44 
L 352.16 56.48 
L 366.24 56.48 
L 366.24 49.44 
L 359.2 49.44 
L 359.2 42.4 
L 366.24 42.4 
L 366.24 35.36 
L 352.16 35.36 
L 352.16 42.4 
L 345.12 42.4 
L 345.12 28.32 
L 352.16 28.32 
L 352.16 21.28 
L 345.12 21.28 
L 345.12 7.2 
L 352.16 7.2 
L 352.16 14.24 
L 359.2 14.24 
L 359.2 7.2 
L 366.24 7.2 
L 366.24 21.28 
L 359.2 21.28 
L 359.2 28.32 
L 380.32 28.32 
L 380.32 21.28 
L 373.28 21.28 
L 373.28 7.2 
L 380.32 7.2 
L 380.32 14.24 
L 387.36 14.24 
L 387.36 7.2 
L 394.4 7.2 
L 394.4 21.28 
L 387.36 21.28 
L 387.36 28.32 
L 394.4 28.32 
L 394.4 42.4 
L 387.36 42.4 
L 387.36 35.36 
L 373.28 35.36 
L 373.28 42.4 
L 380.32 42.4 
L 380.32 49.44 
L 373.28 49.44 
L 373.28 56.48 
L 387.36 56.48 
L 387.36 49.44 
L 394.4 49.44 
L 394.4 56.48 
L 401.44 56.48 
L 401.44 49.44 
L 408.48 49.44 
L 408.48 56.48 
L 422.56 56.48 
L 422.56 49.44 
L 415.52 49.44 
L 415.52 42.4 
L 422.56 42.4 
L 422.56 35.36 
L 408.48 35.36 
L 408.48 42.4 
L 401.44 42.4 
L 401.44 28.32 
L 408.48 28.32 
L 408.48 21.28 
L 401.44 21.28 
L 401.44 7.2 
L 408.48 7.2 
L 408.48 14.24 
L 415.52 14.24 
L 415.52 7.2 
L 422.56 7.2 
L 422.56 21.28 
L 415.52 21.28 
L 415.52 28.32 
L 436.64 28.32 
L 436.64 21.28 
L 429.6 21.28 
L 429.6 7.2 
L 436.64 7.2 
L 436.64 14.24 
L 443.68 14.24 
L 443.68 7.2 
L 450.72 7.2 
L 450.72 21.28 
L 443.68 21.28 
L 443.68 28.32 
L 450.72 28.32 
L 450.72 42.4 
L 443.68 42.4 
L 443.68 35.36 
L 429.6 35.36 
L 429.6 42.4 
L 436.64 42.4 
L 436.64 49.44 
L 429.6 49.44 
L 429.6 56.48 
L 443.68 56.48 
L 443.68 49.44 
L 450.72 49.44 
L 450.72 63.52 
L 443.68 63.52 
L 443.68 70.56 
L 450.72 70.56 
L 450.72 84.64 
L 443.68 84.64 
L 443.68 77.6 
L 436.64 77.6 
L 436.64 84.64 
L 429.6 84.64 
L 429.6 70.56 
L 436.64 70.56 
L 436.64 63.52 
L 422.56 63.52 
L 422.56 70.56 
L 415.52 70.56 
L 415.52 63.52 
L 401.44 63.52 
L 401.44 70.56 
L 408.48 70.56 
L 408.48 77.6 
L 401.44 77.6 
L 401.44 84.64 
L 415.52 84.64 
L 415.52 77.6 
L 422.56 77.6 
L 422.56 98.72 
L 415.52 98.72 
L 415.52 91.68 
L 401.44 91.68 
L 401.44 98.72 
L 408.48 98.72 
L 408.48 105.76 
L 401.44 105.76 
L 401.44 112.8 
L 415.52 112.8 
L 415.52 105.76 
L 422.56 105.76 
L 422.56 112.8 
L 436.64 112.8 
L 436.64 105.76 
L 429.6 105.76 
L 429.6 91.68 
L 436.64 91.68 
L 436.64 98.72 
L 443.68 98.72 
L 443.68 91.68 
L 450.72 91.68 
L 450.72 105.76 
L 443.68 105.76 
L 443.68 112.8 
L 450.72 112.8 
L 450.72 126.88 
L 443.68 126.88 
L 443.68 119.84 
L 429.6 119.84 
L 429.6 126.88 
L 436.64 126.88 
L 436.64 133.92 
L 429.6 133.92 
L 429.6 140.96 
L 443.68 140.96 
L 443.68 133.92 
L 450.72 133.92 
L 450.72 148 
L 443.68 148 
L 443.68 155.04 
L 450.72 155.04 
L 450.72 169.12 
L 443.68 169.12 
L 443.68 162.08 
L 436.64 162.08 
L 436.64 169.12 
L 429.6 169.12 
L 429.6 155.04 
L 436.64 155.04 
L 436.64 148 
L 415.52 148 
L 415.52 155.04 
L 422.56 155.04 
L 422.56 169.12 
L 415.52 169.12 
L 415.52 162.08 
L 408.48 162.08 
L 408.48 169.12 
L 401.44 169.12 
L 401.44 155.04 
L 408.48 155.04 
L 408.48 148 
L 401.44 148 
L 401.44 133.92 
L 408.48 133.92 
L 408.48 140.96 
L 422.56 140.96 
L 422.56 133.92 
L 415.52 133.92 
L 415.52 126.88 
L 422.56 126.88 
L 422.56 119.84 
L 408.48 119.84 
L 408.48 126.88 
L 401.44 126.88 
L 401.44 119.84 
L 387.36 119.84 
L 387.36 126.88 
L 394.4 126.88 
L 394.4 140.96 
L 387.36 140.96 
L 387.36 133.92 
L 380.32 133.92 
L 380.32 140.96 
L 373.28 140.96 
L 373.28 126.88 
L 380.32 126.88 
L 380.32 119.84 
L 366.24 119.84 
L 366.24 126.88 
L 359.2 126.88 
L 359.2 119.84 
L 345.12 119.84 
L 345.12 126.88 
L 352.16 126.88 
L 352.16 133.92 
L 345.12 133.92 
L 345.12 140.96 
L 359.2 140.96 
L 359.2 133.92 
L 366.24 133.92 
L 366.24 155.04 
L 359.2 155.04 
L 359.2 148 
L 345.12 148 
L 345.12 155.04 
L 352.16 155.04 
L 352.16 162.08 
L 345.12 162.08 
L 345.12 169.12 
L 359.2 169.12 
L 359.2 162.08 
L 366.24 162.08 
L 366.24 169.12 
L 380.32 169.12 
L 380.32 162.08 
L 373.28 162.08 
L 373.28 148 
L 380.32 148 
L 380.32 155.04 
L 387.36 155.04 
L 387.36 148 
L 394.4 148 
L 394.4 162.08 
L 387.36 162.08 
L 387.36 169.12 
L 394.4 169.12 
L 394.4 176.16 
L 387.36 176.16 
L 387.36 183.2 
L 394.4 183.2 
L 394.4 197.28 
L 387.36 197.28 
L 387.36 190.24 
L 380.32 190.24 
L 380.32 197.28 
L 373.28 197.28 
L 373.28 183.2 
L 380.32 183.2 
L 380.32 176.16 
L 366.24 176.16 
L 366.24 183.2 
L 359.2 183.2 
L 359.2 176.16 
L 345.12 176.16 
L 345.12 183.2 
L 352.16 183.2 
L 352.16 190.24 
L 345.12 190.24 
L 345.12 197.28 
L 359.2 197.28 
L 359.2 190.24 
L 366.24 190.24 
L 366.24 211.36 
L 359.2 211.36 
L 359.2 204.32 
L 345.12 204.32 
L 345.12 211.36 
L 352.16 211.36 
L 352.16 218.4 
L 345.12 218.4 
L 345.12 225.44 
L 359.2 225.44 
L 359.2 218.4 
L 366.24 218.4 
L 366.24 225.44 
L 380.32 225.44 
L 380.32 218.4 
L 373.28 218.4 
L 373.28 204.32 
L 380.32 204.32 
L 380.32 211.36 
L 387.36 211.36 
L 387.36 204.32 
L 394.4 204.32 
L 394.4 218.4 
L 387.36 218.4 
L 387.36 225.44 
L 401.44 225.44 
L 401.44 218.4 
L 408.48 218.4 
L 408.48 225.44 
L 422.56 225.44 
L 422.56 218.4 
L 415.52 218.4 
L 415.52 211.36 
L 422.56 211.36 
L 422.56 204.32 
L 408.48 204.32 
L 408.48 211.36 
L 401.44 211.36 
L 401.44 197.28 
L 408.48 197.28 
L 408.48 190.24 
L 401.44 190.24 
L 401.44 176.16 
L 408.48 176.16 
L 408.48 183.2 
L 415.52 183.2 
L 415.52 176.16 
L 422.56 176.16 
L 422.56 190.24 
L 415.52 190.24 
L 415.52 197.28 
L 436.64 197.28 
L 436.64 190.24 
L 429.6 190.24 
L 429.6 176.16 
L 436.64 176.16 
L 436.64 183.2 
L 443.68 183.2 
L 443.68 176.16 
L 450.72 176.16 
L 450.72 190.24 
L 443.68 190.24 
L 443.68 197.28 
L 450.72 197.28 
L 450.72 211.36 
L 443.68 211.36 
L 443.68 204.32 
L 429.6 204.32 
L 429.6 211.36 
L 436.64 211.36 
L 436.64 218.4 
L 429.6 218.4 
L 429.6 225.44 
L 443.68 225.44 
L 443.68 218.4 
L 450.72 218.4 
L 450.72 232.48 
L 443.68 232.48 
L 443.68 239.52 
L 450.72 239.52 
L 450.72 253.6 
L 443.68 253.6 
L 443.68 246.56 
L 436.64 246.56 
L 436.64 253.6 
L 429.6 253.6 
L 429.6 239.52 
L 436.64 239.52 
L 436.64 232.48 
L 422.56 232.48 
L 422.56 239.52 
L 415.52 239.52 
L 415.52 232.48 
L 401.44 232.48 
L 401.44 239.52 
L 408.48 239.52 
L 408.48 246.56 
L 401.44 246.56 
L 401.44 253.6 
L 415.52 253.6 
L 415.52 246.56 
L 422.56 246.56 
L 422.56 267.68 
L 415.52 267.68 
L 415.52 260.64 
L 401.44 260.64 
L 401.44 267.68 
L 408.48 267.68 
L 408.48 274.72 
L 401.44 274.72 
L 401.44 281.76 
L 415.52 281.76 
L 415.52 274.72 
L 422.56 274.72 
L 422.56 281.76 
L 436.64 281.76 
L 436.64 274.72 
L 429.6 274.72 
L 429.6 260.64 
L 436.64 260.64 
L 436.64 267.68 
L 443.68 267.68 
L 443.68 260.64 
L 450.72 260.64 
L 450.72 274.72 
L 443.68 274.72 
L 443.68 281.76 
L 450.72 281.76 
L 450.72 295.84 
L 443.68 295.84 
L 443.68 288.8 
L 429.6 288.8 
L 429.6 295.84 
L 436.64 295.84 
L 436.64 302.88 
L 429.6 302.88 
L 429.6 309.92 
L 443.68 309.92 
L 443.68 302.88 
L 450.72 302.88 
L 450.72 316.96 
L 443.68 316.96 
L 443.68 324 
L 450.72 324 
L 450.72 338.08 
L 443.68 338.08 
L 443.68 331.04 
L 436.64 331.04 
L 436.64 338.08 
L 429.6 338.08 
L 429.6 324 
L 436.64 324 
L 436.64 316.96 
L 415.52 316.96 
L 415.52 324 
L 422.56 324 
L 422.56 338.08 
L 415.52 338.08 
L 415.52 331.04 
L 408.48 331.04 
L 408.48 338.08 
L 401.44 338.08 
L 401.44 324 
L 408.48 324 
L 408.48 316.96 
L 401.44 316.96 
L 401.44 302.88 
L 408.48 302.88 
L 408.48 309.92 
L 422.56 309.92 
L 422.56 302.88 
L 415.52 302.88 
L 415.52 295.84 
L 422.56 295.84 
L 422.56 288.8 
L 408.48 288.8 
L 408.48 295.84 
L 401.44 295.84 
L 401.44 288.8 
L 394.4 288.8 
L 394.4 295.84 
L 387.36 295.84 
L 387.36 288.8 
L 373.28 288.8 
L 373.28 295.84 
L 380.32 295.84 
L 380.32 302.88 
L 373.28 302.88 
L 373.28 309.92 
L 387.36 309.92 
L 387.36 302.88 
L 394.4 302.88 
L 394.4 316.96 
L 387.36 316.96 
L 387.36 324 
L 394.4 324 
L 394.4 338.08 
L 387.36 338.08 
L 387.36 331.04 
L 380.32 331.04 
L 380.32 338.08 
L 373.28 338.08 
L 373.28 324 
L 380.32 324 
L 380.32 316.96 
L 359.2 316.96 
L 359.2 324 
L 366.24 324 
L 366.24 338.08 
L 359.2 338.08 
L 359.2 331.04 
L 352.16 331.04 
L 352.16 338.08 
L 345.12 338.08 
L 345.12 324 
L 352.16 324 
L 352.16 316.96 
L 345.12 316.96 
L 345.12 302.88 
L 352.16 302.88 
L 352.16 309.92 
L 366.24 309.92 
L 366.24 302.88 
L 359.2 302.88 
L 359.2 295.84 
L 366.24 295.84 
L 366.24 288.8 
L 352.16 288.8 
L 352.16 295.84 
L 345.12 295.84 
L 345.12 281.76 
L 352.16 281.76 
L 352.16 274.72 
L 345.12 274.72 
L 345.12 260.64 
L 352.16 260.64 
L 352.16 267.68 
L 359.2 267.68 
L 359.2 260.64 
L 366.24 260.64 
L 366.24 274.72 
L 359.2 274.72 
L 359.2 281.76 
L 373.28 281.76 
L 373.28 274.72 
L 380.32 274.72 
L 380.32 281.76 
L 394.4 281.76 
L 394.4 274.72 
L 387.36 274.72 
L 387.36 267.68 
L 394.4 267.68 
L 394.4 260.64 
L 380.32 260.64 
L 380.32 267.68 
L 373.28 267.68 
L 373.28 246.56 
L 380.32 246.56 
L 380.32 253.6 
L 394.4 253.6 
L 394.4 246.56 
L 387.36 246.56 
L 387.36 239.52 
L 394.4 239.52 
L 394.4 232.48 
L 380.32 232.48 
L 380.32 239.52 
L 373.28 239.52 
L 373.28 232.48 
L 359.2 232.48 
L 359.2 239.52 
L 366.24 239.52 
L 366.24 253.6 
L 359.2 253.6 
L 359.2 246.56 
L 352.16 246.56 
L 352.16 253.6 
L 345.12 253.6 
L 345.12 239.52 
L 352.16 239.52 
L 352.16 232.48 
L 338.08 232.48 
L 338.08 239.52 
L 331.04 239.52 
L 331.04 232.48 
L 316.96 232.48 
L 316.96 239.52 
L 324 239.52 
L 324 246.56 
L 316.96 246.56 
L 316.96 253.6 
L 331.04 253.6 
L 331.04 246.56 
L 338.08 246.56 
L 338.08 260.64 
L 331.04 260.64 
L 331.04 267.68 
L 338.08 267.68 
L 338.08 281.76 
L 331.04 281.76 
L 331.04 274.72 
L 324 274.72 
L 324 281.76 
L 316.96 281.76 
L 316.96 267.68 
L 324 267.68 
L 324 260.64 
L 302.88 260.64 
L 302.88 267.68 
L 309.92 267.68 
L 309.92 281.76 
L 302.88 281.76 
L 302.88 274.72 
L 295.84 274.72 
L 295.84 281.76 
L 288.8 281.76 
L 288.8 267.68 
L 295.84 267.68 
L 295.84 260.64 
L 288.8 260.64 
L 288.8 246.56 
L 295.84 246.56 
L 295.84 253.6 
L 309.92 253.6 
L 309.92 246.56 
L 302.88 246.56 
L 302.88 239.52 
L 309.92 239.52 
L 309.92 232.48 
L 295.84 232.48 
L 295.84 239.52 
L 288.8 239.52 
L 288.8 232.48 
L 274.72 232.48 
L 274.72 239.52 
L 281.76 239.52 
L 281.76 253.6 
L 274.72 253.6 
L 274.72 246.56 
L 267.68 246.56 
L 267.68 253.6 
L 260.64 253.6 
L 260.64 239.52 
L 267.68 239.52 
L 267.68 232.48 
L 253.6 232.48 
L 253.6 239.52 
L 246.56 239.52 
L 246.56 232.48 
L 232.48 232.48 
L 232.48 239.52 
L 239.52 239.52 
L 239.52 246.56 
L 232.48 246.56 
L 232.48 253.6 
L 246.56 253.6 
L 246.56 246.56 
L 253.6 246.56 
L 253.6 267.68 
L 246.56 267.68 
L 246.56 260.64 
L 232.48 260.64 
L 232.48 267.68 
L 239.52 267.68 
L 239.52 274.72 
L 232.48 274.72 
L 232.48 281.76 
L 246.56 281.76 
L 246.56 274.72 
L 253.6 274.72 
L 253.6 281.76 
L 267.68 281.76 
L 267.68 274.72 
L 260.64 274.72 
L 260.64 260.64 
L 267.68 260.64 
L 267.68 267.68 
L 274.72 267.68 
L 274.72 260.64 
L 281.76 260.64 
L 281.76 274.72 
L 274.72 274.72 
L 274.72 281.76 
L 281.76 281.76 
L 281.76 288.8 
L 274.72 288.8 
L 274.72 295.84 
L 281.76 295.84 
L 281.76 309.92 
L 274.72 309.92 
L 274.72 302.88 
L 267.68 302.88 
L 267.68 309.92 
L 260.64 309.92 
L 260.64 295.84 
L 267.68 295.84 
L 267.68 288.8 
L 253.6 288.8 
L 253.6 295.84 
L 246.56 295.84 
L 246.56 288.8 
L 232.48 288.8 
L 232.48 295.84 
L 239.52 295.84 
L 239.52 302.88 
L 232.48 302.88 
L 232.48 309.92 
L 246.56 309.92 
L 246.56 302.88 
L 253.6 302.88 
L 253.6 324 
L 246.56 324 
L 246.56 316.96 
L 232.48 316.96 
L 232.48 324 
L 239.52 324 
L 239.52 331.04 
L 232.48 331.04 
L 232.48 338.08 
L 246.56 338.08 
L 246.56 331.04 
L 253.6 331.04 
L 253.6 338.08 
L 267.68 338.08 
L 267.68 331.04 
L 260.64 331.04 
L 260.64 316.96 
L 267.68 316.96 
L 267.68 324 
L 274.72 324 
L 274.72 316.96 
L 281.76 316.96 
L 281.76 331.04 
L 274.72 331.04 
L 274.72 338.08 
L 288.8 338.08 
L 288.8 331.04 
L 295.84 331.04 
L 295.84 338.08 
L 309.92 338.08 
L 309.92 331.04 
L 302.88 331.04 
L 302.88 324 
L 309.92 324 
L 309.92 316.96 
L 295.84 316.96 
L 295.84 324 
L 288.8 324 
L 288.8 309.92 
L 295.84 309.92 
L 295.84 302.88 
L 288.8 302.88 
L 288.8 288.8 
L 295.84 288.8 
L 295.84 295.84 
L 302.88 295.84 
L 302.88 288.8 
L 309.92 288.8 
L 309.92 302.88 
L 302.88 302.88 
L 302.88 309.92 
L 324 309.92 
L 324 302.88 
L 316.96 302.88 
L 316.96 288.8 
L 324 288.8 
L 324 295.84 
L 331.04 295.84 
L 331.04 288.8 
L 338.08 288.8 
L 338.08 302.88 
L 331.04 302.88 
L 331.04 309.92 
L 338.08 309.92 
L 338.08 324 
L 331.04 324 
L 331.04 316.96 
L 316.96 316.96 
L 316.96 324 
L 324 324 
L 324 331.04 
L 316.96 331.04 
L 316.96 338.08 
L 331.04 338.08 
L 331.04 331.04 
L 338.08 331.04 
L 338.08 352.16 
L 331.04 352.16 
L 331.04 345.12 
L 316.96 345.12 
L 316.96 352.16 
L 324 352.16 
L 324 359.2 
L 316.96 359.2 
L 316.96 366.24 
L 331.04 366.24 
L 331.04 359.2 
L 338.08 359.2 
L 338.08 373.28 
L 331.04 373.28 
L 331.04 380.32 
L 338.08 380.32 
L 338.08 394.4 
L 331.04 394.4 
L 331.04 387.36 
L 324 387.36 
L 324 394.4 
L 316.96 394.4 
L 316.96 380.32 
L 324 380.32 
L 324 373.28 
L 302.88 373.28 
L 302.88 380.32 
L 309.92 380.32 
L 309.92 394.4 
L 302.88 394.4 
L 302.88 387.36 
L 295.84 387.36 
L 295.84 394.4 
L 288.8 394.4 
L 288.8 380.32 
L 295.84 380.32 
L 295.84 373.28 
L 288.8 373.28 
L 288.8 359.2 
L 295.84 359.2 
L 295.84 366.24 
L 309.92 366.24 
L 309.92 359.2 
L 302.88 359.2 
L 302.88 352.16 
L 309.92 352.16 
L 309.92 345.12 
L 295.84 345.12 
L 295.84 352.16 
L 288.8 352.16 
L 288.8 345.12 
L 274.72 345.12 
L 274.72 352.16 
L 281.76 352.16 
L 281.76 366.24 
L 274.72 366.24 
L 274.72 359.2 
L 267.68 359.2 
L 267.68 366.24 
L 260.64 366.24 
L 260.64 352.16 
L 267.68 352.16 
L 267.68 345.12 
L 253.6 345.12 
L 253.6 352.16 
L 246.56 352.16 
L 246.56 345.12 
L 232.48 345.12 
L 232.48 352.16 
L 239.52 352.16 
L 239.52 359.2 
L 232.48 359.2 
L 232.48 366.24 
L 246.56 366.24 
L 246.56 359.2 
L 253.6 359.2 
L 253.6 380.32 
L 246.56 380.32 
L 246.56 373.28 
L 232.48 373.28 
L 232.48 380.32 
L 239.52 380.32 
L 239.52 387.36 
L 232.48 387.36 
L 232.48 394.4 
L 246.56 394.4 
L 246.56 387.36 
L 253.6 387.36 
L 253.6 394.4 
L 267.68 394.4 
L 267.68 387.36 
L 260.64 387.36 
L 260.64 373.28 
L 267.68 373.28 
L 267.68 380.32 
L 274.72 380.32 
L 274.72 373.28 
L 281.76 373.28 
L 281.76 387.36 
L 274.72 387.36 
L 274.72 394.4 
L 281.76 394.4 
L 281.76 401.44 
L 274.72 401.44 
L 274.72 408.48 
L 281.76 408.48 
L 281.76 422.56 
L 274.72 422.56 
L 274.72 415.52 
L 267.68 415.52 
L 267.68 422.56 
L 260.64 422.56 
L 260.64 408.48 
L 267.68 408.48 
L 267.68 401.44 
L 253.6 401.44 
L 253.6 408.48 
L 246.56 408.48 
L 246.56 401.44 
L 232.48 401.44 
L 232.48 408.48 
L 239.52 408.48 
L 239.52 415.52 
L 232.48 415.52 
L 232.48 422.56 
L 246.56 422.56 
L 246.56 415.52 
L 253.6 415.52 
L 253.6 436.64 
L 246.56 436.64 
L 246.56 429.6 
L 232.48 429.6 
L 232.48 436.64 
L 239.52 436.64 
L 239.52 443.68 
L 232.48 443.68 
L 232.48 450.72 
L 246.56 450.72 
L 246.56 443.68 
L 253.6 443.68 
L 253.6 450.72 
L 267.68 450.72 
L 267.68 443.68 
L 260.64 443.68 
L 260.64 429.6 
L 267.68 429.6 
L 267.68 436.64 
L 274.72 436.64 
L 274.72 429.6 
L 281.76 429.6 
L 281.76 443.68 
L 274.72 443.68 
L 274.72 450.72 
L 288.8 450.72 
L 288.8 443.68 
L 295.84 443.68 
L 295.84 450.72 
L 309.92 450.72 
L 309.92 443.68 
L 302.88 443.68 
L 302.88 436.64 
L 309.92 436.64 
L 309.92 429.6 
L 295.84 429.6 
L 295.84 436.64 
L 288.8 436.64 
L 288.8 422.56 
L 295.84 422.56 
L 295.84 415.52 
L 288.8 415.52 
L 288.8 401.44 
L 295.84 401.44 
L 295.84 408.48 
L 302.88 408.48 
L 302.88 401.44 
L 309.92 401.44 
L 309.92 415.52 
L 302.88 415.52 
L 302.88 422.56 
L 324 422.56 
L 324 415.52 
L 316.96 415.52 
L 316.96 401.44 
L 324 401.44 
L 324 408.48 
L 331.04 408.48 
L 331.04 401.44 
L 338.08 401.44 
L 338.08 415.52 
L 331.04 415.52 
L 331.04 422.56 
L 338.08 422.56 
L 338.08 436.64 
L 331.04 436.64 
L 331.04 429.6 
L 316.96 429.6 
L 316.96 436.64 
L 324 436.64 
L 324 443.68 
L 316.96 443.68 
L 316.96 450.72 
L 331.04 450.72 
L 331.04 443.68 
L 338.08 443.68 
L 338.08 450.72 
L 352.16 450.72 
L 352.16 443.68 
L 345.12 443.68 
L 345.12 429.6 
L 352.16 429.6 
L 352.16 436.64 
L 359.2 436.64 
L 359.2 429.6 
L 366.24 429.6 
L 366.24 443.68 
L 359.2 443.68 
L 359.2 450.72 
L 373.28 450.72 
L 373.28 443.68 
L 380.32 443.68 
L 380.32 450.72 
L 394.4 450.72 
L 394.4 443.68 
L 387.36 443.68 
L 387.36 436.64 
L 394.4 436.64 
L 394.4 429.6 
L 380.32 429.6 
L 380.32 436.64 
L 373.28 436.64 
L 373.28 415.52 
L 380.32 415.52 
L 380.32 422.56 
L 394.4 422.56 
L 394.4 415.52 
L 387.36 415.52 
L 387.36 408.48 
L 394.4 408.48 
L 394.4 401.44 
L 380.32 401.44 
L 380.32 408.48 
L 373.28 408.48 
L 373.28 401.44 
L 359.2 401.44 
L 359.2 408.48 
L 366.24 408.48 
L 366.24 422.56 
L 359.2 422.56 
L 359.2 415.52 
L 352.16 415.52 
L 352.16 422.56 
L 345.12 422.56 
L 345.12 408.48 
L 352.16 408.48 
L 352.16 401.44 
L 345.12 401.44 
L 345.12 387.36 
L 352.16 387.36 
L 352.16 394.4 
L 366.24 394.4 
L 366.24 387.36 
L 359.2 387.36 
L 359.2 380.32 
L 366.24 380.32 
L 366.24 373.28 
L 352.16 373.28 
L 352.16 380.32 
L 345.12 380.32 
L 345.12 366.24 
L 352.16 366.24 
L 352.16 359.2 
L 345.12 359.2 
L 345.12 345.12 
L 352.16 345.12 
L 352.16 352.16 
L 359.2 352.16 
L 359.2 345.12 
L 366.24 345.12 
L 366.24 359.2 
L 359.2 359.2 
L 359.2 366.24 
L 380.32 366.24 
L 380.32 359.2 
L 373.28 359.2 
L 373.28 345.12 
L 380.32 345.12 
L 380.32 352.16 
L 387.36 352.16 
L 387.36 345.12 
L 394.4 345.12 
L 394.4 359.2 
L 387.36 359.2 
L 387.36 366.24 
L 394.4 366.24 
L 394.4 380.32 
L 387.36 380.32 
L 387.36 373.28 
L 373.28 373.28 
L 373.28 380.32 
L 380.32 380.32 
L 380.32 387.36 
L 373.28 387.36 
L 373.28 394.4 
L 387.36 394.4 
L 387.36 387.36 
L 394.4 387.36 
L 394.4 394.4 
L 401.44 394.4 
L 401.44 387.36 
L 408.48 387.36 
L 408.48 394.4 
L 422.56 394.4 
L 422.56 387.36 
L 415.52 387.36 
L 415.52 380.32 
L 422.56 380.32 
L 422.56 373.28 
L 408.48 373.28 
L 408.48 380.32 
L 401.44 380.32 
L 401.44 366.24 
L 408.48 366.24 
L 408.48 359.2 
L 401.44 359.2 
L 401.44 345.12 
L 408.48 345.12 
L 408.48 352.16 
L 415.52 352.16 
L 415.52 345.12 
L 422.56 345.12 
L 422.56 359.2 
L 415.52 359.2 
L 415.52 366.24 
L 436.64 366.24 
L 436.64 359.2 
L 429.6 359.2 
L 429.6 345.12 
L 436.64 345.12 
L 436.64 352.16 
L 443.68 352.16 
L 443.68 345.12 
L 450.72 345.12 
L 450.72 359.2 
L 443.68 359.2 
L 443.68 366.24 
L 450.72 366.24 
L 450.72 380.32 
L 443.68 380.32 
L 443.68 373.28 
L 429.6 373.28 
L 429.6 380.32 
L 436.64 380.32 
L 436.64 387.36 
L 429.6 387.36 
L 429.6 394.4 
L 443.68 394.4 
L 443.68 387.36 
L 450.72 387.36 
L 450.72 401.44 
L 443.68 401.44 
L 443.68 408.48 
L 450.72 408.48 
L 450.72 422.56 
L 443.68 422.56 
L 443.68 415.52 
L 436.64 415.52 
L 436.64 422.56 
L 429.6 422.56 
L 429.6 408.48 
L 436.64 408.48 
L 436.64 401.44 
L 422.56 401.44 
L 422.56 408.48 
L 415.52 408.48 
L 415.52 401.44 
L 401.44 401.44 
L 401.44 408.48 
L 408.48 408.48 
L 408.48 415.52 
L 401.44 415.52 
L 401.44 422.56 
L 415.52 422.56 
L 415.52 415.52 
L 422.56 415.52 
L 422.56 436.64 
L 415.52 436.64 
L 415.52 429.6 
L 401.44 429.6 
L 401.44 436.64 
L 408.48 436.64 
L 408.48 443.68 
L 401.44 443.68 
L 401.44 450.72 
L 415.52 450.72 
L 415.52 443.68 
L 422.56 443.68 
L 422.56 450.72 
L 436.64 450.72 
L 436.64 443.68 
L 429.6 443.68 
L 429.6 429.6 
L 436.64 429.6 
L 436.64 436.64 
L 443.68 436.64 
L 443.68 429.6 
L 450.72 429.6 
L 450.72 443.68 
L 443.68 443.68 
L 443.68 450.72 
L 450.72 450.72 
L 450.72 450.72 
" clip-path="url(#pdc40e3de2a)" style="fill: none; stroke: #9467bd; stroke-width: 0.8; stroke-linecap: round"/>
   </g>
  </g>
 </g>
 <defs>
  <clipPath id="pdc40e3de2a">
   <rect x="7.2" y="7.2" width="443.52" height="443.52"/>
  </clipPath>
 </defs>
</svg>
