<?xml version="1.0" encoding="UTF-8"?>
<svg id="Layer_1" xmlns="http://www.w3.org/2000/svg" version="1.1" viewBox="0 0 595.28 841.89">
  <!-- Generator: Adobe Illustrator 29.5.1, SVG Export Plug-In . SVG Version: 2.1.0 Build 141)  -->
  <defs>
    <style>
      .st0 {
        fill: none;
        stroke: #231f20;
        stroke-miterlimit: 10;
      }
    </style>
  </defs>
  <path class="st0" d="M301,403c3-6,11-3,16-5,0-4-2-7-2-11,0,4,4,8,2,11-2,4-8,1-13,3-1,1-2,1-3,2h0Z"/>
  <path class="st0" d="M298,388c-3-2-4-6-2-9,1-2,3-4,6-3s4,2,5,5c1,5-3,7-7,8-1,0-1-1-2-1h0ZM300,388c5,1,7-5,6-9-1-1-4-3-6-2-4,1-5,6-4,9,1,1,3,1,4,2h0Z"/>
  <path class="st0" d="M289,384v-3c-1,1-2,2-3,2-1-1-4,5-4-1,1,0,1,1,2,1l6-3c3-2-1-6,2-8l-3,12h0Z"/>
  <path class="st0" d="M280,382c-2,1-2,4-6,3-2-1-6-4-4-5,3-2,7,0,10-2,1,0-1-4-2-5-3-1-6,0-8,3,1-5,7-5,10-2,2,2,1,5,0,8h0ZM271,380c0,4,3,5,6,4,1-1,4-2,3-5-3,1-6,1-9,1h0Z"/>
  <path class="st0" d="M269,388q0,1-1,1c0-1-1-1-1-2-1,4-2,7-6,8-1,0-1-1-2-2,1,3-1,6-2,7-5,2-8-4-11-7l1-1c3,2,4,8,8,7,6-1,2-9-1-13-1-1,0-2,1-1,2,3,3,7,6,9h2c2-2,4-4,3-8,0-4-6-3-6-7,4,2,6,6,9,9h0Z"/>
  <path class="st0" d="M256,412c-4-1-7-3-12-1,3-4,9,0,12,1h0ZM262,411l1,1c0,1-1,2-2,1s0-2,1-2h0ZM261.32,412.28h0Z"/>
  <path class="st0" d="M256,415c0,2-1,2-2,2,5,1,3,7,1,9-3,1-5,4-9,1-2-2-3-6-1-9,1,0,1-1,2-1-3,0-6,0-9,1,2-1,4-2,6-2,4,1,8,1,12-1h0ZM246,419c-4,3-1,7,3,8,3,0,6,0,7-3,1-2,1-6-2-7-2,0-3,1-6,0-1,0-1,1-2,2h0Z"/>
  <path class="st0" d="M261,438h-1c1-1,2-1,2-2,0-3-1-8-4-6s0,8-4,11c0-1-1-1-2-1-2-2-3-4-3-7,0-1,1-1,2-2,0,1-1,1-1,2-1,3,2,9,5,7s0-7,1-10c0-1,2-1,3-1,3,2,4,6,2,9h0Z"/>
  <path class="st0" d="M266,438h1c-2,3-8,4-7,8,0,2,2,5,6,4,3-1,5-3,7-5-3,2-5,6-9,8,0-1,1-1,1-2-2,1-5-1-6-3-1-5,4-7,7-10h0Z"/>
  <path class="st0" d="M277,446h1c0,1-1,1-1,2,2,0,3-1,5-2,2,0,4,1,5,3,0,1-1,2-1,3,3,1,5-6,9,0,2,4-3,7-3,11,0-4,5-9,1-11-6-4-9,3-11,8,0-3,2-5,4-8s-1-5-4-5c-6,0-8,7-8,11,0-4,2-8,3-12h0Z"/>
  <path class="st0" d="M314,447c0-3-1-6-3-8,4,3,3,9,4,14,0,1,2,2,2,4l-2-2c-2,3-7,4-9,2-2-3-2-6,0-10,2-3,6-2,8,0h0ZM312,447c-1-2-3-1-4-1-3,2-4,5-3,8,1,2,4,4,6,4,5-1,3-6,3-10,0,0-1-1-2-1h0Z"/>
  <path class="st0" d="M319,439c5-3,10,0,11,5,0,2-1,4-2,5-2,2-5,1-7,1-4-2-4-7-2-11h0ZM319,441c-1,1-1,3,0,5,2,2,4,5,7,4s4-5,3-8c-2-4-7-5-10-1h0Z"/>
  <path class="st0" d="M321,430v-1c5,0,7,6,10,10,1,1,3,2,5,2-2,0-4-1-5-2-3-3-5-7-10-9h0Z"/>
  <path class="st0" d="M330,426c3-5,10-3,12,1,1,3,0,7-4,8-5,1-9-4-8-9h0ZM330,428c1,3,2,7,6,7,3-1,6-2,6-5-1-3-2-6-6-6-3-1-4,2-6,4h0Z"/>
  <path class="st0" d="M334,418v-1c1,0,2,1,3,1-2-2,0-5-1-7h1c-3,6,3,11,9,11-4,0-8-3-12-4h0Z"/>
  <path class="st0" d="M339,396h1c-1,0-1,1-2,1-2,2-1,5-1,7l2,1c4-2,4-11,9-7,3,2,1,7-3,9,2-3,4-5,3-9,0,0-1-1-2-1-4,1-4,7-7,9l-2-1c-2-3-2-8,2-9h0Z"/>
  <path class="st0" d="M329,396q-1,0-1-1c1-1,2-1,3-1-2-1,0,3-2,2h0ZM329.82,394.44h0ZM335,393c4,0,8,1,12-2-2,5-8,3-12,2h0Z"/>
  <path class="st0" d="M328,391c2-1,4-2,5-3,0-1-2-4,1-3v3c4,0,10,2,11-4,0-1-1-1-1-2,1,1,2,3,1,4-3,3-7,3-11,3v3c0-1,0-3-1-3-2,0-3,1-5,2h0Z"/>
  <path class="st0" d="M326,369c-1,0-1,1-2,1,4-2,8-3,11-6,0,1,0,2-1,2,2,2,5,3,4,6s-3,6-7,6c-2,0-4-1-5-2-1-2-2-4,0-7h0ZM326,371c0,2,0,4,2,5s4,2,7,0c3-3,3-9-2-10-2,3-6,1-7,5h0Z"/>
  <path class="st0" d="M321,368h-1c0-1,1-1,1-2-3,1-7-2-8-5,0-1,1-1,2-2-3,1-8,0-8-4,1-4,4-6,7-9,0,4-5,5-6,9,0,1,1,3,2,3,5,1,9-1,12-5,0,4-4,4-7,6-2,2,0,4,1,6,6,5,9-3,13-6-2,3-6,5-8,9h0Z"/>
  <path class="st0" d="M302,355c-2,2-5,1-7,0-2-2-4-6-1-6,3-1,6,2,9,2,2,0,1-3,1-5-2-2-5-3-8-1,1-3,6-2,7-1,3,3,3,8-1,11h0ZM295,348c-1,1-2,4-1,5,2,2,6,3,9,0-3-2-5-3-8-5h0Z"/>
  <path class="st0" d="M288,360c1-5-1-5-3-8,1,0,2,1,3,1,2-2,4-6,2-10-1-2-4,0-5-2,4-1,6,1,6,5,0,3-1,6-3,8,1,0,4-2,3,1-1,0-2,0-3-1v6h0Z"/>
  <path class="st0" d="M280,342c-1-2,1-4,3-4-3,2-2,4-1,6-1,0-2,0-2-2h0ZM280.63,342.39h0Z"/>
  <path class="st0" d="M261,354c2,0,4,4,7,2s4-7,2-10c-3-3-7-2-9,2l-1-1c2-3,5-4,8-3,2,1,3,3,4,5,0,2-1,4-2,6-3,2-7,3-9-1h0Z"/>
  <path class="st0" d="M257,361c-3,2-7,1-9-2s-1-7,1-9c4-4,8,1,10,4,1,2,0,5-2,7h0ZM257,359c2-2,1-4,1-6-1-3-6-4-9-1-2,2-1,4-1,6,1,3,5,4,8,3,0,0,1-1,1-2h0Z"/>
  <path class="st0" d="M249,366q0,1-1,1c0-1-1-1-1-2,0,3-2,5-4,6-5,1-6-6-9-9,2,3,4,9,8,8,8-2,2-10,0-14,1,4,4,7,7,10h0Z"/>
  <path class="st0" d="M231,381v-1c1,0,1,1,2,1,3-1,6-5,5-7-3-2-6,2-9,3-1,0-2-1-3-1,0-3,2-7,5-8,1,0,2,1,3,1-4,0-8,2-7,5,1,4,6-1,10-1,2,0,3,3,1,5s-4,3-7,3h0Z"/>
  <path class="st0" d="M231,384c2,3,1,7-2,8-2,0-5,1-6-1,0-4,6-5,6-9-2,0-4-2-6-1-3,2-4,5-3,8-2-4,1-9,5-9,2,0,5,0,6,4h0ZM224,391c2,1,4,1,6,0,2-2,2-5,0-8-2,3-4,5-6,8h0Z"/>
  <path class="st0" d="M223,405h-1c3,0,6-3,5-6-1-2-2-4-4-5s-4,0-6,2,0,5,0,7c-4-3-1-9,3-10,4,0,7,3,8,7,1,3-3,4-5,5h0Z"/>
  <path class="st0" d="M232,410c-2,0-4,0-6,1-1,1,0,4-2,3-1-1,1-2,2-3-2-2-5-3-8-3-1,0-2,1-3,1-3,0,1,4-2,4,1-7,9-7,13-3,1-1,1-2,1-3,0,1,0,2-1,3h6Z"/>
  <path class="st0" d="M224,416c1,1,3,2,3,4,1,4-3,7-7,6,1-3,2-7,1-10h-4c-1,2-3,3-3,6s3,2,3,4c-2-2-4-4-3-7,2-3,6-5,10-3h0ZM221,425l1,1c3,0,5-4,4-6-1-1-2-5-4-4-2,2-1,6-1,9h0Z"/>
  <path class="st0" d="M234,427c0,4-4,2-5,3,0,1,2,4-1,3v-3c-2-1-5,0-8,0-4,0-3,3-3,6,0-1-1-1-1-2,1-6,7-5,12-5,0,0-1-3,1-2v2c2-1,3-1,5-2h0Z"/>
  <path class="st0" d="M230,435c1,0,1,1,1,1-4,1-8,1-11,3-1,2,2,6,4,7,3,1,6,0,9-2-3,3-8,3-12,4,2,0,2-1,3-2-2,0-5-1-5-5,1-5,7-4,11-6h0Z"/>
  <path class="st0" d="M234,448c1,1,3,1,4,2,2,3,1,9-2,8-3,0-1-7-4-8-2-1-5,1-5,5,0,3,3,4,5,5-2-1-4-1-5-4,0-4,1-9,7-8h0ZM236,458c2-2,5-4,2-7-2-1-4-3-6-2,1,3,2,6,4,9h0Z"/>
  <path class="st0" d="M244,457c0,2-2,2-3,2,3,0,5,2,7,3,1,1,0,1-1,1,0-1-1-2-1-2-4-2-10-2-12,4,2-4,6-6,10-8h0Z"/>
  <path class="st0" d="M259,474c1-1,2-1,2-3,0,2-2,4-3,5-2,1-4,3-5,5v-2c-3,1-5-1-6-4-1-4,2-7,5-8,4-1,7,3,7,7h0ZM259,472c-1-5-7-6-10-2-2,2-2,5-1,7,1,1,4,3,6,2,2-2,5-2,5-7h0Z"/>
  <path class="st0" d="M272,479c2-3,3-6,3-9,0,7-4,12-8,17v-2c-1,1-2,1-3,1-4-2-5-6-3-10,1-1,3-3,5-3,3,0,7,2,6,6h0ZM271,477l-3-3c-3-1-6,0-7,3-2,5,2,10,7,8,1-1,1-3,3-5v-3h0Z"/>
  <path class="st0" d="M277,477h1c-4,2-4,8-4,12-4-4,1-9,3-12h0ZM277,471l1-1c0,2,3,0,2,2-1,0-2,0-3-1h0ZM278.5,471.57h0Z"/>
  <path class="st0" d="M280,477c2,0,1,1,1,2,3-2,8-1,9,3,1,5-2,10-7,9-3,0-3-3-4-5-1,3-1,7-1,10,0-5,0-11,3-16,0-1-1-2-1-3h0ZM280,488c3,4,9,1,10-3,0-2,0-4-1-5-2-2-6-2-8,0,0,1,0,4-2,6,0,0,1,1,1,2h0Z"/>
  <path class="st0" d="M293,473q0-1,1-1c1,0,2,1,1,2s-2,0-2-1h0ZM294.11,473.3h0ZM294,479h1c-2,4-4,7-2,12-1-4-2-8,1-12h0Z"/>
  <path class="st0" d="M307,481q0,1-1,1c0-1-1-1-1-2-2-2-5-1-7-1l-1,2c3,3,11,4,8,9-1,2-7,2-9-2l1-1c1,4,7,4,9,1l-1-2c-3-2-6-3-8-5v-2c3-1,6-2,9,0,0,1,1,1,1,2h0Z"/>
  <path class="st0" d="M319,478c-2-1-4-3-6-2s-5,3-4,6c1,2,2,5,5,6s4-1,6-3c0,1-1,1-1,2-2,2-5,1-7,1-3-1-4-6-3-9,2-3,6-5,10-1h0Z"/>
  <path class="st0" d="M318,468c0-2,1-1,2-1v2c-1,1-2,0-2-1h0ZM319.14,468.31h0ZM321,474c0-1,1-1,1-1,0,4,1,8,3,12-4-2-4-7-4-11h0Z"/>
  <path class="st0" d="M324,472q0-1,1-1c0,1,1,1,1,2,1-3,4-5,7-4,4,2,4,7,5,10-4-2-1-8-5-10-3-1-6,2-7,5s3,6,3,9c-3-3-1-8-5-11h0Z"/>
  <path class="st0" d="M345,461c0-1-1-1-1-2,3,5,8,10,7,16,0,2-2,4-5,3,2,0,4-1,5-3s0-4-2-6c-1,3-4,4-7,4-2,0-3-2-4-3-1-3-1-5,1-8,2-2,4-1,6-1h0ZM343,461c-1,0-3,0-4,1-2,2-2,5,0,8,3,3,10,3,10-2,0-3-1-6-6-7h0Z"/>
  <path class="st0" d="M350,454c-1-3,1-6,3-7,2,0,5-2,7,2-3,2-7,4-7,7-1,2,4,3,6,2s3-3,3-6v4c-1,2-4,4-7,3-2-1-3-3-5-5h0ZM359,449c-1-2-4-3-6-1s-3,5-1,7c2-2,4-4,7-6h0Z"/>
  <path class="st0" d="M351,440c-1,0-1-1-1-1,7,0,10,8,16,10-2,0-4,0-5-1-3-3-4-8-10-8h0Z"/>
  <path class="st0" d="M352,437c-2-2,3,0,1-2l1,1c-1,0-1,1-2,1h0ZM353.03,436.14h0ZM358,439v-1c2,4,5,7,10,7-4-1-8-1-10-6h0Z"/>
  <path class="st0" d="M354,433v-1c3,0,3,7,8-1l1,1c-2,0-3,1-3,2,2,4,6,5,10,6,2,0,0-4,3-3,0,1-1,1-1,2-5,4-8-2-12-5,0,0-2,1-2,3,0-1,0-2,1-3-2,0-3-1-5-1h0Z"/>
  <path class="st0" d="M374,431c1,1,2,2,3,4-2,0,0-3-2-3-1,0-2,2-3,1s0-2,2-2h0ZM373.24,431.59h0Z"/>
  <path class="st0" d="M370,411h-2c-1,2-4,6-1,8,1,1,3,0,3-1,1-4,3-5,6-6,0,2,1,1,2,2,1,3-1,5-2,8h-3c4-1,6-6,3-9-5,1-7,10-11,6-1-2,0-6,2-8h3Z"/>
  <path class="st0" d="M368,407c-2-2-3-5-1-8,2-2,4-1,6-1-1,3-1,7-2,10,2,0,4,1,6-1,2-3,1-6-1-9,3,1,4,4,3,7-2,3-8,6-11,2h0ZM372,398c-2,0-5,1-5,3-1,3,1,5,3,7,1-3,1-7,2-10h0Z"/>
  <path class="st0" d="M367,386c-3-3-6,1-9,1,6-4,13,0,19-3,0,2-1,1-2,1,2,2,4,7,0,10s-10,1-11-4c0-2,2-4,3-5h0ZM367,387c-3,2-2,6,0,8,4,3,8-1,10-4,1-2-1-5-3-5s-5-2-7,1h0Z"/>
  <path class="st0" d="M361,368c-4-2-5,3-9,3,3-4,9-3,14-4,1-1,3-2,4-3,0,2-1,2-2,2,2,1,4,2,4,4-1,2-1,6-4,7-3,0-6,1-8-1s-1-6,1-8h0ZM360,369c-3,4,2,8,6,8,1-1,3-1,4-2,2-2,1-7-1-7-3-1-6-1-9,1h0Z"/>
  <path class="st0" d="M351,369c-2,0-1-1-1-2,2,0,1,1,1,2h0ZM350.89,367.52h0ZM356,365c0-6,3,0,4-1,2-2,6-1,7-5-1,6-7,4-11,6h0Z"/>
  <path class="st0" d="M351,352l-2,2c0-3,3-3,4-3,4,1,4-3,7-3l-1,1c1,1,3,2,4,4,1,3-2,7-5,8s-5-1-7-2c-1-2-2-4,0-7h0ZM351,354c-1,2,1,5,2,6,4,1,10-1,9-6,0-2-2-4-4-4-2,1-6,0-7,4h0Z"/>
  <path class="st0" d="M345,352c0-1,0-2,1-2-3,0-4-2-6-4-1-1-2-2,1-5-4,1-7-2-6-4,0-3,4-7,8-8-2,2-4,3-7,5-1,1-1,3-1,4,1,3,5,3,7,3,2-1,5-3,7-4,0,4-5,3-7,4-3,1-2,6,0,7,2,0,3,1,5,1,3-1,4-5,8-5-4,2-6,6-10,8h0Z"/>
  <path class="st0" d="M324,334c0-1,1-1,1-2-3,1-7,0-8-3,0-4,2-8,6-10-2,4-7,7-5,11,2,2,5,1,7,1,4,0,2-6,6-7-3,3-4,7-7,10h0Z"/>
  <path class="st0" d="M309,328c-4,0-6-4-5-8s7-7,10-4c1,2,3,4,2,7s-4,5-7,5h0ZM310,327c4-1,6-5,5-9-2-3-7-2-9,0-3,3-1,10,4,9h0Z"/>
  <path class="st0" d="M300,325c0,1,0,2-1,1v-3c-3,2-6,3-8,0s2-7,1-11c3,0,1,2,1,3-1,2-3,4-2,7,1,1,3,2,4,2,5,0,7-7,7-11,2,5-2,8-2,12h0Z"/>
  <path class="st0" d="M287,324c-4-2,1-6,0-8-1-6-7-4-9-1s-1,6,0,9c-5-2,1-6,0-9,0-1-1-2-1-3l1-1v3c3-3,7-4,8-1,2,3,1,7,1,11h0Z"/>
  <path class="st0" d="M274,325c-2,0-2-1-2-2-2,3-6,4-9,2,0-1-1-1-1-2-2,1-3,4-5,4-5-1-4-8-4-12,2,3,0,8,2,11h4c1-1,2-3,3-4,3-2-1-6,2-8,1,4-4,10,1,12,7,2,8-8,6-13,4,3,0,8,3,12h0Z"/>
  <path class="st0" d="M252,330l-1,1c0-1-1-1-1-2,0,4-5,6-8,5-1-1-1-2-2-3,0,3-2,5-4,5-5,1-4-6-7-10,4,2,1,9,5,9,7,1,7-8,5-13,2,3,0,8,3,11,4,2,7-1,8-5,1-3-3-6-3-9,3,3,1,8,5,11h0Z"/>
  <path class="st0" d="M233,341c-5-1-7-5-10-8,0,4-1,9,2,13-4-6-3-14-3-21,0,0,1,0,1,1l-1,1c-1,7,7,10,11,14h0Z"/>
  <path class="st0" d="M220,352v1l-2-2c1,4-2,7-5,7-4-1-6-5-8-9,4,2,5,10,10,7,6-3,0-8-3-13,4,2,5,7,8,9h0Z"/>
  <path class="st0" d="M212,362c0,1,0,2-1,1-2-4-4-8-9-8,5,0,8,3,10,7h0ZM218,365c0,2-1,2-2,2v-2h2ZM216.36,365.53h0Z"/>
  <path class="st0" d="M215,368v1c-2,0-5,0-6-4,0,5-7,8-11,5-4-4-1-10,4-11-1,0-1-1-2-1,4,2,8,5,11,9,1,1,3,1,4,1h0ZM201,360c-3,1-5,4-4,7,1,2,3,4,5,4s5-2,6-4c1-4-3-7-7-7h0Z"/>
  <path class="st0" d="M209,379c1,0,1,1,1,1-3,1-6-1-8-3,1,4-3,9-5,6-3-2-6-1-8-3,4,0,6,3,9,4,1,0,1-1,2-1,2-2,1-5,1-7-1-5-6-1-8-5,5,1,8,5,12,7,1,0,3,1,4,1h0Z"/>
  <path class="st0" d="M196,394c1,2,4,4,1,7-2,2-6,4-6,1-1-3,3-6,2-9,0-3-5-1-7,1-3,3,1,4,1,7-3-1-2-5-1-7,2-3,7-4,10,0h0ZM190,402c4,1,6,0,7-4,0-2-1-4-3-5-1,3-2,6-4,9h0Z"/>
  <path class="st0" d="M196,406v1c-3,1-7-2-10-1-3,2-3,6,1,8,3,1,6,1,9,2-4,1-9-2-13-1,1,0,2,0,3-1-3-2-3-6-1-8,3-3,7,1,11,0h0Z"/>
  <path class="st0" d="M196,420v1c-3-3-8-2-12-1,4-4,8-1,12,0h0ZM202,418l1,1c-1,0-1,1-1,2l-1-1c1,0,1-1,1-2h0ZM201.63,419.68h0Z"/>
  <path class="st0" d="M195,433c-1,0-1-1-1-1,3-1,4-6,2-8h-3c-1,4-2,10-6,9-3-1-2-6-2-9,0-1,2-1,3-1-1,0-2,1-2,1-2,2-2,5,0,8h2c4-2,4-11,8-8,2,1,1,5,1,8-1,0-2,0-2,1h0Z"/>
  <path class="st0" d="M199,435c-1,0-1,1-2,1,3,1,4,4,5,7,0,1-1,2-3,3,4,2,6,8,1,8-3,1-6,2-9,2,4-1,8-1,11-3,1-2-2-6-4-7-3-1-6,0-9,0,2-5,6,1,9,0,2-1,4-2,3-6-3-5-8-4-13-2-1,0-2,0-1-1,4-2,8,0,12-2h0Z"/>
  <path class="st0" d="M209,459c2,3,0,5-1,7-2,3-6,4-9,2-2-2-3-6-1-9,3-3,8-3,11,0h0ZM207,459c-5-3-10,1-10,5s6,5,9,4,4-7,1-9h0Z"/>
  <path class="st0" d="M217,477c4,0,3-6,7-6-2,7-11,5-16,10,0-1,1-1,1-2-1,0-2,0-3-1-3-4,0-8,3-10,3-1,6,0,8,2,3,2-1,4,0,7h0ZM217,475c0-3-1-7-5-7-3,0-6,3-7,6,0,3,2,5,5,5,2-1,6,0,7-4h0Z"/>
  <path class="st0" d="M229,477h1c-1,4-4,5-2,9-2-6-6,0-9,1-1,1-3,3,1,6-4,0-4-5-1-7,2-2,5-2,7-4,0-1,0-2-2-2,2,0,2,1,2,2,1-2,2-3,3-5h0Z"/>
  <path class="st0" d="M230,486c1,0,2,0,1,1-3,2-8,3-9,8,1-4,4-7,8-9h0ZM234,481c2,0,0,1,1,2-2,0-2-1-2-2h1ZM234.1,482.27h0Z"/>
  <path class="st0" d="M234,488c0,1,0,2-1,3,3-1,7,1,6,4,0,4-4,6-7,9,3-3,8-5,7-10-1-3-5-3-7-3-3,0-3,6-7,6,2-4,7-5,9-9h0Z"/>
  <path class="st0" d="M251,503v1c0-5-5-8-9-5-1,2-3,4-2,7,1,2,4,4,7,3-1,0-1,1-2,1-2-1-4-1-5-2-1-3-2-6,1-9,2-1,5-3,7-2s3,3,3,6h0Z"/>
  <path class="st0" d="M256,501c0,3-5,4-5,7,0,2,1,4-1,5,0-5,2-9,6-12h0ZM257,495c1,0,2,0,2,1s0,1-1,1-1-1-1-2h0ZM257.78,496.37h0Z"/>
  <path class="st0" d="M267,509c4-2-1-6,3-9,0,7-5,11-7,17v-2c-2,2-4,1-6,0-1-2-3-4-2-7s5-6,8-5c2,2,5,2,4,6h0ZM266,507c-2-2-4-4-7-3-2,1-3,4-4,6,0,4,5,7,7,4,2-1,5-4,4-7h0Z"/>
  <path class="st0" d="M271,506h1c0,4-5,9-1,11,6,4,10-3,10-9,0,3-1,6-2,9,0,1,0,3-2,3,0-1,1-1,1-2-3,2-7,1-9-1v-3c1-2,3-5,2-8h0Z"/>
  <path class="st0" d="M284,508c2,0,1,1,1,2,3-2,7-3,8,0,2,3,0,7-1,11-1-3,1-5,2-8,0-1,0-3-2-4-2,0-5-1-7,2s-1,7-1,10c-3-4,1-9,0-13h0Z"/>
  <path class="st0" d="M298,503c0-1,1-1,1-1,0,2,0,4,1,6,1,1,3,0,3,2-1,0-2-1-3-1-2,2-3,7-1,10,1,1,3,1,4,1,0,2-1,1-2,1-6-2-3-8-2-12,0,0-2-1-3-1h3c0-2-1-3-1-5h0Z"/>
  <path class="st0" d="M310,507c3,3-1,8,2,11,3,1,6,0,8-3,1-3,0-6-1-9,4,0,2,3,2,5s-2,4,0,7c0-1-1-1-1-2-1,1-2,3-4,3-7,1-6-7-6-12h0Z"/>
  <path class="st0" d="M322,499v-1c1,2,2,4,3,5,1,0,4-2,3,1h-3c-2,3-1,8,2,11h4c-1,0-1,1-2,1-6-1-5-7-5-12h-3c1,0,2-1,3-1-1-1-1-3-2-4h0Z"/>
  <path class="st0" d="M332,495h-1c5,2,4,9,5,13,1,1,3,2,3,4-5-4-3-12-7-17h0Z"/>
  <path class="st0" d="M348,497c-1-1-1-2-1-3,1,4,3,8,4,12l-1-1c-3,4-9,4-11,0-1-3,0-7,2-9,2-1,5-1,7,1h0ZM346,496c-4,0-9,3-7,7,1,2,3,5,6,5s5-4,4-7c0-2-1-4-3-5h0Z"/>
  <path class="st0" d="M352,490c3-4,9-1,10,3s0,7-4,8-7-3-8-7c0-1,1-3,2-4h0ZM352,491c-3,4,1,10,6,9,3-1,5-4,4-7-2-3-7-6-10-2h0Z"/>
  <path class="st0" d="M360,484v-1c1,1,1,2,2,3,0-2,1-3,1-5,0,0,1-1,2-1-3,3-3,7-1,11,1,1,4,0,4,3-5-1-5-7-8-10h0Z"/>
  <path class="st0" d="M367,480c-1-4,2-6,5-7,2,0,4,1,5,3l-9,6c2,3,5,4,8,3s2-4,3-6c1,3-2,7-5,7s-6-2-7-6h0ZM376,476c-1-2-4-3-6-2-2,2-2,5-2,8,3-2,5-4,8-6h0Z"/>
  <path class="st0" d="M375,470c0-3,3-7,6-7,1,0,4,1,3,3-2,3-4,4-7,6,2,1,2,5,6,3,2-2,5-3,4-7-1,2,2,5-2,7-3,1-9,1-10-5h0ZM384,466c0-1-1-2-1-2-2,0-5-2-7,2,0,2-1,4,1,6,1-3,3-5,7-6h0Z"/>
  <path class="st0" d="M376,456v-1c2,1,4,5,8,0l-2,2c1,3,3,5,6,7,3,1,4-2,6-3-1,2-2,3-3,4-4,1-7-4-9-7-1,1-2,3-3,2s1-2,2-2c-2-1-3-1-5-2h0Z"/>
  <path class="st0" d="M393,441c-2-3-7-1-9-4,2,0,4,0,6,1,4,3,7,5,11,8h-2c1,1,1,2,1,3-1,2-4,3-6,4-4,0-7-3-7-7,0-3,3-6,6-5h0ZM392,441c-2,1-3,2-4,3-1,3,0,6,3,8,5,2,11-2,8-7-1-1-3-1-5-4h-2Z"/>
  <path class="st0" d="M392,432c1-2,3-5,5-5,4,0,9,3,8,8-1,3-4,5-8,4-3-1-5-4-5-7h0ZM393,434c1,4,5,6,9,4s2-7,0-9-5-1-7,0-2,3-2,5h0Z"/>
  <path class="st0" d="M389,422h-1c5-1,9,2,14,4h5c-5,1-9-2-14-4h-4Z"/>
  <path class="st0" d="M395,416c0-5,5-7,9-6s5,6,4,9c-1,1-3,2-4,3-4,1-8-2-9-6h0ZM396,417c1,4,5,5,8,4,2-1,4-2,4-5,0-2-2-4-4-5-4-1-9,1-8,6h0Z"/>
  <path class="st0" d="M396,407c0-3,2-1,3-1-1-2-3-3-3-6l1-1c-1,3,1,4,2,6,3,2,7,2,10,2-4,1-8-2-13,0h0Z"/>
  <path class="st0" d="M398,398c-3-1-2-4-2-6,0-3,4-5,5-4,2,3-3,9,1,10,3,2,8-2,6-6l-3-3,1-1c2,3,4,6,1,9-2,2-6,3-9,1h0ZM401,389c-3-1-6,2-5,5,1,2,2,3,4,4,1-3,1-6,1-9h0Z"/>
  <path class="st0" d="M393,381c0-2,1-1,2-1-3-2-6-5-3-9,1,0,1-1,2-1-2-2-5-4-4-7,2-3,7-3,11-3-3,2-8,0-10,3-1,2,1,6,4,7h8c-2,4-6-1-8,0-1,0-3,0-3,1-1,4,0,8,4,9,3,0,6-1,9-2-3,4-8,0-12,3h0Z"/>
  <path class="st0" d="M385,350c-1,1-2,1-3,1,3-3,9-1,12-5,0,1,0,2-1,2,3,2,4,6,2,9-2,1-4,3-7,2-4-1-7-6-3-9h0ZM384,351c-1,5,4,8,8,7,2-1,3-3,4-5,0-2-2-5-4-5-3,1-6-1-8,3h0Z"/>
  <path class="st0" d="M377,338c0,1-1,1-2,1,2-1,3-3,5-3,4,0,7-4,11-4,2,1,3,4,4,6l-1,1c0-2,0-5-2-6s-4,2-6,2c4,3,4,9,0,11-2,1-5,1-7,0-2-2-2-5-2-8h0ZM377,340c-1,4,4,7,7,6,2-1,5-3,5-6-1-2-1-5-4-4-3,0-7-2-8,4h0Z"/>
  <path class="st0" d="M372,337c0-2,1-2,2-2-3,0-5-2-6-4-1-6,6-7,10-9-2,4-7,3-9,7-1,3,3,5,5,6,3,0,5-4,9-4-4,1-7,4-11,6h0Z"/>
  <path class="st0" d="M359,318c0,1,0,2-2,2,2-4,7-5,10-8,0,1-1,1-1,2,2-1,4,2,5,3,1,2,1,5-1,7-1,1-3,2-4,2-4,0-8-3-7-8h0ZM359,320c1,2,1,4,4,5,5,1,9-4,7-8,0-1-2-3-4-3-3,2-6,2-7,6h0Z"/>
  <path class="st0" d="M344,307c0,1,0,2-2,2,2-4,5-7,9-9,0,1-1,1-1,2h4c2,2,3,6,1,9-2,2-4,3-6,3-3,0-5-4-5-7h0ZM345,309v2c4,4,10,2,11-3,1-3-3-7-6-6-2,1-6,2-5,7h0Z"/>
  <path class="st0" d="M337,313h-1c1-5,5-7,8-11,1-2-2-5,2-5,0,2,0,3-1,5-2,4-8,5-8,11h0Z"/>
  <path class="st0" d="M334,312c-2,1-2-1-2-2,1-1,2,1,2,2h0ZM333.16,310.84h0ZM336,306h-1c3-4,8-6,7-11,0,5-3,8-6,11h0Z"/>
  <path class="st0" d="M324,298v3l-1-1c1-5,5-8,8-12,1-1,1-3,1-4,0,3-1,5-3,7,5-1,9,4,7,9-2,4-7,4-10,2-1-1-1-3-2-4h0ZM325,300c3,2,6,5,9,1,3-3,2-7-1-9-5-2-9,3-8,8h0Z"/>
  <path class="st0" d="M320,300c0-3,1-5,3-7,1-2,0-4-1-5-2-2-5-2-7,0-2,3-4,5-4,9,0-4,2-9,5-11,1-2,0,1,0,2,3-2,7-1,7,1,2,4-2,7-3,11h0Z"/>
  <path class="st0" d="M299,292c-1,1-1,2-1,3,0-4,2-9,3-13v2c2-2,5-1,7,0,1,2,3,4,2,7-2,5-7,7-11,3v-2h0ZM300,293c0,1,1,2,1,2,3,1,7,0,8-3,0-2,1-4,0-6-2-2-6-4-8-1-1,2-4,4-1,8h0Z"/>
  <path class="st0" d="M295,294c-2,0-1-1-1-2-2,2-4,4-8,3-1-1-2-2-2-4-2,2-6,3-7,2-2-3-1-8-1-12,4,2-1,6,0,8,1,1,1,4,2,4,5,0,9-6,9-11-1,4-3,8-1,11,1,2,5,3,8-2,1-3,1-6,1-9v12h0Z"/>
  <path class="st0" d="M267,293c-2,2-4,4-7,3-2-1-6-4-4-5,3-2,7-1,11,0,1-3-2-5-4-7-3-1-4,1-6,3-1,1-2,0-1-1,2-1,5-3,7-3,4,1,4,6,4,10h0ZM257,291c0,2,1,3,2,4,3,1,7,0,8-4h-10Z"/>
  <path class="st0" d="M255,298c-2,0-2-2-2-3-1,2-1,4-5,4,6-2,6-9,4-14,4,4,1,9,3,13h0Z"/>
  <path class="st0" d="M237,300c1,1,1,2,1,3-4-3,0-9-4-12,1,0,2,0,2,1,1-1,3-3,5-3,3,1,6,3,6,6,0,5-6,10-10,5h0ZM239,301c3,1,6,0,7-3s0-7-3-8c-2,0-4-1-6,1-2,3-1,7,2,10h0Z"/>
  <path class="st0" d="M237,310c-4,0-2-5-7-4,1,0,2,0,3-1,1-4-1-8-4-10-1,0-2,0-3,1s-1,0-1-1c2-2,5,0,7,2,1,2,1,5,2,8h2c-1,0-1,1-2,1,1,1,2,3,3,4h0Z"/>
  <path class="st0" d="M217,314l-1,1c0-3-2-6,0-10,0-1-1-2-2-3q1,0,1-1c5,1,7,6,11,9-2,0-3-1-4-2-1-3-2-5-7-6,2,4,0,8,2,12h0Z"/>
  <path class="st0" d="M212,319c-2,2-5,1-7,1-3-1-4-6-3-9,1-1,2-2,4-3,3-1,5,2,7,4,2,3,0,5-1,7h0ZM213,317c0-3,0-7-3-8s-8,0-8,4c0,2,0,5,3,6,2,1,6,2,8-2h0Z"/>
  <path class="st0" d="M209,329c-5-2-5-7-8-11-1-1-4,0-4-3,1,1,3,2,4,3,3,4,3,9,8,11h0Z"/>
  <path class="st0" d="M203,328c-4-1-5-7-8-7-3-1-6,2-5,6,1,3,3,5,5,7-4-2-4-8-8-10,2,0,2,1,2,2,1-4,5-9,9-5,2,2,3,5,5,7h0Z"/>
  <path class="st0" d="M198,341v1c-3,0-4-3-6-3-1,0-2,3-3,2-1-2,3-2,3-2,0-3-3-7-7-8-1,0-3,1-4,2,1-3,5-4,7-2s2,5,4,7c1,0,2-1,3-2,0,2-1,2-2,3,2,1,3,1,5,2h0Z"/>
  <path class="st0" d="M189,343v1c-1,0-1-1-2-1,1,3-1,5-4,6s-5,0-7-2c-1-2-1-4-1-6,1-3,4-5,7-4-1-4-6-2-8-5,7,1,9,8,15,11h0ZM180,337c-1,1-3,1-4,2-1,3,0,8,4,9h4c2-1,3-3,2-5-1-3-3-5-6-6h0Z"/>
  <path class="st0" d="M175,361c1,0,2,0,2,2-3-2-7-5-10-8,1,0,1,1,2,1-2-2,0-4,1-6,3-3,7-1,9,1,1,1,2,3,2,5-1,3-3,6-6,5h0ZM176,361c3-1,5-4,4-7-2-4-8-6-11-2v4c2,2,2,5,7,5h0Z"/>
  <path class="st0" d="M181,369c-4-3-5,0-8,1l2-2c-3-3-6-9-11-5,0,1-1,1-1,2,0-1,1-3,2-3,4-1,8,0,10,5l2-2c0,1-1,1-1,2,2,1,3,1,5,2h0Z"/>
  <path class="st0" d="M164,369c0,2-1,0-2,1v-2c1-1,2,0,2,1h0ZM162.9,368.85h0Z"/>
  <path class="st0" d="M176,384v1c-7-2-15-9-18,0-3,8,10,7,15,11-7-1-19-5-15-13,3-7,12,0,18,1h0Z"/>
  <path class="st0" d="M173,399c-1,6-4,0-6,1-1,1,0,4-2,3-1-1,1-2,1-3-2-3-7-4-10-3-1,1-1,3-1,4-2,0-1-1-1-2,3-5,9-2,13,0,0-1,1-1,1-2,0,1-1,1-1,2h6Z"/>
  <path class="st0" d="M166,417c-4,2-8,1-12,1,4,1,7,5,12,5-5,0-8-4-13-4,3-4,8-1,12-2-4-1-6-5-11-5l12-3c-2,4-7,1-10,3,3,0,5,1,7,4,1,1,2,1,3,1h0Z"/>
  <path class="st0" d="M166,426c1,0,1,1,1,1-4,0-9-1-13,0,3-3,8-3,12-1h0ZM173,424l1,1c-1,0-1,1-1,2-1,0-2,0-2-1,2,0,0-3,2-2h0ZM172.1,425.74h0Z"/>
  <path class="st0" d="M165,439c1,0,2-1,2-1,0-2,2-8-2-7-2,0-3,4-4,7-1,2-6,1-6-2s0-7,4-7c0,2-3,2-3,4s0,4,2,6c0-1,1-1,2-1,2-3,2-7,5-9,0,0,1,1,2,1,2,3,2,8-2,9h0Z"/>
  <path class="st0" d="M169,441v1c-4-2-8,0-12,2,2-5,8-2,12-3h0ZM175,439h1c0,1-1,3-2,2s0-2,1-2h0ZM174.67,440.11h0Z"/>
  <path class="st0" d="M170,450c3,1,4,4,4,6,0,3-4,6-5,4-2-3-1-7-2-10-2,2-5,2-6,5,0,3,2,4,4,6-4-1-5-5-4-8,2-3,6-3,9-3h0ZM169,460c2,0,3-1,4-2,1-4-1-7-5-8,0,3,0,7,1,10h0Z"/>
  <path class="st0" d="M176,461q1,0,1,1c-1,1-2,1-3,1,3,0,5,3,5,5-1,5-7,4-11,6,1-1,2-2,3-2,2,0,5,1,7-2v-4c-3-5-8-1-13-1,3-2,8-2,11-4h0Z"/>
  <path class="st0" d="M182,473c-2,3-6-1-8,3l-3,3c1-6,7-4,11-6h0ZM187,469c2,0,0,1,1,2q-1,0-1,1c-1-1-1-2-1-3h1ZM186.64,470.72h0Z"/>
  <path class="st0" d="M184,476q1,0,1,1c-1,0-1,1-2,1,3,0,5,2,6,5,0,2-2,3-3,4,3,1,7,2,6,6-2,4-7,4-10,6,2-3,7-2,9-6,1-3-3-5-5-6-3,0-6,2-9,2,3-1,6-2,9-2,4-1,2-6,0-8-4-3-8,2-12,3,2-3,7-4,10-6h0Z"/>
  <path class="st0" d="M205,507c0-1,1-1,2-1-3,3-7,5-11,7,1,0,1-1,2-1-4-1-6-4-5-8,1-3,5-5,8-4s5,4,4,7h0ZM205,506c-1-3-4-8-9-5-2,2-4,4-3,7l3,3c3,1,8-1,9-5h0Z"/>
  <path class="st0" d="M215,516c2-2,4-4,5-7-1,2-1,4-2,5-2,2-5,3-8,5-1,1,0,5-3,4,0,0,0-2,1-2-5-1-7-6-4-10,2-1,4-3,7-2s5,4,4,7h0ZM215,514c1-3-2-4-4-5-2,0-3,0-5,1s-2,4-3,6c0,2,4,5,6,4,1-1,3-2,5-3,1-1,1-2,1-3h0Z"/>
  <path class="st0" d="M224,518h1c0,1-1,1-1,2,3-1,7,1,8,5,0,1-1,1-1,2,2,0,5-1,7,1,0,1,1,1,1,2-1,3-3,7-6,9,2-3,7-6,5-10-4-5-10,1-14,4,2-3,7-4,8-8,0-4-6-5-9-4s-2,6-6,7c2-4,6-5,7-10h0Z"/>
  <path class="st0" d="M244,529h1c0,2-2,2-3,3-2,2-3,5-3,8-1-4,2-8,5-11h0ZM245,523l1-1c1,0,1,1,1,2s0,1-1,1c0-1-1-1-1-2h0ZM246.47,524.13h0Z"/>
  <path class="st0" d="M248,530v3c3-2,7-1,7,2,1,3-1,7-4,10,2-3,5-6,4-10-1-3-6-3-8-2-2,2-3,5-4,8,1-4,4-7,5-11h0Z"/>
  <path class="st0" d="M260,534h1c0,2-2,3-3,4-1,3-1,5-1,8-4-5,2-8,3-12h0ZM261,528q0-1,1-1c0,1,0,2,1,2l-1,1c-1,0-1-1-1-2h0ZM261.92,529.11h0Z"/>
  <path class="st0" d="M264,535v2c2,0,3-1,5-2,2,0,4,1,5,3,0,1-1,1-1,2,3-1,7-3,8,0,2,3,1,8-2,11,1-4,3-8,2-11-2-2-5,0-8,1-4,1,0,7-4,8,0-4,6-6,4-11-2-3-7-3-9,0l-3,9,3-12h0Z"/>
  <path class="st0" d="M299,539l1-1c0,2-1,4-2,6-3,2-1,6-5,7,0-5-2-9-4-13,6,2,1,8,4,12,2-4,6-6,6-11h0Z"/>
  <path class="st0" d="M302,540c2-1,4-3,6-2,3,1,5,4,4,6-3,3-8-4-11,0,0,1,1,4,2,5,3,3,6,0,9-1-2,3-6,3-9,1-2-2-3-6-1-9h0ZM311,544c1-3-1-7-5-6-2,1-3,2-4,4,3,1,6,1,9,2h0Z"/>
  <path class="st0" d="M314,537c2,0,1,1,1,2,1-1,2-3,4-3,2-1,6,1,5,4,0,3,4,6,0,8,0-4,2-8-1-11-2-1-6-2-8,3-1,3,0,6,1,9-3-4,1-8-2-12h0Z"/>
  <path class="st0" d="M325,529c0-2,1-1,2-1v2c-1,1-2,0-2-1h0ZM326.16,528.99h0ZM327,535l1-1c-1,4-1,8,2,12-5-2-2-7-3-11h0Z"/>
  <path class="st0" d="M341,533c0-1-1-1-1-2,3,3,1,8,3,12-2,0-1-1-1-2,0,1-1,1-1,2-2,2-4,1-6,1-4-1-5-6-4-9,2-3,7-5,10-2h0ZM339,533c-2-1-4-2-6,0-3,4-1,10,3,11,6,1,6-6,5-10,0,0-1-1-2-1h0Z"/>
  <path class="st0" d="M343,528c2,0,2,1,2,2,0-4,3-4,6-5,1,0,2,1,3,3,1-3,4-6,7-5,4,2,3,7,4,11,0-4-2-7-4-10-3-2-5,1-6,4v9c-2-3,1-8-2-11-4-2-7,1-8,5,0,3,2,6,2,9-2-4-3-8-4-12h0Z"/>
  <path class="st0" d="M371,527c1,1,1,3,1,5-2-1-1-3-1-4v1c-1,0-3,0-2-2h2ZM370.55,527.67h0Z"/>
  <path class="st0" d="M382,508c-1,0-2,0-2-2,5,4,3,12,11,15-3,0-4-3-6-5-1,4-5,5-8,4-3-2-6-5-3-9,2-3,5-3,8-3h0ZM380,508c-2,1-4,1-5,2-2,2-2,5,0,8,2,1,5,3,7,1,3-3,3-9-2-11h0Z"/>
  <path class="st0" d="M382,504v-1c4,2,3,8,7,9,1,0,4-1,5-3,1-4-1-8-4-11,3,3,5,6,7,10l-2-2c-1,2-2,7-6,6-3-2-5-5-7-8h0Z"/>
  <path class="st0" d="M386,491c0-2,1-1,2-1,1,1,0,2-1,2s-1,0-1-1h0ZM387.52,490.82h0ZM392,495v-1c2,3,3,8,8,9-3-1-7-3-8-8h0Z"/>
  <path class="st0" d="M402,487v1c-1,0-1-1-2-1-3,1-7,4-4,5,2,3,8-2,11,0,1,1,0,3-1,5s-3,3-5,3c-1,0-2,0-2-2,1,0,1,1,2,1,2-1,5-2,6-5,0,0-1-1-1-2h-3c-3,2-5,2-8,2,0,0-1-1-1-2,1-3,4-8,8-5h0Z"/>
  <path class="st0" d="M403,478c1,0,2,0,3,1,1-2-2-5,2-7,2-1,4,0,5,1,1,3,5,3,6,6-3-2-4-7-9-7-4,0-3,4-4,7,0,3,6,3,7,7-4-2-6-6-10-8h0Z"/>
  <path class="st0" d="M412,464c2-6,10-4,12,0,1,3,0,7-4,8-5,1-9-3-8-8h0ZM412,465c0,2,1,3,2,5,2,3,6,2,8,0s2-6,0-8c-3-3-9-1-10,3h0Z"/>
  <path class="st0" d="M422,448q1,0,1,1h-2c-3,1-6,5-3,7,4,1,6-5,10-5,1,0,2,1,2,2,0,4-2,8-7,7h2c2-1,3-4,4-6,0-2-1-3-3-2-3,2-5,6-9,5,0,0-1-1-1-2,1-3,2-8,6-7h0Z"/>
  <path class="st0" d="M414,442c2,0,4,1,6,1,1-1,1-3,3-3-1,1-2,2-2,3,3,3,10,7,12,1,1,1,0,3-2,4-4,1-8-2-11-5,0,1-1,2-1,3,0-1,0-2,1-3-2,0-4-1-6-1h0Z"/>
  <path class="st0" d="M422,438v-1c1,0,2,1,3,1-2-1-4-6,0-7-2,3-1,6,1,8s5,2,8,2c-4,1-8-2-12-3h0Z"/>
  <path class="st0" d="M424,430c-6,0,0-1,0-1,4,1,6,5,10,3,2-2,3-5,0-8-2-4-7,0-8-4,2,0,4,0,5,1,2,4,5-1,7,3h-3c2,3,3,6,0,8-3,1-7-1-11-2h0Z"/>
  <path class="st0" d="M430,408c-3-1-7-1-10-1,7-1,13,2,19,2-1,0-1,1-2,1,4,3,1,7-2,9-3,1-8,0-9-4-1-3,1-6,4-7h0ZM429,409c-3,1-4,5-2,8,3,3,8,2,11-2,1-2,0-4-2-5s-4-3-7-1h0Z"/>
  <path class="st0" d="M428,398c-1,0-2-1-2-1,0-3-1-6,2-8h4c1,3,0,7-1,10,3,1,6-1,7-4,1-2-1-4-2-6,4,2,2,8-1,10-2,1-4,2-7-1h0ZM432,389c-2-1-3,1-5,1-1,3-2,7,3,9,1-3,1-7,2-10h0Z"/>
  <path class="st0" d="M430,382c-2,1-4,3-5,5,1-2,4-3,4-5,2-5-4-1-5-5,2,1,5,3,7,4s4-2,5-5c0,3-3,4-5,6,2,1,4,3,6,4-3,0-5-1-7-4h0Z"/>
  <path class="st0" d="M425,374c-3-1-4-4-4-6,1-2,4-6,5-4,2,3,0,8,2,10,2,1,6-1,6-4,0-2,0-4-3-6,1,0,1,1,2,1,2,2,1,5,1,7-1,3-5,4-9,2h0ZM427,365c-2-1-4,1-5,3v3c1,1,3,5,4,3,2-2,1-6,1-9h0Z"/>
  <path class="st0" d="M420,363q-1,0-1-1c1-1,2-1,3-1-2-1-5-2-4-5,2,6,9,6,14,4-4,2-8,2-12,3h0Z"/>
  <path class="st0" d="M416,345h1c-2,3-2,5,0,8,2,2,4,1,6,1,3,0,3-3,4-5,0-3-3-4-4-6,1,3,5,2,5,6-1,4-5,7-9,6-4-2-5-6-3-10h0Z"/>
  <path class="st0" d="M407,347c-2,0,0-1-1-2h2c1,1,0,2-1,2h0ZM407.08,345.98h0ZM412,344c2-4,6,1,8-2,1-1,2-3,4-3-3,4-8,4-12,5h0Z"/>
  <path class="st0" d="M403,339h-1c0-3,4-2,5-4,0-1-1-3-1-4,3-1,1,3,1,3,4,1,11,0,10-6,0-1-1-2-1-2,4,0,2,6,0,7-3,1-6,1-9,2,0,1,1,2,1,3,0-1-1-2-1-3l-4,4h0Z"/>
  <path class="st0" d="M402,320c-1,1-1,2-3,2,3-4,8-4,12-6l-2,2h2c4,3,2,9-2,11-2,1-5,0-7-2-1-2-2-4,0-7h0ZM401,322c-1,2,1,5,3,6h6c3-1,4-6,1-9-3-2-6,1-9,1,0,0-1,1-1,2h0Z"/>
  <path class="st0" d="M392,322v1c1-4,4-5,2-9,2,0,0,4,2,4,3-1,6-2,8-3,1-2,2-4,0-7,1,2,4,5,0,7-3,2-5,3-8,3,1,1,1,2,1,3,0-1-1-2-1-3l-4,4h0Z"/>
  <path class="st0" d="M388,318c-2,0-1-1-1-2h2c0,1,1,2-1,2h0ZM388,316.75h0ZM392,313c4-2,7-4,10-7-1,5-6,6-10,7h0Z"/>
  <path class="st0" d="M387,308c-2-3-2-6,0-9,3-2,6-2,9-1,3,3,3,7,0,10-2,2-6,2-9,0h0ZM389,308c3,2,7-1,8-3,2-5-3-9-8-7-3,2-4,6-2,9,1,0,1,1,2,1h0Z"/>
  <path class="st0" d="M380,301c0-1,1-1,1-2-2,1-5-1-6-3-1-5,6-6,8-10-1,2-3,3-6,5-1,1-2,4,0,6,5,5,8-2,12-4l1,1c-3,2-7,4-10,7h0Z"/>
  <path class="st0" d="M366,290c2-4,7-5,6-10-1-3-5-3-7-2-3,0-4,3-6,6,2-4,6-6,8-10,0,1,0,2-1,3,3-1,7,1,7,4,0,4-5,6-7,9h0Z"/>
  <path class="st0" d="M353,288c0-2,0-4,1-5,3-4,7-6,8-11,0,2,0,3-1,5-2,4-8,5-8,11h0Z"/>
  <path class="st0" d="M350,286h-1c1-5,5-7,8-11,1-2-2-5,2-5-1,5-5,8-8,12-1,1-1,3-1,4h0Z"/>
  <path class="st0" d="M341,273c0,1,0,3,0,2-2-5,4-7,6-11v2c2,0,4,0,5,1,2,3,3,6,0,9-4,4-9,2-11-3h0ZM342,274c0,1,1,1,1,2,2,2,4,1,6,1,3-2,6-5,3-9-2-1-4-3-6-2-2,2-5,4-4,8h0Z"/>
  <path class="st0" d="M337,274h-1c0-1,1-1,1-2-2,1-5,2-8,0-1-1-1-3-1-5-2,1-5,2-7,1-1-1-2-4-1-5,3-2,0-6,4-7-1,4-5,8-2,11,3,4,8-4,12-7-1,4-5,5-6,9,0,4,6,4,9,2,2-2,3-5,4-8,0,4-2,7-4,11h0Z"/>
  <path class="st0" d="M306,262c2,1,3,5,7,4,2-1,3-2,4-3,1-2,0-5-2-7s-5,0-7,0c2-3,7-2,9,1s1,7-1,9c-3,2-9,2-10-4h0Z"/>
  <path class="st0" d="M299,265c-4,1-6-4-6-7s3-5,6-6c5,0,8,5,6,9-1,2-2,5-6,4h0ZM301,264c3,0,3-3,4-4,0-4-5-10-9-6-2,2-4,7-1,9,2,1,3,3,6,1h0Z"/>
  <path class="st0" d="M290,264c0-1-1-2-1-3,0,3-3,1-4,3,0,0-2,1-2-1,6,2,9-6,8-11,1,4-1,8-1,12h0Z"/>
  <path class="st0" d="M282,264l-1-1c-3,2-6,1-8,0-2-2-3-7-1-10,3-2,8-2,10,2v-9c2,6-1,12,0,18h0ZM280,254c-3-4-7-1-9,2-1,3,1,6,4,8s5-1,6-2c1-2,1-6-1-8h0Z"/>
  <path class="st0" d="M268,263c0,1-1,3-3,3s-3-1-5-1c-3-1-2-4-1-6,3,1,7,2,10,0,1,0-1-4-2-5-3-1-6-2-8,2,0-1,1-1,1-2,3-2,8-1,9,2,1,2,0,5-1,7h0ZM259,260c0,2,1,5,3,5,3,0,5-1,7-4-3-1-7-1-10-1h0Z"/>
  <path class="st0" d="M257,267c-2,0-2-2-2-3-1,3-3,3-5,4,5-3,7-9,5-14,1,4,1,9,2,13h0Z"/>
  <path class="st0" d="M234,269v-1c2,3,6,3,9,1,1-1,0-3-1-3-3,0-7,0-9-3-1-3,4-5,6-5,1,0,4,0,4,3-2-3-6-2-9-1v2c2,4,11,2,9,7-1,3-5,3-8,2,0,0-1-1-1-2h0Z"/>
  <path class="st0" d="M233,273c0,1-1,1-1,1-1-4-1-8-3-11-2-1-6,0-7,4-1,3,0,6,1,9,0-4-2-7-3-11q0-1,1-1c0,1,1,1,1,2,0-3,3-4,5-4,5,1,4,7,6,11h0Z"/>
  <path class="st0" d="M211,279c3,3,6,0,9-1,1-1,0-3-1-3h-7c-2-1-4-3-3-5,2-1,7-5,9,0,0-1-1-2-1-2-3-1-7,2-7,4,0,4,7,1,10,4,2,4-5,6-8,5,0,0-1-1-1-2h0Z"/>
  <path class="st0" d="M200,286v-1c2,1,4,2,7,0,2-1,3-3,2-6-1-2-4-4-7-4s-3,4-5,4c1-4,7-7,10-4s3,8,0,11c-2,2-5,1-7,0h0Z"/>
  <path class="st0" d="M200,290l-1,1c0-5-3-8-6-11,4,1,6,6,7,10h0ZM204,295c0,2-1,1-2,1v-2c1,0,2-1,2,1h0ZM202.78,294.83h0Z"/>
  <path class="st0" d="M197,293c-1,0-2-1-2-1-1,0-1,2-1,3-2,2-5,1-7,1-3-1-4-4-4-7,1-2,2-5,5-6,1,0,3,1,4,2,0-5-5-4-6-8,6,4,6,11,11,16h0ZM190,284c-2-1-5,1-6,3v5c2,3,5,6,9,3,2-3,1-8-3-11h0Z"/>
  <path class="st0" d="M186,301c0-5-5-6-7-10,4,2,7,5,7,10h0ZM192,305c0,2-2,0-3,1,0-2,2,0,3-1h0ZM190.09,305.1h0Z"/>
  <path class="st0" d="M188,308c-4-1-5-4-9-2,1,0,3,0,3-1,0-3-1-6-3-8-3-2-5-1-7,1,0-3,3-2,4-2,4-1,4,6,7,8,1,0,2-1,3-1-2,0-2,1-3,2,2,1,3,2,5,3h0Z"/>
  <path class="st0" d="M180,316c-1-1-3-1-4-2-4-3-4-10-10-10l1-1c1,1,3,2,4,3,3,3,4,8,9,10h0Z"/>
  <path class="st0" d="M171,318c-1,1-2,3-4,3-4-1-9-3-8-8,1-3,5-6,8-5,4,2,6,6,4,10h0ZM171,316c0-5-4-9-8-7-1,1-3,2-3,4-1,3,2,6,4,7,3,1,6-1,7-4h0Z"/>
  <path class="st0" d="M170,329c-3,0-5-1-7-4,1,4-3,7-7,6-2,0-4-2-5-4-1-4,3-9,7-8-1,0-2,0-2-2,2,1,4,2,5,3,2,4,4,7,9,9h0ZM156,319c-3,1-5,4-4,7,1,2,2,3,4,4,4,1,7-2,6-5,0-2-1-6-6-6h0Z"/>
  <path class="st0" d="M156,340c-3,5-10,3-12-1-1-3,0-7,4-8,6-1,9,4,8,9h0ZM156,338c1-2-2-4-3-5-3-2-6-1-8,1-1,2-1,6,2,8,4,2,8,0,9-4h0Z"/>
  <path class="st0" d="M152,348v1c-2,0-2-1-3-2,0,2,1,6-2,7,5-5-2-11-7-12,4,1,8,4,12,6h0Z"/>
  <path class="st0" d="M153,358v1c-5-5-4-1-8,1,0-2,2-2,2-3-2-3-7-7-11-4,0,1-1,1-1,2,1-3,3-6,6-4,2,1,4,3,6,5l2-2c0,1,0,2-1,3,2,0,3,1,5,1h0Z"/>
  <path class="st0" d="M145,362v1c-3-4-7-5-11-6,5-2,8,2,11,5h0ZM151,363l1,1c0,1-1,2-2,1s0-2,1-2h0ZM150.37,364.17h0Z"/>
  <path class="st0" d="M138,373c0-3,3,1,4-2,0-2,1-3,1-5l-1-1c-4,0-5,4-8,5h-2c-3-3-1-7,2-9h3-3c-2,2-3,4-3,7,0,1,2,1,3,1,4-1,5-6,9-5l1,1c-1,3-1,6-3,8h-3Z"/>
  <path class="st0" d="M140,381c0,3-2,1-3,1,2,3,3,7-1,8s-7-2-11-3c4,0,7,3,11,2,3-1,3-6,1-8l-9-3c3,0,6,1,9,3h3Z"/>
  <path class="st0" d="M137,395c-4-2-7-4-12-3,4-3,8,1,12,3h0ZM144,394c0,1,0,2-1,2s-1,0-1-1,1-1,2-1h0ZM142.64,395.38h0Z"/>
  <path class="st0" d="M133,407l-1-1c1,1,3,0,4-2v-5c0-1-2-2-3-1-2,3-5,10-8,6-2-3,0-9,4-9,0,3-2-1-3,1s-1,5-1,7c0,1,2,1,3,1,3-2,4-7,7-6,4,0,1,5,0,8,0,0-1,1-2,1h0Z"/>
  <path class="st0" d="M142,409c0,4-3,2-5,2-4-1-8-4-13-2,0-4,3-2,5-2,4,1,8,4,13,2h0Z"/>
  <path class="st0" d="M136,418v1c-4,1-9-3-11,1-1,2-1,5,2,7s7,0,10,0c-4,3-9,0-13,1,0-2,1-1,2-1-1-2-4-6-1-8s7-1,11-1h0Z"/>
  <path class="st0" d="M143,431c0,4-4,1-5,2s-1,3-1,4q0-1-1-1c0-1,1-2,1-3-2-1-5-1-8-1-5,0-1,4-4,6,0-3,1-7,4-7s5,2,8,2c0,0,1-2,1-3v3c2-1,3-1,5-2h0Z"/>
  <path class="st0" d="M139,453h2c-4,2-8,0-12,2q0-1,1-1c-3-3-2-7,0-10,3-2,7-1,9,1s3,6,0,8h0ZM139,452c2-3,1-7-2-8s-6,0-8,2,0,7,2,7,6,2,8-1h0Z"/>
  <path class="st0" d="M148,454c-3,5-9,2-13,3-2,1-4,0-4,3l-1-1c5-1,9-4,14-3,1,0,3-1,4-2h0Z"/>
  <path class="st0" d="M143,460q1,0,1,1c-4-1-8-1-12,2,2-5,7-3,11-3h0ZM149,457c2,0,0,1,1,2h-2c0-1,1-1,1-2h0ZM148.82,458.5h0Z"/>
  <path class="st0" d="M146,474c1,0,1-1,2-1-4,3-9,1-14,3-1,1-3,1-3,3,0-3,4-3,6-4-3-4-3-9,2-11,3-1,6,1,8,3,1,2,1,5-1,7h0ZM146,472c2-2,0-4-1-6-3-3-9-1-10,3-1,2,1,5,3,6s5,0,7-1c0,0,1-1,1-2h0Z"/>
  <path class="st0" d="M150,475l1,1c-4,2-11,0-10,6,0,7,7,4,12,3-1,1-3,2-4,2-2,0-5,0-7,2,0-2,1-2,2-2-3,0-4-3-5-5,0-2,2-3,3-4,3-1,6-1,8-3h0Z"/>
  <path class="st0" d="M155,488h1c-3,1-5,1-8,2-1,1-2,3-4,3,1-4,5-2,7-5h4ZM160,484h2c0,1,0,3-2,2v-2h0ZM160.49,485.19h0Z"/>
  <path class="st0" d="M158,491c0,1,0,2-1,2,2,0,3,2,4,3,1,3-2,7-5,8s-6,0-8-2c-1-2-1-5,1-7-3,0-5,4-8,4,4-5,10-4,15-6,1,0,1-1,2-2h0ZM149,497c-2,2,0,4,1,6,2,3,4,0,7,0,3-1,5-7,1-9-1,0-2-1-2-1-2,1-6,0-7,4h0Z"/>
  <path class="st0" d="M166,507c3,1,6,3,6,6,0,2-3,4-4,4-2-2-3-6-5-9-2,2-4,4-3,7,1,2,2,4,5,4-3,1-5-2-6-4-1-4,3-8,7-8h0ZM168,517c1-1,2-1,3-2,2-5-2-8-7-7,1,3,2,6,4,9h0Z"/>
  <path class="st0" d="M173,522c4-1-1-5,3-7,0,3-1,5-3,7,3,1,5,1,8,1-3,0-5,1-8,1-4-1,1,4-3,6,0-3,2-5,2-8h-7c2-4,6,1,8,0h0Z"/>
  <path class="st0" d="M185,529c4-1,6,2,7,5,0,2-1,4-3,5l-6-9c-2,2-3,4-3,6,0,3,4,4,6,5h-2c-2,0-3-2-4-3-1-4,1-8,5-9h0ZM189,538c2-1,3-4,2-6-1-3-4-2-7-2,2,2,4,5,5,8h0Z"/>
  <path class="st0" d="M202,544c0-1,0-2,2-2-1,1-2,3-3,4-2,1-5,2-6,5,0-1,0-2,1-2-2,1-5-1-6-3-1-3,0-6,2-8,4-3,11,0,10,6h0ZM202,542c-1-3-4-5-7-4-4,1-6,7-3,10,4,2,9-1,10-6h0Z"/>
  <path class="st0" d="M218,554c-2-1-1-5-4-6-5-1-9,2-8,7,1,4,5,5,8,4-3,1-5,1-7-1s-2-5,0-8c1-2,4-3,6-3,3,0,6,3,5,7h0Z"/>
  <path class="st0" d="M226,553c3,2,4,6,3,9-1,2-4,4-6,4-3,0-6-3-6-7,1-4,5-6,9-6h0ZM224,554c-5-1-7,4-6,8,1,3,4,4,7,3,2-1,4-3,4-6-1-2-2-5-5-5h0Z"/>
  <path class="st0" d="M234,557h1c0,1-1,1-1,2,2-1,3-2,5-1s4,2,4,6c2-2,7-1,7,1,1,4-1,8-3,11l-1-1c1-3,7-8,3-10-5-3-10,1-12,6,1-4,5-5,6-9,0-1-1-2-1-2-2-2-5-1-8,0-4,2,0,7-5,8,1-4,3-7,5-11h0Z"/>
  <path class="st0" d="M255,564l1-1v3c2-3,6-2,8-1,1,1,1,3,1,4,2-1,5-1,7-1l1,1c1,4-1,7-2,11-2-4,3-6,2-10-1-2-3-2-4-2-4,1-8,5-8,10l-1-1c1-4,6-7,4-10-1-3-6-3-9,0-3,2,1,7-3,8-1-4,3-7,3-11h0Z"/>
  <path class="st0" d="M282,568c4-1,6,4,6,7-1,3-2,6-6,6-5,0-8-5-6-9,1-2,2-5,6-4h0ZM280,569c-3,0-3,3-4,4,0,3,3,8,7,7,3-2,6-7,3-10-2-1-3-3-6-1h0Z"/>
  <path class="st0" d="M300,572c2-3,0-7,0-10,1,5,0,10-1,15,0,1,1,3,1,4,0-1-1-1-1-2-2,2-5,3-8,1s-3-5-2-8c1-2,2-3,4-4,3-1,6,1,7,4h0ZM299,571c-2-1-5-3-8-1-3,3-2,8,2,10,2,0,5,1,6-2,0-2,2-4,0-7h0Z"/>
  <path class="st0" d="M308,567c5,0,9,7,6,11-2,2-6,4-9,1-3-4-2-10,3-12h0ZM307,569c-1,0-1,1-2,1-3,5,0,10,5,10,4-1,5-5,4-9-1-2-5-5-7-2h0Z"/>
  <path class="st0" d="M332,567l1,1c-2,0-3-3-4-3-3,0-6,2-7,5-1,2,1,5,3,6,3,3,6,0,8-2-1,3-4,4-6,4-5-1-7-8-3-12,2-2,6-1,8,1h0Z"/>
  <path class="st0" d="M338,562c2,1,5-2,7,2,3,5,0,10-5,11-3,0-5-3-6-5-1-3,0-6,4-8h0ZM337,564c-1,0-2,1-2,1-1,5,2,10,7,9,5-2,4-8,1-11-2-2-5-1-6,1h0Z"/>
  <path class="st0" d="M347,559c0,1,1,1,1,2,2-2,3-4,6-4,6,1,3,8,5,12-1-4-1-8-3-11-2-1-6,0-7,4-1,3,0,6,1,9-3-4-1-8-3-12h0Z"/>
  <path class="st0" d="M369,554q0,1-1,1c0-1-1-2-1-2-3-1-5,1-7,2-1,1,0,3,1,3,4,1,9,0,9,3,1,4-3,5-7,4-1,0-2,0-2-2,2,4,7,2,8,0,2-5-7-3-10-6-2-2,2-2,3-4,2-1,5-1,7,1h0Z"/>
  <path class="st0" d="M370,551c1-4,6-5,9-4,1,1,1,3,2,4-4,0-7,1-10,3,2,2,2,6,6,5,2-1,5-1,5-5,0,4-4,6-7,5-4-1-4-5-5-8h0ZM380,551v-2c-2-2-4-3-7-1-2,1-2,3-2,5,3-1,6-1,9-2h0Z"/>
  <path class="st0" d="M390,540c0-1-1-1-1-2,4,4,3,9,6,13,1,1,3,1,3,3-2-2-4-4-5-6-1,3-4,4-7,4-2,0-4-2-4-3,0-2-3-4,0-7,2-2,5-4,8-2h0ZM388,540c-4-1-7,3-6,7,1,3,3,5,6,4s5-4,4-7c0-2,0-3-4-4h0Z"/>
  <path class="st0" d="M391,535c2,3,3,7,6,9,4,1,6-3,6-6s-4-5-4-8c3,3,5,7,7,11-2,0-2-1-2-2,0,4-5,6-7,5-3-1-4-6-6-9h0Z"/>
  <path class="st0" d="M410,523c0-1-1-1-1-2,4,2,4,7,7,10-1,0-1-1-2-1,1,2-2,4-3,5-2,1-5-1-7-2-3-3-3-7,0-9,2-1,3-3,6-1h0ZM408,523c-2,0-4,0-5,3,0,3,0,6,4,8,4,1,7-2,7-5-1-1-2-3-3-5-1-1-2-1-3-1h0Z"/>
  <path class="st0" d="M406,514l1-1c3,3,5,3,8,2-6,2,0,6,1,9,2,3,4-1,7-1-1,1-2,3-4,3-4-1-6-5-8-9l-2,2c0-2,1-2,2-2-2-1-3-2-5-3h0Z"/>
  <path class="st0" d="M423,519h2v2h-2v-2h0ZM423.81,519.87h0Z"/>
  <path class="st0" d="M417,500c2-2,4-5,7-6s5,1,7,2c3,2,6,6,5,10-1,3-3,6-5,6-6,0-9-8-14-12h0ZM430,512c4-2,6-6,5-10-2-4-6-7-11-7-3,1-4,3-6,5,2,1,4,3,5,6,2,3,4,4,7,6h0Z"/>
  <path class="st0" d="M430,492v-1c3,2,4,7,9,7,3-1,5-3,4-7s-6-3-7-7c4,2,6,6,10,8-1,0-2,0-3-1,1,4,0,6-4,7-4,0-5-5-9-6h0Z"/>
  <path class="st0" d="M431,479c0-1,0-2,1-2s1,0,1,1-1,1-2,1h0ZM432.31,478.02h0ZM437,481v-1c4,2,4,8,11,7-5,0-8-3-11-6h0Z"/>
  <path class="st0" d="M446,471v1c-1,0-2-1-2-1-3,2-5,5-4,8h2c2-2,4-4,7-5,3,0,4,3,3,6-1,2-4,4-7,3,4,1,6-3,7-6,0-1-1-2-2-2-4,0-6,5-10,4l-1-1c0-3,3-8,7-7h0Z"/>
  <path class="st0" d="M451,454c-1,0-2,1-2-1,4,1,7,4,11,6h-2c3,2,0,6-2,7-3,1-7,0-9-3-3-4,1-8,4-9h0ZM450,455c-3,1-4,5-2,8,1,2,3,3,5,3,4,0,7-5,5-7s-5-5-8-4h0Z"/>
  <path class="st0" d="M449,450v-1c4,0,7,4,11,4,3-1,3-6,1-8-3-2-5-4-9-4,2,0,4,0,5,1,2,3,6,0,7,4-1,0-2-1-2-1-2,2,3,4,0,7-4,4-8-2-13-2h0Z"/>
  <path class="st0" d="M447,435c5,2,6,0,8-3,1,2-4,3,2,6,2,1,5,2,7,1,1-1,1-3,1-4,2,0,1,1,1,2-3,6-9,1-13-1,0,0-1,1-1,2,0-1,1-1,1-2-2,0-4-1-6-1h0Z"/>
  <path class="st0" d="M456,430c-1-1-2-3-2-4,1-3,6-7,7-4,1,2-2,6-2,9,1,3,5,1,7-1,2-3,0-5-1-7,4,1,2,6,2,7-3,3-8,5-11,0h0ZM461,422c-3-1-7,2-6,6,0,1,2,3,3,3,2-2,2-6,3-9h0Z"/>
  <path class="st0" d="M456,418h-1,3c-1-2-3-4-3-5,2-2-2-6,5-5-1-3-5-3-3-7,3-4,8,0,12-1-3,0-7-1-10,0-3,2,1,5,1,8,1,4,6,0,8,3-4,0-7-5-11-3-2,2-1,5-1,7,2,5,8,2,12,4-4,1-8-1-12-1h0Z"/>
  <path class="st0" d="M455,382c5,1,9,2,13,5-4,2-9,3-13,5,2,0,3-2,4-3,3,0,5,0,8-2-4-1-7-5-12-5h0Z"/>
  <path class="st0" d="M456,379c-1,0-1-1-2-1-3-4,0-10,5-9,0,4-1,8,1,11,0,1,4-1,5-3v-6c0-1-2,0-2-2,2,2,4,3,3,6-1,4-6,6-10,4h0ZM459,370c-2,0-4,1-5,3-1,3,1,4,2,6h2c1-3,1-6,1-9h0Z"/>
  <path class="st0" d="M446,369c4-3,9-1,14-2,1,0,3-1,4-2,0,3-3,3-4,3-5-1-9-2-14,1h0Z"/>
  <path class="st0" d="M452,359c-1-1-3-2-4-4-1-3,3-9,5-6,2,1,0,6,2,9,0,1,4-1,5-3,1-3-1-5-3-7,1,0,1,1,2,1,1,1,2,3,2,4-1,4-5,7-9,6h0ZM453,349c-4,0-5,3-4,6,1,1,2,4,5,3-1-3-1-6-1-9h0Z"/>
  <path class="st0" d="M446,347h-1c4-1,8-1,11-3,1-2,0-8-4-8-3,0-6,1-9,2,3-3,8-2,12-3-1,0-1,1-2,1,2,2,4,3,4,6-1,6-7,3-11,5h0Z"/>
  <path class="st0" d="M440,335c1,0,1-1,2-1-4-1-6-5-5-9,0,0,1-1,2-1-2-1-5-3-4-5,1-4,6-5,10-6-2,2-5,2-8,3-2,1-3,3-1,5,1,1,3,2,4,3,3,1,6-1,9-1-4,1-12-1-11,5,0,8,9,4,14,3-4,1-8,3-12,4h0Z"/>
  <path class="st0" d="M423,315c-2,0-1-1-1-2,2,0,1,1,1,2h0ZM422.89,313.54h0ZM428,311c-1,0-1-1-1-1,4-1,10-1,11-6-1,4-6,6-10,7h0Z"/>
  <path class="st0" d="M425,308c0-2,2-2,3-2-2-2-5,0-6-4,4,4,10,5,14-1-1,6-8,4-11,7h0Z"/>
  <path class="st0" d="M417,306h-2v-2c0-1,1-2,2-1v3h0ZM416.29,304.21h0ZM421,301h-1c4-2,8-3,11-7-1,4-6,6-10,7h0Z"/>
  <path class="st0" d="M418,299c2-4,7-3,9-7,1-3-3-6-6-6-3,1-5,3-8,4,3-3,7-3,10-6,0,1-1,1-1,2,3,1,6,3,5,6-2,3-7,3-9,7h0Z"/>
  <path class="st0" d="M410,288h-1c1-1,2-1,3-2-2-1-5,0-7-3,5,3,11,4,14-3,0,5-6,5-9,8h0Z"/>
  <path class="st0" d="M406,281c-2,0-4,0-5-1-2-2-3-5-1-8,1,0,2-1,2-1,3,3,4,6,6,9,2-2,4-4,3-7-1-2-3-4-6-4,3-1,6,2,7,5,0,4-3,6-6,7h0ZM402,272c-2,1-3,3-2,5,1,3,4,3,7,3-2-2-4-5-5-8h0Z"/>
  <path class="st0" d="M385,263c-3,1-1,6-5,7,2-3,3-7,6-9,2-1,5-3,7-5,0,1-1,1-1,2h3c2,1,4,4,3,7-2,4-6,7-11,4-1-1-2-4-2-6h0ZM386,264c-1,3,2,4,4,5,2,0,3,0,5-1,2-2,3-5,2-7-2-4-8-2-11,1v2h0Z"/>
  <path class="st0" d="M377,261c-1,0-2-1-2-1-4-6,2-11,7-11,3,1,5,4,5,7-1,3-5,8-10,5h0ZM379,261c2,0,4,0,5-1,4-3,2-9-2-10-2-1-5,0-6,2s-2,4-1,5c2,1-1,4,4,4h0Z"/>
  <path class="st0" d="M367,261v1c-1-7,7-10,9-16,0,2,0,3-1,5-2,4-8,4-8,10h0Z"/>
  <path class="st0" d="M363,253c-1-1-3-2-4-4-1-3,1-7,4-8s7,0,8,3c1,5-3,10-8,9h0ZM364,252c2,0,4,0,5-1,2-3,2-5,1-8-1-1-3-2-4-2-3,1-6,2-6,6,0,3,1,5,4,5h0Z"/>
  <path class="st0" d="M354,249c0-1,1-2,1-3-2,0-6,3-7-1,2,2,4,1,6,1,5-1,3-6,6-9-1,4-4,8-6,12h0Z"/>
  <path class="st0" d="M341,250c-2,2,0-3-2-1l1-1c0,1,1,1,1,2h0ZM340.1,248.92h0ZM342,244c0-3,3-4,4-7,0-2-1-4,1-5,1,5-1,9-5,12h0Z"/>
  <path class="st0" d="M339,243c-2,0-1-1-1-2-3,0-6,0-8-2-1-2,1-5,3-7,1-1,1-3,1-4,0,4-5,8-2,12,2,2,5,1,7,0,2-2,3-5,4-8,0,4-5,6-4,11h0Z"/>
  <path class="st0" d="M320,244c-5-1,1-5,1-8-2,1-5,2-7,0-3-4,1-8,0-12,6,0,1,3,1,4,0,2-2,4-1,6,0,3,5,3,8,2,3-2-1-7,3-9,0,5-3,9-5,13v4h0Z"/>
  <path class="st0" d="M308,234c-3,2-5,2-8,0-2-2-1-4-1-6,4,0,6,4,10,3,2-1,2-4,0-6-3-3-6-1-9,0,2-2,5-3,7-2,3,2,5,7,1,11h0ZM300,229v4c2,2,5,3,8,1,0-1,1-1,1-2l-9-3h0Z"/>
  <path class="st0" d="M296,235c-3,0-1-2-1-3-2,3-5,3-8,1-1-1-1-2-1-3,2-3-1-6,2-8,0,3-2,7-1,10,2,3,6,2,8,0,2-3,2-7,2-10,1,4-1,9-1,13h0Z"/>
  <path class="st0" d="M274,231c-1,3-1,6,0,9-4,0-2-3-2-5,0-4,3-8,1-13,2,0,1,1,1,2,1-2,3-3,6-2s5,3,5,6c-1,4-3,7-7,7-2-1-4-1-4-4h0ZM275,232c2,2,5,3,7,1,3-2,3-5,1-8s-7-4-9-1c0,1,1,3,0,6,0,1,1,1,1,2h0Z"/>
  <path class="st0" d="M270,235c-2,0-2-2-2-3,0,2-3,3-5,3,6-1,7-8,6-13,0,2,1,3,1,5-1,3-1,5,0,8h0Z"/>
  <path class="st0" d="M261,234c-2,0-3,3-6,2-2-1-5-4-4-5,3-2,8,3,11-1,1-2-2-4-4-6-4-2-4,3-7,3,2-4,7-4,10-1,2,2,1,5,0,8h0ZM252,231c-1,3,2,6,5,5,2-1,3-2,4-4-3-1-6-1-9-1h0Z"/>
  <path class="st0" d="M249,238c0-1-1-2-1-3-1,2-4,4-6,4,0-3,3,1,4-2,0-1,1-3,2-4,1-3-1-5-1-8,3,1,1,4,2,5,0,2-1,5,0,8h0Z"/>
  <path class="st0" d="M241,239h-1c1-4,2-8-1-12,2,4,4,7,2,12h0ZM244,245l-1,1c0-1-1-1-2-1l1-1c0,1,1,1,2,1h0ZM242.17,244.5h0Z"/>
  <path class="st0" d="M239,246c-4,0-2-4-3-5-1,0-3,1-4-1h4c0-4,2-10-4-11-1,0-1,1-2,1,0-4,3,1,4-1,2,3,4,7,2,11,1,0,3-3,3,1h-2c1,2,1,3,2,5h0Z"/>
  <path class="st0" d="M226,243c0,1-1,1-1,1-1-4,3-8-3-12,4,2,4,7,4,11h0ZM229,249c0,2-1,0-2,1q0-1-1-1l1-1c1,0,1,1,2,1h0ZM227.33,248.83h0Z"/>
  <path class="st0" d="M223,245c-2,0-2-1-2-2-1,4-5,5-8,4-2-3-2-7-3-11,2,4,1,10,5,10,8,1,5-7,4-13,2,1,2,3,2,5s0,5,2,7h0Z"/>
  <path class="st0" d="M198,255v1c0-3-2-6,0-10,0-1-1-3-1-4,5,1,7,6,10,10-4-3-5-7-9-9,2,4-1,8,0,12h0Z"/>
  <path class="st0" d="M197,257q0,1-1,1c-3-3-1-8-5-10-3-1-6,2-6,5s2,5,3,8l-1,1c-1-4-3-8-5-12,2,0,2,1,2,2,2-2,3-7,7-5,3,2,4,7,6,10h0Z"/>
  <path class="st0" d="M189,269c-5-2-5-8-7-12-1-1-2-3-4-3l1-1c2,1,3,2,4,4,2,4,1,9,6,12h0Z"/>
  <path class="st0" d="M182,266c-2,1-4,3-5,4-4,1-8-2-9-7,0-2,1-4,2-5,2-1,4-2,7,0-1-3-3-5-5-7,5,3,5,9,8,14,0,0,1,1,2,1h0ZM175,258c-2,0-4,0-5,2-2,3-1,8,2,9,2,1,6,0,7-2,1-3-1-5-2-8,0,0-1-1-2-1h0Z"/>
  <path class="st0" d="M172,275c-4-2-3-7-7-9-1-1-3,0-4,2-2,4-1,8,3,12-3-3-4-7-7-10,1,0,2,0,2,1,1-3,3-6,6-5,4,1,4,6,7,9h0Z"/>
  <path class="st0" d="M166,287v1c-4-1-5-4-9-2,6-1,1-7-1-9-2-1-4-2-6,0,5-5,9,3,11,7,1-1,2-1,3-1-1,0-2,0-3,1,2,1,3,2,5,3h0Z"/>
  <path class="st0" d="M148,293l2,2c-4-2-6-6-8-10,1,0,1,1,2,1,0-4,4-6,7-5,2,2,5,2,5,6,0,2-1,4-2,5-2,1-3,3-6,1h0ZM150,293c2,1,4-1,5-3,1-3-1-6-4-8-4-2-7,2-7,5,1,2,2,4,4,6h2Z"/>
  <path class="st0" d="M152,302c6,0,0,1,0,1-4-5-5-3-8-1,0-2,3-2,3-3-1-4-5-8-10-7,0,0-1,1-1,2,1-3,4-4,6-2s3,5,5,7c1-1,2-3,3-2s-1,2-2,2c1,1,3,2,4,3h0Z"/>
  <path class="st0" d="M142,303c1,3-1,6-4,7-2,0-5,0-4-3,1-2,6-4,5-7,0-3-6-2-8,0-1,1,1,4-1,5-1-3,1-6,3-7,3-1,8-1,9,5h0ZM133,307c2,1,4,3,6,2,3-1,4-7,2-7-3-1-5,3-8,5h0Z"/>
  <path class="st0" d="M129,325c-3,0-2-2-3-4,0-3-1-5-4-7,2,0,4-1,5,0,2,4,6,0,8,3h-3c-3-1-6-3-9-3,4,2,3,8,6,11h0Z"/>
  <path class="st0" d="M127,326c1,3,0,7-3,8-2,0-5,1-6-1,0-4,7-5,6-8,0-2-5-3-7-1-1,2-3,3-1,6-4,0,0-3,0-4-2-4,3-3,5-4,3,0,4,2,6,4h0ZM119,332c2,3,4,2,6,1,3-2,2-5,0-8-2,3-4,5-6,7h0Z"/>
  <path class="st0" d="M128,340c1,0,1,1,1,1-2,1-4,0-6-1l-6-6c-2-1-5,2-5-2,2,0,4,0,5,1,4,3,6,6,11,7h0Z"/>
  <path class="st0" d="M121,342c-2-2-4-4-6-5s-4,5-5-1c5,0,8,3,11,6h0ZM127,343l1,1c-1,0-2,1-2,1-3-2,3,0,1-2h0ZM126.16,344.25h0Z"/>
  <path class="st0" d="M125,348c-3-1-8-2-8,2,0-2,2-2,2-3-2-3-5-6-10-5-1,0-2,2-2,3-1-1,0-3,2-4h4c2,2,3,4,6,5,1,0,1-1,2-2,0,1,0,2-1,3,2,0,3,1,5,1h0Z"/>
  <path class="st0" d="M114,356c2,3,1,7-2,8-2,0-6,1-5-1,0-3,4-5,4-8,0-1-2-3-6-1-3,2-2,5-2,8-1-2-2-5,0-7,3-3,8-3,11,1h0ZM107,363c3,3,7-1,7-4,0-1-1-3-2-4-2,2-4,5-5,8h0Z"/>
  <path class="st0" d="M107,376h-1c4,1,6-4,5-7l-1-1c-3,0-5,3-7,6h-3c-3-3,0-9,4-10-2,2-5,2-5,5,0,1-1,3,1,4h2c4-1,6-9,10-5,1,3-1,9-5,8h0Z"/>
  <path class="st0" d="M104,388c0-3,4,0,4-3v-5c0-1-1-2-2-1-2,4-7,9-10,5-1-3,1-6,3-8,1,0,3-1,2,1h-2c-1,2-4,6-1,8h2c2-3,5-6,8-7,3,3,0,10-4,10h0Z"/>
  <path class="st0" d="M106,391c2,2,1,4,1,6-1,3-5,4-6,3-2-3,2-7,2-10-1-2-4-2-6,0-1,2-5,4,0,8l-1,1c-2-3-3-6,0-9,3-2,6-2,10,1h0ZM100,399c2,2,3,0,5,0,1-1,2-3,2-4-1-2-1-4-3-5-1,3-2,6-4,9h0Z"/>
  <path class="st0" d="M106,408c-1,0-1,1-2,1,2,2,4,4,3,7-1,1-2,2-4,3,3,1,2,4,3,6,0,1-3,2-4,2-3-2-6,3-8-1,4-1,9,3,11-1,1-6-6-8-11-9,3-1,5,0,8,2,5,2,5-4,4-7-3-3-8-3-12-3h12Z"/>
  <path class="st0" d="M108,435c1,4-4,8-8,7-3-1-6-5-5-8,2-3,5-5,8-4s4,3,5,5h0ZM106,433c-2-3-6-3-8-2s-3,4-2,7,5,4,8,3,4-5,2-8h0Z"/>
  <path class="st0" d="M114,442q1,0,1,1c-4,4-9,0-14,1-2,1-3,2-5,2,4-5,9-1,14-2,1,0,3-1,4-2h0Z"/>
  <path class="st0" d="M108,448c0,1,2,2,3,3,2,3-3,9-5,6-2-1,0-6-2-9,0-1-4,1-5,2-1,3,0,6,2,8-1,0-1-1-2-1-2-3-1-7,1-9s5-1,8,0h0ZM105,458c1-1,3-1,4-1,3-3,0-8-4-9,1,3,1,6,0,10h0Z"/>
  <path class="st0" d="M111,469c1,0,2-1,2-1,0-3,1-6-1-8-1-1-3,0-3,1,0,3-2,5-2,8,0,1-3,2-4,1-3-2-3-6-2-9,0-1,2-1,3-1-3,2-2,6-1,9h2c1,0,2-1,2-2,1-3,0-7,3-8,3,0,3,4,4,6,0,2-1,4-3,4h0Z"/>
  <path class="st0" d="M121,469c1,0,2,0,1,1s-3,1-5,2c-1,1,2,3-1,4v-4c-4-1-10,0-11,5,0,1,1,1,1,2-2-1-1-4-1-5,2-4,7-1,11-2v-3c0,1,1,2,1,3,1-1,3-2,4-3h0Z"/>
  <path class="st0" d="M118,478c-4-1-8,1-12,3,3-3,7-5,12-3h0ZM123,474c1,0,2,0,2,1s-1,1-1,2c-1-1-1-2-1-3h0ZM123.2,475.75h0Z"/>
  <path class="st0" d="M118,481c2,2,4,3,4,6-1,2-2,7-5,4-2-1-1-6-2-9-1-1-3,1-4,2-2,2-1,4-1,6s3,1,3,3c-1,0-2-1-2-1-1-2-3-5-2-7,2-3,5-4,9-4h0ZM117,491c2,1,3-1,4-2,1-3-1-8-5-7,1,3,1,6,1,9h0Z"/>
  <path class="st0" d="M128,507c0-1,1-1,1-2,1-4-2-8-7-7-3,1-5,3-5,6,1,2,1,5,5,5-4,0-6-4-5-7,1-4,5-5,8-4,4,0,7,5,3,9h0Z"/>
  <path class="st0" d="M135,511c2,2,1,5,0,7-3,3-8,3-11,0-2-2-1-5,0-7,2-2,4-2,7-3,2,0,3,2,4,3h0ZM133,510c-3-2-6-1-8,1s-2,4,0,7c1,2,3,3,6,2,3-2,6-7,2-10h0Z"/>
  <path class="st0" d="M140,518c2,2-2,2-1,3,2,1,6,3,5,6-2,4-7,3-10,6,2-3,8-2,9-6,1-9-10-5-14-3,4-1,8-3,11-6h0Z"/>
  <path class="st0" d="M151,538q-1,0-1,1c2-4,0-9-4-8-3,1,1,6,0,9,0,1-1,2-2,2-4,1-5-4-6-7,0-1,0-2,2-2-2,3-1,6,2,8h3c1-4-2-11,2-11,3-1,4,3,5,6,0,1,0,2-1,2h0Z"/>
  <path class="st0" d="M153,539c4,0,7,3,6,6,0,1-1,5-3,4-2-2-3-6-5-8-1-1-2,1-3,2-2,4,2,8,6,8-4,1-7-2-7-5,0-4,3-6,6-7h0ZM157,549c2-2,3-6,1-8s-4-1-6-1c1,3,3,6,5,9h0Z"/>
  <path class="st0" d="M169,556l2-2c-3,4-8,5-11,8-1,1,0,4-3,4,1-2,2-5,5-6-3-1-6-4-5-7s4-6,8-5,5,5,4,8h0ZM169,554c-1-2-1-4-4-5-2,0-3,0-5,1-3,2-3,6-1,8,4,4,7,1,10-2v-2h0Z"/>
  <path class="st0" d="M174,555c-1,5-8,5-7,10l3,3c5,1,8-3,11-6-2,4-7,5-10,9,0-2,1-2,2-2-4-1-7-1-7-5,1-4,5-6,8-9h0Z"/>
  <path class="st0" d="M190,572c0-1,0-2,2-2-2,4-6,5-9,9,0-1,1-1,1-2-3,1-5-1-6-4-1-4,2-7,5-8,4-1,7,3,7,7h0ZM190,570c-1-3-4-5-7-4-2,1-3,2-4,4-1,3,0,6,3,7,4,1,6-4,8-7h0Z"/>
  <path class="st0" d="M198,566h1c-1,4-3,6,0,9-2,0-2-2-3-3-4,3-9,8-4,12-1,0-3-1-3-3,0-4,3-7,7-9l-2-2,2,2c1-2,1-4,2-6h0Z"/>
  <path class="st0" d="M197,586c-1,1-2,2-3,2-1-2,3-1,2-2-2-1,0-1-1-2h2v2h0ZM196.43,585.35h0Z"/>
  <path class="st0" d="M218,584c-3,4-8,3-10,8,0-2-1-4-1-5,2-3-1-7,2-9,1,4-2,9-1,13,2-4,7-5,10-7h0Z"/>
  <path class="st0" d="M219,586c4-2,8-1,9,3,0,1-1,4-2,4-3-1-6-4-8-4-3,0-2,5,0,7,2,1,4,2,6,0,0,2-1,2-2,2-2-1-5-2-6-4-1-3,0-6,3-8h0ZM226,593c2-2,2-4,0-6s-5-2-8,0c3,2,5,4,8,6h0Z"/>
  <path class="st0" d="M233,583c0-6,1,0,1,0,0,2,0,4-1,5-3,3-6,7-6,12v-5c2-4,5-7,6-12h0Z"/>
  <path class="st0" d="M240,591h1c-4,3-6,7-5,12-1-5,1-8,4-12h0ZM241,585q0-1,1-1c1,0,1,1,1,2-2,3,0-3-2-1h0ZM241.78,585.71h0Z"/>
  <path class="st0" d="M245,586c1,5-2,9-5,13v5c0-2-1-4,0-6,2-4,5-7,5-12h0Z"/>
  <path class="st0" d="M248,587h1c0,5-3,9-5,13v5l-1-1c0-4,3-8,5-12v-5h0Z"/>
  <path class="st0" d="M250,593c6,0,1,3,1,4-2,3-4,8,1,9s8-5,8-10c0,4-1,9-4,11-1,2,2-2,0-2-1,0-3,2-4,2-2-1-5-1-4-6,1-2,3-5,2-8h0Z"/>
  <path class="st0" d="M263,596c2,0,1,1,1,2,3-3,7-2,10,0v3c2-3,6-3,8-1,1,3-1,7-2,11,1-4,1-7,1-11,0-1-2-1-3-1-4,1-7,5-8,10,0-4,5-7,3-11s-7-2-9,1c-1,3-1,6-2,9-1-4,1-8,1-12h0Z"/>
  <path class="st0" d="M300,602c2-3,0-7,0-10,3,5-1,10,0,15,0,1,1,3,1,4-2,0-2-1-2-2-1,1-2,3-5,2-3-2-6-5-5-9,1-2,2-3,4-4,3-1,6,1,7,4h0ZM299,601c0-1-1-2-1-2-5-2-10,3-8,8,1,3,5,4,8,3,2-2,0-5,2-8l-1-1h0Z"/>
  <path class="st0" d="M308,597c5,0,9,7,6,11-2,1-4,3-7,2-3-2-5-5-4-8s3-4,5-5h0ZM307,599c-1,0-1,1-2,1-3,5,0,10,5,10,3-1,4-3,5-6,0-2-1-4-2-5-2-1-4-2-6,0h0Z"/>
  <path class="st0" d="M316,591c4,0,3,3,3,5,0,4-4,8,0,13-5-2-1-6-1-9-1-2,0-6-2-9h0Z"/>
  <path class="st0" d="M325,595c2,0,4,0,5,1,3,3,3,8,0,11s-8,1-9-2c-1-4-1-9,4-10h0ZM324,597c-2,0-3,3-3,5s1,4,3,5c3,1,7,0,8-4,1-3-2-5-4-7-1,0-3-1-4,1h0Z"/>
  <path class="st0" d="M334,594c2,0,2,2,2,3,0-3,2-5,5-4-6,2-7,8-5,13-2-4,0-8-2-12h0Z"/>
  <path class="st0" d="M342,594c2-3,5-4,8-3,1,1,4,2,3,5-2,2-7,1-10,1,0,3,1,5,4,6s4-1,6-3c0,1-1,1-1,2-2,2-5,1-7,1-3-1-3-6-3-9h0ZM352,596c1-2-2-4-3-5-2,0-7,0-6,5h9Z"/>
  <path class="st0" d="M359,589c2-3,6-5,9-3,1,1,1,3,2,4-3,1-7,0-10,2-1,1,1,4,3,5,3,1,6-1,8-3-2,2-3,4-6,4-4-1-7-4-6-9h0ZM369,590c1-2-1-3-2-4-3-1-8,1-7,5,3-1,6-1,9-1h0Z"/>
  <path class="st0" d="M370,582c4,3,0,10,6,10s6-8,3-13c3,3,2,8,4,12,0-1-1-1-1-2-2,2-5,5-8,4-3-2-3-7-4-11h0Z"/>
  <path class="st0" d="M387,572c-2-2-1-5,2-5-1,0-2,1-2,1,0,2-1,5,1,6,1,0,2-1,3-1,0,3-2,1-3,1,1,4,0,8,5,11-5-1-5-7-5-11-1,0-2,1-3,1,0-3,3,1,2-3h0Z"/>
  <path class="st0" d="M394,573c0-4,5-6,8-5,1,1,2,2,2,3-1,4-7,0-9,4-1,4,3,4,6,5,3,0,2-5,5-5-1,3-3,6-7,5-3-1-5-4-5-7h0ZM404,571c-2-3-5-4-8-2-2,1-3,3-1,6,3-2,6-3,9-4h0Z"/>
  <path class="st0" d="M403,564v-1c3,3,2,8,6,10,4,1,6-3,6-6s-2-6-4-8c4,1,2,6,4,8l3,3c-2,0-2-1-3-2,0,3-3,6-6,5-3-2-4-6-6-9h0Z"/>
  <path class="st0" d="M423,552l-2-2c5,4,8,10,8,16,0,2-2,4-5,3,1-2,4,0,5-2,0-2,1-5-2-7-2,3-4,5-7,4-2,0-3-2-4-3-1-3-1-5,1-8,2-2,4-1,6-1h0ZM421,552c-1,0-3,0-4,1-2,2-2,5,0,8,3,3,10,3,10-2,0-3-1-6-6-7h0Z"/>
  <path class="st0" d="M419,544c-2-2,3,0,1-2,1,0,2,1,1,2h-2ZM419.97,543.33h0ZM424,547c2,4,4,8,8,10-6,0-7-6-8-10h0Z"/>
  <path class="st0" d="M435,540l-2-2c4,2,5,7,8,10-1,0-1-1-2-1,1,2-2,4-3,5-4,1-9-1-9-6,1-4,4-7,8-6h0ZM433,540c-3-1-4,2-5,4s1,4,2,6c2,3,6,3,8,0,0-1,0-2,1-3-3-2,0-6-6-7h0Z"/>
  <path class="st0" d="M431,531c2,0,3,3,5,3,1,0,2-2,4-2-5,2-1,6,1,9,3,2,5,1,7-1-2,2-5,4-7,2s-4-5-5-8l-2,2,2-2c-2-1-3-2-5-3h0Z"/>
  <path class="st0" d="M443,526v-1c1,0,2,1,2,1,2-1,0-5,3-6,5-1,8,4,10,8-3-2-4-8-8-7-2,0-5,2-4,6,1,3,4,5,6,7-5-1-5-7-9-8h0Z"/>
  <path class="st0" d="M451,515v-1c3,2,5,8,10,7,3-1,2-5,2-7,0-4-6-3-6-7,1,1,3,2,4,3,1,3,5,3,5,6-1,0-1-1-2-1,1,2-1,4-2,6-4,3-8-3-11-6h0Z"/>
  <path class="st0" d="M453,502v-1c2,1,3,1,5,2,4,3,5,7,10,8-2,0-4,0-5-1-3-3-4-8-10-8h0Z"/>
  <path class="st0" d="M455,499c-1,0-1-1-1-1,5-1,8,5,12,8,1,1,4-1,4,2-5-1-7-5-11-8-1-1-3-1-4-1h0Z"/>
  <path class="st0" d="M469,491c-1,0-2,0-2-2,3,3,8,4,10,8-1,0-1-1-2-1,1,3,0,6-4,7-3,1-6-1-8-4v-5c1-2,3-3,6-3h0ZM467,491c-1,0-1,1-2,1-2,2-2,5,0,8,2,2,6,4,8,1,1-2,3-3,2-5-2-1-3-3-5-5h-3Z"/>
  <path class="st0" d="M468,479c-1,0-1-1-2-1,2-1-3-4,1-4-1,1-1,2-1,3,1,1,2,3,4,3,1-1,1-4,3-3,1,2-5,1,0,6,2,2,5,3,8,3-5,0-8-3-11-6-2-1,0,4-2,3-1-1,1-2,2-3-1,0-1-1-2-1h0Z"/>
  <path class="st0" d="M479,467c-1,0-2-1-3-1l12,6c-1,0-2,0-2-1,1,4-2,8-6,7-2,0-5,1-6-2s0-7,3-9h2ZM477,468c-4,2-4,6-1,9,2,2,5,2,8,0,4-4-1-8-5-10-1,0-1,1-2,1h0Z"/>
  <path class="st0" d="M483,454l1,1h-3c-2,1-3,5-2,7,2,4,7,4,10,2,2-2,1-5,0-7,4,0-1,3,1,4,0,1-1,3-2,4-4,3-9,0-10-4s2-6,5-7h0Z"/>
  <path class="st0" d="M474,450c0-1,0-2,1-2l1,1c0,1-1,1-2,1h0ZM475.27,448.83h0ZM481,450h-1c4,1,7,5,12,4-4,0-8,1-11-4h0Z"/>
  <path class="st0" d="M476,446c-6,0,0-1,0-1,4,0,8,3,12,5,2,1,4-5,5,1-5,0-9-3-13-5h-4Z"/>
  <path class="st0" d="M476,443l-1-1c1,0,1-1,2-1l1,1c-1,0-1,1-2,1h0ZM476.9,441.77h0ZM482,443v-1c2,0,3,2,4,3,3,1,5,1,8,1-5,4-8-2-12-3h0Z"/>
  <path class="st0" d="M488,431c0,2-2,1-2,1-1,2-4,7-1,7,4,1,5-6,9-5,4,0,2,6,0,9h-3c4-1,5-5,4-8,0-1-2-2-3-1-2,3-4,5-7,7l-2-1c-1-4,1-8,5-9h0Z"/>
  <path class="st0" d="M479,428q-1,0-1-1l1-1,1,1c-1,0-1,1-1,2v-1h0ZM479.36,427.2h0ZM485,428v-1c4,1,6,6,12,3-1,6-3,1-5,1-3,0-5-1-7-3h0Z"/>
  <path class="st0" d="M489,416q1,0,1,1c-1-1-3,0-4,2,0,2-1,5,1,5,4,1,4-6,8-7,1,0,2,1,3,2,1,3-1,5-2,8h-3c4,0,5-5,4-8,0-1-1-1-2-1-3,2-5,8-8,7-3,0-2-5,0-8,1,0,1-1,2-1h0Z"/>
  <path class="st0" d="M489,399h-3c4-2,9,1,13,0-1,0-1,1-2,1,2,1,3,3,2,6s-4,4-7,4c-3-1-7-4-6-8l3-3h0ZM488,400c-2,2-1,4-1,6,1,3,5,4,8,3s4-4,3-7c-2-3-6-4-10-2h0Z"/>
  <path class="st0" d="M480,395c0-6,4-1,6-2,0-1-2-3,1-3,0,1-1,2-1,3,3,1,5,2,8,2,3-1,5-3,4-6,0,2,0,4-1,5-3,2-7,1-11,0,0,1,1,2-1,2,0-1,1-1,1-2-2,0-4,1-6,1h0Z"/>
  <path class="st0" d="M484,375v-1c5,0,9,3,13,5-3,2-6,2-9,3l-3,3c2-5,8-3,11-6-4,0-6-6-12-4h0Z"/>
  <path class="st0" d="M485,372c-1-2-3-4-3-6s4-5,5-4c2,3,0,7,2,10,0,1,4-1,5-2,0-2,2-5-2-8,1,0,1,1,2,1,2,3,1,7-1,9s-5,1-8,0h0ZM488,362c-3-1-6,3-5,6,1,2,2,3,4,4,1-3,1-7,1-10h0Z"/>
  <path class="st0" d="M481,360c0-3,2-1,3-1-2-2-5-2-5-5l1-1c2,6,8,7,13,5-2,1-3,2-5,2s-4-2-7,0h0Z"/>
  <path class="st0" d="M478,349c-3-5,2-9,6-9,2,0,5,2,6,4,1,3,0,5-2,7-3,2-8,2-10-2h0ZM479,350c3,3,7,1,10-1,1-1,0-4,0-5-2-2-4-3-7-3-4,1-5,6-3,9h0Z"/>
  <path class="st0" d="M475,334c-3-1-5-4-4-7,1-1,3-5,5-3s0,8,2,10c2,1,3-3,5-4,2-3-1-5-3-7,1,0,1,1,2,1,1,1,2,3,2,5-1,3-4,7-9,5h0ZM476,324c-2,0-3,2-4,3v4c1,1,2,4,5,3-1-3-1-7-1-10h0Z"/>
  <path class="st0" d="M468,323c1,0,2-1,3-1-1-2-5-2-5-5,3,5,9,7,14,2-3,5-8,2-12,4h0Z"/>
  <path class="st0" d="M463,313c-3-4,0-7,3-9,2-1,6-1,8,2s1,8-3,9c-3,1-6-1-8-2h0ZM465,314c3,2,6,1,8-1s1-4,1-6c-2-4-7-4-10-1-2,3,0,6,1,8h0Z"/>
  <path class="st0" d="M457,295h1c-2,2-1,5-1,7,0,1,2,3,4,2,2-3,0-7,1-10,1-2,5-1,6,1s2,6-1,7c0-1,1-1,1-2,0-3-1-6-2-6-5-2-4,5-4,9,0,1-2,1-3,1-3-2-4-6-2-9h0Z"/>
  <path class="st0" d="M452,290c-3,0-5-2-6-5,0-2,1-5,4-6,1,3,3,7,4,10,2-2,5-4,4-7-1-2-3-4-5-4h3c2,1,4,3,3,6s-4,5-7,6h0ZM450,280c-2,2-4,2-3,5s4,5,7,4c-1-3-2-6-4-9h0Z"/>
  <path class="st0" d="M438,284c3-3,3-5,2-8,2,0,1,3,2,3,4,0,7-2,9-5,1-1,0-3-1-4,2,2,3,6,0,7s-6,1-8,3c0,0,1,1,1,2l-2-2c-1,1-2,3-3,4h0Z"/>
  <path class="st0" d="M431,262l-2,2c2-4,8-4,10-8,0,1,0,2-1,2,4,2,7,7,3,10-2,2-6,3-9,1-2-2-3-4-1-7h0ZM431,264c-1,3,2,5,5,6,3,0,5-2,6-4,0-2,1-4-1-6-3-3-7,0-10,2v2h0Z"/>
  <path class="st0" d="M421,253q0-1,1-1c-2,3-1,5,1,7,3,1,6,2,8-1,1-1,2-3,2-4,0-3-3-6-6-5,0-2,1-1,2-1,4,1,5,5,4,8s-5,5-8,4c-4-1-5-4-4-7h0Z"/>
  <path class="st0" d="M412,244c-1,3,1,6,4,7,2,1,4-1,6-2,2-2,1-4,1-6-1-2-2-4-6-3,4-1,8,3,7,7-1,3-5,6-8,5-2-1-6-2-4-8h0Z"/>
  <path class="st0" d="M407,246h-1c2-3,7-5,7-9,0-2-2-5-6-4-3,1-5,4-7,6,0-2,2-3,3-4,3,0,3-6,6-5,1,1-1,2-2,2,2,2,5-1,7,3,1,2,0,4-1,5-2,2-5,3-6,6h0Z"/>
  <path class="st0" d="M396,238c0-1,1-1,1-2-3,0-6,1-8-2-1-2,0-3,1-5-2,0-5,1-7-1-3-4,3-8,6-11-2,4-8,6-5,10,3,5,9,0,13-4,0,4-4,4-7,6,0,1-1,1-1,2,3,10,11,2,15-2-2,3-5,6-8,9h0Z"/>
  <path class="st0" d="M371,219v2c1,3,5,6,6,4,3-4-4-6-3-11,0-2,3,0,3-2,3,1,7,4,6,8l-1-1c0-1,1-1,1-2-1-2-4-3-6-4-1,0-2,1-2,1,0,4,5,7,3,11-1,3-7-1-8-4,0-1,1-1,1-2h0Z"/>
  <path class="st0" d="M359,215c0,1-1,1-1,2,2-4,3-8,6-11v2c3-1,6,1,7,3,1,3,0,8-3,9s-7,0-9-3v-2h0ZM360,217l3,3c4,1,8-2,8-6,0-3-2-5-5-6-4-1-4,4-7,6,0,1,1,2,1,3h0Z"/>
  <path class="st0" d="M354,217v-3c-3,2-7,1-7-2-1-3,1-7,4-10,0,4-6,5-4,10,1,3,5,3,8,2s1-7,5-8c-1,4-5,7-6,11h0Z"/>
  <path class="st0" d="M338,209c-3,2-7,1-9-1-1-2,0-4,1-6,3,2,6,5,9,4,2-1,1-5-1-7-2-1-4-1-7,0,1,0,1-1,2-1,2,0,4,0,5,1,3,3,2,7,0,10h0ZM330,203c-1,1-1,2-1,3,1,2,3,5,6,4,1,0,3-2,3-3-2-2-5-3-8-4h0Z"/>
  <path class="st0" d="M323,214c0-2,1-4,0-6-1-1-4,0-3-2,1-1,2,2,3,2,3-2,4-7,4-11,0-3-4,1-4-2,2,1,6,2,5,5s-2,6-4,8c1,0,2,0,2,2-1,0-1-1-2-1,0,2-1,3-1,5h0Z"/>
  <path class="st0" d="M313,213c-1,0-2,0-2-1l1-1c1,0,1,1,1,2h0ZM311.96,211.68h0ZM313,206h-1c2-3,6-6,3-12,6,1,1,3,1,5,0,3-1,5-3,7h0Z"/>
  <path class="st0" d="M310,206c-5-1,1-5,1-8,0-2,0-3-2-4-2,0-5-1-7,2-1,3-2,6-2,9-1-5,1-9,2-13v3c3-2,7-3,9,0,1,3-2,7-1,11h0Z"/>
  <path class="st0" d="M288,201v-1c0,4,5,4,8,4l1-1c0-1-1-2-1-2-4-2-10-5-6-9,3-1,8,0,9,4-3-2-5-4-9-3-1,0-1,1-1,2,2,3,5,4,8,6,1,2-2,4-4,4-2-1-3-1-5-2v-2h0Z"/>
  <path class="st0" d="M284,210c-6-1,0-4-1-6-1,0-3,2-3-1,1,0,2,1,3,1,3-3,3-7,1-11-1-1-3-1-4-1,3-1,6,2,6,4,0,3-2,5-2,8,0,0,1,1,2,1h-3c0,2,1,3,1,5h0Z"/>
  <path class="st0" d="M274,205c-4,1-6-3-7-6,0-2,0-4,1-5,2-2,6-4,9-1,3,4,2,10-3,12h0ZM275,204c3-2,4-5,3-8s-4-4-7-3c-3,2-4,7-2,10,2,2,4,1,6,1h0Z"/>
  <path class="st0" d="M256,206c-3,1-5-1-7-2-2-2-2-5,0-8,2-2,6-4,9-1s3,10-2,11h0ZM257,205c2,0,3-3,3-5-1-3-2-7-7-6-2,1-5,4-4,7,0,1,1,3,2,4,2,1,4,2,6,0h0Z"/>
  <path class="st0" d="M237,206c0,3,0,6,1,9-4-4,0-9-1-14,0-1-1-3-2-4,1,0,2,0,2,1,2-4,7-2,9,0s1,5,1,8c-1,2-4,4-7,3l-3-3h0ZM238,207c4,3,10,0,9-5,0-2-1-4-3-5s-6-1-7,2c0,2,1,3,0,6,0,1,1,1,1,2h0Z"/>
  <path class="st0" d="M233,210c0-4,1-8-2-12,5,2,3,8,2,12h0ZM236,216q0,1-1,1-1-1-2-1l1-1c1,0,1,1,2,1h0ZM234.38,215.59h0Z"/>
  <path class="st0" d="M226,213c-3,0-5,0-7-2-3-4,0-9,3-11s5,1,7,2c3,3,0,8-3,11h0ZM227,211c3-1,2-4,2-6-1-3-4-5-7-4s-4,4-3,7,5,6,8,3h0Z"/>
  <path class="st0" d="M203,217c-1,3,3,6,2,9-2-5-3-9-3-14,0-1-1-3-2-4,1,0,2,0,2,1,0-3,3-2,4-3,4-1,6,3,7,6,0,2-1,4-2,6-2,2-6,1-8-1h0ZM204,218c3,0,7,0,8-3s0-7-4-8c-3,0-6,0-6,3,1,3,0,6,2,8h0Z"/>
  <path class="st0" d="M200,221c0,1-1,1-1,1,0-4-1-8-3-12,4,2,4,7,4,11h0ZM203,227v1c-1,0-2,0-2-2,1,1,2-1,2,1h0ZM201.99,226.57h0Z"/>
  <path class="st0" d="M187,225c0,1,1,1,1,2-4-5-5-11-5-17,0-1,1-1,1-2,1-1,3-2,5,0h-2c-5,1-4,5-2,8,1-1,3-3,5-3,4,1,7,5,6,9-1,2-5,5-8,4l-1-1h0ZM188,225c2,0,4,1,5,0,2-2,3-4,2-7-2-4-5-6-9-3-2,2-1,6,0,9,0,0,1,1,2,1h0Z"/>
  <path class="st0" d="M185,229v1l-2-2c-1,3-4,5-7,4-1,0-2-1-2-2-1-3-1-6-3-8,3,3,3,7,5,10,3,2,6-2,7-5s-3-6-3-9c4,3,2,8,5,11h0Z"/>
  <path class="st0" d="M173,236c-2-4,0-8-6-11,4,2,7,6,6,11h0ZM178,240c0,2-1,0-2,1,0-2,1,0,2-1h0ZM176.31,240.35h0Z"/>
  <path class="st0" d="M161,240v-1c1,0,1,1,2,1,3,0,8-1,6-4s-9,1-11-3c-1-3,4-5,7-5,1,0,2,0,2,2-3-3-7,0-8,2,0,1-1,3,1,3,3,1,7-2,10,1v2c-2,3-6,4-9,2h0Z"/>
  <path class="st0" d="M152,247v-1c1,1,1,2,2,2,2-1,7-2,5-5-1-3-7,1-10-2v-2c2-3,6-7,9-2-3-2-7-1-9,2-1,2,1,2,2,3,3,1,7-3,10,0,1,3-2,4-4,6-2,1-3,0-5-1h0Z"/>
  <path class="st0" d="M152,251q0,1-1,1c-1-4-1-8-6-10,5,1,6,5,7,9h0ZM157,255v2h-2v-2h2ZM155.44,255.79h0Z"/>
  <path class="st0" d="M150,255c-2,0-2-1-2-2-1,3-1,5-4,7-2,1-3,0-5-2,1,3-1,6-3,7h-2c-3-2-5-6-7-9,2,2,4,4,5,7,1,1,3,2,4,1,5-4,1-9,0-14,3,3,1,9,5,9,9,1,6-9,2-14,3,3,5,7,7,10h0Z"/>
  <path class="st0" d="M121,279l2,2c-5-2-5-8-9-11-1-1-3-1-4-2,3,0,4,3,7,4,0-4,4-6,7-5,4,2,5,6,4,10-1,2-4,4-7,2h0ZM123,279c2-1,4-1,5-4,1-5-4-9-8-7-1,1-3,3-3,5,1,3,1,6,6,6h0Z"/>
  <path class="st0" d="M122,284l-1,1c-2-3-5-7-8-7-2-1-6,3-4,6,2,2,4,4,6,7-1-1-3-2-4-3-1-3-6-3-5-6,0,0,2,0,3,1,0-2-1-5,2-6,5-1,8,4,11,7h0Z"/>
  <path class="st0" d="M113,294v1c-1-5-5-6-9-8,4,0,7,4,9,7h0ZM119,297c2,2-3,0-1,2-1,0-2-1-1-2h2ZM117.94,297.58h0Z"/>
  <path class="st0" d="M114,305c-3,0-5-1-7-4,1,6-5,7-9,6-3-1-4-5-3-8,1-2,4-3,6-4-1,0-1-1-2-1,4,0,5,4,8,7,2,2,5,3,7,4h0ZM100,296c-2,1-3,2-4,3-1,4,2,9,7,8,2-1,5-3,4-6s-4-6-7-5h0Z"/>
  <path class="st0" d="M108,315v1c-2,0-3-1-5-2-4-3-7-6-11-8,5,1,7,5,11,8,1,1,3,1,5,1h0Z"/>
  <path class="st0" d="M94,324c1,0,3,0,2,0-5,2-7-4-11-6l1-1,1,1c-1-4,3-6,6-7,3,0,5,2,6,4,2,4-1,7-5,9h0ZM95,323c3,0,4-3,4-5,0-4-6-8-10-5-2,2-1,4-1,6,1,2,3,4,7,4h0Z"/>
  <path class="st0" d="M95,328v1c-1,0-2-1-3-1,2,3,1,7-2,8-4,0-8-2-10-6,4,2,8,9,12,3,1-1,0-3,0-5-1-5-7-2-8-6,4,1,7,6,11,6h0Z"/>
  <path class="st0" d="M83,348c3,2,6,3,9,3-5,0-9-2-13-6-1-1-4,1-4-2,1,0,1,1,2,1-2-3,0-5,2-7,3-2,7,0,9,3,1,2,2,3,1,5s-3,3-6,3h0ZM85,347c1,0,1-1,2-1,2-3,1-8-2-9-2,0-5-1-7,1-4,5,2,9,7,9h0Z"/>
  <path class="st0" d="M85,353v1c-1-4-5-3-7-5-1-1-4,5-4-1,4,1,8,0,11,5h0ZM91,354q1,0,1,1c0,1-1,2-2,1s0-2,1-2h0ZM90.39,354.76h0Z"/>
  <path class="st0" d="M90,358v1c-3,0-4-5-8,2,0-1,1-2,1-3-2-2-4-3-7-4-2-1-5,1-5,4-1-2,1-4,2-5,4-2,8,2,11,5,0-1,0-4,2-3,1,1-1,2-2,3h6Z"/>
  <path class="st0" d="M81,368q1,0,1,1h-2c-1,2,3,3,0,6-2,1-4,3-7,2s-4-2-5-5,1-6,4-6c-3-2-6-2-9-2,7-2,12,3,18,4h0ZM71,367c-1,2-4,2-3,5,1,5,8,7,11,3,4-5-2-7-6-9-1,0-1,1-2,1h0Z"/>
  <path class="st0" d="M79,381v1c-1,0-2-1-3-1,2,2,3,5,1,7,2-6-6-10-11-9q1,0,1-1c4,0,8,2,12,3h0Z"/>
  <path class="st0" d="M74,398h3l-1,1c-4-1-8-1-12-3h2c0-2-4-2-1-6,2-3,5-4,8-3,2,1,3,2,4,4,1,3-1,5-3,7h0ZM75,397c3-3,2-7-2-9-2-1-5,0-7,2-1,2-2,4,0,6,3,1,5,4,9,1h0Z"/>
  <path class="st0" d="M74,402c3,1,2,5,2,7-1,3-5,4-6,2-2-3,0-7,2-10-4-1-7,1-8,5,0,2,2,3,2,5-3-2-3-6-1-9,3-2,6-2,9,0h0ZM70,411c3,1,6-2,6-5-1-1-2-5-4-4-1,2-1,6-2,9h0Z"/>
  <path class="st0" d="M73,423c2-2,4-6,1-9-2,3-4,6-7,9-1,1-3,0-3-1,0-3-1-6,1-8,1,0,1-1,2-1-1,0-1,1-2,1-2,2-2,7,1,8,4,0,4-6,6-8h4c1,3,0,6-1,9h-2Z"/>
  <path class="st0" d="M75,426c1,2,3,4,2,7-1,2-4,4-5,3-2-3-1-7,0-10-3-1-5,0-7,3s2,4,2,7c-3-2-5-6-2-9,3-2,7-3,10-1h0ZM71,435c1,0,2,1,2,1,2-1,4-4,3-7-1-1-2-2-4-3,0,3,0,6-1,9h0Z"/>
  <path class="st0" d="M78,438c0,2-1,1-2,1,3,2,2,5,2,8-1,1-3,2-4,2-3-2-5,0-8,0,4-3,9,1,12-3,2-3-1-5-3-7-3-1-7,0-10,0,3,0,6-2,10,0,1,0,2-1,3-1h0Z"/>
  <path class="st0" d="M86,451c-5,0-7,2-6,6l-1-1c0-1,1-2,1-3-3-2-8-1-11,1v4c-2,1-1-1-1-2,1-6,8-4,12-3,0-1-2-3,1-3,0,1-1,2-1,3,2-1,4-1,6-2h0Z"/>
  <path class="st0" d="M88,461c0,3-2,3-4,3-5,1-9-1-14,2,3-5,9-2,14-3,1,0,3-1,4-2h0Z"/>
  <path class="st0" d="M84,467c-4,2-8-1-11,3-1,3,0,6,3,7s7-1,10-1c-4,3-9,1-13,3,0-2,2-2,3-2-1,0-2,0-3-1-2-2-2-5,0-7,3-2,8,0,11-2h0Z"/>
  <path class="st0" d="M87,480l-1,1c2,2,4,4,3,7-2,4-6,5-10,4-4-2-4-7-1-10-3,0-6,1-8,3,0-4,3-3,5-3,4,0,8,0,12-2h0ZM78,484c-2,2-2,4,0,6,3,3,6,2,9,0,2-2,1-4,1-6-2-3-6-2-9-2,0,0-1,1-1,2h0Z"/>
  <path class="st0" d="M97,490h1c-1,2-4,2-5,4,0,1,2,4-1,3v-3c-5-1-12,1-10,7-1-1-2-4-1-5,3-3,7-3,11-3v-3c0,1,1,2,1,3,1-1,3-2,4-3h0Z"/>
  <path class="st0" d="M96,508h2c-4,1-8,2-12,4,0-2,1-2,2-2-2-1-4-2-4-5,1-4,4-7,9-6,4,1,6,6,3,9h0ZM96,507c2-2,0-4-1-6-2-2-6-2-9,0-3,3,0,8,2,8,2,1,5,0,7,0,0,0,1-1,1-2h0Z"/>
  <path class="st0" d="M105,508h1c0,4-7-1-4,7-3,0-1-2-1-3-5,1-12,2-10,8-2-2-1-6,1-7,3-1,6-1,9-1,0-1-1-2-1-3,0,1,1,1,1,2,1-1,3-2,4-3h0Z"/>
  <path class="st0" d="M104,517c-1,1-2,2-3,2-2,1-5,1-7,3-1,1,0,3,1,4,4,5,9,0,13,0-4,2-7,2-11,5l-1-1c1,0,1-1,2-1-2-2-5-4-4-7,2-4,7-4,10-5h0Z"/>
  <path class="st0" d="M111,528h1c-2,0-2,1-3,2,2,0,4,1,5,2,1,2,3,4-1,7,2,1,7,2,6,6-2,4-7,4-10,6,0-4,5-3,7-4s3-5,1-6c-2,0-3-2-4-2-3,0-6,1-9,2,1-1,3-2,4-2,2,0,5,1,7-2v-2c-1-3-2-4-6-5s-5,4-9,4c3-3,7-5,11-6h0Z"/>
  <path class="st0" d="M116,556c3-1,6,1,10,2h5c-1-3-3-6-5-8,4,1,2,7,6,8-5,1-10-1-15-2,1,3,4,5,4,9,0-4-5-5-5-9h0Z"/>
  <path class="st0" d="M124,565c5-1,10,2,15,1-1-3-5-4-5-8,0,4,5,5,6,9-5,1-10-2-15-1,2,2,3,5,5,7l-1,1c0-4-5-5-5-9h0Z"/>
  <path class="st0" d="M142,567l1,1c-1,1-2,1-3,2,3-1,5,1,7,3-5-3-11-4-14,3,2-4,6-5,9-9h0Z"/>
  <path class="st0" d="M148,573c-2,4-8,3-9,9,1-4,5-7,9-9h0ZM151,568c1,0,3,1,2,2h-2v-2h0ZM151.59,569.26h0Z"/>
  <path class="st0" d="M154,571c-1,1-1,3-2,4-3,4-10,4-10,10,0-2,1-3,2-5,3-4,9-3,10-9h0Z"/>
  <path class="st0" d="M163,589c2-2,4-4,5-7-1,5-5,9-10,11-1,1-1,3-3,3,0-1,1-1,1-2-2,0-4,1-5-2-1-4,1-9,5-10,3-1,6,1,7,3v4h0ZM163,588c-1-3-3-6-7-5-2,1-4,2-5,4-2,3,1,5,2,6,3,1,8-1,10-5h0Z"/>
  <path class="st0" d="M167,591c3-1,7,1,7,5,0,1-1,3-2,4-4,0-3-6-7-7-3,0-3,2-3,5,1,3,4,5,7,4,0,2-1,1-2,1-2-1-4-2-5-3-1-3-1-8,5-9h0ZM172,599c2-2,1-4,1-6-2-2-5-3-8-1l7,7h0Z"/>
  <path class="st0" d="M181,591c-1,2-1,3-2,5-3,4-7,5-8,10,0-2,0-4,1-5,3-3,7-5,9-10h0Z"/>
  <path class="st0" d="M180,600c3-2,5,0,7,1,2,2,1,7-1,6-3,0-5-4-8-4s-2,6,1,8c1,1,3,0,5,0-3,2-5,0-7-1-3-3-1-9,3-10h0ZM186,608c3-3,1-6-1-8-2-1-4-1-6,1l7,7h0Z"/>
  <path class="st0" d="M192,604h1c0,1-1,1-1,2,3-1,6,0,8,3,0,1,0,3-1,4-3,1-3,5-6,6,2-3,5-5,6-9,0-1-1-1-1-2-6-4-10,1-12,6,0-5,4-6,6-10h0Z"/>
  <path class="st0" d="M204,610h1l-6,6c-1,2,5,4-1,5,0-5,3-8,6-11h0ZM205,604c0-1,1-2,2-1s0,2-1,3c0-1,0-2-1-2h0ZM206.41,604.84h0Z"/>
  <path class="st0" d="M210,606h1c0,3-7,3,1,8-2,0-2-2-3-2-3,2-6,5-5,10,0,1,2,2,3,2-1,1-3,0-4-2v-4c2-2,4-3,5-6,0-1-1-1-2-2,1,0,2,0,3,1,0-2,1-3,1-5h0Z"/>
  <path class="st0" d="M227,621c0-1-1-2,1-2-2,4-3,8-6,11,0-1,1-1,1-2-2,1-4,2-6,0-1-2-3-4-2-7s5-6,8-5c2,1,3,3,4,5h0ZM226,620c0-1-1-1-1-2-3-2-6-1-8,1s-2,5,0,8c5,4,10-2,9-7h0Z"/>
  <path class="st0" d="M231,619h1c0,4-4,7-3,11,1,3,5,3,8,1s1-7,4-9c-1,4-4,8-5,12v-3c-2,2-5,2-7,1-4-4,2-8,2-13h0Z"/>
  <path class="st0" d="M253,627c0-1,0-3,0-2,2,6-2,11-5,16-2,2-6,0-7-2,1,1,3,2,4,2,2,0,4-1,5-5h-4c-3-2-5-6-4-9,3-5,8-5,11,0h0ZM252,626c-2-1-6-4-8-1s-3,9,2,10h4c2-2,5-5,2-9h0Z"/>
  <path class="st0" d="M257,625c1,3-1,5-2,8-1,5,6,5,9,3s-2-7,3-9c0,2,0,4-1,5-3,2,0,5-3,7v-2c-3,2-6,1-8-1-1-3,1-7,2-11h0Z"/>
  <path class="st0" d="M270,629c3-2,7-2,9,1v4c-4,0-7-2-10-3,0,3,0,6,2,8,2,1,5,0,7-1-3,2-6,3-9,0-2-2-3-6,1-9h0ZM278,634c2-2,1-4,0-5-2-2-7-2-9,2,3,0,6,1,9,3h0Z"/>
  <path class="st0" d="M296,632c1-3,1-6,0-10,4,5,0,10,0,15,0,1,1,3,1,4-2,0-2-1-2-2-1,1-2,2-3,2-3-1-7-2-7-7,1-3,3-8,7-6,1,1,4-1,4,4h0ZM295,631c0-1-1-2-1-2-3-1-7,0-8,3v5c1,3,5,4,8,3,2-2,0-5,2-8l-1-1h0Z"/>
  <path class="st0" d="M300,628c4,2-1,5,0,8,0,3,2,5,5,4,5-2,6-7,5-12v12c0-1-1-1-1-2-2,3-6,3-8,1-1-1-1-2-1-3,1-3,1-5,0-8h0Z"/>
  <path class="st0" d="M312,621l1-1c0,1,1,1,2,1,0,1,0,2-1,2s-2,0-2-2h0ZM313.66,621.92h0ZM314,628c0-6,1,0,1,0-3,4-2,8,0,12-3-3-2-8-1-12h0Z"/>
  <path class="st0" d="M327,629c0,1-1,1-1,1-1-3-6-4-8-2v2c3,2,7,2,9,5,1,4-4,4-7,4-1,0-2-1-3-3,2,3,5,2,8,2,0,0,1-1,1-2-1-4-5-3-8-5-1-1-2-3-1-4,3-2,6-2,9,0,0,1,1,1,1,2h0Z"/>
  <path class="st0" d="M343,626c0-3,0-6-1-9,4,5,0,12,3,18-1,0-2,0-2-1-2,4-7,2-9,0-3-4-1-10,4-11,2,0,4,2,5,3h0ZM342,625c-2-2-4-1-6-1-2,1-4,5-3,7,2,2,2,5,5,5,1,0,3-1,4-1,2-3,2-6,0-10h0Z"/>
  <path class="st0" d="M351,621c1,0,1-1,2-1,5,1,6,6,5,10-2,4-7,4-10,1-2-3-2-9,3-10h0ZM349,622c-3,4-2,10,3,11,2,0,4-1,5-3s2-5,0-7-5-3-8-1h0Z"/>
  <path class="st0" d="M357,613c3,0,2,2,3,4v9c1,2,3,3,3,5-5-3-2-9-3-14-1-1-2-3-3-4h0Z"/>
  <path class="st0" d="M367,616c1,0,1-1,2-1,4,1,7,5,6,9-2,3-4,5-8,4-2-1-4-4-4-6s0-5,4-6h0ZM366,617c-3,2-3,6-1,9s6,2,8,0,2-5,0-8c-2-1-5-4-7-1h0Z"/>
  <path class="st0" d="M376,613c0,1,1,2,1,3,1-2,2-5,5-6-2,3-5,4-5,8,0,2,2,4,2,7-3-4-1-8-3-12h0Z"/>
  <path class="st0" d="M384,612c0-2,1-5,5-5,2,1,7,2,4,5-1,2-6,1-9,2v2c3,4,8,5,11,0-1,3-4,4-7,4-3-1-4-4-5-6,0-1,1-1,1-2h0ZM394,612c-1-3-4-5-7-4-2,1-3,3-3,6,3-1,7-1,10-2h0Z"/>
  <path class="st0" d="M396,597v-1c3,1-1,7,7,4l1,1h-4c1,5,2,14,9,10-2,1-3,2-5,1-3-2-4-6-4-10h-3c1,0,1-1,2-1-1-1-2-3-3-4h0Z"/>
  <path class="st0" d="M406,600c1-2,2-3,4-4,3-1,5,1,6,4-4,0-7,1-10,3,2,2,4,4,7,5,3,0,2-5,5-5,0,5-7,7-10,4-1-2-3-4-2-7h0ZM415,599c0-2-1-2-2-3-3-1-8,2-7,6,3,0,6-1,9-3h0Z"/>
  <path class="st0" d="M419,586c0-1-1-2-1-2,1-1,1-4,3-2-1,0-2,1-2,1-1,2,2,3,2,5,1,0,2-1,3-1,0,2-3,2-3,2,0,4,2,7,6,10-4-1-6-6-7-10-1,0-1,1-2,1,0-2,1-1,2-2,0-1-1-1-1-2h0Z"/>
  <path class="st0" d="M426,587c0-3,2-5,4-6,3-1,5,1,7,4-4,0-6,4-10,4,2,2,4,5,7,4,3,0,3-3,4-5,1,3-2,7-6,6-3-1-5-4-6-7h0ZM436,585c0-3-3-4-5-3-3,1-4,4-4,7,3-2,5-4,9-4h0Z"/>
  <path class="st0" d="M435,577v-1c0,3,3,5,4,8,2,3,8,1,8-4,0-3-4-5-4-9,0,3,4,4,4,8,0,1,4,1,3,3-1,1-2-1-3-2v3c-1,2-2,4-6,3-3-2-4-6-6-9h0Z"/>
  <path class="st0" d="M454,564l-2-2c4,4,7,9,10,14,1,3-3,4-5,5l-1-1h2c5-2,3-6,0-9v2c-1,2-3,4-6,3-4-1-8-6-5-10,1-1,3-3,5-3,1,0,1,1,2,1h0ZM452,564c-2-1-4,1-5,3,0,1-1,4,0,5,2,3,7,5,10,1,0-1,1-1,1-2,0-3-1-7-6-7h0Z"/>
  <path class="st0" d="M463,554c-1,0-2,0-2-2,2,4,6,6,8,10-1,0-1-1-2-1,1,2-2,4-3,5-2,1-5,1-7-1-1-2-3-4-2-7,1-4,5-5,8-4h0ZM461,554c-2,1-4,1-5,4-1,4,2,8,6,8,2,0,6-3,4-6,0-2-2-5-5-6h0Z"/>
  <path class="st0" d="M457,546c0-2,1-1,2-1l1,1h-3ZM458.71,545.68h0ZM463,549c3,0,2,3,2,4,1,5,6,1,7,5-5,0-7-5-9-9h0Z"/>
  <path class="st0" d="M461,543l-1-1c3,0,3,6,9,1,0,2-2,2-3,2,2,2,3,5,5,7,3,3,4-1,7-1-1,3-5,2-7,1-2-2-4-4-5-6-1,1-2,1-3,1,2,0,2-1,3-2-2-1-3-1-5-2h0Z"/>
  <path class="st0" d="M472,536c1,0,2,0,3,1-1-3,1-7,4-6,4,0,6,4,9,7-4-2-5-8-10-7-7,3,0,10,3,14-4-2-5-7-9-9h0Z"/>
  <path class="st0" d="M479,526v-1c5,0,6,7,11,6,3-1,3-5,2-7s-4-4-6-6c1,1,3,2,4,3,0,4,4,2,5,5-1,0-1-1-2-1,1,3-1,7-4,7-4,0-7-4-10-6h0Z"/>
  <path class="st0" d="M481,512c7,0,10,7,16,9-2,0-4,0-5-1-4-3-6-7-11-8h0Z"/>
  <path class="st0" d="M483,509v-1c5,1,7,5,11,8,2,1,5-2,5,2-2,0-4,0-5-1-3-3-4-8-11-8h0Z"/>
  <path class="st0" d="M497,501c-1,0-2,0-2-2,3,3,8,4,9,7,1,1-1,4-2,6-3,3-7,1-9-1-1-1-2-3-2-5,1-3,3-6,6-5h0ZM496,502c-1-1-3,0-4,2-1,3,0,7,3,8s6,0,8-2c2-4-2-7-5-9,0,0-1,1-2,1h0Z"/>
  <path class="st0" d="M496,489c-1,0-1-1-2-1,2,0-2-3,1-3l-1,1c2,1,2,4,4,4,1-1,1-4,3-3,1,1-2,2-2,3,1,5,7,6,11,6-4,0-8-3-12-5,0,1-1,3-2,2s1-2,2-3c-1,0-1-1-2-1h0Z"/>
  <path class="st0" d="M507,477c-1,0-2-1-3-1,4,1,8,3,12,6h-2c1,5-3,8-8,7-4-1-5-5-4-8,1-2,1-4,5-4h0ZM505,478c-1,2-4,2-3,5,1,4,5,6,9,5,2-1,3-4,3-5-1-3-2-7-9-5h0Z"/>
  <path class="st0" d="M511,464c1,0,2,0,1,1h-3c-2,2-3,5-2,8,1,1,4,3,6,3,4,0,6-5,4-9,4,0,2,4,2,5-1,3-5,5-8,4s-4-2-5-5c-1-4,2-6,5-7h0Z"/>
  <path class="st0" d="M503,460l-1-1c0-1,1-2,2-1s0,2-1,2h0ZM503.6,458.92h0ZM509,460c4,3,7,5,12,4-4,3-9-1-12-4h0Z"/>
  <path class="st0" d="M504,456h5c3,1,5,3,8,4,2,1,4-2,5,1h-6c-4-2-6-6-12-5h0Z"/>
  <path class="st0" d="M504,453c0-1,0-2,1-2l1,1c0,1-1,1-2,1h0ZM505.35,451.84h0ZM511,453c3,2,5,5,11,3l1,1c-4,0-8,1-12-4h0Z"/>
  <path class="st0" d="M516,442h1c-3,1-6,3-5,7,0,1,2,2,3,1l6-6c1,0,3-1,3,1,1,4,0,8-4,9q0-1-1-1c4,1,6-4,5-7,0-2-2-1-3-1-3,1-4,3-6,6-1,1-3,0-3-1-1-3,0-6,2-8h2Z"/>
  <path class="st0" d="M507,438c0-1,0-2,1-2l1,1c0,1-1,1-2,2v-1h0ZM508.2,437.26h0ZM514,438h-1c4,2,8,4,13,3-4,2-8,0-12-3h0Z"/>
  <path class="st0" d="M524,436c0-2,1,0,2-1,0,1,0,2-1,2l-1-1h0ZM525.1,436.24h0Z"/>
</svg>