<?xml version="1.0" encoding="utf-8" standalone="no"?>
<!DOCTYPE svg PUBLIC "-//W3C//DTD SVG 1.1//EN"
  "http://www.w3.org/Graphics/SVG/1.1/DTD/svg11.dtd">
<svg xmlns:xlink="http://www.w3.org/1999/xlink" width="568.8pt" height="568.8pt" viewBox="0 0 568.8 568.8" xmlns="http://www.w3.org/2000/svg" version="1.1">
 <metadata>
  <rdf:RDF xmlns:dc="http://purl.org/dc/elements/1.1/" xmlns:cc="http://creativecommons.org/ns#" xmlns:rdf="http://www.w3.org/1999/02/22-rdf-syntax-ns#">
   <cc:Work>
    <dc:type rdf:resource="http://purl.org/dc/dcmitype/StillImage"/>
    <dc:date>2025-10-10T10:31:09.365651</dc:date>
    <dc:format>image/svg+xml</dc:format>
    <dc:creator>
     <cc:Agent>
      <dc:title>Matplotlib v3.10.6, https://matplotlib.org/</dc:title>
     </cc:Agent>
    </dc:creator>
   </cc:Work>
  </rdf:RDF>
 </metadata>
 <defs>
  <style type="text/css">*{stroke-linejoin: round; stroke-linecap: butt}</style>
 </defs>
 <g id="figure_1">
  <g id="patch_1">
   <path d="M 0 568.8 
L 568.8 568.8 
L 568.8 0 
L 0 0 
z
" style="fill: #ffffff"/>
  </g>
  <g id="axes_1">
   <g id="line2d_1">
    <path d="M -1 395.28 
L 145.8 395.28 
" clip-path="url(#pcb3e0013f8)" style="fill: none; stroke: #ff0000; stroke-width: 1.8; stroke-linecap: round"/>
   </g>
   <g id="line2d_2">
    <path d="M -1 387.633103 
L 145.8 387.633103 
" clip-path="url(#pcb3e0013f8)" style="fill: none; stroke: #ff0000; stroke-width: 1.8; stroke-linecap: round"/>
   </g>
   <g id="line2d_3">
    <path d="M -1 379.986207 
L 145.8 379.986207 
" clip-path="url(#pcb3e0013f8)" style="fill: none; stroke: #ff0000; stroke-width: 1.8; stroke-linecap: round"/>
   </g>
   <g id="line2d_4">
    <path d="M -1 372.33931 
L 145.8 372.33931 
" clip-path="url(#pcb3e0013f8)" style="fill: none; stroke: #ff0000; stroke-width: 1.8; stroke-linecap: round"/>
   </g>
   <g id="line2d_5">
    <path d="M -1 364.692414 
L 145.8 364.692414 
" clip-path="url(#pcb3e0013f8)" style="fill: none; stroke: #ff0000; stroke-width: 1.8; stroke-linecap: round"/>
   </g>
   <g id="line2d_6">
    <path d="M -1 357.045517 
L 145.8 357.045517 
" clip-path="url(#pcb3e0013f8)" style="fill: none; stroke: #ff0000; stroke-width: 1.8; stroke-linecap: round"/>
   </g>
   <g id="line2d_7">
    <path d="M -1 349.398621 
L 145.8 349.398621 
" clip-path="url(#pcb3e0013f8)" style="fill: none; stroke: #ff0000; stroke-width: 1.8; stroke-linecap: round"/>
   </g>
   <g id="line2d_8">
    <path d="M -1 341.751724 
L 145.8 341.751724 
" clip-path="url(#pcb3e0013f8)" style="fill: none; stroke: #ff0000; stroke-width: 1.8; stroke-linecap: round"/>
   </g>
   <g id="line2d_9">
    <path d="M -1 334.104828 
L 145.8 334.104828 
" clip-path="url(#pcb3e0013f8)" style="fill: none; stroke: #ff0000; stroke-width: 1.8; stroke-linecap: round"/>
   </g>
   <g id="line2d_10">
    <path d="M -1 326.457931 
L 145.8 326.457931 
" clip-path="url(#pcb3e0013f8)" style="fill: none; stroke: #ff0000; stroke-width: 1.8; stroke-linecap: round"/>
   </g>
   <g id="line2d_11">
    <path d="M -1 318.811034 
L 145.8 318.811034 
" clip-path="url(#pcb3e0013f8)" style="fill: none; stroke: #00ff00; stroke-width: 1.8; stroke-linecap: round"/>
   </g>
   <g id="line2d_12">
    <path d="M -1 311.164138 
L 145.8 311.164138 
" clip-path="url(#pcb3e0013f8)" style="fill: none; stroke: #00ff00; stroke-width: 1.8; stroke-linecap: round"/>
   </g>
   <g id="line2d_13">
    <path d="M -1 303.517241 
L 145.8 303.517241 
" clip-path="url(#pcb3e0013f8)" style="fill: none; stroke: #00ff00; stroke-width: 1.8; stroke-linecap: round"/>
   </g>
   <g id="line2d_14">
    <path d="M -1 295.870345 
L 145.8 295.870345 
" clip-path="url(#pcb3e0013f8)" style="fill: none; stroke: #00ff00; stroke-width: 1.8; stroke-linecap: round"/>
   </g>
   <g id="line2d_15">
    <path d="M -1 288.223448 
L 145.8 288.223448 
" clip-path="url(#pcb3e0013f8)" style="fill: none; stroke: #00ff00; stroke-width: 1.8; stroke-linecap: round"/>
   </g>
   <g id="line2d_16">
    <path d="M -1 280.576552 
L 145.8 280.576552 
" clip-path="url(#pcb3e0013f8)" style="fill: none; stroke: #00ff00; stroke-width: 1.8; stroke-linecap: round"/>
   </g>
   <g id="line2d_17">
    <path d="M -1 272.929655 
L 145.8 272.929655 
" clip-path="url(#pcb3e0013f8)" style="fill: none; stroke: #00ff00; stroke-width: 1.8; stroke-linecap: round"/>
   </g>
   <g id="line2d_18">
    <path d="M -1 265.282759 
L 145.8 265.282759 
" clip-path="url(#pcb3e0013f8)" style="fill: none; stroke: #00ff00; stroke-width: 1.8; stroke-linecap: round"/>
   </g>
   <g id="line2d_19">
    <path d="M -1 257.635862 
L 145.8 257.635862 
" clip-path="url(#pcb3e0013f8)" style="fill: none; stroke: #00ff00; stroke-width: 1.8; stroke-linecap: round"/>
   </g>
   <g id="line2d_20">
    <path d="M -1 249.988966 
L 145.8 249.988966 
" clip-path="url(#pcb3e0013f8)" style="fill: none; stroke: #00ff00; stroke-width: 1.8; stroke-linecap: round"/>
   </g>
   <g id="line2d_21">
    <path d="M -1 242.342069 
L 145.8 242.342069 
" clip-path="url(#pcb3e0013f8)" style="fill: none; stroke: #0000ff; stroke-width: 1.8; stroke-linecap: round"/>
   </g>
   <g id="line2d_22">
    <path d="M -1 234.695172 
L 145.8 234.695172 
" clip-path="url(#pcb3e0013f8)" style="fill: none; stroke: #0000ff; stroke-width: 1.8; stroke-linecap: round"/>
   </g>
   <g id="line2d_23">
    <path d="M -1 227.048276 
L 145.8 227.048276 
" clip-path="url(#pcb3e0013f8)" style="fill: none; stroke: #0000ff; stroke-width: 1.8; stroke-linecap: round"/>
   </g>
   <g id="line2d_24">
    <path d="M -1 219.401379 
L 145.8 219.401379 
" clip-path="url(#pcb3e0013f8)" style="fill: none; stroke: #0000ff; stroke-width: 1.8; stroke-linecap: round"/>
   </g>
   <g id="line2d_25">
    <path d="M -1 211.754483 
L 145.8 211.754483 
" clip-path="url(#pcb3e0013f8)" style="fill: none; stroke: #0000ff; stroke-width: 1.8; stroke-linecap: round"/>
   </g>
   <g id="line2d_26">
    <path d="M -1 204.107586 
L 145.8 204.107586 
" clip-path="url(#pcb3e0013f8)" style="fill: none; stroke: #0000ff; stroke-width: 1.8; stroke-linecap: round"/>
   </g>
   <g id="line2d_27">
    <path d="M -1 196.46069 
L 145.8 196.46069 
" clip-path="url(#pcb3e0013f8)" style="fill: none; stroke: #0000ff; stroke-width: 1.8; stroke-linecap: round"/>
   </g>
   <g id="line2d_28">
    <path d="M -1 188.813793 
L 145.8 188.813793 
" clip-path="url(#pcb3e0013f8)" style="fill: none; stroke: #0000ff; stroke-width: 1.8; stroke-linecap: round"/>
   </g>
   <g id="line2d_29">
    <path d="M -1 181.166897 
L 145.8 181.166897 
" clip-path="url(#pcb3e0013f8)" style="fill: none; stroke: #0000ff; stroke-width: 1.8; stroke-linecap: round"/>
   </g>
   <g id="line2d_30">
    <path d="M -1 173.52 
L 145.8 173.52 
" clip-path="url(#pcb3e0013f8)" style="fill: none; stroke: #0000ff; stroke-width: 1.8; stroke-linecap: round"/>
   </g>
   <g id="line2d_31">
    <path d="M 423 395.28 
L 569.8 395.28 
" clip-path="url(#pcb3e0013f8)" style="fill: none; stroke: #ff0000; stroke-width: 1.8; stroke-linecap: round"/>
   </g>
   <g id="line2d_32">
    <path d="M 423 387.633103 
L 569.8 387.633103 
" clip-path="url(#pcb3e0013f8)" style="fill: none; stroke: #00ff00; stroke-width: 1.8; stroke-linecap: round"/>
   </g>
   <g id="line2d_33">
    <path d="M 423 379.986207 
L 569.8 379.986207 
" clip-path="url(#pcb3e0013f8)" style="fill: none; stroke: #0000ff; stroke-width: 1.8; stroke-linecap: round"/>
   </g>
   <g id="line2d_34">
    <path d="M 423 372.33931 
L 569.8 372.33931 
" clip-path="url(#pcb3e0013f8)" style="fill: none; stroke: #ff0000; stroke-width: 1.8; stroke-linecap: round"/>
   </g>
   <g id="line2d_35">
    <path d="M 423 364.692414 
L 569.8 364.692414 
" clip-path="url(#pcb3e0013f8)" style="fill: none; stroke: #00ff00; stroke-width: 1.8; stroke-linecap: round"/>
   </g>
   <g id="line2d_36">
    <path d="M 423 357.045517 
L 569.8 357.045517 
" clip-path="url(#pcb3e0013f8)" style="fill: none; stroke: #0000ff; stroke-width: 1.8; stroke-linecap: round"/>
   </g>
   <g id="line2d_37">
    <path d="M 423 349.398621 
L 569.8 349.398621 
" clip-path="url(#pcb3e0013f8)" style="fill: none; stroke: #ff0000; stroke-width: 1.8; stroke-linecap: round"/>
   </g>
   <g id="line2d_38">
    <path d="M 423 341.751724 
L 569.8 341.751724 
" clip-path="url(#pcb3e0013f8)" style="fill: none; stroke: #00ff00; stroke-width: 1.8; stroke-linecap: round"/>
   </g>
   <g id="line2d_39">
    <path d="M 423 334.104828 
L 569.8 334.104828 
" clip-path="url(#pcb3e0013f8)" style="fill: none; stroke: #0000ff; stroke-width: 1.8; stroke-linecap: round"/>
   </g>
   <g id="line2d_40">
    <path d="M 423 326.457931 
L 569.8 326.457931 
" clip-path="url(#pcb3e0013f8)" style="fill: none; stroke: #ff0000; stroke-width: 1.8; stroke-linecap: round"/>
   </g>
   <g id="line2d_41">
    <path d="M 423 318.811034 
L 569.8 318.811034 
" clip-path="url(#pcb3e0013f8)" style="fill: none; stroke: #00ff00; stroke-width: 1.8; stroke-linecap: round"/>
   </g>
   <g id="line2d_42">
    <path d="M 423 311.164138 
L 569.8 311.164138 
" clip-path="url(#pcb3e0013f8)" style="fill: none; stroke: #0000ff; stroke-width: 1.8; stroke-linecap: round"/>
   </g>
   <g id="line2d_43">
    <path d="M 423 303.517241 
L 569.8 303.517241 
" clip-path="url(#pcb3e0013f8)" style="fill: none; stroke: #ff0000; stroke-width: 1.8; stroke-linecap: round"/>
   </g>
   <g id="line2d_44">
    <path d="M 423 295.870345 
L 569.8 295.870345 
" clip-path="url(#pcb3e0013f8)" style="fill: none; stroke: #00ff00; stroke-width: 1.8; stroke-linecap: round"/>
   </g>
   <g id="line2d_45">
    <path d="M 423 288.223448 
L 569.8 288.223448 
" clip-path="url(#pcb3e0013f8)" style="fill: none; stroke: #0000ff; stroke-width: 1.8; stroke-linecap: round"/>
   </g>
   <g id="line2d_46">
    <path d="M 423 280.576552 
L 569.8 280.576552 
" clip-path="url(#pcb3e0013f8)" style="fill: none; stroke: #ff0000; stroke-width: 1.8; stroke-linecap: round"/>
   </g>
   <g id="line2d_47">
    <path d="M 423 272.929655 
L 569.8 272.929655 
" clip-path="url(#pcb3e0013f8)" style="fill: none; stroke: #00ff00; stroke-width: 1.8; stroke-linecap: round"/>
   </g>
   <g id="line2d_48">
    <path d="M 423 265.282759 
L 569.8 265.282759 
" clip-path="url(#pcb3e0013f8)" style="fill: none; stroke: #0000ff; stroke-width: 1.8; stroke-linecap: round"/>
   </g>
   <g id="line2d_49">
    <path d="M 423 257.635862 
L 569.8 257.635862 
" clip-path="url(#pcb3e0013f8)" style="fill: none; stroke: #ff0000; stroke-width: 1.8; stroke-linecap: round"/>
   </g>
   <g id="line2d_50">
    <path d="M 423 249.988966 
L 569.8 249.988966 
" clip-path="url(#pcb3e0013f8)" style="fill: none; stroke: #00ff00; stroke-width: 1.8; stroke-linecap: round"/>
   </g>
   <g id="line2d_51">
    <path d="M 423 242.342069 
L 569.8 242.342069 
" clip-path="url(#pcb3e0013f8)" style="fill: none; stroke: #0000ff; stroke-width: 1.8; stroke-linecap: round"/>
   </g>
   <g id="line2d_52">
    <path d="M 423 234.695172 
L 569.8 234.695172 
" clip-path="url(#pcb3e0013f8)" style="fill: none; stroke: #ff0000; stroke-width: 1.8; stroke-linecap: round"/>
   </g>
   <g id="line2d_53">
    <path d="M 423 227.048276 
L 569.8 227.048276 
" clip-path="url(#pcb3e0013f8)" style="fill: none; stroke: #00ff00; stroke-width: 1.8; stroke-linecap: round"/>
   </g>
   <g id="line2d_54">
    <path d="M 423 219.401379 
L 569.8 219.401379 
" clip-path="url(#pcb3e0013f8)" style="fill: none; stroke: #0000ff; stroke-width: 1.8; stroke-linecap: round"/>
   </g>
   <g id="line2d_55">
    <path d="M 423 211.754483 
L 569.8 211.754483 
" clip-path="url(#pcb3e0013f8)" style="fill: none; stroke: #ff0000; stroke-width: 1.8; stroke-linecap: round"/>
   </g>
   <g id="line2d_56">
    <path d="M 423 204.107586 
L 569.8 204.107586 
" clip-path="url(#pcb3e0013f8)" style="fill: none; stroke: #00ff00; stroke-width: 1.8; stroke-linecap: round"/>
   </g>
   <g id="line2d_57">
    <path d="M 423 196.46069 
L 569.8 196.46069 
" clip-path="url(#pcb3e0013f8)" style="fill: none; stroke: #0000ff; stroke-width: 1.8; stroke-linecap: round"/>
   </g>
   <g id="line2d_58">
    <path d="M 423 188.813793 
L 569.8 188.813793 
" clip-path="url(#pcb3e0013f8)" style="fill: none; stroke: #ff0000; stroke-width: 1.8; stroke-linecap: round"/>
   </g>
   <g id="line2d_59">
    <path d="M 423 181.166897 
L 569.8 181.166897 
" clip-path="url(#pcb3e0013f8)" style="fill: none; stroke: #00ff00; stroke-width: 1.8; stroke-linecap: round"/>
   </g>
   <g id="line2d_60">
    <path d="M 423 173.52 
L 569.8 173.52 
" clip-path="url(#pcb3e0013f8)" style="fill: none; stroke: #0000ff; stroke-width: 1.8; stroke-linecap: round"/>
   </g>
   <g id="line2d_61">
    <path d="M 145.8 395.28 
L 153.280715 392.439311 
L 160.681652 389.887703 
L 168.007034 387.613854 
L 175.261081 385.606442 
L 182.448014 383.854145 
L 189.572054 382.345643 
L 196.637423 381.069612 
L 203.64834 380.014732 
L 210.609028 379.169681 
L 217.523706 378.523136 
L 225.766532 377.993372 
L 233.956477 377.71359 
L 242.100836 377.664227 
L 250.206901 377.82572 
L 259.62531 378.254525 
L 269.013109 378.912633 
L 279.719397 379.905681 
L 291.755791 381.27461 
L 305.148275 383.030832 
L 325.345691 385.936884 
L 352.655751 389.843322 
L 366.54969 391.606336 
L 379.227946 392.98396 
L 390.656328 393.986791 
L 400.792966 394.655042 
L 411.06942 395.095471 
L 419.997871 395.268105 
L 423 395.28 
L 423 395.28 
" clip-path="url(#pcb3e0013f8)" style="fill: none; stroke: #ff0000; stroke-width: 1.8; stroke-linecap: round"/>
   </g>
   <g id="line2d_62">
    <path d="M 145.8 387.633103 
L 151.791089 384.67291 
L 157.73058 381.970515 
L 163.620635 379.516559 
L 169.463415 377.301684 
L 175.261081 375.316529 
L 181.015794 373.551736 
L 186.729715 371.997946 
L 192.405006 370.645799 
L 199.448087 369.224919 
L 206.438406 368.086204 
L 213.380184 367.211374 
L 220.277641 366.582149 
L 227.134998 366.180251 
L 233.956477 365.987399 
L 242.100836 366.00618 
L 250.206901 366.268079 
L 258.281968 366.741507 
L 267.67343 367.519051 
L 278.381879 368.643233 
L 291.755791 370.292124 
L 332.124032 375.459351 
L 343.033468 376.537504 
L 352.655751 377.262186 
L 360.96949 377.680956 
L 369.351913 377.879565 
L 377.810313 377.826427 
L 384.922281 377.567049 
L 392.096298 377.092632 
L 399.336585 376.384895 
L 406.647362 375.425559 
L 414.032851 374.196345 
L 421.497272 372.678972 
L 423 372.33931 
L 423 372.33931 
" clip-path="url(#pcb3e0013f8)" style="fill: none; stroke: #ff0000; stroke-width: 1.8; stroke-linecap: round"/>
   </g>
   <g id="line2d_63">
    <path d="M 145.8 379.986207 
L 151.791089 377.032841 
L 157.73058 374.354122 
L 163.620635 371.93882 
L 169.463415 369.77571 
L 175.261081 367.853562 
L 181.015794 366.16115 
L 186.729715 364.687245 
L 192.405006 363.420621 
L 198.043827 362.35005 
L 205.044361 361.27043 
L 211.995509 360.457671 
L 218.901492 359.889843 
L 225.766532 359.545018 
L 232.594849 359.401267 
L 240.746299 359.463307 
L 248.85824 359.745422 
L 258.281968 360.302155 
L 269.013109 361.164868 
L 283.731376 362.586613 
L 307.831972 364.936616 
L 318.593099 365.76541 
L 328.053701 366.280431 
L 336.205151 366.517856 
L 344.403403 366.526955 
L 351.276294 366.332783 
L 358.190972 365.931809 
L 365.15166 365.302101 
L 372.162577 364.421733 
L 379.227946 363.268775 
L 384.922281 362.135408 
L 390.656328 360.802321 
L 396.432248 359.258286 
L 402.2522 357.492077 
L 408.118348 355.492466 
L 414.032851 353.248224 
L 419.997871 350.748125 
L 423 349.398621 
L 423 349.398621 
" clip-path="url(#pcb3e0013f8)" style="fill: none; stroke: #ff0000; stroke-width: 1.8; stroke-linecap: round"/>
   </g>
   <g id="line2d_64">
    <path d="M 145.8 372.33931 
L 151.791089 368.972126 
L 157.73058 365.893845 
L 163.620635 363.092618 
L 169.463415 360.556596 
L 175.261081 358.27393 
L 181.015794 356.232771 
L 186.729715 354.42127 
L 192.405006 352.827577 
L 198.043827 351.439845 
L 205.044361 349.976758 
L 211.995509 348.793827 
L 218.901492 347.867908 
L 225.766532 347.175858 
L 232.594849 346.694536 
L 240.746299 346.362523 
L 248.85824 346.260642 
L 258.281968 346.379288 
L 269.013109 346.750321 
L 283.731376 347.502869 
L 307.831972 348.743703 
L 318.593099 349.061453 
L 328.053701 349.114574 
L 336.205151 348.942487 
L 344.403403 348.527309 
L 351.276294 347.966781 
L 358.190972 347.186525 
L 365.15166 346.163399 
L 372.162577 344.874259 
L 377.810313 343.635867 
L 383.495059 342.200565 
L 389.218975 340.556506 
L 394.984224 338.69184 
L 400.792966 336.594718 
L 406.647362 334.25329 
L 412.549573 331.655709 
L 418.501762 328.790124 
L 423 326.457931 
L 423 326.457931 
" clip-path="url(#pcb3e0013f8)" style="fill: none; stroke: #ff0000; stroke-width: 1.8; stroke-linecap: round"/>
   </g>
   <g id="line2d_65">
    <path d="M 145.8 364.692414 
L 151.791089 360.923337 
L 157.73058 357.44111 
L 163.620635 354.234254 
L 169.463415 351.291294 
L 175.261081 348.600753 
L 181.015794 346.151154 
L 186.729715 343.931022 
L 192.405006 341.928879 
L 198.043827 340.13325 
L 205.044361 338.161639 
L 211.995509 336.472359 
L 218.901492 335.042993 
L 225.766532 333.851128 
L 232.594849 332.874347 
L 240.746299 331.954563 
L 248.85824 331.273491 
L 258.281968 330.728939 
L 269.013109 330.360991 
L 282.394112 330.148163 
L 313.206727 329.770585 
L 323.993248 329.371937 
L 333.483161 328.790695 
L 341.665002 328.070874 
L 349.898508 327.105602 
L 356.804491 326.085768 
L 363.755639 324.846168 
L 370.756173 323.364389 
L 377.810313 321.618014 
L 384.922281 319.58463 
L 390.656328 317.736212 
L 396.432248 315.678286 
L 402.2522 313.399376 
L 408.118348 310.888004 
L 414.032851 308.132694 
L 419.997871 305.12197 
L 423 303.517241 
L 423 303.517241 
" clip-path="url(#pcb3e0013f8)" style="fill: none; stroke: #ff0000; stroke-width: 1.8; stroke-linecap: round"/>
   </g>
   <g id="line2d_66">
    <path d="M 145.8 357.045517 
L 151.791089 353.329258 
L 157.73058 349.879138 
L 163.620635 346.684053 
L 169.463415 343.732899 
L 175.261081 341.014573 
L 181.015794 338.517971 
L 188.152075 335.692101 
L 195.22884 333.173637 
L 202.25031 330.940892 
L 209.220706 328.97218 
L 216.144249 327.245812 
L 223.025159 325.740102 
L 231.231921 324.193982 
L 239.390665 322.896903 
L 248.85824 321.64841 
L 258.281968 320.628372 
L 270.352399 319.556815 
L 291.755791 317.948137 
L 307.831972 316.631045 
L 318.593099 315.533767 
L 328.053701 314.34781 
L 336.205151 313.116146 
L 344.403403 311.646341 
L 351.276294 310.212556 
L 358.190972 308.565683 
L 365.15166 306.684037 
L 372.162577 304.54593 
L 379.227946 302.129675 
L 386.351986 299.413585 
L 392.096298 297.010258 
L 397.883023 294.390052 
L 403.714322 291.541864 
L 409.592356 288.45459 
L 415.519285 285.117127 
L 421.497272 281.518369 
L 423 280.576552 
L 423 280.576552 
" clip-path="url(#pcb3e0013f8)" style="fill: none; stroke: #ff0000; stroke-width: 1.8; stroke-linecap: round"/>
   </g>
   <g id="line2d_67">
    <path d="M 145.8 349.398621 
L 151.791089 345.471717 
L 157.73058 341.801052 
L 163.620635 338.375894 
L 170.916977 334.423342 
L 178.143672 330.816669 
L 185.304941 327.534913 
L 192.405006 324.557117 
L 199.448087 321.86232 
L 206.438406 319.429563 
L 213.380184 317.237887 
L 220.277641 315.266333 
L 228.502029 313.161516 
L 236.675968 311.307274 
L 246.158199 309.412373 
L 255.593273 307.751722 
L 267.67343 305.868249 
L 286.405888 303.23116 
L 305.148275 300.545142 
L 317.245299 298.578542 
L 326.699164 296.825279 
L 334.843523 295.118745 
L 343.033468 293.185918 
L 351.276294 290.990578 
L 358.190972 288.934469 
L 365.15166 286.649948 
L 372.162577 284.116058 
L 379.227946 281.311838 
L 386.351986 278.216328 
L 393.538919 274.80857 
L 400.792966 271.067604 
L 406.647362 267.820836 
L 412.549573 264.33667 
L 418.501762 260.604374 
L 423 257.635862 
L 423 257.635862 
" clip-path="url(#pcb3e0013f8)" style="fill: none; stroke: #ff0000; stroke-width: 1.8; stroke-linecap: round"/>
   </g>
   <g id="line2d_68">
    <path d="M 145.8 341.751724 
L 153.280715 336.937828 
L 160.681652 332.488338 
L 168.007034 328.383022 
L 175.261081 324.601647 
L 182.448014 321.123983 
L 189.572054 317.929798 
L 196.637423 314.99886 
L 203.64834 312.310937 
L 211.995509 309.377723 
L 220.277641 306.730358 
L 228.502029 304.33388 
L 238.033899 301.808443 
L 247.508684 299.521391 
L 259.62531 296.841834 
L 277.044209 293.265877 
L 299.786891 288.578267 
L 311.862034 285.8452 
L 321.291316 283.499455 
L 330.766101 280.900386 
L 338.932341 278.428903 
L 347.147815 275.695557 
L 354.036914 273.192511 
L 360.96949 270.463105 
L 367.949763 267.487108 
L 374.981954 264.244287 
L 382.070285 260.714412 
L 389.218975 256.877251 
L 396.432248 252.712571 
L 403.714322 248.200141 
L 411.06942 243.31973 
L 417.008911 239.136859 
L 423 234.695172 
L 423 234.695172 
" clip-path="url(#pcb3e0013f8)" style="fill: none; stroke: #ff0000; stroke-width: 1.8; stroke-linecap: round"/>
   </g>
   <g id="line2d_69">
    <path d="M 145.8 334.104828 
L 153.280715 328.8356 
L 160.681652 323.925271 
L 168.007034 319.354336 
L 175.261081 315.103293 
L 182.448014 311.152637 
L 189.572054 307.482865 
L 196.637423 304.074471 
L 203.64834 300.907953 
L 211.995509 297.399945 
L 220.277641 294.178449 
L 228.502029 291.209762 
L 238.033899 288.020854 
L 247.508684 285.076656 
L 259.62531 281.564701 
L 275.706354 277.177129 
L 303.807228 269.553312 
L 315.898326 266.012271 
L 325.345691 263.036831 
L 334.843523 259.80914 
L 343.033468 256.801209 
L 351.276294 253.534928 
L 359.579294 249.976595 
L 366.54969 246.763907 
L 373.57116 243.305496 
L 380.647925 239.581858 
L 387.784206 235.57349 
L 394.984224 231.260887 
L 402.2522 226.624545 
L 409.592356 221.644961 
L 417.008911 216.302631 
L 423 211.754483 
L 423 211.754483 
" clip-path="url(#pcb3e0013f8)" style="fill: none; stroke: #ff0000; stroke-width: 1.8; stroke-linecap: round"/>
   </g>
   <g id="line2d_70">
    <path d="M 145.8 326.457931 
L 153.280715 320.704808 
L 160.681652 315.30655 
L 168.007034 310.24438 
L 175.261081 305.499523 
L 182.448014 301.053201 
L 189.572054 296.88664 
L 196.637423 292.981062 
L 205.044361 288.612431 
L 213.380184 284.560133 
L 221.652185 280.791724 
L 229.867659 277.274758 
L 239.390665 273.446143 
L 250.206901 269.369487 
L 262.310156 265.072424 
L 278.381879 259.636342 
L 307.831972 249.735658 
L 319.94176 245.409454 
L 330.766101 241.296653 
L 340.297971 237.428503 
L 348.522359 233.871778 
L 356.804491 230.058188 
L 365.15166 225.955287 
L 373.57116 221.530631 
L 380.647925 217.574225 
L 387.784206 213.353069 
L 394.984224 208.848389 
L 402.2522 204.041407 
L 409.592356 198.913348 
L 417.008911 193.445435 
L 423 188.813793 
L 423 188.813793 
" clip-path="url(#pcb3e0013f8)" style="fill: none; stroke: #ff0000; stroke-width: 1.8; stroke-linecap: round"/>
   </g>
   <g id="line2d_71">
    <path d="M 145.8 318.811034 
L 151.791089 322.267077 
L 157.73058 325.458386 
L 163.620635 328.396249 
L 169.463415 331.091958 
L 175.261081 333.556803 
L 181.015794 335.802073 
L 188.152075 338.317084 
L 195.22884 340.528703 
L 202.25031 342.45898 
L 209.220706 344.129967 
L 216.144249 345.563714 
L 223.025159 346.782272 
L 231.231921 347.991542 
L 239.390665 348.960798 
L 248.85824 349.839081 
L 259.62531 350.583937 
L 273.029951 351.258971 
L 306.489844 352.80816 
L 317.245299 353.59591 
L 326.699164 354.524817 
L 334.843523 355.547191 
L 343.033468 356.818556 
L 349.898508 358.095719 
L 356.804491 359.594305 
L 363.755639 361.336365 
L 370.756173 363.34395 
L 377.810313 365.639111 
L 383.495059 367.697113 
L 389.218975 369.964567 
L 394.984224 372.452763 
L 400.792966 375.17299 
L 406.647362 378.136539 
L 412.549573 381.354701 
L 418.501762 384.838765 
L 423 387.633103 
L 423 387.633103 
" clip-path="url(#pcb3e0013f8)" style="fill: none; stroke: #00ff00; stroke-width: 1.8; stroke-linecap: round"/>
   </g>
   <g id="line2d_72">
    <path d="M 145.8 311.164138 
L 151.791089 314.303473 
L 157.73058 317.172523 
L 163.620635 319.782952 
L 169.463415 322.146423 
L 175.261081 324.274597 
L 181.015794 326.179138 
L 186.729715 327.871709 
L 193.818046 329.707107 
L 200.850237 331.252303 
L 207.83051 332.530076 
L 214.763086 333.563204 
L 221.652185 334.374468 
L 229.867659 335.087194 
L 238.033899 335.552598 
L 247.508684 335.835493 
L 258.281968 335.892382 
L 271.691335 335.700537 
L 305.148275 335.085398 
L 315.898326 335.192445 
L 325.345691 335.534538 
L 333.483161 336.062056 
L 340.297971 336.69693 
L 347.147815 337.533625 
L 354.036914 338.59492 
L 360.96949 339.903594 
L 367.949763 341.482425 
L 373.57116 342.955311 
L 379.227946 344.627339 
L 384.922281 346.510172 
L 390.656328 348.615473 
L 396.432248 350.954903 
L 402.2522 353.540127 
L 408.118348 356.382807 
L 414.032851 359.494606 
L 419.997871 362.887186 
L 423 364.692414 
L 423 364.692414 
" clip-path="url(#pcb3e0013f8)" style="fill: none; stroke: #00ff00; stroke-width: 1.8; stroke-linecap: round"/>
   </g>
   <g id="line2d_73">
    <path d="M 145.8 303.517241 
L 151.791089 306.698454 
L 157.73058 309.589122 
L 163.620635 312.201281 
L 169.463415 314.546966 
L 175.261081 316.638211 
L 181.015794 318.487054 
L 186.729715 320.105528 
L 192.405006 321.50567 
L 198.043827 322.699515 
L 203.64834 323.699097 
L 210.609028 324.69373 
L 217.523706 325.427141 
L 224.396597 325.922836 
L 231.231921 326.204322 
L 239.390665 326.292446 
L 247.508684 326.146578 
L 256.937966 325.73485 
L 267.67343 325.024758 
L 282.394112 323.801488 
L 306.489844 321.788472 
L 317.245299 321.130503 
L 326.699164 320.782872 
L 334.843523 320.70568 
L 343.033468 320.875159 
L 349.898508 321.234125 
L 356.804491 321.816105 
L 363.755639 322.644605 
L 370.756173 323.743132 
L 376.394994 324.832169 
L 382.070285 326.121104 
L 387.784206 327.62197 
L 393.538919 329.346804 
L 399.336585 331.30764 
L 405.179365 333.516515 
L 411.06942 335.985464 
L 417.008911 338.726522 
L 423 341.751724 
L 423 341.751724 
" clip-path="url(#pcb3e0013f8)" style="fill: none; stroke: #00ff00; stroke-width: 1.8; stroke-linecap: round"/>
   </g>
   <g id="line2d_74">
    <path d="M 145.8 295.870345 
L 151.791089 299.022812 
L 157.73058 301.867371 
L 163.620635 304.416429 
L 169.463415 306.682396 
L 175.261081 308.677678 
L 181.015794 310.414685 
L 186.729715 311.905823 
L 192.405006 313.163501 
L 198.043827 314.200127 
L 203.64834 315.028108 
L 209.220706 315.659854 
L 216.144249 316.192481 
L 223.025159 316.462112 
L 229.867659 316.492979 
L 236.675968 316.309318 
L 244.806752 315.839869 
L 252.901674 315.138274 
L 262.310156 314.082206 
L 273.029951 312.643461 
L 289.080603 310.231106 
L 309.17469 307.244666 
L 319.94176 305.873167 
L 329.409335 304.901158 
L 337.568079 304.290345 
L 344.403403 303.9701 
L 351.276294 303.847311 
L 358.190972 303.946212 
L 365.15166 304.291037 
L 372.162577 304.906021 
L 377.810313 305.608808 
L 383.495059 306.512414 
L 389.218975 307.629247 
L 394.984224 308.971717 
L 400.792966 310.552229 
L 406.647362 312.383193 
L 412.549573 314.477017 
L 418.501762 316.846108 
L 423 318.811034 
L 423 318.811034 
" clip-path="url(#pcb3e0013f8)" style="fill: none; stroke: #00ff00; stroke-width: 1.8; stroke-linecap: round"/>
   </g>
   <g id="line2d_75">
    <path d="M 145.8 288.223448 
L 151.791089 290.995195 
L 157.73058 293.456111 
L 163.620635 295.618976 
L 169.463415 297.496571 
L 175.261081 299.101676 
L 181.015794 300.447072 
L 186.729715 301.54554 
L 192.405006 302.40986 
L 198.043827 303.052813 
L 203.64834 303.48718 
L 209.220706 303.72574 
L 216.144249 303.768059 
L 223.025159 303.549363 
L 229.867659 303.094614 
L 236.675968 302.428774 
L 244.806752 301.386273 
L 252.901674 300.118881 
L 262.310156 298.413566 
L 274.368279 295.967739 
L 314.552147 287.548365 
L 323.993248 285.921355 
L 332.124032 284.740051 
L 340.297971 283.801146 
L 347.147815 283.235012 
L 354.036914 282.892128 
L 360.96949 282.797455 
L 366.54969 282.917205 
L 372.162577 283.224567 
L 377.810313 283.732321 
L 383.495059 284.453248 
L 389.218975 285.40013 
L 394.984224 286.585746 
L 400.792966 288.022877 
L 406.647362 289.724304 
L 412.549573 291.702808 
L 418.501762 293.971168 
L 423 295.870345 
L 423 295.870345 
" clip-path="url(#pcb3e0013f8)" style="fill: none; stroke: #00ff00; stroke-width: 1.8; stroke-linecap: round"/>
   </g>
   <g id="line2d_76">
    <path d="M 145.8 280.576552 
L 151.791089 282.706005 
L 157.73058 284.532434 
L 163.620635 286.068993 
L 169.463415 287.328835 
L 175.261081 288.325114 
L 181.015794 289.070982 
L 186.729715 289.579592 
L 192.405006 289.864099 
L 198.043827 289.937654 
L 203.64834 289.813412 
L 209.220706 289.504526 
L 216.144249 288.878799 
L 223.025159 288.010807 
L 229.867659 286.92624 
L 238.033899 285.375052 
L 246.158199 283.59338 
L 255.593273 281.282682 
L 266.333329 278.422161 
L 286.405888 272.781501 
L 301.12657 268.748313 
L 311.862034 266.047005 
L 319.94176 264.221121 
L 328.053701 262.616074 
L 334.843523 261.479257 
L 341.665002 260.552316 
L 348.522359 259.860941 
L 355.419816 259.430822 
L 360.96949 259.292096 
L 366.54969 259.350168 
L 372.162577 259.618192 
L 377.810313 260.109321 
L 383.495059 260.836708 
L 389.218975 261.813508 
L 394.984224 263.052872 
L 400.792966 264.567954 
L 406.647362 266.371907 
L 412.549573 268.477885 
L 418.501762 270.899041 
L 423 272.929655 
L 423 272.929655 
" clip-path="url(#pcb3e0013f8)" style="fill: none; stroke: #00ff00; stroke-width: 1.8; stroke-linecap: round"/>
   </g>
   <g id="line2d_77">
    <path d="M 145.8 272.929655 
L 151.791089 275.28012 
L 157.73058 277.299952 
L 163.620635 279.002676 
L 169.463415 280.401819 
L 175.261081 281.510907 
L 181.015794 282.343464 
L 186.729715 282.913018 
L 192.405006 283.233093 
L 198.043827 283.317216 
L 203.64834 283.178913 
L 209.220706 282.831709 
L 214.763086 282.28913 
L 221.652185 281.356766 
L 228.502029 280.16668 
L 235.316839 278.745291 
L 242.100836 277.119015 
L 250.206901 274.934231 
L 258.281968 272.538102 
L 269.013109 269.093404 
L 282.394112 264.538139 
L 307.831972 255.83782 
L 318.593099 252.438269 
L 326.699164 250.088811 
L 334.843523 247.96168 
L 341.665002 246.391838 
L 348.522359 245.034509 
L 355.419816 243.916109 
L 360.96949 243.211171 
L 366.54969 242.689582 
L 372.162577 242.364867 
L 377.810313 242.250552 
L 383.495059 242.360162 
L 389.218975 242.707225 
L 394.984224 243.305264 
L 400.792966 244.167807 
L 406.647362 245.308379 
L 412.549573 246.740506 
L 418.501762 248.477714 
L 423 249.988966 
L 423 249.988966 
" clip-path="url(#pcb3e0013f8)" style="fill: none; stroke: #00ff00; stroke-width: 1.8; stroke-linecap: round"/>
   </g>
   <g id="line2d_78">
    <path d="M 145.8 265.282759 
L 150.298238 266.783717 
L 154.767149 268.095346 
L 159.207644 269.223508 
L 165.085678 270.452466 
L 170.916977 271.379583 
L 176.703702 272.018758 
L 182.448014 272.383889 
L 188.152075 272.488875 
L 193.818046 272.347614 
L 199.448087 271.974005 
L 205.044361 271.381945 
L 210.609028 270.585334 
L 216.144249 269.59807 
L 223.025159 268.117058 
L 229.867659 266.387011 
L 236.675968 264.435076 
L 244.806752 261.838083 
L 252.901674 259.007566 
L 262.310156 255.47273 
L 274.368279 250.674583 
L 309.17469 236.595523 
L 318.593099 233.100886 
L 326.699164 230.315492 
L 334.843523 227.773465 
L 341.665002 225.874856 
L 348.522359 224.204972 
L 355.419816 222.790959 
L 360.96949 221.862217 
L 366.54969 221.128503 
L 372.162577 220.603717 
L 377.810313 220.301756 
L 383.495059 220.236518 
L 389.218975 220.421904 
L 394.984224 220.87181 
L 400.792966 221.600135 
L 406.647362 222.620777 
L 412.549573 223.947636 
L 417.008911 225.152096 
L 421.497272 226.542483 
L 423 227.048276 
L 423 227.048276 
" clip-path="url(#pcb3e0013f8)" style="fill: none; stroke: #00ff00; stroke-width: 1.8; stroke-linecap: round"/>
   </g>
   <g id="line2d_79">
    <path d="M 145.8 257.635862 
L 150.298238 258.728166 
L 154.767149 259.640049 
L 160.681652 260.585095 
L 166.5478 261.233047 
L 172.367752 261.597421 
L 178.143672 261.691734 
L 183.877719 261.529501 
L 189.572054 261.12424 
L 195.22884 260.489466 
L 200.850237 259.638695 
L 206.438406 258.585445 
L 211.995509 257.34323 
L 218.901492 255.545322 
L 225.766532 253.499675 
L 232.594849 251.232689 
L 240.746299 248.257308 
L 248.85824 245.04683 
L 258.281968 241.064993 
L 270.352399 235.683107 
L 309.17469 218.079019 
L 318.593099 214.16889 
L 326.699164 211.037632 
L 333.483161 208.618422 
L 340.297971 206.400255 
L 347.147815 204.409531 
L 354.036914 202.672646 
L 359.579294 201.483645 
L 365.15166 200.487512 
L 370.756173 199.697766 
L 376.394994 199.127921 
L 382.070285 198.791495 
L 387.784206 198.702003 
L 393.538919 198.872962 
L 399.336585 199.317888 
L 405.179365 200.050297 
L 411.06942 201.083706 
L 415.519285 202.064424 
L 419.997871 203.227759 
L 423 204.107586 
L 423 204.107586 
" clip-path="url(#pcb3e0013f8)" style="fill: none; stroke: #00ff00; stroke-width: 1.8; stroke-linecap: round"/>
   </g>
   <g id="line2d_80">
    <path d="M 145.8 249.988966 
L 150.298238 251.35949 
L 154.767149 252.54264 
L 159.207644 253.543717 
L 165.085678 254.604421 
L 170.916977 255.363425 
L 176.703702 255.83329 
L 182.448014 256.026582 
L 188.152075 255.955862 
L 193.818046 255.633695 
L 199.448087 255.072643 
L 205.044361 254.28527 
L 210.609028 253.284138 
L 216.144249 252.081812 
L 221.652185 250.690855 
L 228.502029 248.706034 
L 235.316839 246.470644 
L 242.100836 244.009223 
L 248.85824 241.346308 
L 256.937966 237.919387 
L 266.333329 233.655819 
L 277.044209 228.515515 
L 291.755791 221.159217 
L 317.245299 208.375034 
L 328.053701 203.231259 
L 337.568079 198.963454 
L 345.774841 195.53201 
L 352.655751 192.864698 
L 359.579294 190.398308 
L 366.54969 188.15738 
L 373.57116 186.166449 
L 379.227946 184.770192 
L 384.922281 183.562201 
L 390.656328 182.55504 
L 396.432248 181.761271 
L 402.2522 181.193458 
L 408.118348 180.864164 
L 414.032851 180.785952 
L 419.997871 180.971386 
L 423 181.166897 
L 423 181.166897 
" clip-path="url(#pcb3e0013f8)" style="fill: none; stroke: #00ff00; stroke-width: 1.8; stroke-linecap: round"/>
   </g>
   <g id="line2d_81">
    <path d="M 145.8 242.342069 
L 154.767149 245.448781 
L 163.620635 248.737948 
L 172.367752 252.198251 
L 182.448014 256.43647 
L 192.405006 260.874247 
L 202.25031 265.493609 
L 213.380184 270.972174 
L 224.396597 276.637609 
L 236.675968 283.201188 
L 250.206901 290.685156 
L 266.333329 299.859976 
L 293.093646 315.387047 
L 317.245299 329.314644 
L 333.483161 338.4179 
L 347.147815 345.81599 
L 359.579294 352.281883 
L 370.756173 357.844265 
L 382.070285 363.20451 
L 392.096298 367.707819 
L 402.2522 372.017853 
L 412.549573 376.11664 
L 421.497272 379.448127 
L 423 379.986207 
L 423 379.986207 
" clip-path="url(#pcb3e0013f8)" style="fill: none; stroke: #0000ff; stroke-width: 1.8; stroke-linecap: round"/>
   </g>
   <g id="line2d_82">
    <path d="M 145.8 234.695172 
L 154.767149 237.105792 
L 163.620635 239.700411 
L 172.367752 242.468969 
L 182.448014 245.905372 
L 192.405006 249.548856 
L 202.25031 253.383446 
L 213.380184 257.979347 
L 224.396597 262.780142 
L 236.675968 268.396257 
L 248.85824 274.207554 
L 263.651725 281.525788 
L 281.056796 290.400355 
L 344.403403 322.971455 
L 358.190972 329.690003 
L 370.756173 335.585643 
L 383.495059 341.302969 
L 394.984224 346.207891 
L 405.179365 350.34337 
L 415.519285 354.316205 
L 423 357.045517 
L 423 357.045517 
" clip-path="url(#pcb3e0013f8)" style="fill: none; stroke: #0000ff; stroke-width: 1.8; stroke-linecap: round"/>
   </g>
   <g id="line2d_83">
    <path d="M 145.8 227.048276 
L 156.250427 230.274121 
L 168.007034 234.158989 
L 179.581025 238.23526 
L 190.989687 242.482067 
L 203.64834 247.43759 
L 217.523706 253.129757 
L 232.594849 259.570245 
L 250.206901 267.351583 
L 278.381879 280.091898 
L 305.148275 292.12053 
L 321.291316 299.150299 
L 336.205151 305.396883 
L 348.522359 310.328179 
L 360.96949 315.065972 
L 372.162577 319.090879 
L 383.495059 322.918555 
L 393.538919 326.089576 
L 403.714322 329.079637 
L 414.032851 331.87476 
L 423 334.104828 
L 423 334.104828 
" clip-path="url(#pcb3e0013f8)" style="fill: none; stroke: #0000ff; stroke-width: 1.8; stroke-linecap: round"/>
   </g>
   <g id="line2d_84">
    <path d="M 145.8 219.401379 
L 156.250427 221.850674 
L 168.007034 224.847931 
L 179.581025 228.039317 
L 190.989687 231.406945 
L 203.64834 235.383922 
L 216.144249 239.535854 
L 229.867659 244.323333 
L 246.158199 250.262735 
L 264.992772 257.383819 
L 302.466671 271.875866 
L 325.345691 280.574378 
L 341.665002 286.553422 
L 356.804491 291.858185 
L 370.756173 296.49424 
L 383.495059 300.484994 
L 394.984224 303.866445 
L 406.647362 307.073137 
L 418.501762 310.087186 
L 423 311.164138 
L 423 311.164138 
" clip-path="url(#pcb3e0013f8)" style="fill: none; stroke: #0000ff; stroke-width: 1.8; stroke-linecap: round"/>
   </g>
   <g id="line2d_85">
    <path d="M 145.8 211.754483 
L 157.73058 213.625172 
L 169.463415 215.710319 
L 181.015794 217.995021 
L 192.405006 220.464372 
L 205.044361 223.444548 
L 217.523706 226.618336 
L 231.231921 230.346032 
L 246.158199 234.657571 
L 262.310156 239.569069 
L 281.056796 245.508129 
L 310.518032 255.111194 
L 341.665002 265.207668 
L 360.96949 271.233551 
L 377.810313 276.252263 
L 392.096298 280.292917 
L 406.647362 284.173786 
L 419.997871 287.505893 
L 423 288.223448 
L 423 288.223448 
" clip-path="url(#pcb3e0013f8)" style="fill: none; stroke: #0000ff; stroke-width: 1.8; stroke-linecap: round"/>
   </g>
   <g id="line2d_86">
    <path d="M 145.8 204.107586 
L 160.681652 207.107526 
L 176.703702 210.576123 
L 193.818046 214.526213 
L 211.995509 218.955732 
L 233.956477 224.548127 
L 275.706354 235.485826 
L 301.12657 242.013003 
L 319.94176 246.621868 
L 336.205151 250.382335 
L 351.276294 253.639035 
L 365.15166 256.414739 
L 379.227946 258.990251 
L 392.096298 261.117801 
L 405.179365 263.047356 
L 417.008911 264.582572 
L 423 265.282759 
L 423 265.282759 
" clip-path="url(#pcb3e0013f8)" style="fill: none; stroke: #0000ff; stroke-width: 1.8; stroke-linecap: round"/>
   </g>
   <g id="line2d_87">
    <path d="M 145.8 196.46069 
L 160.681652 198.236702 
L 176.703702 200.374738 
L 193.818046 202.900977 
L 210.609028 205.600136 
L 229.867659 208.927442 
L 251.554701 212.906493 
L 282.394112 218.817665 
L 326.699164 227.305666 
L 348.522359 231.259605 
L 367.949763 234.55578 
L 384.922281 237.221455 
L 400.792966 239.508306 
L 417.008911 241.621334 
L 423 242.342069 
L 423 242.342069 
" clip-path="url(#pcb3e0013f8)" style="fill: none; stroke: #0000ff; stroke-width: 1.8; stroke-linecap: round"/>
   </g>
   <g id="line2d_88">
    <path d="M 145.8 188.813793 
L 162.152638 189.714402 
L 179.581025 190.896613 
L 196.637423 192.267672 
L 214.763086 193.942762 
L 233.956477 195.938817 
L 255.593273 198.423919 
L 281.056796 201.594223 
L 317.245299 206.359428 
L 366.54969 212.826961 
L 393.538919 216.126576 
L 417.008911 218.767051 
L 423 219.401379 
L 423 219.401379 
" clip-path="url(#pcb3e0013f8)" style="fill: none; stroke: #0000ff; stroke-width: 1.8; stroke-linecap: round"/>
   </g>
   <g id="line2d_89">
    <path d="M 145.8 181.166897 
L 169.463415 181.74363 
L 193.818046 182.571871 
L 218.901492 183.659619 
L 244.806752 185.006171 
L 274.368279 186.768225 
L 313.206727 189.323147 
L 397.883023 194.962622 
L 423 196.46069 
L 423 196.46069 
" clip-path="url(#pcb3e0013f8)" style="fill: none; stroke: #0000ff; stroke-width: 1.8; stroke-linecap: round"/>
   </g>
   <g id="line2d_90">
    <path d="M 145.8 173.52 
L 244.806752 173.764595 
L 330.766101 173.755927 
L 423 173.52 
L 423 173.52 
" clip-path="url(#pcb3e0013f8)" style="fill: none; stroke: #0000ff; stroke-width: 1.8; stroke-linecap: round"/>
   </g>
  </g>
 </g>
 <defs>
  <clipPath id="pcb3e0013f8">
   <rect x="7.2" y="7.2" width="554.4" height="554.4"/>
  </clipPath>
 </defs>
</svg>
