<?xml version="1.0" encoding="utf-8" standalone="no"?>
<!DOCTYPE svg PUBLIC "-//W3C//DTD SVG 1.1//EN"
  "http://www.w3.org/Graphics/SVG/1.1/DTD/svg11.dtd">
<svg xmlns:xlink="http://www.w3.org/1999/xlink" width="1000.8pt" height="232.97207pt" viewBox="0 0 1000.8 232.97207" xmlns="http://www.w3.org/2000/svg" version="1.1">
 <metadata>
  <rdf:RDF xmlns:dc="http://purl.org/dc/elements/1.1/" xmlns:cc="http://creativecommons.org/ns#" xmlns:rdf="http://www.w3.org/1999/02/22-rdf-syntax-ns#">
   <cc:Work>
    <dc:type rdf:resource="http://purl.org/dc/dcmitype/StillImage"/>
    <dc:date>2025-10-21T14:41:36.749236</dc:date>
    <dc:format>image/svg+xml</dc:format>
    <dc:creator>
     <cc:Agent>
      <dc:title>Matplotlib v3.10.6, https://matplotlib.org/</dc:title>
     </cc:Agent>
    </dc:creator>
   </cc:Work>
  </rdf:RDF>
 </metadata>
 <defs>
  <style type="text/css">*{stroke-linejoin: round; stroke-linecap: butt}</style>
 </defs>
 <g id="figure_1">
  <g id="patch_1">
   <path d="M 0 232.97207 
L 1000.8 232.97207 
L 1000.8 0 
L 0 0 
z
" style="fill: #ffffff"/>
  </g>
  <g id="axes_1">
   <g id="line2d_1">
    <path d="M 60.042857 201.552252 
L 60.739208 200.672208 
L 61.66584 199.857332 
L 62.794904 199.168808 
L 64.082507 198.657371 
L 65.47236 198.359198 
L 66.900467 198.293047 
L 68.300455 198.458934 
L 69.608986 198.838483 
L 70.77072 199.396847 
L 71.827801 200.159827 
L 72.618306 201.003911 
L 73.162264 201.918924 
L 73.390926 202.722642 
L 73.354385 203.316465 
L 73.155859 203.608041 
L 72.90716 203.627181 
L 72.664164 203.399044 
L 72.498235 202.932044 
L 72.484707 202.179436 
L 72.684841 201.334505 
L 73.121744 200.406193 
L 73.802924 199.467919 
L 74.711021 198.588116 
L 75.809365 197.821538 
L 77.18046 197.152642 
L 78.657681 196.690955 
L 80.179334 196.445511 
L 81.692191 196.419718 
L 83.019126 196.601239 
L 83.763932 196.856114 
L 84.336087 197.170542 
L 86.788747 198.364427 
L 88.318087 199.371467 
L 89.671598 200.521317 
L 90.854204 201.824836 
L 91.746178 203.131778 
L 92.356881 204.398968 
L 92.662439 205.514315 
L 92.653695 206.226739 
L 92.540829 206.329818 
L 92.512171 206.311657 
L 92.404974 206.060566 
L 92.382518 205.398933 
L 92.579445 204.417901 
L 93.040661 203.293903 
L 93.74402 202.173605 
L 94.693105 201.095177 
L 95.839201 200.141616 
L 97.110444 199.367381 
L 98.553501 198.748775 
L 100.120051 198.324543 
L 101.753201 198.114792 
L 103.395915 198.120419 
L 105.128115 198.351922 
L 106.762332 198.78563 
L 108.372948 199.433035 
L 109.898491 200.2771 
L 111.360588 201.348438 
L 112.599648 202.534266 
L 113.622792 203.822537 
L 114.360952 205.103602 
L 114.785179 206.268831 
L 114.868033 207.086713 
L 114.774964 207.243007 
L 114.738075 207.217931 
L 114.642068 206.932587 
L 114.647778 206.19393 
L 114.885739 205.165949 
L 115.394023 204.005927 
L 116.146489 202.862759 
L 117.145433 201.774024 
L 118.337694 200.822367 
L 119.647698 200.059738 
L 121.122529 199.460543 
L 122.711702 199.060604 
L 124.357693 198.876596 
L 126.004289 198.906341 
L 127.732632 199.159649 
L 129.476804 199.650924 
L 131.16718 200.372906 
L 132.737483 201.297446 
L 134.129999 202.378283 
L 135.354856 203.619015 
L 136.29006 204.872085 
L 136.96696 206.140838 
L 137.309788 207.228334 
L 137.31669 207.869818 
L 137.249724 207.906163 
L 137.203246 207.849295 
L 137.119889 207.431777 
L 137.190722 206.566729 
L 137.501722 205.502993 
L 138.065983 204.360987 
L 138.839027 203.274906 
L 139.818024 202.262762 
L 141.051057 201.320799 
L 142.394186 200.576651 
L 143.894682 200.003039 
L 145.500244 199.632647 
L 147.153101 199.478738 
L 148.798125 199.53626 
L 150.517392 199.81486 
L 152.246074 200.326578 
L 153.91634 201.062565 
L 155.463916 201.993957 
L 156.832903 203.074476 
L 158.033667 204.307545 
L 158.983672 205.604936 
L 159.622951 206.839962 
L 159.938866 207.908082 
L 159.912068 208.457869 
L 159.84745 208.442211 
L 159.819359 208.39502 
L 159.741988 207.9587 
L 159.824376 207.072728 
L 160.15109 205.991769 
L 160.734427 204.837239 
L 161.527634 203.744401 
L 162.526936 202.730986 
L 163.779812 201.793289 
L 165.138883 201.057698 
L 166.651486 200.495916 
L 168.264518 200.138941 
L 169.920248 199.998297 
L 171.699219 200.08225 
L 173.407027 200.386647 
L 175.118137 200.919291 
L 176.766473 201.669884 
L 178.289666 202.608922 
L 179.633532 203.690122 
L 180.808516 204.916754 
L 181.733636 206.200137 
L 182.368922 207.459812 
L 182.650737 208.476525 
L 182.598874 208.953674 
L 182.516939 208.857538 
L 182.448809 208.383461 
L 182.542213 207.510983 
L 182.883754 206.413914 
L 183.48545 205.248024 
L 184.298145 204.149617 
L 185.316995 203.136146 
L 186.482444 202.271079 
L 187.841844 201.532249 
L 189.354876 200.967064 
L 190.968436 200.606388 
L 192.624908 200.461633 
L 194.405146 200.540658 
L 196.114931 200.839768 
L 197.829128 201.366598 
L 199.481906 202.111212 
L 201.010986 203.044592 
L 202.36207 204.120983 
L 203.545744 205.344006 
L 204.480471 206.62568 
L 205.125726 207.886125 
L 205.416269 208.906416 
L 205.370068 209.389675 
L 205.288873 209.296325 
L 205.21999 208.825117 
L 205.311147 207.953885 
L 205.650098 206.856171 
L 206.249668 205.688326 
L 207.060994 204.587383 
L 208.079078 203.571151 
L 209.244181 202.703371 
L 210.60344 201.961723 
L 212.116432 201.393543 
L 213.730051 201.029555 
L 215.386808 200.881067 
L 217.167829 200.955565 
L 218.879114 201.249783 
L 220.595895 201.771218 
L 222.252583 202.510296 
L 223.786986 203.43848 
L 225.144693 204.510536 
L 226.336405 205.730454 
L 227.28004 207.010947 
L 227.934497 208.272734 
L 228.232949 209.297219 
L 228.191497 209.787293 
L 228.110635 209.697055 
L 228.040474 209.229151 
L 228.128876 208.359599 
L 228.464795 207.261637 
L 229.061854 206.092194 
L 229.871473 204.989039 
L 230.888474 203.970349 
L 232.052928 203.100134 
L 233.411738 202.35594 
L 234.924376 201.785025 
L 236.537744 201.417976 
L 238.194479 201.265994 
L 239.975958 201.33622 
L 241.688428 201.625797 
L 243.407456 202.142105 
L 245.067697 202.875931 
L 246.607044 203.799212 
L 247.970977 204.867235 
L 249.170291 206.084373 
L 250.122365 207.364028 
L 250.785511 208.62753 
L 251.091326 209.656616 
L 251.054013 210.15398 
L 250.97321 210.067079 
L 250.901414 209.602776 
L 250.986716 208.735204 
L 251.319298 207.637267 
L 251.913582 206.466477 
L 252.721261 205.361333 
L 253.736956 204.340397 
L 254.900549 203.467943 
L 256.258689 202.721393 
L 257.77075 202.147925 
L 259.383644 201.777986 
L 261.040138 201.622676 
L 262.821844 201.688802 
L 264.535271 201.973909 
L 266.256306 202.485274 
L 267.919844 203.21404 
L 269.463864 204.13262 
L 270.833739 205.196817 
L 272.040343 206.411396 
L 273.000524 207.690446 
L 273.671997 208.955923 
L 273.984789 209.989894 
L 273.951184 210.49489 
L 273.870244 210.411485 
L 273.796558 209.951 
L 273.878511 209.085627 
L 274.207539 207.987915 
L 274.798855 206.815961 
L 275.604426 205.708995 
L 276.618653 204.685973 
L 277.781227 203.811426 
L 279.138533 203.062662 
L 280.649846 202.486773 
L 282.262097 202.11407 
L 283.918184 201.95555 
L 285.699942 202.017699 
L 287.414157 202.298459 
L 289.137018 202.805011 
L 290.803661 203.528855 
L 292.352152 204.442879 
L 293.727754 205.503398 
L 294.941416 206.715576 
L 295.909456 207.994188 
L 296.56882 209.214624 
L 296.903509 210.271353 
L 296.883099 210.811405 
L 296.802506 210.746168 
L 296.79704 210.733985 
L 296.721276 210.277482 
L 296.799695 209.414475 
L 297.125006 208.317142 
L 297.713212 207.144165 
L 298.516548 206.035507 
L 299.529182 205.010521 
L 300.690615 204.133996 
L 302.046958 203.383127 
L 303.557392 202.804921 
L 305.168865 202.429548 
L 306.824415 202.267905 
L 308.606088 202.326171 
L 310.320958 202.602674 
L 312.045503 203.104509 
L 313.715101 203.823536 
L 315.267904 204.73311 
L 316.649068 205.790059 
L 317.869607 206.999951 
L 318.845316 208.278248 
L 319.51224 209.500835 
L 319.853522 210.56273 
L 319.83643 211.110836 
L 319.761101 211.060284 
L 319.749999 211.037387 
L 319.672013 210.584998 
L 319.746756 209.724488 
L 320.068226 208.627654 
L 320.653213 207.453768 
L 321.454215 206.343522 
L 322.465159 205.316674 
L 323.625355 204.438262 
L 324.98063 203.685378 
L 326.490076 203.104936 
L 328.100664 202.726965 
L 329.75557 202.562269 
L 331.537049 202.616722 
L 333.252465 202.889037 
L 334.978582 203.38623 
L 336.651014 204.100516 
L 338.208 205.005721 
L 339.594593 206.059183 
L 340.821866 207.266877 
L 341.805093 208.54495 
L 342.479423 209.769787 
L 342.827132 210.836968 
L 342.813176 211.393282 
L 342.743178 211.356009 
L 342.726282 211.323887 
L 342.645963 210.875715 
L 342.71692 210.01781 
L 343.034451 208.921576 
L 343.616133 207.746872 
L 344.414724 206.635124 
L 345.423902 205.606498 
L 346.582781 204.726278 
L 347.936902 203.971451 
L 349.445269 203.388839 
L 351.054881 203.008331 
L 352.709055 202.840635 
L 354.490246 202.891329 
L 356.20612 203.15951 
L 357.933715 203.652119 
L 359.608881 204.361726 
L 361.169946 205.262624 
L 362.561858 206.312662 
L 363.795747 207.518223 
L 364.786371 208.796143 
L 365.467985 210.023305 
L 365.82199 211.095867 
L 365.815673 211.656425 
L 365.752159 211.642557 
L 365.723599 211.595239 
L 365.640859 211.151371 
L 365.707943 210.29616 
L 366.021459 209.200607 
L 366.599768 208.025164 
L 367.395886 206.911989 
L 368.403233 205.881656 
L 369.560728 204.999694 
L 370.913623 204.242987 
L 372.420834 203.65826 
L 374.029392 203.275263 
L 375.682759 203.10461 
L 377.463585 203.151589 
L 379.179841 203.415679 
L 380.908834 203.90375 
L 382.586652 204.608725 
L 384.151707 205.505367 
L 385.548846 206.552028 
L 386.789253 207.755508 
L 387.787174 209.033327 
L 388.475973 210.262875 
L 388.83617 211.340892 
L 388.832724 211.909614 
L 388.774715 211.905156 
L 388.74007 211.852874 
L 388.654838 211.413385 
L 388.717979 210.560942 
L 389.027417 209.466142 
L 389.602298 208.290027 
L 390.395894 207.175487 
L 391.401357 206.143511 
L 392.557413 205.259865 
L 393.909017 204.501331 
L 395.415005 203.914537 
L 397.022442 203.529091 
L 398.674937 203.355516 
L 400.455329 203.398816 
L 402.171903 203.65885 
L 403.902226 204.142418 
L 405.582623 204.842801 
L 407.151592 205.735224 
L 408.553881 206.778548 
L 409.800723 207.979985 
L 410.805857 209.257746 
L 411.50176 210.489723 
L 411.868065 211.573256 
L 411.867403 212.150223 
L 411.80916 212.148723 
L 411.774121 212.097981 
L 411.686342 211.662932 
L 411.745482 210.813323 
L 412.050793 209.719336 
L 412.622203 208.542608 
L 413.413234 207.426761 
L 414.416769 206.393196 
L 415.571337 205.507918 
L 416.921595 204.747605 
L 418.426301 204.158785 
L 420.032556 203.770924 
L 421.684121 203.594457 
L 423.464021 203.634106 
L 425.180857 203.89011 
L 426.912451 204.369206 
L 428.595364 205.065028 
L 430.168182 205.953264 
L 431.575551 206.993281 
L 432.828758 208.192706 
L 433.841033 209.470438 
L 434.543973 210.704881 
L 434.909833 211.762266 
L 434.922814 212.373418 
L 434.865689 212.385457 
L 434.824423 212.331558 
L 434.736301 211.932448 
L 434.780634 211.106261 
L 435.06514 210.029125 
L 435.612841 208.861548 
L 436.380481 207.747486 
L 437.361824 206.709455 
L 438.497211 205.814685 
L 439.831118 205.04026 
L 441.323526 204.433798 
L 442.922227 204.026186 
L 444.571096 203.829314 
L 446.353145 203.847568 
L 448.076616 204.084055 
L 449.819293 204.545079 
L 451.517348 205.225452 
L 453.108697 206.101881 
L 454.537108 207.13456 
L 455.814072 208.331798 
L 456.851386 209.613899 
L 457.578619 210.860416 
L 457.965962 211.939285 
L 457.997169 212.576439 
L 457.937377 212.609978 
L 457.889839 212.554456 
L 457.799258 212.159694 
L 457.839561 211.336542 
L 458.119873 210.260413 
L 458.664012 209.092392 
L 459.42899 207.977159 
L 460.408304 206.937657 
L 461.542106 206.041355 
L 462.874567 205.265247 
L 464.365586 204.656854 
L 465.96299 204.24692 
L 467.610801 204.047241 
L 469.392209 204.061926 
L 471.115782 204.294446 
L 472.859555 204.751042 
L 474.559945 205.426871 
L 476.154964 206.299103 
L 477.588294 207.32844 
L 478.871482 208.523609 
L 479.915836 209.805614 
L 480.650055 211.054538 
L 481.043277 212.138706 
L 481.077401 212.783935 
L 481.017449 212.820805 
L 480.969383 212.767406 
L 480.876316 212.377034 
L 480.912559 211.55696 
L 481.18865 210.481881 
L 481.729204 209.313458 
L 482.491495 208.197097 
L 483.468752 207.156167 
L 484.600936 206.258371 
L 485.931912 205.480617 
L 487.421497 204.870321 
L 489.017559 204.458088 
L 490.664271 204.25562 
L 492.444993 204.266752 
L 494.168628 204.495322 
L 495.913455 204.947505 
L 497.616134 205.618808 
L 499.214776 206.48686 
L 500.652979 207.512869 
L 501.942341 208.705981 
L 502.993689 209.987903 
L 503.734854 211.239248 
L 504.133919 212.32874 
L 504.170926 212.982085 
L 504.110801 213.022306 
L 504.062198 212.971045 
L 503.966622 212.585097 
L 503.998781 211.768143 
L 504.270629 210.694152 
L 504.807578 209.525366 
L 505.567164 208.407916 
L 506.542341 207.365597 
L 507.672876 206.466345 
L 509.002328 205.686977 
L 510.490439 205.074806 
L 512.085119 204.660292 
L 513.730691 204.455051 
L 515.510688 204.462644 
L 517.234347 204.687276 
L 518.98019 205.13506 
L 520.685118 205.801852 
L 522.287341 206.665737 
L 523.730372 207.688429 
L 525.025866 208.879494 
L 526.084167 210.161339 
L 526.832242 211.415118 
L 527.237122 212.509951 
L 527.276985 213.171447 
L 527.210727 213.212397 
L 527.16753 213.165927 
L 527.069427 212.784438 
L 527.097481 211.970639 
L 527.36507 210.897772 
L 527.898398 209.728658 
L 528.655263 208.610155 
L 529.628338 207.566485 
L 530.757197 206.665812 
L 532.085093 205.884861 
L 533.571692 205.270838 
L 535.164949 204.854063 
L 536.809346 204.646062 
L 538.588581 204.650126 
L 540.312231 204.870832 
L 542.059053 205.31423 
L 543.766193 205.97652 
L 545.371958 206.836248 
L 546.819778 207.855632 
L 548.121363 209.044655 
L 549.186581 210.32643 
L 549.941538 211.582648 
L 550.352208 212.682839 
L 550.394908 213.352517 
L 550.328409 213.397128 
L 550.278397 213.342115 
L 550.180947 212.945091 
L 550.215369 212.113481 
L 550.495289 211.025318 
L 551.001014 209.923813 
L 551.755143 208.804293 
L 552.726097 207.759308 
L 553.853256 206.857246 
L 555.179563 206.074741 
L 556.664614 205.458888 
L 558.256413 205.039867 
L 559.8996 204.829117 
L 561.678039 204.829664 
L 563.401647 205.046452 
L 565.149417 205.485472 
L 566.858733 206.143272 
L 568.468004 206.998851 
L 569.920577 208.014931 
L 571.228218 209.201916 
L 572.300321 210.483623 
L 573.062132 211.742284 
L 573.478576 212.847844 
L 573.527792 213.515423 
L 573.457351 213.574019 
L 573.413153 213.531329 
L 573.313572 213.188018 
L 573.323337 212.401782 
L 573.566159 211.348009 
L 574.072157 210.188815 
L 574.802691 209.072014 
L 575.751101 208.023388 
L 576.858639 207.112539 
L 578.168054 206.316563 
L 579.640171 205.683633 
L 581.223692 205.245327 
L 582.863386 205.014517 
L 584.643065 204.993881 
L 586.372394 205.191186 
L 588.13031 205.611981 
L 589.853877 206.253978 
L 591.480895 207.097207 
L 592.9539 208.105247 
L 594.284904 209.289191 
L 595.33824 210.51508 
L 596.115894 211.742236 
L 596.57758 212.86176 
L 596.67959 213.629459 
L 596.603124 213.745268 
L 596.558819 213.711545 
L 596.454436 213.391582 
L 596.450535 212.629983 
L 596.673264 211.59456 
L 597.155815 210.446091 
L 597.862842 209.332542 
L 598.788643 208.280801 
L 599.876364 207.361631 
L 601.168574 206.552582 
L 602.627358 205.902873 
L 604.202156 205.445463 
L 605.837907 205.19466 
L 607.618368 205.1528 
L 609.353013 205.33049 
L 611.120712 205.732845 
L 612.858223 206.358755 
L 614.502759 207.189294 
L 615.996049 208.188919 
L 617.350358 209.369404 
L 618.427545 210.597993 
L 619.22911 211.834971 
L 619.713123 212.973338 
L 619.833638 213.755031 
L 619.753096 213.907325 
L 619.708321 213.875527 
L 619.601628 213.559971 
L 619.593693 212.801829 
L 619.812145 211.767832 
L 620.290996 210.619297 
L 620.995193 209.504904 
L 621.918775 208.451986 
L 623.004703 207.531542 
L 624.295231 206.721052 
L 625.752365 206.069631 
L 627.325583 205.610096 
L 628.959977 205.356657 
L 630.739452 205.311381 
L 632.473844 205.485219 
L 634.242252 205.883221 
L 635.981692 206.50461 
L 637.629498 207.330911 
L 639.127341 208.32709 
L 640.487557 209.505342 
L 641.571241 210.733599 
L 642.37947 211.972546 
L 642.86942 213.11569 
L 642.993394 213.904843 
L 642.912887 214.062594 
L 642.874292 214.040036 
L 642.768275 213.773267 
L 642.73857 213.06168 
L 642.922353 212.064152 
L 643.358814 210.938623 
L 644.019139 209.833158 
L 644.899581 208.776764 
L 646.044246 207.768237 
L 647.317238 206.945121 
L 648.760616 206.277274 
L 650.324632 205.798877 
L 651.954582 205.52557 
L 653.734304 205.459085 
L 655.473516 205.613213 
L 657.251237 205.992574 
L 657.373371 206.027073 
L 657.373371 206.027073 
" clip-path="url(#pccde981bbd)" style="fill: none; stroke: #000000; stroke-width: 0.8; stroke-linecap: square"/>
   </g>
   <g id="line2d_2">
    <path d="M 66.095574 201.552252 
L 66.584815 202.439865 
L 66.805324 203.302223 
L 66.752311 203.954441 
L 66.535755 204.300039 
L 66.269715 204.37242 
L 66.006175 204.205773 
L 65.810516 203.810813 
L 65.744195 203.146678 
L 65.895623 202.298341 
L 66.308452 201.338982 
L 66.928161 200.439315 
L 67.778909 199.578574 
L 68.842446 198.817054 
L 70.085481 198.208506 
L 71.461505 197.796539 
L 72.91348 197.611193 
L 74.377654 197.665943 
L 75.788697 197.955731 
L 77.085791 198.456931 
L 78.218534 199.129884 
L 79.151113 199.923578 
L 79.923115 200.868092 
L 80.426739 201.813509 
L 80.690563 202.764408 
L 80.695568 203.556022 
L 80.499282 204.116824 
L 80.196803 204.393469 
L 79.899741 204.399038 
L 79.673665 204.190928 
L 79.540918 203.740017 
L 79.592941 203.067868 
L 79.89514 202.206974 
L 80.458776 201.267618 
L 81.335801 200.252291 
L 82.480186 199.279621 
L 83.865751 198.401159 
L 85.46182 197.660554 
L 87.233844 197.095476 
L 89.027645 196.753539 
L 90.906174 196.620287 
L 92.827113 196.715906 
L 94.622746 197.026843 
L 96.365015 197.558305 
L 97.895142 198.250658 
L 99.282407 199.119016 
L 100.475389 200.135297 
L 101.366604 201.170937 
L 102.018025 202.240788 
L 102.435812 203.354595 
L 102.572845 204.339534 
L 102.464225 205.157305 
L 102.185994 205.660773 
L 101.872055 205.824427 
L 101.610165 205.723145 
L 101.433378 205.407642 
L 101.386009 204.827826 
L 101.559381 204.022878 
L 101.983623 203.097313 
L 102.712034 202.054741 
L 103.71555 201.016986 
L 104.973938 200.04088 
L 106.460913 199.174748 
L 108.145596 198.460257 
L 109.8803 197.959018 
L 111.725616 197.651228 
L 113.643356 197.560255 
L 115.467707 197.689039 
L 117.274301 198.036478 
L 119.013822 198.606855 
L 120.527237 199.335092 
L 121.88283 200.235208 
L 123.028986 201.274153 
L 123.864754 202.317434 
L 124.453167 203.377048 
L 124.802156 204.455996 
L 124.879556 205.381295 
L 124.728251 206.113755 
L 124.43598 206.521249 
L 124.134756 206.59685 
L 123.903141 206.422184 
L 123.764265 206.008719 
L 123.789344 205.361552 
L 124.046662 204.507422 
L 124.595999 203.491861 
L 125.427706 202.437627 
L 126.527595 201.407896 
L 127.873584 200.456263 
L 129.43816 199.628654 
L 131.189339 198.965024 
L 132.975298 198.521792 
L 134.859357 198.280919 
L 136.801282 198.264741 
L 138.632703 198.469453 
L 140.428471 198.896355 
L 142.026235 199.496247 
L 143.499314 200.281756 
L 144.796051 201.230689 
L 145.79748 202.223695 
L 146.567732 203.275709 
L 147.114432 204.402531 
L 147.36949 205.434459 
L 147.361604 206.334096 
L 147.147824 206.93921 
L 146.83777 207.20954 
L 146.575259 207.17607 
L 146.380914 206.919156 
L 146.297854 206.43394 
L 146.406998 205.677943 
L 146.790238 204.718606 
L 147.457608 203.677128 
L 148.402022 202.622833 
L 149.606119 201.614638 
L 151.045849 200.702813 
L 152.692225 199.930824 
L 154.511784 199.336829 
L 156.348198 198.97067 
L 158.267139 198.816897 
L 160.10299 198.884266 
L 161.932291 199.169621 
L 163.706814 199.679542 
L 165.264715 200.355487 
L 166.676343 201.210541 
L 167.889211 202.215482 
L 168.794364 203.240715 
L 169.455681 204.298336 
L 169.881239 205.394924 
L 170.025959 206.357472 
L 169.929097 207.146617 
L 169.668555 207.619912 
L 169.376309 207.757348 
L 169.137483 207.635303 
L 168.977706 207.26986 
L 168.969667 206.662167 
L 169.184139 205.835819 
L 169.683955 204.834103 
L 170.465667 203.778819 
L 171.517857 202.734651 
L 172.82057 201.756705 
L 174.348027 200.892351 
L 176.069774 200.182929 
L 177.836367 199.689583 
L 179.710411 199.393063 
L 181.652989 199.317158 
L 183.495949 199.463767 
L 185.315018 199.832493 
L 186.946065 200.380272 
L 188.464111 201.118561 
L 189.817353 202.028603 
L 190.880426 202.996471 
L 191.718653 204.037318 
L 192.340915 205.170781 
L 192.667234 206.229839 
L 192.727001 207.123449 
L 192.568021 207.812945 
L 192.282145 208.174881 
L 191.998254 208.211323 
L 191.789654 208.006164 
L 191.679587 207.56722 
L 191.747845 206.850511 
L 192.081039 205.916836 
L 192.695879 204.885356 
L 193.588542 203.826794 
L 194.744115 202.801578 
L 196.14047 201.861437 
L 197.750244 201.051225 
L 199.541462 200.410449 
L 201.360074 199.993695 
L 203.271128 199.784282 
L 205.109806 199.796296 
L 206.95304 200.024875 
L 208.75376 200.478759 
L 210.348018 201.105598 
L 211.80783 201.917734 
L 213.08013 202.889691 
L 214.048773 203.896855 
L 214.778306 204.951743 
L 215.277049 206.064868 
L 215.487478 207.063969 
L 215.444855 207.910289 
L 215.216584 208.451569 
L 214.913394 208.657705 
L 214.67116 208.574612 
L 214.506247 208.276735 
L 214.463538 207.714334 
L 214.632749 206.922084 
L 215.079775 205.940854 
L 215.807645 204.890981 
L 216.807812 203.838603 
L 218.062512 202.840297 
L 219.547741 201.94484 
L 221.234602 201.194913 
L 222.976395 200.656049 
L 224.834714 200.308053 
L 226.771977 200.176079 
L 228.620675 200.267457 
L 230.457097 200.580229 
L 232.115817 201.077258 
L 233.673302 201.768879 
L 235.07782 202.639657 
L 236.198231 203.581174 
L 237.100991 204.608888 
L 237.756722 205.665776 
L 238.174641 206.756282 
L 238.313096 207.706849 
L 238.214395 208.478399 
L 237.958728 208.932771 
L 237.67642 209.054572 
L 237.449754 208.921388 
L 237.304158 208.547997 
L 237.310627 207.935794 
L 237.538401 207.107739 
L 238.049346 206.105869 
L 238.839382 205.050517 
L 239.89788 204.005275 
L 241.205867 203.024708 
L 242.738537 202.156124 
L 244.466268 201.441196 
L 246.239735 200.942069 
L 248.122112 200.639929 
L 250.074409 200.559403 
L 251.927325 200.703353 
L 253.756401 201.071652 
L 255.395833 201.621317 
L 256.920157 202.363526 
L 258.276355 203.278726 
L 259.338411 204.251153 
L 260.171924 205.294569 
L 260.752209 206.347191 
L 261.090342 207.407693 
L 261.157326 208.358789 
L 260.997539 209.030735 
L 260.717573 209.375138 
L 260.443947 209.39808 
L 260.247077 209.184008 
L 260.150057 208.739359 
L 260.2319 208.020038 
L 260.576802 207.086344 
L 261.200344 206.055823 
L 262.099235 204.997781 
L 263.259454 203.971795 
L 264.659859 203.029267 
L 266.274005 202.21516 
L 268.07066 201.569446 
L 269.89579 201.147754 
L 271.814838 200.933923 
L 273.662143 200.943033 
L 275.514554 201.170603 
L 277.324083 201.625877 
L 278.925102 202.256282 
L 280.389018 203.073747 
L 281.578222 203.977361 
L 282.560698 204.983128 
L 283.302713 206.038414 
L 283.813276 207.153134 
L 284.034274 208.154429 
L 284.002287 209.003796 
L 283.784173 209.549518 
L 283.490045 209.762147 
L 283.253921 209.686342 
L 283.092803 209.396795 
L 283.051132 208.844292 
L 283.217526 208.061556 
L 283.657793 207.087797 
L 284.376178 206.041578 
L 285.365507 204.988438 
L 286.609395 203.984821 
L 288.085129 203.079748 
L 289.764944 202.316464 
L 291.503189 201.762345 
L 293.361563 201.397381 
L 295.302855 201.24776 
L 297.159023 201.323005 
L 299.006274 201.621065 
L 300.677663 202.106498 
L 302.249555 202.789247 
L 303.669257 203.654252 
L 304.803533 204.59315 
L 305.719161 205.620473 
L 306.386345 206.678515 
L 306.815088 207.771191 
L 306.963343 208.724464 
L 306.874628 209.499767 
L 306.628395 209.95953 
L 306.353677 210.088294 
L 306.132176 209.963098 
L 305.989413 209.599268 
L 306.002547 208.950773 
L 306.263646 208.066987 
L 306.799161 207.061931 
L 307.610828 206.007314 
L 308.68823 204.965155 
L 310.012962 203.989079 
L 311.56086 203.126011 
L 313.302819 202.417701 
L 315.088994 201.926194 
L 316.983308 201.633584 
L 318.946246 201.565124 
L 320.80705 201.72316 
L 322.640659 202.108386 
L 324.279773 202.676055 
L 325.797762 203.437307 
L 327.140215 204.37053 
L 328.182356 205.356057 
L 328.98988 206.405939 
L 329.572197 207.534179 
L 329.859041 208.569438 
L 329.882875 209.474329 
L 329.699474 210.087974 
L 329.417314 210.372052 
L 329.174806 210.355088 
L 328.994609 210.117886 
L 328.919166 209.615214 
L 329.040324 208.871921 
L 329.426828 207.924592 
L 330.089456 206.889772 
L 331.024005 205.834281 
L 332.21637 204.815911 
L 333.645689 203.88498 
L 335.285826 203.085978 
L 337.105666 202.458879 
L 338.949822 202.058216 
L 340.884518 201.869236 
L 342.742347 201.90543 
L 344.59971 202.163764 
L 346.28881 202.613074 
L 347.886807 203.262504 
L 349.340986 204.099286 
L 350.514127 205.018884 
L 351.473753 206.035878 
L 352.187603 207.094525 
L 352.665633 208.201294 
L 352.85738 209.182025 
L 352.803908 209.998421 
L 352.559633 210.528176 
L 352.270757 210.682619 
L 352.052223 210.56319 
L 351.910829 210.206204 
L 351.922956 209.565492 
L 352.180145 208.68886 
L 352.709412 207.688869 
L 353.513327 206.63661 
L 354.582388 205.593812 
L 355.899087 204.614098 
L 357.44008 203.744623 
L 359.176979 203.027563 
L 360.960601 202.526212 
L 362.854867 202.222829 
L 364.820454 202.143388 
L 366.686178 202.291649 
L 368.52684 202.668288 
L 370.174063 203.229555 
L 371.701064 203.986336 
L 372.963204 204.845637 
L 374.030213 205.823307 
L 374.86424 206.87099 
L 375.441567 207.924624 
L 375.775311 208.980916 
L 375.840263 209.921845 
L 375.684321 210.580992 
L 375.414317 210.91432 
L 375.153406 210.93127 
L 374.968851 210.716105 
L 374.882827 210.235717 
L 374.987662 209.511386 
L 375.352965 208.578042 
L 375.992217 207.55059 
L 376.902816 206.49594 
L 378.072047 205.472207 
L 379.480261 204.5302 
L 381.102395 203.715019 
L 382.908302 203.067373 
L 384.743855 202.644156 
L 386.675004 202.430377 
L 388.534622 202.442191 
L 390.399119 202.676082 
L 392.099908 203.103575 
L 393.71445 203.733315 
L 395.189746 204.553812 
L 396.386001 205.462519 
L 397.371171 206.473752 
L 398.111653 207.532575 
L 398.617647 208.646583 
L 398.834386 209.641526 
L 398.80208 210.479481 
L 398.572171 211.036845 
L 398.288501 211.218695 
L 398.068355 211.122304 
L 397.919694 210.787912 
L 397.917869 210.168888 
L 398.155459 209.309465 
L 398.662091 208.32017 
L 399.442043 207.272019 
L 400.487294 206.226959 
L 401.781625 205.239018 
L 403.302829 204.355898 
L 405.023538 203.620444 
L 406.796041 203.09815 
L 408.683908 202.771101 
L 410.648453 202.666206 
L 412.51855 202.789974 
L 414.36909 203.142645 
L 416.030611 203.683171 
L 417.57667 204.422041 
L 418.860341 205.268416 
L 419.951812 206.237835 
L 420.812073 207.282879 
L 421.415861 208.340086 
L 421.776289 209.407227 
L 421.865289 210.366918 
L 421.711826 211.084565 
L 421.427951 211.433655 
L 421.173182 211.437171 
L 420.996837 211.212671 
L 420.921457 210.725328 
L 421.03741 209.99735 
L 421.413171 209.063122 
L 422.06112 208.036574 
L 422.978815 206.983609 
L 424.153971 205.961713 
L 425.567452 205.021417 
L 427.194675 204.207846 
L 429.005846 203.561982 
L 430.84665 203.141012 
L 432.783236 202.930528 
L 434.647778 202.946836 
L 436.516424 203.186923 
L 438.219606 203.621845 
L 439.834177 204.260367 
L 441.306169 205.090271 
L 442.495724 206.007099 
L 443.470605 207.024297 
L 444.197972 208.08524 
L 444.688688 209.195773 
L 444.891887 210.181043 
L 444.850132 211.003512 
L 444.617679 211.542268 
L 444.338066 211.708221 
L 444.124924 211.600916 
L 443.98566 211.258258 
L 443.995074 210.63384 
L 444.243701 209.772297 
L 444.759724 208.783245 
L 445.602035 207.674519 
L 446.668697 206.633241 
L 447.98243 205.652 
L 449.521214 204.778086 
L 451.257793 204.054271 
L 453.043585 203.545326 
L 454.942791 203.234241 
L 456.791384 203.146546 
L 458.666044 203.27577 
L 460.519926 203.635719 
L 462.182548 204.184614 
L 463.72676 204.932869 
L 465.005299 205.787925 
L 466.08798 206.764602 
L 466.936148 207.813803 
L 467.525849 208.87051 
L 467.871388 209.931023 
L 467.948129 210.877417 
L 467.788608 211.576985 
L 467.50631 211.908174 
L 467.25773 211.898713 
L 467.089481 211.665303 
L 467.02448 211.171416 
L 467.166534 210.388899 
L 467.568108 209.44671 
L 468.288322 208.356162 
L 469.308035 207.244665 
L 470.532359 206.235527 
L 471.990536 205.31617 
L 473.657525 204.531001 
L 475.390012 203.951064 
L 477.25009 203.557402 
L 479.20117 203.378762 
L 481.073643 203.429023 
L 482.943015 203.706633 
L 484.638506 204.178838 
L 486.23538 204.85501 
L 487.581354 205.652494 
L 488.748356 206.586751 
L 489.694143 207.615151 
L 490.387941 208.678154 
L 490.841741 209.778508 
L 491.01283 210.740985 
L 490.947592 211.528803 
L 490.705547 212.026011 
L 490.430355 212.155149 
L 490.228922 212.020765 
L 490.10744 211.655237 
L 490.140432 211.012619 
L 490.414973 210.139778 
L 490.955943 209.145956 
L 491.822688 208.037494 
L 492.982154 206.940674 
L 494.328773 205.971501 
L 495.897261 205.114785 
L 497.660123 204.413071 
L 499.467071 203.929445 
L 501.383157 203.648216 
L 503.242576 203.592712 
L 505.121697 203.758008 
L 506.850398 204.12316 
L 508.507 204.69541 
L 510.038137 205.466967 
L 511.297307 206.341473 
L 512.353632 207.332732 
L 513.169791 208.388619 
L 513.72483 209.441595 
L 514.035057 210.485424 
L 514.082465 211.401514 
L 513.906239 212.060801 
L 513.622911 212.351238 
L 513.399013 212.321898 
L 513.238772 212.079966 
L 513.183922 211.579903 
L 513.337043 210.794226 
L 513.748254 209.851649 
L 514.476843 208.762345 
L 515.503319 207.652752 
L 516.733032 206.645467 
L 518.196142 205.727836 
L 519.868052 204.944379 
L 521.605425 204.366347 
L 523.470703 203.97531 
L 525.427119 203.80053 
L 527.304287 203.855985 
L 529.177345 204.140624 
L 530.87449 204.621069 
L 532.470291 205.306722 
L 533.811984 206.113309 
L 534.971034 207.055673 
L 535.905331 208.089536 
L 536.585158 209.153692 
L 537.023455 210.249273 
L 537.183541 211.261245 
L 537.084401 212.052964 
L 536.828692 212.485675 
L 536.577257 212.562812 
L 536.388118 212.402383 
L 536.282254 211.980005 
L 536.351526 211.307805 
L 536.666839 210.415707 
L 537.290661 209.352061 
L 538.214337 208.242642 
L 539.426859 207.155975 
L 540.819372 206.205147 
L 542.429172 205.374485 
L 544.228139 204.706194 
L 546.063417 204.260707 
L 548.001016 204.02411 
L 549.872698 204.016195 
L 551.754223 204.234049 
L 553.473886 204.651486 
L 555.108065 205.276847 
L 556.500486 206.033886 
L 557.724401 206.937699 
L 558.735342 207.949243 
L 559.498691 209.012054 
L 560.026185 210.132662 
L 560.262412 211.135628 
L 560.250164 211.984402 
L 560.0406 212.557861 
L 559.772925 212.760319 
L 559.56209 212.685678 
L 559.417063 212.377085 
L 559.410378 211.78762 
L 559.632781 210.955965 
L 560.152609 209.927671 
L 560.972498 208.827163 
L 562.085693 207.725891 
L 563.391383 206.741899 
L 564.923525 205.86097 
L 566.656334 205.126705 
L 568.442203 204.605946 
L 570.345538 204.28256 
L 572.201692 204.184337 
L 574.086955 204.305433 
L 575.830599 204.629737 
L 577.511475 205.163564 
L 579.076207 205.901529 
L 580.374315 206.751575 
L 581.475664 207.72723 
L 582.340645 208.778446 
L 582.945088 209.839028 
L 583.304808 210.904845 
L 583.395913 211.858235 
L 583.251239 212.568036 
L 582.982089 212.913669 
L 582.741822 212.920337 
L 582.577337 212.70392 
L 582.511129 212.23035 
L 582.644619 211.469243 
L 583.062017 210.486262 
L 583.777721 209.403693 
L 584.789746 208.295955 
L 586.084842 207.228549 
L 587.548688 206.310179 
L 589.222179 205.524749 
L 590.962352 204.944294 
L 592.831965 204.551035 
L 594.794175 204.37511 
L 596.677666 204.43128 
L 598.557077 204.719022 
L 600.259091 205.204802 
L 601.857439 205.897926 
L 603.198283 206.712567 
L 604.352635 207.662663 
L 605.27839 208.702073 
L 605.946938 209.767715 
L 606.372546 210.859068 
L 606.522054 211.860297 
L 606.41827 212.636642 
L 606.165298 213.054401 
L 605.920711 213.12151 
L 605.739774 212.955202 
L 605.643601 212.529937 
L 605.733734 211.810148 
L 606.071246 210.912356 
L 606.716212 209.847786 
L 607.658419 208.740751 
L 608.887301 207.658489 
L 610.29387 206.713125 
L 611.916906 205.889169 
L 613.728605 205.229198 
L 615.575381 204.793613 
L 617.52357 204.569635 
L 619.40351 204.576617 
L 621.290368 204.812682 
L 623.0108 205.249965 
L 624.639912 205.897066 
L 626.020918 206.674385 
L 627.22608 207.596118 
L 628.211204 208.620091 
L 628.943649 209.686627 
L 629.436529 210.799052 
L 629.642595 211.781346 
L 629.608727 212.598023 
L 629.391193 213.133206 
L 629.128819 213.302464 
L 628.929733 213.20416 
L 628.801658 212.87642 
L 628.816486 212.272702 
L 629.061458 211.433173 
L 629.603151 210.40238 
L 630.442308 209.303248 
L 631.572453 208.20572 
L 632.892583 207.226697 
L 634.438204 206.351949 
L 636.183935 205.625327 
L 637.981553 205.113618 
L 639.895961 204.801761 
L 641.761217 204.717232 
L 643.653229 204.855283 
L 645.399636 205.198428 
L 647.078166 205.753487 
L 648.527899 206.452958 
L 649.823853 207.311278 
L 650.919068 208.294304 
L 651.774287 209.350037 
L 652.366849 210.410554 
L 652.714227 211.470371 
L 652.796142 212.411731 
L 652.648745 213.105988 
L 652.383861 213.437594 
L 652.151105 213.435478 
L 651.994883 213.214339 
L 651.939658 212.920647 
L 651.939658 212.920647 
" clip-path="url(#pccde981bbd)" style="fill: none; stroke: #000000; stroke-width: 0.8; stroke-linecap: square"/>
   </g>
   <g id="line2d_3">
    <path d="M 63.069215 177.341385 
L 66.373532 179.401669 
L 69.299168 181.482134 
L 71.832621 183.549106 
L 74.082478 185.661754 
L 76.146489 187.908388 
L 77.894426 190.142068 
L 79.308916 192.307161 
L 80.38009 194.340619 
L 81.116897 196.173189 
L 81.594767 197.912852 
L 81.816525 199.508673 
L 81.808077 200.909585 
L 81.578199 202.235921 
L 81.188543 203.276265 
L 80.637031 204.143851 
L 79.960395 204.782357 
L 79.324758 205.11269 
L 78.687065 205.223874 
L 78.100423 205.11108 
L 77.620846 204.78341 
L 77.304163 204.265179 
L 77.201745 203.597635 
L 77.352783 202.840025 
L 77.771353 202.065377 
L 78.432518 201.342896 
L 79.425747 200.607143 
L 82.509098 198.555818 
L 83.362434 197.61813 
L 85.027769 195.290327 
L 86.531688 193.852938 
L 88.663495 192.171078 
L 91.36651 190.338727 
L 94.932715 188.204108 
L 99.596377 185.690036 
L 105.543981 182.747876 
L 113.054852 179.288713 
L 121.673907 175.567919 
L 130.933793 171.816569 
L 141.573631 167.751536 
L 153.143712 163.569255 
L 166.190102 159.095781 
L 180.295452 154.495266 
L 195.641255 149.725793 
L 212.287413 144.788523 
L 230.186308 139.714467 
L 249.298987 134.530271 
L 269.689861 129.232073 
L 291.323461 123.843452 
L 314.168411 118.384078 
L 338.290038 112.850536 
L 363.566837 107.281582 
L 390.066192 101.672221 
L 417.763114 96.03794 
L 446.634454 90.39296 
L 476.658629 84.750345 
L 507.815387 79.122273 
L 540.085538 73.520209 
L 573.450775 67.955026 
L 607.811609 62.449969 
L 643.23487 57.000853 
L 679.623896 51.629021 
L 716.96511 46.34217 
L 755.245049 41.147939 
L 794.372791 36.063798 
L 834.337327 31.09577 
L 875.127505 26.249996 
L 916.656705 21.541094 
L 940.757143 18.909218 
L 940.757143 18.909218 
" clip-path="url(#pccde981bbd)" style="fill: none; stroke: #000000; stroke-width: 0.8; stroke-linecap: square"/>
   </g>
  </g>
 </g>
 <defs>
  <clipPath id="pccde981bbd">
   <rect x="7.2" y="7.2" width="986.4" height="218.57207"/>
  </clipPath>
 </defs>
</svg>
