<?xml version="1.0" encoding="utf-8" standalone="no"?>
<!DOCTYPE svg PUBLIC "-//W3C//DTD SVG 1.1//EN"
  "http://www.w3.org/Graphics/SVG/1.1/DTD/svg11.dtd">
<svg xmlns:xlink="http://www.w3.org/1999/xlink" width="595.275591pt" height="841.889764pt" viewBox="0 0 595.275591 841.889764" xmlns="http://www.w3.org/2000/svg" version="1.1">
 <metadata>
  <rdf:RDF xmlns:dc="http://purl.org/dc/elements/1.1/" xmlns:cc="http://creativecommons.org/ns#" xmlns:rdf="http://www.w3.org/1999/02/22-rdf-syntax-ns#">
   <cc:Work>
    <dc:type rdf:resource="http://purl.org/dc/dcmitype/StillImage"/>
    <dc:date>2025-10-12T20:10:45.514849</dc:date>
    <dc:format>image/svg+xml</dc:format>
    <dc:creator>
     <cc:Agent>
      <dc:title>Matplotlib v3.10.6, https://matplotlib.org/</dc:title>
     </cc:Agent>
    </dc:creator>
   </cc:Work>
  </rdf:RDF>
 </metadata>
 <defs>
  <style type="text/css">*{stroke-linejoin: round; stroke-linecap: butt}</style>
 </defs>
 <g id="figure_1">
  <g id="patch_1">
   <path d="M 0 841.889764 
L 595.275591 841.889764 
L 595.275591 0 
L 0 0 
z
" style="fill: #ffffff"/>
  </g>
  <g id="axes_1">
   <g id="patch_2">
    <path d="M 297.637795 409.606299 
L 300.645845 409.606299 
L 300.645845 429.318319 
L 311.47673 429.318319 
L 311.47673 431.849657 
L 297.637795 431.849657 
L 297.637795 409.606299 
L 297.637795 409.606299 
z
M 320.446652 417.085902 
Q 318.244245 417.085902 316.961891 418.806831 
Q 315.679537 420.527759 315.679537 423.521507 
Q 315.679537 426.515256 316.952357 428.236184 
Q 318.229944 429.957113 320.446652 429.957113 
Q 322.639525 429.957113 323.917112 428.231417 
Q 325.199466 426.500954 325.199466 423.521507 
Q 325.199466 420.556362 323.917112 418.821132 
Q 322.639525 417.085902 320.446652 417.085902 
L 320.446652 417.085902 
z
M 320.446652 414.764317 
Q 324.021988 414.764317 326.062313 417.09067 
Q 328.107406 419.412254 328.107406 423.521507 
Q 328.107406 427.616459 326.062313 429.952345 
Q 324.021988 432.283465 320.446652 432.283465 
Q 316.857015 432.283465 314.821457 429.952345 
Q 312.790666 427.616459 312.790666 423.521507 
Q 312.790666 419.412254 314.821457 417.09067 
Q 316.857015 414.764317 320.446652 414.764317 
L 320.446652 414.764317 
z
M 342.316387 417.724696 
Q 341.853977 417.457737 341.310526 417.333792 
Q 340.767075 417.20508 340.11398 417.20508 
Q 337.787628 417.20508 336.543411 418.716256 
Q 335.299194 420.227431 335.299194 423.059097 
L 335.299194 431.849657 
L 332.543802 431.849657 
L 332.543802 415.164755 
L 335.299194 415.164755 
L 335.299194 417.758066 
Q 336.166809 416.237356 337.549273 415.50322 
Q 338.936503 414.764317 340.919623 414.764317 
Q 341.200883 414.764317 341.544115 414.802454 
Q 341.887347 414.835824 342.302086 414.912098 
L 342.316387 417.724696 
L 342.316387 417.724696 
z
M 358.778427 422.820742 
L 358.778427 424.160301 
L 346.174175 424.160301 
Q 346.355326 426.991967 347.880802 428.47454 
Q 349.406279 429.957113 352.133069 429.957113 
Q 353.710984 429.957113 355.193556 429.570976 
Q 356.676129 429.18484 358.139633 428.4078 
L 358.139633 431.001111 
Q 356.661828 431.625603 355.112515 431.954534 
Q 353.563203 432.283465 351.970987 432.283465 
Q 347.976145 432.283465 345.645025 429.96188 
Q 343.313906 427.635528 343.313906 423.669288 
Q 343.313906 419.574336 345.525848 417.17171 
Q 347.737789 414.764317 351.494275 414.764317 
Q 354.859858 414.764317 356.819143 416.933355 
Q 358.778427 419.097625 358.778427 422.820742 
L 358.778427 422.820742 
z
M 356.037336 422.015099 
Q 356.008733 419.769788 354.778817 418.430229 
Q 353.548902 417.085902 351.522878 417.085902 
Q 349.229896 417.085902 347.8522 418.382558 
Q 346.474503 419.679213 346.26475 422.034168 
L 356.037336 422.015099 
L 356.037336 422.015099 
z
M 376.266588 418.368256 
Q 377.296284 416.518616 378.726419 415.641467 
Q 380.156553 414.764317 382.092002 414.764317 
Q 384.699614 414.764317 386.115447 416.590122 
Q 387.53128 418.41116 387.53128 421.776743 
L 387.53128 431.849657 
L 384.775888 431.849657 
L 384.775888 421.867319 
Q 384.775888 419.46946 383.922574 418.311051 
Q 383.074028 417.147875 381.334031 417.147875 
Q 379.20313 417.147875 377.963681 418.563708 
Q 376.728998 419.974774 376.728998 422.420304 
L 376.728998 431.849657 
L 373.973605 431.849657 
L 373.973605 421.867319 
Q 373.973605 419.455158 373.125059 418.301517 
Q 372.276513 417.147875 370.503146 417.147875 
Q 368.400848 417.147875 367.161398 418.568475 
Q 365.926716 419.989075 365.926716 422.420304 
L 365.926716 431.849657 
L 363.171323 431.849657 
L 363.171323 415.164755 
L 365.926716 415.164755 
L 365.926716 417.758066 
Q 366.865837 416.223055 368.176794 415.493686 
Q 369.48775 414.764317 371.28972 414.764317 
Q 373.110758 414.764317 374.383577 415.689138 
Q 375.656397 416.609191 376.266588 418.368256 
L 376.266588 418.368256 
z
" clip-path="url(#p3200e49c62)" style="fill: none; stroke: #000000; stroke-width: 0.35; stroke-linejoin: miter"/>
   </g>
   <g id="patch_3">
    <path d="M 368.635683 475.141473 
L 370.204091 473.737265 
L 378.751445 483.284098 
L 377.183036 484.688306 
L 368.635683 475.141473 
L 368.635683 475.141473 
z
M 365.3071 471.423663 
L 366.875508 470.019455 
L 368.655799 472.007924 
L 367.087391 473.412132 
L 365.3071 471.423663 
L 365.3071 471.423663 
z
M 382.267648 477.556112 
L 386.800188 482.618661 
L 385.223596 484.030196 
L 373.425807 470.852839 
L 375.002398 469.441304 
L 376.299154 470.889695 
Q 376.033653 469.594201 376.417732 468.508303 
Q 376.802096 467.417236 377.84952 466.479469 
Q 379.589772 464.921409 381.911086 465.329652 
Q 384.235128 465.735453 386.249861 467.985778 
Q 388.264595 470.236103 388.414401 472.593428 
Q 388.564493 474.945584 386.824241 476.503644 
Q 385.776817 477.441411 384.650054 477.703267 
Q 383.526019 477.962682 382.267648 477.556112 
L 382.267648 477.556112 
z
M 384.621444 469.443712 
Q 383.073152 467.714372 381.479633 467.367072 
Q 379.886114 467.019773 378.642298 468.133371 
Q 377.395754 469.249411 377.565431 470.871487 
Q 377.735109 472.493563 379.283401 474.222904 
Q 380.831693 475.952244 382.425212 476.299544 
Q 384.018732 476.646843 385.265275 475.530803 
Q 386.509091 474.417205 386.339414 472.795129 
Q 386.169736 471.173053 384.621444 469.443712 
L 384.621444 469.443712 
z
M 390.903921 455.7107 
L 392.232424 457.19455 
Q 391.264339 457.447023 390.395552 457.92018 
Q 389.527051 458.388167 388.757849 459.07684 
Q 387.590408 460.122059 387.326602 461.001993 
Q 387.062797 461.881927 387.70507 462.599303 
Q 388.19349 463.144836 388.889222 463.082149 
Q 389.584955 463.019461 391.099401 462.169718 
L 391.744204 461.808642 
Q 393.733451 460.6714 395.020851 460.693251 
Q 396.308251 460.715101 397.35347 461.882542 
Q 398.545215 463.213644 398.188335 464.93368 
Q 397.829012 466.650988 395.987837 468.299406 
Q 395.221363 468.985636 394.255109 469.580455 
Q 393.288855 470.175275 392.103443 470.700947 
L 390.652835 469.080713 
Q 391.928349 468.754475 392.973892 468.226263 
Q 394.016994 467.695322 394.846204 466.952923 
Q 395.953637 465.96143 396.208816 465.049907 
Q 396.466723 464.135941 395.848872 463.445841 
Q 395.27742 462.807567 394.541186 462.852461 
Q 393.80768 462.894912 392.065094 463.885027 
L 391.404782 464.245247 
Q 389.674693 465.24383 388.456499 465.189504 
Q 387.241032 465.132735 386.249539 464.025303 
Q 385.043142 462.677836 385.343342 461.092086 
Q 385.6411 459.503608 387.397717 457.930895 
Q 388.265115 457.154307 389.146368 456.596277 
Q 390.027907 456.033077 390.903921 455.7107 
L 390.903921 455.7107 
z
M 398.675904 458.659206 
L 393.501092 452.879281 
L 395.0695 451.475073 
L 400.190586 457.19499 
Q 401.40431 458.55064 402.538833 458.758504 
Q 403.673641 458.961197 404.731976 458.013662 
Q 406.000341 456.878085 406.011507 455.408601 
Q 406.0254 453.936675 404.772603 452.537382 
L 399.927474 447.125691 
L 401.495883 445.721483 
L 410.043236 455.268316 
L 408.474828 456.672524 
L 407.160977 455.20504 
Q 407.369925 456.585564 406.992887 457.684815 
Q 406.618577 458.781623 405.620251 459.675432 
Q 403.975468 461.148019 402.20592 460.889521 
Q 400.439101 460.628582 398.675904 458.659206 
L 398.675904 458.659206 
z
M 397.242889 449.116437 
L 397.242889 449.116437 
L 397.242889 449.116437 
z
M 413.800105 438.007692 
Q 413.441746 436.421864 413.810699 435.187343 
Q 414.179653 433.952822 415.287085 432.961329 
Q 416.779119 431.6255 418.524561 431.944892 
Q 420.26756 432.261557 421.991683 434.187289 
L 427.151843 439.950849 
L 425.575251 441.362383 
L 420.461492 435.650649 
Q 419.233115 434.278633 418.151432 434.052946 
Q 417.070035 433.822089 416.074437 434.713456 
Q 414.85517 435.805075 414.871281 437.250138 
Q 414.887677 438.690032 416.140475 440.089325 
L 420.97095 445.484649 
L 419.394359 446.896184 
L 414.2806 441.18445 
Q 413.044896 439.804251 411.968383 439.578849 
Q 410.89187 439.353448 409.877178 440.261909 
Q 408.674277 441.338876 408.69283 442.786667 
Q 408.714111 444.232016 409.959582 445.623126 
L 414.790058 451.01845 
L 413.213466 452.429984 
L 404.666113 442.883151 
L 406.242704 441.471617 
L 407.571207 442.955468 
Q 407.322201 441.596065 407.698668 440.507154 
Q 408.075135 439.418244 409.106193 438.495129 
Q 410.148162 437.562247 411.350216 437.439373 
Q 412.549829 437.313772 413.800105 438.007692 
L 413.800105 438.007692 
z
" clip-path="url(#p3200e49c62)" style="fill: none; stroke: #000000; stroke-width: 0.35; stroke-linejoin: miter"/>
   </g>
   <g id="patch_4">
    <path d="M 403.720523 399.91036 
L 395.072384 399.296859 
L 395.258637 396.671368 
L 417.463442 398.24658 
L 417.27719 400.872071 
L 414.880002 400.702015 
Q 416.245987 401.629536 416.850305 402.943573 
Q 417.454947 404.253044 417.329267 406.02468 
Q 417.123903 408.91957 414.684227 410.57753 
Q 412.24031 412.2306 408.473301 411.963368 
Q 404.706292 411.696136 402.524779 409.714937 
Q 400.34359 407.729172 400.548954 404.834283 
Q 400.674634 403.062647 401.458078 401.851647 
Q 402.23728 400.635756 403.720523 399.91036 
L 403.720523 399.91036 
z
M 408.665708 409.251121 
Q 411.560597 409.456485 413.293492 408.381675 
Q 415.026386 407.306864 415.174092 405.224736 
Q 415.321799 403.142607 413.758314 401.829362 
Q 412.195152 400.511551 409.300263 400.306187 
Q 406.405373 400.100823 404.671831 401.184766 
Q 402.938613 402.264142 402.790906 404.346271 
Q 402.6432 406.428399 404.207009 407.737078 
Q 405.770819 409.045757 408.665708 409.251121 
L 408.665708 409.251121 
z
M 404.145232 385.643302 
Q 403.995582 387.752827 405.5568 389.098035 
Q 407.118018 390.443242 409.985511 390.646663 
Q 412.853004 390.850083 414.587841 389.747876 
Q 416.323003 388.641103 416.473625 386.51788 
Q 416.622627 384.417487 415.056519 383.076522 
Q 413.486169 381.730667 410.632374 381.528218 
Q 407.792278 381.326741 406.043094 382.437108 
Q 404.294234 383.542909 404.145232 385.643302 
L 404.145232 385.643302 
z
M 401.921555 385.485554 
Q 402.164493 382.061001 404.531373 380.264794 
Q 406.894011 378.463697 410.829964 378.742914 
Q 414.75222 379.02116 416.850634 381.138724 
Q 418.944806 383.251398 418.701868 386.675952 
Q 418.457958 390.114204 416.086836 391.905521 
Q 413.711472 393.691947 409.789217 393.413702 
Q 405.853263 393.134485 403.767575 391.031591 
Q 401.677645 388.923806 401.921555 385.485554 
L 401.921555 385.485554 
z
M 396.910657 373.383833 
L 397.09691 370.758342 
L 419.301716 372.333554 
L 419.115463 374.959045 
L 396.910657 373.383833 
L 396.910657 373.383833 
z
M 405.989538 359.645233 
Q 405.839888 361.754758 407.401106 363.099965 
Q 408.962324 364.445173 411.829817 364.648593 
Q 414.69731 364.852013 416.432148 363.749807 
Q 418.16731 362.643034 418.317932 360.51981 
Q 418.466934 358.419417 416.900826 357.078452 
Q 415.330476 355.732597 412.476681 355.530148 
Q 409.636584 355.328671 407.887401 356.439039 
Q 406.138541 357.54484 405.989538 359.645233 
L 405.989538 359.645233 
z
M 403.765862 359.487485 
Q 404.0088 356.062931 406.37568 354.266724 
Q 408.738317 352.465627 412.674271 352.744845 
Q 416.596526 353.02309 418.694941 355.140654 
Q 420.789113 357.253329 420.546174 360.677882 
Q 420.302264 364.116134 417.931143 365.907451 
Q 415.555779 367.693878 411.633523 367.415632 
Q 407.697569 367.136415 405.611882 365.033521 
Q 403.521952 362.925736 403.765862 359.487485 
L 403.765862 359.487485 
z
M 408.087405 338.741214 
Q 407.800285 339.165983 407.644641 339.678093 
Q 407.48443 340.18988 407.440053 340.815432 
Q 407.281981 343.043675 408.644884 344.338101 
Q 410.007786 345.632528 412.720032 345.824935 
L 421.139868 346.422239 
L 420.952644 349.061428 
L 404.971393 347.927716 
L 405.158618 345.288527 
L 407.642561 345.464738 
Q 406.244937 344.530384 405.635698 343.156339 
Q 405.022217 341.777405 405.156967 339.87792 
Q 405.176078 339.608521 405.235929 339.282356 
Q 405.291213 338.955866 405.392451 338.5638 
L 408.087405 338.741214 
L 408.087405 338.741214 
z
" clip-path="url(#p3200e49c62)" style="fill: none; stroke: #000000; stroke-width: 0.35; stroke-linejoin: miter"/>
   </g>
   <g id="patch_5">
    <path d="M 370.725501 328.145182 
L 372.689069 326.613705 
Q 372.921979 327.842715 373.438592 328.966557 
Q 373.94878 330.089605 374.742671 331.107484 
Q 375.947583 332.65235 377.022884 333.055989 
Q 378.098185 333.459629 379.047483 332.719227 
Q 379.769383 332.156184 379.750138 331.282996 
Q 379.730893 330.409808 378.799227 328.448642 
L 378.403447 327.613701 
Q 377.15338 325.035894 377.289724 323.431806 
Q 377.426069 321.827718 378.970935 320.622806 
Q 380.732371 319.24898 382.847752 319.839911 
Q 384.959523 320.433657 386.859794 322.870069 
Q 387.65087 323.884339 388.310988 325.140073 
Q 388.971107 326.395807 389.526399 327.919068 
L 387.382356 329.591306 
Q 387.083479 327.972549 386.513166 326.623551 
Q 385.939243 325.277368 385.083417 324.18008 
Q 383.94044 322.714623 382.825002 322.319067 
Q 381.706749 321.919901 380.793546 322.632151 
Q 379.948923 323.290911 379.942539 324.213114 
Q 379.933341 325.131708 381.020779 327.389356 
L 381.414176 328.243571 
Q 382.513237 330.486348 382.342245 332.001354 
Q 382.168438 333.512751 380.702981 334.655729 
Q 378.919888 336.046446 376.967216 335.537598 
Q 375.010935 335.031567 373.197936 332.707048 
Q 372.302697 331.559227 371.681268 330.412643 
Q 371.053414 329.265264 370.725501 328.145182 
L 370.725501 328.145182 
z
M 367.247484 324.452517 
L 365.628734 322.377055 
L 378.261985 312.523799 
L 379.880734 314.599261 
L 367.247484 324.452517 
L 367.247484 324.452517 
z
M 362.327735 328.289657 
L 360.708986 326.214194 
L 363.340311 324.161902 
L 364.959061 326.237364 
L 362.327735 328.289657 
L 362.327735 328.289657 
z
M 357.051977 318.778894 
L 360.63982 315.980569 
L 357.306604 311.706921 
L 358.92005 310.44852 
L 362.253266 314.722168 
L 369.111316 309.373257 
Q 370.656182 308.168345 370.767161 307.402577 
Q 370.87814 306.636809 369.864662 305.337389 
L 368.203685 303.207784 
L 369.939854 301.853665 
L 371.600832 303.98327 
Q 373.475765 306.387197 373.292859 307.998574 
Q 373.106343 309.612767 370.738511 311.459548 
L 363.880461 316.808459 
L 365.068482 318.331668 
L 363.455036 319.590069 
L 362.267015 318.06686 
L 358.679172 320.865185 
L 357.051977 318.778894 
L 357.051977 318.778894 
z
" clip-path="url(#p3200e49c62)" style="fill: none; stroke: #000000; stroke-width: 0.35; stroke-linejoin: miter"/>
   </g>
   <g id="patch_6">
    <path d="M 346.576771 301.033157 
Q 349.444945 302.945648 350.988166 303.029465 
Q 352.531387 303.113282 353.587785 301.528996 
Q 354.427415 300.269797 354.09008 298.974826 
Q 353.75 297.683971 352.326201 296.734585 
Q 350.355102 295.420262 348.23568 296.022272 
Q 346.116258 296.624282 344.574192 298.936928 
L 344.222975 299.463652 
L 346.576771 301.033157 
L 346.576771 301.033157 
z
M 341.203788 298.865292 
L 346.683335 290.647581 
L 349.049477 292.225317 
L 347.592471 294.410397 
Q 349.275689 293.642364 350.902578 293.823584 
Q 352.529468 294.004803 354.278355 295.170956 
Q 356.488125 296.644425 356.968049 298.75972 
Q 357.443858 300.872272 356.05545 302.954476 
Q 354.436555 305.382343 351.987952 305.533015 
Q 349.535234 305.680943 346.309052 303.529734 
L 342.988224 301.315415 
L 342.831822 301.549971 
Q 341.742498 303.183637 342.221097 304.792754 
Q 342.699695 306.40187 344.641988 307.696986 
Q 345.876497 308.520153 347.24684 309.005879 
Q 348.613068 309.488862 350.086325 309.615197 
L 348.626576 311.804392 
Q 346.995588 311.4421 345.608791 310.874067 
Q 344.21925 310.310148 343.062927 309.539115 
Q 339.935506 307.453759 339.473463 304.803479 
Q 339.008676 302.157315 341.203788 298.865292 
L 341.203788 298.865292 
z
M 322.838484 291.559359 
Q 320.885009 292.563309 319.145625 292.497308 
Q 317.406241 292.431306 315.735539 291.317287 
Q 313.484619 289.816379 313.313365 287.425388 
Q 313.139367 285.038512 315.076554 282.133302 
L 320.874393 273.438247 
L 323.252879 275.024216 
L 317.507174 283.641085 
Q 316.126997 285.710944 316.196822 287.202052 
Q 316.259788 288.694531 317.761773 289.696051 
Q 319.601191 290.92257 321.486034 290.413818 
Q 323.364017 289.906437 324.771633 287.795427 
L 330.199047 279.655901 
L 332.577533 281.24187 
L 326.831828 289.858739 
Q 325.44342 291.940943 325.511873 293.425192 
Q 325.580327 294.909441 327.111118 295.930168 
Q 328.925845 297.140224 330.813432 296.627357 
Q 332.696903 296.111746 334.096287 294.013081 
L 339.523701 285.873555 
L 341.902187 287.459524 
L 332.298573 301.862123 
L 329.920087 300.276154 
L 331.412763 298.037579 
Q 329.71857 298.822072 328.167122 298.697101 
Q 326.615674 298.572131 325.060193 297.534941 
Q 323.488252 296.486775 322.921854 294.955841 
Q 322.352713 293.429022 322.838484 291.559359 
L 322.838484 291.559359 
z
M 298.639705 269.871378 
L 299.410738 268.715055 
L 310.290873 275.9699 
Q 311.764373 273.421305 311.300913 271.263487 
Q 310.837454 269.105668 308.483658 267.536163 
Q 307.121583 266.627936 305.619555 266.107903 
Q 304.117526 265.587871 302.406958 265.416246 
L 303.899634 263.177671 
Q 305.534742 263.489208 307.061455 264.097035 
Q 308.588167 264.704863 309.962587 265.621322 
Q 313.410981 267.920701 314.086955 271.266482 
Q 314.760186 274.616378 312.477269 278.040082 
Q 310.120268 281.574891 306.827975 282.3757 
Q 303.532937 283.180625 300.290295 281.01844 
Q 297.385085 279.081253 296.942278 276.081177 
Q 296.496728 273.085215 298.639705 269.871378 
L 298.639705 269.871378 
z
M 300.542129 272.144555 
Q 299.274447 274.099196 299.565092 275.963443 
Q 299.852992 277.831804 301.601879 278.997957 
Q 303.581208 280.317768 305.516789 279.991465 
Q 307.45237 279.665161 308.988913 277.753069 
L 300.542129 272.144555 
L 300.542129 272.144555 
z
M 285.281612 276.420319 
L 288.009038 272.32998 
L 283.136845 269.081215 
L 284.363364 267.241797 
L 289.235557 270.490563 
L 294.448948 262.672009 
Q 295.623332 260.910777 295.476629 260.087709 
Q 295.329925 259.26464 293.848515 258.27684 
L 291.420648 256.657945 
L 292.740459 254.678616 
L 295.168326 256.297511 
Q 297.908934 258.124942 298.269552 259.839673 
Q 298.627426 261.558519 296.827434 264.257977 
L 291.614043 272.076531 
L 293.350585 273.234453 
L 292.124067 275.07387 
L 290.387525 273.915949 
L 287.660098 278.006287 
L 285.281612 276.420319 
L 285.281612 276.420319 
z
" clip-path="url(#p3200e49c62)" style="fill: none; stroke: #000000; stroke-width: 0.35; stroke-linejoin: miter"/>
   </g>
   <g id="patch_7">
    <path d="M 255.051647 293.897034 
L 254.803938 291.24767 
Q 256.067666 291.800129 257.305009 292.017264 
Q 258.542353 292.234399 259.77347 292.119292 
Q 262.531173 291.861453 263.894307 289.970535 
Q 265.252977 288.085001 264.957843 284.928416 
Q 264.66271 281.771832 262.977598 280.165917 
Q 261.288021 278.565387 258.530319 278.823226 
Q 257.299201 278.938332 256.123555 279.381076 
Q 254.947909 279.82382 253.808496 280.600968 
L 253.563549 277.98115 
Q 254.698778 277.318647 255.943507 276.924086 
Q 257.182852 276.525062 258.615872 276.391078 
Q 262.511127 276.026881 265.034762 278.259783 
Q 267.553472 280.493146 267.942072 284.649398 
Q 268.336197 288.864743 266.247305 291.494134 
Q 264.15395 294.128909 260.12081 294.505998 
Q 258.815825 294.628011 257.544611 294.473653 
Q 256.273857 294.32422 255.051647 293.897034 
L 255.051647 293.897034 
z
M 243.326975 293.657002 
Q 245.602079 293.444285 246.760547 291.542697 
Q 247.919016 289.641109 247.629868 286.548542 
Q 247.34072 283.455975 245.859673 281.801176 
Q 244.373701 280.146837 242.083823 280.360935 
Q 239.818567 280.572731 238.665484 282.478783 
Q 237.507937 284.39022 237.795703 287.468014 
Q 238.082088 290.531033 239.574366 292.199685 
Q 241.061719 293.868798 243.326975 293.657002 
L 243.326975 293.657002 
z
M 243.551202 296.055218 
Q 239.85785 296.400538 237.52549 294.19446 
Q 235.188665 291.993766 234.791777 287.748874 
Q 234.396271 283.518755 236.283259 280.908242 
Q 238.165783 278.303114 241.859135 277.957794 
Q 245.56726 277.611093 247.895157 279.822556 
Q 250.21859 282.039405 250.614096 286.269523 
Q 251.010984 290.514416 249.137388 293.108774 
Q 247.259327 295.708517 243.551202 296.055218 
L 243.551202 296.055218 
z
M 215.938916 291.329684 
L 214.966035 280.924281 
L 217.797604 280.659536 
L 218.761737 290.971374 
Q 218.990569 293.418835 220.059181 294.540932 
Q 221.128254 295.667953 223.034023 295.489768 
Q 225.328826 295.275209 226.516761 293.688787 
Q 227.705157 292.10729 227.468958 289.581037 
L 226.558235 279.840437 
L 229.404578 279.574311 
L 231.016071 296.809952 
L 228.169727 297.076079 
L 227.919255 294.397168 
Q 227.045385 296.048608 225.743285 296.945284 
Q 224.43626 297.842421 222.633904 298.010937 
Q 219.664449 298.288574 217.971049 296.594019 
Q 216.272725 294.899924 215.938916 291.329684 
L 215.938916 291.329684 
z
M 199.89894 299.207678 
L 199.648468 296.528767 
Q 200.902667 297.032442 202.226349 297.216667 
Q 203.545567 297.406277 204.934267 297.276436 
Q 207.04194 297.079374 208.035461 296.335737 
Q 209.028981 295.5921 208.907889 294.296965 
Q 208.815804 293.312071 208.009871 292.821127 
Q 207.203939 292.330183 204.876486 292.03614 
L 203.886107 291.910167 
Q 200.812016 291.546843 199.431461 290.488685 
Q 198.050906 289.430527 197.853843 287.322854 
Q 197.629155 284.919713 199.398779 283.338515 
Q 201.168863 281.762241 204.492879 281.451453 
Q 205.876655 281.322073 207.403941 281.452489 
Q 208.931228 281.582905 210.640961 281.964508 
L 210.914454 284.889643 
Q 209.267117 284.219057 207.707241 283.952598 
Q 206.147825 283.691063 204.650787 283.831033 
Q 202.651452 284.017966 201.641917 284.80284 
Q 200.627458 285.588174 200.743946 286.834065 
Q 200.851685 287.986391 201.687305 288.529202 
Q 202.518 289.072474 205.206 289.397384 
L 206.212534 289.536749 
Q 208.893768 289.842422 210.173071 290.880241 
Q 211.44745 291.918522 211.634383 293.917856 
Q 211.861834 296.350544 210.261664 297.831451 
Q 208.661954 299.317282 205.490596 299.613797 
Q 203.924615 299.760212 202.519199 299.658142 
Q 201.109319 299.561457 199.89894 299.207678 
L 199.89894 299.207678 
z
M 179.029523 293.692741 
L 178.900143 292.308965 
L 191.920439 291.091597 
Q 191.459816 288.183959 189.740793 286.799786 
Q 188.02177 285.415612 185.204974 285.678976 
Q 183.574975 285.831377 182.08076 286.373452 
Q 180.586544 286.915527 179.149782 287.859566 
L 178.89931 285.180655 
Q 180.365579 284.392817 181.934262 283.90339 
Q 183.502945 283.413963 185.147718 283.260181 
Q 189.274423 282.874343 191.906716 285.047411 
Q 194.53947 287.225404 194.922544 291.322562 
Q 195.318051 295.552681 193.265152 298.248251 
Q 191.212714 300.948746 187.332232 301.311562 
Q 183.855557 301.636623 181.622106 299.585225 
Q 179.389116 297.538751 179.029523 293.692741 
L 179.029523 293.692741 
z
M 181.938905 294.260231 
Q 182.185312 296.576893 183.585205 297.841879 
Q 184.985558 299.111789 187.078458 298.916108 
Q 189.447127 298.694643 190.745063 297.222124 
Q 192.042998 295.749605 192.032224 293.296659 
L 181.938905 294.260231 
L 181.938905 294.260231 
z
M 162.656296 302.535786 
L 162.408587 299.886422 
Q 163.672315 300.438881 164.909658 300.656016 
Q 166.147002 300.873151 167.378119 300.758044 
Q 170.135822 300.500205 171.498956 298.609287 
Q 172.857626 296.723753 172.562492 293.567168 
Q 172.267359 290.410584 170.582247 288.804669 
Q 168.89267 287.204139 166.134968 287.461978 
Q 164.90385 287.577084 163.728204 288.019828 
Q 162.552558 288.462572 161.413145 289.23972 
L 161.168198 286.619902 
Q 162.303427 285.957399 163.548156 285.562838 
Q 164.787501 285.163814 166.220521 285.02983 
Q 170.115776 284.665633 172.639411 286.898535 
Q 175.158121 289.131898 175.546721 293.28815 
Q 175.940846 297.503495 173.851954 300.132886 
Q 171.758599 302.767661 167.725459 303.14475 
Q 166.420474 303.266763 165.14926 303.112405 
Q 163.878506 302.962972 162.656296 302.535786 
L 162.656296 302.535786 
z
M 155.450397 308.812881 
L 154.992733 303.917959 
L 149.162161 304.463104 
L 148.956351 302.261866 
L 154.786922 301.716721 
L 153.912112 292.36023 
Q 153.715049 290.252557 153.082714 289.705642 
Q 152.450379 289.158727 150.67757 289.32448 
L 147.772134 289.596132 
L 147.550669 287.227462 
L 150.456105 286.955811 
Q 153.735802 286.649167 155.095878 287.753947 
Q 156.456415 288.863652 156.758455 292.094104 
L 157.633265 301.450595 
L 159.711391 301.256295 
L 159.917202 303.457533 
L 157.839076 303.651833 
L 158.29674 308.546755 
L 155.450397 308.812881 
L 155.450397 308.812881 
z
M 129.954111 298.281179 
L 129.824731 296.897403 
L 142.845027 295.680035 
Q 142.384404 292.772397 140.665381 291.388223 
Q 138.946358 290.00405 136.129562 290.267414 
Q 134.499563 290.419815 133.005347 290.96189 
Q 131.511132 291.503964 130.07437 292.448004 
L 129.823898 289.769093 
Q 131.290167 288.981255 132.85885 288.491828 
Q 134.427533 288.002401 136.072306 287.848619 
Q 140.199011 287.462781 142.831304 289.635849 
Q 145.464058 291.813841 145.847132 295.911 
Q 146.242639 300.141119 144.18974 302.836689 
Q 142.137302 305.537184 138.25682 305.9 
Q 134.780145 306.225061 132.546694 304.173663 
Q 130.313704 302.127189 129.954111 298.281179 
L 129.954111 298.281179 
z
M 132.863492 298.848669 
Q 133.1099 301.165331 134.509793 302.430317 
Q 135.910146 303.700227 138.003046 303.504546 
Q 140.371715 303.283081 141.669651 301.810562 
Q 142.967586 300.338043 142.956812 297.885097 
L 132.863492 298.848669 
L 132.863492 298.848669 
z
M 123.70296 311.781193 
L 123.245296 306.886271 
L 117.414725 307.431416 
L 117.208914 305.230178 
L 123.039485 304.685033 
L 122.164675 295.328542 
Q 121.967613 293.220869 121.335278 292.673954 
Q 120.702943 292.127039 118.930134 292.292792 
L 116.024697 292.564444 
L 115.803232 290.195774 
L 118.708669 289.924123 
Q 121.988365 289.617479 123.348442 290.722259 
Q 124.708978 291.831964 125.011018 295.062416 
L 125.885829 304.418907 
L 127.963955 304.224607 
L 128.169765 306.425845 
L 126.091639 306.620145 
L 126.549303 311.515067 
L 123.70296 311.781193 
L 123.70296 311.781193 
z
M 113.004879 297.317556 
L 113.980523 307.752506 
L 111.148953 308.017251 
L 110.183439 297.69064 
Q 109.954607 295.243178 108.889538 294.105848 
Q 107.820006 292.973902 105.909312 293.152548 
Q 103.619433 293.366646 102.426573 294.953529 
Q 101.228789 296.540871 101.464988 299.067124 
L 102.378474 308.837271 
L 99.546904 309.102016 
L 97.935412 291.866374 
L 100.766981 291.601629 
L 101.014691 294.250993 
Q 101.897029 292.583859 103.189741 291.693028 
Q 104.477528 290.802657 106.279884 290.634141 
Q 109.249338 290.356504 110.963357 292.059066 
Q 112.672451 293.762089 113.004879 297.317556 
L 113.004879 297.317556 
z
M 106.893492 308.832398 
L 106.893492 308.832398 
L 106.893492 308.832398 
z
M 83.481029 307.936581 
Q 83.984487 308.16769 84.557847 308.243238 
Q 85.131668 308.32371 85.806321 308.260631 
Q 88.209462 308.035943 89.348793 306.354715 
Q 90.488124 304.673487 90.214631 301.748352 
L 89.365604 292.667631 
L 92.211947 292.401505 
L 93.82344 309.637147 
L 90.977097 309.903273 
L 90.726625 307.224362 
Q 89.977248 308.879065 88.620057 309.770957 
Q 87.258403 310.668234 85.209824 310.859771 
Q 84.91928 310.886937 84.561035 310.880692 
Q 84.20325 310.879371 83.767454 310.840637 
L 83.481029 307.936581 
L 83.481029 307.936581 
z
" clip-path="url(#p3200e49c62)" style="fill: none; stroke: #000000; stroke-width: 0.35; stroke-linejoin: miter"/>
   </g>
   <g id="patch_8">
    <path d="M 136.378569 432.413929 
Q 136.5701 429.869306 136.063538 428.843542 
Q 135.556976 427.817779 134.151409 427.711983 
Q 133.034257 427.627897 132.321601 428.315901 
Q 131.612595 429.004179 131.517517 430.267364 
Q 131.385892 432.016108 132.544106 433.164351 
Q 133.70232 434.312594 135.754083 434.467027 
L 136.221388 434.5022 
L 136.378569 432.413929 
L 136.378569 432.413929 
z
M 136.932278 436.666824 
L 129.641584 436.118064 
L 129.79959 434.01884 
L 131.738177 434.164755 
Q 130.631349 433.358159 130.157213 432.243048 
Q 129.683077 431.127938 129.799864 429.576338 
Q 129.947427 427.615846 131.13736 426.537871 
Q 132.327018 425.463548 134.174334 425.602593 
Q 136.32832 425.76472 137.315024 427.289233 
Q 138.301453 428.817397 138.086016 431.679643 
L 137.864258 434.625857 
L 138.072355 434.64152 
Q 139.521732 434.750613 140.385682 433.857378 
Q 141.249631 432.964143 141.379333 431.240954 
Q 141.461771 430.145707 141.277228 429.085438 
Q 141.092409 428.028819 140.638686 427.032733 
L 142.580924 427.178923 
Q 142.939765 428.362457 143.077201 429.463239 
Q 143.218288 430.564296 143.141071 431.590177 
Q 142.932229 434.364803 141.390758 435.625593 
Q 139.852937 436.886658 136.932278 436.666824 
L 136.932278 436.666824 
z
M 139.522711 449.663887 
L 146.437371 450.184344 
L 146.279365 452.283568 
L 128.525411 450.947252 
L 128.683417 448.848028 
L 130.600099 448.992295 
Q 129.51078 448.24576 129.031972 447.192714 
Q 128.55289 446.143318 128.659509 444.726799 
Q 128.833728 442.412177 130.790686 441.094543 
Q 132.751021 439.780835 135.76295 440.007539 
Q 138.77488 440.234243 140.512829 441.826315 
Q 142.250503 443.422039 142.076285 445.736661 
Q 141.969665 447.15318 141.338898 448.119039 
Q 140.711506 449.088824 139.522711 449.663887 
L 139.522711 449.663887 
z
M 135.599724 442.176128 
Q 133.285102 442.00191 131.895434 442.855574 
Q 130.505766 443.709239 130.38046 445.374015 
Q 130.255155 447.03879 131.501106 448.094506 
Q 132.746783 449.153872 135.061405 449.328091 
Q 137.376027 449.502309 138.766245 448.641343 
Q 140.156188 447.784027 140.281493 446.119252 
Q 140.406799 444.454476 139.160572 443.402411 
Q 137.914346 442.350346 135.599724 442.176128 
L 135.599724 442.176128 
z
M 140.977801 456.233426 
L 140.819795 458.332649 
L 128.041914 457.370876 
L 128.199919 455.271652 
L 140.977801 456.233426 
L 140.977801 456.233426 
z
M 145.953873 456.607968 
L 145.795868 458.707191 
L 143.134417 458.506868 
L 143.292423 456.407644 
L 145.953873 456.607968 
L 145.953873 456.607968 
z
M 129.475202 463.937396 
L 122.699274 463.427381 
L 122.858104 461.317205 
L 140.495231 462.644728 
L 140.336401 464.754904 
L 138.397814 464.608989 
Q 139.486859 465.359174 139.96229 466.408295 
Q 140.441098 467.461342 140.335577 468.863258 
Q 140.16026 471.192483 138.203576 472.506466 
Q 136.246617 473.824099 133.234688 473.597395 
Q 130.222759 473.370692 128.481433 471.774693 
Q 126.743484 470.182621 126.918802 467.853395 
Q 127.024322 466.451479 127.655365 465.48197 
Q 128.286133 464.516111 129.475202 463.937396 
L 129.475202 463.937396 
z
M 133.398739 471.417854 
Q 135.713361 471.592072 137.103029 470.738408 
Q 138.492697 469.884743 138.618002 468.219967 
Q 138.743583 466.551541 137.497356 465.499476 
Q 136.25113 464.447411 133.936508 464.273193 
Q 131.621886 464.098974 130.232218 464.952639 
Q 128.84255 465.806304 128.71697 467.47473 
Q 128.591664 469.139506 129.837891 470.19157 
Q 131.084117 471.243635 133.398739 471.417854 
L 133.398739 471.417854 
z
M 139.372841 477.556516 
L 139.214836 479.655739 
L 126.436954 478.693966 
L 126.59496 476.594742 
L 139.372841 477.556516 
L 139.372841 477.556516 
z
M 144.348913 477.931058 
L 144.190908 480.030282 
L 141.529458 479.829958 
L 141.687463 477.730734 
L 144.348913 477.931058 
L 144.348913 477.931058 
z
M 137.895129 492.164819 
L 135.909081 492.015332 
Q 136.432209 491.162531 136.73083 490.219402 
Q 137.032828 489.280198 137.110319 488.250666 
Q 137.22793 486.688114 136.808478 485.87084 
Q 136.389026 485.053566 135.428859 484.981295 
Q 134.698694 484.926337 134.240457 485.453586 
Q 133.78222 485.980836 133.278957 487.642863 
L 133.064186 488.349985 
Q 132.417755 490.548291 131.474312 491.424528 
Q 130.530869 492.300765 128.968316 492.183154 
Q 127.186715 492.049055 126.2523 490.561521 
Q 125.321536 489.074262 125.507021 486.609957 
Q 125.584238 485.584075 125.868845 484.485688 
Q 126.153452 483.3873 126.643996 482.186925 
L 128.812585 482.350152 
Q 128.11889 483.469149 127.730961 484.574446 
Q 127.346682 485.680017 127.263145 486.789867 
Q 127.15158 488.272102 127.599139 489.106177 
Q 128.046424 489.943904 128.970083 490.013426 
Q 129.824375 490.077728 130.324145 489.535247 
Q 130.823641 488.996416 131.39415 487.075102 
L 131.620697 486.357852 
Q 132.176329 484.43909 133.092371 483.63422 
Q 134.008139 482.833002 135.490373 482.944568 
Q 137.29388 483.080315 138.176123 484.431748 
Q 139.062017 485.783455 138.885051 488.134585 
Q 138.797667 489.295547 138.548862 490.308513 
Q 138.303432 491.325405 137.895129 492.164819 
L 137.895129 492.164819 
z
M 136.786552 505.380952 
L 134.822409 505.233114 
Q 135.38232 504.37941 135.694249 503.503369 
Q 136.006178 502.627329 136.074876 501.714623 
Q 136.22876 499.670162 135.017904 498.440855 
Q 133.810423 497.215474 131.470245 497.039332 
Q 129.130067 496.86319 127.749114 497.893743 
Q 126.371537 498.928222 126.217653 500.972683 
Q 126.148955 501.885389 126.326236 502.798252 
Q 126.503517 503.711114 126.929329 504.639012 
L 124.987091 504.492823 
Q 124.644424 503.582198 124.510874 502.624897 
Q 124.373399 501.670972 124.453363 500.608582 
Q 124.670724 497.720781 126.613237 496.156069 
Q 128.555475 494.595008 131.636769 494.826933 
Q 134.761874 495.062156 136.421625 496.912691 
Q 138.084752 498.767152 137.859697 501.757176 
Q 137.786877 502.724644 137.516559 503.633189 
Q 137.249892 504.542008 136.786552 505.380952 
L 136.786552 505.380952 
z
M 137.001039 509.067685 
L 136.843033 511.166908 
L 124.065151 510.205135 
L 124.223157 508.105911 
L 137.001039 509.067685 
L 137.001039 509.067685 
z
M 141.977111 509.442227 
L 141.819105 511.54145 
L 139.157655 511.341127 
L 139.315661 509.241903 
L 141.977111 509.442227 
L 141.977111 509.442227 
z
M 130.649085 525.802064 
L 122.934895 525.221427 
L 123.092901 523.122204 
L 130.737725 523.697619 
Q 132.552184 523.834191 133.503597 523.193531 
Q 134.45866 522.553145 134.565004 521.140276 
Q 134.693058 519.438992 133.682682 518.375307 
Q 132.675958 517.311897 130.803085 517.170929 
L 123.581757 516.627389 
L 123.740587 514.517213 
L 136.518469 515.478987 
L 136.359638 517.589163 
L 134.373591 517.439676 
Q 135.470369 518.282231 135.96323 519.343678 
Q 136.455817 520.408776 136.355243 521.744978 
Q 136.189543 523.946424 134.742875 524.972031 
Q 133.295932 526.001288 130.649085 525.802064 
L 130.649085 525.802064 
z
M 128.525692 538.306183 
Q 130.807456 538.477928 132.130585 537.63027 
Q 133.45709 536.786537 133.585144 535.085253 
Q 133.712098 533.398573 132.527111 532.362132 
Q 131.345775 531.325966 129.06401 531.15422 
Q 126.793198 530.983299 125.466419 531.830683 
Q 124.139639 532.678067 124.012685 534.364747 
Q 123.884631 536.066031 125.069893 537.098821 
Q 126.25488 538.135262 128.525692 538.306183 
L 128.525692 538.306183 
z
M 123.413519 540.032513 
Q 120.153334 539.787123 118.670667 538.217937 
Q 117.187726 536.652401 117.412781 533.662377 
Q 117.496043 532.556178 117.73425 531.586472 
Q 117.972456 530.616766 118.385156 529.718938 
L 120.425966 529.872547 
Q 119.856281 530.758559 119.551103 531.642451 
Q 119.242275 532.526068 119.171928 533.460679 
Q 119.016396 535.527045 120.016172 536.63399 
Q 121.015948 537.740935 123.19549 537.904986 
L 124.235974 537.983302 
Q 123.153132 537.24827 122.670949 536.191298 
Q 122.188765 535.134325 122.295384 533.717806 
Q 122.472076 531.370327 124.369248 530.06655 
Q 126.27007 528.763049 129.227237 528.985631 
Q 132.191706 529.208763 133.872341 530.781835 
Q 135.556627 532.355183 135.379935 534.702662 
Q 135.273316 536.119182 134.638347 537.092067 
Q 134.003379 538.064953 132.826362 538.629889 
L 134.764949 538.775803 
L 134.606943 540.875027 
L 123.413519 540.032513 
L 123.413519 540.032513 
z
" clip-path="url(#p3200e49c62)" style="fill: none; stroke: #000000; stroke-width: 0.35; stroke-linejoin: miter"/>
   </g>
   <g id="patch_9">
    <path d="M 181.368419 555.433256 
L 180.366798 556.240286 
L 172.773246 546.815776 
Q 170.765076 548.657191 170.575557 550.691018 
Q 170.386039 552.724845 172.028819 554.763732 
Q 172.979449 555.943578 174.161363 556.819503 
Q 175.343277 557.695428 176.805991 558.321591 
L 174.866908 559.883956 
Q 173.509642 559.155195 172.330295 558.194904 
Q 171.150947 557.234612 170.191701 556.044073 
Q 167.78497 553.057031 168.116472 549.915334 
Q 168.451537 546.770766 171.417193 544.381268 
Q 174.479089 541.914225 177.608197 542.120663 
Q 180.740869 542.324229 183.004 545.133047 
Q 185.031627 547.649576 184.590174 550.421339 
Q 184.152285 553.190229 181.368419 555.433256 
L 181.368419 555.433256 
z
M 180.319422 552.898308 
Q 181.981064 551.524212 182.241711 549.797543 
Q 182.505923 548.068003 181.285326 546.553095 
Q 179.903897 544.838576 178.104349 544.58962 
Q 176.304802 544.340665 174.417577 545.602593 
L 180.319422 552.898308 
L 180.319422 552.898308 
z
M 194.661114 550.269402 
L 196.31251 552.318984 
L 178.978399 566.285489 
L 177.327002 564.235908 
L 194.661114 550.269402 
L 194.661114 550.269402 
z
M 194.909479 560.522037 
L 196.560875 562.571619 
L 184.085163 572.623597 
L 182.433766 570.574015 
L 194.909479 560.522037 
L 194.909479 560.522037 
z
M 199.767878 556.60751 
L 201.419274 558.657091 
L 198.820762 560.750775 
L 197.169365 558.701193 
L 199.767878 556.60751 
L 199.767878 556.60751 
z
M 205.193509 566.033578 
L 201.650407 568.88834 
L 205.050848 573.108695 
L 203.457521 574.392476 
L 200.05708 570.172121 
L 193.284551 575.628909 
Q 191.758949 576.858122 191.660105 577.62555 
Q 191.56126 578.392979 192.595178 579.676195 
L 194.289654 581.779244 
L 192.575135 583.160673 
L 190.880659 581.057624 
Q 188.967911 578.683674 189.12529 577.069604 
Q 189.286233 575.452662 191.624538 573.568634 
L 198.397068 568.111846 
L 197.185087 566.607631 
L 198.778413 565.32385 
L 199.990395 566.828065 
L 203.533497 563.973303 
L 205.193509 566.033578 
L 205.193509 566.033578 
z
" clip-path="url(#p3200e49c62)" style="fill: none; stroke: #000000; stroke-width: 0.35; stroke-linejoin: miter"/>
   </g>
   <g id="patch_10">
    <path d="M 222.129532 578.990881 
L 220.706931 581.034708 
Q 220.120856 579.929616 219.29489 579.008915 
Q 218.475297 578.087072 217.415813 577.349621 
Q 215.807802 576.230369 214.661221 576.162914 
Q 213.514641 576.09546 212.826876 577.08356 
Q 212.303861 577.834967 212.580569 578.663376 
Q 212.857277 579.491784 214.327432 581.089539 
L 214.952504 581.770018 
Q 216.909235 583.862615 217.253547 585.435236 
Q 217.59786 587.007857 216.478608 588.615868 
Q 215.202451 590.449301 213.006939 590.510638 
Q 210.814042 590.568217 208.278043 588.803041 
Q 207.222316 588.068205 206.220249 587.06397 
Q 205.218183 586.059736 204.237105 584.768938 
L 205.79046 582.537259 
Q 206.554851 583.995136 207.498724 585.115028 
Q 208.445212 586.231163 209.587351 587.026146 
Q 211.112707 588.087867 212.295236 588.135725 
Q 213.481522 588.186198 214.143136 587.235668 
Q 214.755064 586.356522 214.488337 585.473711 
Q 214.225366 584.593515 212.518701 582.758634 
L 211.890203 582.059038 
Q 210.176834 580.2418 209.891972 578.744023 
Q 209.610867 577.248861 210.672588 575.723504 
Q 211.964435 573.867529 213.980237 573.77592 
Q 215.998655 573.680553 218.418185 575.364662 
Q 219.612923 576.196255 220.545741 577.107672 
Q 221.484932 578.017947 222.129532 578.990881 
L 222.129532 578.990881 
z
M 233.593057 595.352648 
L 232.858221 596.408375 
L 222.92462 589.494117 
Q 221.514033 591.825169 221.902996 593.830431 
Q 222.291959 595.835693 224.440983 597.331515 
Q 225.684562 598.197105 227.064821 598.706074 
Q 228.44508 599.215042 230.024747 599.405473 
L 228.602146 601.449301 
Q 227.09489 601.130799 225.693414 600.540135 
Q 224.291937 599.949471 223.037087 599.076036 
Q 219.888691 596.884603 219.325043 593.776155 
Q 218.764009 590.663951 220.939751 587.538097 
Q 223.186101 584.310804 226.247363 583.630653 
Q 229.31124 582.946744 232.271784 585.007424 
Q 234.924251 586.853666 235.278533 589.637913 
Q 235.635431 592.418403 233.593057 595.352648 
L 233.593057 595.352648 
z
M 231.87471 593.214041 
Q 233.083868 591.428787 232.849389 589.69837 
Q 232.617525 587.964197 231.020785 586.85279 
Q 229.213651 585.594939 227.416567 585.861096 
Q 225.619483 586.127253 224.162327 587.868165 
L 231.87471 593.214041 
L 231.87471 593.214041 
z
M 248.601478 599.803675 
L 253.55443 592.68785 
L 255.714726 594.191519 
L 242.997616 612.461982 
L 240.837321 610.958314 
L 242.210235 608.98587 
Q 240.714309 609.684737 239.276118 609.53143 
Q 237.841685 609.380739 236.383955 608.36609 
Q 234.001995 606.708132 233.826166 603.763657 
Q 233.656709 600.818041 235.814145 597.718487 
Q 237.971582 594.618932 240.79011 593.758672 
Q 243.612395 592.901027 245.994356 594.558985 
Q 247.452086 595.573634 248.091536 596.866464 
Q 248.737358 598.158152 248.601478 599.803675 
L 248.601478 599.803675 
z
M 238.045824 599.271841 
Q 236.387867 601.653801 236.424411 603.692626 
Q 236.460955 605.73145 238.174164 606.923924 
Q 239.887372 608.116398 241.815757 607.445258 
Q 243.747899 606.776733 245.405857 604.394773 
Q 247.063814 602.012812 247.019756 599.968758 
Q 246.979455 597.927318 245.266247 596.734844 
Q 243.553039 595.54237 241.62841 596.216125 
Q 239.703782 596.889881 238.045824 599.271841 
L 238.045824 599.271841 
z
" clip-path="url(#p3200e49c62)" style="fill: none; stroke: #000000; stroke-width: 0.35; stroke-linejoin: miter"/>
   </g>
   <g id="patch_11">
    <path d="M 270.405595 601.056814 
L 273.032555 592.794503 
L 275.540912 593.592023 
L 268.795976 614.806182 
L 266.287619 614.008662 
L 267.015789 611.718423 
Q 265.793461 612.828434 264.374264 613.107316 
Q 262.95943 613.387585 261.266835 612.849433 
Q 258.501098 611.970081 257.462334 609.209317 
Q 256.429318 606.445578 257.573586 602.846631 
Q 258.717853 599.247683 261.15589 597.592351 
Q 263.598289 595.938406 266.364025 596.817758 
Q 268.056621 597.355911 269.04981 598.401799 
Q 270.048748 599.444712 270.405595 601.056814 
L 270.405595 601.056814 
z
M 260.164828 603.670503 
Q 259.285476 606.43624 259.923348 608.373057 
Q 260.561221 610.309873 262.550457 610.942341 
Q 264.539693 611.574809 266.183335 610.363388 
Q 267.83134 609.153355 268.710692 606.387618 
Q 269.590044 603.621882 268.943447 601.682291 
Q 268.301212 599.744087 266.311976 599.111619 
Q 264.322739 598.479152 262.68346 599.691959 
Q 261.04418 600.904767 260.164828 603.670503 
L 260.164828 603.670503 
z
M 284.174063 604.819601 
Q 282.158653 604.178811 280.484474 605.380523 
Q 278.810296 606.582235 277.939265 609.321797 
Q 277.068235 612.061359 277.732282 614.006498 
Q 278.400691 615.953024 280.429188 616.597974 
Q 282.435874 617.23599 284.107077 616.028529 
Q 285.78403 614.818093 286.650899 612.091618 
Q 287.513607 609.378229 286.844997 607.41723 
Q 286.180749 605.457617 284.174063 604.819601 
L 284.174063 604.819601 
z
M 284.849528 602.695132 
Q 288.121298 603.735375 289.311537 606.457839 
Q 290.507525 609.177327 289.311939 612.937682 
Q 288.120514 616.68495 285.569436 618.227487 
Q 283.024107 619.767049 279.752337 618.726806 
Q 276.467479 617.682402 275.28299 614.956963 
Q 274.10425 612.228548 275.295675 608.481281 
Q 276.491261 604.720926 279.025091 603.187314 
Q 281.56467 601.650728 284.849528 602.695132 
L 284.849528 602.695132 
z
" clip-path="url(#p3200e49c62)" style="fill: none; stroke: #000000; stroke-width: 0.35; stroke-linejoin: miter"/>
   </g>
   <g id="patch_12">
    <path d="M 311.519912 611.534289 
L 311.398651 612.814851 
L 299.349519 611.673877 
Q 299.266361 614.397228 300.590445 615.952596 
Q 301.91453 617.507963 304.521225 617.7548 
Q 306.029646 617.897638 307.481877 617.662715 
Q 308.934108 617.427792 310.403496 616.817455 
L 310.168742 619.29655 
Q 308.699491 619.759763 307.188638 619.933959 
Q 305.677785 620.108155 304.155694 619.964023 
Q 300.336793 619.602398 298.318499 617.172041 
Q 296.300635 614.737127 296.659671 610.945569 
Q 297.030358 607.030969 299.362373 604.934391 
Q 301.69482 602.833257 305.285862 603.173305 
Q 308.503217 603.477967 310.179863 605.728835 
Q 311.85694 607.975146 311.519912 611.534289 
L 311.519912 611.534289 
z
M 308.972474 610.515997 
Q 309.148383 608.366985 308.093897 606.975087 
Q 307.039842 605.578633 305.103049 605.395231 
Q 302.911054 605.187664 301.476658 606.302498 
Q 300.042262 607.417333 299.628569 609.649582 
L 308.972474 610.515997 
L 308.972474 610.515997 
z
M 316.512635 604.622641 
L 319.133003 604.870772 
L 317.622636 620.820834 
L 315.002269 620.572702 
L 316.512635 604.622641 
L 316.512635 604.622641 
z
M 317.100815 598.411231 
L 319.721182 598.659362 
L 319.406595 601.981532 
L 316.786227 601.733401 
L 317.100815 598.411231 
L 317.100815 598.411231 
z
M 323.432545 615.021123 
L 324.346964 605.3645 
L 326.967331 605.612632 
L 326.062406 615.168997 
Q 325.847934 617.433906 326.620014 618.651925 
Q 327.397083 619.865818 329.165261 620.033253 
Q 331.284341 620.233916 332.64294 618.996953 
Q 334.006095 617.760422 334.227472 615.422598 
L 335.083634 606.381192 
L 337.704001 606.629324 
L 336.193635 622.579385 
L 333.573268 622.331254 
L 333.805432 619.879501 
Q 332.715327 621.243045 331.386106 621.82987 
Q 330.061442 622.417127 328.393521 622.259186 
Q 325.645553 621.998971 324.380987 620.154966 
Q 323.120978 618.311393 323.432545 615.021123 
L 323.432545 615.021123 
z
M 330.977424 605.606127 
L 330.977424 605.606127 
L 330.977424 605.606127 
z
M 353.223395 608.572505 
L 352.988641 611.0516 
Q 351.935193 610.377093 350.763415 609.981056 
Q 349.596625 609.580893 348.311506 609.4592 
Q 346.361041 609.274504 345.329278 609.779144 
Q 344.297515 610.283784 344.184022 611.482317 
Q 344.097715 612.393749 344.745766 612.97929 
Q 345.393817 613.564831 347.459334 614.234018 
L 348.338107 614.519545 
Q 351.070558 615.380632 352.143169 616.581129 
Q 353.21578 617.781626 353.031084 619.73209 
Q 352.820496 621.955985 350.938445 623.088203 
Q 349.056826 624.215865 345.980742 623.92458 
Q 344.70018 623.803319 343.333981 623.421058 
Q 341.967781 623.038797 340.479055 622.396639 
L 340.735386 619.689686 
Q 342.117486 620.583834 343.489831 621.095422 
Q 344.862608 621.602453 346.247985 621.733639 
Q 348.098192 621.908841 349.151636 621.36947 
Q 350.209637 620.830531 350.318815 619.677569 
Q 350.419794 618.611194 349.753704 617.973366 
Q 349.092171 617.335971 346.704148 616.57647 
L 345.812998 616.275977 
Q 343.427806 615.535136 342.44375 614.370613 
Q 341.46425 613.206521 341.639452 611.356314 
Q 341.85263 609.105076 343.563287 608.034794 
Q 345.274375 606.959955 348.209187 607.237862 
Q 349.658364 607.37509 350.918644 607.710537 
Q 352.183912 608.041859 353.223395 608.572505 
L 353.223395 608.572505 
z
M 370.424372 612.8176 
Q 371.576153 611.142633 373.022704 610.433576 
Q 374.469254 609.724518 376.319461 609.89972 
Q 378.812228 610.135769 380.000427 612.009327 
Q 381.189058 613.878328 380.884396 617.095683 
L 379.972566 626.724963 
L 377.338527 626.475537 
L 378.242158 616.932843 
Q 378.459219 614.640591 377.74835 613.455957 
Q 377.042469 612.267197 375.379106 612.109687 
Q 373.342055 611.916792 372.029028 613.15807 
Q 370.72099 614.395222 370.499613 616.733045 
L 369.64604 625.747109 
L 367.012002 625.497682 
L 367.915632 615.954988 
Q 368.133988 613.649065 367.427245 612.46942 
Q 366.720501 611.289774 365.025237 611.129244 
Q 363.01553 610.938937 361.702071 612.184773 
Q 360.39317 613.431039 360.173088 615.755191 
L 359.319515 624.769254 
L 356.685476 624.519828 
L 358.195842 608.569767 
L 360.829881 608.819193 
L 360.595127 611.298288 
Q 361.631841 609.915895 362.951085 609.337321 
Q 364.270329 608.758747 365.992935 608.921866 
Q 367.733771 609.086712 368.866815 610.08602 
Q 370.000291 611.080772 370.424372 612.8176 
L 370.424372 612.8176 
z
M 392.712749 613.691295 
Q 390.60734 613.491927 389.225681 615.020979 
Q 387.844021 616.550031 387.573018 619.411928 
Q 387.302015 622.273825 388.362994 624.034179 
Q 389.428529 625.794965 391.547609 625.995628 
Q 393.643903 626.194133 395.021437 624.660092 
Q 396.403959 623.121925 396.673668 620.2737 
Q 396.942081 617.439146 395.873283 615.664257 
Q 394.809042 613.8898 392.712749 613.691295 
L 392.712749 613.691295 
z
M 392.922905 611.471958 
Q 396.340776 611.795608 398.080652 614.204198 
Q 399.825517 616.608663 399.453536 620.536935 
Q 399.082849 624.451536 396.916375 626.499417 
Q 394.754891 628.543172 391.337021 628.219522 
Q 387.905479 627.894578 386.170591 625.481862 
Q 384.440692 623.06502 384.811379 619.150419 
Q 385.183361 615.222147 387.334868 613.186643 
Q 389.491363 611.147013 392.922905 611.471958 
L 392.922905 611.471958 
z
M 414.817274 616.372995 
L 415.634598 607.741734 
L 418.254966 607.989865 
L 416.15642 630.151336 
L 413.536052 629.903205 
L 413.762607 627.510696 
Q 412.803123 628.854422 411.475196 629.427576 
Q 410.151827 630.001161 408.383649 629.833726 
Q 405.494409 629.560134 403.894458 627.082029 
Q 402.299495 624.599799 402.65551 620.840141 
Q 403.011525 617.080484 405.043631 614.946311 
Q 407.080294 612.81257 409.969533 613.086162 
Q 411.737712 613.253596 412.929895 614.065388 
Q 414.127067 614.873054 414.817274 616.372995 
L 414.817274 616.372995 
z
M 405.362464 621.096472 
Q 405.088872 623.985712 406.122507 625.743477 
Q 407.156142 627.501242 409.234208 627.698021 
Q 411.312273 627.8948 412.662032 626.362727 
Q 414.016349 624.831085 414.289941 621.941845 
Q 414.563533 619.052606 413.520783 617.293978 
Q 412.482591 615.535781 410.404526 615.339002 
Q 408.32646 615.142223 406.981258 616.674728 
Q 405.636056 618.207232 405.362464 621.096472 
L 405.362464 621.096472 
z
" clip-path="url(#p3200e49c62)" style="fill: none; stroke: #000000; stroke-width: 0.35; stroke-linejoin: miter"/>
   </g>
   <g id="patch_13">
    <path d="M 417.819326 564.86743 
L 419.954174 568.094989 
L 423.798671 565.552072 
L 424.758708 567.003499 
L 420.914211 569.546416 
L 424.994906 575.715794 
Q 425.914136 577.105528 426.556063 577.250382 
Q 427.19799 577.395236 428.366925 576.622052 
L 430.28268 575.354889 
L 431.31574 576.916716 
L 429.399985 578.183879 
Q 427.237456 579.61427 425.883317 579.35238 
Q 424.527029 579.087244 423.118116 576.957185 
L 419.037421 570.787806 
L 417.66717 571.69415 
L 416.707133 570.242723 
L 418.077384 569.336379 
L 415.942537 566.10882 
L 417.819326 564.86743 
L 417.819326 564.86743 
z
M 439.425553 562.712012 
L 440.029067 563.624431 
L 431.44389 569.303039 
Q 432.843031 571.150168 434.55003 571.472723 
Q 436.257028 571.795278 438.114336 570.566774 
Q 439.189106 569.855874 440.02497 568.924918 
Q 440.860833 567.993963 441.507594 566.805341 
L 442.675961 568.571731 
Q 441.950732 569.662891 441.043637 570.58495 
Q 440.136542 571.50701 439.052031 572.224353 
Q 436.33101 574.024154 433.697261 573.493087 
Q 431.061363 572.958773 429.274449 570.257234 
Q 427.429545 567.468026 427.853714 564.834969 
Q 428.275736 562.198664 430.834404 560.50625 
Q 433.126815 558.98995 435.438568 559.584635 
Q 437.748173 560.176073 439.425553 562.712012 
L 439.425553 562.712012 
z
M 437.195538 563.398209 
Q 436.164473 561.881739 434.723223 561.523436 
Q 433.279825 561.161886 431.899833 562.074673 
Q 430.338006 563.107733 429.983795 564.611623 
Q 429.629584 566.115513 430.547694 567.814052 
L 437.195538 563.398209 
L 437.195538 563.398209 
z
M 449.33134 551.800313 
Q 449.19938 550.076551 449.77831 548.834775 
Q 450.357239 547.592999 451.675538 546.721019 
Q 453.451669 545.546209 455.238623 546.151949 
Q 457.023428 546.754441 458.539728 549.046852 
L 463.07789 555.90785 
L 461.201101 557.149241 
L 456.703746 550.349936 
Q 455.623435 548.716675 454.520316 548.312088 
Q 453.418295 547.902107 452.233125 548.68603 
Q 450.781698 549.646067 450.575344 551.168849 
Q 450.37009 552.686236 451.471877 554.351968 
L 455.720095 560.774616 
L 453.843305 562.016006 
L 449.34595 555.216702 
Q 448.259197 553.573699 447.161472 553.170212 
Q 446.063747 552.766724 444.855848 553.565681 
Q 443.423903 554.512832 443.219697 556.038861 
Q 443.018738 557.562742 444.114082 559.218733 
L 448.3623 565.641381 
L 446.48551 566.882771 
L 438.968441 555.518127 
L 440.845231 554.276737 
L 442.013598 556.043127 
Q 441.961695 554.574476 442.526028 553.487052 
Q 443.090361 552.399628 444.317742 551.587785 
Q 445.558112 550.76735 446.841733 550.823831 
Q 448.123205 550.877065 449.33134 551.800313 
L 449.33134 551.800313 
z
M 467.478012 550.546905 
L 471.464206 556.573413 
L 469.587416 557.814804 
L 459.211713 542.128348 
L 461.088503 540.886958 
L 462.22895 542.611136 
Q 462.149818 541.207172 462.721694 540.124094 
Q 463.294669 539.035622 464.541532 538.210892 
Q 466.613145 536.840638 468.992221 537.628842 
Q 471.374543 538.414899 473.146424 541.093708 
Q 474.918304 543.772517 474.711636 546.275713 
Q 474.506067 548.773514 472.434455 550.143768 
Q 471.187591 550.968498 469.961705 551.06987 
Q 468.739066 551.169094 467.478012 550.546905 
L 467.478012 550.546905 
z
M 471.20794 542.375905 
Q 469.846277 540.317281 468.223467 539.705658 
Q 466.600658 539.094035 465.120007 540.073401 
Q 463.636109 541.054916 463.563963 542.787656 
Q 463.491817 544.520397 464.853481 546.579021 
Q 466.215144 548.637645 467.837954 549.249268 
Q 469.460764 549.860891 470.944661 548.879377 
Q 472.425312 547.90001 472.497458 546.16727 
Q 472.569604 544.434529 471.20794 542.375905 
L 471.20794 542.375905 
z
M 477.742778 531.752159 
Q 476.242644 532.744412 476.144522 534.494334 
Q 476.0464 536.244256 477.395177 538.283398 
Q 478.743954 540.32254 480.386246 540.921277 
Q 482.031785 541.517866 483.541659 540.51917 
Q 485.035298 539.531212 485.128026 537.780191 
Q 485.221852 536.023774 483.879518 533.994373 
Q 482.543628 531.974714 480.888399 531.370531 
Q 479.236416 530.764201 477.742778 531.752159 
L 477.742778 531.752159 
z
M 476.696831 530.17085 
Q 479.132112 528.560049 481.56994 529.225375 
Q 484.008867 529.885306 485.860214 532.684256 
Q 487.705117 535.473464 487.364526 537.985892 
Q 487.025034 540.492925 484.589753 542.103726 
Q 482.144731 543.72097 479.708003 543.050249 
Q 477.272374 542.374133 475.42747 539.584925 
Q 473.576124 536.785976 473.913417 534.289732 
Q 474.251809 531.788093 476.696831 530.17085 
L 476.696831 530.17085 
z
M 492.926781 522.334264 
Q 492.491545 522.36076 492.065541 522.521178 
Q 491.63739 522.67835 491.192545 522.97259 
Q 489.607989 524.020684 489.441343 525.610554 
Q 489.274697 527.200425 490.550451 529.129167 
L 494.510872 535.116711 
L 492.634083 536.358102 
L 485.117014 524.993458 
L 486.993803 523.752067 
L 488.162171 525.518458 
Q 488.068005 524.091764 488.678896 522.968877 
Q 489.290886 521.840595 490.641655 520.947137 
Q 490.833231 520.820421 491.084199 520.691761 
Q 491.333021 520.559853 491.649877 520.424953 
L 492.926781 522.334264 
L 492.926781 522.334264 
z
" clip-path="url(#p3200e49c62)" style="fill: none; stroke: #000000; stroke-width: 0.35; stroke-linejoin: miter"/>
   </g>
   <g id="patch_14">
    <path d="M 481.752063 502.809848 
L 483.019985 500.503278 
L 497.059978 508.221066 
L 495.792056 510.527636 
L 481.752063 502.809848 
L 481.752063 502.809848 
z
M 476.284488 499.804321 
L 477.55241 497.497751 
L 480.47674 499.105256 
L 479.208818 501.411826 
L 476.284488 499.804321 
L 476.284488 499.804321 
z
M 497.653613 487.062227 
L 506.129757 491.721566 
L 504.861835 494.028137 
L 496.461908 489.410694 
Q 494.468228 488.314768 493.053632 488.550535 
Q 491.635023 488.784096 490.781656 490.336519 
Q 489.754088 492.205843 490.352315 493.939827 
Q 490.94653 495.671605 493.004392 496.802812 
L 500.938994 501.164465 
L 499.664456 503.483069 
L 485.624463 495.765281 
L 486.899 493.446677 
L 489.081216 494.646242 
Q 488.270058 493.11907 488.259493 491.655889 
Q 488.251133 490.188697 489.058194 488.720515 
Q 490.387858 486.301625 492.565491 485.884589 
Q 494.745328 485.463543 497.653613 487.062227 
L 497.653613 487.062227 
z
M 500.709473 469.596378 
L 502.86762 470.782712 
Q 501.788038 471.463814 500.979027 472.298873 
Q 500.170016 473.133932 499.618746 474.136789 
Q 498.3839 476.383188 499.124381 478.409534 
Q 499.863055 480.429664 502.43438 481.843122 
Q 505.005704 483.25658 507.111131 482.799853 
Q 509.214752 482.33691 510.449598 480.090511 
Q 511.000868 479.087654 511.272348 477.957114 
Q 511.543827 476.826574 511.540325 475.5501 
L 513.674404 476.723204 
Q 513.592259 477.936927 513.247988 479.095359 
Q 512.909933 480.251986 512.268254 481.419311 
Q 510.524034 484.592349 507.502786 485.365748 
Q 504.483744 486.135136 501.0981 484.274046 
Q 497.664319 482.386496 496.735108 479.420635 
Q 495.804091 476.448558 497.610054 473.163199 
Q 498.194401 472.100171 498.972915 471.20656 
Q 499.747418 470.310743 500.709473 469.596378 
L 500.709473 469.596378 
z
M 502.376473 465.290473 
L 503.644395 462.983902 
L 517.684388 470.70169 
L 516.416466 473.008261 
L 502.376473 465.290473 
L 502.376473 465.290473 
z
M 496.908898 462.284946 
L 498.17682 459.978375 
L 501.10115 461.58588 
L 499.833228 463.892451 
L 496.908898 462.284946 
L 496.908898 462.284946 
z
M 513.505757 450.090238 
L 505.908115 445.913812 
L 507.176037 443.607242 
L 526.683605 454.330557 
L 525.415683 456.637127 
L 523.309684 455.479459 
Q 524.162129 456.893513 524.161058 458.33985 
Q 524.162192 459.782177 523.30662 461.33861 
Q 521.908598 463.881855 518.998988 464.366642 
Q 516.087572 464.845213 512.778145 463.026021 
Q 509.468718 461.206828 508.316559 458.494508 
Q 507.166605 455.778177 508.564627 453.234933 
Q 509.420199 451.678499 510.638538 450.906518 
Q 511.855072 450.12832 513.505757 450.090238 
L 513.505757 450.090238 
z
M 514.087964 460.643233 
Q 516.631208 462.041255 518.65486 461.790308 
Q 520.678511 461.53936 521.684029 459.710149 
Q 522.689546 457.880939 521.819153 456.03391 
Q 520.950965 454.18287 518.40772 452.784848 
Q 515.864476 451.386826 513.836414 451.645797 
Q 511.810557 451.900756 510.80504 453.729966 
Q 509.799522 455.559177 510.672121 457.402194 
Q 511.544719 459.245211 514.087964 460.643233 
L 514.087964 460.643233 
z
M 515.255531 441.861234 
L 516.523454 439.554663 
L 530.563447 447.272451 
L 529.295525 449.579022 
L 515.255531 441.861234 
L 515.255531 441.861234 
z
M 509.787957 438.855707 
L 511.055879 436.549136 
L 513.980209 438.156641 
L 512.712287 440.463212 
L 509.787957 438.855707 
L 509.787957 438.855707 
z
M 526.384815 426.660999 
L 518.787173 422.484573 
L 520.055095 420.178003 
L 539.562663 430.901318 
L 538.294741 433.207888 
L 536.188742 432.05022 
Q 537.041187 433.464274 537.040116 434.910611 
Q 537.041251 436.352938 536.185679 437.909371 
Q 534.787657 440.452616 531.878047 440.937403 
Q 528.966631 441.415974 525.657204 439.596782 
Q 522.347777 437.777589 521.195618 435.065269 
Q 520.045663 432.348938 521.443686 429.805694 
Q 522.299258 428.24926 523.517597 427.477279 
Q 524.73413 426.699081 526.384815 426.660999 
L 526.384815 426.660999 
z
M 526.967023 437.213994 
Q 529.510267 438.612016 531.533919 438.361069 
Q 533.55757 438.110121 534.563088 436.28091 
Q 535.568605 434.4517 534.698212 432.604671 
Q 533.830023 430.753631 531.286779 429.355609 
Q 528.743534 427.957587 526.715473 428.216558 
Q 524.689616 428.471517 523.684098 430.300727 
Q 522.678581 432.129938 523.551179 433.972955 
Q 524.423778 435.815972 526.967023 437.213994 
L 526.967023 437.213994 
z
M 536.504703 423.341238 
L 528.00449 418.668669 
L 529.272412 416.362099 
L 537.684374 420.986156 
Q 539.678053 422.082082 541.102479 421.856942 
Q 542.525099 421.625586 543.380671 420.069152 
Q 544.406034 418.203839 543.810013 416.465844 
Q 543.216196 414.723838 541.158335 413.592631 
L 533.199664 409.217748 
L 534.467586 406.911177 
L 548.50758 414.628965 
L 547.239657 416.935536 
L 545.08151 415.749201 
Q 545.900293 417.291011 545.911256 418.743964 
Q 545.924425 420.192905 545.117364 421.661087 
Q 543.7877 424.079978 541.593224 424.508648 
Q 539.400953 424.933308 536.504703 423.341238 
L 536.504703 423.341238 
z
M 530.858284 412.678908 
L 530.858284 412.678908 
L 530.858284 412.678908 
z
M 549.059593 393.545843 
L 557.535738 398.205182 
L 556.267816 400.511752 
L 547.867888 395.89431 
Q 545.874209 394.798384 544.459612 395.03415 
Q 543.041004 395.267712 542.187637 396.820134 
Q 541.160068 398.689459 541.758295 400.423442 
Q 542.35251 402.15522 544.410372 403.286427 
L 552.344974 407.64808 
L 551.070437 409.966685 
L 537.030443 402.248897 
L 538.304981 399.930292 
L 540.487197 401.129857 
Q 539.676038 399.602685 539.665473 398.139505 
Q 539.657114 396.672312 540.464174 395.20413 
Q 541.793839 392.78524 543.971471 392.368205 
Q 546.151309 391.947158 549.059593 393.545843 
L 549.059593 393.545843 
z
M 543.290654 381.414942 
L 547.278012 383.606794 
L 549.888829 378.857265 
L 551.681937 379.842936 
L 549.071119 384.592466 
L 556.69283 388.782122 
Q 558.409721 389.725897 559.15711 389.52558 
Q 559.904498 389.325263 560.698328 387.88115 
L 561.999326 385.514408 
L 563.928823 386.575053 
L 562.627824 388.941794 
Q 561.159239 391.613405 559.60652 392.081435 
Q 558.049789 392.547261 555.418293 391.100727 
L 547.796582 386.91107 
L 546.866037 388.603892 
L 545.072929 387.618221 
L 546.003474 385.925399 
L 542.016116 383.733547 
L 543.290654 381.414942 
L 543.290654 381.414942 
z
" clip-path="url(#p3200e49c62)" style="fill: none; stroke: #000000; stroke-width: 0.35; stroke-linejoin: miter"/>
   </g>
   <g id="patch_15">
    <path d="M 511.167252 357.718135 
L 500.92068 359.91991 
L 500.323218 357.139458 
L 510.463408 354.960542 
Q 512.866686 354.444127 513.870204 353.252135 
Q 514.867847 352.056347 514.46469 350.180146 
Q 513.981526 347.931606 512.264815 346.934604 
Q 510.547064 345.932766 508.066417 346.465806 
L 498.472646 348.527308 
L 497.875185 345.746855 
L 514.799679 342.110133 
L 515.397141 344.890586 
L 512.795604 345.449602 
Q 514.555315 346.128775 515.592649 347.307173 
Q 516.628944 348.480735 517.009241 350.250554 
Q 517.635796 353.166402 516.147685 355.069584 
Q 514.658534 356.967931 511.167252 357.718135 
L 511.167252 357.718135 
z
M 499.010967 353.010122 
L 499.010967 353.010122 
L 499.010967 353.010122 
z
M 491.24689 338.301722 
L 496.053447 337.268892 
L 494.823196 331.543578 
L 496.984695 331.079116 
L 498.214947 336.804431 
L 507.402529 334.83021 
Q 509.472153 334.385491 509.940522 333.692964 
Q 510.408891 333.000436 510.034828 331.259631 
L 509.421781 328.406645 
L 511.74769 327.906856 
L 512.360737 330.759842 
Q 513.052754 333.980331 512.116415 335.461418 
Q 511.175242 336.943544 508.003108 337.62517 
L 498.815525 339.59939 
L 499.25401 341.640001 
L 497.09251 342.104462 
L 496.654026 340.063852 
L 491.847469 341.096681 
L 491.24689 338.301722 
L 491.24689 338.301722 
z
" clip-path="url(#p3200e49c62)" style="fill: none; stroke: #000000; stroke-width: 0.35; stroke-linejoin: miter"/>
   </g>
   <g id="patch_16">
    <path d="M 486.614403 329.28048 
L 485.660648 326.827269 
L 506.408414 318.760987 
L 507.362169 321.214198 
L 486.614403 329.28048 
L 486.614403 329.28048 
z
M 494.269092 309.757643 
Q 495.425209 312.731362 496.549767 313.615304 
Q 497.674325 314.499246 499.31691 313.860644 
Q 500.622445 313.353081 501.055348 312.19269 
Q 501.483985 311.033958 500.910073 309.557765 
Q 500.115553 307.514134 498.189859 306.843429 
Q 496.264166 306.172725 493.866419 307.104917 
L 493.320313 307.317232 
L 494.269092 309.757643 
L 494.269092 309.757643 
z
M 491.351141 305.258792 
L 499.87125 301.946358 
L 500.825005 304.399569 
L 498.559518 305.280342 
Q 500.243015 305.593365 501.379176 306.595579 
Q 502.515336 307.597794 503.220286 309.411037 
Q 504.11101 311.702122 503.350009 313.559784 
Q 502.58735 315.413179 500.428524 316.252483 
Q 497.911316 317.231119 495.976191 316.043481 
Q 494.039408 314.851577 492.738983 311.506677 
L 491.400408 308.063649 
L 491.15722 308.158195 
Q 489.463438 308.816701 488.97054 310.290184 
Q 488.477641 311.763668 489.26055 313.777434 
Q 489.758161 315.05737 490.538077 316.153883 
Q 491.316334 317.246129 492.365284 318.125087 
L 490.095531 319.007518 
Q 489.052531 317.865947 488.303908 316.698332 
Q 487.551019 315.532376 487.084923 314.333503 
Q 485.824307 311.090998 486.883276 308.837548 
Q 487.937978 306.585756 491.351141 305.258792 
L 491.351141 305.258792 
z
M 486.285729 289.071569 
Q 483.580798 290.123188 482.47353 291.835525 
Q 481.366262 293.547862 482.122631 295.493365 
Q 482.88066 297.443135 484.853771 297.957887 
Q 486.826883 298.472638 489.531815 297.42102 
Q 492.236747 296.369401 493.344015 294.657064 
Q 494.451283 292.944727 493.693255 290.994957 
Q 492.936885 289.049454 490.963773 288.534702 
Q 488.990661 288.01995 486.285729 289.071569 
L 486.285729 289.071569 
z
M 484.318208 299.447957 
Q 482.68519 299.188978 481.583153 298.261902 
Q 480.475191 297.332217 479.838248 295.693899 
Q 478.779994 292.971901 480.278656 290.434548 
Q 481.775658 287.892928 485.295483 286.524496 
Q 488.815307 285.156064 491.640223 286.017416 
Q 494.459213 286.87616 495.517467 289.598158 
Q 496.154409 291.236476 495.96537 292.670407 
Q 495.774671 294.100071 494.745422 295.394082 
L 496.98531 294.523262 
L 497.944042 296.989272 
L 477.196276 305.055555 
L 476.237545 302.589544 
L 484.318208 299.447957 
L 484.318208 299.447957 
z
M 475.706649 278.914639 
Q 476.472971 280.885741 478.459352 281.434624 
Q 480.445734 281.983508 483.125067 280.941841 
Q 485.8044 279.900174 486.901716 278.162239 
Q 487.997373 276.420036 487.226075 274.436135 
Q 486.463071 272.473566 484.474081 271.930608 
Q 482.479167 271.385042 479.812633 272.421732 
Q 477.158899 273.453447 476.052101 275.204892 
Q 474.943645 276.95207 475.706649 278.914639 
L 475.706649 278.914639 
z
M 473.628886 279.722428 
Q 472.384857 276.522588 473.756961 273.887097 
Q 475.12314 271.248999 478.800823 269.819195 
Q 482.465707 268.394368 485.267854 269.411911 
Q 488.064076 270.426847 489.308104 273.626687 
Q 490.557109 276.839327 489.17908 279.47221 
Q 487.795126 282.102485 484.130242 283.527312 
Q 480.452559 284.957116 477.668187 283.947396 
Q 474.877891 282.935068 473.628886 279.722428 
L 473.628886 279.722428 
z
M 468.668837 259.119481 
Q 468.59081 259.626215 468.668975 260.155717 
Q 468.742873 260.686878 468.970115 261.271382 
Q 469.779564 263.353412 471.564951 263.941147 
Q 473.350339 264.528882 475.884613 263.543611 
L 483.751954 260.484959 
L 484.710686 262.950969 
L 469.778097 268.756437 
L 468.819365 266.290426 
L 471.140316 265.388091 
Q 469.477433 265.140723 468.339375 264.158892 
Q 467.195391 263.174453 466.50537 261.399608 
Q 466.407506 261.147887 466.322211 260.827433 
Q 466.23265 260.508638 466.156606 260.110917 
L 468.668837 259.119481 
L 468.668837 259.119481 
z
M 467.501753 242.613194 
L 468.700627 242.147097 
L 473.086243 253.427602 
Q 475.557486 252.280206 476.353568 250.399083 
Q 477.149649 248.517961 476.20087 246.077549 
Q 475.651838 244.665353 474.790398 243.472841 
Q 473.928958 242.280329 472.724304 241.240896 
L 475.045255 240.338561 
Q 476.118359 241.443871 476.951823 242.716018 
Q 477.785288 243.988165 478.339295 245.41316 
Q 479.72929 248.988449 478.462634 251.882534 
Q 477.191711 254.778278 473.642021 256.158321 
Q 469.977137 257.583148 467.057205 256.439501 
Q 464.133007 255.297512 462.825947 251.935547 
Q 461.654902 248.92343 462.91441 246.415207 
Q 464.169653 243.908642 467.501753 242.613194 
L 467.501753 242.613194 
z
M 467.734478 245.346726 
Q 465.73493 246.153575 464.964003 247.720416 
Q 464.188809 249.288916 464.893758 251.102159 
Q 465.691595 253.154323 467.331437 253.93616 
Q 468.971278 254.717998 471.151889 254.086322 
L 467.734478 245.346726 
L 467.734478 245.346726 
z
" clip-path="url(#p3200e49c62)" style="fill: none; stroke: #000000; stroke-width: 0.35; stroke-linejoin: miter"/>
   </g>
   <g id="patch_17">
    <path d="M 434.933169 234.248395 
L 435.907621 233.257427 
L 445.231888 242.426296 
Q 447.157752 240.199734 447.107735 237.993272 
Q 447.057717 235.78681 445.040515 233.803227 
Q 443.873219 232.655385 442.495562 231.862551 
Q 441.117905 231.069717 439.469994 230.579934 
L 441.356479 228.661477 
Q 442.903999 229.274514 444.289415 230.158216 
Q 445.67483 231.041918 446.852706 232.200164 
Q 449.807977 235.106182 449.843653 238.51938 
Q 449.875861 241.936104 446.990649 244.870215 
Q 444.011807 247.899543 440.627704 248.067877 
Q 437.240133 248.239738 434.461191 245.50711 
Q 431.971429 243.058841 432.099856 240.028983 
Q 432.224816 237.002651 434.933169 234.248395 
L 434.933169 234.248395 
z
M 436.374892 236.838373 
Q 434.762716 238.520197 434.69812 240.405857 
Q 434.630057 242.295045 436.128851 243.76886 
Q 437.825134 245.436873 439.787557 245.47984 
Q 441.749979 245.522806 443.618243 243.933261 
L 436.374892 236.838373 
L 436.374892 236.838373 
z
M 420.582938 238.172441 
L 424.029933 234.667025 
L 419.854467 230.561147 
L 421.404575 228.984768 
L 425.580041 233.090645 
L 432.168865 226.390152 
Q 433.653084 224.880777 433.663546 224.044802 
Q 433.674009 223.208827 432.404442 221.960418 
L 430.323762 219.914415 
L 431.991775 218.218132 
L 434.072455 220.264135 
Q 436.421154 222.573692 436.453363 224.325636 
Q 436.482104 226.081108 434.207225 228.394541 
L 427.618401 235.095035 
L 429.106616 236.558448 
L 427.556509 238.134827 
L 426.068294 236.671414 
L 422.621298 240.176831 
L 420.582938 238.172441 
L 420.582938 238.172441 
z
" clip-path="url(#p3200e49c62)" style="fill: none; stroke: #000000; stroke-width: 0.35; stroke-linejoin: miter"/>
   </g>
   <g id="patch_18">
    <path d="M 407.325074 219.244665 
L 402.265125 226.284808 
L 400.127806 224.748657 
L 413.119639 206.672513 
L 415.256958 208.208664 
L 413.854385 210.16013 
Q 415.360705 209.483955 416.796414 209.658984 
Q 418.228405 209.831341 419.670631 210.867909 
Q 422.027257 212.561683 422.158558 215.508479 
Q 422.28347 218.456321 420.079426 221.522909 
Q 417.875383 224.589497 415.044174 225.407054 
Q 412.209247 226.22194 409.85262 224.528166 
Q 408.410394 223.491598 407.79056 222.189249 
Q 407.164336 220.887947 407.325074 219.244665 
L 407.325074 219.244665 
z
M 417.871483 219.935998 
Q 419.565257 217.579371 419.559536 215.540228 
Q 419.553814 213.501084 417.858827 212.282849 
Q 416.163841 211.064614 414.225531 211.706528 
Q 412.283504 212.345771 410.58973 214.702397 
Q 408.895956 217.059024 408.909111 219.103511 
Q 408.918549 221.145326 410.613536 222.363561 
Q 412.308523 223.581796 414.243116 222.93721 
Q 416.177709 222.292625 417.871483 219.935998 
L 417.871483 219.935998 
z
M 395.402561 211.397182 
Q 397.119851 212.631446 399.08418 212.008233 
Q 401.04851 211.38502 402.726254 209.050696 
Q 404.403998 206.716372 404.375975 204.661199 
Q 404.344234 202.603354 402.615794 201.361075 
Q 400.905938 200.132154 398.942654 200.761756 
Q 396.972982 201.392403 395.303252 203.715576 
Q 393.641537 206.027598 393.66898 208.099265 
Q 393.692706 210.168261 395.402561 211.397182 
L 395.402561 211.397182 
z
M 394.101508 213.207398 
Q 391.3137 211.203723 391.026516 208.246359 
Q 390.732944 205.29004 393.035835 202.08592 
Q 395.330712 198.892951 398.234406 198.217686 
Q 401.131711 197.543466 403.919518 199.547142 
Q 406.718477 201.558832 406.999272 204.517242 
Q 407.273679 207.476697 404.978803 210.669666 
Q 402.675911 213.873786 399.791383 214.545915 
Q 396.900467 215.219089 394.101508 213.207398 
L 394.101508 213.207398 
z
M 381.170251 211.123329 
L 379.032932 209.587177 
L 392.024764 191.511033 
L 394.162083 193.047185 
L 381.170251 211.123329 
L 381.170251 211.123329 
z
M 374.238456 196.185945 
Q 375.955745 197.420209 377.920075 196.796996 
Q 379.884404 196.173783 381.562149 193.839459 
Q 383.239893 191.505134 383.21187 189.449961 
Q 383.180129 187.392116 381.451688 186.149838 
Q 379.741833 184.920917 377.778549 185.550518 
Q 375.808876 186.181165 374.139147 188.504338 
Q 372.477432 190.81636 372.504875 192.888028 
Q 372.528601 194.957024 374.238456 196.185945 
L 374.238456 196.185945 
z
M 372.937403 197.996161 
Q 370.149595 195.992485 369.862411 193.035121 
Q 369.568839 190.078802 371.87173 186.874682 
Q 374.166606 183.681713 377.0703 183.006448 
Q 379.967606 182.332229 382.755413 184.335904 
Q 385.554372 186.347595 385.835167 189.306004 
Q 386.109574 192.26546 383.814697 195.458429 
Q 381.511806 198.662549 378.627278 199.334677 
Q 375.736361 200.007851 372.937403 197.996161 
L 372.937403 197.996161 
z
M 357.543892 183.431706 
Q 357.754841 183.899005 358.109127 184.300207 
Q 358.460741 184.705127 358.969981 185.071132 
Q 360.783914 186.374857 362.600958 185.893823 
Q 364.418002 185.412789 366.004913 183.204845 
L 370.931284 176.350556 
L 373.079754 177.894722 
L 363.729268 190.90449 
L 361.580797 189.360324 
L 363.03413 187.338234 
Q 361.505392 188.037756 360.016018 187.835432 
Q 358.520256 187.634152 356.973952 186.52278 
Q 356.754645 186.365158 356.508388 186.143068 
Q 356.259459 185.924696 355.978819 185.632796 
L 357.543892 183.431706 
L 357.543892 183.431706 
z
M 347.563803 170.232561 
L 348.314513 169.188062 
L 358.142464 176.251687 
Q 359.588126 173.942224 359.229519 171.931311 
Q 358.870912 169.920399 356.744744 168.392262 
Q 355.514392 167.507973 354.141984 166.978199 
Q 352.769576 166.448425 351.192968 166.234137 
L 352.646301 164.212047 
Q 354.14857 164.553296 355.540958 165.165077 
Q 356.933346 165.776859 358.17485 166.669162 
Q 361.28976 168.907936 361.806357 172.024549 
Q 362.320283 175.144878 360.097539 178.237486 
Q 357.802662 181.430455 354.731468 182.064254 
Q 351.657603 182.701771 348.728547 180.596576 
Q 346.104291 178.710449 345.792135 175.921165 
Q 345.477309 173.135598 347.563803 170.232561 
L 347.563803 170.232561 
z
M 349.249627 172.396898 
Q 348.013621 174.163671 348.221917 175.897434 
Q 348.42754 177.634914 350.007298 178.77033 
Q 351.795212 180.055354 353.596113 179.816392 
Q 355.397015 179.57743 356.88032 177.858743 
L 349.249627 172.396898 
L 349.249627 172.396898 
z
" clip-path="url(#p3200e49c62)" style="fill: none; stroke: #000000; stroke-width: 0.35; stroke-linejoin: miter"/>
   </g>
   <g id="patch_19">
    <path d="M 317.263721 190.299942 
Q 315.910783 191.838613 314.378289 192.375347 
Q 312.845795 192.91208 311.015009 192.515577 
Q 308.548407 191.981372 307.583179 189.964248 
Q 306.616973 187.951632 307.306459 184.768048 
L 309.370032 175.239842 
L 311.976423 175.804322 
L 309.931405 185.246851 
Q 309.440171 187.515042 310.010024 188.785621 
Q 310.574392 190.059733 312.220296 190.416195 
Q 314.235965 190.852739 315.698442 189.767387 
Q 317.155434 188.685568 317.656434 186.372284 
L 319.588165 177.452837 
L 322.194556 178.017317 
L 320.149538 187.459845 
Q 319.655374 189.741564 320.221695 191.006658 
Q 320.788015 192.271751 322.465485 192.635049 
Q 324.454097 193.065733 325.917552 191.975873 
Q 327.376496 190.885035 327.874567 188.585279 
L 329.806298 179.665832 
L 332.412689 180.230311 
L 328.994559 196.012953 
L 326.388169 195.448473 
L 326.919444 192.9954 
Q 325.716638 194.255011 324.327153 194.67637 
Q 322.937667 195.09773 321.233142 194.728572 
Q 319.510579 194.355507 318.496051 193.219944 
Q 317.480546 192.088889 317.263721 190.299942 
L 317.263721 190.299942 
z
M 295.308462 180.498403 
Q 298.451462 181.179099 299.819751 180.724824 
Q 301.188041 180.270549 301.564035 178.534459 
Q 301.862877 177.154605 301.127783 176.145651 
Q 300.391712 175.141207 298.831485 174.8033 
Q 296.671518 174.335505 295.037252 175.581927 
Q 293.402987 176.828348 292.854133 179.36259 
L 292.729127 179.939783 
L 295.308462 180.498403 
L 295.308462 180.498403 
z
M 289.903832 180.451453 
L 291.854119 171.446329 
L 294.446981 172.007879 
L 293.928402 174.402331 
Q 295.127301 173.160757 296.601487 172.762462 
Q 298.075674 172.364168 299.992137 172.779226 
Q 302.413645 173.303665 303.552675 174.976043 
Q 304.687196 176.647444 304.193032 178.929163 
Q 303.616833 181.589666 301.542667 182.556703 
Q 299.463991 183.522764 295.928679 182.757103 
L 292.289653 181.96898 
L 292.233987 182.226012 
Q 291.846273 184.016214 292.811283 185.249633 
Q 293.776293 186.483051 295.904695 186.94401 
Q 297.257493 187.236993 298.612967 187.190655 
Q 299.963931 187.14334 301.286006 186.749869 
L 300.76645 189.14883 
Q 299.226867 189.391336 297.829 189.371843 
Q 296.430157 189.356859 295.163037 189.082432 
Q 291.735949 188.34021 290.429735 186.197307 
Q 289.122545 184.058914 289.903832 180.451453 
L 289.903832 180.451453 
z
M 274.381557 176.11722 
Q 273.771176 178.935549 274.599606 180.734213 
Q 275.422549 182.53641 277.523895 182.991509 
Q 279.607204 183.442702 281.106563 182.143459 
Q 282.604946 180.848725 283.215327 178.030396 
Q 283.822777 175.225596 282.995324 173.422422 
Q 282.167871 171.619249 280.084563 171.168056 
Q 277.983217 170.712957 276.488367 172.013176 
Q 274.989007 173.31242 274.381557 176.11722 
L 274.381557 176.11722 
z
M 273.113952 169.436515 
Q 273.986063 165.409687 276.202067 163.831334 
Q 278.413561 162.252005 282.106699 163.051847 
Q 283.473025 163.34776 284.642086 163.813387 
Q 285.811148 164.279014 286.860206 164.949973 
L 286.314282 167.470686 
Q 285.307218 166.605827 284.256894 166.071498 
Q 283.207547 165.53266 282.053159 165.282649 
Q 279.50088 164.729888 277.94566 165.785713 
Q 276.39044 166.841537 275.807405 169.533604 
L 275.529072 170.818762 
Q 276.63448 169.594708 278.037494 169.176278 
Q 279.440508 168.757848 281.190126 169.136772 
Q 284.089623 169.764731 285.387759 172.359085 
Q 286.684919 174.957948 285.893866 178.610502 
Q 285.10086 182.272075 282.845648 184.096861 
Q 280.589458 185.926156 277.689962 185.298197 
Q 275.940343 184.919273 274.836172 183.957849 
Q 273.732 182.996425 273.231112 181.429207 
L 272.712533 183.823659 
L 270.11967 183.262109 
L 273.113952 169.436515 
L 273.113952 169.436515 
z
M 253.010791 173.00895 
L 255.074364 163.480744 
L 257.667227 164.042294 
L 255.622209 173.484823 
Q 255.136834 175.725958 255.771398 177.024714 
Q 256.404985 178.32798 258.150094 178.705927 
Q 260.25144 179.161027 261.754501 178.084465 
Q 263.256586 177.012412 263.757586 174.699128 
L 265.689318 165.779681 
L 268.295708 166.34416 
L 264.877579 182.126802 
L 262.271188 181.562322 
L 262.802463 179.109249 
Q 261.560425 180.332038 260.149972 180.763019 
Q 258.73501 181.193023 257.084596 180.835585 
Q 254.365473 180.24669 253.336366 178.262939 
Q 252.30275 176.278212 253.010791 173.00895 
L 253.010791 173.00895 
z
M 241.013357 168.739428 
Q 244.156358 169.420124 245.524647 168.965849 
Q 246.892936 168.511573 247.268931 166.775483 
Q 247.567773 165.395629 246.832679 164.386675 
Q 246.096608 163.382231 244.536381 163.044325 
Q 242.376414 162.576529 240.742148 163.822951 
Q 239.107883 165.069373 238.559029 167.603614 
L 238.434023 168.180808 
L 241.013357 168.739428 
L 241.013357 168.739428 
z
M 235.608727 168.692477 
L 237.559014 159.687353 
L 240.151877 160.248903 
L 239.633298 162.643355 
Q 240.832197 161.401781 242.306383 161.003487 
Q 243.780569 160.605192 245.697033 161.020251 
Q 248.118541 161.544689 249.257571 163.217067 
Q 250.392092 164.888469 249.897928 167.170188 
Q 249.321729 169.83069 247.247562 170.797727 
Q 245.168887 171.763788 241.633575 170.998127 
L 237.994549 170.210004 
L 237.938882 170.467036 
Q 237.551169 172.257238 238.516179 173.490657 
Q 239.481189 174.724076 241.609591 175.185035 
Q 242.962389 175.478017 244.317862 175.431679 
Q 245.668827 175.384364 246.990902 174.990893 
L 246.471346 177.389854 
Q 244.931762 177.632361 243.533896 177.612867 
Q 242.135053 177.597884 240.867932 177.323457 
Q 237.440844 176.581234 236.134631 174.438332 
Q 234.827441 172.299938 235.608727 168.692477 
L 235.608727 168.692477 
z
" clip-path="url(#p3200e49c62)" style="fill: none; stroke: #000000; stroke-width: 0.35; stroke-linejoin: miter"/>
   </g>
   <g id="patch_20">
    <path d="M 221.357247 187.151719 
Q 223.847955 186.596591 224.682582 185.814163 
Q 225.517209 185.031735 225.210574 183.655949 
Q 224.966859 182.562468 224.101656 182.080127 
Q 223.23725 181.60136 222.000829 181.876933 
Q 220.289138 182.258435 219.526403 183.700016 
Q 218.763669 185.141598 219.211276 187.149887 
L 219.313222 187.607291 
L 221.357247 187.151719 
L 221.357247 187.151719 
z
M 217.448034 188.915738 
L 215.857514 181.77952 
L 217.912259 181.321559 
L 218.335176 183.219071 
Q 218.785877 181.925806 219.715416 181.148481 
Q 220.644955 180.371156 222.163679 180.032663 
Q 224.082632 179.604967 225.459525 180.430883 
Q 226.832844 181.257594 227.23585 183.06577 
Q 227.705758 185.174116 226.533174 186.560757 
Q 225.357016 187.948193 222.555416 188.572614 
L 219.671627 189.215352 
L 219.717025 189.41904 
Q 220.033217 190.837707 221.138723 191.405276 
Q 222.244229 191.972844 223.930907 191.596917 
Q 225.002947 191.357981 225.964041 190.873702 
Q 226.921562 190.390219 227.743121 189.666968 
L 228.166835 191.568054 
Q 227.13836 192.2549 226.124827 192.705855 
Q 225.11209 193.160384 224.107945 193.384188 
Q 221.392109 193.989493 219.738255 192.880217 
Q 218.085197 191.774514 217.448034 188.915738 
L 217.448034 188.915738 
z
M 215.500131 200.100204 
L 213.445386 200.558165 
L 209.572228 183.180384 
L 211.626973 182.722423 
L 215.500131 200.100204 
L 215.500131 200.100204 
z
M 208.060489 196.645761 
L 206.005744 197.103722 
L 203.218153 184.59658 
L 205.272898 184.138618 
L 208.060489 196.645761 
L 208.060489 196.645761 
z
M 209.146056 201.516399 
L 207.091311 201.97436 
L 206.510696 199.369301 
L 208.565441 198.91134 
L 209.146056 201.516399 
L 209.146056 201.516399 
z
M 199.080956 192.071645 
Q 198.576004 189.806065 197.355808 188.723918 
Q 196.135613 187.64177 194.506111 188.004953 
Q 192.876609 188.368136 192.22788 189.86683 
Q 191.575577 191.36632 192.08053 193.631899 
Q 192.585482 195.897479 193.812824 196.978034 
Q 195.036593 198.059385 196.666095 197.696202 
Q 198.295597 197.333018 198.940752 195.835121 
Q 199.585908 194.337224 199.080956 192.071645 
L 199.080956 192.071645 
z
M 191.107262 189.26512 
Q 191.505566 188.006039 192.374356 187.242254 
Q 193.239573 186.479265 194.626079 186.170241 
Q 196.891658 185.665289 198.720478 187.155679 
Q 200.546522 188.650439 201.203596 191.598551 
Q 201.860671 194.546663 200.841437 196.671827 
Q 199.818628 198.797788 197.553049 199.30274 
Q 196.166543 199.611765 195.059204 199.288419 
Q 193.949089 198.969443 193.053797 197.998679 
L 193.476714 199.896191 
L 191.421969 200.354152 
L 187.574298 183.090722 
L 189.629043 182.632761 
L 191.107262 189.26512 
L 191.107262 189.26512 
z
M 185.712343 193.67838 
L 187.40003 201.250562 
L 185.345285 201.708523 
L 183.67512 194.214958 
Q 183.279282 192.438944 182.391285 191.702866 
Q 181.500512 190.971157 180.114006 191.280182 
Q 178.452342 191.650533 177.724053 192.926896 
Q 176.992189 194.204056 177.400771 196.037245 
L 178.980936 203.127008 
L 176.926191 203.58497 
L 174.138601 191.077827 
L 176.193346 190.619866 
L 176.621838 192.542392 
Q 177.114624 191.235997 177.981025 190.461491 
Q 178.843852 189.687782 180.151742 189.39628 
Q 182.306544 188.916018 183.72371 190.006778 
Q 185.137303 191.098335 185.712343 193.67838 
L 185.712343 193.67838 
z
M 182.296122 202.703203 
L 182.296122 202.703203 
L 182.296122 202.703203 
z
M 165.622294 199.57392 
Q 168.113002 199.018791 168.947629 198.236363 
Q 169.782256 197.453935 169.475621 196.07815 
Q 169.231906 194.984668 168.366703 194.502327 
Q 167.502297 194.02356 166.265877 194.299133 
Q 164.554185 194.680635 163.79145 196.122217 
Q 163.028716 197.563798 163.476323 199.572088 
L 163.578269 200.029492 
L 165.622294 199.57392 
L 165.622294 199.57392 
z
M 161.713081 201.337939 
L 160.122561 194.201721 
L 162.177306 193.743759 
L 162.600223 195.641272 
Q 163.050924 194.348007 163.980463 193.570682 
Q 164.910002 192.793357 166.428726 192.454864 
Q 168.347679 192.027168 169.724572 192.853083 
Q 171.097891 193.679795 171.500897 195.48797 
Q 171.970805 197.596317 170.798221 198.982957 
Q 169.622063 200.370394 166.820464 200.994814 
L 163.936674 201.637553 
L 163.982072 201.841241 
Q 164.298264 203.259908 165.40377 203.827476 
Q 166.509276 204.395044 168.195954 204.019118 
Q 169.267995 203.780182 170.229089 203.295902 
Q 171.186609 202.812419 172.008169 202.089169 
L 172.431882 203.990254 
Q 171.403407 204.677101 170.389874 205.128056 
Q 169.377137 205.582584 168.372992 205.806388 
Q 165.657156 206.411694 164.003302 205.302417 
Q 162.350244 204.196714 161.713081 201.337939 
L 161.713081 201.337939 
z
" clip-path="url(#p3200e49c62)" style="fill: none; stroke: #000000; stroke-width: 0.35; stroke-linejoin: miter"/>
   </g>
   <g id="patch_21">
    <path d="M 164.403206 222.372661 
L 161.77614 223.876646 
L 155.061501 212.147935 
Q 153.285142 209.045101 151.382387 208.321712 
Q 149.477863 207.604829 146.954225 209.049601 
Q 144.447135 210.4849 144.101071 212.490236 
Q 143.757375 214.499709 145.533734 217.602542 
L 152.248372 229.331253 
L 149.625444 230.832869 
L 142.726064 218.781463 
Q 140.566011 215.008418 141.332274 212.009971 
Q 142.0944 209.013893 145.739195 206.927263 
Q 149.400539 204.831159 152.374224 205.6885 
Q 155.343773 206.54821 157.503826 210.321256 
L 164.403206 222.372661 
L 164.403206 222.372661 
z
M 142.067586 234.214906 
L 139.713317 230.102617 
L 134.814977 232.906897 
L 133.756267 231.057608 
L 138.654607 228.253328 
L 134.154497 220.392817 
Q 133.140788 218.622133 132.367791 218.394518 
Q 131.594795 218.166902 130.105434 219.019555 
L 127.664539 220.416957 
L 126.5253 218.427007 
L 128.966196 217.029604 
Q 131.721512 215.452197 133.355584 215.878975 
Q 134.992025 216.309891 136.545747 219.023836 
L 141.045857 226.884347 
L 142.791718 225.884849 
L 143.850429 227.734138 
L 142.104568 228.733636 
L 144.458836 232.845925 
L 142.067586 234.214906 
L 142.067586 234.214906 
z
" clip-path="url(#p3200e49c62)" style="fill: none; stroke: #000000; stroke-width: 0.35; stroke-linejoin: miter"/>
   </g>
   <g id="patch_22">
    <path d="M 115.252448 240.47481 
L 114.45737 239.463675 
L 123.9714 231.98259 
Q 122.153965 229.952691 120.122533 229.739031 
Q 118.091101 229.525371 116.032846 231.143821 
Q 114.841793 232.080371 113.951893 233.251799 
Q 113.061993 234.423226 112.418502 235.8784 
L 110.879277 233.920899 
Q 111.624106 232.572384 112.598336 231.404524 
Q 113.572567 230.236665 114.774415 229.291626 
Q 117.78983 226.920541 120.927367 227.289331 
Q 124.067734 227.66172 126.421843 230.655545 
Q 128.852347 233.746525 128.60876 236.87296 
Q 128.368003 240.002994 125.532505 242.232606 
Q 122.992072 244.230203 120.225748 243.755862 
Q 117.462254 243.28512 115.252448 240.47481 
L 115.252448 240.47481 
z
M 117.799676 239.455993 
Q 119.15394 241.133838 120.877391 241.414973 
Q 122.603672 241.699707 124.132969 240.497188 
Q 125.863774 239.136219 126.134084 237.339755 
Q 126.404394 235.543292 125.16497 233.641212 
L 117.799676 239.455993 
L 117.799676 239.455993 
z
M 102.005868 252.166162 
L 96.027224 244.562854 
L 98.096274 242.935916 
L 104.021158 250.470856 
Q 105.427398 252.259234 106.821524 252.595513 
Q 108.218479 252.93539 109.611039 251.84039 
Q 111.287869 250.521863 111.415476 248.69203 
Q 111.545912 246.865795 110.0944 245.019843 
L 104.497734 237.902312 
L 106.577578 236.266886 
L 116.480679 248.861101 
L 114.400834 250.496527 
L 112.86161 248.539026 
Q 113.01086 250.261802 112.448317 251.612563 
Q 111.882175 252.966153 110.56518 254.001734 
Q 108.395376 255.707897 106.228099 255.240016 
Q 104.057224 254.774964 102.005868 252.166162 
L 102.005868 252.166162 
z
M 101.805719 260.400335 
L 99.73667 262.027273 
L 89.833569 249.433058 
L 91.902619 247.80612 
L 101.805719 260.400335 
L 101.805719 260.400335 
z
M 105.66227 265.304883 
L 103.59322 266.931821 
L 101.530546 264.308626 
L 103.599595 262.681688 
L 105.66227 265.304883 
L 105.66227 265.304883 
z
M 83.700516 270.723646 
Q 84.021103 272.730968 83.462219 274.241901 
Q 82.903335 275.752834 81.442406 276.901593 
Q 79.47411 278.449307 77.321718 277.911488 
Q 75.172157 277.377269 73.17456 274.836835 
L 67.195916 267.233528 
L 69.275761 265.598101 
L 75.200645 273.13304 
Q 76.623862 274.943009 77.955524 275.310935 
Q 79.286418 275.685288 80.599814 274.652536 
Q 82.208276 273.387769 82.303497 271.583401 
Q 82.39795 269.78546 80.946438 267.939508 
L 75.349771 260.821977 
L 77.429616 259.186551 
L 83.3545 266.72149 
Q 84.786205 268.542254 86.11144 268.909411 
Q 87.436674 269.276567 88.775259 268.224009 
Q 90.36213 266.976218 90.454522 265.168252 
Q 90.543316 263.363115 89.100293 261.527958 
L 83.503626 254.410427 
L 85.583471 252.775001 
L 95.486572 265.369216 
L 93.406727 267.004642 
L 91.867502 265.047142 
Q 92.069713 266.763212 91.513074 268.09186 
Q 90.956436 269.420508 89.596261 270.490043 
Q 88.221692 271.570896 86.712019 271.628282 
Q 85.205175 271.689266 83.700516 270.723646 
L 83.700516 270.723646 
z
" clip-path="url(#p3200e49c62)" style="fill: none; stroke: #000000; stroke-width: 0.35; stroke-linejoin: miter"/>
   </g>
   <g id="patch_23">
    <path d="M 69.589786 293.029509 
Q 71.412124 290.410598 71.51801 288.984144 
Q 71.623896 287.55769 70.177295 286.551089 
Q 69.02753 285.751038 67.823059 286.039416 
Q 66.622345 286.330408 65.717712 287.630469 
Q 64.465345 289.430266 64.983501 291.402486 
Q 65.501657 293.374707 67.613318 294.844082 
L 68.094266 295.178744 
L 69.589786 293.029509 
L 69.589786 293.029509 
z
M 67.485164 297.961513 
L 59.981629 292.740265 
L 61.484993 290.579758 
L 63.480174 291.968081 
Q 62.800385 290.396447 62.997936 288.89436 
Q 63.195487 287.392272 64.306669 285.795375 
Q 65.71068 283.77765 67.676842 283.372388 
Q 69.640389 282.970884 71.541635 284.293844 
Q 73.758503 285.836426 73.852979 288.104964 
Q 73.94484 290.37726 71.895036 293.323064 
L 69.785098 296.355289 
L 69.99927 296.504318 
Q 71.490959 297.542293 72.988712 297.128967 
Q 74.486465 296.715641 75.72053 294.942146 
Q 76.504894 293.814925 76.979507 292.555818 
Q 77.451505 291.300468 77.595449 289.939534 
L 79.594388 291.330472 
Q 79.22921 292.833029 78.678134 294.10585 
Q 78.130815 295.381287 77.396128 296.437117 
Q 75.409073 299.292744 72.948201 299.671639 
Q 70.491087 300.053149 67.485164 297.961513 
L 67.485164 297.961513 
z
M 62.020766 313.604448 
L 69.137289 318.556398 
L 67.633925 320.716905 
L 49.361671 308.002369 
L 50.865035 305.841862 
L 52.837672 307.214498 
Q 52.138595 305.71867 52.291698 304.280458 
Q 52.442188 302.846004 53.456631 301.388131 
Q 55.114253 299.005937 58.058703 298.829693 
Q 61.004296 298.659821 64.104154 300.816821 
Q 67.204012 302.973822 68.064669 305.792229 
Q 68.922712 308.614393 67.26509 310.996587 
Q 66.250646 312.454459 64.957906 313.094092 
Q 63.666309 313.740096 62.020766 313.604448 
L 62.020766 313.604448 
z
M 62.551114 303.048719 
Q 60.16892 301.391097 58.130101 301.427929 
Q 56.091282 301.46476 54.899049 303.178136 
Q 53.706816 304.891512 54.378228 306.819803 
Q 55.047025 308.751851 57.429219 310.409473 
Q 59.811413 312.067095 61.855461 312.022749 
Q 63.896895 311.98216 65.089128 310.268784 
Q 66.281361 308.555408 65.607334 306.630875 
Q 64.933308 304.706341 62.551114 303.048719 
L 62.551114 303.048719 
z
" clip-path="url(#p3200e49c62)" style="fill: none; stroke: #000000; stroke-width: 0.35; stroke-linejoin: miter"/>
   </g>
   <g id="patch_24">
    <path d="M 53.308371 332.818204 
Q 54.480613 334.525265 54.626625 336.159887 
Q 54.772637 337.794509 53.930299 339.490063 
Q 52.795426 341.774468 50.579732 342.220193 
Q 48.368215 342.667993 45.419787 341.203239 
L 36.595386 336.81935 
L 37.794576 334.405481 
L 46.539628 338.749951 
Q 48.640279 339.793537 50.026481 339.550147 
Q 51.414785 339.313008 52.172059 337.788679 
Q 53.09946 335.921899 52.398544 334.219883 
Q 51.699729 332.524118 49.557317 331.459785 
L 41.296708 327.355983 
L 42.495898 324.942115 
L 51.240951 329.286585 
Q 53.354129 330.336394 54.734081 330.095106 
Q 56.114032 329.853818 56.885829 328.300255 
Q 57.800782 326.458532 57.09569 324.754442 
Q 56.388522 323.054527 54.258639 321.996419 
L 45.99803 317.892617 
L 47.19722 315.478748 
L 61.81407 322.740279 
L 60.61488 325.154147 
L 58.343004 324.025498 
Q 59.279034 325.516278 59.34745 326.982178 
Q 59.415867 328.448077 58.631621 330.026697 
Q 57.839077 331.622022 56.474935 332.334582 
Q 55.114969 333.049218 53.308371 332.818204 
L 53.308371 332.818204 
z
M 48.833826 348.86842 
L 47.64086 351.26976 
L 33.02401 344.00823 
L 34.216976 341.60689 
L 48.833826 348.86842 
L 48.833826 348.86842 
z
M 54.526045 351.696268 
L 53.333079 354.097607 
L 50.288598 352.585134 
L 51.481564 350.183795 
L 54.526045 351.696268 
L 54.526045 351.696268 
z
M 33.314817 365.569528 
L 24.490415 361.185639 
L 25.683381 358.784299 
L 34.428434 363.128769 
Q 36.504026 364.159906 37.933878 363.860097 
Q 39.367907 363.562362 40.170824 361.946156 
Q 41.137645 360.000027 40.455401 358.260425 
Q 39.777334 356.522898 37.634921 355.458565 
L 29.374313 351.354763 
L 30.573503 348.940895 
L 45.190353 356.202425 
L 43.991163 358.616293 
L 41.719287 357.487644 
Q 42.609512 359.007739 42.682158 360.496567 
Q 42.75273 361.989572 41.993381 363.518077 
Q 40.742323 366.036351 38.543495 366.552939 
Q 36.342593 367.073702 33.314817 365.569528 
L 33.314817 365.569528 
z
M 36.729114 373.234187 
L 35.536149 375.635527 
L 20.919299 368.373997 
L 22.112264 365.972657 
L 36.729114 373.234187 
L 36.729114 373.234187 
z
M 42.421333 376.062035 
L 41.228368 378.463374 
L 38.183887 376.950901 
L 39.376852 374.549562 
L 42.421333 376.062035 
L 42.421333 376.062035 
z
M 24.579943 390.646117 
Q 25.752185 392.353178 25.898196 393.9878 
Q 26.044208 395.622422 25.201871 397.317977 
Q 24.066997 399.602382 21.851304 400.048107 
Q 19.639786 400.495907 16.691359 399.031152 
L 7.866957 394.647263 
L 9.066147 392.233395 
L 17.8112 396.577864 
Q 19.91185 397.62145 21.298052 397.37806 
Q 22.686356 397.140921 23.44363 395.616593 
Q 24.371031 393.749812 23.670115 392.047796 
Q 22.971301 390.352031 20.828888 389.287698 
L 12.56828 385.183897 
L 13.767469 382.770028 
L 22.512522 387.114498 
Q 24.625701 388.164308 26.005652 387.923019 
Q 27.385604 387.681731 28.157401 386.128169 
Q 29.072354 384.286446 28.367261 382.582355 
Q 27.660094 380.882441 25.53021 379.824332 
L 17.269602 375.72053 
L 18.468791 373.306662 
L 33.085642 380.568192 
L 31.886452 382.98206 
L 29.614576 381.853411 
Q 30.550605 383.344192 30.619022 384.810091 
Q 30.687438 386.27599 29.903193 387.85461 
Q 29.110649 389.449935 27.746507 390.162496 
Q 26.386541 390.877131 24.579943 390.646117 
L 24.579943 390.646117 
z
" clip-path="url(#p3200e49c62)" style="fill: none; stroke: #000000; stroke-width: 0.35; stroke-linejoin: miter"/>
   </g>
  </g>
 </g>
 <defs>
  <clipPath id="p3200e49c62">
   <rect x="0" y="0" width="595.275591" height="841.889764"/>
  </clipPath>
 </defs>
</svg>
