<?xml version="1.0" encoding="utf-8" standalone="no"?>
<!DOCTYPE svg PUBLIC "-//W3C//DTD SVG 1.1//EN"
  "http://www.w3.org/Graphics/SVG/1.1/DTD/svg11.dtd">
<svg xmlns:xlink="http://www.w3.org/1999/xlink" width="575.770356pt" height="424.8pt" viewBox="0 0 575.770356 424.8" xmlns="http://www.w3.org/2000/svg" version="1.1">
 <metadata>
  <rdf:RDF xmlns:dc="http://purl.org/dc/elements/1.1/" xmlns:cc="http://creativecommons.org/ns#" xmlns:rdf="http://www.w3.org/1999/02/22-rdf-syntax-ns#">
   <cc:Work>
    <dc:type rdf:resource="http://purl.org/dc/dcmitype/StillImage"/>
    <dc:date>2025-10-21T14:22:09.161225</dc:date>
    <dc:format>image/svg+xml</dc:format>
    <dc:creator>
     <cc:Agent>
      <dc:title>Matplotlib v3.10.6, https://matplotlib.org/</dc:title>
     </cc:Agent>
    </dc:creator>
   </cc:Work>
  </rdf:RDF>
 </metadata>
 <defs>
  <style type="text/css">*{stroke-linejoin: round; stroke-linecap: butt}</style>
 </defs>
 <g id="figure_1">
  <g id="patch_1">
   <path d="M 0 424.8 
L 575.770356 424.8 
L 575.770356 0 
L 0 0 
z
" style="fill: #ffffff"/>
  </g>
  <g id="axes_1">
   <g id="line2d_1">
    <path d="M 400.066962 210.58249 
L 407.262654 203.012354 
L 414.3098 195.276651 
L 421.185976 187.400813 
L 428.019423 179.234087 
L 434.836841 170.737637 
L 442.049529 161.385669 
L 457.874348 140.684233 
L 460.416627 137.848067 
L 462.385122 135.972312 
L 463.961645 134.761038 
L 465.337326 133.975779 
L 466.586157 133.517337 
L 467.824778 133.302291 
L 469.960181 133.038673 
L 470.527248 132.651165 
L 471.086497 131.840534 
L 471.603251 130.546 
L 472.213711 128.288813 
L 473.044482 124.229595 
L 474.05133 118.176816 
L 474.75974 112.667655 
L 475.093459 108.457907 
L 475.149429 105.093628 
L 474.982376 102.385691 
L 474.63556 100.192974 
L 474.140129 98.404799 
L 473.518117 96.940202 
L 472.743577 95.677289 
L 471.790333 94.561733 
L 470.093998 92.72554 
L 470.106599 92.714535 
L 470.401405 92.62767 
L 472.526321 92.440767 
L 474.864025 92.101676 
L 476.864339 91.591365 
L 478.935879 90.833097 
L 480.242151 90.239238 
L 480.242151 90.239238 
" clip-path="url(#p8cf1e7c097)" style="fill: none; stroke: #000000; stroke-width: 0.8; stroke-linecap: square"/>
   </g>
   <g id="line2d_2">
    <path d="M 396.581474 175.193734 
L 404.554823 164.671652 
L 412.699286 153.55181 
L 423.656904 138.167014 
L 431.557231 127.225469 
L 435.884107 121.602771 
L 439.215694 117.620821 
L 442.063982 114.549658 
L 444.605596 112.125715 
L 446.955501 110.183823 
L 449.173666 108.631051 
L 451.323022 107.392342 
L 453.420608 106.441776 
L 455.489797 105.75209 
L 457.629202 105.277786 
L 460.062756 104.978345 
L 463.499534 104.812144 
L 467.854151 104.573895 
L 470.188414 104.229201 
L 472.369667 103.685493 
L 474.597287 102.883577 
L 476.939864 101.788933 
L 479.934393 100.119846 
L 485.826752 96.770157 
L 487.775815 95.942339 
L 489.187437 95.57181 
L 490.06067 95.505054 
L 489.931384 95.363947 
L 489.31358 94.602648 
L 488.634463 93.403983 
L 487.843752 91.539338 
L 486.767016 88.341256 
L 484.292294 80.803416 
L 482.702296 76.809866 
L 482.227386 75.711012 
L 482.227386 75.711012 
" clip-path="url(#p8cf1e7c097)" style="fill: none; stroke: #000000; stroke-width: 0.8; stroke-linecap: square"/>
   </g>
   <g id="line2d_3">
    <path d="M 386.258955 141.164949 
L 391.307607 132.856122 
L 396.099899 124.543837 
L 400.613285 116.271706 
L 404.78755 108.158472 
L 408.542962 100.379796 
L 411.856457 93.010231 
L 414.634415 86.302431 
L 416.924115 80.20212 
L 418.727309 74.776432 
L 420.116504 69.900864 
L 421.151711 65.467667 
L 421.891292 61.328156 
L 422.358711 57.460179 
L 422.584013 53.743315 
L 422.573074 50.282289 
L 422.344062 47.067807 
L 421.906204 44.038776 
L 421.428779 41.80972 
L 421.428779 41.80972 
" clip-path="url(#p8cf1e7c097)" style="fill: none; stroke: #000000; stroke-width: 0.8; stroke-linecap: square"/>
   </g>
   <g id="line2d_4">
    <path d="M 369.496094 109.803841 
L 373.09838 102.106194 
L 376.380895 94.571448 
L 379.306916 87.305817 
L 381.87799 80.336238 
L 384.095304 73.688414 
L 385.927054 67.501467 
L 387.3787 61.827405 
L 388.464669 56.700028 
L 389.200935 52.182156 
L 389.632912 48.179023 
L 389.790142 44.689651 
L 389.708458 41.665334 
L 389.420774 39.060197 
L 388.956548 36.832435 
L 388.340742 34.942797 
L 387.595314 33.353761 
L 386.723806 32.00781 
L 386.636805 31.894203 
L 386.636805 31.894203 
" clip-path="url(#p8cf1e7c097)" style="fill: none; stroke: #000000; stroke-width: 0.8; stroke-linecap: square"/>
   </g>
   <g id="line2d_5">
    <path d="M 346.937077 82.3156 
L 349.30454 75.342928 
L 351.368541 68.578385 
L 353.132491 62.041524 
L 354.583264 55.824084 
L 355.731242 49.939463 
L 356.577845 44.456316 
L 357.142294 39.363716 
L 357.48693 34.173706 
L 357.746094 31.358593 
L 358.00807 30.716554 
L 358.333986 30.470162 
L 358.720315 30.410655 
L 358.720315 30.410655 
" clip-path="url(#p8cf1e7c097)" style="fill: none; stroke: #000000; stroke-width: 0.8; stroke-linecap: square"/>
   </g>
   <g id="line2d_6">
    <path d="M 319.448836 59.756583 
L 320.714271 53.840623 
L 321.670513 48.328372 
L 322.323722 43.290834 
L 322.683137 38.829214 
L 322.767067 35.122215 
L 322.621232 32.340544 
L 322.333059 30.653211 
L 322.033502 29.997704 
L 321.824227 29.946217 
L 321.645004 30.16346 
L 321.432354 30.826412 
L 321.222814 32.285882 
L 321.149447 33.280883 
L 321.149447 33.280883 
" clip-path="url(#p8cf1e7c097)" style="fill: none; stroke: #000000; stroke-width: 0.8; stroke-linecap: square"/>
   </g>
   <g id="line2d_7">
    <path d="M 288.087728 42.993722 
L 288.370259 38.743044 
L 288.391196 35.189829 
L 288.197098 32.491473 
L 287.868861 30.763259 
L 287.5232 29.967746 
L 287.249554 29.79044 
L 287.0384 29.902245 
L 286.803778 30.314874 
L 286.54574 31.269093 
L 286.32375 33.011885 
L 286.217151 35.724439 
L 286.301608 39.555997 
L 286.513363 43.108936 
L 286.513363 43.108936 
" clip-path="url(#p8cf1e7c097)" style="fill: none; stroke: #000000; stroke-width: 0.8; stroke-linecap: square"/>
   </g>
   <g id="line2d_8">
    <path d="M 254.058942 32.671202 
L 253.719193 30.800171 
L 253.336149 29.797457 
L 253.000088 29.447924 
L 252.742646 29.457892 
L 252.490935 29.711544 
L 252.213416 30.3463 
L 251.94747 31.561139 
L 251.770704 33.465078 
L 251.760574 36.052616 
L 251.974718 39.216584 
L 252.444376 42.810843 
L 253.175893 46.670172 
L 254.157179 50.643354 
L 255.369866 54.620292 
L 256.787 58.502913 
L 256.862325 58.692215 
L 256.862325 58.692215 
" clip-path="url(#p8cf1e7c097)" style="fill: none; stroke: #000000; stroke-width: 0.8; stroke-linecap: square"/>
   </g>
   <g id="line2d_9">
    <path d="M 218.670187 29.185714 
L 218.373284 29.380609 
L 218.04128 29.893755 
L 217.683992 30.889307 
L 217.344488 32.535545 
L 217.089264 34.931364 
L 216.985726 38.070018 
L 217.086668 41.937794 
L 217.433741 46.474477 
L 218.050601 51.574779 
L 218.964257 57.242265 
L 220.184028 63.391364 
L 221.732807 70.038044 
L 223.623145 77.154854 
L 225.196823 82.543676 
L 225.196823 82.543676 
" clip-path="url(#p8cf1e7c097)" style="fill: none; stroke: #000000; stroke-width: 0.8; stroke-linecap: square"/>
   </g>
   <g id="line2d_10">
    <path d="M 183.281432 32.671202 
L 183.043696 35.294107 
L 182.970654 38.635239 
L 183.110575 42.695116 
L 183.4978 47.367261 
L 184.158609 52.621253 
L 185.1154 58.427671 
L 186.386609 64.758901 
L 187.986586 71.590105 
L 189.943844 78.966351 
L 192.317164 87.027755 
L 195.163073 95.886671 
L 198.606042 105.856631 
L 200.734482 111.749735 
L 200.734482 111.749735 
" clip-path="url(#p8cf1e7c097)" style="fill: none; stroke: #000000; stroke-width: 0.8; stroke-linecap: square"/>
   </g>
   <g id="line2d_11">
    <path d="M 149.252647 42.993722 
L 149.709444 47.662189 
L 150.441445 52.829702 
L 151.456033 58.398202 
L 152.77149 64.365139 
L 154.380549 70.625478 
L 156.298999 77.188368 
L 158.505535 83.9439 
L 161.015586 90.912645 
L 163.825423 98.055731 
L 166.929172 105.335273 
L 170.319193 112.714055 
L 173.944719 120.073043 
L 177.829854 127.452674 
L 181.865027 134.64387 
L 185.856857 141.339799 
L 185.856857 141.339799 
" clip-path="url(#p8cf1e7c097)" style="fill: none; stroke: #000000; stroke-width: 0.8; stroke-linecap: square"/>
   </g>
   <g id="line2d_12">
    <path d="M 117.891538 59.756583 
L 119.330908 65.825573 
L 121.063427 72.166207 
L 123.106158 78.789574 
L 125.436196 85.585184 
L 128.069825 92.575398 
L 131.002313 99.722333 
L 134.226086 106.990004 
L 137.730928 114.344692 
L 141.547588 121.837923 
L 145.67269 129.448062 
L 150.152021 137.24298 
L 154.990001 145.213733 
L 160.248361 153.447931 
L 166.129945 162.237383 
L 172.956004 172.023487 
L 175.568006 175.683607 
L 175.568006 175.683607 
" clip-path="url(#p8cf1e7c097)" style="fill: none; stroke: #000000; stroke-width: 0.8; stroke-linecap: square"/>
   </g>
   <g id="line2d_13">
    <path d="M 90.403297 82.3156 
L 92.995125 89.353263 
L 95.860527 96.491916 
L 99.017498 103.759632 
L 102.457725 111.118422 
L 106.171008 118.532063 
L 110.145651 125.965828 
L 114.318843 133.301086 
L 118.718887 140.587645 
L 123.330916 147.794145 
L 128.07798 154.801482 
L 132.997264 161.665611 
L 138.002804 168.267866 
L 143.065576 174.578735 
L 148.156168 180.570801 
L 153.244936 186.219055 
L 158.302233 191.501251 
L 163.298636 196.398268 
L 168.205202 200.894372 
L 172.903828 204.903517 
L 172.903828 204.903517 
" clip-path="url(#p8cf1e7c097)" style="fill: none; stroke: #000000; stroke-width: 0.8; stroke-linecap: square"/>
   </g>
   <g id="line2d_14">
    <path d="M 67.844281 109.803841 
L 71.501701 117.345083 
L 75.471483 125.019837 
L 79.751785 132.808317 
L 84.339551 140.691644 
L 89.230412 148.652291 
L 94.47967 156.766595 
L 100.027496 164.932529 
L 106.004323 173.330195 
L 112.426392 181.963102 
L 119.310291 190.841397 
L 126.838704 200.186458 
L 135.323372 210.358946 
L 145.433016 222.120444 
L 160.394146 239.142494 
L 175.385284 256.215388 
L 175.385284 256.215388 
" clip-path="url(#p8cf1e7c097)" style="fill: none; stroke: #000000; stroke-width: 0.8; stroke-linecap: square"/>
   </g>
   <g id="line2d_15">
    <path d="M 51.081419 141.164949 
L 56.055457 149.013418 
L 61.255219 156.803394 
L 66.72797 164.60186 
L 72.465428 172.38825 
L 78.458503 180.142685 
L 84.619408 187.751631 
L 91.008083 195.289645 
L 97.613551 202.738095 
L 104.335 209.983975 
L 111.241863 217.102397 
L 118.224683 223.980368 
L 125.258842 230.599011 
L 132.318906 236.938903 
L 139.378358 242.979592 
L 146.301451 248.613552 
L 153.051596 253.824942 
L 159.591881 258.597894 
L 165.884672 262.915818 
L 171.777177 266.690182 
L 177.113983 269.851895 
L 181.96814 272.473662 
L 183.310646 273.147746 
L 183.310646 273.147746 
" clip-path="url(#p8cf1e7c097)" style="fill: none; stroke: #000000; stroke-width: 0.8; stroke-linecap: square"/>
   </g>
   <g id="line2d_16">
    <path d="M 40.7589 175.193734 
L 46.886306 183.023553 
L 53.262629 190.809119 
L 59.878435 198.535473 
L 66.723671 206.188542 
L 73.787723 213.75522 
L 81.154627 221.319118 
L 88.725235 228.773121 
L 96.590243 236.202161 
L 104.642133 243.501451 
L 112.978567 250.757354 
L 121.598148 257.961915 
L 130.499652 265.10866 
L 139.682417 272.193073 
L 149.146867 279.21319 
L 159.023757 286.26029 
L 169.329775 293.337792 
L 180.08702 300.4555 
L 191.60819 307.809104 
L 202.652753 314.631898 
L 202.652753 314.631898 
" clip-path="url(#p8cf1e7c097)" style="fill: none; stroke: #000000; stroke-width: 0.8; stroke-linecap: square"/>
   </g>
   <g id="line2d_17">
    <path d="M 37.273412 210.58249 
L 44.57203 218.155787 
L 52.073505 225.621176 
L 59.867978 233.062576 
L 67.848994 240.373239 
L 76.004007 247.543011 
L 84.432809 254.655655 
L 93.016495 261.607383 
L 101.741303 268.389738 
L 110.716066 275.084687 
L 119.809841 281.592236 
L 129.136734 287.991861 
L 138.557689 294.18613 
L 148.055883 300.167533 
L 157.751517 306.009726 
L 167.492917 311.619138 
L 177.259286 316.986849 
L 187.028041 322.103202 
L 196.774431 326.957582 
L 206.471081 331.538188 
L 215.939124 335.76747 
L 223.063884 338.787402 
L 223.063884 338.787402 
" clip-path="url(#p8cf1e7c097)" style="fill: none; stroke: #000000; stroke-width: 0.8; stroke-linecap: square"/>
   </g>
   <g id="line2d_18">
    <path d="M 40.7589 245.971245 
L 49.221561 253.092096 
L 57.954525 260.149358 
L 66.954847 267.133953 
L 76.09585 273.946944 
L 85.491269 280.672874 
L 95.138258 287.304464 
L 105.034254 293.83512 
L 115.177186 300.259074 
L 125.42563 306.488142 
L 135.913054 312.605272 
L 146.787507 318.688801 
L 157.912721 324.655036 
L 169.295849 330.50601 
L 180.948792 336.246612 
L 193.051554 341.959887 
L 205.480608 347.582232 
L 218.453271 353.206362 
L 231.883718 358.787658 
L 245.897454 364.369504 
L 258.347723 369.129194 
L 258.347723 369.129194 
" clip-path="url(#p8cf1e7c097)" style="fill: none; stroke: #000000; stroke-width: 0.8; stroke-linecap: square"/>
   </g>
   <g id="line2d_19">
    <path d="M 51.081419 280.00003 
L 60.599269 286.473121 
L 70.22282 292.749702 
L 80.073979 298.908005 
L 90.00764 304.85653 
L 100.151236 310.671133 
L 110.353064 316.264769 
L 120.745516 321.71018 
L 131.320687 326.99831 
L 141.917106 332.048972 
L 152.672736 336.928615 
L 163.419605 341.561881 
L 174.297711 346.010037 
L 185.132079 350.202537 
L 196.062308 354.194408 
L 206.905144 357.91976 
L 217.795661 361.425977 
L 228.539327 364.65135 
L 239.096768 367.590158 
L 249.419516 370.23487 
L 259.444854 372.575186 
L 268.932541 374.566183 
L 277.184886 376.100574 
L 277.184886 376.100574 
" clip-path="url(#p8cf1e7c097)" style="fill: none; stroke: #000000; stroke-width: 0.8; stroke-linecap: square"/>
   </g>
   <g id="line2d_20">
    <path d="M 67.844281 311.361138 
L 78.256239 317.031799 
L 88.722251 322.480325 
L 99.380307 327.779041 
L 110.224876 332.920747 
L 121.093602 337.82954 
L 132.132061 342.572529 
L 143.334108 347.143586 
L 154.693365 351.536896 
L 166.203247 355.746991 
L 177.689543 359.712665 
L 189.30906 363.490853 
L 201.05516 367.077427 
L 212.921199 370.468661 
L 224.900588 373.661233 
L 236.986855 376.652235 
L 249.173717 379.439164 
L 261.455126 382.019909 
L 273.825327 384.39273 
L 286.278883 386.556216 
L 298.810709 388.509241 
L 311.416116 390.250895 
L 318.020644 391.075411 
L 318.020644 391.075411 
" clip-path="url(#p8cf1e7c097)" style="fill: none; stroke: #000000; stroke-width: 0.8; stroke-linecap: square"/>
   </g>
   <g id="line2d_21">
    <path d="M 90.403297 338.849379 
L 101.527299 343.519696 
L 112.812586 348.017823 
L 124.253005 352.338564 
L 135.84237 356.477014 
L 147.574541 360.428578 
L 159.443517 364.188991 
L 171.271228 367.704786 
L 183.221169 371.027626 
L 195.288791 374.154447 
L 207.47035 377.082543 
L 219.76322 379.809566 
L 232.166323 382.333506 
L 244.680706 384.652647 
L 257.310353 386.765481 
L 269.877574 388.644419 
L 282.577777 390.319895 
L 295.432014 391.789472 
L 308.279703 393.031997 
L 320.963137 394.035502 
L 333.529451 394.805731 
L 345.637001 395.324209 
L 356.706933 395.58192 
L 360.440263 395.614286 
L 360.440263 395.614286 
" clip-path="url(#p8cf1e7c097)" style="fill: none; stroke: #000000; stroke-width: 0.8; stroke-linecap: square"/>
   </g>
   <g id="line2d_22">
    <path d="M 117.891538 361.408396 
L 129.622584 365.009433 
L 141.473222 368.414492 
L 153.434677 371.618506 
L 165.497715 374.616752 
L 177.475785 377.365947 
L 189.532991 379.907126 
L 201.658524 382.236705 
L 213.840596 384.351433 
L 226.066207 386.248425 
L 238.320852 387.925219 
L 250.588145 389.379858 
L 262.849339 390.611006 
L 275.082723 391.618115 
L 287.441404 392.411526 
L 299.713547 392.976675 
L 312.035753 393.320726 
L 324.351981 393.440765 
L 336.587458 393.338717 
L 348.962616 393.013246 
L 361.733103 392.452413 
L 376.684536 391.575288 
L 376.684536 391.575288 
" clip-path="url(#p8cf1e7c097)" style="fill: none; stroke: #000000; stroke-width: 0.8; stroke-linecap: square"/>
   </g>
   <g id="line2d_23">
    <path d="M 149.252647 378.171257 
L 161.442756 380.632562 
L 173.713203 382.88544 
L 186.058252 384.927367 
L 198.472207 386.755967 
L 210.949499 388.369034 
L 223.484807 389.76454 
L 236.073189 390.940624 
L 248.710237 391.895563 
L 261.205455 392.618582 
L 273.741715 393.123782 
L 286.317525 393.409521 
L 298.932814 393.473914 
L 311.589262 393.314629 
L 324.100741 392.936071 
L 336.661898 392.333604 
L 349.089928 391.516251 
L 361.393554 390.487521 
L 373.778038 389.227594 
L 385.869966 387.775238 
L 397.877932 386.109356 
L 409.619876 384.256951 
L 421.108312 382.220846 
L 432.356056 380.000719 
L 432.562232 379.957836 
L 432.562232 379.957836 
" clip-path="url(#p8cf1e7c097)" style="fill: none; stroke: #000000; stroke-width: 0.8; stroke-linecap: square"/>
   </g>
   <g id="line2d_24">
    <path d="M 183.281432 388.493777 
L 195.807677 389.707251 
L 208.370907 390.700639 
L 220.963579 391.472755 
L 233.578108 392.02269 
L 246.206876 392.349819 
L 258.842254 392.453806 
L 271.476601 392.334604 
L 284.102281 391.992455 
L 296.711663 391.427891 
L 309.297112 390.641736 
L 321.850981 389.635105 
L 334.365582 388.409412 
L 346.833132 386.966391 
L 359.245689 385.308128 
L 371.595046 383.437124 
L 384.052544 381.324261 
L 396.426363 378.999398 
L 408.705694 376.467568 
L 421.053626 373.694475 
L 433.449363 370.681365 
L 445.866103 367.435291 
L 455.905428 364.649442 
L 455.905428 364.649442 
" clip-path="url(#p8cf1e7c097)" style="fill: none; stroke: #000000; stroke-width: 0.8; stroke-linecap: square"/>
   </g>
   <g id="line2d_25">
    <path d="M 218.670187 391.979265 
L 231.269013 391.896153 
L 243.860136 391.591007 
L 256.434717 391.065368 
L 268.984037 390.321117 
L 281.683208 389.344713 
L 294.338461 388.148072 
L 306.940743 386.734108 
L 319.48088 385.106069 
L 332.129619 383.23941 
L 344.69462 381.160419 
L 357.165323 378.873941 
L 369.706416 376.348578 
L 382.126653 373.622317 
L 394.58472 370.660799 
L 407.05944 367.466129 
L 419.526709 364.04354 
L 432.123153 360.35285 
L 444.806938 356.403483 
L 457.842168 352.108793 
L 471.445746 347.388861 
L 479.869779 344.357698 
L 479.869779 344.357698 
" clip-path="url(#p8cf1e7c097)" style="fill: none; stroke: #000000; stroke-width: 0.8; stroke-linecap: square"/>
   </g>
   <g id="line2d_26">
    <path d="M 254.058942 388.493777 
L 266.543634 387.221476 
L 278.978794 385.730367 
L 291.356648 384.021392 
L 303.669358 382.095864 
L 315.909084 379.9555 
L 328.068055 377.60243 
L 340.138635 375.039203 
L 352.113399 372.268773 
L 363.985211 369.294467 
L 375.747305 366.119931 
L 387.393365 362.749061 
L 399.08615 359.132083 
L 410.648137 355.321348 
L 422.074705 351.320916 
L 433.362103 347.134443 
L 444.507553 342.764895 
L 455.509316 338.214259 
L 466.366767 333.483173 
L 477.080459 328.570527 
L 487.499921 323.54817 
L 497.633982 318.418156 
L 507.195222 313.341371 
L 507.195222 313.341371 
" clip-path="url(#p8cf1e7c097)" style="fill: none; stroke: #000000; stroke-width: 0.8; stroke-linecap: square"/>
   </g>
   <g id="line2d_27">
    <path d="M 288.087728 378.171257 
L 300.173741 375.659273 
L 312.344906 372.901754 
L 324.415426 369.937922 
L 336.378036 366.771858 
L 348.225633 363.407887 
L 360.120281 359.797607 
L 371.88234 355.993308 
L 383.504913 352.000188 
L 394.981288 347.823654 
L 406.465571 343.405841 
L 417.786143 338.811142 
L 428.936626 334.045787 
L 439.910877 329.116179 
L 450.853675 323.956115 
L 461.603341 318.640788 
L 472.154341 313.177224 
L 482.643673 307.493831 
L 492.918209 301.673249 
L 502.973036 295.723698 
L 512.936512 289.56984 
L 522.664619 283.301753 
L 523.702016 282.617701 
L 523.702016 282.617701 
" clip-path="url(#p8cf1e7c097)" style="fill: none; stroke: #000000; stroke-width: 0.8; stroke-linecap: square"/>
   </g>
   <g id="line2d_28">
    <path d="M 319.448836 361.408396 
L 331.086146 357.732901 
L 342.591513 353.868627 
L 354.121813 349.760817 
L 365.502411 345.469876 
L 376.726618 341.001904 
L 387.94478 336.295846 
L 398.988913 331.421295 
L 409.85279 326.385616 
L 420.679491 321.122368 
L 431.308791 315.709735 
L 441.87843 310.078404 
L 452.37418 304.232173 
L 462.644341 298.25759 
L 472.817861 292.082412 
L 482.880218 285.713779 
L 492.816716 279.160521 
L 502.612488 272.43373 
L 512.372806 265.460042 
L 522.071393 258.256081 
L 531.79357 250.757021 
L 534.031707 248.991459 
L 534.031707 248.991459 
" clip-path="url(#p8cf1e7c097)" style="fill: none; stroke: #000000; stroke-width: 0.8; stroke-linecap: square"/>
   </g>
   <g id="line2d_29">
    <path d="M 346.937077 338.849379 
L 357.906386 334.122545 
L 368.859046 329.158732 
L 379.631226 324.031239 
L 390.217255 318.747312 
L 400.75673 313.236864 
L 411.093866 307.581175 
L 421.223636 301.788336 
L 431.277585 295.783386 
L 441.109045 289.654307 
L 450.84389 283.323115 
L 460.342037 276.881279 
L 469.600058 270.336604 
L 478.735055 263.605663 
L 487.500711 256.873519 
L 496.018086 250.054485 
L 504.28489 243.149972 
L 512.192136 236.254286 
L 519.644268 229.464393 
L 526.758379 222.685384 
L 533.443733 216.0128 
L 538.496944 210.746788 
L 538.496944 210.746788 
" clip-path="url(#p8cf1e7c097)" style="fill: none; stroke: #000000; stroke-width: 0.8; stroke-linecap: square"/>
   </g>
   <g id="line2d_30">
    <path d="M 369.496094 311.361138 
L 379.623476 305.762599 
L 389.547025 300.025815 
L 399.396094 294.075341 
L 409.023489 288.000171 
L 418.552523 281.723492 
L 427.842518 275.339937 
L 437.01086 268.772011 
L 446.042994 262.029048 
L 454.924726 255.121965 
L 463.6424 248.063081 
L 472.290624 240.773222 
L 480.741867 233.357902 
L 488.984276 225.830121 
L 496.910371 218.291389 
L 504.428066 210.836513 
L 511.459674 203.553435 
L 517.940626 196.522447 
L 523.736204 189.912122 
L 528.810034 183.794037 
L 533.131196 178.242321 
L 534.598466 176.260257 
L 534.598466 176.260257 
" clip-path="url(#p8cf1e7c097)" style="fill: none; stroke: #000000; stroke-width: 0.8; stroke-linecap: square"/>
   </g>
   <g id="line2d_31">
    <path d="M 386.258955 280.00003 
L 395.315459 273.677298 
L 404.142814 267.242861 
L 412.854398 260.616303 
L 421.436059 253.806712 
L 429.873614 246.826321 
L 438.2602 239.597131 
L 446.571202 232.139282 
L 454.981292 224.292607 
L 463.633731 215.912976 
L 472.909533 206.613479 
L 483.859126 195.305926 
L 511.049215 167.068142 
L 516.405995 161.924379 
L 520.691396 158.107998 
L 524.25298 155.223277 
L 526.990894 153.23629 
L 526.990894 153.23629 
" clip-path="url(#p8cf1e7c097)" style="fill: none; stroke: #000000; stroke-width: 0.8; stroke-linecap: square"/>
   </g>
   <g id="line2d_32">
    <path d="M 396.581474 245.971245 
L 403.611043 239.853831 
L 410.446617 233.612169 
L 416.984132 227.343202 
L 423.229031 221.046828 
L 429.091529 214.822116 
L 434.584406 208.667989 
L 439.718983 202.580583 
L 444.41935 196.664642 
L 448.702465 190.921491 
L 452.583662 185.352914 
L 456.07682 179.961788 
L 459.194567 174.752605 
L 461.948483 169.731873 
L 464.349284 164.908418 
L 466.406958 160.293595 
L 468.13084 155.901464 
L 469.52959 151.748952 
L 470.610994 147.856095 
L 471.381488 144.246482 
L 471.825803 141.137589 
L 471.997585 138.40321 
L 471.91533 136.097982 
L 471.672395 134.531484 
L 471.312787 133.357941 
L 470.779872 132.422103 
L 470.348944 132.031687 
L 469.806709 131.871068 
L 469.387466 132.005709 
L 469.116469 132.322691 
L 469.063754 132.720129 
L 469.226894 133.000304 
L 469.587395 133.164484 
L 470.135237 133.155368 
L 470.916519 132.908466 
L 471.92009 132.352877 
L 473.189489 131.378386 
L 474.633822 129.969206 
L 476.159725 128.161555 
L 477.735651 125.940677 
L 479.217323 123.473635 
L 480.58151 120.773898 
L 481.711735 118.058628 
L 482.607975 115.346085 
L 483.311133 112.503045 
L 483.852824 109.333679 
L 484.281925 105.356991 
L 484.997366 98.257399 
L 485.475709 96.013685 
L 486.058925 94.233434 
L 486.841853 92.524328 
L 487.908528 90.757104 
L 489.332355 88.857488 
L 491.524468 86.361143 
L 498.045515 79.170572 
L 500.083188 76.478399 
L 501.781432 73.86304 
L 502.316881 72.939419 
L 502.316881 72.939419 
" clip-path="url(#p8cf1e7c097)" style="fill: none; stroke: #000000; stroke-width: 0.8; stroke-linecap: square"/>
   </g>
  </g>
 </g>
 <defs>
  <clipPath id="p8cf1e7c097">
   <rect x="7.2" y="7.2" width="561.370356" height="410.4"/>
  </clipPath>
 </defs>
</svg>
