<?xml version="1.0" encoding="utf-8" standalone="no"?>
<!DOCTYPE svg PUBLIC "-//W3C//DTD SVG 1.1//EN"
  "http://www.w3.org/Graphics/SVG/1.1/DTD/svg11.dtd">
<svg xmlns:xlink="http://www.w3.org/1999/xlink" width="856.8pt" height="230.531369pt" viewBox="0 0 856.8 230.531369" xmlns="http://www.w3.org/2000/svg" version="1.1">
 <metadata>
  <rdf:RDF xmlns:dc="http://purl.org/dc/elements/1.1/" xmlns:cc="http://creativecommons.org/ns#" xmlns:rdf="http://www.w3.org/1999/02/22-rdf-syntax-ns#">
   <cc:Work>
    <dc:type rdf:resource="http://purl.org/dc/dcmitype/StillImage"/>
    <dc:date>2025-10-21T14:51:03.755063</dc:date>
    <dc:format>image/svg+xml</dc:format>
    <dc:creator>
     <cc:Agent>
      <dc:title>Matplotlib v3.10.6, https://matplotlib.org/</dc:title>
     </cc:Agent>
    </dc:creator>
   </cc:Work>
  </rdf:RDF>
 </metadata>
 <defs>
  <style type="text/css">*{stroke-linejoin: round; stroke-linecap: butt}</style>
 </defs>
 <g id="figure_1">
  <g id="patch_1">
   <path d="M 0 230.531369 
L 856.8 230.531369 
L 856.8 0 
L 0 0 
z
" style="fill: #ffffff"/>
  </g>
  <g id="axes_1">
   <g id="line2d_1">
    <path d="M 52.328571 100.792502 
L 86.934711 100.671158 
L 126.92063 100.578509 
L 150.545102 100.752515 
L 171.33234 101.124815 
L 191.833712 101.718473 
L 212.711563 102.54967 
L 236.458513 103.728884 
L 270.295649 105.662008 
L 314.493236 108.148594 
L 342.542528 109.48562 
L 373.881656 110.7416 
L 454.519881 113.861501 
L 630.811247 121.321888 
L 720.671671 125.095776 
L 720.671671 125.095776 
" clip-path="url(#pccc2aae1ad)" style="fill: none; stroke: #000000; stroke-width: 0.7; stroke-linecap: square"/>
   </g>
   <g id="line2d_2">
    <path d="M 52.328571 100.792502 
L 68.52167 100.914564 
L 84.152218 101.262572 
L 99.246328 101.822631 
L 114.723646 102.624681 
L 130.513415 103.668646 
L 147.375615 105.008331 
L 166.722555 106.776702 
L 192.606606 109.387333 
L 239.027901 114.094261 
L 260.547526 116.021983 
L 280.268218 117.567016 
L 301.119811 118.970601 
L 325.845223 120.396764 
L 398.703755 124.444904 
L 430.183939 126.54391 
L 499.818734 131.255292 
L 632.590327 139.913924 
L 720.855426 145.690965 
L 720.855426 145.690965 
" clip-path="url(#pccc2aae1ad)" style="fill: none; stroke: #000000; stroke-width: 0.7; stroke-linecap: square"/>
   </g>
   <g id="line2d_3">
    <path d="M 52.328571 100.792502 
L 91.761103 100.669839 
L 119.193441 100.706423 
L 139.098698 100.952545 
L 157.289036 101.404656 
L 173.924093 102.035779 
L 190.632141 102.886715 
L 208.069553 103.995779 
L 227.440634 105.454509 
L 252.189826 107.558462 
L 310.025181 112.564102 
L 333.096643 114.279547 
L 357.334711 115.852337 
L 393.743419 117.953978 
L 434.20216 120.35763 
L 473.818148 122.970809 
L 533.540051 126.882841 
L 679.788094 136.341185 
L 721.039837 139.011678 
L 721.039837 139.011678 
" clip-path="url(#pccc2aae1ad)" style="fill: none; stroke: #000000; stroke-width: 0.7; stroke-linecap: square"/>
   </g>
   <g id="line2d_4">
    <path d="M 52.328571 100.792502 
L 84.148829 100.68132 
L 108.429171 100.379146 
L 130.557684 99.883776 
L 152.400148 99.168353 
L 174.687801 98.212714 
L 200.170627 96.885172 
L 236.134721 94.757091 
L 284.197085 91.945676 
L 313.405279 90.475464 
L 345.002777 89.117354 
L 446.595066 84.934849 
L 551.190222 80.268976 
L 721.72088 72.736565 
L 721.72088 72.736565 
" clip-path="url(#pccc2aae1ad)" style="fill: none; stroke: #000000; stroke-width: 0.7; stroke-linecap: square"/>
   </g>
   <g id="line2d_5">
    <path d="M 52.328571 100.792502 
L 74.510552 100.678044 
L 98.456181 100.333111 
L 127.310169 99.68842 
L 221.880186 97.385816 
L 249.749623 97.053039 
L 279.757676 96.927805 
L 327.274686 96.997496 
L 372.530563 96.973224 
L 416.118928 96.701958 
L 493.330121 96.207034 
L 654.664472 95.352045 
L 723.732346 94.979768 
L 723.732346 94.979768 
" clip-path="url(#pccc2aae1ad)" style="fill: none; stroke: #000000; stroke-width: 0.7; stroke-linecap: square"/>
   </g>
   <g id="line2d_6">
    <path d="M 52.328571 100.792502 
L 87.150023 100.679173 
L 121.217559 100.34415 
L 159.295577 99.735499 
L 227.489613 98.358522 
L 276.971043 97.487252 
L 324.907121 96.882078 
L 437.7587 95.550808 
L 595.025095 93.482607 
L 724.060374 91.802801 
L 724.060374 91.802801 
" clip-path="url(#pccc2aae1ad)" style="fill: none; stroke: #000000; stroke-width: 0.7; stroke-linecap: square"/>
   </g>
   <g id="line2d_7">
    <path d="M 52.328571 100.792502 
L 74.617852 100.678953 
L 94.912621 100.352546 
L 114.311791 99.810984 
L 132.871507 99.072439 
L 152.296886 98.075828 
L 173.197765 96.778224 
L 198.970576 94.938761 
L 280.395405 88.939783 
L 305.328574 87.442268 
L 333.060564 86.010219 
L 437.459519 80.868975 
L 536.227527 75.484988 
L 725.028736 65.347781 
L 725.028736 65.347781 
" clip-path="url(#pccc2aae1ad)" style="fill: none; stroke: #000000; stroke-width: 0.7; stroke-linecap: square"/>
   </g>
   <g id="line2d_8">
    <path d="M 52.328571 100.792502 
L 82.448717 100.909533 
L 110.669453 101.240618 
L 140.57812 101.821545 
L 175.576621 102.739971 
L 283.572015 105.749844 
L 323.687872 106.509454 
L 438.192983 108.530779 
L 560.391019 110.94016 
L 725.727002 114.162422 
L 725.727002 114.162422 
" clip-path="url(#pccc2aae1ad)" style="fill: none; stroke: #000000; stroke-width: 0.7; stroke-linecap: square"/>
   </g>
   <g id="line2d_9">
    <path d="M 52.328571 100.792502 
L 81.555525 100.681848 
L 104.383182 100.37794 
L 125.193975 99.878328 
L 145.033798 99.180795 
L 165.572739 98.22955 
L 187.398773 96.987306 
L 213.075472 95.292372 
L 302.628976 89.170665 
L 329.663314 87.689242 
L 364.261046 86.037696 
L 423.741051 83.20968 
L 473.978448 80.518037 
L 539.305286 77.093294 
L 726.23703 67.327721 
L 726.23703 67.327721 
" clip-path="url(#pccc2aae1ad)" style="fill: none; stroke: #000000; stroke-width: 0.7; stroke-linecap: square"/>
   </g>
   <g id="line2d_10">
    <path d="M 52.328571 100.792502 
L 137.4349 100.677794 
L 226.565303 100.629275 
L 322.425695 100.851936 
L 439.622886 101.037319 
L 727.361578 101.483011 
L 727.361578 101.483011 
" clip-path="url(#pccc2aae1ad)" style="fill: none; stroke: #000000; stroke-width: 0.7; stroke-linecap: square"/>
   </g>
   <g id="line2d_11">
    <path d="M 52.328571 100.792502 
L 101.899424 100.687698 
L 122.073973 100.400405 
L 140.485076 99.917417 
L 157.296454 99.26017 
L 174.232384 98.375988 
L 191.233192 97.2678 
L 209.688583 95.838775 
L 231.389388 93.921377 
L 265.757418 90.618387 
L 299.343008 87.472493 
L 322.649681 85.516684 
L 345.855595 83.79558 
L 374.593911 81.903672 
L 435.348327 77.958861 
L 475.379968 75.046979 
L 533.420491 70.859685 
L 675.594233 60.737775 
L 728.466578 56.968957 
L 728.466578 56.968957 
" clip-path="url(#pccc2aae1ad)" style="fill: none; stroke: #000000; stroke-width: 0.7; stroke-linecap: square"/>
   </g>
   <g id="line2d_12">
    <path d="M 52.328571 100.792502 
L 86.517654 100.907052 
L 151.214501 101.41429 
L 193.927925 101.615863 
L 229.058455 101.5579 
L 267.403127 101.2627 
L 392.043356 100.11176 
L 528.254919 99.314958 
L 728.626308 98.054702 
L 728.626308 98.054702 
" clip-path="url(#pccc2aae1ad)" style="fill: none; stroke: #000000; stroke-width: 0.7; stroke-linecap: square"/>
   </g>
   <g id="line2d_13">
    <path d="M 52.328571 100.792502 
L 87.553743 100.908337 
L 137.818695 101.328091 
L 200.893663 101.816504 
L 240.19353 101.885895 
L 284.071105 101.728333 
L 391.353483 101.243073 
L 634.92633 100.788746 
L 729.558109 100.590058 
L 729.558109 100.590058 
" clip-path="url(#pccc2aae1ad)" style="fill: none; stroke: #000000; stroke-width: 0.7; stroke-linecap: square"/>
   </g>
   <g id="line2d_14">
    <path d="M 52.328571 100.792502 
L 75.870678 100.903498 
L 98.248764 101.231249 
L 119.54676 101.762767 
L 141.559897 102.534588 
L 165.724677 103.612244 
L 195.358587 105.172361 
L 273.844819 109.42373 
L 302.477639 110.666887 
L 334.499313 111.822095 
L 430.667426 115.130452 
L 605.45163 121.886426 
L 730.820303 126.676835 
L 730.820303 126.676835 
" clip-path="url(#pccc2aae1ad)" style="fill: none; stroke: #000000; stroke-width: 0.7; stroke-linecap: square"/>
   </g>
   <g id="line2d_15">
    <path d="M 52.328571 100.792502 
L 76.901395 100.676356 
L 152.73096 100.147385 
L 173.950911 100.324093 
L 193.357996 100.70255 
L 213.296506 101.317534 
L 234.295902 102.194441 
L 259.293321 103.474557 
L 344.419691 108.040404 
L 372.205432 109.162153 
L 418.540948 110.756567 
L 459.820502 112.286887 
L 731.521406 123.095751 
L 731.521406 123.095751 
" clip-path="url(#pccc2aae1ad)" style="fill: none; stroke: #000000; stroke-width: 0.7; stroke-linecap: square"/>
   </g>
   <g id="line2d_16">
    <path d="M 52.328571 100.792502 
L 76.025842 100.680508 
L 94.710564 100.383134 
L 111.713734 99.90115 
L 128.074057 99.218922 
L 143.824469 98.346473 
L 159.822518 97.242994 
L 176.796296 95.84638 
L 195.340798 94.089961 
L 217.335076 91.77453 
L 294.213581 83.470589 
L 315.444335 81.529499 
L 337.934095 79.699951 
L 367.767817 77.51912 
L 418.403109 73.828385 
L 450.952401 71.18928 
L 534.865847 64.271067 
L 650.644017 54.891656 
L 732.235448 48.274986 
L 732.235448 48.274986 
" clip-path="url(#pccc2aae1ad)" style="fill: none; stroke: #000000; stroke-width: 0.7; stroke-linecap: square"/>
   </g>
   <g id="line2d_17">
    <path d="M 52.328571 100.792502 
L 77.269622 100.900329 
L 95.119075 101.199827 
L 110.404648 101.678909 
L 124.260716 102.329786 
L 137.676043 103.179876 
L 150.667275 104.222191 
L 164.075431 105.528259 
L 177.835229 107.10617 
L 191.884568 108.948255 
L 206.90273 111.142047 
L 224.858162 114.000859 
L 251.875243 118.563246 
L 282.448233 123.670535 
L 301.65692 126.646596 
L 319.321445 129.154785 
L 337.124526 131.455144 
L 357.360168 133.839123 
L 392.474745 137.699026 
L 422.151949 141.066022 
L 447.736103 144.2015 
L 584.61068 161.397724 
L 733.962472 179.974117 
L 733.962472 179.974117 
" clip-path="url(#pccc2aae1ad)" style="fill: none; stroke: #000000; stroke-width: 0.7; stroke-linecap: square"/>
   </g>
   <g id="line2d_18">
    <path d="M 52.328571 100.792502 
L 69.07358 100.902217 
L 84.233994 101.210941 
L 98.896888 101.732787 
L 113.082756 102.468333 
L 126.810779 103.407542 
L 140.099498 104.532029 
L 153.810623 105.908031 
L 168.691067 107.631428 
L 184.586249 109.701996 
L 203.574259 112.414388 
L 232.796021 116.853058 
L 263.08058 121.386672 
L 282.767953 124.107898 
L 300.859159 126.384343 
L 319.131642 128.456961 
L 339.506407 130.538298 
L 369.86601 133.384729 
L 406.398503 136.864128 
L 432.441872 139.586153 
L 470.144718 143.791067 
L 512.37355 148.422661 
L 710.268676 169.674753 
L 734.127572 172.242055 
L 734.127572 172.242055 
" clip-path="url(#pccc2aae1ad)" style="fill: none; stroke: #000000; stroke-width: 0.7; stroke-linecap: square"/>
   </g>
   <g id="line2d_19">
    <path d="M 52.328571 100.792502 
L 103.364744 100.681056 
L 132.637126 100.387605 
L 159.205049 99.899996 
L 185.730603 99.188937 
L 214.966325 98.177552 
L 258.573029 96.41196 
L 308.812816 94.433178 
L 344.612858 93.261708 
L 396.195293 91.8376 
L 452.47772 90.204591 
L 702.261855 82.535687 
L 734.753486 81.543492 
L 734.753486 81.543492 
" clip-path="url(#pccc2aae1ad)" style="fill: none; stroke: #000000; stroke-width: 0.7; stroke-linecap: square"/>
   </g>
   <g id="line2d_20">
    <path d="M 52.328571 100.792502 
L 72.021384 100.908035 
L 91.870066 101.249588 
L 111.800578 101.813199 
L 133.512991 102.65236 
L 159.17776 103.880716 
L 202.425997 106.227551 
L 238.686882 108.094088 
L 264.869741 109.218705 
L 290.456918 110.095048 
L 320.246918 110.882506 
L 409.631461 113.088953 
L 465.85453 114.919495 
L 524.897596 116.720749 
L 671.125121 121.169091 
L 734.766434 123.107245 
L 734.766434 123.107245 
" clip-path="url(#pccc2aae1ad)" style="fill: none; stroke: #000000; stroke-width: 0.7; stroke-linecap: square"/>
   </g>
   <g id="line2d_21">
    <path d="M 52.328571 100.792502 
L 71.114588 100.90798 
L 88.174564 101.232968 
L 104.606489 101.775057 
L 120.44157 102.526489 
L 135.709068 103.468046 
L 152.135492 104.711437 
L 169.552422 106.26693 
L 188.569321 108.195504 
L 213.294445 110.943162 
L 267.302895 117.015727 
L 288.644225 119.147182 
L 309.320063 120.987126 
L 331.420283 122.724725 
L 361.24168 124.824114 
L 408.771841 128.173426 
L 439.032976 130.563163 
L 553.141378 139.828718 
L 735.641632 154.440167 
L 735.641632 154.440167 
" clip-path="url(#pccc2aae1ad)" style="fill: none; stroke: #000000; stroke-width: 0.7; stroke-linecap: square"/>
   </g>
   <g id="line2d_22">
    <path d="M 52.328571 100.792502 
L 74.102653 100.904649 
L 95.849344 101.243016 
L 117.501232 101.809281 
L 139.870369 102.618567 
L 165.236589 103.763162 
L 201.309984 105.639502 
L 251.180447 108.20784 
L 279.644107 109.437013 
L 308.226513 110.442756 
L 345.222343 111.497476 
L 406.374024 113.236656 
L 452.945051 114.844042 
L 522.694833 117.224395 
L 691.265383 122.857026 
L 735.955591 124.352677 
L 735.955591 124.352677 
" clip-path="url(#pccc2aae1ad)" style="fill: none; stroke: #000000; stroke-width: 0.7; stroke-linecap: square"/>
   </g>
   <g id="line2d_23">
    <path d="M 52.328571 100.792502 
L 78.307203 100.902565 
L 100.96632 101.215056 
L 122.524846 101.738486 
L 143.059991 102.455537 
L 165.129296 103.455689 
L 189.200892 104.77899 
L 220.626935 106.750167 
L 281.525521 110.610126 
L 309.617713 112.126795 
L 339.160758 113.489189 
L 390.561691 115.576412 
L 432.614438 117.406381 
L 738.782458 131.692522 
L 738.782458 131.692522 
" clip-path="url(#pccc2aae1ad)" style="fill: none; stroke: #000000; stroke-width: 0.7; stroke-linecap: square"/>
   </g>
   <g id="line2d_24">
    <path d="M 52.328571 100.792502 
L 87.34728 100.906264 
L 112.411344 101.208765 
L 135.233948 101.70956 
L 156.899347 102.407713 
L 179.09543 103.346114 
L 203.91375 104.628065 
L 235.653619 106.508871 
L 297.302218 110.202985 
L 326.359106 111.684023 
L 358.407709 113.084926 
L 456.66686 117.212413 
L 580.513934 122.8648 
L 739.348821 130.045147 
L 739.348821 130.045147 
" clip-path="url(#pccc2aae1ad)" style="fill: none; stroke: #000000; stroke-width: 0.7; stroke-linecap: square"/>
   </g>
   <g id="line2d_25">
    <path d="M 52.328571 100.792502 
L 66.087329 100.66648 
L 79.4447 100.317719 
L 92.415062 99.766493 
L 105.966631 98.974281 
L 120.02663 97.934228 
L 135.413963 96.569781 
L 152.81437 94.793541 
L 175.187744 92.262261 
L 229.387237 86.023065 
L 247.92695 84.168346 
L 265.603468 82.626806 
L 283.081775 81.333312 
L 301.483925 80.200257 
L 323.317041 79.088185 
L 397.268605 75.515992 
L 422.799062 73.913861 
L 529.036891 66.949803 
L 596.535562 62.692349 
L 740.093142 53.626756 
L 740.093142 53.626756 
" clip-path="url(#pccc2aae1ad)" style="fill: none; stroke: #000000; stroke-width: 0.7; stroke-linecap: square"/>
   </g>
   <g id="line2d_26">
    <path d="M 52.328571 100.792502 
L 74.407174 100.912407 
L 96.450013 101.259734 
L 119.319093 101.844805 
L 145.441422 102.745918 
L 180.622788 104.20663 
L 236.712578 106.538942 
L 265.527023 107.494624 
L 294.01821 108.212981 
L 328.507533 108.843942 
L 404.357203 110.164738 
L 453.437385 111.343664 
L 519.896712 112.891708 
L 683.529579 116.587096 
L 742.739256 117.92835 
L 742.739256 117.92835 
" clip-path="url(#pccc2aae1ad)" style="fill: none; stroke: #000000; stroke-width: 0.7; stroke-linecap: square"/>
   </g>
   <g id="line2d_27">
    <path d="M 52.328571 100.792502 
L 136.775233 100.881419 
L 160.256875 101.234594 
L 182.488644 101.798039 
L 204.324922 102.575637 
L 227.881678 103.638371 
L 258.060649 105.241276 
L 326.71308 108.971924 
L 356.1549 110.28785 
L 392.368525 111.664292 
L 457.316164 114.113155 
L 743.277241 125.922418 
L 743.277241 125.922418 
" clip-path="url(#pccc2aae1ad)" style="fill: none; stroke: #000000; stroke-width: 0.7; stroke-linecap: square"/>
   </g>
   <g id="line2d_28">
    <path d="M 52.328571 100.792502 
L 129.527449 100.689603 
L 159.363622 100.377943 
L 187.21612 99.863882 
L 216.230266 99.102813 
L 252.044921 97.927642 
L 332.613 95.21098 
L 372.027316 94.177105 
L 494.217825 91.152115 
L 618.024448 87.921467 
L 743.374852 84.65966 
L 743.374852 84.65966 
" clip-path="url(#pccc2aae1ad)" style="fill: none; stroke: #000000; stroke-width: 0.7; stroke-linecap: square"/>
   </g>
   <g id="line2d_29">
    <path d="M 52.328571 100.792502 
L 99.919004 100.693825 
L 119.14881 100.39391 
L 135.762808 99.912633 
L 150.882259 99.259687 
L 165.472608 98.416509 
L 180.371347 97.332371 
L 195.514275 96.004321 
L 211.591811 94.36498 
L 229.171082 92.345599 
L 251.392385 89.557087 
L 309.182772 82.192392 
L 329.221954 79.9299 
L 349.143233 77.903839 
L 371.703511 75.84127 
L 416.755783 72.023827 
L 446.888771 69.320884 
L 480.119449 66.093046 
L 539.260982 60.332982 
L 682.199948 46.697434 
L 745.543818 40.643337 
L 745.543818 40.643337 
" clip-path="url(#pccc2aae1ad)" style="fill: none; stroke: #000000; stroke-width: 0.7; stroke-linecap: square"/>
   </g>
   <g id="line2d_30">
    <path d="M 52.328571 100.792502 
L 106.450243 100.908158 
L 190.99508 101.359445 
L 265.509157 101.657588 
L 350.984855 101.731973 
L 453.816747 101.899459 
L 735.10786 102.402911 
L 745.866062 102.42205 
L 745.866062 102.42205 
" clip-path="url(#pccc2aae1ad)" style="fill: none; stroke: #000000; stroke-width: 0.7; stroke-linecap: square"/>
   </g>
   <g id="line2d_31">
    <path d="M 52.328571 100.792502 
L 88.822299 100.681532 
L 121.671365 100.362108 
L 154.826818 99.814016 
L 192.713469 98.956465 
L 315.417847 95.99369 
L 367.979068 95.125338 
L 445.222588 93.827328 
L 710.740876 88.958662 
L 746.322908 88.310699 
L 746.322908 88.310699 
" clip-path="url(#pccc2aae1ad)" style="fill: none; stroke: #000000; stroke-width: 0.7; stroke-linecap: square"/>
   </g>
   <g id="line2d_32">
    <path d="M 52.328571 100.792502 
L 100.199532 100.892988 
L 117.641111 101.197315 
L 132.584139 101.671208 
L 147.023339 102.354352 
L 160.979433 103.248399 
L 174.471997 104.342712 
L 187.52019 105.617147 
L 201.692182 107.232507 
L 216.098424 109.098712 
L 232.823958 111.501263 
L 253.555456 114.723353 
L 307.722069 123.261704 
L 326.275914 125.887729 
L 344.386192 128.220418 
L 363.504172 130.451607 
L 387.892387 133.056972 
L 438.805707 138.442371 
L 465.368535 141.533994 
L 573.672681 154.428043 
L 746.876548 174.808771 
L 746.876548 174.808771 
" clip-path="url(#pccc2aae1ad)" style="fill: none; stroke: #000000; stroke-width: 0.7; stroke-linecap: square"/>
   </g>
   <g id="line2d_33">
    <path d="M 52.328571 100.792502 
L 92.913288 100.909732 
L 140.121502 100.997973 
L 168.681328 100.818889 
L 193.837286 100.442545 
L 219.733689 99.828659 
L 248.827574 98.90312 
L 295.570588 97.145465 
L 338.904629 95.60677 
L 373.831772 94.60107 
L 436.325202 93.095975 
L 488.515549 91.69526 
L 606.960715 88.448984 
L 747.388223 84.63069 
L 747.388223 84.63069 
" clip-path="url(#pccc2aae1ad)" style="fill: none; stroke: #000000; stroke-width: 0.7; stroke-linecap: square"/>
   </g>
   <g id="line2d_34">
    <path d="M 52.328571 100.792502 
L 71.688005 100.909457 
L 88.242122 101.226249 
L 103.230191 101.724093 
L 117.726738 102.419893 
L 131.752416 103.306574 
L 146.216352 104.445333 
L 161.047989 105.844473 
L 176.180055 107.496891 
L 193.133344 109.582695 
L 212.399208 112.184776 
L 243.429695 116.641517 
L 274.661895 121.053077 
L 295.11066 123.713034 
L 313.882139 125.932423 
L 333.308896 128.001174 
L 355.714196 130.151969 
L 440.761591 138.066013 
L 476.144947 141.817363 
L 524.068989 146.858099 
L 748.488779 169.905756 
L 748.488779 169.905756 
" clip-path="url(#pccc2aae1ad)" style="fill: none; stroke: #000000; stroke-width: 0.7; stroke-linecap: square"/>
   </g>
   <g id="line2d_35">
    <path d="M 52.328571 100.792502 
L 73.651652 100.679418 
L 98.989016 100.311134 
L 134.952047 99.53347 
L 182.214005 98.538618 
L 208.946901 98.211484 
L 233.281804 98.139545 
L 258.18047 98.296269 
L 286.496315 98.706117 
L 385.867011 100.354312 
L 426.948506 100.617038 
L 489.368803 101.032488 
L 749.045207 103.30794 
L 749.045207 103.30794 
" clip-path="url(#pccc2aae1ad)" style="fill: none; stroke: #000000; stroke-width: 0.7; stroke-linecap: square"/>
   </g>
   <g id="line2d_36">
    <path d="M 52.328571 100.792502 
L 135.125568 100.699656 
L 158.172106 100.356426 
L 180.024511 99.806887 
L 201.548044 99.041702 
L 224.904993 97.979555 
L 252.411907 96.493459 
L 337.904433 91.703071 
L 367.395537 90.391082 
L 410.254551 88.742775 
L 459.492479 86.783793 
L 749.482029 74.288302 
L 749.482029 74.288302 
" clip-path="url(#pccc2aae1ad)" style="fill: none; stroke: #000000; stroke-width: 0.7; stroke-linecap: square"/>
   </g>
   <g id="line2d_37">
    <path d="M 52.328571 100.792502 
L 86.114645 100.905987 
L 111.842357 101.211493 
L 135.251939 101.709458 
L 158.324739 102.425679 
L 181.834114 103.379146 
L 208.673526 104.699396 
L 247.17293 106.847142 
L 296.277199 109.546874 
L 326.888576 110.994093 
L 359.94599 112.324951 
L 465.858334 116.404891 
L 574.562164 120.951142 
L 750.282473 128.226085 
L 750.282473 128.226085 
" clip-path="url(#pccc2aae1ad)" style="fill: none; stroke: #000000; stroke-width: 0.7; stroke-linecap: square"/>
   </g>
   <g id="line2d_38">
    <path d="M 52.328571 100.792502 
L 78.926292 100.90957 
L 107.967707 101.263132 
L 146.930318 101.982449 
L 216.267176 103.289953 
L 249.317331 103.656434 
L 282.857547 103.79639 
L 328.712824 103.735716 
L 388.686424 103.696138 
L 441.124239 103.927268 
L 519.44913 104.246055 
L 709.129093 104.902783 
L 750.755766 105.04864 
L 750.755766 105.04864 
" clip-path="url(#pccc2aae1ad)" style="fill: none; stroke: #000000; stroke-width: 0.7; stroke-linecap: square"/>
   </g>
   <g id="line2d_39">
    <path d="M 52.328571 100.792502 
L 69.641774 100.911984 
L 85.306508 101.233392 
L 100.448853 101.755762 
L 116.051173 102.521784 
L 131.112531 103.481212 
L 146.551456 104.679942 
L 163.155858 106.190335 
L 181.575961 108.090477 
L 204.634308 110.70335 
L 268.592604 118.081476 
L 288.954297 120.129347 
L 308.814024 121.904376 
L 329.810595 123.555825 
L 356.736161 125.431663 
L 415.449058 129.453737 
L 444.520617 131.732383 
L 560.585113 141.105804 
L 741.134964 155.444155 
L 751.66061 156.279705 
L 751.66061 156.279705 
" clip-path="url(#pccc2aae1ad)" style="fill: none; stroke: #000000; stroke-width: 0.7; stroke-linecap: square"/>
   </g>
   <g id="line2d_40">
    <path d="M 52.328571 100.792502 
L 75.970283 100.680164 
L 96.462852 100.37143 
L 116.06652 99.857134 
L 134.836591 99.148377 
L 154.581405 98.174385 
L 175.114513 96.932251 
L 198.628429 95.274967 
L 231.126155 92.734345 
L 278.768062 89.024026 
L 304.641037 87.245956 
L 330.384376 85.705672 
L 360.864751 84.12274 
L 437.284089 80.260793 
L 485.045498 77.487652 
L 543.81747 74.148118 
L 690.026478 65.927407 
L 752.834672 62.391378 
L 752.834672 62.391378 
" clip-path="url(#pccc2aae1ad)" style="fill: none; stroke: #000000; stroke-width: 0.7; stroke-linecap: square"/>
   </g>
   <g id="line2d_41">
    <path d="M 52.328571 100.792502 
L 122.64749 100.898437 
L 155.369218 101.201571 
L 185.755799 101.711949 
L 217.071402 102.465375 
L 257.098039 103.667755 
L 331.581477 105.935516 
L 373.248366 106.933164 
L 508.296585 109.970793 
L 669.247103 113.756169 
L 753.13137 115.7288 
L 753.13137 115.7288 
" clip-path="url(#pccc2aae1ad)" style="fill: none; stroke: #000000; stroke-width: 0.7; stroke-linecap: square"/>
   </g>
   <g id="line2d_42">
    <path d="M 52.328571 100.792502 
L 135.777724 100.884066 
L 160.729786 101.219304 
L 184.291212 101.761483 
L 208.118571 102.540511 
L 234.223268 103.629421 
L 268.674442 105.314417 
L 327.394865 108.199526 
L 358.697444 109.483393 
L 396.241774 110.781965 
L 466.728789 113.190012 
L 753.527007 123.889572 
L 753.527007 123.889572 
" clip-path="url(#pccc2aae1ad)" style="fill: none; stroke: #000000; stroke-width: 0.7; stroke-linecap: square"/>
   </g>
   <g id="line2d_43">
    <path d="M 52.328571 100.792502 
L 80.347517 100.898206 
L 99.801915 101.194511 
L 116.525026 101.67514 
L 131.70454 102.332757 
L 146.365753 103.191398 
L 160.531249 104.24102 
L 175.063278 105.543948 
L 189.895518 107.1004 
L 205.742917 108.992017 
L 223.195532 111.300908 
L 246.21291 114.589289 
L 298.192896 122.094805 
L 318.204206 124.703859 
L 337.123204 126.94618 
L 357.580238 129.137606 
L 383.424159 131.661609 
L 437.000052 136.839127 
L 465.119612 139.8371 
L 568.902769 151.142967 
L 704.358901 165.707548 
L 753.611999 171.002423 
L 753.611999 171.002423 
" clip-path="url(#pccc2aae1ad)" style="fill: none; stroke: #000000; stroke-width: 0.7; stroke-linecap: square"/>
   </g>
   <g id="line2d_44">
    <path d="M 52.328571 100.792502 
L 71.82711 100.904636 
L 91.557979 101.242366 
L 111.441401 101.81258 
L 132.331636 102.645603 
L 154.910029 103.777176 
L 182.979087 105.423259 
L 259.138914 110.020424 
L 284.679599 111.254275 
L 310.302522 112.266129 
L 341.744706 113.26774 
L 415.731593 115.535752 
L 456.498229 117.105306 
L 526.180359 119.795337 
L 684.956348 125.701317 
L 755.051427 128.317519 
L 755.051427 128.317519 
" clip-path="url(#pccc2aae1ad)" style="fill: none; stroke: #000000; stroke-width: 0.7; stroke-linecap: square"/>
   </g>
   <g id="line2d_45">
    <path d="M 52.328571 100.792502 
L 103.727352 100.899928 
L 126.93444 101.189213 
L 147.183912 101.654171 
L 166.520504 102.314198 
L 185.823246 103.193551 
L 205.816748 104.32639 
L 228.550788 105.847706 
L 258.280299 108.084204 
L 314.314956 112.333475 
L 340.63806 114.068176 
L 367.990408 115.639002 
L 409.927206 117.781634 
L 453.110444 120.066733 
L 500.409021 122.83511 
L 563.413997 126.460735 
L 738.35087 136.460512 
L 755.760703 137.456116 
L 755.760703 137.456116 
" clip-path="url(#pccc2aae1ad)" style="fill: none; stroke: #000000; stroke-width: 0.7; stroke-linecap: square"/>
   </g>
   <g id="line2d_46">
    <path d="M 52.328571 100.792502 
L 84.43762 100.674775 
L 174.936456 100.19999 
L 202.611502 100.363731 
L 229.983361 100.75087 
L 259.656352 101.398838 
L 304.368699 102.632293 
L 353.465762 103.924165 
L 391.020052 104.676205 
L 552.074354 107.593031 
L 756.259584 111.464434 
L 756.259584 111.464434 
" clip-path="url(#pccc2aae1ad)" style="fill: none; stroke: #000000; stroke-width: 0.7; stroke-linecap: square"/>
   </g>
   <g id="line2d_47">
    <path d="M 52.328571 100.792502 
L 84.448125 100.681308 
L 113.504187 100.358436 
L 141.697466 99.81873 
L 171.576187 99.015793 
L 207.317731 97.819613 
L 300.75266 94.576704 
L 338.087912 93.590545 
L 406.24413 92.082891 
L 460.202208 90.745407 
L 604.169307 87.046468 
L 756.29742 83.179693 
L 756.29742 83.179693 
" clip-path="url(#pccc2aae1ad)" style="fill: none; stroke: #000000; stroke-width: 0.7; stroke-linecap: square"/>
   </g>
   <g id="line2d_48">
    <path d="M 52.328571 100.792502 
L 78.5031 100.684387 
L 96.192335 100.402393 
L 112.234548 99.923855 
L 126.764441 99.265658 
L 140.821451 98.39904 
L 154.424144 97.330184 
L 167.590469 96.074474 
L 181.173684 94.554319 
L 195.108593 92.770966 
L 210.108805 90.625411 
L 227.50794 87.898861 
L 250.44755 84.052358 
L 294.327855 76.648081 
L 313.561194 73.663673 
L 331.247856 71.14478 
L 349.123472 68.823479 
L 369.563643 66.401113 
L 402.379652 62.780074 
L 434.617337 59.14152 
L 460.157881 56.024494 
L 499.279684 50.978588 
L 539.622174 45.868681 
L 700.910489 25.771003 
L 756.913057 18.778466 
L 756.913057 18.778466 
" clip-path="url(#pccc2aae1ad)" style="fill: none; stroke: #000000; stroke-width: 0.7; stroke-linecap: square"/>
   </g>
   <g id="line2d_49">
    <path d="M 52.328571 100.792502 
L 88.695744 100.905227 
L 111.765092 101.191952 
L 132.772192 101.674466 
L 151.923353 102.330428 
L 171.103278 103.205789 
L 191.06339 104.341959 
L 213.170307 105.834821 
L 239.883253 107.876304 
L 313.162181 113.608921 
L 339.130923 115.328996 
L 367.215485 116.954685 
L 478.355291 123.114332 
L 560.508495 128.048495 
L 725.21605 137.799135 
L 757.054323 139.684925 
L 757.054323 139.684925 
" clip-path="url(#pccc2aae1ad)" style="fill: none; stroke: #000000; stroke-width: 0.7; stroke-linecap: square"/>
   </g>
   <g id="line2d_50">
    <path d="M 52.328571 100.792502 
L 71.190666 100.91226 
L 86.174124 101.224693 
L 99.661367 101.723207 
L 112.752428 102.439623 
L 124.495305 103.299345 
L 135.919751 104.346785 
L 147.946957 105.683156 
L 159.621925 107.212281 
L 170.95657 108.911931 
L 182.79712 110.903579 
L 195.885707 113.341114 
L 210.07682 116.225941 
L 226.709106 119.854632 
L 251.024277 125.426945 
L 280.951226 132.244787 
L 298.438145 135.99006 
L 313.971268 139.089346 
L 328.867528 141.839285 
L 344.770636 144.54335 
L 362.508646 147.324031 
L 387.394653 150.973158 
L 424.298813 156.400484 
L 446.011496 159.838905 
L 470.517306 163.960145 
L 537.119677 175.291241 
L 663.770234 196.255431 
L 757.132674 211.752903 
L 757.132674 211.752903 
" clip-path="url(#pccc2aae1ad)" style="fill: none; stroke: #000000; stroke-width: 0.7; stroke-linecap: square"/>
   </g>
   <g id="line2d_51">
    <path d="M 52.328571 100.792502 
L 81.42932 100.677239 
L 104.853262 100.360325 
L 126.174389 99.845277 
L 146.508807 99.129809 
L 166.783815 98.195677 
L 188.577784 96.964754 
L 213.891109 95.298178 
L 253.228425 92.442044 
L 293.229348 89.611832 
L 320.698242 87.898833 
L 348.242659 86.408168 
L 386.053687 84.612143 
L 438.924839 82.073311 
L 483.944597 79.641967 
L 552.142135 75.984693 
L 718.780001 67.164105 
L 757.139454 65.131802 
L 757.139454 65.131802 
" clip-path="url(#pccc2aae1ad)" style="fill: none; stroke: #000000; stroke-width: 0.7; stroke-linecap: square"/>
   </g>
   <g id="line2d_52">
    <path d="M 52.328571 100.792502 
L 92.727716 100.674373 
L 147.307 100.540277 
L 176.880829 100.700918 
L 203.711626 101.064677 
L 231.078567 101.656433 
L 263.452818 102.590035 
L 365.74042 105.721896 
L 408.586726 106.653137 
L 483.973578 108.276195 
L 710.153431 113.58561 
L 757.284503 114.684752 
L 757.284503 114.684752 
" clip-path="url(#pccc2aae1ad)" style="fill: none; stroke: #000000; stroke-width: 0.7; stroke-linecap: square"/>
   </g>
   <g id="line2d_53">
    <path d="M 52.328571 100.792502 
L 94.822375 100.908311 
L 182.904074 101.208347 
L 220.141101 101.063321 
L 258.312573 100.686109 
L 319.376832 99.813814 
L 375.56949 99.10902 
L 442.569788 98.540373 
L 524.517575 97.758303 
L 758.150849 95.502799 
L 758.150849 95.502799 
" clip-path="url(#pccc2aae1ad)" style="fill: none; stroke: #000000; stroke-width: 0.7; stroke-linecap: square"/>
   </g>
   <g id="line2d_54">
    <path d="M 52.328571 100.792502 
L 67.731041 100.675976 
L 82.64165 100.341592 
L 97.080942 99.795894 
L 111.068217 99.05314 
L 125.574077 98.061698 
L 140.523775 96.814471 
L 156.729377 95.22701 
L 174.018907 93.304586 
L 195.447768 90.681927 
L 267.841602 81.600275 
L 286.701502 79.575907 
L 305.243546 77.807529 
L 325.149929 76.141247 
L 348.766381 74.402729 
L 421.575773 69.210624 
L 449.565696 66.863739 
L 540.235149 59.073044 
L 621.178613 52.327055 
L 758.158985 40.877658 
L 758.158985 40.877658 
" clip-path="url(#pccc2aae1ad)" style="fill: none; stroke: #000000; stroke-width: 0.7; stroke-linecap: square"/>
   </g>
   <g id="line2d_55">
    <path d="M 52.328571 100.792502 
L 95.877165 100.902981 
L 134.705016 101.220033 
L 175.476609 101.779244 
L 232.942705 102.820603 
L 303.596329 104.054898 
L 357.792441 104.752725 
L 477.625574 106.221976 
L 661.724807 108.642422 
L 758.576287 109.910254 
L 758.576287 109.910254 
" clip-path="url(#pccc2aae1ad)" style="fill: none; stroke: #000000; stroke-width: 0.7; stroke-linecap: square"/>
   </g>
   <g id="line2d_56">
    <path d="M 52.328571 100.792502 
L 78.604889 100.909122 
L 99.425142 101.222384 
L 118.359447 101.731336 
L 136.519764 102.449058 
L 153.950405 103.361276 
L 171.555583 104.50234 
L 190.094674 105.924214 
L 210.964043 107.750412 
L 238.155242 110.368905 
L 294.323353 115.83514 
L 318.007125 117.878221 
L 341.279426 119.661585 
L 368.121475 121.482885 
L 457.896735 127.374901 
L 758.978227 149.11933 
L 762.265178 149.355407 
L 762.265178 149.355407 
" clip-path="url(#pccc2aae1ad)" style="fill: none; stroke: #000000; stroke-width: 0.7; stroke-linecap: square"/>
   </g>
   <g id="line2d_57">
    <path d="M 52.328571 100.792502 
L 118.276819 100.893645 
L 142.00564 101.200946 
L 163.631887 101.704383 
L 184.209703 102.40578 
L 205.403345 103.355462 
L 228.544493 104.627198 
L 256.70957 106.415453 
L 331.925568 111.314241 
L 359.523238 112.80506 
L 391.55784 114.301008 
L 470.580543 117.893928 
L 762.575278 132.418457 
L 762.575278 132.418457 
" clip-path="url(#pccc2aae1ad)" style="fill: none; stroke: #000000; stroke-width: 0.7; stroke-linecap: square"/>
   </g>
   <g id="line2d_58">
    <path d="M 52.328571 100.792502 
L 71.086658 100.677028 
L 89.122254 100.345516 
L 106.475072 99.810407 
L 124.145296 99.046691 
L 142.979242 98.001739 
L 162.785469 96.675842 
L 185.882888 94.900801 
L 222.461632 91.828562 
L 259.426457 88.799002 
L 283.522392 87.048136 
L 306.136023 85.62371 
L 330.243503 84.329299 
L 362.162158 82.857427 
L 417.188474 80.331074 
L 450.658378 78.530419 
L 557.764676 72.580575 
L 692.944367 65.236332 
L 762.800227 61.440484 
L 762.800227 61.440484 
" clip-path="url(#pccc2aae1ad)" style="fill: none; stroke: #000000; stroke-width: 0.7; stroke-linecap: square"/>
   </g>
   <g id="line2d_59">
    <path d="M 52.328571 100.792502 
L 68.889388 100.668798 
L 85.931507 100.319877 
L 105.380185 99.694375 
L 129.753261 98.66937 
L 198.053733 95.644951 
L 218.55413 95.040881 
L 237.326338 94.702718 
L 256.635629 94.582414 
L 276.996343 94.689369 
L 300.64431 95.050596 
L 390.242823 96.670922 
L 418.055726 96.771468 
L 520.13722 96.907185 
L 595.518705 97.253807 
L 763.007806 97.950272 
L 763.007806 97.950272 
" clip-path="url(#pccc2aae1ad)" style="fill: none; stroke: #000000; stroke-width: 0.7; stroke-linecap: square"/>
   </g>
   <g id="line2d_60">
    <path d="M 52.328571 100.792502 
L 72.153389 100.90917 
L 94.268293 101.26312 
L 123.149259 101.965064 
L 187.597662 103.609891 
L 211.797456 103.949822 
L 233.889172 104.036479 
L 256.202603 103.896939 
L 280.565496 103.514309 
L 313.702349 102.745199 
L 366.613748 101.516348 
L 396.654979 101.06757 
L 434.635754 100.745561 
L 493.865354 100.23353 
L 763.547788 97.105454 
L 763.547788 97.105454 
" clip-path="url(#pccc2aae1ad)" style="fill: none; stroke: #000000; stroke-width: 0.7; stroke-linecap: square"/>
   </g>
   <g id="line2d_61">
    <path d="M 52.328571 100.792502 
L 100.444537 100.909116 
L 178.495966 101.371639 
L 243.596356 101.652905 
L 301.181319 101.663201 
L 448.377477 101.568895 
L 622.232214 101.629026 
L 764.077458 101.667346 
L 764.077458 101.667346 
" clip-path="url(#pccc2aae1ad)" style="fill: none; stroke: #000000; stroke-width: 0.7; stroke-linecap: square"/>
   </g>
   <g id="line2d_62">
    <path d="M 52.328571 100.792502 
L 68.991186 100.913622 
L 85.082276 101.258105 
L 100.628615 101.813247 
L 116.639292 102.614518 
L 133.035572 103.667641 
L 149.74252 104.962241 
L 168.434948 106.635715 
L 191.294472 108.918772 
L 266.858106 116.665938 
L 287.375696 118.429156 
L 307.420159 119.930089 
L 329.26853 121.336579 
L 357.250906 122.895815 
L 413.379205 125.977881 
L 442.017026 127.821677 
L 492.908862 131.388269 
L 536.742084 134.322158 
L 643.782259 141.392263 
L 764.316345 149.387099 
L 764.316345 149.387099 
" clip-path="url(#pccc2aae1ad)" style="fill: none; stroke: #000000; stroke-width: 0.7; stroke-linecap: square"/>
   </g>
   <g id="line2d_63">
    <path d="M 52.328571 100.792502 
L 107.578639 100.674139 
L 159.516081 100.640877 
L 195.357777 100.844728 
L 229.835194 101.26754 
L 270.422995 102.003723 
L 372.835905 103.971649 
L 434.191847 104.785937 
L 507.742489 105.835731 
L 687.071814 108.48609 
L 764.717297 109.628638 
L 764.717297 109.628638 
" clip-path="url(#pccc2aae1ad)" style="fill: none; stroke: #000000; stroke-width: 0.7; stroke-linecap: square"/>
   </g>
   <g id="line2d_64">
    <path d="M 52.328571 100.792502 
L 70.065832 100.909938 
L 88.204601 101.259432 
L 106.660392 101.845984 
L 126.315873 102.704963 
L 147.885179 103.880655 
L 174.486041 105.565282 
L 243.904783 110.078022 
L 267.776635 111.330826 
L 290.22668 112.286514 
L 314.377588 113.088502 
L 346.357864 113.904759 
L 403.065885 115.33144 
L 435.229576 116.402852 
L 580.823524 121.584075 
L 765.096153 127.958685 
L 765.096153 127.958685 
" clip-path="url(#pccc2aae1ad)" style="fill: none; stroke: #000000; stroke-width: 0.7; stroke-linecap: square"/>
   </g>
   <g id="line2d_65">
    <path d="M 52.328571 100.792502 
L 107.868556 100.889253 
L 128.524705 101.200564 
L 146.418935 101.694264 
L 162.714533 102.3575 
L 179.258967 103.255668 
L 195.984786 104.396286 
L 212.829173 105.768589 
L 231.236037 107.49116 
L 253.778442 109.836839 
L 329.999159 117.978536 
L 351.593991 119.936751 
L 374.868217 121.814948 
L 406.586795 124.121897 
L 452.854059 127.504366 
L 485.887584 130.175272 
L 569.364518 137.033231 
L 689.542271 146.743748 
L 765.201961 152.862617 
L 765.201961 152.862617 
" clip-path="url(#pccc2aae1ad)" style="fill: none; stroke: #000000; stroke-width: 0.7; stroke-linecap: square"/>
   </g>
   <g id="line2d_66">
    <path d="M 52.328571 100.792502 
L 84.143279 100.682861 
L 107.918241 100.379151 
L 128.589461 99.896175 
L 148.338502 99.213912 
L 168.102971 98.30415 
L 188.656665 97.125382 
L 210.613279 95.637489 
L 238.130379 93.532381 
L 312.276871 87.726639 
L 338.467494 85.987719 
L 366.38992 84.368233 
L 413.970969 81.888071 
L 454.029261 79.686893 
L 501.896541 76.793394 
L 563.172318 73.156323 
L 719.508901 63.955149 
L 766.631696 61.179426 
L 766.631696 61.179426 
" clip-path="url(#pccc2aae1ad)" style="fill: none; stroke: #000000; stroke-width: 0.7; stroke-linecap: square"/>
   </g>
   <g id="line2d_67">
    <path d="M 52.328571 100.792502 
L 78.814818 100.910779 
L 102.863819 101.243625 
L 125.70837 101.780383 
L 149.276745 102.559567 
L 174.23491 103.609066 
L 205.095122 105.145298 
L 295.802141 109.820395 
L 326.202412 111.053597 
L 361.543972 112.247676 
L 445.96626 115.007034 
L 767.439556 126.896247 
L 767.439556 126.896247 
" clip-path="url(#pccc2aae1ad)" style="fill: none; stroke: #000000; stroke-width: 0.7; stroke-linecap: square"/>
   </g>
   <g id="line2d_68">
    <path d="M 52.328571 100.792502 
L 64.719717 100.677305 
L 77.874702 100.320646 
L 90.663033 99.741594 
L 103.096768 98.963172 
L 116.18075 97.924823 
L 129.840356 96.618765 
L 144.93015 94.943306 
L 161.279128 92.902671 
L 182.118739 90.067188 
L 238.211061 82.308164 
L 256.247052 80.117417 
L 272.818222 78.333348 
L 288.704395 76.845643 
L 305.184127 75.525617 
L 323.309162 74.299759 
L 346.641876 72.960802 
L 399.709767 69.993764 
L 422.035576 68.468593 
L 447.061465 66.524317 
L 527.557892 60.084248 
L 627.160122 52.59603 
L 767.949933 41.929931 
L 767.949933 41.929931 
" clip-path="url(#pccc2aae1ad)" style="fill: none; stroke: #000000; stroke-width: 0.7; stroke-linecap: square"/>
   </g>
   <g id="line2d_69">
    <path d="M 52.328571 100.792502 
L 74.765084 100.67352 
L 91.976335 100.368951 
L 107.548231 99.8797 
L 122.599333 99.179883 
L 137.151642 98.269448 
L 151.225848 97.158963 
L 164.841991 95.867312 
L 178.883338 94.318028 
L 194.11387 92.4064 
L 210.37409 90.135508 
L 229.787062 87.186186 
L 261.039982 82.164889 
L 290.558831 77.501498 
L 310.646026 74.556355 
L 329.097312 72.078529 
L 347.726557 69.805601 
L 368.490847 67.502919 
L 399.880195 64.279787 
L 436.184485 60.492577 
L 462.337786 57.526397 
L 499.808862 53.014661 
L 542.97785 47.887235 
L 768.913937 21.596628 
L 768.913937 21.596628 
" clip-path="url(#pccc2aae1ad)" style="fill: none; stroke: #000000; stroke-width: 0.7; stroke-linecap: square"/>
   </g>
   <g id="line2d_70">
    <path d="M 52.328571 100.792502 
L 77.811584 100.910309 
L 104.023922 101.25582 
L 133.611644 101.876544 
L 173.708134 102.966037 
L 236.568217 104.67488 
L 269.466982 105.322925 
L 302.235258 105.740532 
L 346.330325 106.05268 
L 409.174025 106.519361 
L 461.264565 107.176749 
L 539.374458 108.136433 
L 728.261242 110.342241 
L 769.23254 110.822384 
L 769.23254 110.822384 
" clip-path="url(#pccc2aae1ad)" style="fill: none; stroke: #000000; stroke-width: 0.7; stroke-linecap: square"/>
   </g>
   <g id="line2d_71">
    <path d="M 52.328571 100.792502 
L 79.024891 100.900357 
L 99.134041 101.189286 
L 117.404452 101.669153 
L 134.0016 102.317248 
L 150.914987 103.204334 
L 167.184853 104.279297 
L 183.698309 105.586111 
L 202.021875 107.267141 
L 222.648914 109.397012 
L 250.248757 112.495343 
L 298.185674 117.895317 
L 320.889092 120.204464 
L 342.772926 122.203584 
L 366.454919 124.134199 
L 400.841621 126.681029 
L 443.108288 129.860899 
L 475.430178 132.539891 
L 573.379334 140.829046 
L 700.745836 151.446144 
L 769.37295 157.168255 
L 769.37295 157.168255 
" clip-path="url(#pccc2aae1ad)" style="fill: none; stroke: #000000; stroke-width: 0.7; stroke-linecap: square"/>
   </g>
   <g id="line2d_72">
    <path d="M 52.328571 100.792502 
L 77.868273 100.677161 
L 153.438908 100.184712 
L 174.85534 100.356845 
L 194.411946 100.729598 
L 213.877039 101.322573 
L 233.951968 102.161041 
L 255.90255 103.306839 
L 283.982975 105.013336 
L 346.159549 108.862621 
L 372.677135 110.223296 
L 401.351954 111.462573 
L 499.691519 115.507108 
L 597.256436 119.92658 
L 769.749289 127.64113 
L 769.749289 127.64113 
" clip-path="url(#pccc2aae1ad)" style="fill: none; stroke: #000000; stroke-width: 0.7; stroke-linecap: square"/>
   </g>
   <g id="line2d_73">
    <path d="M 52.328571 100.792502 
L 74.772268 100.673556 
L 94.097315 100.345588 
L 111.633718 99.826763 
L 128.513175 99.106144 
L 144.769795 98.197602 
L 161.3395 97.056557 
L 179.017768 95.614634 
L 198.454437 93.797315 
L 221.701433 91.385192 
L 303.511404 82.667534 
L 325.444836 80.691645 
L 348.300855 78.864502 
L 375.84737 76.901323 
L 444.110463 72.135882 
L 478.339684 69.427818 
L 552.49722 63.494613 
L 681.249656 53.437326 
L 771.624023 46.361675 
L 771.624023 46.361675 
" clip-path="url(#pccc2aae1ad)" style="fill: none; stroke: #000000; stroke-width: 0.7; stroke-linecap: square"/>
   </g>
   <g id="line2d_74">
    <path d="M 52.328571 100.792502 
L 85.498876 100.674581 
L 128.29298 100.277088 
L 208.845061 99.489735 
L 245.046319 99.393133 
L 282.870339 99.522143 
L 342.86412 99.997821 
L 398.037639 100.338729 
L 466.62919 100.486051 
L 550.766623 100.765801 
L 772.225745 101.501069 
L 772.225745 101.501069 
" clip-path="url(#pccc2aae1ad)" style="fill: none; stroke: #000000; stroke-width: 0.7; stroke-linecap: square"/>
   </g>
   <g id="line2d_75">
    <path d="M 52.328571 100.792502 
L 77.040934 100.906608 
L 100.522874 101.240595 
L 122.865204 101.779857 
L 146.034637 102.56527 
L 170.714117 103.629184 
L 200.714161 105.161126 
L 295.876388 110.208016 
L 325.108074 111.414037 
L 358.629666 112.562894 
L 451.663126 115.616629 
L 774.93433 127.696123 
L 774.93433 127.696123 
" clip-path="url(#pccc2aae1ad)" style="fill: none; stroke: #000000; stroke-width: 0.7; stroke-linecap: square"/>
   </g>
   <g id="line2d_76">
    <path d="M 52.328571 100.792502 
L 102.747369 100.896485 
L 124.065825 101.179167 
L 143.471661 101.658667 
L 161.14557 102.315838 
L 178.119656 103.161784 
L 195.273526 104.232965 
L 213.347363 105.583756 
L 233.704236 107.339944 
L 258.816535 109.751183 
L 327.188332 116.450253 
L 350.137761 118.394524 
L 374.208364 120.203674 
L 405.114475 122.279654 
L 460.890595 126.002518 
L 497.136571 128.700376 
L 569.961686 134.165315 
L 704.306705 144.065573 
L 775.054115 149.286553 
L 775.054115 149.286553 
" clip-path="url(#pccc2aae1ad)" style="fill: none; stroke: #000000; stroke-width: 0.7; stroke-linecap: square"/>
   </g>
   <g id="line2d_77">
    <path d="M 52.328571 100.792502 
L 80.32994 100.680531 
L 108.809518 100.342473 
L 138.503559 99.765821 
L 174.34999 98.835113 
L 281.600602 95.883834 
L 318.176945 95.21527 
L 368.046375 94.5572 
L 431.548108 93.675525 
L 592.340749 90.922771 
L 775.634657 87.853616 
L 775.634657 87.853616 
" clip-path="url(#pccc2aae1ad)" style="fill: none; stroke: #000000; stroke-width: 0.7; stroke-linecap: square"/>
   </g>
   <g id="line2d_78">
    <path d="M 52.328571 100.792502 
L 76.032952 100.673204 
L 153.880075 100.084641 
L 173.840851 100.27631 
L 192.062259 100.67409 
L 209.520059 101.273461 
L 227.817011 102.131616 
L 246.790521 103.249992 
L 268.391709 104.752082 
L 299.911488 107.195129 
L 340.552407 110.306148 
L 364.847362 111.933431 
L 388.946186 113.324162 
L 419.454919 114.843598 
L 479.014319 117.772023 
L 520.900658 120.135799 
L 580.857355 123.481566 
L 728.860948 131.622658 
L 776.298296 134.235255 
L 776.298296 134.235255 
" clip-path="url(#pccc2aae1ad)" style="fill: none; stroke: #000000; stroke-width: 0.7; stroke-linecap: square"/>
   </g>
   <g id="line2d_79">
    <path d="M 52.328571 100.792502 
L 85.83736 100.678214 
L 123.119592 100.318282 
L 173.823708 99.57853 
L 244.593723 98.567575 
L 286.963568 98.207313 
L 336.220698 98.0299 
L 428.233811 97.7305 
L 777.213815 95.752083 
L 777.213815 95.752083 
" clip-path="url(#pccc2aae1ad)" style="fill: none; stroke: #000000; stroke-width: 0.7; stroke-linecap: square"/>
   </g>
   <g id="line2d_80">
    <path d="M 52.328571 100.792502 
L 72.982669 100.679561 
L 90.619018 100.367484 
L 106.567936 99.869821 
L 121.977147 99.16656 
L 136.870555 98.262391 
L 151.270735 97.171259 
L 166.111839 95.825059 
L 181.321824 94.223225 
L 197.677086 92.274934 
L 215.818807 89.887936 
L 239.289514 86.560538 
L 294.401443 78.655783 
L 314.878541 76.001559 
L 334.265445 73.717523 
L 354.313634 71.587228 
L 377.93442 69.315972 
L 456.756957 61.936083 
L 487.993938 58.623528 
L 551.991193 51.787766 
L 722.748398 34.03359 
L 779.683851 28.100682 
L 779.683851 28.100682 
" clip-path="url(#pccc2aae1ad)" style="fill: none; stroke: #000000; stroke-width: 0.7; stroke-linecap: square"/>
   </g>
   <g id="line2d_81">
    <path d="M 52.328571 100.792502 
L 79.501978 100.90726 
L 110.378887 101.268076 
L 152.638655 102.008913 
L 215.358673 103.095519 
L 248.741951 103.431738 
L 280.884432 103.532528 
L 319.848803 103.417094 
L 408.576862 103.075442 
L 464.655433 103.195537 
L 537.000673 103.293028 
L 714.879802 103.427285 
L 780.489169 103.480881 
L 780.489169 103.480881 
" clip-path="url(#pccc2aae1ad)" style="fill: none; stroke: #000000; stroke-width: 0.7; stroke-linecap: square"/>
   </g>
   <g id="line2d_82">
    <path d="M 52.328571 100.792502 
L 74.098501 100.903748 
L 93.843075 101.223198 
L 111.752193 101.72608 
L 129.977261 102.465303 
L 147.485898 103.397737 
L 165.234459 104.559157 
L 184.902956 106.077453 
L 207.012038 108.021643 
L 236.540949 110.866129 
L 286.99889 115.745997 
L 311.187507 117.839692 
L 334.458798 119.626388 
L 359.595571 121.321285 
L 395.522884 123.486759 
L 440.663704 126.250941 
L 474.356975 128.55947 
L 580.085675 135.984258 
L 723.352863 145.878677 
L 781.710128 149.909267 
L 781.710128 149.909267 
" clip-path="url(#pccc2aae1ad)" style="fill: none; stroke: #000000; stroke-width: 0.7; stroke-linecap: square"/>
   </g>
   <g id="line2d_83">
    <path d="M 52.328571 100.792502 
L 82.11669 100.682128 
L 102.763157 100.396506 
L 121.510526 99.917852 
L 138.531886 99.265825 
L 154.923466 98.422192 
L 171.62843 97.336377 
L 188.574271 96.005684 
L 206.530776 94.36306 
L 226.123712 92.340446 
L 250.829314 89.550307 
L 314.750813 82.2126 
L 336.802812 79.97464 
L 358.668885 77.981331 
L 383.367082 75.964904 
L 430.735909 72.394955 
L 463.668393 69.772226 
L 498.500249 66.754043 
L 566.495134 60.823429 
L 707.739341 48.772157 
L 784.92371 42.173233 
L 784.92371 42.173233 
" clip-path="url(#pccc2aae1ad)" style="fill: none; stroke: #000000; stroke-width: 0.7; stroke-linecap: square"/>
   </g>
   <g id="line2d_84">
    <path d="M 52.328571 100.792502 
L 88.612823 100.678063 
L 137.287598 100.27955 
L 214.544218 99.64378 
L 255.163755 99.559641 
L 297.993592 99.704773 
L 440.991917 100.397021 
L 562.145172 100.659555 
L 785.828686 101.231862 
L 785.828686 101.231862 
" clip-path="url(#pccc2aae1ad)" style="fill: none; stroke: #000000; stroke-width: 0.7; stroke-linecap: square"/>
   </g>
   <g id="line2d_85">
    <path d="M 52.328571 100.792502 
L 79.849528 100.676465 
L 112.149121 100.304957 
L 165.10584 99.4249 
L 209.857314 98.774806 
L 241.885077 98.528924 
L 272.962799 98.512108 
L 308.884397 98.726695 
L 417.031679 99.536516 
L 489.705207 99.601357 
L 566.951899 99.826646 
L 786.774293 100.41279 
L 786.774293 100.41279 
" clip-path="url(#pccc2aae1ad)" style="fill: none; stroke: #000000; stroke-width: 0.7; stroke-linecap: square"/>
   </g>
   <g id="line2d_86">
    <path d="M 52.328571 100.792502 
L 82.157752 100.674242 
L 111.271805 100.32941 
L 140.625012 99.759157 
L 174.575283 98.869884 
L 231.392684 97.109447 
L 279.13151 95.733097 
L 315.878417 94.902223 
L 357.790844 94.19162 
L 454.168426 92.640113 
L 788.048575 86.272778 
L 788.048575 86.272778 
" clip-path="url(#pccc2aae1ad)" style="fill: none; stroke: #000000; stroke-width: 0.7; stroke-linecap: square"/>
   </g>
   <g id="line2d_87">
    <path d="M 52.328571 100.792502 
L 82.1905 100.674968 
L 107.130221 100.360771 
L 130.796996 99.844489 
L 154.239369 99.111511 
L 179.201805 98.099232 
L 207.018317 96.735915 
L 246.28976 94.558222 
L 299.057728 91.661733 
L 330.30557 90.186024 
L 362.368516 88.902817 
L 414.170597 87.101387 
L 461.587846 85.352353 
L 529.920696 82.534984 
L 645.585084 77.928996 
L 788.14898 72.240257 
L 788.14898 72.240257 
" clip-path="url(#pccc2aae1ad)" style="fill: none; stroke: #000000; stroke-width: 0.7; stroke-linecap: square"/>
   </g>
   <g id="line2d_88">
    <path d="M 52.328571 100.792502 
L 107.106913 100.67661 
L 167.337966 100.313566 
L 322.400023 99.258469 
L 788.505732 97.301159 
L 788.505732 97.301159 
" clip-path="url(#pccc2aae1ad)" style="fill: none; stroke: #000000; stroke-width: 0.7; stroke-linecap: square"/>
   </g>
   <g id="line2d_89">
    <path d="M 52.328571 100.792502 
L 83.562147 100.902821 
L 103.304926 101.188992 
L 120.178084 101.643862 
L 136.447869 102.308831 
L 151.178133 103.127026 
L 166.358008 104.199524 
L 181.013008 105.459994 
L 196.036322 106.975999 
L 212.194419 108.840794 
L 229.322885 111.045849 
L 250.300013 113.986097 
L 328.015121 125.137754 
L 347.181495 127.519943 
L 367.007919 129.755857 
L 389.35003 132.040864 
L 427.519476 135.6686 
L 460.070059 138.868124 
L 488.388033 141.88754 
L 607.638223 154.906108 
L 788.803018 174.452179 
L 788.803018 174.452179 
" clip-path="url(#pccc2aae1ad)" style="fill: none; stroke: #000000; stroke-width: 0.7; stroke-linecap: square"/>
   </g>
   <g id="line2d_90">
    <path d="M 52.328571 100.792502 
L 84.58102 100.904027 
L 109.53229 101.210298 
L 132.20495 101.716134 
L 153.795181 102.427907 
L 175.290975 103.366992 
L 197.498518 104.564968 
L 222.681571 106.157222 
L 257.005063 108.577802 
L 310.629416 112.357435 
L 338.712196 114.094453 
L 366.928117 115.614406 
L 403.963616 117.364637 
L 463.111975 120.163099 
L 509.3023 122.627394 
L 578.998843 126.320438 
L 747.604576 135.134511 
L 790.366235 137.372126 
L 790.366235 137.372126 
" clip-path="url(#pccc2aae1ad)" style="fill: none; stroke: #000000; stroke-width: 0.7; stroke-linecap: square"/>
   </g>
   <g id="line2d_91">
    <path d="M 52.328571 100.792502 
L 71.066462 100.681836 
L 89.100953 100.356869 
L 106.469703 99.819151 
L 123.207305 99.081499 
L 140.335596 98.102744 
L 157.775395 96.883603 
L 176.362855 95.361713 
L 197.643744 93.389162 
L 226.040504 90.510684 
L 278.17454 85.191591 
L 301.510487 83.063517 
L 323.477423 81.286116 
L 345.956002 79.692759 
L 373.096978 78.002003 
L 448.054832 73.459145 
L 481.551658 71.095373 
L 561.06251 65.396885 
L 684.920982 56.786115 
L 790.628134 49.413584 
L 790.628134 49.413584 
" clip-path="url(#pccc2aae1ad)" style="fill: none; stroke: #000000; stroke-width: 0.7; stroke-linecap: square"/>
   </g>
   <g id="line2d_92">
    <path d="M 52.328571 100.792502 
L 83.720031 100.902831 
L 104.637948 101.189706 
L 123.625865 101.676263 
L 140.86064 102.344559 
L 157.453059 103.214488 
L 173.435858 104.272022 
L 189.72883 105.570061 
L 207.114363 107.184784 
L 226.232344 109.197527 
L 249.103375 111.848971 
L 329.04082 121.350172 
L 350.115294 123.500714 
L 372.18529 125.52448 
L 398.491351 127.69874 
L 471.572469 133.607363 
L 506.373342 136.76894 
L 571.03576 142.670122 
L 724.259633 156.340456 
L 792.575941 162.447983 
L 792.575941 162.447983 
" clip-path="url(#pccc2aae1ad)" style="fill: none; stroke: #000000; stroke-width: 0.7; stroke-linecap: square"/>
   </g>
   <g id="line2d_93">
    <path d="M 52.328571 100.792502 
L 125.374138 100.694679 
L 153.201929 100.383663 
L 177.573104 99.892778 
L 201.508626 99.191921 
L 226.597732 98.233617 
L 255.554433 96.896619 
L 308.377178 94.173349 
L 346.385678 92.335432 
L 378.493809 91.00854 
L 417.847733 89.625186 
L 488.437303 87.164476 
L 792.665997 75.547174 
L 792.665997 75.547174 
" clip-path="url(#pccc2aae1ad)" style="fill: none; stroke: #000000; stroke-width: 0.7; stroke-linecap: square"/>
   </g>
   <g id="line2d_94">
    <path d="M 52.328571 100.792502 
L 135.980708 100.686268 
L 173.661837 100.389734 
L 210.061761 99.87753 
L 250.557352 99.072158 
L 390.874806 96.058687 
L 636.923115 91.902953 
L 795.966668 89.138458 
L 795.966668 89.138458 
" clip-path="url(#pccc2aae1ad)" style="fill: none; stroke: #000000; stroke-width: 0.7; stroke-linecap: square"/>
   </g>
   <g id="line2d_95">
    <path d="M 52.328571 100.792502 
L 77.208555 100.679024 
L 96.450789 100.37262 
L 113.871054 99.866308 
L 129.625477 99.184793 
L 144.847266 98.302603 
L 159.560008 97.229646 
L 174.717937 95.89518 
L 190.246604 94.294351 
L 206.075473 92.438116 
L 223.793401 90.129942 
L 244.692924 87.173075 
L 323.107522 75.829073 
L 342.377881 73.407601 
L 361.811714 71.18885 
L 383.448487 68.949604 
L 414.168506 66.022362 
L 455.957898 62.007318 
L 483.659628 59.100179 
L 525.346506 54.456204 
L 568.993456 49.684782 
L 735.886157 31.752508 
L 797.074556 25.16366 
L 797.074556 25.16366 
" clip-path="url(#pccc2aae1ad)" style="fill: none; stroke: #000000; stroke-width: 0.7; stroke-linecap: square"/>
   </g>
   <g id="line2d_96">
    <path d="M 52.328571 100.792502 
L 76.093709 100.678482 
L 96.527111 100.360597 
L 115.046714 99.853624 
L 132.853093 99.145168 
L 149.985058 98.247602 
L 167.429954 97.11568 
L 186.023437 95.67992 
L 205.577067 93.945491 
L 229.202392 91.613497 
L 268.984838 87.409579 
L 301.712672 84.04881 
L 325.493067 81.827701 
L 348.42302 79.913674 
L 372.758735 78.112514 
L 406.228859 75.883648 
L 455.47423 72.586316 
L 488.453882 70.125613 
L 603.086271 61.352746 
L 792.935306 47.032698 
L 800.029809 46.497706 
L 800.029809 46.497706 
" clip-path="url(#pccc2aae1ad)" style="fill: none; stroke: #000000; stroke-width: 0.7; stroke-linecap: square"/>
   </g>
   <g id="line2d_97">
    <path d="M 52.328571 100.792502 
L 86.46637 100.676701 
L 110.837748 100.372783 
L 131.9441 99.896532 
L 152.119071 99.225201 
L 172.365458 98.325635 
L 192.61373 97.202872 
L 214.511605 95.761541 
L 240.152925 93.837853 
L 282.694071 90.373516 
L 319.056612 87.505593 
L 346.137088 85.596449 
L 372.975781 83.934791 
L 406.04934 82.129773 
L 474.221547 78.463453 
L 518.073786 75.800056 
L 584.770792 71.770965 
L 743.032659 62.362707 
L 801.558001 58.878574 
L 801.558001 58.878574 
" clip-path="url(#pccc2aae1ad)" style="fill: none; stroke: #000000; stroke-width: 0.7; stroke-linecap: square"/>
   </g>
   <g id="line2d_98">
    <path d="M 52.328571 100.792502 
L 102.102537 100.907255 
L 180.768715 101.090348 
L 220.517014 100.939039 
L 259.891931 100.562518 
L 310.783794 99.829635 
L 390.39886 98.686708 
L 450.864473 98.096147 
L 540.976699 97.191591 
L 752.692213 94.94575 
L 802.626732 94.418114 
L 802.626732 94.418114 
" clip-path="url(#pccc2aae1ad)" style="fill: none; stroke: #000000; stroke-width: 0.7; stroke-linecap: square"/>
   </g>
   <g id="line2d_99">
    <path d="M 52.328571 100.792502 
L 77.327068 100.677993 
L 101.096435 100.341252 
L 123.726939 99.793353 
L 146.301774 99.023086 
L 170.652444 97.959369 
L 198.194881 96.517499 
L 237.239872 94.218117 
L 288.154871 91.253801 
L 317.6338 89.76963 
L 346.762218 88.528235 
L 381.996893 87.264677 
L 459.803225 84.544067 
L 510.4232 82.447452 
L 577.752952 79.710497 
L 744.347559 73.047588 
L 803.03164 70.696756 
L 803.03164 70.696756 
" clip-path="url(#pccc2aae1ad)" style="fill: none; stroke: #000000; stroke-width: 0.7; stroke-linecap: square"/>
   </g>
   <g id="line2d_100">
    <path d="M 52.328571 100.792502 
L 73.870276 100.670698 
L 96.733618 100.309243 
L 122.789502 99.659587 
L 157.355441 98.548583 
L 216.786595 96.616618 
L 244.064286 95.976365 
L 268.884038 95.610982 
L 294.356796 95.458118 
L 324.134667 95.514701 
L 429.669781 95.942346 
L 472.750936 95.685966 
L 535.765173 95.333841 
L 804.471429 94.386445 
L 804.471429 94.386445 
" clip-path="url(#pccc2aae1ad)" style="fill: none; stroke: #000000; stroke-width: 0.7; stroke-linecap: square"/>
   </g>
  </g>
 </g>
 <defs>
  <clipPath id="pccc2aae1ad">
   <rect x="7.2" y="7.2" width="842.4" height="216.131369"/>
  </clipPath>
 </defs>
</svg>
