<?xml version="1.0" encoding="UTF-8"?>
<svg id="Layer_1" xmlns="http://www.w3.org/2000/svg" version="1.1" viewBox="0 0 992.13 619.8">
  <!-- Generator: Adobe Illustrator 29.5.1, SVG Export Plug-In . SVG Version: 2.1.0 Build 141)  -->
  <defs>
    <style>
      .st0 {
        stroke: blue;
        stroke-width: .5px;
      }

      .st0, .st1, .st2 {
        stroke-linecap: square;
        stroke-linejoin: round;
      }

      .st0, .st1, .st2, .st3 {
        fill: none;
      }

      .st1 {
        stroke: red;
        stroke-opacity: .55;
        stroke-width: .6px;
      }

      .st2 {
        stroke-width: .8px;
      }

      .st2, .st3 {
        stroke: #000;
      }
    </style>
  </defs>
  <g id="figure_1">
    <g id="axes_1">
      <g id="line2d_2">
        <path class="st0" d="M123.94,131.97v81.55"/>
      </g>
      <g id="line2d_3">
        <path class="st0" d="M123.94,213.53l1.49,4.49"/>
      </g>
      <g id="line2d_4">
        <path class="st0" d="M125.43,218.01l198.27,340.16"/>
      </g>
      <g id="line2d_5">
        <path class="st0" d="M128.66,131.97v75.11"/>
      </g>
      <g id="line2d_6">
        <path class="st0" d="M128.66,207.08l2.93,10.93"/>
      </g>
      <g id="line2d_7">
        <path class="st0" d="M131.59,218.01l154.89,340.16"/>
      </g>
      <g id="line2d_8">
        <path class="st0" d="M133.39,131.97v69.74"/>
      </g>
      <g id="line2d_9">
        <path class="st0" d="M133.39,201.71l3.62,16.3"/>
      </g>
      <g id="line2d_10">
        <path class="st0" d="M137.01,218.01l125.8,340.16"/>
      </g>
      <g id="line2d_11">
        <path class="st0" d="M138.11,131.97v65.17"/>
      </g>
      <g id="line2d_12">
        <path class="st0" d="M138.11,197.15l3.89,20.86"/>
      </g>
      <g id="line2d_13">
        <path class="st0" d="M142,218.01l104.46,340.16"/>
      </g>
      <g id="line2d_14">
        <path class="st0" d="M142.83,131.97v61.25"/>
      </g>
      <g id="line2d_15">
        <path class="st0" d="M142.83,193.22l3.92,24.79"/>
      </g>
      <g id="line2d_16">
        <path class="st0" d="M146.76,218.01l87.86,340.16"/>
      </g>
      <g id="line2d_17">
        <path class="st0" d="M147.56,131.97v57.85"/>
      </g>
      <g id="line2d_18">
        <path class="st0" d="M147.56,189.82l3.8,28.19"/>
      </g>
      <g id="line2d_19">
        <path class="st0" d="M151.36,218.01l74.4,340.16"/>
      </g>
      <g id="line2d_20">
        <path class="st0" d="M152.28,131.97v54.91"/>
      </g>
      <g id="line2d_21">
        <path class="st0" d="M152.28,186.89l3.57,31.13"/>
      </g>
      <g id="line2d_22">
        <path class="st0" d="M155.86,218.01l63.11,340.16"/>
      </g>
      <g id="line2d_23">
        <path class="st0" d="M157.01,131.97v52.38"/>
      </g>
      <g id="line2d_24">
        <path class="st0" d="M157.01,184.35l3.28,33.66"/>
      </g>
      <g id="line2d_25">
        <path class="st0" d="M160.29,218.01l53.39,340.16"/>
      </g>
      <g id="line2d_26">
        <path class="st0" d="M161.73,131.97v50.21"/>
      </g>
      <g id="line2d_27">
        <path class="st0" d="M161.73,182.19l2.94,35.83"/>
      </g>
      <g id="line2d_28">
        <path class="st0" d="M164.67,218.01l44.83,340.16"/>
      </g>
      <g id="line2d_29">
        <path class="st0" d="M166.46,131.97v48.38"/>
      </g>
      <g id="line2d_30">
        <path class="st0" d="M166.46,180.36l2.56,37.66"/>
      </g>
      <g id="line2d_31">
        <path class="st0" d="M169.02,218.01l37.13,340.16"/>
      </g>
      <g id="line2d_32">
        <path class="st0" d="M171.18,131.97v46.87"/>
      </g>
      <g id="line2d_33">
        <path class="st0" d="M171.18,178.84l2.16,39.17"/>
      </g>
      <g id="line2d_34">
        <path class="st0" d="M173.34,218.01l30.1,340.16"/>
      </g>
      <g id="line2d_35">
        <path class="st0" d="M175.91,131.97v45.65"/>
      </g>
      <g id="line2d_36">
        <path class="st0" d="M175.91,177.62l1.75,40.39"/>
      </g>
      <g id="line2d_37">
        <path class="st0" d="M177.65,218.01l23.55,340.16"/>
      </g>
      <g id="line2d_38">
        <path class="st0" d="M180.63,131.97v44.71"/>
      </g>
      <g id="line2d_39">
        <path class="st0" d="M180.63,176.68l1.32,41.33"/>
      </g>
      <g id="line2d_40">
        <path class="st0" d="M181.95,218.01l17.37,340.16"/>
      </g>
      <g id="line2d_41">
        <path class="st0" d="M185.35,131.97v44.05"/>
      </g>
      <g id="line2d_42">
        <path class="st0" d="M185.35,176.02l.88,41.99"/>
      </g>
      <g id="line2d_43">
        <path class="st0" d="M186.24,218.01l11.44,340.16"/>
      </g>
      <g id="line2d_44">
        <path class="st0" d="M190.08,131.97v43.65"/>
      </g>
      <g id="line2d_45">
        <path class="st0" d="M190.08,175.62l.44,42.39"/>
      </g>
      <g id="line2d_46">
        <path class="st0" d="M190.52,218.01l5.68,340.16"/>
      </g>
      <g id="line2d_47">
        <path class="st0" d="M194.8,131.97v43.52"/>
      </g>
      <g id="line2d_48">
        <path class="st0" d="M194.8,175.49v42.52"/>
      </g>
      <g id="line2d_49">
        <path class="st0" d="M194.8,218.01v340.16"/>
      </g>
      <g id="line2d_50">
        <path class="st0" d="M199.53,131.97v43.65"/>
      </g>
      <g id="line2d_51">
        <path class="st0" d="M199.53,175.62l-.44,42.39"/>
      </g>
      <g id="line2d_52">
        <path class="st0" d="M199.09,218.01l-5.68,340.16"/>
      </g>
      <g id="line2d_53">
        <path class="st0" d="M204.25,131.97v44.05"/>
      </g>
      <g id="line2d_54">
        <path class="st0" d="M204.25,176.02l-.88,41.99"/>
      </g>
      <g id="line2d_55">
        <path class="st0" d="M203.37,218.01l-11.44,340.16"/>
      </g>
      <g id="line2d_56">
        <path class="st0" d="M208.98,131.97v44.71"/>
      </g>
      <g id="line2d_57">
        <path class="st0" d="M208.98,176.68l-1.32,41.33"/>
      </g>
      <g id="line2d_58">
        <path class="st0" d="M207.66,218.01l-17.37,340.16"/>
      </g>
      <g id="line2d_59">
        <path class="st0" d="M213.7,131.97v45.65"/>
      </g>
      <g id="line2d_60">
        <path class="st0" d="M213.7,177.62l-1.75,40.39"/>
      </g>
      <g id="line2d_61">
        <path class="st0" d="M211.96,218.01l-23.55,340.16"/>
      </g>
      <g id="line2d_62">
        <path class="st0" d="M218.43,131.97v46.87"/>
      </g>
      <g id="line2d_63">
        <path class="st0" d="M218.43,178.84l-2.16,39.17"/>
      </g>
      <g id="line2d_64">
        <path class="st0" d="M216.26,218.01l-30.1,340.16"/>
      </g>
      <g id="line2d_65">
        <path class="st0" d="M223.15,131.97v48.38"/>
      </g>
      <g id="line2d_66">
        <path class="st0" d="M223.15,180.36l-2.56,37.66"/>
      </g>
      <g id="line2d_67">
        <path class="st0" d="M220.59,218.01l-37.13,340.16"/>
      </g>
      <g id="line2d_68">
        <path class="st0" d="M227.87,131.97v50.21"/>
      </g>
      <g id="line2d_69">
        <path class="st0" d="M227.87,182.19l-2.94,35.83"/>
      </g>
      <g id="line2d_70">
        <path class="st0" d="M224.94,218.01l-44.83,340.16"/>
      </g>
      <g id="line2d_71">
        <path class="st0" d="M232.6,131.97v52.38"/>
      </g>
      <g id="line2d_72">
        <path class="st0" d="M232.6,184.35l-3.28,33.66"/>
      </g>
      <g id="line2d_73">
        <path class="st0" d="M229.32,218.01l-53.39,340.16"/>
      </g>
      <g id="line2d_74">
        <path class="st0" d="M237.32,131.97v54.91"/>
      </g>
      <g id="line2d_75">
        <path class="st0" d="M237.32,186.89l-3.57,31.13"/>
      </g>
      <g id="line2d_76">
        <path class="st0" d="M233.75,218.01l-63.11,340.16"/>
      </g>
      <g id="line2d_77">
        <path class="st0" d="M242.05,131.97v57.85"/>
      </g>
      <g id="line2d_78">
        <path class="st0" d="M242.05,189.82l-3.8,28.19"/>
      </g>
      <g id="line2d_79">
        <path class="st0" d="M238.25,218.01l-74.4,340.16"/>
      </g>
      <g id="line2d_80">
        <path class="st0" d="M246.77,131.97v61.25"/>
      </g>
      <g id="line2d_81">
        <path class="st0" d="M246.77,193.22l-3.92,24.79"/>
      </g>
      <g id="line2d_82">
        <path class="st0" d="M242.85,218.01l-87.86,340.16"/>
      </g>
      <g id="line2d_83">
        <path class="st0" d="M251.5,131.97v65.17"/>
      </g>
      <g id="line2d_84">
        <path class="st0" d="M251.5,197.15l-3.89,20.86"/>
      </g>
      <g id="line2d_85">
        <path class="st0" d="M247.6,218.01l-104.46,340.16"/>
      </g>
      <g id="line2d_86">
        <path class="st0" d="M256.22,131.97v69.74"/>
      </g>
      <g id="line2d_87">
        <path class="st0" d="M256.22,201.71l-3.62,16.3"/>
      </g>
      <g id="line2d_88">
        <path class="st0" d="M252.6,218.01l-125.8,340.16"/>
      </g>
      <g id="line2d_89">
        <path class="st0" d="M260.94,131.97v75.11"/>
      </g>
      <g id="line2d_90">
        <path class="st0" d="M260.94,207.08l-2.93,10.93"/>
      </g>
      <g id="line2d_91">
        <path class="st0" d="M258.01,218.01l-154.89,340.16"/>
      </g>
      <g id="line2d_92">
        <path class="st0" d="M265.67,131.97v81.55"/>
      </g>
      <g id="line2d_93">
        <path class="st0" d="M265.67,213.53l-1.49,4.49"/>
      </g>
      <g id="line2d_94">
        <path class="st0" d="M264.18,218.01l-198.27,340.16"/>
      </g>
      <g id="line2d_95">
        <path class="st2" d="M123.94,213.53l2.49-3.55,2.84-3.63,2.84-3.26,3.2-3.3,3.2-2.97,3.2-2.69,3.55-2.69,3.55-2.41,3.55-2.16,3.91-2.12,3.91-1.86,3.91-1.63,4.26-1.52,4.26-1.27,4.26-1.04,4.26-.81,4.26-.58,4.26-.37,4.26-.15,4.26.06,4.26.28,4.26.49,4.26.71,4.26.94,4.26,1.17,4.26,1.42,3.91,1.52,3.91,1.75,3.91,2,3.91,2.26,3.55,2.31,3.55,2.58,3.55,2.87,3.2,2.87,3.2,3.19,2.84,3.14,2.84,3.49,2.49,3.39,1.07,1.57h0"/>
      </g>
      <g id="line2d_96">
        <path class="st2" d="M123.94,218.01h141.73"/>
      </g>
      <g id="line2d_97">
        <path class="st2" d="M123.94,218.01v-4.49"/>
      </g>
      <g id="line2d_98">
        <path class="st2" d="M265.67,218.01v-4.49"/>
      </g>
      <g id="line2d_99">
        <path class="st1" d="M279.84,260.53l-.13-4.68-.39-4.66-.64-4.64-.9-4.59-1.15-4.54-1.4-4.47-1.64-4.38-1.88-4.29-2.11-4.18-2.34-4.06-2.56-3.92-2.77-3.77-2.97-3.62-3.17-3.45-3.35-3.27-3.53-3.08-3.69-2.88-3.84-2.67-3.98-2.46-4.11-2.23-4.23-2-4.33-1.77-4.42-1.53-4.5-1.28-4.57-1.03-4.62-.78-4.65-.52-4.67-.27h-4.68s-4.67.24-4.67.24l-4.65.51-4.62.76-4.57,1.01-4.51,1.26-4.43,1.51-4.34,1.75-4.24,1.99-4.12,2.22-3.99,2.44-3.85,2.66-3.7,2.86-3.54,3.06-3.36,3.25-3.18,3.43-2.99,3.6-2.78,3.76-2.57,3.91-2.35,4.05-2.13,4.17-1.89,4.28-1.66,4.38-1.41,4.46-1.17,4.53-.91,4.59-.66,4.63-.4,4.66-.15,4.68.11,4.68.37,4.67.62,4.64.88,4.6,1.13,4.54,1.38,4.47,1.62,4.39,1.86,4.29,2.09,4.19,2.32,4.06,2.54,3.93,2.75,3.78,2.96,3.63,3.15,3.46,3.34,3.28,3.51,3.09,3.68,2.89,3.83,2.69,3.97,2.47,4.1,2.25,4.22,2.02,4.33,1.78,4.42,1.54,4.5,1.3,4.56,1.05,4.61.8,4.65.54,4.67.29,4.68.03,4.67-.23,4.66-.49,4.62-.74,4.57-1,4.51-1.25,4.44-1.49,4.35-1.73,4.25-1.97,4.13-2.2,4-2.42,3.86-2.64,3.71-2.85,3.55-3.05,3.38-3.24,3.19-3.42,3-3.59,2.8-3.75,2.59-3.9,2.37-4.04,2.14-4.16,1.91-4.27,1.67-4.37,1.43-4.46,1.18-4.53.93-4.59.68-4.63.42-4.66.17-4.68v-.67h0"/>
      </g>
      <g id="line2d_100">
        <path class="st0" d="M279.84,131.97v78.77"/>
      </g>
      <g id="line2d_101">
        <path class="st0" d="M279.84,210.74l1.89,7.27"/>
      </g>
      <g id="line2d_102">
        <path class="st0" d="M281.74,218.01l149.96,340.16"/>
      </g>
      <g id="line2d_103">
        <path class="st0" d="M284.57,131.97v73.34"/>
      </g>
      <g id="line2d_104">
        <path class="st0" d="M284.57,205.31l2.84,12.7"/>
      </g>
      <g id="line2d_105">
        <path class="st0" d="M287.4,218.01l126.65,340.16"/>
      </g>
      <g id="line2d_106">
        <path class="st0" d="M289.29,131.97v68.6"/>
      </g>
      <g id="line2d_107">
        <path class="st0" d="M289.29,200.57l3.37,17.44"/>
      </g>
      <g id="line2d_108">
        <path class="st0" d="M292.66,218.01l108.27,340.16"/>
      </g>
      <g id="line2d_109">
        <path class="st0" d="M294.02,131.97v64.44"/>
      </g>
      <g id="line2d_110">
        <path class="st0" d="M294.02,196.41l3.62,21.6"/>
      </g>
      <g id="line2d_111">
        <path class="st0" d="M297.63,218.01l93.23,340.16"/>
      </g>
      <g id="line2d_112">
        <path class="st0" d="M298.74,131.97v60.77"/>
      </g>
      <g id="line2d_113">
        <path class="st0" d="M298.74,192.75l3.68,25.26"/>
      </g>
      <g id="line2d_114">
        <path class="st0" d="M302.42,218.01l80.56,340.16"/>
      </g>
      <g id="line2d_115">
        <path class="st0" d="M303.46,131.97v57.55"/>
      </g>
      <g id="line2d_116">
        <path class="st0" d="M303.46,189.53l3.6,28.49"/>
      </g>
      <g id="line2d_117">
        <path class="st0" d="M307.06,218.01l69.64,340.16"/>
      </g>
      <g id="line2d_118">
        <path class="st0" d="M308.19,131.97v54.73"/>
      </g>
      <g id="line2d_119">
        <path class="st0" d="M308.19,186.71l3.42,31.31"/>
      </g>
      <g id="line2d_120">
        <path class="st0" d="M311.61,218.01l60.03,340.16"/>
      </g>
      <g id="line2d_121">
        <path class="st0" d="M312.91,131.97v52.27"/>
      </g>
      <g id="line2d_122">
        <path class="st0" d="M312.91,184.25l3.17,33.77"/>
      </g>
      <g id="line2d_123">
        <path class="st0" d="M316.08,218.01l51.43,340.16"/>
      </g>
      <g id="line2d_124">
        <path class="st0" d="M317.64,131.97v50.15"/>
      </g>
      <g id="line2d_125">
        <path class="st0" d="M317.64,182.13l2.86,35.89"/>
      </g>
      <g id="line2d_126">
        <path class="st0" d="M320.5,218.01l43.62,340.16"/>
      </g>
      <g id="line2d_127">
        <path class="st0" d="M322.36,131.97v48.35"/>
      </g>
      <g id="line2d_128">
        <path class="st0" d="M322.36,180.33l2.51,37.69"/>
      </g>
      <g id="line2d_129">
        <path class="st0" d="M324.88,218.01l36.43,340.16"/>
      </g>
      <g id="line2d_130">
        <path class="st0" d="M327.09,131.97v46.85"/>
      </g>
      <g id="line2d_131">
        <path class="st0" d="M327.09,178.83l2.13,39.19"/>
      </g>
      <g id="line2d_132">
        <path class="st0" d="M329.22,218.01l29.71,340.16"/>
      </g>
      <g id="line2d_133">
        <path class="st0" d="M331.81,131.97v45.64"/>
      </g>
      <g id="line2d_134">
        <path class="st0" d="M331.81,177.61l1.73,40.4"/>
      </g>
      <g id="line2d_135">
        <path class="st0" d="M333.54,218.01l23.36,340.16"/>
      </g>
      <g id="line2d_136">
        <path class="st0" d="M336.54,131.97v44.71"/>
      </g>
      <g id="line2d_137">
        <path class="st0" d="M336.54,176.68l1.31,41.33"/>
      </g>
      <g id="line2d_138">
        <path class="st0" d="M337.85,218.01l17.29,340.16"/>
      </g>
      <g id="line2d_139">
        <path class="st0" d="M341.26,131.97v44.05"/>
      </g>
      <g id="line2d_140">
        <path class="st0" d="M341.26,176.02l.88,41.99"/>
      </g>
      <g id="line2d_141">
        <path class="st0" d="M342.14,218.01l11.42,340.16"/>
      </g>
      <g id="line2d_142">
        <path class="st0" d="M345.98,131.97v43.65"/>
      </g>
      <g id="line2d_143">
        <path class="st0" d="M345.98,175.62l.44,42.39"/>
      </g>
      <g id="line2d_144">
        <path class="st0" d="M346.43,218.01l5.68,340.16"/>
      </g>
      <g id="line2d_145">
        <path class="st0" d="M350.71,131.97v43.52"/>
      </g>
      <g id="line2d_146">
        <path class="st0" d="M350.71,175.49v42.52"/>
      </g>
      <g id="line2d_147">
        <path class="st0" d="M350.71,218.01v340.16"/>
      </g>
      <g id="line2d_148">
        <path class="st0" d="M355.43,131.97v43.65"/>
      </g>
      <g id="line2d_149">
        <path class="st0" d="M355.43,175.62l-.44,42.39"/>
      </g>
      <g id="line2d_150">
        <path class="st0" d="M354.99,218.01l-5.68,340.16"/>
      </g>
      <g id="line2d_151">
        <path class="st0" d="M360.16,131.97v44.05"/>
      </g>
      <g id="line2d_152">
        <path class="st0" d="M360.16,176.02l-.88,41.99"/>
      </g>
      <g id="line2d_153">
        <path class="st0" d="M359.28,218.01l-11.42,340.16"/>
      </g>
      <g id="line2d_154">
        <path class="st0" d="M364.88,131.97v44.71"/>
      </g>
      <g id="line2d_155">
        <path class="st0" d="M364.88,176.68l-1.31,41.33"/>
      </g>
      <g id="line2d_156">
        <path class="st0" d="M363.57,218.01l-17.29,340.16"/>
      </g>
      <g id="line2d_157">
        <path class="st0" d="M369.61,131.97v45.64"/>
      </g>
      <g id="line2d_158">
        <path class="st0" d="M369.61,177.61l-1.73,40.4"/>
      </g>
      <g id="line2d_159">
        <path class="st0" d="M367.87,218.01l-23.36,340.16"/>
      </g>
      <g id="line2d_160">
        <path class="st0" d="M374.33,131.97v46.85"/>
      </g>
      <g id="line2d_161">
        <path class="st0" d="M374.33,178.83l-2.13,39.19"/>
      </g>
      <g id="line2d_162">
        <path class="st0" d="M372.2,218.01l-29.71,340.16"/>
      </g>
      <g id="line2d_163">
        <path class="st0" d="M379.06,131.97v48.35"/>
      </g>
      <g id="line2d_164">
        <path class="st0" d="M379.06,180.33l-2.51,37.69"/>
      </g>
      <g id="line2d_165">
        <path class="st0" d="M376.54,218.01l-36.43,340.16"/>
      </g>
      <g id="line2d_166">
        <path class="st0" d="M383.78,131.97v50.15"/>
      </g>
      <g id="line2d_167">
        <path class="st0" d="M383.78,182.13l-2.86,35.89"/>
      </g>
      <g id="line2d_168">
        <path class="st0" d="M380.92,218.01l-43.62,340.16"/>
      </g>
      <g id="line2d_169">
        <path class="st0" d="M388.5,131.97v52.27"/>
      </g>
      <g id="line2d_170">
        <path class="st0" d="M388.5,184.25l-3.17,33.77"/>
      </g>
      <g id="line2d_171">
        <path class="st0" d="M385.34,218.01l-51.43,340.16"/>
      </g>
      <g id="line2d_172">
        <path class="st0" d="M393.23,131.97v54.73"/>
      </g>
      <g id="line2d_173">
        <path class="st0" d="M393.23,186.71l-3.42,31.31"/>
      </g>
      <g id="line2d_174">
        <path class="st0" d="M389.81,218.01l-60.03,340.16"/>
      </g>
      <g id="line2d_175">
        <path class="st0" d="M397.95,131.97v57.55"/>
      </g>
      <g id="line2d_176">
        <path class="st0" d="M397.95,189.53l-3.6,28.49"/>
      </g>
      <g id="line2d_177">
        <path class="st0" d="M394.35,218.01l-69.64,340.16"/>
      </g>
      <g id="line2d_178">
        <path class="st0" d="M402.68,131.97v60.77"/>
      </g>
      <g id="line2d_179">
        <path class="st0" d="M402.68,192.75l-3.68,25.26"/>
      </g>
      <g id="line2d_180">
        <path class="st0" d="M399,218.01l-80.56,340.16"/>
      </g>
      <g id="line2d_181">
        <path class="st0" d="M407.4,131.97v64.44"/>
      </g>
      <g id="line2d_182">
        <path class="st0" d="M407.4,196.41l-3.62,21.6"/>
      </g>
      <g id="line2d_183">
        <path class="st0" d="M403.78,218.01l-93.23,340.16"/>
      </g>
      <g id="line2d_184">
        <path class="st0" d="M412.13,131.97v68.6"/>
      </g>
      <g id="line2d_185">
        <path class="st0" d="M412.13,200.57l-3.37,17.44"/>
      </g>
      <g id="line2d_186">
        <path class="st0" d="M408.76,218.01l-108.27,340.16"/>
      </g>
      <g id="line2d_187">
        <path class="st0" d="M416.85,131.97v73.34"/>
      </g>
      <g id="line2d_188">
        <path class="st0" d="M416.85,205.31l-2.84,12.7"/>
      </g>
      <g id="line2d_189">
        <path class="st0" d="M414.01,218.01l-126.65,340.16"/>
      </g>
      <g id="line2d_190">
        <path class="st0" d="M421.57,131.97v78.77"/>
      </g>
      <g id="line2d_191">
        <path class="st0" d="M421.57,210.74l-1.89,7.27"/>
      </g>
      <g id="line2d_192">
        <path class="st0" d="M419.68,218.01l-149.96,340.16"/>
      </g>
      <g id="line2d_193">
        <path class="st2" d="M279.84,210.74l3.2-3.76,3.2-3.42,3.55-3.46,3.55-3.14,3.55-2.85,3.91-2.83,3.91-2.54,3.91-2.28,3.91-2.03,3.91-1.8,4.26-1.71,4.26-1.46,4.26-1.22,4.26-.99,4.26-.77,4.26-.55,4.26-.33,4.26-.12,4.26.1,4.26.31,4.26.53,4.26.75,4.26.97,4.26,1.2,4.26,1.44,4.26,1.69,3.91,1.78,3.91,2.01,3.91,2.26,3.91,2.52,3.91,2.81,3.55,2.82,3.55,3.11,3.55,3.42,3.2,3.39,3.2,3.72.36.44h0"/>
      </g>
      <g id="line2d_194">
        <path class="st2" d="M279.84,218.01h141.73"/>
      </g>
      <g id="line2d_195">
        <path class="st2" d="M279.84,218.01v-7.27"/>
      </g>
      <g id="line2d_196">
        <path class="st2" d="M421.57,218.01v-7.27"/>
      </g>
      <g id="line2d_197">
        <path class="st1" d="M435.75,260.53l-.13-4.68-.39-4.66-.64-4.64-.9-4.59-1.15-4.54-1.4-4.47-1.64-4.38-1.88-4.29-2.11-4.18-2.34-4.06-2.56-3.92-2.77-3.77-2.97-3.62-3.17-3.45-3.35-3.27-3.53-3.08-3.69-2.88-3.84-2.67-3.98-2.46-4.11-2.23-4.23-2-4.33-1.77-4.42-1.53-4.5-1.28-4.57-1.03-4.62-.78-4.65-.52-4.67-.27h-4.68s-4.67.24-4.67.24l-4.65.51-4.62.76-4.57,1.01-4.51,1.26-4.43,1.51-4.34,1.75-4.24,1.99-4.12,2.22-3.99,2.44-3.85,2.66-3.7,2.86-3.54,3.06-3.36,3.25-3.18,3.43-2.99,3.6-2.78,3.76-2.57,3.91-2.35,4.05-2.13,4.17-1.89,4.28-1.66,4.38-1.41,4.46-1.17,4.53-.91,4.59-.66,4.63-.4,4.66-.15,4.68.11,4.68.37,4.67.62,4.64.88,4.6,1.13,4.54,1.38,4.47,1.62,4.39,1.86,4.29,2.09,4.19,2.32,4.06,2.54,3.93,2.75,3.78,2.96,3.63,3.15,3.46,3.34,3.28,3.51,3.09,3.68,2.89,3.83,2.69,3.97,2.47,4.1,2.25,4.22,2.02,4.33,1.78,4.42,1.54,4.5,1.3,4.56,1.05,4.61.8,4.65.54,4.67.29,4.68.03,4.67-.23,4.66-.49,4.62-.74,4.57-1,4.51-1.25,4.44-1.49,4.35-1.73,4.25-1.97,4.13-2.2,4-2.42,3.86-2.64,3.71-2.85,3.55-3.05,3.38-3.24,3.19-3.42,3-3.59,2.8-3.75,2.59-3.9,2.37-4.04,2.14-4.16,1.91-4.27,1.67-4.37,1.43-4.46,1.18-4.53.93-4.59.68-4.63.42-4.66.17-4.68v-.67h0"/>
      </g>
      <g id="line2d_198">
        <path class="st0" d="M435.75,131.97v76.75"/>
      </g>
      <g id="line2d_199">
        <path class="st0" d="M435.75,208.72l2.02,9.29"/>
      </g>
      <g id="line2d_200">
        <path class="st0" d="M437.77,218.01l122.85,340.16"/>
      </g>
      <g id="line2d_201">
        <path class="st0" d="M440.47,131.97v71.96"/>
      </g>
      <g id="line2d_202">
        <path class="st0" d="M440.47,203.93l2.72,14.08"/>
      </g>
      <g id="line2d_203">
        <path class="st0" d="M443.19,218.01l108.31,340.16"/>
      </g>
      <g id="line2d_204">
        <path class="st0" d="M445.2,131.97v67.66"/>
      </g>
      <g id="line2d_205">
        <path class="st0" d="M445.2,199.63l3.16,18.38"/>
      </g>
      <g id="line2d_206">
        <path class="st0" d="M448.35,218.01l95.68,340.16"/>
      </g>
      <g id="line2d_207">
        <path class="st0" d="M449.92,131.97v63.8"/>
      </g>
      <g id="line2d_208">
        <path class="st0" d="M449.92,195.78l3.39,22.24"/>
      </g>
      <g id="line2d_209">
        <path class="st0" d="M453.31,218.01l84.55,340.16"/>
      </g>
      <g id="line2d_210">
        <path class="st0" d="M454.65,131.97v60.35"/>
      </g>
      <g id="line2d_211">
        <path class="st0" d="M454.65,192.33l3.47,25.68"/>
      </g>
      <g id="line2d_212">
        <path class="st0" d="M458.12,218.01l74.58,340.16"/>
      </g>
      <g id="line2d_213">
        <path class="st0" d="M459.37,131.97v57.28"/>
      </g>
      <g id="line2d_214">
        <path class="st0" d="M459.37,189.26l3.43,28.76"/>
      </g>
      <g id="line2d_215">
        <path class="st0" d="M462.8,218.01l65.56,340.16"/>
      </g>
      <g id="line2d_216">
        <path class="st0" d="M464.09,131.97v54.56"/>
      </g>
      <g id="line2d_217">
        <path class="st0" d="M464.09,186.54l3.29,31.48"/>
      </g>
      <g id="line2d_218">
        <path class="st0" d="M467.38,218.01l57.3,340.16"/>
      </g>
      <g id="line2d_219">
        <path class="st0" d="M468.82,131.97v52.17"/>
      </g>
      <g id="line2d_220">
        <path class="st0" d="M468.82,184.15l3.07,33.87"/>
      </g>
      <g id="line2d_221">
        <path class="st0" d="M471.89,218.01l49.65,340.16"/>
      </g>
      <g id="line2d_222">
        <path class="st0" d="M473.54,131.97v50.1"/>
      </g>
      <g id="line2d_223">
        <path class="st0" d="M473.54,182.07l2.79,35.94"/>
      </g>
      <g id="line2d_224">
        <path class="st0" d="M476.34,218.01l42.5,340.16"/>
      </g>
      <g id="line2d_225">
        <path class="st0" d="M478.27,131.97v48.32"/>
      </g>
      <g id="line2d_226">
        <path class="st0" d="M478.27,180.3l2.47,37.72"/>
      </g>
      <g id="line2d_227">
        <path class="st0" d="M480.74,218.01l35.75,340.16"/>
      </g>
      <g id="line2d_228">
        <path class="st0" d="M482.99,131.97v46.84"/>
      </g>
      <g id="line2d_229">
        <path class="st0" d="M482.99,178.81l2.11,39.2"/>
      </g>
      <g id="line2d_230">
        <path class="st0" d="M485.1,218.01l29.34,340.16"/>
      </g>
      <g id="line2d_231">
        <path class="st0" d="M487.72,131.97v45.63"/>
      </g>
      <g id="line2d_232">
        <path class="st0" d="M487.72,177.61l1.72,40.4"/>
      </g>
      <g id="line2d_233">
        <path class="st0" d="M489.43,218.01l23.18,340.16"/>
      </g>
      <g id="line2d_234">
        <path class="st0" d="M492.44,131.97v44.71"/>
      </g>
      <g id="line2d_235">
        <path class="st0" d="M492.44,176.68l1.31,41.33"/>
      </g>
      <g id="line2d_236">
        <path class="st0" d="M493.75,218.01l17.22,340.16"/>
      </g>
      <g id="line2d_237">
        <path class="st0" d="M497.17,131.97v44.05"/>
      </g>
      <g id="line2d_238">
        <path class="st0" d="M497.17,176.02l.88,41.99"/>
      </g>
      <g id="line2d_239">
        <path class="st0" d="M498.04,218.01l11.4,340.16"/>
      </g>
      <g id="line2d_240">
        <path class="st0" d="M501.89,131.97v43.65"/>
      </g>
      <g id="line2d_241">
        <path class="st0" d="M501.89,175.62l.44,42.39"/>
      </g>
      <g id="line2d_242">
        <path class="st0" d="M502.33,218.01l5.68,340.16"/>
      </g>
      <g id="line2d_243">
        <path class="st0" d="M506.61,131.97v43.52"/>
      </g>
      <g id="line2d_244">
        <path class="st0" d="M506.61,175.49v42.52"/>
      </g>
      <g id="line2d_245">
        <path class="st0" d="M506.61,218.01v340.16"/>
      </g>
      <g id="line2d_246">
        <path class="st0" d="M511.34,131.97v43.65"/>
      </g>
      <g id="line2d_247">
        <path class="st0" d="M511.34,175.62l-.44,42.39"/>
      </g>
      <g id="line2d_248">
        <path class="st0" d="M510.9,218.01l-5.68,340.16"/>
      </g>
      <g id="line2d_249">
        <path class="st0" d="M516.06,131.97v44.05"/>
      </g>
      <g id="line2d_250">
        <path class="st0" d="M516.06,176.02l-.88,41.99"/>
      </g>
      <g id="line2d_251">
        <path class="st0" d="M515.18,218.01l-11.4,340.16"/>
      </g>
      <g id="line2d_252">
        <path class="st0" d="M520.79,131.97v44.71"/>
      </g>
      <g id="line2d_253">
        <path class="st0" d="M520.79,176.68l-1.31,41.33"/>
      </g>
      <g id="line2d_254">
        <path class="st0" d="M519.48,218.01l-17.22,340.16"/>
      </g>
      <g id="line2d_255">
        <path class="st0" d="M525.51,131.97v45.63"/>
      </g>
      <g id="line2d_256">
        <path class="st0" d="M525.51,177.61l-1.72,40.4"/>
      </g>
      <g id="line2d_257">
        <path class="st0" d="M523.79,218.01l-23.18,340.16"/>
      </g>
      <g id="line2d_258">
        <path class="st0" d="M530.24,131.97v46.84"/>
      </g>
      <g id="line2d_259">
        <path class="st0" d="M530.24,178.81l-2.11,39.2"/>
      </g>
      <g id="line2d_260">
        <path class="st0" d="M528.13,218.01l-29.34,340.16"/>
      </g>
      <g id="line2d_261">
        <path class="st0" d="M534.96,131.97v48.32"/>
      </g>
      <g id="line2d_262">
        <path class="st0" d="M534.96,180.3l-2.47,37.72"/>
      </g>
      <g id="line2d_263">
        <path class="st0" d="M532.49,218.01l-35.75,340.16"/>
      </g>
      <g id="line2d_264">
        <path class="st0" d="M539.69,131.97v50.1"/>
      </g>
      <g id="line2d_265">
        <path class="st0" d="M539.69,182.07l-2.79,35.94"/>
      </g>
      <g id="line2d_266">
        <path class="st0" d="M536.89,218.01l-42.5,340.16"/>
      </g>
      <g id="line2d_267">
        <path class="st0" d="M544.41,131.97v52.17"/>
      </g>
      <g id="line2d_268">
        <path class="st0" d="M544.41,184.15l-3.07,33.87"/>
      </g>
      <g id="line2d_269">
        <path class="st0" d="M541.34,218.01l-49.65,340.16"/>
      </g>
      <g id="line2d_270">
        <path class="st0" d="M549.13,131.97v54.56"/>
      </g>
      <g id="line2d_271">
        <path class="st0" d="M549.13,186.54l-3.29,31.48"/>
      </g>
      <g id="line2d_272">
        <path class="st0" d="M545.85,218.01l-57.3,340.16"/>
      </g>
      <g id="line2d_273">
        <path class="st0" d="M553.86,131.97v57.28"/>
      </g>
      <g id="line2d_274">
        <path class="st0" d="M553.86,189.26l-3.43,28.76"/>
      </g>
      <g id="line2d_275">
        <path class="st0" d="M550.43,218.01l-65.56,340.16"/>
      </g>
      <g id="line2d_276">
        <path class="st0" d="M558.58,131.97v60.35"/>
      </g>
      <g id="line2d_277">
        <path class="st0" d="M558.58,192.33l-3.47,25.68"/>
      </g>
      <g id="line2d_278">
        <path class="st0" d="M555.11,218.01l-74.58,340.16"/>
      </g>
      <g id="line2d_279">
        <path class="st0" d="M563.31,131.97v63.8"/>
      </g>
      <g id="line2d_280">
        <path class="st0" d="M563.31,195.78l-3.39,22.24"/>
      </g>
      <g id="line2d_281">
        <path class="st0" d="M559.92,218.01l-84.55,340.16"/>
      </g>
      <g id="line2d_282">
        <path class="st0" d="M568.03,131.97v67.66"/>
      </g>
      <g id="line2d_283">
        <path class="st0" d="M568.03,199.63l-3.16,18.38"/>
      </g>
      <g id="line2d_284">
        <path class="st0" d="M564.88,218.01l-95.68,340.16"/>
      </g>
      <g id="line2d_285">
        <path class="st0" d="M572.76,131.97v71.96"/>
      </g>
      <g id="line2d_286">
        <path class="st0" d="M572.76,203.93l-2.72,14.08"/>
      </g>
      <g id="line2d_287">
        <path class="st0" d="M570.04,218.01l-108.31,340.16"/>
      </g>
      <g id="line2d_288">
        <path class="st0" d="M577.48,131.97v76.75"/>
      </g>
      <g id="line2d_289">
        <path class="st0" d="M577.48,208.72l-2.02,9.29"/>
      </g>
      <g id="line2d_290">
        <path class="st0" d="M575.46,218.01l-122.85,340.16"/>
      </g>
      <g id="line2d_291">
        <path class="st2" d="M435.75,208.72l3.55-3.65,3.91-3.69,3.91-3.37,3.91-3.08,3.91-2.8,3.91-2.55,4.26-2.5,4.26-2.23,4.26-1.97,4.26-1.72,4.26-1.48,4.26-1.25,4.26-1.02,4.26-.8,4.26-.58,4.26-.37,4.26-.15,4.26.06,4.26.28,4.26.49,4.26.71,4.26.93,4.26,1.15,4.26,1.38,4.26,1.62,4.26,1.87,4.26,2.12,4.26,2.39,3.91,2.44,3.91,2.69,3.91,2.95,3.91,3.23,3.91,3.54,3.55,3.5,1.78,1.86h0"/>
      </g>
      <g id="line2d_292">
        <path class="st2" d="M435.75,218.01h141.73"/>
      </g>
      <g id="line2d_293">
        <path class="st2" d="M435.75,218.01v-9.29"/>
      </g>
      <g id="line2d_294">
        <path class="st2" d="M577.48,218.01v-9.29"/>
      </g>
      <g id="line2d_295">
        <path class="st1" d="M591.65,260.53l-.13-4.68-.39-4.66-.64-4.64-.9-4.59-1.15-4.54-1.4-4.47-1.64-4.38-1.88-4.29-2.11-4.18-2.34-4.06-2.56-3.92-2.77-3.77-2.97-3.62-3.17-3.45-3.35-3.27-3.53-3.08-3.69-2.88-3.84-2.67-3.98-2.46-4.11-2.23-4.23-2-4.33-1.77-4.42-1.53-4.5-1.28-4.57-1.03-4.62-.78-4.65-.52-4.67-.27h-4.68s-4.67.24-4.67.24l-4.65.51-4.62.76-4.57,1.01-4.51,1.26-4.43,1.51-4.34,1.75-4.24,1.99-4.12,2.22-3.99,2.44-3.85,2.66-3.7,2.86-3.54,3.06-3.36,3.25-3.18,3.43-2.99,3.6-2.78,3.76-2.57,3.91-2.35,4.05-2.13,4.17-1.89,4.28-1.66,4.38-1.41,4.46-1.17,4.53-.91,4.59-.66,4.63-.4,4.66-.15,4.68.11,4.68.37,4.67.62,4.64.88,4.6,1.13,4.54,1.38,4.47,1.62,4.39,1.86,4.29,2.09,4.19,2.32,4.06,2.54,3.93,2.75,3.78,2.96,3.63,3.15,3.46,3.34,3.28,3.51,3.09,3.68,2.89,3.83,2.69,3.97,2.47,4.1,2.25,4.22,2.02,4.33,1.78,4.42,1.54,4.5,1.3,4.56,1.05,4.61.8,4.65.54,4.67.29,4.68.03,4.67-.23,4.66-.49,4.62-.74,4.57-1,4.51-1.25,4.44-1.49,4.35-1.73,4.25-1.97,4.13-2.2,4-2.42,3.86-2.64,3.71-2.85,3.55-3.05,3.38-3.24,3.19-3.42,3-3.59,2.8-3.75,2.59-3.9,2.37-4.04,2.14-4.16,1.91-4.27,1.67-4.37,1.43-4.46,1.18-4.53.93-4.59.68-4.63.42-4.66.17-4.68v-.67h0"/>
      </g>
      <g id="line2d_296">
        <path class="st0" d="M591.65,131.97v75.16"/>
      </g>
      <g id="line2d_297">
        <path class="st0" d="M591.65,207.14l2.04,10.88"/>
      </g>
      <g id="line2d_298">
        <path class="st0" d="M593.7,218.01l105.25,340.16"/>
      </g>
      <g id="line2d_299">
        <path class="st0" d="M596.38,131.97v70.82"/>
      </g>
      <g id="line2d_300">
        <path class="st0" d="M596.38,202.79l2.6,15.22"/>
      </g>
      <g id="line2d_301">
        <path class="st0" d="M598.98,218.01l95.34,340.16"/>
      </g>
      <g id="line2d_302">
        <path class="st0" d="M601.1,131.97v66.85"/>
      </g>
      <g id="line2d_303">
        <path class="st0" d="M601.1,198.83l2.98,19.18"/>
      </g>
      <g id="line2d_304">
        <path class="st0" d="M604.08,218.01l86.17,340.16"/>
      </g>
      <g id="line2d_305">
        <path class="st0" d="M605.83,131.97v63.25"/>
      </g>
      <g id="line2d_306">
        <path class="st0" d="M605.83,195.22l3.2,22.79"/>
      </g>
      <g id="line2d_307">
        <path class="st0" d="M609.03,218.01l77.62,340.16"/>
      </g>
      <g id="line2d_308">
        <path class="st0" d="M610.55,131.97v59.98"/>
      </g>
      <g id="line2d_309">
        <path class="st0" d="M610.55,191.95l3.29,26.06"/>
      </g>
      <g id="line2d_310">
        <path class="st0" d="M613.84,218.01l69.6,340.16"/>
      </g>
      <g id="line2d_311">
        <path class="st0" d="M615.28,131.97v57.03"/>
      </g>
      <g id="line2d_312">
        <path class="st0" d="M615.28,189.01l3.27,29.01"/>
      </g>
      <g id="line2d_313">
        <path class="st0" d="M618.55,218.01l62.03,340.16"/>
      </g>
      <g id="line2d_314">
        <path class="st0" d="M620,131.97v54.4"/>
      </g>
      <g id="line2d_315">
        <path class="st0" d="M620,186.38l3.16,31.64"/>
      </g>
      <g id="line2d_316">
        <path class="st0" d="M623.16,218.01l54.85,340.16"/>
      </g>
      <g id="line2d_317">
        <path class="st0" d="M624.72,131.97v52.08"/>
      </g>
      <g id="line2d_318">
        <path class="st0" d="M624.72,184.05l2.98,33.96"/>
      </g>
      <g id="line2d_319">
        <path class="st0" d="M627.7,218.01l48.01,340.16"/>
      </g>
      <g id="line2d_320">
        <path class="st0" d="M629.45,131.97v50.04"/>
      </g>
      <g id="line2d_321">
        <path class="st0" d="M629.45,182.02l2.73,36"/>
      </g>
      <g id="line2d_322">
        <path class="st0" d="M632.18,218.01l41.44,340.16"/>
      </g>
      <g id="line2d_323">
        <path class="st0" d="M634.17,131.97v48.29"/>
      </g>
      <g id="line2d_324">
        <path class="st0" d="M634.17,180.27l2.43,37.75"/>
      </g>
      <g id="line2d_325">
        <path class="st0" d="M636.6,218.01l35.11,340.16"/>
      </g>
      <g id="line2d_326">
        <path class="st0" d="M638.9,131.97v46.82"/>
      </g>
      <g id="line2d_327">
        <path class="st0" d="M638.9,178.8l2.08,39.22"/>
      </g>
      <g id="line2d_328">
        <path class="st0" d="M640.98,218.01l28.97,340.16"/>
      </g>
      <g id="line2d_329">
        <path class="st0" d="M643.62,131.97v45.63"/>
      </g>
      <g id="line2d_330">
        <path class="st0" d="M643.62,177.6l1.71,40.41"/>
      </g>
      <g id="line2d_331">
        <path class="st0" d="M645.33,218.01l23,340.16"/>
      </g>
      <g id="line2d_332">
        <path class="st0" d="M648.35,131.97v44.7"/>
      </g>
      <g id="line2d_333">
        <path class="st0" d="M648.35,176.68l1.3,41.34"/>
      </g>
      <g id="line2d_334">
        <path class="st0" d="M649.65,218.01l17.14,340.16"/>
      </g>
      <g id="line2d_335">
        <path class="st0" d="M653.07,131.97v44.05"/>
      </g>
      <g id="line2d_336">
        <path class="st0" d="M653.07,176.02l.88,41.99"/>
      </g>
      <g id="line2d_337">
        <path class="st0" d="M653.95,218.01l11.38,340.16"/>
      </g>
      <g id="line2d_338">
        <path class="st0" d="M657.8,131.97v43.65"/>
      </g>
      <g id="line2d_339">
        <path class="st0" d="M657.8,175.62l.44,42.39"/>
      </g>
      <g id="line2d_340">
        <path class="st0" d="M658.24,218.01l5.67,340.16"/>
      </g>
      <g id="line2d_341">
        <path class="st0" d="M662.52,131.97v43.52"/>
      </g>
      <g id="line2d_342">
        <path class="st0" d="M662.52,175.49v42.52"/>
      </g>
      <g id="line2d_343">
        <path class="st0" d="M662.52,218.01v340.16"/>
      </g>
      <g id="line2d_344">
        <path class="st0" d="M667.24,131.97v43.65"/>
      </g>
      <g id="line2d_345">
        <path class="st0" d="M667.24,175.62l-.44,42.39"/>
      </g>
      <g id="line2d_346">
        <path class="st0" d="M666.8,218.01l-5.67,340.16"/>
      </g>
      <g id="line2d_347">
        <path class="st0" d="M671.97,131.97v44.05"/>
      </g>
      <g id="line2d_348">
        <path class="st0" d="M671.97,176.02l-.88,41.99"/>
      </g>
      <g id="line2d_349">
        <path class="st0" d="M671.09,218.01l-11.38,340.16"/>
      </g>
      <g id="line2d_350">
        <path class="st0" d="M676.69,131.97v44.7"/>
      </g>
      <g id="line2d_351">
        <path class="st0" d="M676.69,176.68l-1.3,41.34"/>
      </g>
      <g id="line2d_352">
        <path class="st0" d="M675.39,218.01l-17.14,340.16"/>
      </g>
      <g id="line2d_353">
        <path class="st0" d="M681.42,131.97v45.63"/>
      </g>
      <g id="line2d_354">
        <path class="st0" d="M681.42,177.6l-1.71,40.41"/>
      </g>
      <g id="line2d_355">
        <path class="st0" d="M679.71,218.01l-23,340.16"/>
      </g>
      <g id="line2d_356">
        <path class="st0" d="M686.14,131.97v46.82"/>
      </g>
      <g id="line2d_357">
        <path class="st0" d="M686.14,178.8l-2.08,39.22"/>
      </g>
      <g id="line2d_358">
        <path class="st0" d="M684.06,218.01l-28.97,340.16"/>
      </g>
      <g id="line2d_359">
        <path class="st0" d="M690.87,131.97v48.29"/>
      </g>
      <g id="line2d_360">
        <path class="st0" d="M690.87,180.27l-2.43,37.75"/>
      </g>
      <g id="line2d_361">
        <path class="st0" d="M688.44,218.01l-35.11,340.16"/>
      </g>
      <g id="line2d_362">
        <path class="st0" d="M695.59,131.97v50.04"/>
      </g>
      <g id="line2d_363">
        <path class="st0" d="M695.59,182.02l-2.73,36"/>
      </g>
      <g id="line2d_364">
        <path class="st0" d="M692.86,218.01l-41.44,340.16"/>
      </g>
      <g id="line2d_365">
        <path class="st0" d="M700.32,131.97v52.08"/>
      </g>
      <g id="line2d_366">
        <path class="st0" d="M700.32,184.05l-2.98,33.96"/>
      </g>
      <g id="line2d_367">
        <path class="st0" d="M697.34,218.01l-48.01,340.16"/>
      </g>
      <g id="line2d_368">
        <path class="st0" d="M705.04,131.97v54.4"/>
      </g>
      <g id="line2d_369">
        <path class="st0" d="M705.04,186.38l-3.16,31.64"/>
      </g>
      <g id="line2d_370">
        <path class="st0" d="M701.88,218.01l-54.85,340.16"/>
      </g>
      <g id="line2d_371">
        <path class="st0" d="M709.76,131.97v57.03"/>
      </g>
      <g id="line2d_372">
        <path class="st0" d="M709.76,189.01l-3.27,29.01"/>
      </g>
      <g id="line2d_373">
        <path class="st0" d="M706.49,218.01l-62.03,340.16"/>
      </g>
      <g id="line2d_374">
        <path class="st0" d="M714.49,131.97v59.98"/>
      </g>
      <g id="line2d_375">
        <path class="st0" d="M714.49,191.95l-3.29,26.06"/>
      </g>
      <g id="line2d_376">
        <path class="st0" d="M711.2,218.01l-69.6,340.16"/>
      </g>
      <g id="line2d_377">
        <path class="st0" d="M719.21,131.97v63.25"/>
      </g>
      <g id="line2d_378">
        <path class="st0" d="M719.21,195.22l-3.2,22.79"/>
      </g>
      <g id="line2d_379">
        <path class="st0" d="M716.01,218.01l-77.62,340.16"/>
      </g>
      <g id="line2d_380">
        <path class="st0" d="M723.94,131.97v66.85"/>
      </g>
      <g id="line2d_381">
        <path class="st0" d="M723.94,198.83l-2.98,19.18"/>
      </g>
      <g id="line2d_382">
        <path class="st0" d="M720.96,218.01l-86.17,340.16"/>
      </g>
      <g id="line2d_383">
        <path class="st0" d="M728.66,131.97v70.82"/>
      </g>
      <g id="line2d_384">
        <path class="st0" d="M728.66,202.79l-2.6,15.22"/>
      </g>
      <g id="line2d_385">
        <path class="st0" d="M726.06,218.01l-95.34,340.16"/>
      </g>
      <g id="line2d_386">
        <path class="st0" d="M733.39,131.97v75.16"/>
      </g>
      <g id="line2d_387">
        <path class="st0" d="M733.39,207.14l-2.04,10.88"/>
      </g>
      <g id="line2d_388">
        <path class="st0" d="M731.34,218.01l-105.25,340.16"/>
      </g>
      <g id="line2d_389">
        <path class="st2" d="M591.65,207.14l4.26-3.93,4.26-3.63,4.26-3.33,4.26-3.05,4.26-2.78,4.26-2.52,4.26-2.27,4.26-2.03,4.26-1.79,4.26-1.56,4.26-1.33,4.26-1.11,4.26-.89,4.26-.67,4.26-.46,4.26-.24,4.26-.03,4.26.19,4.26.4,4.26.62,4.26.83,4.26,1.05,4.26,1.28,4.26,1.5,4.26,1.73,4.26,1.97,4.26,2.21,4.26,2.46,4.26,2.72,4.26,2.98,4.26,3.26,4.26,3.55,4.26,3.86,1.07,1.01h0"/>
      </g>
      <g id="line2d_390">
        <path class="st2" d="M591.65,218.01h141.73"/>
      </g>
      <g id="line2d_391">
        <path class="st2" d="M591.65,218.01v-10.88"/>
      </g>
      <g id="line2d_392">
        <path class="st2" d="M733.39,218.01v-10.88"/>
      </g>
      <g id="line2d_393">
        <path class="st1" d="M747.56,260.53l-.13-4.68-.39-4.66-.64-4.64-.9-4.59-1.15-4.54-1.4-4.47-1.64-4.38-1.88-4.29-2.11-4.18-2.34-4.06-2.56-3.92-2.77-3.77-2.97-3.62-3.17-3.45-3.35-3.27-3.53-3.08-3.69-2.88-3.84-2.67-3.98-2.46-4.11-2.23-4.23-2-4.33-1.77-4.42-1.53-4.5-1.28-4.57-1.03-4.62-.78-4.65-.52-4.67-.27h-4.68s-4.67.24-4.67.24l-4.65.51-4.62.76-4.57,1.01-4.51,1.26-4.43,1.51-4.34,1.75-4.24,1.99-4.12,2.22-3.99,2.44-3.85,2.66-3.7,2.86-3.54,3.06-3.36,3.25-3.18,3.43-2.99,3.6-2.78,3.76-2.57,3.91-2.35,4.05-2.13,4.17-1.89,4.28-1.66,4.38-1.41,4.46-1.17,4.53-.91,4.59-.66,4.63-.4,4.66-.15,4.68.11,4.68.37,4.67.62,4.64.88,4.6,1.13,4.54,1.38,4.47,1.62,4.39,1.86,4.29,2.09,4.19,2.32,4.06,2.54,3.93,2.75,3.78,2.96,3.63,3.15,3.46,3.34,3.28,3.51,3.09,3.68,2.89,3.83,2.69,3.97,2.47,4.1,2.25,4.22,2.02,4.33,1.78,4.42,1.54,4.5,1.3,4.56,1.05,4.61.8,4.65.54,4.67.29,4.68.03,4.67-.23,4.66-.49,4.62-.74,4.57-1,4.51-1.25,4.44-1.49,4.35-1.73,4.25-1.97,4.13-2.2,4-2.42,3.86-2.64,3.71-2.85,3.55-3.05,3.38-3.24,3.19-3.42,3-3.59,2.8-3.75,2.59-3.9,2.37-4.04,2.14-4.16,1.91-4.27,1.67-4.37,1.43-4.46,1.18-4.53.93-4.59.68-4.63.42-4.66.17-4.68v-.67h0"/>
      </g>
      <g id="line2d_394">
        <path class="st0" d="M747.56,131.97v73.87"/>
      </g>
      <g id="line2d_395">
        <path class="st0" d="M747.56,205.85l2.03,12.17"/>
      </g>
      <g id="line2d_396">
        <path class="st0" d="M749.59,218.01l92.84,340.16"/>
      </g>
      <g id="line2d_397">
        <path class="st0" d="M752.28,131.97v69.86"/>
      </g>
      <g id="line2d_398">
        <path class="st0" d="M752.28,201.84l2.5,16.17"/>
      </g>
      <g id="line2d_399">
        <path class="st0" d="M754.78,218.01l85.67,340.16"/>
      </g>
      <g id="line2d_400">
        <path class="st0" d="M757.01,131.97v66.16"/>
      </g>
      <g id="line2d_401">
        <path class="st0" d="M757.01,198.13l2.83,19.88"/>
      </g>
      <g id="line2d_402">
        <path class="st0" d="M759.84,218.01l78.72,340.16"/>
      </g>
      <g id="line2d_403">
        <path class="st0" d="M761.73,131.97v62.75"/>
      </g>
      <g id="line2d_404">
        <path class="st0" d="M761.73,194.73l3.04,23.29"/>
      </g>
      <g id="line2d_405">
        <path class="st0" d="M764.77,218.01l71.96,340.16"/>
      </g>
      <g id="line2d_406">
        <path class="st0" d="M766.46,131.97v59.63"/>
      </g>
      <g id="line2d_407">
        <path class="st0" d="M766.46,191.61l3.14,26.41"/>
      </g>
      <g id="line2d_408">
        <path class="st0" d="M769.59,218.01l65.37,340.16"/>
      </g>
      <g id="line2d_409">
        <path class="st0" d="M771.18,131.97v56.8"/>
      </g>
      <g id="line2d_410">
        <path class="st0" d="M771.18,188.78l3.14,29.24"/>
      </g>
      <g id="line2d_411">
        <path class="st0" d="M774.32,218.01l58.94,340.16"/>
      </g>
      <g id="line2d_412">
        <path class="st0" d="M775.91,131.97v54.25"/>
      </g>
      <g id="line2d_413">
        <path class="st0" d="M775.91,186.23l3.05,31.78"/>
      </g>
      <g id="line2d_414">
        <path class="st0" d="M778.96,218.01l52.66,340.16"/>
      </g>
      <g id="line2d_415">
        <path class="st0" d="M780.63,131.97v51.98"/>
      </g>
      <g id="line2d_416">
        <path class="st0" d="M780.63,183.96l2.89,34.06"/>
      </g>
      <g id="line2d_417">
        <path class="st0" d="M783.52,218.01l46.5,340.16"/>
      </g>
      <g id="line2d_418">
        <path class="st0" d="M785.35,131.97v49.99"/>
      </g>
      <g id="line2d_419">
        <path class="st0" d="M785.35,181.96l2.67,36.05"/>
      </g>
      <g id="line2d_420">
        <path class="st0" d="M788.02,218.01l40.45,340.16"/>
      </g>
      <g id="line2d_421">
        <path class="st0" d="M790.08,131.97v48.26"/>
      </g>
      <g id="line2d_422">
        <path class="st0" d="M790.08,180.24l2.39,37.77"/>
      </g>
      <g id="line2d_423">
        <path class="st0" d="M792.47,218.01l34.5,340.16"/>
      </g>
      <g id="line2d_424">
        <path class="st0" d="M794.8,131.97v46.81"/>
      </g>
      <g id="line2d_425">
        <path class="st0" d="M794.8,178.78l2.06,39.23"/>
      </g>
      <g id="line2d_426">
        <path class="st0" d="M796.86,218.01l28.62,340.16"/>
      </g>
      <g id="line2d_427">
        <path class="st0" d="M799.53,131.97v45.62"/>
      </g>
      <g id="line2d_428">
        <path class="st0" d="M799.53,177.6l1.69,40.42"/>
      </g>
      <g id="line2d_429">
        <path class="st0" d="M801.22,218.01l22.82,340.16"/>
      </g>
      <g id="line2d_430">
        <path class="st0" d="M804.25,131.97v44.7"/>
      </g>
      <g id="line2d_431">
        <path class="st0" d="M804.25,176.68l1.3,41.34"/>
      </g>
      <g id="line2d_432">
        <path class="st0" d="M805.55,218.01l17.07,340.16"/>
      </g>
      <g id="line2d_433">
        <path class="st0" d="M808.98,131.97v44.04"/>
      </g>
      <g id="line2d_434">
        <path class="st0" d="M808.98,176.02l.88,41.99"/>
      </g>
      <g id="line2d_435">
        <path class="st0" d="M809.85,218.01l11.36,340.16"/>
      </g>
      <g id="line2d_436">
        <path class="st0" d="M813.7,131.97v43.65"/>
      </g>
      <g id="line2d_437">
        <path class="st0" d="M813.7,175.62l.44,42.39"/>
      </g>
      <g id="line2d_438">
        <path class="st0" d="M814.14,218.01l5.67,340.16"/>
      </g>
      <g id="line2d_439">
        <path class="st0" d="M818.43,131.97v43.52"/>
      </g>
      <g id="line2d_440">
        <path class="st0" d="M818.43,175.49v42.52"/>
      </g>
      <g id="line2d_441">
        <path class="st0" d="M818.43,218.01v340.16"/>
      </g>
      <g id="line2d_442">
        <path class="st0" d="M823.15,131.97v43.65"/>
      </g>
      <g id="line2d_443">
        <path class="st0" d="M823.15,175.62l-.44,42.39"/>
      </g>
      <g id="line2d_444">
        <path class="st0" d="M822.71,218.01l-5.67,340.16"/>
      </g>
      <g id="line2d_445">
        <path class="st0" d="M827.87,131.97v44.04"/>
      </g>
      <g id="line2d_446">
        <path class="st0" d="M827.87,176.02l-.88,41.99"/>
      </g>
      <g id="line2d_447">
        <path class="st0" d="M827,218.01l-11.36,340.16"/>
      </g>
      <g id="line2d_448">
        <path class="st0" d="M832.6,131.97v44.7"/>
      </g>
      <g id="line2d_449">
        <path class="st0" d="M832.6,176.68l-1.3,41.34"/>
      </g>
      <g id="line2d_450">
        <path class="st0" d="M831.3,218.01l-17.07,340.16"/>
      </g>
      <g id="line2d_451">
        <path class="st0" d="M837.32,131.97v45.62"/>
      </g>
      <g id="line2d_452">
        <path class="st0" d="M837.32,177.6l-1.69,40.42"/>
      </g>
      <g id="line2d_453">
        <path class="st0" d="M835.63,218.01l-22.82,340.16"/>
      </g>
      <g id="line2d_454">
        <path class="st0" d="M842.05,131.97v46.81"/>
      </g>
      <g id="line2d_455">
        <path class="st0" d="M842.05,178.78l-2.06,39.23"/>
      </g>
      <g id="line2d_456">
        <path class="st0" d="M839.99,218.01l-28.62,340.16"/>
      </g>
      <g id="line2d_457">
        <path class="st0" d="M846.77,131.97v48.26"/>
      </g>
      <g id="line2d_458">
        <path class="st0" d="M846.77,180.24l-2.39,37.77"/>
      </g>
      <g id="line2d_459">
        <path class="st0" d="M844.38,218.01l-34.5,340.16"/>
      </g>
      <g id="line2d_460">
        <path class="st0" d="M851.5,131.97v49.99"/>
      </g>
      <g id="line2d_461">
        <path class="st0" d="M851.5,181.96l-2.67,36.05"/>
      </g>
      <g id="line2d_462">
        <path class="st0" d="M848.83,218.01l-40.45,340.16"/>
      </g>
      <g id="line2d_463">
        <path class="st0" d="M856.22,131.97v51.98"/>
      </g>
      <g id="line2d_464">
        <path class="st0" d="M856.22,183.96l-2.89,34.06"/>
      </g>
      <g id="line2d_465">
        <path class="st0" d="M853.33,218.01l-46.5,340.16"/>
      </g>
      <g id="line2d_466">
        <path class="st0" d="M860.94,131.97v54.25"/>
      </g>
      <g id="line2d_467">
        <path class="st0" d="M860.94,186.23l-3.05,31.78"/>
      </g>
      <g id="line2d_468">
        <path class="st0" d="M857.89,218.01l-52.66,340.16"/>
      </g>
      <g id="line2d_469">
        <path class="st0" d="M865.67,131.97v56.8"/>
      </g>
      <g id="line2d_470">
        <path class="st0" d="M865.67,188.78l-3.14,29.24"/>
      </g>
      <g id="line2d_471">
        <path class="st0" d="M862.53,218.01l-58.94,340.16"/>
      </g>
      <g id="line2d_472">
        <path class="st0" d="M870.39,131.97v59.63"/>
      </g>
      <g id="line2d_473">
        <path class="st0" d="M870.39,191.61l-3.14,26.41"/>
      </g>
      <g id="line2d_474">
        <path class="st0" d="M867.26,218.01l-65.37,340.16"/>
      </g>
      <g id="line2d_475">
        <path class="st0" d="M875.12,131.97v62.75"/>
      </g>
      <g id="line2d_476">
        <path class="st0" d="M875.12,194.73l-3.04,23.29"/>
      </g>
      <g id="line2d_477">
        <path class="st0" d="M872.08,218.01l-71.96,340.16"/>
      </g>
      <g id="line2d_478">
        <path class="st0" d="M879.84,131.97v66.16"/>
      </g>
      <g id="line2d_479">
        <path class="st0" d="M879.84,198.13l-2.83,19.88"/>
      </g>
      <g id="line2d_480">
        <path class="st0" d="M877.01,218.01l-78.72,340.16"/>
      </g>
      <g id="line2d_481">
        <path class="st0" d="M884.57,131.97v69.86"/>
      </g>
      <g id="line2d_482">
        <path class="st0" d="M884.57,201.84l-2.5,16.17"/>
      </g>
      <g id="line2d_483">
        <path class="st0" d="M882.07,218.01l-85.67,340.16"/>
      </g>
      <g id="line2d_484">
        <path class="st0" d="M889.29,131.97v73.87"/>
      </g>
      <g id="line2d_485">
        <path class="st0" d="M889.29,205.85l-2.03,12.17"/>
      </g>
      <g id="line2d_486">
        <path class="st0" d="M887.26,218.01l-92.84,340.16"/>
      </g>
      <g id="line2d_487">
        <path class="st2" d="M747.56,205.85l4.62-3.92,4.62-3.63,4.62-3.35,4.62-3.07,4.62-2.8,4.62-2.53,4.62-2.26,4.62-2,4.62-1.74,4.26-1.37,4.26-1.16,4.26-.94,4.26-.72,4.26-.51,4.26-.29,4.26-.08,4.26.13,4.26.35,4.26.56,4.26.78,4.26.99,4.26,1.21,4.26,1.43,4.26,1.65,4.26,1.87,4.62,2.28,4.62,2.55,4.62,2.82,4.62,3.09,4.62,3.37,4.62,3.65,4.26,3.63h0"/>
      </g>
      <g id="line2d_488">
        <path class="st2" d="M747.56,218.01h141.73"/>
      </g>
      <g id="line2d_489">
        <path class="st2" d="M747.56,218.01v-12.17"/>
      </g>
      <g id="line2d_490">
        <path class="st2" d="M889.29,218.01v-12.17"/>
      </g>
      <g id="line2d_491">
        <path class="st1" d="M903.46,260.53l-.13-4.68-.39-4.66-.64-4.64-.9-4.59-1.15-4.54-1.4-4.47-1.64-4.38-1.88-4.29-2.11-4.18-2.34-4.06-2.56-3.92-2.77-3.77-2.97-3.62-3.17-3.45-3.35-3.27-3.53-3.08-3.69-2.88-3.84-2.67-3.98-2.46-4.11-2.23-4.23-2-4.33-1.77-4.42-1.53-4.5-1.28-4.57-1.03-4.62-.78-4.65-.52-4.67-.27h-4.68s-4.67.24-4.67.24l-4.65.51-4.62.76-4.57,1.01-4.51,1.26-4.43,1.51-4.34,1.75-4.24,1.99-4.12,2.22-3.99,2.44-3.85,2.66-3.7,2.86-3.54,3.06-3.36,3.25-3.18,3.43-2.99,3.6-2.78,3.76-2.57,3.91-2.35,4.05-2.13,4.17-1.89,4.28-1.66,4.38-1.41,4.46-1.17,4.53-.91,4.59-.66,4.63-.4,4.66-.15,4.68.11,4.68.37,4.67.62,4.64.88,4.6,1.13,4.54,1.38,4.47,1.62,4.39,1.86,4.29,2.09,4.19,2.32,4.06,2.54,3.93,2.75,3.78,2.96,3.63,3.15,3.46,3.34,3.28,3.51,3.09,3.68,2.89,3.83,2.69,3.97,2.47,4.1,2.25,4.22,2.02,4.33,1.78,4.42,1.54,4.5,1.3,4.56,1.05,4.61.8,4.65.54,4.67.29,4.68.03,4.67-.23,4.66-.49,4.62-.74,4.57-1,4.51-1.25,4.44-1.49,4.35-1.73,4.25-1.97,4.13-2.2,4-2.42,3.86-2.64,3.71-2.85,3.55-3.05,3.38-3.24,3.19-3.42,3-3.59,2.8-3.75,2.59-3.9,2.37-4.04,2.14-4.16,1.91-4.27,1.67-4.37,1.43-4.46,1.18-4.53.93-4.59.68-4.63.42-4.66.17-4.68v-.67h0"/>
      </g>
    </g>
  </g>
  <g>
    <path class="st3" d="M197.69,78.06l.23-.23h.36l.23.23,9.94,26.1v.36l-.41.27-.4-.27-3.24-8.46h-12.6l-3.24,8.46-.23.23h-.36l-.23-.23v-.36l9.94-26.1ZM192.11,95.2h11.97l-5.98-15.7-5.98,15.7Z"/>
    <path class="st3" d="M227.07,90.48v.31l-.23.27-.31.04-.27-.22-1.17-2.34-3.46-1.17h-3.6l-3.46,1.17-1.08,2.11,1.08,2.16,2.29,1.17,6.17,1.22,2.7,1.35,1.4,2.83-.04,1.44-1.26,2.48-.27.23-3.87,1.26-3.87-.04-3.87-1.31-1.35-2.61-.04-.36.23-.27h.36l.27.23,1.17,2.29,3.46,1.17h3.6l3.46-1.17,1.12-2.21v-1.03l-1.12-2.25-2.29-1.17-6.17-1.22-2.74-1.39-1.35-2.79,1.31-2.7.23-.23,3.73-1.21,3.87-.05,3.87,1.26.27.23,1.26,2.52Z"/>
    <path class="st3" d="M234.95,86.92l.27-.4h.36l.27.27v2.79l1.84-1.8,2.48-1.26,3.96-.05,2.79,1.4,2.48,2.48,1.4,4.05-.05,2.61-1.35,3.92-2.48,2.47-2.61,1.35h-4.14l-2.48-1.26-1.84-1.8v11.34l-.14.31-.31.13-.31-.13-.13-.31v-26.1ZM238.14,102.72l2.34,1.17h3.51l2.34-1.17,2.34-2.34,1.22-3.56v-2.34l-1.22-3.55-2.34-2.38-2.34-1.17h-3.51l-2.34,1.17-2.29,2.29v9.58l2.29,2.29Z"/>
    <path class="st3" d="M258.62,78.24l.13-.31.31-.14.31.14.14.31v12.6l2.97-2.97,2.79-1.4h3.73l2.7,1.31.23.27,1.26,3.87v12.42l-.13.32-.5.09-.27-.41v-12.37l-1.17-3.46-2.25-1.12h-3.51l-2.29,1.17-3.55,3.55v12.24l-.14.32-.31.13-.31-.13-.13-.32v-26.1Z"/>
    <path class="st3" d="M282.29,90.52l2.61-2.65,2.79-1.4,3.96.05,2.48,1.26,1.44,1.44,1.3,2.7-.04,2.66-.4.27h-14.49v1.98l1.21,3.56,2.34,2.34,2.34,1.17h3.51l2.34-1.17,2.56-2.52.5.09.09.5-2.56,2.61-2.61,1.35h-4.14l-2.61-1.35-2.48-2.47-1.35-3.92-.05-2.61,1.26-3.87ZM295.96,93.94v-1.93l-1.17-2.34-1.12-1.12-2.34-1.17h-3.51l-2.34,1.17-2.34,2.38-1.04,3.01h13.86Z"/>
    <path class="st3" d="M304.74,86.79l.23-.27h.36l.27.4v4.68l.49-1.26,2.61-2.56,2.65-1.31,3.91.05.27.4-.27.45h-3.78l-2.34,1.17-2.34,2.38-1.21,3.55v9.85l-.14.32-.31.13-.31-.13-.13-.32.04-17.55Z"/>
    <path class="st3" d="M319.72,77.92l1.26-1.26.31-.13.31.13,1.26,1.26.13.31-.13.31-1.26,1.26-.31.14-.31-.14-1.26-1.26-.14-.31.14-.31ZM321.3,78.82l.58-.58-.58-.58-.58.58.58.58ZM320.85,86.92l.13-.31.31-.14.31.14.14.31v17.41l-.14.32-.31.13-.31-.13-.13-.32v-17.41Z"/>
    <path class="st3" d="M345.28,90.34l.13.31-.13.31-.5.09-2.56-2.52-2.34-1.17h-3.51l-2.34,1.17-2.34,2.38-1.21,3.55v2.34l1.21,3.56,2.34,2.34,2.34,1.17h3.51l2.34-1.17,2.56-2.52h.36l.23.23-.09.5-2.48,2.47-2.61,1.35h-4.14l-2.61-1.35-2.61-2.65-1.21-3.73-.05-2.61,1.26-3.87,2.61-2.65,2.79-1.4h3.73l2.83,1.4,2.48,2.48Z"/>
    <path class="st3" d="M366.97,89.58v-2.79l.45-.32.4.32v17.73l-.4.27-.45-.27v-2.83l-1.84,1.8-2.48,1.26h-4.14l-2.61-1.35-2.61-2.65-1.21-3.73-.05-2.61,1.26-3.87,2.61-2.65,2.79-1.4h3.73l2.83,1.4,1.71,1.71ZM364.68,88.54l-2.34-1.17h-3.51l-2.34,1.17-2.34,2.38-1.21,3.55v2.34l1.21,3.56,2.34,2.34,2.34,1.17h3.51l2.34-1.17,2.29-2.29v-9.58l-2.29-2.29Z"/>
    <path class="st3" d="M376.92,78.24l.13-.31.31-.14.31.14.14.31v26.1l-.14.32-.31.13-.31-.13-.13-.32v-26.1Z"/>
    <path class="st3" d="M398.61,78.24l.13-.31.31-.14.31.14.13.31v25.65h14.49l.31.13.13.31-.13.32-.31.13h-14.94l-.31-.13-.13-.32v-26.1Z"/>
    <path class="st3" d="M419.8,90.52l2.61-2.65,2.79-1.4,3.96.05,2.47,1.26,1.44,1.44,1.3,2.7-.04,2.66-.41.27h-14.49v1.98l1.21,3.56,2.34,2.34,2.34,1.17h3.51l2.34-1.17,2.56-2.52.5.09.09.5-2.56,2.61-2.61,1.35h-4.14l-2.61-1.35-2.47-2.47-1.35-3.92-.04-2.61,1.26-3.87ZM433.48,93.94v-1.93l-1.17-2.34-1.12-1.12-2.34-1.17h-3.51l-2.34,1.17-2.34,2.38-1.03,3.01h13.86Z"/>
    <path class="st3" d="M442.21,86.92l.27-.4.5.09.13.31v3.92l2.97-2.97,2.61-1.35,3.92-.05,2.83,1.4,1.35,4.05v12.42l-.13.32-.5.09-.27-.41v-12.37l-1.17-3.46-2.25-1.12h-3.51l-2.29,1.17-3.56,3.55v12.24l-.13.32-.31.13-.32-.13-.13-.32v-17.41Z"/>
    <path class="st3" d="M479.11,90.48v.31l-.23.27-.31.04-.27-.22-1.17-2.34-3.46-1.17h-3.6l-3.46,1.17-1.08,2.11,1.08,2.16,2.29,1.17,6.17,1.22,2.7,1.35,1.39,2.83-.04,1.44-1.26,2.48-.27.23-3.87,1.26-3.87-.04-3.87-1.31-1.35-2.61-.04-.36.22-.27h.36l.27.23,1.17,2.29,3.46,1.17h3.6l3.46-1.17,1.12-2.21v-1.03l-1.12-2.25-2.29-1.17-6.16-1.22-2.75-1.39-1.35-2.79,1.3-2.7.22-.23,3.74-1.21,3.87-.05,3.87,1.26.27.23,1.26,2.52Z"/>
    <path class="st3" d="M498.91,77.92l.32-.14,11.29.04,3.92,1.35,1.35,1.35,1.26,2.65-.05,3.96-1.21,2.47-1.53,1.48-3.87,1.26h-10.71v11.97l-.13.32-.31.13-.32-.13-.13-.32v-26.1l.13-.31ZM499.68,91.47h10.67l3.55-1.21,1.08-1.08,1.17-2.34v-3.51l-1.17-2.34-1.08-1.12-3.55-1.17h-10.67v12.78Z"/>
    <path class="st3" d="M538.56,89.58v-2.79l.45-.32.41.32v17.73l-.41.27-.45-.27v-2.83l-1.85,1.8-2.47,1.26h-4.14l-2.61-1.35-2.61-2.65-1.21-3.73-.04-2.61,1.26-3.87,2.61-2.65,2.79-1.4h3.74l2.83,1.4,1.71,1.71ZM536.26,88.54l-2.34-1.17h-3.51l-2.34,1.17-2.34,2.38-1.21,3.55v2.34l1.21,3.56,2.34,2.34,2.34,1.17h3.51l2.34-1.17,2.29-2.29v-9.58l-2.29-2.29Z"/>
    <path class="st3" d="M548.54,86.79l.22-.27h.36l.27.4v4.68l.5-1.26,2.61-2.56,2.65-1.31,3.92.05.27.4-.27.45h-3.78l-2.34,1.17-2.34,2.38-1.21,3.55v9.85l-.13.32-.31.13-.32-.13-.13-.32.04-17.55Z"/>
    <path class="st3" d="M578.38,89.58v-2.79l.45-.32.41.32v17.73l-.41.27-.45-.27v-2.83l-1.85,1.8-2.47,1.26h-4.14l-2.61-1.35-2.61-2.65-1.21-3.73-.04-2.61,1.26-3.87,2.61-2.65,2.79-1.4h3.74l2.83,1.4,1.71,1.71ZM576.08,88.54l-2.34-1.17h-3.51l-2.34,1.17-2.34,2.38-1.21,3.55v2.34l1.21,3.56,2.34,2.34,2.34,1.17h3.51l2.34-1.17,2.29-2.29v-9.58l-2.29-2.29Z"/>
    <path class="st3" d="M588.32,86.92l.27-.4.5.09.13.31v3.92l2.97-2.97,2.61-1.35,3.92-.05,2.83,1.4,1.08,3.19,3.24-3.19,2.61-1.35h4.09l2.66,1.35,1.3,3.92v12.73l-.23.23h-.36l-.27-.41v-12.37l-1.17-3.46-2.21-1.12h-3.55l-2.29,1.17-3.55,3.55v12.24l-.13.32-.32.13-.31-.13-.13-.32v-12.37l-1.17-3.46-2.21-1.12h-3.51l-2.34,1.17-3.56,3.55v12.24l-.13.32-.31.13-.32-.13-.13-.32v-17.41Z"/>
    <path class="st3" d="M625.63,90.52l2.61-2.65,2.79-1.4,3.96.05,2.47,1.26,1.44,1.44,1.3,2.7-.04,2.66-.41.27h-14.49v1.98l1.21,3.56,2.34,2.34,2.34,1.17h3.51l2.34-1.17,2.56-2.52.5.09.09.5-2.56,2.61-2.61,1.35h-4.14l-2.61-1.35-2.47-2.47-1.35-3.92-.04-2.61,1.26-3.87ZM639.31,93.94v-1.93l-1.17-2.34-1.12-1.12-2.34-1.17h-3.51l-2.34,1.17-2.34,2.38-1.03,3.01h13.86Z"/>
    <path class="st3" d="M649.3,78.24l.13-.31.32-.14.31.14.14.31v8.23h4.5l.36.14.09.31-.09.31-.36.14h-4.5v11.92l1.17,3.46,2.2,1.12,2.57.04.27.4-.27.41h-2.88l-2.47-1.26-.23-.22-1.26-3.87v-12.01h-3.29l-.31-.14-.13-.31.13-.31.31-.14h3.29v-8.23Z"/>
    <path class="st3" d="M662.98,90.52l2.61-2.65,2.79-1.4,3.96.05,2.47,1.26,1.44,1.44,1.3,2.7-.04,2.66-.41.27h-14.49v1.98l1.21,3.56,2.34,2.34,2.34,1.17h3.51l2.34-1.17,2.56-2.52.5.09.09.5-2.56,2.61-2.61,1.35h-4.14l-2.61-1.35-2.47-2.47-1.35-3.92-.04-2.61,1.26-3.87ZM676.66,93.94v-1.93l-1.17-2.34-1.12-1.12-2.34-1.17h-3.51l-2.34,1.17-2.34,2.38-1.03,3.01h13.86Z"/>
    <path class="st3" d="M685.43,86.79l.22-.27h.36l.27.4v4.68l.5-1.26,2.61-2.56,2.65-1.31,3.92.05.27.4-.27.45h-3.78l-2.34,1.17-2.34,2.38-1.21,3.55v9.85l-.13.32-.31.13-.32-.13-.13-.32.04-17.55Z"/>
    <path class="st3" d="M730.21,81.66l.13.31-.13.31-.31.13-.32-.13-2.38-2.43-3.55-1.17h-4.86l-3.55,1.17-2.25,2.29v2.21l1.17,2.29,1.12,1.17,2.38,1.17,7.42,2.48,2.66,1.35,1.35,1.4,1.21,2.48.04,4.09-2.79,2.75-3.74,1.21-5.08.04-3.87-1.26-2.65-2.61-.13-.32.13-.31.31-.13.32.13,2.38,2.43,3.55,1.17h4.86l3.55-1.17,2.25-2.29v-3.42l-1.17-2.34-1.12-1.12-2.38-1.21-7.42-2.48-2.66-1.35-1.35-1.35-1.21-2.48-.04-2.88,2.79-2.74,3.74-1.22,5.08-.04,4.05,1.4,2.47,2.48Z"/>
    <path class="st3" d="M746.95,86.65l.41-.18.41.36,4.5,15.88,4.54-15.88.23-.27.49.04.18.45-5.08,17.55-.45.18-.31-.31-4.54-15.88-4.54,15.88-.13.23-.36.09-.36-.31-4.99-17.41.18-.45.5-.04.22.27,4.54,15.88,4.59-16.06Z"/>
    <path class="st3" d="M765.58,90.52l2.61-2.65,2.79-1.4,3.96.05,2.47,1.26,1.44,1.44,1.3,2.7-.04,2.66-.41.27h-14.49v1.98l1.21,3.56,2.34,2.34,2.34,1.17h3.51l2.34-1.17,2.56-2.52.5.09.09.5-2.56,2.61-2.61,1.35h-4.14l-2.61-1.35-2.47-2.47-1.35-3.92-.04-2.61,1.26-3.87ZM779.26,93.94v-1.93l-1.17-2.34-1.12-1.12-2.34-1.17h-3.51l-2.34,1.17-2.34,2.38-1.03,3.01h13.86Z"/>
    <path class="st3" d="M788.03,90.52l2.61-2.65,2.79-1.4,3.96.05,2.47,1.26,1.44,1.44,1.3,2.7-.04,2.66-.41.27h-14.49v1.98l1.21,3.56,2.34,2.34,2.34,1.17h3.51l2.34-1.17,2.56-2.52.5.09.09.5-2.56,2.61-2.61,1.35h-4.14l-2.61-1.35-2.47-2.47-1.35-3.92-.04-2.61,1.26-3.87ZM801.71,93.94v-1.93l-1.17-2.34-1.12-1.12-2.34-1.17h-3.51l-2.34,1.17-2.34,2.38-1.03,3.01h13.86Z"/>
    <path class="st3" d="M810.44,86.92l.27-.4h.36l.27.27v2.79l1.85-1.8,2.47-1.26,3.96-.05,2.79,1.4,2.47,2.48,1.39,4.05-.04,2.61-1.35,3.92-2.47,2.47-2.61,1.35h-4.14l-2.47-1.26-1.85-1.8v11.34l-.13.31-.31.13-.32-.13-.13-.31v-26.1ZM813.64,102.72l2.34,1.17h3.51l2.34-1.17,2.34-2.34,1.21-3.56v-2.34l-1.21-3.55-2.34-2.38-2.34-1.17h-3.51l-2.34,1.17-2.29,2.29v9.58l2.29,2.29Z"/>
  </g>
</svg>