<?xml version="1.0" encoding="UTF-8"?>
<svg id="Layer_1" xmlns="http://www.w3.org/2000/svg" version="1.1" viewBox="0 0 1134.21 865.23">
  <!-- Generator: Adobe Illustrator 29.5.1, SVG Export Plug-In . SVG Version: 2.1.0 Build 141)  -->
  <defs>
    <style>
      .st0 {
        fill: none;
        stroke: #000;
        stroke-linecap: square;
        stroke-linejoin: round;
        stroke-width: .5px;
      }
    </style>
  </defs>
  <g id="figure_1">
    <g id="axes_1">
      <g id="line2d_1">
        <path class="st0" d="M0,727.51h279.91"/>
      </g>
      <g id="line2d_2">
        <path class="st0" d="M279.91,727.51l322.62-209.6"/>
      </g>
      <g id="line2d_3">
        <path class="st0" d="M602.53,517.9l170.47-383.29"/>
      </g>
      <g id="line2d_4">
        <path class="st0" d="M0,722.75h252.66"/>
      </g>
      <g id="line2d_5">
        <path class="st0" d="M252.66,722.75l344.7-189.22"/>
      </g>
      <g id="line2d_6">
        <path class="st0" d="M597.36,533.52l253.84-398.91"/>
      </g>
      <g id="line2d_7">
        <path class="st0" d="M0,717.98h234.14"/>
      </g>
      <g id="line2d_8">
        <path class="st0" d="M234.14,717.98l360.34-176.83"/>
      </g>
      <g id="line2d_9">
        <path class="st0" d="M594.48,541.15l314.45-406.54"/>
      </g>
      <g id="line2d_10">
        <path class="st0" d="M0,713.22h219.28"/>
      </g>
      <g id="line2d_11">
        <path class="st0" d="M219.28,713.22l373.39-167.57"/>
      </g>
      <g id="line2d_12">
        <path class="st0" d="M592.67,545.65l365.72-411.04"/>
      </g>
      <g id="line2d_13">
        <path class="st0" d="M0,708.46h206.59"/>
      </g>
      <g id="line2d_14">
        <path class="st0" d="M206.59,708.46l384.93-160.04"/>
      </g>
      <g id="line2d_15">
        <path class="st0" d="M591.51,548.41l411.6-413.8"/>
      </g>
      <g id="line2d_16">
        <path class="st0" d="M0,703.7h195.39"/>
      </g>
      <g id="line2d_17">
        <path class="st0" d="M195.39,703.7l395.42-153.63"/>
      </g>
      <g id="line2d_18">
        <path class="st0" d="M590.81,550.07l453.94-415.45"/>
      </g>
      <g id="line2d_19">
        <path class="st0" d="M0,698.93h185.31"/>
      </g>
      <g id="line2d_20">
        <path class="st0" d="M185.31,698.93l405.12-147.99"/>
      </g>
      <g id="line2d_21">
        <path class="st0" d="M590.43,550.94l493.78-416.33"/>
      </g>
      <g id="line2d_22">
        <path class="st0" d="M0,694.17h176.11"/>
      </g>
      <g id="line2d_23">
        <path class="st0" d="M176.11,694.17l414.19-142.93"/>
      </g>
      <g id="line2d_24">
        <path class="st0" d="M590.3,551.24l531.78-416.63"/>
      </g>
      <g id="line2d_25">
        <path class="st0" d="M0,689.41h167.62"/>
      </g>
      <g id="line2d_26">
        <path class="st0" d="M167.62,689.41l422.73-138.3"/>
      </g>
      <g id="line2d_27">
        <path class="st0" d="M590.36,551.11l543.5-398.25"/>
      </g>
      <g id="line2d_28">
        <path class="st0" d="M0,684.65h159.73"/>
      </g>
      <g id="line2d_29">
        <path class="st0" d="M159.73,684.65l430.83-134.02"/>
      </g>
      <g id="line2d_30">
        <path class="st0" d="M590.56,550.63l543.3-374.21"/>
      </g>
      <g id="line2d_31">
        <path class="st0" d="M0,679.89h152.36"/>
      </g>
      <g id="line2d_32">
        <path class="st0" d="M152.36,679.89l438.53-130.01"/>
      </g>
      <g id="line2d_33">
        <path class="st0" d="M590.89,549.88l542.97-352.96"/>
      </g>
      <g id="line2d_34">
        <path class="st0" d="M0,675.12h145.43"/>
      </g>
      <g id="line2d_35">
        <path class="st0" d="M145.43,675.12l445.88-126.22"/>
      </g>
      <g id="line2d_36">
        <path class="st0" d="M591.31,548.9l542.55-333.94"/>
      </g>
      <g id="line2d_37">
        <path class="st0" d="M0,670.36h138.9"/>
      </g>
      <g id="line2d_38">
        <path class="st0" d="M138.9,670.36l452.9-122.63"/>
      </g>
      <g id="line2d_39">
        <path class="st0" d="M591.8,547.73l542.06-316.76"/>
      </g>
      <g id="line2d_40">
        <path class="st0" d="M0,665.6h132.72"/>
      </g>
      <g id="line2d_41">
        <path class="st0" d="M132.72,665.6l459.64-119.19"/>
      </g>
      <g id="line2d_42">
        <path class="st0" d="M592.36,546.41l541.5-301.09"/>
      </g>
      <g id="line2d_43">
        <path class="st0" d="M0,660.84h126.86"/>
      </g>
      <g id="line2d_44">
        <path class="st0" d="M126.86,660.84l466.1-115.89"/>
      </g>
      <g id="line2d_45">
        <path class="st0" d="M592.96,544.94l540.9-286.71"/>
      </g>
      <g id="line2d_46">
        <path class="st0" d="M0,656.07h121.29"/>
      </g>
      <g id="line2d_47">
        <path class="st0" d="M121.29,656.07l472.31-112.71"/>
      </g>
      <g id="line2d_48">
        <path class="st0" d="M593.6,543.37l540.26-273.41"/>
      </g>
      <g id="line2d_49">
        <path class="st0" d="M0,651.31h115.99"/>
      </g>
      <g id="line2d_50">
        <path class="st0" d="M115.99,651.31l478.28-109.62"/>
      </g>
      <g id="line2d_51">
        <path class="st0" d="M594.27,541.69l539.59-261.06"/>
      </g>
      <g id="line2d_52">
        <path class="st0" d="M0,646.55h110.93"/>
      </g>
      <g id="line2d_53">
        <path class="st0" d="M110.93,646.55l484.03-106.63"/>
      </g>
      <g id="line2d_54">
        <path class="st0" d="M594.96,539.92l538.9-249.54"/>
      </g>
      <g id="line2d_55">
        <path class="st0" d="M0,641.79h106.1"/>
      </g>
      <g id="line2d_56">
        <path class="st0" d="M106.1,641.79l489.57-103.71"/>
      </g>
      <g id="line2d_57">
        <path class="st0" d="M595.67,538.08l538.19-238.73"/>
      </g>
      <g id="line2d_58">
        <path class="st0" d="M0,637.03h101.48"/>
      </g>
      <g id="line2d_59">
        <path class="st0" d="M101.48,637.03l494.91-100.86"/>
      </g>
      <g id="line2d_60">
        <path class="st0" d="M596.39,536.17l537.47-228.55"/>
      </g>
      <g id="line2d_61">
        <path class="st0" d="M0,632.26h97.06"/>
      </g>
      <g id="line2d_62">
        <path class="st0" d="M97.06,632.26l500.05-98.07"/>
      </g>
      <g id="line2d_63">
        <path class="st0" d="M597.11,534.2l536.74-218.94"/>
      </g>
      <g id="line2d_64">
        <path class="st0" d="M0,627.5h92.83"/>
      </g>
      <g id="line2d_65">
        <path class="st0" d="M92.83,627.5l505.01-95.33"/>
      </g>
      <g id="line2d_66">
        <path class="st0" d="M597.84,532.17l536.01-209.84"/>
      </g>
      <g id="line2d_67">
        <path class="st0" d="M0,622.74h88.78"/>
      </g>
      <g id="line2d_68">
        <path class="st0" d="M88.78,622.74l509.79-92.64"/>
      </g>
      <g id="line2d_69">
        <path class="st0" d="M598.57,530.1l535.28-201.19"/>
      </g>
      <g id="line2d_70">
        <path class="st0" d="M0,617.98h84.9"/>
      </g>
      <g id="line2d_71">
        <path class="st0" d="M84.9,617.98l514.4-89.99"/>
      </g>
      <g id="line2d_72">
        <path class="st0" d="M599.3,527.98l534.56-192.95"/>
      </g>
      <g id="line2d_73">
        <path class="st0" d="M0,613.21h81.17"/>
      </g>
      <g id="line2d_74">
        <path class="st0" d="M81.17,613.21l518.85-87.39"/>
      </g>
      <g id="line2d_75">
        <path class="st0" d="M600.03,525.83l533.83-185.07"/>
      </g>
      <g id="line2d_76">
        <path class="st0" d="M0,608.45h77.6"/>
      </g>
      <g id="line2d_77">
        <path class="st0" d="M77.6,608.45l523.14-84.82"/>
      </g>
      <g id="line2d_78">
        <path class="st0" d="M600.74,523.63l533.12-177.54"/>
      </g>
      <g id="line2d_79">
        <path class="st0" d="M0,603.69h74.18"/>
      </g>
      <g id="line2d_80">
        <path class="st0" d="M74.18,603.69l527.27-82.28"/>
      </g>
      <g id="line2d_81">
        <path class="st0" d="M601.45,521.41l532.41-170.31"/>
      </g>
      <g id="line2d_82">
        <path class="st0" d="M0,598.93h70.89"/>
      </g>
      <g id="line2d_83">
        <path class="st0" d="M70.89,598.93l531.26-79.77"/>
      </g>
      <g id="line2d_84">
        <path class="st0" d="M602.15,519.16l531.71-163.36"/>
      </g>
      <g id="line2d_85">
        <path class="st0" d="M0,594.17h67.74"/>
      </g>
      <g id="line2d_86">
        <path class="st0" d="M67.74,594.17l535.1-77.29"/>
      </g>
      <g id="line2d_87">
        <path class="st0" d="M602.83,516.88l531.02-156.67"/>
      </g>
      <g id="line2d_88">
        <path class="st0" d="M0,589.4h64.71"/>
      </g>
      <g id="line2d_89">
        <path class="st0" d="M64.71,589.4l538.79-74.83"/>
      </g>
      <g id="line2d_90">
        <path class="st0" d="M603.51,514.57l530.35-150.21"/>
      </g>
      <g id="line2d_91">
        <path class="st0" d="M0,584.64h61.81"/>
      </g>
      <g id="line2d_92">
        <path class="st0" d="M61.81,584.64l542.35-72.4"/>
      </g>
      <g id="line2d_93">
        <path class="st0" d="M604.17,512.25l529.69-143.98"/>
      </g>
      <g id="line2d_94">
        <path class="st0" d="M0,579.88h59.03"/>
      </g>
      <g id="line2d_95">
        <path class="st0" d="M59.03,579.88l545.78-69.98"/>
      </g>
      <g id="line2d_96">
        <path class="st0" d="M604.81,509.9l529.05-137.94"/>
      </g>
      <g id="line2d_97">
        <path class="st0" d="M0,575.12h56.37"/>
      </g>
      <g id="line2d_98">
        <path class="st0" d="M56.37,575.12l549.07-67.58"/>
      </g>
      <g id="line2d_99">
        <path class="st0" d="M605.44,507.53l528.42-132.09"/>
      </g>
      <g id="line2d_100">
        <path class="st0" d="M0,570.36h53.82"/>
      </g>
      <g id="line2d_101">
        <path class="st0" d="M53.82,570.36l552.23-65.21"/>
      </g>
      <g id="line2d_102">
        <path class="st0" d="M606.05,505.15l527.81-126.41"/>
      </g>
      <g id="line2d_103">
        <path class="st0" d="M0,565.59h51.38"/>
      </g>
      <g id="line2d_104">
        <path class="st0" d="M51.38,565.59l555.27-62.84"/>
      </g>
      <g id="line2d_105">
        <path class="st0" d="M606.65,502.75l527.21-120.89"/>
      </g>
      <g id="line2d_106">
        <path class="st0" d="M0,560.83h49.05"/>
      </g>
      <g id="line2d_107">
        <path class="st0" d="M49.05,560.83l558.18-60.5"/>
      </g>
      <g id="line2d_108">
        <path class="st0" d="M607.23,500.33l526.63-115.51"/>
      </g>
      <g id="line2d_109">
        <path class="st0" d="M0,556.07h46.82"/>
      </g>
      <g id="line2d_110">
        <path class="st0" d="M46.82,556.07l560.97-58.16"/>
      </g>
      <g id="line2d_111">
        <path class="st0" d="M607.79,497.91l526.07-110.27"/>
      </g>
      <g id="line2d_112">
        <path class="st0" d="M0,551.31h44.69"/>
      </g>
      <g id="line2d_113">
        <path class="st0" d="M44.69,551.31l563.64-55.84"/>
      </g>
      <g id="line2d_114">
        <path class="st0" d="M608.33,495.47l525.53-105.16"/>
      </g>
      <g id="line2d_115">
        <path class="st0" d="M0,546.54h42.66"/>
      </g>
      <g id="line2d_116">
        <path class="st0" d="M42.66,546.54l566.19-53.53"/>
      </g>
      <g id="line2d_117">
        <path class="st0" d="M608.85,493.01l525.01-100.17"/>
      </g>
      <g id="line2d_118">
        <path class="st0" d="M0,541.78h40.73"/>
      </g>
      <g id="line2d_119">
        <path class="st0" d="M40.73,541.78l568.62-51.23"/>
      </g>
      <g id="line2d_120">
        <path class="st0" d="M609.35,490.55l524.51-95.29"/>
      </g>
      <g id="line2d_121">
        <path class="st0" d="M0,537.02h38.89"/>
      </g>
      <g id="line2d_122">
        <path class="st0" d="M38.89,537.02l570.94-48.94"/>
      </g>
      <g id="line2d_123">
        <path class="st0" d="M609.84,488.08l524.02-90.51"/>
      </g>
      <g id="line2d_124">
        <path class="st0" d="M0,532.26h37.15"/>
      </g>
      <g id="line2d_125">
        <path class="st0" d="M37.15,532.26l573.15-46.66"/>
      </g>
      <g id="line2d_126">
        <path class="st0" d="M610.3,485.59l523.56-85.82"/>
      </g>
      <g id="line2d_127">
        <path class="st0" d="M0,527.5h35.49"/>
      </g>
      <g id="line2d_128">
        <path class="st0" d="M35.49,527.5l575.25-44.39"/>
      </g>
      <g id="line2d_129">
        <path class="st0" d="M610.74,483.1l523.12-81.22"/>
      </g>
      <g id="line2d_130">
        <path class="st0" d="M0,522.73h33.93"/>
      </g>
      <g id="line2d_131">
        <path class="st0" d="M33.93,522.73l577.24-42.13"/>
      </g>
      <g id="line2d_132">
        <path class="st0" d="M611.16,480.6l522.69-76.71"/>
      </g>
      <g id="line2d_133">
        <path class="st0" d="M0,517.97h32.45"/>
      </g>
      <g id="line2d_134">
        <path class="st0" d="M32.45,517.97l579.11-39.87"/>
      </g>
      <g id="line2d_135">
        <path class="st0" d="M611.57,478.1l522.29-72.27"/>
      </g>
      <g id="line2d_136">
        <path class="st0" d="M0,513.21h31.06"/>
      </g>
      <g id="line2d_137">
        <path class="st0" d="M31.06,513.21l580.88-37.63"/>
      </g>
      <g id="line2d_138">
        <path class="st0" d="M611.95,475.58l521.91-67.9"/>
      </g>
      <g id="line2d_139">
        <path class="st0" d="M0,508.45h29.76"/>
      </g>
      <g id="line2d_140">
        <path class="st0" d="M29.76,508.45l582.55-35.38"/>
      </g>
      <g id="line2d_141">
        <path class="st0" d="M612.31,473.06l521.55-63.59"/>
      </g>
      <g id="line2d_142">
        <path class="st0" d="M0,503.68h28.54"/>
      </g>
      <g id="line2d_143">
        <path class="st0" d="M28.54,503.68l584.1-33.15"/>
      </g>
      <g id="line2d_144">
        <path class="st0" d="M612.65,470.54l521.21-59.34"/>
      </g>
      <g id="line2d_145">
        <path class="st0" d="M0,498.92h27.41"/>
      </g>
      <g id="line2d_146">
        <path class="st0" d="M27.41,498.92l585.56-30.91"/>
      </g>
      <g id="line2d_147">
        <path class="st0" d="M612.96,468.01l520.9-55.15"/>
      </g>
      <g id="line2d_148">
        <path class="st0" d="M0,494.16h26.35"/>
      </g>
      <g id="line2d_149">
        <path class="st0" d="M26.35,494.16l586.91-28.69"/>
      </g>
      <g id="line2d_150">
        <path class="st0" d="M613.26,465.47l520.6-51.01"/>
      </g>
      <g id="line2d_151">
        <path class="st0" d="M0,489.4h25.38"/>
      </g>
      <g id="line2d_152">
        <path class="st0" d="M25.38,489.4l588.15-26.46"/>
      </g>
      <g id="line2d_153">
        <path class="st0" d="M613.53,462.93l520.33-46.92"/>
      </g>
      <g id="line2d_154">
        <path class="st0" d="M0,484.64h24.49"/>
      </g>
      <g id="line2d_155">
        <path class="st0" d="M24.49,484.64l589.3-24.25"/>
      </g>
      <g id="line2d_156">
        <path class="st0" d="M613.78,460.39l520.07-42.87"/>
      </g>
      <g id="line2d_157">
        <path class="st0" d="M0,479.87h23.68"/>
      </g>
      <g id="line2d_158">
        <path class="st0" d="M23.68,479.87l590.34-22.03"/>
      </g>
      <g id="line2d_159">
        <path class="st0" d="M614.02,457.84l519.84-38.85"/>
      </g>
      <g id="line2d_160">
        <path class="st0" d="M0,475.11h22.94"/>
      </g>
      <g id="line2d_161">
        <path class="st0" d="M22.94,475.11l591.28-19.82"/>
      </g>
      <g id="line2d_162">
        <path class="st0" d="M614.22,455.29l519.63-34.87"/>
      </g>
      <g id="line2d_163">
        <path class="st0" d="M0,470.35h22.29"/>
      </g>
      <g id="line2d_164">
        <path class="st0" d="M22.29,470.35l592.12-17.61"/>
      </g>
      <g id="line2d_165">
        <path class="st0" d="M614.41,452.74l519.45-30.92"/>
      </g>
      <g id="line2d_166">
        <path class="st0" d="M0,465.59h21.72"/>
      </g>
      <g id="line2d_167">
        <path class="st0" d="M21.72,465.59l592.86-15.4"/>
      </g>
      <g id="line2d_168">
        <path class="st0" d="M614.58,450.18l519.28-27"/>
      </g>
      <g id="line2d_169">
        <path class="st0" d="M0,460.82h21.22"/>
      </g>
      <g id="line2d_170">
        <path class="st0" d="M21.22,460.82l593.5-13.2"/>
      </g>
      <g id="line2d_171">
        <path class="st0" d="M614.72,447.63l519.14-23.1"/>
      </g>
      <g id="line2d_172">
        <path class="st0" d="M0,456.06h20.8"/>
      </g>
      <g id="line2d_173">
        <path class="st0" d="M20.8,456.06l594.05-11"/>
      </g>
      <g id="line2d_174">
        <path class="st0" d="M614.84,445.07l519.02-19.22"/>
      </g>
      <g id="line2d_175">
        <path class="st0" d="M0,451.3h20.45"/>
      </g>
      <g id="line2d_176">
        <path class="st0" d="M20.45,451.3l594.49-8.79"/>
      </g>
      <g id="line2d_177">
        <path class="st0" d="M614.94,442.5l518.92-15.36"/>
      </g>
      <g id="line2d_178">
        <path class="st0" d="M0,446.54h20.19"/>
      </g>
      <g id="line2d_179">
        <path class="st0" d="M20.19,446.54l594.83-6.6"/>
      </g>
      <g id="line2d_180">
        <path class="st0" d="M615.02,439.94l518.84-11.51"/>
      </g>
      <g id="line2d_181">
        <path class="st0" d="M0,441.78h19.99"/>
      </g>
      <g id="line2d_182">
        <path class="st0" d="M19.99,441.78l595.08-4.4"/>
      </g>
      <g id="line2d_183">
        <path class="st0" d="M615.07,437.38l518.78-7.67"/>
      </g>
      <g id="line2d_184">
        <path class="st0" d="M0,437.01h19.88"/>
      </g>
      <g id="line2d_185">
        <path class="st0" d="M19.88,437.01l595.23-2.2"/>
      </g>
      <g id="line2d_186">
        <path class="st0" d="M615.11,434.82l518.75-3.83"/>
      </g>
      <g id="line2d_187">
        <path class="st0" d="M0,432.25h19.84"/>
      </g>
      <g id="line2d_188">
        <path class="st0" d="M19.84,432.25h595.28"/>
      </g>
      <g id="line2d_189">
        <path class="st0" d="M615.12,432.25h518.74"/>
      </g>
      <g id="line2d_190">
        <path class="st0" d="M0,427.49h19.88"/>
      </g>
      <g id="line2d_191">
        <path class="st0" d="M19.88,427.49l595.23,2.2"/>
      </g>
      <g id="line2d_192">
        <path class="st0" d="M615.11,429.69l518.75,3.83"/>
      </g>
      <g id="line2d_193">
        <path class="st0" d="M0,422.73h19.99"/>
      </g>
      <g id="line2d_194">
        <path class="st0" d="M19.99,422.73l595.08,4.4"/>
      </g>
      <g id="line2d_195">
        <path class="st0" d="M615.07,427.12l518.78,7.67"/>
      </g>
      <g id="line2d_196">
        <path class="st0" d="M0,417.96h20.19"/>
      </g>
      <g id="line2d_197">
        <path class="st0" d="M20.19,417.96l594.83,6.6"/>
      </g>
      <g id="line2d_198">
        <path class="st0" d="M615.02,424.56l518.84,11.51"/>
      </g>
      <g id="line2d_199">
        <path class="st0" d="M0,413.2h20.45"/>
      </g>
      <g id="line2d_200">
        <path class="st0" d="M20.45,413.2l594.49,8.79"/>
      </g>
      <g id="line2d_201">
        <path class="st0" d="M614.94,422l518.92,15.36"/>
      </g>
      <g id="line2d_202">
        <path class="st0" d="M0,408.44h20.8"/>
      </g>
      <g id="line2d_203">
        <path class="st0" d="M20.8,408.44l594.05,11"/>
      </g>
      <g id="line2d_204">
        <path class="st0" d="M614.84,419.44l519.02,19.22"/>
      </g>
      <g id="line2d_205">
        <path class="st0" d="M0,403.68h21.22"/>
      </g>
      <g id="line2d_206">
        <path class="st0" d="M21.22,403.68l593.5,13.2"/>
      </g>
      <g id="line2d_207">
        <path class="st0" d="M614.72,416.88l519.14,23.1"/>
      </g>
      <g id="line2d_208">
        <path class="st0" d="M0,398.92h21.72"/>
      </g>
      <g id="line2d_209">
        <path class="st0" d="M21.72,398.92l592.86,15.4"/>
      </g>
      <g id="line2d_210">
        <path class="st0" d="M614.58,414.32l519.28,27"/>
      </g>
      <g id="line2d_211">
        <path class="st0" d="M0,394.15h22.29"/>
      </g>
      <g id="line2d_212">
        <path class="st0" d="M22.29,394.15l592.12,17.61"/>
      </g>
      <g id="line2d_213">
        <path class="st0" d="M614.41,411.76l519.45,30.92"/>
      </g>
      <g id="line2d_214">
        <path class="st0" d="M0,389.39h22.94"/>
      </g>
      <g id="line2d_215">
        <path class="st0" d="M22.94,389.39l591.28,19.82"/>
      </g>
      <g id="line2d_216">
        <path class="st0" d="M614.22,409.21l519.63,34.87"/>
      </g>
      <g id="line2d_217">
        <path class="st0" d="M0,384.63h23.68"/>
      </g>
      <g id="line2d_218">
        <path class="st0" d="M23.68,384.63l590.34,22.03"/>
      </g>
      <g id="line2d_219">
        <path class="st0" d="M614.02,406.66l519.84,38.85"/>
      </g>
      <g id="line2d_220">
        <path class="st0" d="M0,379.87h24.49"/>
      </g>
      <g id="line2d_221">
        <path class="st0" d="M24.49,379.87l589.3,24.25"/>
      </g>
      <g id="line2d_222">
        <path class="st0" d="M613.78,404.11l520.07,42.87"/>
      </g>
      <g id="line2d_223">
        <path class="st0" d="M0,375.1h25.38"/>
      </g>
      <g id="line2d_224">
        <path class="st0" d="M25.38,375.1l588.15,26.46"/>
      </g>
      <g id="line2d_225">
        <path class="st0" d="M613.53,401.57l520.33,46.92"/>
      </g>
      <g id="line2d_226">
        <path class="st0" d="M0,370.34h26.35"/>
      </g>
      <g id="line2d_227">
        <path class="st0" d="M26.35,370.34l586.91,28.69"/>
      </g>
      <g id="line2d_228">
        <path class="st0" d="M613.26,399.03l520.6,51.01"/>
      </g>
      <g id="line2d_229">
        <path class="st0" d="M0,365.58h27.41"/>
      </g>
      <g id="line2d_230">
        <path class="st0" d="M27.41,365.58l585.56,30.91"/>
      </g>
      <g id="line2d_231">
        <path class="st0" d="M612.96,396.49l520.9,55.15"/>
      </g>
      <g id="line2d_232">
        <path class="st0" d="M0,360.82h28.54"/>
      </g>
      <g id="line2d_233">
        <path class="st0" d="M28.54,360.82l584.1,33.15"/>
      </g>
      <g id="line2d_234">
        <path class="st0" d="M612.65,393.96l521.21,59.34"/>
      </g>
      <g id="line2d_235">
        <path class="st0" d="M0,356.06h29.76"/>
      </g>
      <g id="line2d_236">
        <path class="st0" d="M29.76,356.06l582.55,35.38"/>
      </g>
      <g id="line2d_237">
        <path class="st0" d="M612.31,391.44l521.55,63.59"/>
      </g>
      <g id="line2d_238">
        <path class="st0" d="M0,351.29h31.06"/>
      </g>
      <g id="line2d_239">
        <path class="st0" d="M31.06,351.29l580.88,37.63"/>
      </g>
      <g id="line2d_240">
        <path class="st0" d="M611.95,388.92l521.91,67.9"/>
      </g>
      <g id="line2d_241">
        <path class="st0" d="M0,346.53h32.45"/>
      </g>
      <g id="line2d_242">
        <path class="st0" d="M32.45,346.53l579.11,39.87"/>
      </g>
      <g id="line2d_243">
        <path class="st0" d="M611.57,386.41l522.29,72.27"/>
      </g>
      <g id="line2d_244">
        <path class="st0" d="M0,341.77h33.93"/>
      </g>
      <g id="line2d_245">
        <path class="st0" d="M33.93,341.77l577.24,42.13"/>
      </g>
      <g id="line2d_246">
        <path class="st0" d="M611.16,383.9l522.69,76.71"/>
      </g>
      <g id="line2d_247">
        <path class="st0" d="M0,337.01h35.49"/>
      </g>
      <g id="line2d_248">
        <path class="st0" d="M35.49,337.01l575.25,44.39"/>
      </g>
      <g id="line2d_249">
        <path class="st0" d="M610.74,381.4l523.12,81.22"/>
      </g>
      <g id="line2d_250">
        <path class="st0" d="M0,332.24h37.15"/>
      </g>
      <g id="line2d_251">
        <path class="st0" d="M37.15,332.24l573.15,46.66"/>
      </g>
      <g id="line2d_252">
        <path class="st0" d="M610.3,378.91l523.56,85.82"/>
      </g>
      <g id="line2d_253">
        <path class="st0" d="M0,327.48h38.89"/>
      </g>
      <g id="line2d_254">
        <path class="st0" d="M38.89,327.48l570.94,48.94"/>
      </g>
      <g id="line2d_255">
        <path class="st0" d="M609.84,376.43l524.02,90.51"/>
      </g>
      <g id="line2d_256">
        <path class="st0" d="M0,322.72h40.73"/>
      </g>
      <g id="line2d_257">
        <path class="st0" d="M40.73,322.72l568.62,51.23"/>
      </g>
      <g id="line2d_258">
        <path class="st0" d="M609.35,373.95l524.51,95.29"/>
      </g>
      <g id="line2d_259">
        <path class="st0" d="M0,317.96h42.66"/>
      </g>
      <g id="line2d_260">
        <path class="st0" d="M42.66,317.96l566.19,53.53"/>
      </g>
      <g id="line2d_261">
        <path class="st0" d="M608.85,371.49l525.01,100.17"/>
      </g>
      <g id="line2d_262">
        <path class="st0" d="M0,313.2h44.69"/>
      </g>
      <g id="line2d_263">
        <path class="st0" d="M44.69,313.2l563.64,55.84"/>
      </g>
      <g id="line2d_264">
        <path class="st0" d="M608.33,369.04l525.53,105.16"/>
      </g>
      <g id="line2d_265">
        <path class="st0" d="M0,308.43h46.82"/>
      </g>
      <g id="line2d_266">
        <path class="st0" d="M46.82,308.43l560.97,58.16"/>
      </g>
      <g id="line2d_267">
        <path class="st0" d="M607.79,366.6l526.07,110.27"/>
      </g>
      <g id="line2d_268">
        <path class="st0" d="M0,303.67h49.05"/>
      </g>
      <g id="line2d_269">
        <path class="st0" d="M49.05,303.67l558.18,60.5"/>
      </g>
      <g id="line2d_270">
        <path class="st0" d="M607.23,364.17l526.63,115.51"/>
      </g>
      <g id="line2d_271">
        <path class="st0" d="M0,298.91h51.38"/>
      </g>
      <g id="line2d_272">
        <path class="st0" d="M51.38,298.91l555.27,62.84"/>
      </g>
      <g id="line2d_273">
        <path class="st0" d="M606.65,361.75l527.21,120.89"/>
      </g>
      <g id="line2d_274">
        <path class="st0" d="M0,294.15h53.82"/>
      </g>
      <g id="line2d_275">
        <path class="st0" d="M53.82,294.15l552.23,65.21"/>
      </g>
      <g id="line2d_276">
        <path class="st0" d="M606.05,359.35l527.81,126.41"/>
      </g>
      <g id="line2d_277">
        <path class="st0" d="M0,289.38h56.37"/>
      </g>
      <g id="line2d_278">
        <path class="st0" d="M56.37,289.38l549.07,67.58"/>
      </g>
      <g id="line2d_279">
        <path class="st0" d="M605.44,356.97l528.42,132.09"/>
      </g>
      <g id="line2d_280">
        <path class="st0" d="M0,284.62h59.03"/>
      </g>
      <g id="line2d_281">
        <path class="st0" d="M59.03,284.62l545.78,69.98"/>
      </g>
      <g id="line2d_282">
        <path class="st0" d="M604.81,354.6l529.05,137.94"/>
      </g>
      <g id="line2d_283">
        <path class="st0" d="M0,279.86h61.81"/>
      </g>
      <g id="line2d_284">
        <path class="st0" d="M61.81,279.86l542.35,72.4"/>
      </g>
      <g id="line2d_285">
        <path class="st0" d="M604.17,352.26l529.69,143.98"/>
      </g>
      <g id="line2d_286">
        <path class="st0" d="M0,275.1h64.71"/>
      </g>
      <g id="line2d_287">
        <path class="st0" d="M64.71,275.1l538.79,74.83"/>
      </g>
      <g id="line2d_288">
        <path class="st0" d="M603.51,349.93l530.35,150.21"/>
      </g>
      <g id="line2d_289">
        <path class="st0" d="M0,270.34h67.74"/>
      </g>
      <g id="line2d_290">
        <path class="st0" d="M67.74,270.34l535.1,77.29"/>
      </g>
      <g id="line2d_291">
        <path class="st0" d="M602.83,347.62l531.02,156.67"/>
      </g>
      <g id="line2d_292">
        <path class="st0" d="M0,265.57h70.89"/>
      </g>
      <g id="line2d_293">
        <path class="st0" d="M70.89,265.57l531.26,79.77"/>
      </g>
      <g id="line2d_294">
        <path class="st0" d="M602.15,345.34l531.71,163.36"/>
      </g>
      <g id="line2d_295">
        <path class="st0" d="M0,260.81h74.18"/>
      </g>
      <g id="line2d_296">
        <path class="st0" d="M74.18,260.81l527.27,82.28"/>
      </g>
      <g id="line2d_297">
        <path class="st0" d="M601.45,343.09l532.41,170.31"/>
      </g>
      <g id="line2d_298">
        <path class="st0" d="M0,256.05h77.6"/>
      </g>
      <g id="line2d_299">
        <path class="st0" d="M77.6,256.05l523.14,84.82"/>
      </g>
      <g id="line2d_300">
        <path class="st0" d="M600.74,340.87l533.12,177.54"/>
      </g>
      <g id="line2d_301">
        <path class="st0" d="M0,251.29h81.17"/>
      </g>
      <g id="line2d_302">
        <path class="st0" d="M81.17,251.29l518.85,87.39"/>
      </g>
      <g id="line2d_303">
        <path class="st0" d="M600.03,338.68l533.83,185.07"/>
      </g>
      <g id="line2d_304">
        <path class="st0" d="M0,246.53h84.9"/>
      </g>
      <g id="line2d_305">
        <path class="st0" d="M84.9,246.53l514.4,89.99"/>
      </g>
      <g id="line2d_306">
        <path class="st0" d="M599.3,336.52l534.56,192.95"/>
      </g>
      <g id="line2d_307">
        <path class="st0" d="M0,241.76h88.78"/>
      </g>
      <g id="line2d_308">
        <path class="st0" d="M88.78,241.76l509.79,92.64"/>
      </g>
      <g id="line2d_309">
        <path class="st0" d="M598.57,334.4l535.28,201.19"/>
      </g>
      <g id="line2d_310">
        <path class="st0" d="M0,237h92.83"/>
      </g>
      <g id="line2d_311">
        <path class="st0" d="M92.83,237l505.01,95.33"/>
      </g>
      <g id="line2d_312">
        <path class="st0" d="M597.84,332.33l536.01,209.84"/>
      </g>
      <g id="line2d_313">
        <path class="st0" d="M0,232.24h97.06"/>
      </g>
      <g id="line2d_314">
        <path class="st0" d="M97.06,232.24l500.05,98.07"/>
      </g>
      <g id="line2d_315">
        <path class="st0" d="M597.11,330.3l536.74,218.94"/>
      </g>
      <g id="line2d_316">
        <path class="st0" d="M0,227.48h101.48"/>
      </g>
      <g id="line2d_317">
        <path class="st0" d="M101.48,227.48l494.91,100.86"/>
      </g>
      <g id="line2d_318">
        <path class="st0" d="M596.39,328.33l537.47,228.55"/>
      </g>
      <g id="line2d_319">
        <path class="st0" d="M0,222.71h106.1"/>
      </g>
      <g id="line2d_320">
        <path class="st0" d="M106.1,222.71l489.57,103.71"/>
      </g>
      <g id="line2d_321">
        <path class="st0" d="M595.67,326.42l538.19,238.73"/>
      </g>
      <g id="line2d_322">
        <path class="st0" d="M0,217.95h110.93"/>
      </g>
      <g id="line2d_323">
        <path class="st0" d="M110.93,217.95l484.03,106.63"/>
      </g>
      <g id="line2d_324">
        <path class="st0" d="M594.96,324.58l538.9,249.54"/>
      </g>
      <g id="line2d_325">
        <path class="st0" d="M0,213.19h115.99"/>
      </g>
      <g id="line2d_326">
        <path class="st0" d="M115.99,213.19l478.28,109.62"/>
      </g>
      <g id="line2d_327">
        <path class="st0" d="M594.27,322.81l539.59,261.06"/>
      </g>
      <g id="line2d_328">
        <path class="st0" d="M0,208.43h121.29"/>
      </g>
      <g id="line2d_329">
        <path class="st0" d="M121.29,208.43l472.31,112.71"/>
      </g>
      <g id="line2d_330">
        <path class="st0" d="M593.6,321.14l540.26,273.41"/>
      </g>
      <g id="line2d_331">
        <path class="st0" d="M0,203.67h126.86"/>
      </g>
      <g id="line2d_332">
        <path class="st0" d="M126.86,203.67l466.1,115.89"/>
      </g>
      <g id="line2d_333">
        <path class="st0" d="M592.96,319.56l540.9,286.71"/>
      </g>
      <g id="line2d_334">
        <path class="st0" d="M0,198.9h132.72"/>
      </g>
      <g id="line2d_335">
        <path class="st0" d="M132.72,198.9l459.64,119.19"/>
      </g>
      <g id="line2d_336">
        <path class="st0" d="M592.36,318.1l541.5,301.09"/>
      </g>
      <g id="line2d_337">
        <path class="st0" d="M0,194.14h138.9"/>
      </g>
      <g id="line2d_338">
        <path class="st0" d="M138.9,194.14l452.9,122.63"/>
      </g>
      <g id="line2d_339">
        <path class="st0" d="M591.8,316.77l542.06,316.76"/>
      </g>
      <g id="line2d_340">
        <path class="st0" d="M0,189.38h145.43"/>
      </g>
      <g id="line2d_341">
        <path class="st0" d="M145.43,189.38l445.88,126.22"/>
      </g>
      <g id="line2d_342">
        <path class="st0" d="M591.31,315.6l542.55,333.94"/>
      </g>
      <g id="line2d_343">
        <path class="st0" d="M0,184.62h152.36"/>
      </g>
      <g id="line2d_344">
        <path class="st0" d="M152.36,184.62l438.53,130.01"/>
      </g>
      <g id="line2d_345">
        <path class="st0" d="M590.89,314.62l542.97,352.96"/>
      </g>
      <g id="line2d_346">
        <path class="st0" d="M0,179.85h159.73"/>
      </g>
      <g id="line2d_347">
        <path class="st0" d="M159.73,179.85l430.83,134.02"/>
      </g>
      <g id="line2d_348">
        <path class="st0" d="M590.56,313.87l543.3,374.21"/>
      </g>
      <g id="line2d_349">
        <path class="st0" d="M0,175.09h167.62"/>
      </g>
      <g id="line2d_350">
        <path class="st0" d="M167.62,175.09l422.73,138.3"/>
      </g>
      <g id="line2d_351">
        <path class="st0" d="M590.36,313.39l543.5,398.25"/>
      </g>
      <g id="line2d_352">
        <path class="st0" d="M0,170.33h176.11"/>
      </g>
      <g id="line2d_353">
        <path class="st0" d="M176.11,170.33l414.19,142.93"/>
      </g>
      <g id="line2d_354">
        <path class="st0" d="M590.3,313.26l531.78,416.63"/>
      </g>
      <g id="line2d_355">
        <path class="st0" d="M0,165.57h185.31"/>
      </g>
      <g id="line2d_356">
        <path class="st0" d="M185.31,165.57l405.12,147.99"/>
      </g>
      <g id="line2d_357">
        <path class="st0" d="M590.43,313.56l493.78,416.33"/>
      </g>
      <g id="line2d_358">
        <path class="st0" d="M0,160.81h195.39"/>
      </g>
      <g id="line2d_359">
        <path class="st0" d="M195.39,160.81l395.42,153.63"/>
      </g>
      <g id="line2d_360">
        <path class="st0" d="M590.81,314.44l453.94,415.45"/>
      </g>
      <g id="line2d_361">
        <path class="st0" d="M0,156.04h206.59"/>
      </g>
      <g id="line2d_362">
        <path class="st0" d="M206.59,156.04l384.93,160.04"/>
      </g>
      <g id="line2d_363">
        <path class="st0" d="M591.51,316.09l411.6,413.8"/>
      </g>
      <g id="line2d_364">
        <path class="st0" d="M0,151.28h219.28"/>
      </g>
      <g id="line2d_365">
        <path class="st0" d="M219.28,151.28l373.39,167.57"/>
      </g>
      <g id="line2d_366">
        <path class="st0" d="M592.67,318.85l365.72,411.04"/>
      </g>
      <g id="line2d_367">
        <path class="st0" d="M0,146.52h234.14"/>
      </g>
      <g id="line2d_368">
        <path class="st0" d="M234.14,146.52l360.34,176.83"/>
      </g>
      <g id="line2d_369">
        <path class="st0" d="M594.48,323.35l314.45,406.54"/>
      </g>
      <g id="line2d_370">
        <path class="st0" d="M0,141.76h252.66"/>
      </g>
      <g id="line2d_371">
        <path class="st0" d="M252.66,141.76l344.7,189.22"/>
      </g>
      <g id="line2d_372">
        <path class="st0" d="M597.36,330.98l253.84,398.91"/>
      </g>
      <g id="line2d_373">
        <path class="st0" d="M0,136.99h279.91"/>
      </g>
      <g id="line2d_374">
        <path class="st0" d="M279.91,136.99l322.62,209.6"/>
      </g>
      <g id="line2d_375">
        <path class="st0" d="M602.53,346.6l170.47,383.29"/>
      </g>
    </g>
  </g>
</svg>