<?xml version="1.0" encoding="utf-8" standalone="no"?>
<!DOCTYPE svg PUBLIC "-//W3C//DTD SVG 1.1//EN"
  "http://www.w3.org/Graphics/SVG/1.1/DTD/svg11.dtd">
<svg xmlns:xlink="http://www.w3.org/1999/xlink" width="571.464567pt" height="808.214173pt" viewBox="0 0 571.464567 808.214173" xmlns="http://www.w3.org/2000/svg" version="1.1">
 <metadata>
  <rdf:RDF xmlns:dc="http://purl.org/dc/elements/1.1/" xmlns:cc="http://creativecommons.org/ns#" xmlns:rdf="http://www.w3.org/1999/02/22-rdf-syntax-ns#">
   <cc:Work>
    <dc:type rdf:resource="http://purl.org/dc/dcmitype/StillImage"/>
    <dc:date>2025-10-20T16:27:50.359980</dc:date>
    <dc:format>image/svg+xml</dc:format>
    <dc:creator>
     <cc:Agent>
      <dc:title>Matplotlib v3.10.6, https://matplotlib.org/</dc:title>
     </cc:Agent>
    </dc:creator>
   </cc:Work>
  </rdf:RDF>
 </metadata>
 <defs>
  <style type="text/css">*{stroke-linejoin: round; stroke-linecap: butt}</style>
 </defs>
 <g id="figure_1">
  <g id="patch_1">
   <path d="M 0 808.214173 
L 571.464567 808.214173 
L 571.464567 0 
L 0 0 
z
" style="fill: #ffffff"/>
  </g>
  <g id="axes_1">
   <g id="line2d_1">
    <path d="M 517.03937 54.425197 
L 517.03937 64.304945 
L 362.834646 65.703848 
L 362.834646 66.578162 
L 208.629921 67.977064 
L 208.629921 69.375966 
L 54.425197 70.774869 
L 54.425197 90.884091 
L 208.629921 92.282994 
L 208.629921 92.982445 
L 362.834646 94.381347 
L 362.834646 95.16823 
L 517.03937 96.567132 
L 517.03937 117.463237 
L 362.834646 118.86214 
L 362.834646 120.173611 
L 208.629921 121.572513 
L 208.629921 122.184533 
L 54.425197 123.583435 
L 54.425197 142.993206 
L 208.629921 144.392109 
L 208.629921 145.266423 
L 362.834646 146.665325 
L 362.834646 149.025973 
L 517.03937 150.424876 
L 517.03937 170.096941 
L 362.834646 171.495843 
L 362.834646 171.758137 
L 208.629921 173.15704 
L 208.629921 173.594197 
L 54.425197 174.993099 
L 54.425197 188.282672 
L 208.629921 189.681575 
L 208.629921 199.473892 
L 362.834646 200.872794 
L 362.834646 201.484814 
L 517.03937 202.883716 
L 517.03937 225.091292 
L 362.834646 226.490195 
L 362.834646 227.364509 
L 208.629921 228.763411 
L 208.629921 228.938274 
L 54.425197 230.337176 
L 54.425197 753.788976 
L 54.425197 753.788976 
" clip-path="url(#p80ac6e7271)" style="fill: none; stroke: #1f77b4; stroke-width: 0.35; stroke-linecap: square"/>
   </g>
   <g id="line2d_2">
    <path d="M 520.545538 54.425197 
L 520.545538 64.304945 
L 366.340813 65.703848 
L 366.340813 66.578162 
L 212.136089 67.977064 
L 212.136089 69.375966 
L 57.931364 70.774869 
L 57.931364 90.884091 
L 212.136089 92.282994 
L 212.136089 92.982445 
L 366.340813 94.381347 
L 366.340813 95.16823 
L 520.545538 96.567132 
L 520.545538 117.463237 
L 366.340813 118.86214 
L 366.340813 120.173611 
L 212.136089 121.572513 
L 212.136089 122.184533 
L 57.931364 123.583435 
L 57.931364 142.993206 
L 212.136089 144.392109 
L 212.136089 145.266423 
L 366.340813 146.665325 
L 366.340813 149.025973 
L 520.545538 150.424876 
L 520.545538 170.096941 
L 366.340813 171.495843 
L 366.340813 171.758137 
L 212.136089 173.15704 
L 212.136089 173.594197 
L 57.931364 174.993099 
L 57.931364 188.282672 
L 212.136089 189.681575 
L 212.136089 199.473892 
L 366.340813 200.872794 
L 366.340813 201.484814 
L 520.545538 202.883716 
L 520.545538 225.091292 
L 366.340813 226.490195 
L 366.340813 227.364509 
L 212.136089 228.763411 
L 212.136089 228.938274 
L 57.931364 230.337176 
L 57.931364 753.788976 
L 57.931364 753.788976 
" clip-path="url(#p80ac6e7271)" style="fill: none; stroke: #ff7f0e; stroke-width: 0.35; stroke-linecap: square"/>
   </g>
   <g id="line2d_3">
    <path d="M 522.4027 54.425197 
L 522.4027 64.304945 
L 368.197975 65.703848 
L 368.197975 66.578162 
L 213.993251 67.977064 
L 213.993251 69.375966 
L 59.788526 70.774869 
L 59.788526 90.884091 
L 213.993251 92.282994 
L 213.993251 92.982445 
L 368.197975 94.381347 
L 368.197975 95.16823 
L 522.4027 96.567132 
L 522.4027 117.463237 
L 368.197975 118.86214 
L 368.197975 120.173611 
L 213.993251 121.572513 
L 213.993251 122.184533 
L 59.788526 123.583435 
L 59.788526 142.993206 
L 213.993251 144.392109 
L 213.993251 145.266423 
L 368.197975 146.665325 
L 368.197975 149.025973 
L 522.4027 150.424876 
L 522.4027 170.096941 
L 368.197975 171.495843 
L 368.197975 171.758137 
L 213.993251 173.15704 
L 213.993251 173.594197 
L 59.788526 174.993099 
L 59.788526 188.282672 
L 213.993251 189.681575 
L 213.993251 199.473892 
L 368.197975 200.872794 
L 368.197975 201.484814 
L 522.4027 202.883716 
L 522.4027 225.178724 
L 368.197975 226.577626 
L 368.197975 227.45194 
L 213.993251 228.850843 
L 213.993251 229.025705 
L 59.788526 230.424608 
L 59.788526 579.101036 
L 213.993251 580.499939 
L 213.993251 580.58737 
L 368.197975 581.986273 
L 368.197975 582.773155 
L 522.4027 584.172058 
L 522.4027 753.788976 
L 522.4027 753.788976 
" clip-path="url(#p80ac6e7271)" style="fill: none; stroke: #2ca02c; stroke-width: 0.35; stroke-linecap: square"/>
   </g>
   <g id="line2d_4">
    <path d="M 521.737404 54.425197 
L 521.737404 64.304945 
L 367.53268 65.703848 
L 367.53268 66.578162 
L 213.327955 67.977064 
L 213.327955 69.375966 
L 59.123231 70.774869 
L 59.123231 90.884091 
L 213.327955 92.282994 
L 213.327955 92.982445 
L 367.53268 94.381347 
L 367.53268 95.16823 
L 521.737404 96.567132 
L 521.737404 117.463237 
L 367.53268 118.86214 
L 367.53268 120.173611 
L 213.327955 121.572513 
L 213.327955 122.184533 
L 59.123231 123.583435 
L 59.123231 142.993206 
L 213.327955 144.392109 
L 213.327955 145.266423 
L 367.53268 146.665325 
L 367.53268 149.025973 
L 521.737404 150.424876 
L 521.737404 170.096941 
L 367.53268 171.495843 
L 367.53268 171.758137 
L 213.327955 173.15704 
L 213.327955 173.594197 
L 59.123231 174.993099 
L 59.123231 188.282672 
L 213.327955 189.681575 
L 213.327955 199.473892 
L 367.53268 200.872794 
L 367.53268 201.484814 
L 521.737404 202.883716 
L 521.737404 225.178724 
L 367.53268 226.577626 
L 367.53268 227.539372 
L 213.327955 228.938274 
L 213.327955 229.113137 
L 59.123231 230.512039 
L 59.123231 303.954416 
L 213.327955 305.353319 
L 213.327955 305.44075 
L 367.53268 306.839653 
L 367.53268 307.713967 
L 521.737404 309.112869 
L 521.737404 753.788976 
L 521.737404 753.788976 
" clip-path="url(#p80ac6e7271)" style="fill: none; stroke: #d62728; stroke-width: 0.35; stroke-linecap: square"/>
   </g>
   <g id="line2d_5">
    <path d="M 518.86255 54.425197 
L 518.86255 64.304945 
L 364.657825 65.703848 
L 364.657825 66.578162 
L 210.453101 67.977064 
L 210.453101 69.375966 
L 56.248376 70.774869 
L 56.248376 90.884091 
L 210.453101 92.282994 
L 210.453101 92.982445 
L 364.657825 94.381347 
L 364.657825 95.16823 
L 518.86255 96.567132 
L 518.86255 117.463237 
L 364.657825 118.86214 
L 364.657825 120.173611 
L 210.453101 121.572513 
L 210.453101 122.184533 
L 56.248376 123.583435 
L 56.248376 142.993206 
L 210.453101 144.392109 
L 210.453101 145.266423 
L 364.657825 146.665325 
L 364.657825 149.113405 
L 518.86255 150.512307 
L 518.86255 170.096941 
L 364.657825 171.495843 
L 364.657825 171.758137 
L 210.453101 173.15704 
L 210.453101 173.594197 
L 56.248376 174.993099 
L 56.248376 188.282672 
L 210.453101 189.681575 
L 210.453101 199.473892 
L 364.657825 200.872794 
L 364.657825 201.484814 
L 518.86255 202.883716 
L 518.86255 225.266155 
L 364.657825 226.665058 
L 364.657825 227.626803 
L 210.453101 229.025705 
L 210.453101 229.200568 
L 56.248376 230.599471 
L 56.248376 313.659302 
L 210.453101 315.058204 
L 210.453101 315.582793 
L 364.657825 316.981695 
L 364.657825 319.16748 
L 518.86255 320.478951 
L 364.657825 321.877854 
L 364.657825 329.834111 
L 518.86255 331.233014 
L 518.86255 342.336802 
L 364.657825 343.735704 
L 364.657825 344.522587 
L 210.453101 345.921489 
L 210.453101 346.271215 
L 56.248376 347.670117 
L 56.248376 367.079888 
L 210.453101 368.478791 
L 210.453101 369.790262 
L 364.657825 371.189164 
L 364.657825 374.68642 
L 518.86255 376.085322 
L 518.86255 394.708211 
L 364.657825 396.107113 
L 364.657825 396.369408 
L 210.453101 397.76831 
L 210.453101 397.943173 
L 56.248376 399.342075 
L 56.248376 418.052395 
L 210.453101 419.451298 
L 210.453101 422.773691 
L 364.657825 424.172593 
L 364.657825 425.658927 
L 518.86255 427.057829 
L 518.86255 446.467601 
L 364.657825 447.866503 
L 364.657825 448.216229 
L 210.453101 449.615131 
L 210.453101 450.227151 
L 56.248376 451.626053 
L 56.248376 462.380116 
L 210.453101 463.779018 
L 210.453101 477.243454 
L 364.657825 478.642356 
L 364.657825 479.254376 
L 518.86255 480.653279 
L 518.86255 592.827766 
L 364.657825 594.226669 
L 364.657825 594.576394 
L 210.453101 595.975297 
L 210.453101 596.937042 
L 56.248376 598.335945 
L 56.248376 604.543574 
L 210.453101 605.942477 
L 210.453101 608.65285 
L 364.657825 610.051753 
L 364.657825 613.286714 
L 518.86255 614.685617 
L 518.86255 621.592698 
L 364.657825 622.9916 
L 364.657825 623.516188 
L 210.453101 624.915091 
L 210.453101 627.275739 
L 56.248376 628.674641 
L 56.248376 653.505159 
L 210.453101 654.904061 
L 210.453101 656.390395 
L 364.657825 657.789298 
L 364.657825 665.308398 
L 518.86255 666.707301 
L 518.86255 683.756424 
L 364.657825 685.155326 
L 364.657825 685.854778 
L 210.453101 687.25368 
L 210.453101 687.341111 
L 56.248376 688.740014 
L 56.248376 753.788976 
L 56.248376 753.788976 
" clip-path="url(#p80ac6e7271)" style="fill: none; stroke: #9467bd; stroke-width: 0.35; stroke-linecap: square"/>
   </g>
   <g id="line2d_6">
    <path d="M 515.130225 54.425197 
L 515.130225 64.304945 
L 360.925501 65.703848 
L 360.925501 66.578162 
L 206.720777 67.977064 
L 206.720777 69.375966 
L 52.516052 70.774869 
L 52.516052 90.884091 
L 206.720777 92.282994 
L 206.720777 92.982445 
L 360.925501 94.381347 
L 360.925501 95.16823 
L 515.130225 96.567132 
L 515.130225 117.463237 
L 360.925501 118.86214 
L 360.925501 120.173611 
L 206.720777 121.572513 
L 206.720777 122.184533 
L 52.516052 123.583435 
L 52.516052 142.993206 
L 206.720777 144.392109 
L 206.720777 145.266423 
L 360.925501 146.665325 
L 360.925501 149.113405 
L 515.130225 150.512307 
L 515.130225 170.096941 
L 360.925501 171.495843 
L 360.925501 171.758137 
L 206.720777 173.15704 
L 206.720777 173.594197 
L 52.516052 174.993099 
L 52.516052 188.282672 
L 206.720777 189.681575 
L 206.720777 199.473892 
L 360.925501 200.872794 
L 360.925501 201.484814 
L 515.130225 202.883716 
L 515.130225 225.266155 
L 360.925501 226.665058 
L 360.925501 227.714234 
L 206.720777 229.113137 
L 206.720777 229.288 
L 52.516052 230.686902 
L 52.516052 753.788976 
L 52.516052 753.788976 
" clip-path="url(#p80ac6e7271)" style="fill: none; stroke: #8c564b; stroke-width: 0.35; stroke-linecap: square"/>
   </g>
   <g id="line2d_7">
    <path d="M 512.295802 54.425197 
L 512.295802 64.304945 
L 358.091077 65.703848 
L 358.091077 66.578162 
L 203.886353 67.977064 
L 203.886353 69.375966 
L 49.681629 70.774869 
L 49.681629 90.971523 
L 203.886353 92.370425 
L 203.886353 92.982445 
L 358.091077 94.381347 
L 358.091077 95.16823 
L 512.295802 96.567132 
L 512.295802 117.463237 
L 358.091077 118.86214 
L 358.091077 120.173611 
L 203.886353 121.572513 
L 203.886353 122.184533 
L 49.681629 123.583435 
L 49.681629 142.993206 
L 203.886353 144.392109 
L 203.886353 145.353854 
L 358.091077 146.752757 
L 358.091077 149.113405 
L 512.295802 150.512307 
L 512.295802 170.096941 
L 358.091077 171.495843 
L 358.091077 171.758137 
L 203.886353 173.15704 
L 203.886353 173.594197 
L 49.681629 174.993099 
L 49.681629 188.282672 
L 203.886353 189.681575 
L 203.886353 199.473892 
L 358.091077 200.872794 
L 358.091077 201.484814 
L 512.295802 202.883716 
L 512.295802 225.353587 
L 358.091077 226.752489 
L 358.091077 227.801666 
L 203.886353 229.200568 
L 203.886353 229.375431 
L 49.681629 230.774333 
L 49.681629 753.788976 
L 49.681629 753.788976 
" clip-path="url(#p80ac6e7271)" style="fill: none; stroke: #e377c2; stroke-width: 0.35; stroke-linecap: square"/>
   </g>
  </g>
 </g>
 <defs>
  <clipPath id="p80ac6e7271">
   <rect x="0" y="0" width="571.464567" height="808.214173"/>
  </clipPath>
 </defs>
</svg>
